<svg width="40" height="40" viewBox="0 0 40 40" fill="none" xmlns="http://www.w3.org/2000/svg">
<rect x="1" y="1" width="38" height="38" rx="14" stroke="black" stroke-width="2"/>
<path d="M11.6581 30.8576L9.88209 31.883L4.90553 23.2634L6.68156 22.238L11.6581 30.8576ZM18.4188 23.126C18.8872 24.0923 18.9654 25.0206 18.6533 25.9112C18.3453 26.7995 17.686 27.5353 16.6757 28.1186C15.5706 28.7566 14.4862 28.8881 13.4223 28.513C12.3602 28.1316 11.4543 27.2917 10.7046 25.9932L10.4004 25.4663C9.9219 24.6375 9.64638 23.8231 9.57386 23.023C9.50133 22.2229 9.63858 21.499 9.9856 20.8514C10.3343 20.1975 10.8678 19.6632 11.5861 19.2485C12.5807 18.6743 13.5357 18.4781 14.4511 18.66C15.3665 18.8419 16.1495 19.387 16.8003 20.2953L15.0242 21.3207C14.6595 20.7893 14.2712 20.4767 13.8593 20.383C13.449 20.2831 12.9716 20.3904 12.4269 20.7048C11.8349 21.0466 11.5139 21.5161 11.464 22.1132C11.4158 22.7042 11.6452 23.4479 12.1523 24.3444L12.5283 24.9956C13.066 25.927 13.5992 26.527 14.1278 26.7954C14.6603 27.0615 15.2305 27.0191 15.8383 26.6682C16.3869 26.3515 16.7236 25.9913 16.8484 25.5877C16.9749 25.1779 16.9063 24.6991 16.6428 24.1514L18.4188 23.126ZM25.9477 17.1216C26.4376 17.9701 26.7172 18.8007 26.7864 19.6132C26.8555 20.4258 26.7102 21.1675 26.3503 21.8384C25.9943 22.507 25.4552 23.0498 24.7329 23.4668C24.0186 23.8792 23.2821 24.0755 22.5234 24.0557C21.7647 24.0359 21.048 23.7972 20.3733 23.3395C19.6963 22.8779 19.1166 22.2338 18.6341 21.4072L18.388 20.981C17.8981 20.1324 17.6194 19.2988 17.5519 18.48C17.486 17.655 17.6322 16.9102 17.9905 16.2455C18.3504 15.5746 18.8895 15.0318 19.6078 14.6171C20.3261 14.2024 21.0638 14.0081 21.8208 14.0341C22.5795 14.0539 23.2976 14.2997 23.9752 14.7715C24.6545 15.2371 25.2379 15.8922 25.7255 16.7368L25.9477 17.1216ZM23.9224 17.7699C23.4006 16.8661 22.8423 16.2728 22.2475 15.99C21.6527 15.7072 21.0554 15.739 20.4555 16.0853C19.8595 16.4294 19.5342 16.9277 19.4794 17.5803C19.4224 18.2289 19.6505 19.0023 20.1638 19.9005L20.4065 20.3208C20.9146 21.2009 21.4707 21.7903 22.0746 22.0889C22.6785 22.3875 23.2843 22.3613 23.8921 22.0104C24.4881 21.6663 24.8114 21.1692 24.8623 20.5189C24.9108 19.8646 24.6784 19.0884 24.1651 18.1903L23.9224 17.7699ZM36.6232 16.4441L34.8471 17.4695L28.1154 13.7941L31.3898 19.4655L29.6138 20.4909L24.6372 11.8713L26.4132 10.8459L33.1577 14.5297L29.8765 8.84638L31.6466 7.8244L36.6232 16.4441Z" fill="black"/>
</svg>
