<svg width="316" height="316" viewBox="0 0 316 316" fill="none" xmlns="http://www.w3.org/2000/svg">
<path d="M308.06 156.27C308.06 157.397 308.06 158.527 308.06 159.66C308.06 160.79 308.06 161.92 307.98 163.05C307.9 164.18 307.89 165.32 307.83 166.44C307.77 167.56 307.69 168.7 307.6 169.83C307.51 170.96 307.41 172.08 307.29 173.21C307.17 174.34 307.05 175.46 306.91 176.58C306.77 177.7 306.62 178.82 306.45 179.94C306.28 181.06 306.11 182.18 305.92 183.29C305.73 184.4 305.52 185.52 305.31 186.63C305.1 187.74 304.86 188.85 304.62 189.95C304.38 191.05 304.13 192.16 303.86 193.26C303.59 194.36 303.32 195.45 303.03 196.54C302.74 197.63 302.43 198.73 302.12 199.81C301.81 200.89 301.47 201.98 301.12 203.06C300.77 204.14 300.43 205.21 300.07 206.29C299.71 207.37 299.33 208.42 298.94 209.48C298.55 210.54 298.15 211.6 297.74 212.66C297.33 213.72 296.9 214.76 296.47 215.8C296.04 216.84 295.58 217.89 295.13 218.92C294.68 219.95 294.2 220.98 293.71 222C293.22 223.02 292.71 224 292.23 225.06C291.75 226.12 291.23 227.06 290.68 228.06C290.13 229.06 289.61 230.06 289.06 231.06C288.51 232.06 287.95 233.06 287.38 234.01C286.81 234.96 286.22 235.95 285.63 236.91C285.04 237.87 284.43 238.83 283.81 239.78C283.19 240.73 282.57 241.67 281.93 242.6C281.29 243.53 280.64 244.46 279.98 245.38C279.32 246.3 278.66 247.22 277.98 248.12C277.3 249.02 276.61 249.92 275.91 250.81C275.21 251.7 274.5 252.58 273.78 253.45C273.06 254.32 272.33 255.19 271.59 256.05C270.85 256.91 270.11 257.75 269.35 258.59C268.59 259.43 267.82 260.26 267.05 261.08C266.28 261.9 265.48 262.72 264.69 263.52C263.9 264.32 263.09 265.12 262.28 265.9C261.47 266.68 260.64 267.47 259.81 268.24C258.98 269.01 258.14 269.76 257.29 270.51C256.44 271.26 255.59 272 254.72 272.73C253.85 273.46 252.99 274.17 252.11 274.88C251.23 275.59 250.34 276.29 249.44 276.98C248.54 277.67 247.64 278.35 246.73 278.98C245.82 279.61 244.9 280.31 243.97 280.98C243.04 281.65 242.11 282.27 241.17 282.9C240.23 283.53 239.28 284.14 238.32 284.75C237.36 285.36 236.41 285.95 235.44 286.53C234.47 287.11 233.49 287.69 232.51 288.25C231.53 288.81 230.51 289.36 229.51 289.9C228.51 290.44 227.51 290.97 226.51 291.48C225.51 291.99 224.51 292.48 223.51 293C222.51 293.52 221.51 294 220.44 294.45C219.37 294.9 218.38 295.38 217.34 295.83C216.3 296.28 215.26 296.71 214.21 297.13C213.16 297.55 212.11 297.97 211.05 298.37C209.99 298.77 208.93 299.16 207.87 299.53C206.81 299.9 205.73 300.27 204.66 300.63C203.59 300.99 202.5 301.32 201.42 301.63C200.34 301.94 199.25 302.28 198.16 302.58C197.07 302.88 195.98 303.17 194.88 303.45C193.78 303.73 192.69 304 191.59 304.25C190.49 304.5 189.38 304.74 188.27 304.97C187.16 305.2 186.05 305.42 184.94 305.62C183.83 305.82 182.71 306.01 181.6 306.19C180.49 306.37 179.36 306.54 178.24 306.69C177.12 306.84 176 306.98 174.87 307.11C173.74 307.24 172.63 307.35 171.5 307.45C170.37 307.55 169.25 307.65 168.12 307.72C166.99 307.79 165.86 307.86 164.73 307.91C163.6 307.96 162.47 308 161.34 308.03C160.21 308.06 159.08 308.03 157.95 308.03C156.82 308.03 155.68 308.03 154.55 308.03C153.42 308.03 152.29 307.97 151.16 307.91C150.03 307.85 148.9 307.8 147.78 307.72C146.66 307.64 145.52 307.56 144.39 307.45C143.26 307.34 142.14 307.24 141.02 307.11C139.9 306.98 138.77 306.84 137.65 306.69C136.53 306.54 135.41 306.37 134.3 306.19C133.19 306.01 132.06 305.82 130.95 305.62C129.84 305.42 128.73 305.2 127.62 304.97C126.51 304.74 125.41 304.5 124.31 304.25C123.21 304 122.11 303.73 121.01 303.45C119.91 303.17 118.82 302.88 117.73 302.58C116.64 302.28 115.56 301.96 114.47 301.63C113.38 301.3 112.31 300.97 111.24 300.63C110.17 300.29 109.09 299.91 108.02 299.53C106.95 299.15 105.9 298.77 104.84 298.37C103.78 297.97 102.73 297.56 101.68 297.13C100.63 296.7 99.5901 296.27 98.5501 295.83C97.5101 295.39 96.48 294.92 95.4501 294.45C94.4201 293.98 93.4501 293.5 92.3801 293C91.3101 292.5 90.3801 292 89.3801 291.48C88.3801 290.96 87.3801 290.48 86.3801 289.9C85.3801 289.32 84.3801 288.81 83.3801 288.25C82.3801 287.69 81.3801 287.11 80.4601 286.53C79.5401 285.95 78.5201 285.35 77.5701 284.75C76.6201 284.15 75.6701 283.52 74.7301 282.9C73.7901 282.28 72.8501 281.63 71.9201 280.98C70.9901 280.33 70.0801 279.68 69.1601 278.98C68.2401 278.28 67.3501 277.63 66.4501 276.98C65.5501 276.33 64.6701 275.59 63.7901 274.88C62.9101 274.17 62.0301 273.46 61.1701 272.73C60.3101 272 59.4501 271.26 58.6001 270.51C57.7501 269.76 56.9101 269 56.0801 268.24C55.2501 267.48 54.4301 266.69 53.6201 265.91C52.8101 265.13 52.0001 264.32 51.2001 263.52C50.4001 262.72 49.6201 261.9 48.8501 261.08C48.0801 260.26 47.3001 259.43 46.5401 258.59C45.7801 257.75 45.0401 256.9 44.3001 256.05C43.5601 255.2 42.8301 254.32 42.1101 253.45C41.3901 252.58 40.6801 251.7 39.9801 250.81C39.2801 249.92 38.5901 249.02 37.9101 248.12C37.2301 247.22 36.5701 246.3 35.9101 245.38C35.2501 244.46 34.6001 243.54 33.9101 242.6C33.2201 241.66 32.6501 240.73 32.0301 239.78C31.4101 238.83 30.8101 237.88 30.2201 236.92C29.6301 235.96 29.1001 235 28.5301 234C27.9601 233 27.3901 232 26.8401 231.06C26.2901 230.12 25.7501 229.06 25.2201 228.06C24.6901 227.06 24.2201 226.06 23.6701 225.06C23.1201 224.06 22.6701 223.06 22.1901 222C21.7101 220.94 21.1901 219.95 20.7801 218.92C20.3701 217.89 19.8701 216.85 19.4301 215.8C18.9901 214.75 18.5701 213.71 18.1601 212.66C17.7501 211.61 17.3501 210.55 16.9601 209.48C16.5701 208.41 16.2001 207.36 15.8301 206.29C15.4601 205.22 15.1201 204.14 14.7801 203.06C14.4401 201.98 14.1101 200.9 13.7801 199.81C13.4501 198.72 13.1601 197.64 12.8701 196.55C12.5801 195.46 12.3001 194.36 12.0301 193.26C11.7601 192.16 11.5101 191.06 11.2701 189.95C11.0301 188.84 10.8001 187.74 10.5901 186.63C10.3801 185.52 10.1701 184.41 9.98006 183.29C9.79006 182.17 9.61006 181.06 9.44006 179.94C9.27006 178.82 9.12006 177.7 8.98006 176.58C8.84006 175.46 8.72006 174.33 8.60006 173.21C8.48006 172.09 8.38006 170.96 8.29006 169.83C8.20006 168.7 8.13006 167.57 8.06006 166.44C7.99006 165.31 7.95006 164.19 7.91006 163.05C7.87006 161.91 7.85006 160.79 7.83006 159.66C7.81006 158.53 7.83006 157.4 7.83006 156.27C7.83006 155.14 7.83006 154.01 7.91006 152.88C7.99006 151.75 8.00006 150.62 8.06006 149.49C8.12006 148.36 8.21006 147.23 8.29006 146.1C8.37006 144.97 8.49006 143.85 8.60006 142.73C8.71006 141.61 8.84006 140.48 8.98006 139.35C9.12006 138.22 9.28006 137.11 9.44006 135.99C9.60006 134.87 9.79006 133.76 9.98006 132.64C10.1701 131.52 10.3701 130.42 10.5901 129.31C10.8101 128.2 11.0301 127.09 11.2701 125.98C11.5101 124.87 11.7701 123.78 12.0301 122.68C12.2901 121.58 12.5801 120.48 12.8701 119.39C13.1601 118.3 13.4601 117.21 13.7801 116.12C14.1001 115.03 14.4201 113.95 14.7801 112.87C15.1401 111.79 15.4701 110.72 15.8301 109.65C16.1901 108.58 16.5701 107.51 16.9601 106.45C17.3501 105.39 17.7501 104.33 18.1601 103.28C18.5701 102.23 19.0001 101.17 19.4301 100.13C19.8601 99.09 20.3201 98.05 20.7801 97.01C21.2401 95.97 21.7101 94.95 22.1901 93.93C22.6701 92.91 23.1901 91.93 23.6701 90.88C24.1501 89.83 24.6701 88.88 25.2201 87.88C25.7701 86.88 26.2901 85.88 26.8401 84.88C27.3901 83.88 27.9501 82.88 28.5201 81.93C29.0901 80.98 29.6801 80 30.2801 79C30.8801 78 31.4801 77.08 32.0901 76.13C32.7001 75.18 33.3401 74.24 33.9701 73.31C34.6001 72.38 35.2601 71.45 35.9701 70.53C36.6801 69.61 37.3001 68.7 37.9701 67.79C38.6401 66.88 39.2901 66 40.0001 65.13C40.7101 64.26 41.4101 63.36 42.1301 62.49C42.8501 61.62 43.5801 60.75 44.3201 59.9C45.0601 59.05 45.8101 58.19 46.5601 57.35C47.3101 56.51 48.0901 55.68 48.8701 54.86C49.6501 54.04 50.4301 53.23 51.2201 52.42C52.0101 51.61 52.8201 50.82 53.6401 50.04C54.4601 49.26 55.2701 48.48 56.1001 47.71C56.9301 46.94 57.7701 46.18 58.6201 45.43C59.4701 44.68 60.3201 43.95 61.1901 43.22C62.0601 42.49 62.9201 41.77 63.8101 41.06C64.7001 40.35 65.5701 39.65 66.4701 38.96C67.3701 38.27 68.2701 37.59 69.1801 36.96L71.9401 34.96C72.8701 34.31 73.8001 33.67 74.7501 33.05C75.7001 32.43 76.6301 31.8 77.59 31.2C78.55 30.6 79.5001 30 80.4701 29.4C81.4401 28.8 82.41 28.25 83.3901 27.68C84.3701 27.11 85.3901 26.57 86.3901 26.03C87.3901 25.49 88.3901 24.97 89.3901 24.45C90.3901 23.93 91.3901 23.45 92.3901 22.93L95.4601 21.48C96.4601 21.01 97.5201 20.56 98.5601 20.11C99.6001 19.66 100.64 19.22 101.69 18.8C102.74 18.38 103.79 17.96 104.85 17.56C105.91 17.16 107 16.78 108 16.4C109 16.02 110.14 15.66 111.22 15.31C112.3 14.96 113.37 14.62 114.45 14.31C115.53 14 116.62 13.67 117.71 13.36C118.8 13.05 119.89 12.77 120.99 12.49C122.09 12.21 123.19 11.95 124.29 11.69C125.39 11.43 126.49 11.2 127.6 10.97C128.71 10.74 129.82 10.53 130.93 10.32C132.04 10.11 133.16 9.93 134.28 9.75C135.4 9.57 136.51 9.41 137.63 9.25C138.75 9.09 139.88 8.96 141 8.83C142.12 8.7 143.25 8.59 144.37 8.49C145.49 8.39 146.63 8.30001 147.76 8.22001C148.89 8.14001 150 8.06 151.17 8L154.56 7.88H157.96H161.35L164.74 8C165.87 8.05 167 8.11 168.13 8.19C169.26 8.27 170.38 8.36 171.51 8.46C172.64 8.56 173.76 8.68 174.88 8.8C176 8.92 177.13 9.07001 178.25 9.22001C179.37 9.37001 180.49 9.54 181.61 9.72001C182.73 9.90001 183.84 10.09 184.95 10.29C186.06 10.49 187.17 10.71 188.28 10.94C189.39 11.17 190.49 11.41 191.6 11.66C192.71 11.91 193.8 12.18 194.89 12.46C195.98 12.74 197.08 13.03 198.17 13.33C199.26 13.63 200.35 13.95 201.43 14.28C202.51 14.61 203.59 14.95 204.67 15.28C205.75 15.61 206.81 15.99 207.88 16.37C208.95 16.75 210.01 17.13 211.07 17.53C212.13 17.93 213.18 18.35 214.22 18.77C215.26 19.19 216.32 19.63 217.36 20.08C218.4 20.53 219.43 20.99 220.46 21.46C221.49 21.93 222.46 22.46 223.52 22.9C224.58 23.34 225.52 23.9 226.52 24.42C227.52 24.94 228.52 25.42 229.52 26C230.52 26.58 231.52 27.09 232.52 27.66C233.52 28.23 234.52 28.79 235.45 29.37C236.38 29.95 237.38 30.55 238.33 31.16C239.28 31.77 240.24 32.38 241.18 33.01C242.12 33.64 243.05 34.3 244 35C244.95 35.7 245.85 36.31 246.76 37C247.67 37.69 248.57 38.34 249.47 39C250.37 39.66 251.26 40.39 252.14 41.1C253.02 41.81 253.89 42.53 254.76 43.26C255.63 43.99 256.48 44.73 257.32 45.48C258.16 46.23 259.01 46.98 259.84 47.75C260.67 48.52 261.49 49.29 262.31 50.08C263.13 50.87 263.93 51.66 264.72 52.46C265.51 53.26 266.3 54.08 267.08 54.9C267.86 55.72 268.62 56.56 269.38 57.4C270.14 58.24 270.89 59.08 271.63 59.94C272.37 60.8 273.09 61.66 273.81 62.53C274.53 63.4 275.24 64.29 275.94 65.18C276.64 66.07 277.33 66.96 278.01 67.86C278.69 68.76 279.36 69.68 280.01 70.6C280.66 71.52 281.31 72.45 281.95 73.38C282.59 74.31 283.21 75.26 283.83 76.2C284.45 77.14 285 78.07 285.64 79C286.28 79.93 286.82 80.93 287.39 81.91C287.96 82.89 288.52 83.91 289.07 84.85C289.62 85.79 290.16 86.85 290.69 87.85C291.22 88.85 291.74 89.85 292.24 90.85C292.74 91.85 293.24 92.85 293.72 93.9C294.2 94.95 294.72 95.9 295.14 96.99C295.56 98.08 296.04 99.06 296.48 100.1C296.92 101.14 297.34 102.19 297.75 103.25C298.16 104.31 298.56 105.36 298.95 106.42C299.34 107.48 299.71 108.55 300.08 109.62C300.45 110.69 300.79 111.77 301.13 112.84C301.47 113.91 301.8 115.01 302.13 116.09C302.46 117.17 302.74 118.27 303.04 119.36C303.34 120.45 303.6 121.55 303.87 122.65C304.14 123.75 304.39 124.85 304.63 125.96C304.87 127.07 305.1 128.17 305.32 129.28C305.54 130.39 305.74 131.5 305.93 132.62C306.12 133.74 306.3 134.85 306.46 135.97C306.62 137.09 306.78 138.21 306.92 139.33C307.06 140.45 307.19 141.57 307.3 142.7C307.41 143.83 307.52 144.95 307.61 146.08C307.7 147.21 307.77 148.33 307.84 149.46C307.91 150.59 307.95 151.72 307.99 152.85C308.03 153.98 308 155.14 308.06 156.27Z" fill="white"/>
<path d="M158 308.33C156.86 308.33 155.73 308.33 154.6 308.33C153.47 308.33 152.33 308.27 151.2 308.21C150.07 308.15 148.94 308.1 147.81 308.02C146.68 307.94 145.55 307.86 144.42 307.75C143.29 307.64 142.17 307.54 141.04 307.41C139.91 307.28 138.79 307.14 137.67 306.99C136.55 306.84 135.43 306.67 134.31 306.49C133.19 306.31 132.07 306.12 130.96 305.92C129.85 305.72 128.73 305.5 127.62 305.27C126.51 305.04 125.41 304.8 124.3 304.54C123.19 304.28 122.1 304.02 121 303.75C119.9 303.48 118.81 303.17 117.71 302.87C116.61 302.57 115.53 302.25 114.45 301.92C113.37 301.59 112.29 301.26 111.21 300.92C110.13 300.58 109.06 300.21 107.99 299.83C106.92 299.45 105.86 299.06 104.8 298.66C103.74 298.26 102.69 297.85 101.64 297.43C100.59 297.01 99.5401 296.56 98.5001 296.11C97.4601 295.66 96.4201 295.21 95.3901 294.74L92.3201 293.29C91.3201 292.79 90.3201 292.29 89.3201 291.77C88.3201 291.25 87.3201 290.77 86.3201 290.18C85.3201 289.59 84.3201 289.09 83.3201 288.53C82.3201 287.97 81.3201 287.39 80.3901 286.8C79.4601 286.21 78.4501 285.62 77.5001 285.02C76.5501 284.42 75.5901 283.79 74.6501 283.17C73.7101 282.55 72.7701 281.9 71.84 281.25C70.91 280.6 69.9901 279.94 69.0801 279.25C68.1701 278.56 67.2601 277.9 66.3601 277.25C65.4601 276.6 64.5701 275.86 63.6901 275.15C62.8101 274.44 61.9301 273.72 61.0701 272.99C60.2101 272.26 59.3401 271.52 58.4901 270.77C57.6401 270.02 56.8001 269.26 55.9701 268.49C55.1401 267.72 54.3201 266.94 53.5001 266.16C52.6801 265.38 51.8801 264.57 51.0901 263.77C50.3001 262.97 49.5001 262.15 48.7201 261.32C47.9401 260.49 47.1801 259.67 46.4201 258.83C45.6601 257.99 44.9101 257.14 44.1701 256.28C43.4301 255.42 42.7001 254.55 41.9801 253.68C41.2601 252.81 40.5001 251.84 39.8001 251C39.1001 250.16 38.4001 249.22 37.7201 248.31C37.0401 247.4 36.3701 246.49 35.7201 245.57C35.0701 244.65 34.4101 243.72 33.7701 242.79C33.1301 241.86 32.5001 240.91 31.8801 239.96C31.2601 239.01 30.6601 238 30.0601 237C29.4601 236 28.8801 235.06 28.3101 234.09C27.7401 233.12 27.1701 232.09 26.6201 231.14C26.0701 230.19 25.5301 229.14 25.0001 228.14C24.4701 227.14 23.9501 226.14 23.4501 225.14C22.9501 224.14 22.4501 223.14 21.9601 222.08C21.4701 221.02 21.0001 220.06 20.5501 219C20.1001 217.94 19.6401 216.92 19.2001 215.88C18.7601 214.84 18.3401 213.78 17.9301 212.73C17.5201 211.68 17.1201 210.61 16.7301 209.55C16.3401 208.49 15.9601 207.42 15.6001 206.35C15.2401 205.28 14.8801 204.2 14.5401 203.12C14.2001 202.04 13.8701 200.95 13.5401 199.86C13.2101 198.77 12.9201 197.69 12.6201 196.59C12.3201 195.49 12.0601 194.4 11.7901 193.3C11.5201 192.2 11.2701 191.09 11.0301 189.98C10.7901 188.87 10.5601 187.77 10.3401 186.66C10.1201 185.55 9.92006 184.43 9.73006 183.31C9.54006 182.19 9.36006 181.08 9.19006 179.96C9.02006 178.84 8.88006 177.71 8.74006 176.59C8.60006 175.47 8.47006 174.34 8.35006 173.21C8.23006 172.08 8.13006 170.96 8.05006 169.83C7.97006 168.7 7.88006 167.57 7.81006 166.44C7.74006 165.31 7.70006 164.18 7.66006 163.04C7.62006 161.9 7.60006 160.78 7.58006 159.65C7.56006 158.52 7.58006 157.38 7.58006 156.25C7.58006 155.12 7.58006 153.98 7.66006 152.85C7.74006 151.72 7.75006 150.59 7.81006 149.46C7.87006 148.33 7.96006 147.19 8.05006 146.07C8.14006 144.95 8.24006 143.81 8.35006 142.68C8.46006 141.55 8.59006 140.43 8.74006 139.3C8.89006 138.17 9.03006 137.06 9.19006 135.94C9.35006 134.82 9.54006 133.7 9.73006 132.58C9.92006 131.46 10.1301 130.35 10.3401 129.24C10.5501 128.13 10.7901 127.02 11.0301 125.91C11.2701 124.8 11.5201 123.7 11.7901 122.6C12.0601 121.5 12.3301 120.4 12.6201 119.3C12.9101 118.2 13.2201 117.12 13.5401 116.03C13.8601 114.94 14.1801 113.86 14.5401 112.78C14.9001 111.7 15.2301 110.62 15.6001 109.55C15.9701 108.48 16.3401 107.41 16.7301 106.34C17.1201 105.27 17.5201 104.22 17.9301 103.16C18.3401 102.1 18.7701 101.06 19.2001 100.01C19.6301 98.96 20.0901 97.93 20.5501 96.89C21.0101 95.85 21.4801 94.83 21.9601 93.8C22.4401 92.77 22.9601 91.8 23.4501 90.8C23.9401 89.8 24.4501 88.8 25.0001 87.8C25.5501 86.8 26.0701 85.8 26.6201 84.8C27.1701 83.8 27.7401 82.8 28.3101 81.8C28.8801 80.8 29.4701 79.8 30.0601 78.89C30.6501 77.98 31.2701 77 31.8801 76C32.4901 75 33.1301 74.1 33.7701 73.17C34.4101 72.24 35.0501 71.3 35.7101 70.38C36.3701 69.46 37.0401 68.55 37.7101 67.64C38.3801 66.73 39.1001 65.87 39.8001 65C40.5001 64.13 41.2101 63.23 41.9301 62.35C42.6501 61.47 43.3801 60.61 44.1201 59.75C44.8601 58.89 45.6101 58.05 46.3701 57.21C47.1301 56.37 47.9001 55.53 48.6701 54.71C49.4401 53.89 50.2401 53.07 51.0401 52.27C51.8401 51.47 52.6401 50.67 53.4501 49.88C54.2601 49.09 55.0901 48.31 55.9201 47.54C56.7501 46.77 57.5901 46.02 58.4401 45.27C59.2901 44.52 60.1501 43.76 61.0001 43C61.8501 42.24 62.7401 41.55 63.6201 40.83C64.5001 40.11 65.3901 39.42 66.2901 38.73C67.1901 38.04 68.0901 37.36 69.0101 36.73C69.9301 36.1 70.84 35.4 71.7701 34.73C72.7001 34.06 73.6301 33.45 74.5801 32.82C75.5301 32.19 76.4701 31.57 77.4301 30.97C78.3901 30.37 79.3501 29.76 80.3201 29.18C81.2901 28.6 82.2601 28.02 83.2501 27.46C84.2401 26.9 85.2501 26.34 86.2501 25.8C87.2501 25.26 88.2501 24.73 89.2501 24.22C90.2501 23.71 91.2501 23.22 92.2501 22.7C93.2501 22.18 94.2501 21.7 95.3201 21.25C96.3901 20.8 97.3901 20.32 98.4301 19.87C99.4701 19.42 100.51 18.98 101.56 18.56C102.61 18.14 103.67 17.72 104.73 17.32C105.79 16.92 106.85 16.53 107.92 16.15C108.99 15.77 110.06 15.41 111.14 15.06L114.38 14.06C115.46 13.73 116.55 13.42 117.64 13.06C118.73 12.7 119.83 12.47 120.93 12.19C122.03 11.91 123.13 11.64 124.23 11.39C125.33 11.14 126.44 10.89 127.55 10.67C128.66 10.45 129.77 10.22 130.89 10.02C132.01 9.82002 133.12 9.62002 134.24 9.44002C135.36 9.26002 136.48 9.10002 137.6 8.95002C138.72 8.80002 139.85 8.65002 140.97 8.52002C142.09 8.39002 143.22 8.28002 144.35 8.18002C145.48 8.08002 146.64 8.00002 147.77 8.00002C148.9 8.00002 150.03 7.86002 151.16 7.81002C152.29 7.76002 153.43 7.72002 154.56 7.69002C156.82 7.63669 159.087 7.63669 161.36 7.69002L164.75 7.81002C165.88 7.81002 167.01 7.92002 168.14 8.00002C169.27 8.08002 170.4 8.17002 171.53 8.27002C172.66 8.37002 173.79 8.49002 174.91 8.61002C176.03 8.73002 177.16 8.88002 178.29 9.04002C179.42 9.20002 180.53 9.35002 181.65 9.53002C182.77 9.71002 183.88 9.90002 185 10.11C186.12 10.32 187.22 10.53 188.33 10.76C189.44 10.99 190.55 11.23 191.65 11.48C192.75 11.73 193.86 12 194.96 12.28C196.06 12.56 197.15 12.85 198.24 13.15C199.33 13.45 200.42 13.77 201.5 14.15C202.58 14.53 203.67 14.82 204.74 15.15C205.81 15.48 206.89 15.87 207.96 16.24C209.03 16.61 210.09 17.01 211.15 17.41C212.21 17.81 213.27 18.22 214.32 18.65C215.37 19.08 216.41 19.51 217.45 19.96C218.49 20.41 219.53 20.87 220.56 21.34C221.59 21.81 222.61 22.29 223.63 22.79C224.65 23.29 225.63 23.79 226.63 24.31C227.63 24.83 228.63 25.31 229.63 25.89C230.63 26.47 231.63 26.99 232.63 27.55C233.63 28.11 234.63 28.69 235.56 29.27C236.49 29.85 237.49 30.45 238.45 31.06C239.41 31.67 240.35 32.28 241.3 32.91C242.25 33.54 243.18 34.18 244.1 34.82C245.02 35.46 245.95 36.13 246.87 36.82C247.79 37.51 248.69 38.17 249.58 38.82C250.47 39.47 251.37 40.22 252.25 40.93C253.13 41.64 254 42.3 254.9 43C255.8 43.7 256.62 44.47 257.47 45.22C258.32 45.97 259.16 46.73 259.99 47.5C260.82 48.27 261.65 49.04 262.46 49.83C263.27 50.62 264.08 51.41 264.88 52.22C265.68 53.03 266.46 53.84 267.24 54.66C268.02 55.48 268.79 56.32 269.55 57.16C270.31 58 271.06 58.85 271.79 59.71C272.52 60.57 273.26 61.43 273.99 62.3C274.72 63.17 275.42 64.06 276.12 64.95C276.82 65.84 277.51 66.74 278.19 67.64C278.87 68.54 279.54 69.46 280.19 70.39C280.84 71.32 281.5 72.23 282.14 73.17C282.78 74.11 283.41 75.08 284 76C284.59 76.92 285.22 77.9 285.82 78.87C286.42 79.84 287 80.8 287.57 81.78C288.14 82.76 288.71 83.78 289.26 84.78C289.81 85.78 290.35 86.78 290.88 87.78C291.41 88.78 291.88 89.78 292.44 90.78C293 91.78 293.44 92.78 293.92 93.84C294.4 94.9 294.87 95.84 295.34 96.93C295.81 98.02 296.24 99 296.68 100.05C297.12 101.1 297.54 102.14 297.95 103.2C298.36 104.26 298.77 105.31 299.15 106.37C299.53 107.43 299.92 108.51 300.28 109.58C300.64 110.65 301 111.73 301.34 112.81C301.68 113.89 302.01 114.98 302.34 116.06C302.67 117.14 302.96 118.24 303.25 119.34C303.54 120.44 303.82 121.53 304.08 122.63C304.34 123.73 304.6 124.84 304.84 125.94C305.08 127.04 305.32 128.16 305.53 129.27C305.74 130.38 305.95 131.5 306.14 132.61C306.33 133.72 306.51 134.85 306.68 135.97C306.85 137.09 307 138.21 307.14 139.34C307.28 140.47 307.4 141.59 307.52 142.71C307.64 143.83 307.74 144.97 307.83 146.1C307.92 147.23 307.99 148.36 308.06 149.49C308.13 150.62 308.17 151.75 308.21 152.88C308.25 154.01 308.27 155.15 308.29 156.28C308.31 157.41 308.29 158.54 308.29 159.68C308.29 160.82 308.29 161.94 308.21 163.07C308.13 164.2 308.12 165.34 308.06 166.47C308 167.6 307.92 168.73 307.83 169.86C307.74 170.99 307.64 172.12 307.52 173.24C307.4 174.36 307.28 175.5 307.14 176.62C307 177.74 306.84 178.87 306.68 179.99C306.52 181.11 306.33 182.23 306.14 183.34C305.95 184.45 305.75 185.57 305.53 186.69C305.31 187.81 305.09 188.91 304.84 190.01C304.59 191.11 304.35 192.22 304.08 193.33C303.81 194.44 303.54 195.52 303.25 196.62C302.96 197.72 302.65 198.81 302.34 199.89C302.03 200.97 301.69 202.07 301.34 203.15C300.99 204.23 300.65 205.3 300.28 206.38C299.91 207.46 299.54 208.52 299.15 209.58C298.76 210.64 298.36 211.7 297.95 212.76C297.54 213.82 297.11 214.86 296.68 215.91C296.25 216.96 295.79 218 295.33 219.03C294.87 220.06 294.4 221.1 293.92 222.12C293.44 223.14 292.92 224.12 292.43 225.18C291.94 226.24 291.43 227.18 290.88 228.18C290.33 229.18 289.81 230.18 289.26 231.18C288.71 232.18 288.15 233.18 287.57 234.13C286.99 235.08 286.41 236.07 285.82 237.04C285.23 238.01 284.62 238.96 284 239.91C283.38 240.86 282.75 241.8 282.11 242.73C281.47 243.66 280.83 244.6 280.17 245.52C279.51 246.44 278.84 247.35 278.17 248.26C277.5 249.17 276.8 250.06 276.1 250.95C275.4 251.84 274.69 252.73 273.96 253.6C273.23 254.47 272.51 255.34 271.77 256.2C271.03 257.06 270.28 257.91 269.52 258.75C268.76 259.59 268 260.42 267.22 261.24C266.44 262.06 265.65 262.88 264.86 263.69C264.07 264.5 263.25 265.29 262.44 266.07C261.63 266.85 260.8 267.64 259.97 268.41C259.14 269.18 258.3 269.94 257.45 270.69C256.6 271.44 255.74 272.18 254.88 272.91C254.02 273.64 253.14 274.36 252.25 275.07C251.36 275.78 250.48 276.48 249.58 277.17C248.68 277.86 247.78 278.54 246.86 279.17C245.94 279.8 245.03 280.5 244.1 281.17C243.17 281.84 242.24 282.46 241.3 283.09L238.47 285C237.47 285.6 236.55 286.2 235.58 286.78C234.61 287.36 233.58 287.94 232.65 288.51L229.65 290.16C228.65 290.7 227.65 291.23 226.65 291.75C225.65 292.27 224.65 292.75 223.65 293.27L220.58 294.72C219.58 295.19 218.51 295.65 217.47 296.09C216.43 296.53 215.39 296.98 214.34 297.4C213.29 297.82 212.23 298.24 211.17 298.64C210.11 299.04 209.05 299.43 207.98 299.81C206.91 300.19 205.84 300.55 204.76 300.9C203.68 301.25 202.61 301.6 201.52 301.9C200.43 302.2 199.35 302.55 198.26 302.85C197.17 303.15 196.07 303.45 194.97 303.73C193.87 304.01 192.77 304.27 191.67 304.52C190.57 304.77 189.46 305.02 188.35 305.25C187.24 305.48 186.13 305.69 185.02 305.9L181.67 306.47C180.55 306.65 179.43 306.81 178.3 306.97C177.17 307.13 176.06 307.26 174.93 307.39C173.8 307.52 172.68 307.63 171.55 307.73C170.42 307.83 169.29 307.93 168.16 308C167.03 308.07 165.9 308.14 164.77 308.19C163.64 308.24 162.51 308.28 161.37 308.31C160.23 308.34 159.09 308.33 158 308.33ZM158 8.11002C156.873 8.11002 155.743 8.11002 154.61 8.11002L151.22 8.23002C150.1 8.28002 148.97 8.34002 147.84 8.42002C146.71 8.50002 145.59 8.59002 144.47 8.69002C143.35 8.79002 142.22 8.90002 141.1 9.03002C139.98 9.16002 138.85 9.30002 137.74 9.45002C136.63 9.60002 135.5 9.77002 134.39 9.95002C133.28 10.13 132.16 10.32 131.05 10.52C129.94 10.72 128.83 10.94 127.72 11.17C126.61 11.4 125.51 11.63 124.41 11.89C123.31 12.15 122.22 12.41 121.12 12.68C120.02 12.95 118.94 13.25 117.85 13.55C116.76 13.85 115.68 14.17 114.6 14.5C113.52 14.83 112.44 15.16 111.36 15.5C110.28 15.84 109.22 16.21 108.16 16.59C107.1 16.97 106.03 17.35 104.98 17.75C103.93 18.15 102.87 18.56 101.82 18.98C100.77 19.4 99.73 19.84 98.7001 20.29C97.6701 20.74 96.6301 21.19 95.6001 21.66C94.5701 22.13 93.6001 22.61 92.5401 23.11C91.4801 23.61 90.5401 24.11 89.5401 24.62C88.5401 25.13 87.5401 25.62 86.5401 26.2C85.5401 26.78 84.5401 27.29 83.5401 27.85C82.5401 28.41 81.5401 28.98 80.6201 29.57C79.7001 30.16 78.7001 30.74 77.7401 31.35C76.7801 31.96 75.8401 32.57 74.9001 33.19C73.9601 33.81 73.0001 34.51 72.0801 35.15C71.1601 35.79 70.2301 36.46 69.3201 37.15C68.4101 37.84 67.5101 38.49 66.6101 39.15L64.0001 41.25C63.1201 41.9567 62.2501 42.6767 61.3901 43.41C60.5301 44.14 59.6701 44.87 58.8201 45.62L56.3101 47.89C55.4801 48.66 54.6601 49.43 53.8501 50.22C53.0401 51.01 52.2301 51.8 51.4401 52.6C50.6501 53.4 49.8101 54.21 49.0001 55C48.1901 55.79 47.4601 56.65 46.7001 57.49C45.9401 58.33 45.1901 59.18 44.4601 60.03C43.7301 60.88 43.0001 61.78 42.3101 62.65C41.6201 63.52 40.8901 64.4 40.1901 65.29C39.4901 66.18 38.8001 67.07 38.1201 68L36.1201 70.73C35.4601 71.65 34.8201 72.58 34.1801 73.51C33.5401 74.44 32.9201 75.38 32.3001 76.33C31.6801 77.28 31.0801 78.23 30.4901 79.19C29.9001 80.15 29.3101 81.12 28.7401 82.09C28.1701 83.06 27.6101 84 27.0601 85C26.5101 86 26.0001 87 25.4401 88C24.8801 89 24.4401 90 23.8901 91C23.3401 92 22.8901 93 22.4201 94.05C21.9501 95.1 21.4201 96.05 21.0001 97.13C20.5801 98.21 20.1001 99.19 19.6701 100.24C19.2401 101.29 18.8101 102.33 18.4001 103.38C17.9901 104.43 17.5801 105.48 17.2001 106.54C16.8201 107.6 16.4301 108.67 16.0701 109.74C15.7101 110.81 15.3601 111.87 15.0001 113C14.6401 114.13 14.3301 115.16 14.0001 116.24C13.6701 117.32 13.3801 118.41 13.0901 119.5C12.8001 120.59 12.5201 121.69 12.2501 122.79C11.9801 123.89 11.7401 124.98 11.5001 126.09C11.2601 127.2 11.0301 128.3 10.8101 129.4C10.5901 130.5 10.3901 131.62 10.2001 132.73C10.0101 133.84 9.83006 134.96 9.67006 136.08C9.51006 137.2 9.35006 138.32 9.21006 139.44C9.07006 140.56 8.94006 141.68 8.83006 142.8C8.72006 143.92 8.61006 145.05 8.52006 146.17C8.43006 147.29 8.36006 148.43 8.29006 149.55C8.22006 150.67 8.18006 151.81 8.14006 152.94C8.10006 154.07 8.08006 155.19 8.06006 156.32C8.04006 157.45 8.06006 158.58 8.06006 159.71C8.06006 160.84 8.06006 161.97 8.14006 163.1C8.22006 164.23 8.23006 165.35 8.29006 166.48C8.35006 167.61 8.43006 168.73 8.52006 169.86C8.61006 170.99 8.71006 172.11 8.83006 173.23C8.95006 174.35 9.07006 175.48 9.21006 176.6C9.35006 177.72 9.50006 178.84 9.67006 179.95C9.84006 181.06 10.0101 182.19 10.2001 183.3C10.3901 184.41 10.6001 185.52 10.8101 186.63C11.0201 187.74 11.2601 188.84 11.5001 189.95C11.7401 191.06 11.9901 192.15 12.2601 193.25C12.5301 194.35 12.8001 195.44 13.0901 196.53C13.3801 197.62 13.6801 198.71 14.0001 199.79C14.3201 200.87 14.6401 201.96 15.0001 203.04C15.3601 204.12 15.6901 205.19 16.0501 206.26C16.4101 207.33 16.7901 208.39 17.1801 209.45C17.5701 210.51 17.9601 211.57 18.3801 212.62C18.8001 213.67 19.2101 214.72 19.6501 215.76C20.0901 216.8 20.5301 217.84 20.9801 218.87C21.4301 219.9 21.9101 220.93 22.4001 221.95C22.8901 222.97 23.4001 223.95 23.8801 224.95C24.3601 225.95 24.8801 226.95 25.4201 227.95C25.9601 228.95 26.4901 229.95 27.0401 230.95C27.5901 231.95 28.1501 232.95 28.7201 233.89C29.2901 234.83 29.8801 235.83 30.4701 236.79C31.0601 237.75 31.6701 238.71 32.2801 239.65C32.8901 240.59 33.5201 241.54 34.1601 242.47C34.8001 243.4 35.4401 244.33 36.1001 245.25C36.7601 246.17 37.4301 247.08 38.1001 247.98C38.7701 248.88 39.4701 249.78 40.1701 250.67C40.8701 251.56 41.5701 252.43 42.2901 253.3C43.0101 254.17 43.7401 255.04 44.4801 255.89C45.2201 256.74 45.9601 257.59 46.7201 258.43C47.4801 259.27 48.2401 260.1 49.0201 260.92C49.8001 261.74 50.5801 262.55 51.3701 263.35C52.1601 264.15 52.9701 264.95 53.7801 265.74C54.5901 266.53 55.4101 267.3 56.2401 268.06C57.0701 268.82 57.9101 269.58 58.7501 270.33C59.5901 271.08 60.4601 271.82 61.3201 272.54C62.1801 273.26 63.0701 274 64.0001 274.68C64.9301 275.36 65.7701 276.09 66.6601 276.77C67.5501 277.45 68.4601 278.14 69.3701 278.77C70.2801 279.4 71.2001 280.09 72.1301 280.77C73.0601 281.45 73.98 282.05 74.9201 282.68C75.8601 283.31 76.8101 283.92 77.7601 284.52C78.7101 285.12 79.6801 285.72 80.6401 286.31C81.6001 286.9 82.6401 287.46 83.5701 288.02C84.5001 288.58 85.5701 289.13 86.5701 289.67C87.5701 290.21 88.5701 290.74 89.5701 291.25C90.5701 291.76 91.5701 292.25 92.5701 292.77C93.5701 293.29 94.5701 293.77 95.6301 294.21C96.69 294.65 97.6901 295.14 98.7301 295.59C99.7701 296.04 100.81 296.47 101.85 296.89C102.89 297.31 103.95 297.73 105.01 298.13C106.07 298.53 107.12 298.91 108.19 299.29C109.26 299.67 110.32 300.03 111.39 300.38C112.46 300.73 113.54 301.07 114.62 301.38C115.7 301.69 116.79 302.02 117.88 302.32L121.15 303.19C122.24 303.47 123.34 303.73 124.44 303.99C125.54 304.25 126.65 304.48 127.75 304.71C128.85 304.94 129.97 305.15 131.08 305.35C132.19 305.55 133.3 305.75 134.42 305.93C135.54 306.11 136.65 306.27 137.77 306.42C138.89 306.57 140.01 306.71 141.13 306.84C142.25 306.97 143.37 307.08 144.5 307.19C145.63 307.3 146.75 307.38 147.87 307.45C148.99 307.52 150.13 307.59 151.25 307.64C152.37 307.69 153.51 307.73 154.64 307.76C156.893 307.807 159.15 307.807 161.41 307.76C162.54 307.76 163.67 307.7 164.8 307.64C165.93 307.58 167.05 307.53 168.18 307.45C169.31 307.37 170.43 307.29 171.56 307.19C172.69 307.09 173.8 306.97 174.93 306.84C176.06 306.71 177.17 306.57 178.29 306.42C179.41 306.27 180.52 306.1 181.64 305.93C182.76 305.76 183.86 305.56 184.98 305.35C186.1 305.14 187.19 304.94 188.3 304.71C189.41 304.48 190.51 304.24 191.61 303.99C192.71 303.74 193.81 303.47 194.9 303.19C195.99 302.91 197.09 302.62 198.17 302.32C199.25 302.02 200.35 301.7 201.43 301.38C202.51 301.06 203.58 300.71 204.66 300.38C205.74 300.05 206.8 299.66 207.86 299.29C208.92 298.92 209.99 298.53 211.05 298.13C212.11 297.73 213.15 297.31 214.2 296.89C215.25 296.47 216.29 296.03 217.33 295.59L220.42 294.21C221.447 293.737 222.467 293.257 223.48 292.77C224.48 292.27 225.48 291.77 226.48 291.25C227.48 290.73 228.48 290.25 229.48 289.67C230.48 289.09 231.48 288.58 232.48 288.02C233.48 287.46 234.43 286.89 235.4 286.31C236.37 285.73 237.33 285.13 238.28 284.52C239.23 283.91 240.18 283.31 241.12 282.68C242.06 282.05 242.99 281.42 243.92 280.77L246.67 278.77C247.58 278.1 248.48 277.42 249.38 276.77C250.28 276.12 251.16 275.39 252.04 274.68C252.92 273.97 253.79 273.25 254.65 272.52C255.51 271.79 256.37 271.06 257.22 270.31C258.07 269.56 258.9 268.81 259.73 268.04C260.56 267.27 261.38 266.5 262.19 265.72C263 264.94 263.81 264.14 264.6 263.33C265.39 262.52 266.18 261.72 266.96 260.9C267.74 260.08 268.5 259.25 269.25 258.41C270 257.57 270.76 256.73 271.5 255.87C272.24 255.01 272.96 254.15 273.68 253.28C274.4 252.41 275.1 251.53 275.8 250.65C276.5 249.77 277.19 248.86 277.87 247.96C278.55 247.06 279.21 246.15 279.87 245.23C280.53 244.31 281.18 243.38 281.81 242.45C282.44 241.52 283.07 240.58 283.69 239.63C284.31 238.68 284.91 237.73 285.5 236.77C286.09 235.81 286.68 234.85 287.25 233.87C287.82 232.89 288.38 231.87 288.93 230.93C289.48 229.99 290.02 228.93 290.55 227.93C291.08 226.93 291.55 225.93 292.1 224.93C292.65 223.93 293.1 222.93 293.58 221.93C294.06 220.93 294.53 219.88 294.99 218.85C295.45 217.82 295.89 216.78 296.33 215.74C296.77 214.7 297.19 213.65 297.6 212.6C298.01 211.55 298.41 210.49 298.79 209.43C299.17 208.37 299.56 207.3 299.92 206.24C300.28 205.18 300.64 204.09 300.98 203.02C301.32 201.95 301.64 200.86 301.98 199.77C302.32 198.68 302.59 197.6 302.88 196.51C303.17 195.42 303.45 194.33 303.72 193.23C303.99 192.13 304.23 191.03 304.48 189.93C304.73 188.83 304.94 187.72 305.16 186.61C305.38 185.5 305.58 184.39 305.77 183.28C305.96 182.17 306.14 181.05 306.3 179.93C306.46 178.81 306.62 177.7 306.76 176.58C306.9 175.46 307.03 174.34 307.14 173.21C307.25 172.08 307.36 170.96 307.45 169.84C307.54 168.72 307.61 167.59 307.68 166.46C307.75 165.33 307.79 164.2 307.83 163.08C307.87 161.96 307.89 160.82 307.91 159.69C307.93 158.56 307.91 157.43 307.91 156.3C307.91 155.17 307.91 154.05 307.83 152.92C307.75 151.79 307.74 150.66 307.68 149.54C307.62 148.42 307.54 147.28 307.45 146.16C307.36 145.04 307.26 143.91 307.14 142.78C307.02 141.65 306.9 140.54 306.76 139.42C306.62 138.3 306.47 137.18 306.3 136.06C306.13 134.94 305.96 133.83 305.77 132.72C305.58 131.61 305.38 130.49 305.16 129.39C304.94 128.29 304.72 127.17 304.48 126.07C304.24 124.97 303.98 123.87 303.72 122.77C303.46 121.67 303.17 120.58 302.88 119.49C302.59 118.4 302.29 117.31 301.98 116.22C301.67 115.13 301.34 114.06 300.98 112.98C300.62 111.9 300.29 110.83 299.92 109.76C299.55 108.69 299.18 107.63 298.8 106.57C298.42 105.51 298.01 104.45 297.6 103.4C297.19 102.35 296.76 101.3 296.33 100.26C295.9 99.22 295.45 98.18 294.99 97.15C294.53 96.12 294 95.06 293.5 94C293 92.94 292.5 92 292.02 90.95C291.54 89.9 291.02 88.95 290.47 87.95C289.92 86.95 289.4 85.95 288.85 84.95C288.3 83.95 287.74 82.95 287.17 82.01C286.6 81.07 286.02 80.07 285.42 79.11C284.82 78.15 284.23 77.2 283.61 76.25C282.99 75.3 282.37 74.36 281.73 73.43C281.09 72.5 280.45 71.57 279.79 70.66C279.13 69.75 278.47 68.83 277.79 67.92C277.11 67.01 276.42 66.13 275.72 65.24C275.02 64.35 274.32 63.47 273.6 62.6C272.88 61.73 272.15 60.87 271.42 60.01C270.69 59.15 269.93 58.31 269.17 57.47C268.41 56.63 267.65 55.81 266.88 54.99C266.11 54.17 265.32 53.35 264.52 52.55C263.72 51.75 262.93 50.95 262.11 50.17C261.29 49.39 260.48 48.61 259.65 47.84L257.14 45.57C256.29 44.83 255.44 44.09 254.57 43.36C253.7 42.63 252.84 42 252 41.26C251.16 40.52 250.23 39.85 249.34 39.16C248.45 38.47 247.54 37.8 246.63 37.16C245.72 36.52 244.8 35.83 243.88 35.16C242.96 34.49 242 33.87 241 33.24C240 32.61 239.15 32 238.2 31.4C237.25 30.8 236.29 30.2 235.32 29.62C234.35 29.04 233.38 28.46 232.4 27.9C231.42 27.34 230.4 26.79 229.4 26.25L226.4 24.67C225.4 24.16 224.4 23.67 223.4 23.16C222.4 22.65 221.4 22.16 220.33 21.71C219.26 21.26 218.27 20.78 217.24 20.34C216.21 19.9 215.16 19.46 214.11 19.03C213.06 18.6 212 18.2 211 17.8C210 17.4 208.88 17.01 207.81 16.64C206.74 16.27 205.68 15.9 204.61 15.55C203.54 15.2 202.46 14.86 201.38 14.55C200.3 14.24 199.21 13.91 198.13 13.6C197.05 13.29 195.95 13.01 194.85 12.73C193.75 12.45 192.66 12.19 191.56 11.94C190.46 11.69 189.36 11.44 188.25 11.22C187.14 11 186.04 10.77 184.93 10.57C183.82 10.37 182.7 10.18 181.59 10C180.48 9.82002 179.35 9.65002 178.24 9.50002L174.88 9.08002C173.75 8.95002 172.63 8.84002 171.51 8.74002C170.39 8.64002 169.26 8.55002 168.13 8.47002C167 8.39002 165.88 8.33002 164.75 8.28002L161.36 8.16002C160.21 8.12002 159.09 8.11002 158 8.11002Z" fill="white"/>
<path d="M157.83 312.34C156.67 312.34 155.51 312.34 154.35 312.34C153.19 312.34 152.02 312.28 150.86 312.22C149.7 312.16 148.54 312.11 147.38 312.03C146.22 311.95 145.06 311.86 143.91 311.75C142.76 311.64 141.6 311.53 140.44 311.4C139.28 311.27 138.13 311.12 136.98 310.96C135.83 310.8 134.68 310.64 133.53 310.45C132.38 310.26 131.24 310.07 130.1 309.87C128.96 309.67 127.81 309.43 126.67 309.2C125.53 308.97 124.4 308.72 123.27 308.46C122.14 308.2 121.01 307.92 119.88 307.64C118.75 307.36 117.63 307.05 116.51 306.74C115.39 306.43 114.28 306.1 113.16 305.74C112.04 305.38 110.94 305.05 109.84 304.69C108.74 304.33 107.63 303.95 106.54 303.56C105.45 303.17 104.35 302.78 103.26 302.37C102.17 301.96 101.1 301.53 100.02 301.1C98.94 300.67 97.87 300.21 96.8 299.75C95.73 299.29 94.67 298.82 93.62 298.34C92.57 297.86 91.51 297.34 90.46 296.85C89.41 296.36 88.38 295.85 87.35 295.29C86.32 294.73 85.28 294.21 84.26 293.66C83.24 293.11 82.26 292.54 81.26 291.96C80.26 291.38 79.26 290.79 78.26 290.19C77.26 289.59 76.26 288.98 75.26 288.36C74.26 287.74 73.26 287.1 72.33 286.45C71.4 285.8 70.41 285.16 69.46 284.45C68.51 283.74 67.56 283.1 66.62 282.45C65.68 281.8 64.76 281.06 63.83 280.35C62.9 279.64 62 278.92 61.09 278.19C60.18 277.46 59.29 276.73 58.41 275.98C57.53 275.23 56.63 274.47 55.76 273.69C54.89 272.91 54.03 272.15 53.18 271.36C52.33 270.57 51.48 269.77 50.64 268.96C49.8 268.15 48.98 267.33 48.17 266.51C47.36 265.69 46.54 264.84 45.74 264C44.94 263.16 44.16 262.3 43.38 261.44C42.6 260.58 41.83 259.7 41.07 258.82C40.31 257.94 39.56 257.05 38.82 256.15C38.08 255.25 37.36 254.35 36.64 253.44C35.92 252.53 35.21 251.6 34.51 250.67C33.81 249.74 33.13 248.8 32.45 247.86C31.77 246.92 31.11 245.96 30.45 245C29.79 244.04 29.16 243.07 28.52 242.1C27.88 241.13 27.27 240.1 26.66 239.15C26.05 238.2 25.44 237.15 24.85 236.15C24.26 235.15 23.69 234.15 23.12 233.15C22.55 232.15 22 231.15 21.46 230.09C20.92 229.03 20.38 228 19.86 227C19.34 226 18.86 224.92 18.33 223.86C17.8 222.8 17.33 221.75 16.88 220.69C16.43 219.63 15.95 218.56 15.5 217.49C15.05 216.42 14.62 215.34 14.2 214.25C13.78 213.16 13.36 212 13 211C12.64 210 12.22 208.81 11.85 207.71C11.48 206.61 11.11 205.5 10.76 204.39C10.41 203.28 10.08 202.17 9.76004 201.05C9.44004 199.93 9.13004 198.82 8.83004 197.69C8.53004 196.56 8.24004 195.44 7.97004 194.31C7.70004 193.18 7.44004 192.05 7.19004 190.91C6.94004 189.77 6.71004 188.64 6.48004 187.49C6.25004 186.34 6.00004 185.16 5.81004 184C5.62004 182.84 5.43004 181.71 5.26004 180.56C5.09004 179.41 4.93004 178.25 4.79004 177.1C4.65004 175.95 4.51004 174.79 4.39004 173.63C4.27004 172.47 4.17004 171.32 4.08004 170.16C3.99004 169 3.91004 167.84 3.84004 166.68C3.77004 165.52 3.73004 164.36 3.69004 163.19C3.65004 162.02 3.62004 160.87 3.61004 159.71C3.60004 158.55 3.61004 157.38 3.61004 156.21C3.61004 155.04 3.61004 153.89 3.69004 152.73C3.77004 151.57 3.78004 150.4 3.84004 149.24C3.90004 148.08 3.99004 146.92 4.08004 145.76C4.17004 144.6 4.28004 143.44 4.39004 142.29C4.50004 141.14 4.64004 139.97 4.79004 138.82C4.94004 137.67 5.09004 136.51 5.26004 135.36C5.43004 134.21 5.61004 133.06 5.81004 131.92C6.01004 130.78 6.21004 129.63 6.43004 128.49C6.65004 127.35 6.89004 126.21 7.14004 125.07C7.39004 123.93 7.65004 122.8 7.92004 121.67C8.19004 120.54 8.48003 119.41 8.78004 118.29C9.08004 117.17 9.39004 116.04 9.71004 114.92C10.03 113.8 10.37 112.7 10.71 111.59C11.05 110.48 11.42 109.37 11.8 108.27C12.18 107.17 12.56 106.07 12.95 104.98C13.34 103.89 13.76 102.8 14.19 101.72C14.62 100.64 15.05 99.56 15.49 98.48C15.93 97.4 16.4 96.34 16.87 95.28C17.34 94.22 17.87 93.16 18.33 92.11C18.79 91.06 19.33 90.01 19.85 88.97C20.37 87.93 20.9 86.89 21.44 85.86C21.98 84.83 22.54 83.81 23.1 82.8C23.66 81.79 24.25 80.8 24.83 79.8C25.41 78.8 26.02 77.8 26.63 76.8C27.24 75.8 27.87 74.8 28.5 73.86C29.13 72.92 29.78 71.91 30.43 70.95C31.08 69.99 31.75 69.04 32.43 68.09C33.11 67.14 33.79 66.21 34.49 65.28C35.19 64.35 35.9 63.43 36.62 62.51C37.34 61.59 38.06 60.69 38.8 59.8C39.54 58.91 40.3 58 41.06 57.12C41.82 56.24 42.59 55.37 43.37 54.5C44.15 53.63 44.94 52.79 45.73 51.94C46.52 51.09 47.34 50.26 48.15 49.43C48.96 48.6 49.8 47.79 50.63 47C51.46 46.21 52.31 45.39 53.17 44.6C54.03 43.81 54.88 43.03 55.76 42.26C56.64 41.49 57.51 40.74 58.39 39.98C59.27 39.22 60.18 38.5 61.08 37.77C61.98 37.04 62.9 36.32 63.82 35.61C64.74 34.9 65.67 34.2 66.61 33.51C67.55 32.82 68.49 32.15 69.45 31.51C70.41 30.87 71.36 30.19 72.32 29.51C73.28 28.83 74.26 28.24 75.25 27.61C76.24 26.98 77.25 26.38 78.25 25.78C79.25 25.18 80.25 24.59 81.25 24.01C82.25 23.43 83.25 22.87 84.3 22.31C85.35 21.75 86.3 21.21 87.38 20.68C88.46 20.15 89.46 19.63 90.5 19.12C91.54 18.61 92.6 18.12 93.66 17.63C94.72 17.14 95.78 16.68 96.84 16.22C97.9 15.76 98.98 15.31 100.06 14.87C101.14 14.43 102.22 14.01 103.31 13.6C104.4 13.19 105.48 12.79 106.58 12.4C107.68 12.01 108.77 11.64 109.88 11.28C110.99 10.92 112.09 10.57 113.2 10.28C114.31 9.99001 115.43 9.62001 116.55 9.28001C117.67 8.94001 118.79 8.67001 119.92 8.38001C121.05 8.09001 122.18 7.82001 123.31 7.56001C124.44 7.30001 125.58 7.06001 126.72 6.82001C127.86 6.58001 128.99 6.36001 130.14 6.15001C131.29 5.94001 132.43 5.75001 133.57 5.57001C134.71 5.39001 135.87 5.21001 137.02 5.05001C138.17 4.89001 139.33 4.75001 140.48 4.62001C141.63 4.49001 142.79 4.37001 143.95 4.27001C145.11 4.17001 146.26 4.07001 147.42 3.99001C148.58 3.91001 149.74 3.85001 150.9 3.79001C152.06 3.73001 153.23 3.70001 154.39 3.68001C156.71 3.62668 159.043 3.62668 161.39 3.68001C162.55 3.68001 163.71 3.74001 164.87 3.79001C166.03 3.84001 167.19 3.91001 168.35 3.99001C169.51 4.07001 170.67 4.16001 171.83 4.27001C172.99 4.38001 174.14 4.49001 175.3 4.62001C176.46 4.75001 177.6 4.90001 178.75 5.05001C179.9 5.20001 181.06 5.38001 182.2 5.57001C183.34 5.76001 184.5 5.95001 185.64 6.15001C186.78 6.35001 187.92 6.59001 189.06 6.82001C190.2 7.05001 191.34 7.30001 192.47 7.56001C193.6 7.82001 194.73 8.10001 195.86 8.38001C196.99 8.66002 198.11 8.97001 199.23 9.28001C200.35 9.59001 201.46 9.92001 202.57 10.28C203.68 10.64 204.79 10.97 205.9 11.28C207.01 11.59 208.1 12.02 209.2 12.4C210.3 12.78 211.39 13.19 212.47 13.6C213.55 14.01 214.64 14.44 215.72 14.87C216.8 15.3 217.87 15.76 218.93 16.22C219.99 16.68 221.06 17.15 222.12 17.63C223.18 18.11 224.23 18.63 225.27 19.12C226.31 19.61 227.36 20.12 228.39 20.68L231.48 22.31C232.48 22.87 233.48 23.43 234.48 24.01C235.48 24.59 236.48 25.18 237.48 25.78C238.48 26.38 239.48 26.99 240.48 27.61C241.48 28.23 242.48 28.87 243.4 29.52C244.32 30.17 245.33 30.82 246.28 31.52L249.12 33.52C250.05 34.21 250.98 34.91 251.9 35.62C252.82 36.33 253.74 37.05 254.64 37.78C255.54 38.51 256.44 39.25 257.33 39.99C258.22 40.73 259.1 41.51 259.97 42.28C260.84 43.05 261.7 43.82 262.56 44.61C263.42 45.4 264.26 46.2 265.09 47.01C265.92 47.82 266.75 48.64 267.57 49.46C268.39 50.28 269.19 51.13 269.99 51.97C270.79 52.81 271.58 53.67 272.36 54.54C273.14 55.41 273.9 56.27 274.66 57.15C275.42 58.03 276.17 58.92 276.91 59.81C277.65 60.7 278.38 61.62 279.1 62.53C279.82 63.44 280.53 64.37 281.22 65.3C281.91 66.23 282.61 67.17 283.29 68.11C283.97 69.05 284.63 70.01 285.29 70.97C285.95 71.93 286.59 72.9 287.22 73.88C287.85 74.86 288.48 75.88 289.09 76.82C289.7 77.76 290.3 78.82 290.89 79.82C291.48 80.82 292.06 81.82 292.62 82.82C293.18 83.82 293.74 84.82 294.28 85.89C294.82 86.96 295.36 87.95 295.88 88.99C296.4 90.03 296.88 91.08 297.4 92.13C297.92 93.18 298.4 94.24 298.85 95.3C299.3 96.36 299.78 97.43 300.23 98.5C300.68 99.57 301.11 100.66 301.54 101.74C301.97 102.82 302.37 103.91 302.77 105C303.17 106.09 303.56 107.19 303.93 108.29C304.3 109.39 304.66 110.5 305.01 111.61C305.36 112.72 305.7 113.83 306.01 114.95C306.32 116.07 306.65 117.19 306.95 118.31C307.25 119.43 307.53 120.56 307.81 121.69C308.09 122.82 308.34 123.96 308.59 125.09C308.84 126.22 309.07 127.37 309.29 128.51C309.51 129.65 309.72 130.79 309.92 131.94C310.12 133.09 310.3 134.23 310.47 135.38C310.64 136.53 310.79 137.69 310.94 138.84C311.09 139.99 311.21 141.15 311.33 142.31C311.45 143.47 311.55 144.62 311.64 145.78C311.73 146.94 311.82 148.11 311.88 149.27C311.94 150.43 312 151.59 312.04 152.75C312.08 153.91 312.1 155.07 312.12 156.24C312.12 157.4 312.12 158.56 312.12 159.72C312.12 160.89 312.12 162.05 312.04 163.21C311.96 164.37 311.95 165.54 311.88 166.7C311.81 167.86 311.74 169.02 311.64 170.18C311.54 171.34 311.45 172.5 311.33 173.65C311.21 174.8 311.08 175.97 310.94 177.12C310.8 178.27 310.64 179.43 310.47 180.58C310.3 181.73 310.11 182.88 309.92 184.02C309.73 185.16 309.51 186.31 309.29 187.45C309.07 188.59 308.83 189.73 308.59 190.87C308.35 192.01 308.08 193.14 307.81 194.27C307.54 195.4 307.25 196.53 306.95 197.65C306.65 198.77 306.34 199.9 306.01 201.01C305.68 202.12 305.35 203.24 305.01 204.36C304.67 205.48 304.3 206.57 303.93 207.67C303.56 208.77 303.17 209.87 302.77 210.96C302.37 212.05 301.96 213.14 301.53 214.23C301.1 215.32 300.68 216.38 300.23 217.46C299.78 218.54 299.32 219.6 298.85 220.66C298.38 221.72 297.85 222.78 297.4 223.83C296.95 224.88 296.4 225.93 295.88 226.97C295.36 228.01 294.83 229.05 294.28 230.07C293.73 231.09 293.19 232.13 292.62 233.14C292.05 234.15 291.48 235.14 290.89 236.14C290.3 237.14 289.7 238.14 289.09 239.14C288.48 240.14 287.86 241.14 287.23 242.08C286.6 243.02 285.95 244.03 285.29 244.99C284.63 245.95 283.97 246.9 283.29 247.85C282.61 248.8 281.93 249.73 281.23 250.66C280.53 251.59 279.83 252.51 279.11 253.43C278.39 254.35 277.66 255.25 276.92 256.14C276.18 257.03 275.43 257.93 274.67 258.81C273.91 259.69 273.14 260.56 272.37 261.43C271.6 262.3 270.8 263.14 270 263.99C269.2 264.84 268.4 265.67 267.58 266.5C266.76 267.33 265.94 268.14 265.1 268.95C264.26 269.76 263.42 270.56 262.57 271.35C261.72 272.14 260.85 272.92 259.98 273.69C259.11 274.46 258.23 275.21 257.34 275.96C256.45 276.71 255.55 277.46 254.65 278.18C253.75 278.9 252.83 279.63 251.91 280.34C250.99 281.05 250.06 281.75 249.12 282.44C248.18 283.13 247.24 283.8 246.29 284.44C245.34 285.08 244.38 285.76 243.41 286.44C242.44 287.12 241.47 287.71 240.49 288.34C239.51 288.97 238.49 289.57 237.49 290.17C236.49 290.77 235.49 291.36 234.49 291.94C233.49 292.52 232.49 293.08 231.49 293.64C230.49 294.2 229.44 294.74 228.41 295.27C227.38 295.8 226.34 296.32 225.29 296.83C224.24 297.34 223.2 297.83 222.14 298.32C221.08 298.81 220.02 299.27 218.95 299.73C217.88 300.19 216.82 300.64 215.74 301.08C214.66 301.52 213.58 301.94 212.49 302.35C211.4 302.76 210.31 303.16 209.21 303.54C208.11 303.92 207.02 304.31 205.92 304.67L202.59 305.72C201.48 306.05 200.36 306.38 199.24 306.72C198.12 307.06 197 307.33 195.87 307.62C194.74 307.91 193.62 308.18 192.49 308.44C191.36 308.7 190.22 308.94 189.08 309.18C187.94 309.42 186.8 309.64 185.66 309.85C184.52 310.06 183.37 310.25 182.22 310.43C181.07 310.61 179.93 310.79 178.78 310.94C177.63 311.09 176.47 311.25 175.32 311.38C174.17 311.51 173 311.63 171.85 311.73C170.7 311.83 169.53 311.93 168.37 312.01C167.21 312.09 166.05 312.15 164.89 312.2C163.73 312.25 162.57 312.3 161.41 312.32C160.25 312.34 159 312.34 157.83 312.34ZM157.83 11.6C156.73 11.6 155.63 11.6 154.53 11.6C153.43 11.6 152.32 11.67 151.22 11.72C150.12 11.77 149.02 11.83 147.93 11.9L144.63 12.17C143.53 12.26 142.44 12.38 141.34 12.5C140.24 12.62 139.16 12.76 138.06 12.91C136.96 13.06 135.88 13.22 134.8 13.4C133.72 13.58 132.62 13.75 131.54 13.95C130.46 14.15 129.37 14.36 128.29 14.59C127.21 14.82 126.14 15.04 125.06 15.29C123.98 15.54 122.92 15.8 121.85 16.07C120.78 16.34 119.72 16.62 118.66 16.92C117.6 17.22 116.54 17.52 115.48 17.84C114.42 18.16 113.38 18.49 112.33 18.84C111.28 19.19 110.24 19.54 109.2 19.91C108.16 20.28 107.13 20.65 106.1 21.04C105.07 21.43 104.04 21.84 103.02 22.25C102 22.66 101.02 23.09 100.02 23.52C99.02 23.95 98.02 24.41 97.02 24.87C96.02 25.33 95.02 25.8 94.02 26.28C93.02 26.76 92.02 27.28 91.02 27.76C90.02 28.24 89.02 28.76 88.1 29.3C87.18 29.84 86.17 30.36 85.21 30.91C84.25 31.46 83.31 32.02 82.36 32.59C81.41 33.16 80.48 33.74 79.55 34.33C78.62 34.92 77.7 35.52 76.78 36.13C75.86 36.74 74.94 37.38 74 38C73.06 38.62 72.2 39.28 71.32 39.93C70.44 40.58 69.55 41.25 68.67 41.93C67.79 42.61 67 43.28 66.1 44L63.55 46.11C62.71 46.82 61.88 47.54 61.05 48.27C60.22 49 59.41 49.74 58.6 50.49C57.79 51.24 57 52 56.2 52.73C55.4 53.46 54.62 54.27 53.85 55.05C53.08 55.83 52.31 56.63 51.55 57.43C50.79 58.23 50.05 59.04 49.31 59.86C48.57 60.68 47.84 61.51 47.12 62.34C46.4 63.17 45.69 64 45 64.87C44.31 65.74 43.61 66.58 42.93 67.45C42.25 68.32 41.57 69.19 40.93 70.07C40.29 70.95 39.59 71.84 39 72.74C38.41 73.64 37.72 74.54 37.1 75.45C36.48 76.36 35.87 77.28 35.27 78.2C34.67 79.12 34 80.06 33.45 81C32.9 81.94 32.3 82.88 31.74 83.83C31.18 84.78 30.64 85.74 30.1 86.7C29.56 87.66 29 88.63 28.53 89.61C28.06 90.59 27.53 91.61 27.02 92.55C26.51 93.49 26.02 94.55 25.57 95.55C25.12 96.55 24.64 97.55 24.19 98.55C23.74 99.55 23.31 100.55 22.89 101.55C22.47 102.55 22.05 103.55 21.65 104.62C21.25 105.69 20.86 106.68 20.48 107.71C20.1 108.74 19.74 109.79 19.38 110.83C19.02 111.87 18.68 112.93 18.38 113.98C18.08 115.03 17.73 116.08 17.38 117.14C17.03 118.2 16.77 119.27 16.49 120.33C16.21 121.39 15.94 122.47 15.68 123.54C15.42 124.61 15.17 125.68 14.94 126.76C14.71 127.84 14.48 128.92 14.27 130C14.06 131.08 13.86 132.17 13.67 133.26C13.48 134.35 13.31 135.43 13.15 136.52C12.99 137.61 12.84 138.71 12.71 139.8C12.58 140.89 12.44 141.99 12.33 143.09C12.22 144.19 12.12 145.28 12.03 146.38C11.94 147.48 11.87 148.58 11.81 149.68C11.75 150.78 11.7 151.89 11.66 152.99C11.62 154.09 11.6 155.19 11.59 156.3C11.58 157.41 11.59 158.5 11.59 159.6C11.59 160.7 11.59 161.81 11.66 162.91C11.73 164.01 11.75 165.11 11.81 166.22C11.87 167.33 11.95 168.42 12.03 169.52C12.11 170.62 12.22 171.72 12.33 172.81C12.44 173.9 12.57 175 12.71 176.1C12.85 177.2 12.99 178.29 13.15 179.38C13.31 180.47 13.49 181.56 13.67 182.64C13.85 183.72 14.06 184.82 14.27 185.9C14.48 186.98 14.7 188.06 14.94 189.14C15.18 190.22 15.42 191.29 15.68 192.36C15.94 193.43 16.21 194.5 16.49 195.57C16.77 196.64 17.07 197.7 17.38 198.76C17.69 199.82 18 200.87 18.38 201.92C18.76 202.97 19.06 204.02 19.38 205.07C19.7 206.12 20.1 207.15 20.48 208.19C20.86 209.23 21.25 210.25 21.65 211.28C22.05 212.31 22.46 213.28 22.89 214.35C23.32 215.42 23.75 216.35 24.2 217.35C24.65 218.35 25.1 219.35 25.57 220.35C26.04 221.35 26.52 222.35 27.02 223.35C27.52 224.35 28.02 225.35 28.53 226.29C29.04 227.23 29.53 228.24 30.1 229.2C30.67 230.16 31.19 231.12 31.74 232.07C32.29 233.02 32.87 233.97 33.45 234.9C34.03 235.83 34.62 236.77 35.22 237.7C35.82 238.63 36.43 239.54 37.05 240.45C37.67 241.36 38.31 242.26 38.95 243.16C39.59 244.06 40.24 244.95 40.9 245.83C41.56 246.71 42.23 247.59 42.9 248.45C43.57 249.31 44.27 250.18 44.97 251.03C45.67 251.88 46.38 252.72 47.1 253.56C47.82 254.4 48.55 255.22 49.29 256.04C50.03 256.86 50.77 257.66 51.53 258.47C52.29 259.28 53.05 260.06 53.83 260.85C54.61 261.64 55.39 262.4 56.18 263.17C56.97 263.94 57.77 264.7 58.58 265.44C59.39 266.18 60.21 266.93 61.03 267.66C61.85 268.39 62.69 269.11 63.54 269.82C64.39 270.53 65.23 271.23 66.08 271.92C66.93 272.61 67.81 273.3 68.68 273.97C69.55 274.64 70.44 275.31 71.33 275.97C72.22 276.63 73.11 277.26 74.01 277.89C74.91 278.52 75.83 279.15 76.74 279.76C77.65 280.37 78.58 280.97 79.51 281.56C80.44 282.15 81.38 282.73 82.32 283.3L85.19 285C86.19 285.54 87.11 286.08 88.08 286.61C89.05 287.14 90.02 287.61 91 288.16C91.98 288.71 93 289.16 94 289.63C95 290.1 96 290.58 97 291.04C98 291.5 99 291.95 100 292.38C101 292.81 102 293.25 103 293.66C104 294.07 105 294.48 106.08 294.87C107.16 295.26 108.14 295.63 109.18 296C110.22 296.37 111.26 296.72 112.31 297.07C113.36 297.42 114.41 297.74 115.46 298.07C116.51 298.4 117.58 298.7 118.64 298.99C119.7 299.28 120.76 299.57 121.83 299.84C122.9 300.11 123.97 300.37 125.04 300.62C126.11 300.87 127.19 301.1 128.27 301.32C129.35 301.54 130.43 301.76 131.52 301.96C132.61 302.16 133.69 302.34 134.77 302.51C135.85 302.68 136.95 302.85 138.04 303C139.13 303.15 140.23 303.28 141.32 303.41C142.41 303.54 143.51 303.64 144.61 303.74L147.91 304.01C149 304.08 150.1 304.14 151.2 304.19C152.3 304.24 153.41 304.28 154.51 304.3C156.71 304.35 158.92 304.35 161.12 304.3C162.22 304.3 163.32 304.24 164.42 304.19L167.72 304.01C168.82 303.93 169.92 303.84 171.01 303.74C172.1 303.64 173.21 303.53 174.3 303.41C175.39 303.29 176.49 303.15 177.59 303C178.69 302.85 179.76 302.69 180.85 302.51C181.94 302.33 183.02 302.16 184.11 301.96C185.2 301.76 186.27 301.55 187.35 301.32C188.43 301.09 189.51 300.87 190.58 300.62C191.65 300.37 192.73 300.11 193.8 299.84C194.87 299.57 195.93 299.29 196.99 298.99C198.05 298.69 199.11 298.39 200.16 298.07C201.21 297.75 202.27 297.42 203.31 297.07C204.35 296.72 205.4 296.37 206.44 296C207.48 295.63 208.52 295.26 209.55 294.87C210.58 294.48 211.6 294.07 212.63 293.66C213.66 293.25 214.63 292.82 215.63 292.39C216.63 291.96 217.63 291.5 218.63 291.04C219.63 290.58 220.63 290.11 221.63 289.63C222.63 289.15 223.63 288.63 224.63 288.15C225.63 287.67 226.63 287.15 227.55 286.61C228.47 286.07 229.48 285.55 230.44 285C231.4 284.45 232.35 283.89 233.29 283.32C234.23 282.75 235.17 282.17 236.1 281.58C237.03 280.99 237.95 280.39 238.87 279.78C239.79 279.17 240.7 278.55 241.6 277.91C242.5 277.27 243.4 276.64 244.29 275.99C245.18 275.34 246.06 274.67 246.93 273.99C247.8 273.31 248.67 272.64 249.53 271.99C250.39 271.34 251.24 270.59 252.08 269.88C252.92 269.17 253.76 268.45 254.58 267.72C255.4 266.99 256.23 266.25 257.03 265.5C257.83 264.75 258.64 264 259.44 263.23C260.24 262.46 261.01 261.69 261.78 260.91C262.55 260.13 263.33 259.33 264.08 258.53C264.83 257.73 265.59 256.92 266.33 256.1C267.07 255.28 267.8 254.45 268.52 253.61C269.24 252.77 269.94 251.94 270.65 251.09C271.36 250.24 272.04 249.38 272.72 248.51C273.4 247.64 274.07 246.77 274.72 245.89C275.37 245.01 276.04 244.12 276.72 243.22C277.4 242.32 277.99 241.42 278.61 240.51C279.23 239.6 279.85 238.68 280.45 237.75C281.05 236.82 281.63 235.9 282.21 234.96C282.79 234.02 283.36 233.08 283.92 232.13C284.48 231.18 285.03 230.22 285.56 229.26C286.09 228.3 286.62 227.32 287.14 226.35C287.66 225.38 288.14 224.35 288.65 223.41C289.16 222.47 289.65 221.41 290.09 220.41C290.53 219.41 291.02 218.41 291.47 217.41C291.92 216.41 292.35 215.41 292.78 214.41C293.21 213.41 293.61 212.41 294.01 211.34C294.41 210.27 294.81 209.28 295.18 208.25C295.55 207.22 295.93 206.17 296.28 205.13C296.63 204.09 296.98 203.04 297.28 201.98C297.58 200.92 297.93 199.87 298.28 198.82C298.63 197.77 298.88 196.69 299.16 195.63C299.44 194.57 299.72 193.49 299.98 192.42C300.24 191.35 300.48 190.28 300.72 189.2C300.96 188.12 301.18 187.04 301.39 185.96C301.6 184.88 301.8 183.79 301.98 182.71C302.16 181.63 302.34 180.53 302.5 179.44C302.66 178.35 302.81 177.25 302.95 176.16C303.09 175.07 303.21 173.97 303.32 172.87C303.43 171.77 303.53 170.68 303.62 169.58C303.71 168.48 303.78 167.38 303.84 166.28C303.9 165.18 303.96 164.07 303.99 162.97C304.02 161.87 304.06 160.77 304.07 159.66C304.08 158.55 304.07 157.46 304.07 156.36C304.07 155.26 304.07 154.16 303.99 153.05C303.91 151.94 303.91 150.85 303.84 149.75C303.77 148.65 303.71 147.54 303.62 146.44C303.53 145.34 303.43 144.25 303.32 143.15C303.21 142.05 303.09 140.96 302.95 139.87C302.81 138.78 302.66 137.68 302.5 136.58C302.34 135.48 302.17 134.41 301.98 133.32C301.79 132.23 301.6 131.15 301.39 130.06C301.18 128.97 300.95 127.9 300.72 126.82C300.49 125.74 300.24 124.67 299.98 123.6C299.72 122.53 299.45 121.46 299.17 120.39C298.89 119.32 298.59 118.27 298.28 117.21C297.97 116.15 297.65 115.09 297.28 114.04C296.91 112.99 296.61 111.94 296.28 110.9C295.95 109.86 295.56 108.81 295.19 107.77C294.82 106.73 294.42 105.71 294.02 104.68C293.62 103.65 293.2 102.68 292.78 101.61C292.36 100.54 291.92 99.61 291.47 98.61C291.02 97.61 290.56 96.61 290.09 95.61C289.62 94.61 289.14 93.61 288.65 92.61C288.16 91.61 287.65 90.61 287.14 89.67C286.63 88.73 286.14 87.73 285.56 86.76C284.98 85.79 284.48 84.84 283.92 83.89C283.36 82.94 282.79 82 282.22 81.06C281.65 80.12 281.04 79.19 280.44 78.26C279.84 77.33 279.23 76.42 278.61 75.51C277.99 74.6 277.36 73.69 276.72 72.8C276.08 71.91 275.43 71.01 274.72 70.13C274.01 69.25 273.39 68.38 272.72 67.51C272.05 66.64 271.35 65.78 270.65 64.93C269.95 64.08 269.23 63.24 268.51 62.4C267.79 61.56 267.07 60.74 266.33 59.92L264.09 57.49C263.33 56.69 262.56 55.9 261.79 55.12C261.02 54.34 260.23 53.56 259.44 52.79C258.65 52.02 257.85 51.26 257.04 50.52C256.23 49.78 255.41 49.03 254.58 48.3C253.75 47.57 252.92 46.85 252.08 46.14C251.24 45.43 250.39 44.73 249.53 44.03C248.67 43.33 247.81 42.66 246.93 42.03C246.05 41.4 245.18 40.69 244.29 40.03C243.4 39.37 242.51 38.74 241.6 38.11C240.69 37.48 239.79 36.85 238.88 36.24C237.97 35.63 237.03 35.03 236.1 34.44C235.17 33.85 234.23 33.27 233.29 32.7C232.35 32.13 231.4 31.57 230.44 31.02L227.56 29.41C226.56 28.89 225.56 28.41 224.63 27.87C223.7 27.33 222.63 26.87 221.68 26.39C220.73 25.91 219.68 25.44 218.68 24.98C217.68 24.52 216.68 24.07 215.68 23.63C214.68 23.19 213.68 22.77 212.68 22.36C211.68 21.95 210.63 21.54 209.6 21.16C208.57 20.78 207.53 20.39 206.49 20.02C205.45 19.65 204.41 19.3 203.36 18.95C202.31 18.6 201.27 18.28 200.21 17.95C199.15 17.62 198.1 17.32 197.04 17.03C195.98 16.74 194.91 16.45 193.85 16.18C192.79 15.91 191.71 15.65 190.63 15.4C189.55 15.15 188.48 14.92 187.41 14.7C186.34 14.48 185.24 14.26 184.16 14.06C183.08 13.86 181.99 13.68 180.9 13.51C179.81 13.34 178.72 13.17 177.63 13.02C176.54 12.87 175.45 12.74 174.35 12.61C173.25 12.48 172.16 12.37 171.07 12.28L167.77 12.01L164.47 11.83C163.37 11.7767 162.27 11.7367 161.17 11.71C160 11.61 158.94 11.6 157.83 11.6Z" fill="url(#paint0_linear)"/>
<path d="M90.2901 95.4701C89.3038 95.4667 88.3536 95.0991 87.6219 94.4379C86.8901 93.7766 86.4285 92.8684 86.3256 91.8875C86.2226 90.9067 86.4857 89.9223 87.0643 89.1236C87.6428 88.3249 88.496 87.7681 89.4601 87.5601L202.69 63.2201C203.222 63.0476 203.784 62.9885 204.341 63.0468C204.897 63.105 205.435 63.2793 205.919 63.5583C206.404 63.8373 206.825 64.2148 207.155 64.6665C207.484 65.1182 207.716 65.6341 207.834 66.1807C207.952 66.7274 207.954 67.2927 207.84 67.8403C207.726 68.3878 207.498 68.9053 207.172 69.3595C206.846 69.8136 206.428 70.1943 205.945 70.4768C205.462 70.7594 204.926 70.9377 204.37 71.0001L91.1401 95.3801C90.8606 95.4391 90.5758 95.4693 90.2901 95.4701Z" fill="url(#paint1_linear)"/>
<path d="M191.48 252.06C191.142 252.055 190.806 252.008 190.48 251.92L92 225.84C91.0323 225.524 90.2214 224.852 89.7324 223.959C89.2435 223.066 89.1132 222.021 89.3681 221.035C89.6231 220.05 90.2441 219.199 91.1047 218.655C91.9652 218.112 93.0007 217.917 94 218.11L192.47 244.19C193.41 244.436 194.228 245.015 194.773 245.82C195.317 246.625 195.549 247.601 195.427 248.564C195.304 249.528 194.835 250.414 194.107 251.058C193.379 251.701 192.442 252.057 191.47 252.06H191.48Z" fill="url(#paint2_linear)"/>
<path d="M52.9 222L52.8 221.59C52.8 221.49 52.8 221.16 52.88 220.59C52.96 220.02 52.95 219.36 52.95 218.59C52.95 217.82 52.95 216.25 52.95 213.93C52.95 211.61 52.95 209.29 52.95 206.93C52.95 204.57 52.95 203.23 52.95 202.82V199.51C52.95 197.72 52.95 196.26 52.95 195.14C52.95 194.02 52.95 192.78 52.95 191.43C52.95 190.08 52.95 188.49 52.95 186.66C52.95 184.83 52.95 183.28 52.95 182.01C52.95 180.74 52.85 178.72 52.73 175.93C52.61 173.14 52.52 170.86 52.46 169.07C52.4 167.28 52.35 164.07 52.31 159.51C52.27 154.95 52.31 151.42 52.31 149C52.31 146.58 52.31 144.7 52.38 143.36C52.45 142.02 52.46 140.59 52.56 139.06C52.66 137.53 52.87 134.83 53.17 130.95C53.47 127.07 53.68 123.95 53.79 121.67C53.9 119.39 53.95 117.67 53.95 116.46C53.95 115.25 53.95 114.27 53.95 113.34C53.95 112.41 53.88 111.34 53.8 110.07C53.72 108.8 53.63 107.77 53.55 106.94C53.47 106.11 53.39 105.4 53.34 104.83C53.2907 103.981 53.2907 103.129 53.34 102.28C53.3544 101.43 53.4212 100.582 53.54 99.7401C53.6159 99.2448 53.7432 98.7589 53.92 98.2901C54.143 97.7578 54.4176 97.2487 54.74 96.7701C55.14 96.1501 55.34 95.7701 55.36 95.7701C55.38 95.7701 55.58 95.5401 55.95 95.2001C56.2599 94.8993 56.5944 94.625 56.95 94.3801C57.1395 94.2462 57.3402 94.1291 57.55 94.0301L57.85 93.9201C57.95 93.9201 58.28 93.7901 58.85 93.6301C59.5085 93.4483 60.1761 93.3014 60.85 93.1901C61.8936 93.0317 62.9453 92.9315 64 92.8901C65.54 92.8101 66.74 92.7701 67.62 92.7701C68.5 92.7701 69.15 92.7701 69.62 92.7701H71.4H74.69C76.1167 92.7701 78.19 92.8167 80.91 92.9101C83.63 93.0034 85.8667 93.0667 87.62 93.1001C89.38 93.1001 90.62 93.1501 91.4 93.1001C92.18 93.0501 92.85 93.0501 93.48 92.9901C94.11 92.9301 94.94 92.8301 95.99 92.6501C97.04 92.4701 98.41 92.1701 100.07 91.7601C101.73 91.3501 102.94 91.0301 103.7 90.8201L107.7 89.7501L112.28 88.5101C113.46 88.1801 114.72 87.8301 116.08 87.5101L119.7 86.5101C120.76 86.2301 121.63 86.0001 122.33 85.8301L124.6 85.2501C125.42 85.0367 127.69 84.5101 131.41 83.6701C135.13 82.8301 137.993 82.1967 140 81.7701C142 81.3501 143.36 81.0601 144.06 80.9001C144.76 80.7401 146.06 80.4501 147.97 80.0001C149.88 79.5501 152.05 79.0801 154.51 78.5801C156.97 78.0801 158.97 77.6901 160.51 77.4101L163.83 76.8001C164.51 76.6801 165.83 76.4301 167.7 76.0401C169.57 75.6501 171.28 75.2401 172.76 74.8201C174.24 74.4001 175.4 74.0601 176.23 73.8201C177.06 73.5801 177.9 73.3201 178.74 73.0901C179.58 72.8601 180.8 72.5601 182.39 72.1901C183.98 71.8201 185.53 71.5201 187.01 71.2601C188.49 71.0001 189.75 70.7901 190.78 70.6401C191.81 70.4901 192.91 70.3301 194.1 70.1801C195.29 70.0301 196.55 69.8801 197.87 69.7701C199.19 69.6601 200.38 69.5701 201.46 69.5101L203.67 69.4101L206.83 69.2901L213.52 69.0301C216.273 68.9301 218.81 68.8667 221.13 68.8401C223.45 68.8134 225.66 68.8134 227.76 68.8401C229.85 68.8401 231.3 68.8401 232.1 68.9101C232.9 68.9801 233.65 68.9801 234.33 69.0301C235.01 69.0801 236.12 69.1701 237.63 69.3201C239.14 69.4701 240.36 69.6201 241.28 69.7601C242.2 69.9001 243.05 70.0501 243.85 70.2201C244.567 70.3643 245.275 70.5513 245.97 70.7801C246.448 70.928 246.916 71.1084 247.37 71.3201C247.825 71.5552 248.263 71.8226 248.68 72.1201L249.59 72.7501C249.64 72.7501 249.83 73.0101 250.15 73.3901C250.443 73.7452 250.707 74.1231 250.94 74.5201C251.134 74.8699 251.307 75.2305 251.46 75.6001C251.6 75.9401 251.68 76.1401 251.71 76.1801C251.74 76.2201 251.84 76.6901 252.05 77.5901C252.264 78.512 252.414 79.4476 252.5 80.3901C252.59 81.3901 252.67 82.3901 252.72 83.3201C252.77 84.2501 252.83 85.6501 252.87 87.3201C252.91 88.9901 252.93 90.3201 252.87 91.2101C252.81 92.1001 252.87 92.7501 252.87 93.2101C252.87 93.6701 252.75 94.7901 252.54 96.6201C252.33 98.4501 252.11 100.1 251.87 101.62C251.63 103.14 251.42 104.39 251.24 105.47C251.06 106.55 250.91 108.12 250.77 110.15C250.63 112.18 250.57 113.98 250.6 115.51C250.63 117.04 250.6 118.18 250.69 118.89C250.78 119.6 250.76 120.22 250.81 120.75C250.86 121.28 250.91 122.31 250.98 123.87C251.05 125.43 251.07 126.87 251.04 128.19C251.01 129.51 250.95 130.78 250.86 131.98C250.77 133.18 250.64 135.05 250.44 137.6C250.24 140.15 250.12 142.18 250.08 143.69C250.04 145.2 249.98 147.26 249.93 149.84C249.88 152.42 249.83 154.6 249.8 156.34C249.77 158.08 249.8 159.4 249.8 160.34C249.8 161.28 249.8 162.24 249.8 163.34C249.8 164.44 249.8 167.44 249.73 172.22C249.66 177 249.62 180.59 249.56 183.01C249.5 185.43 249.47 187.16 249.43 188.24C249.39 189.32 249.36 190.16 249.32 190.79C249.28 191.42 249.22 192.73 249.13 194.73C249.04 196.73 249 198.2 248.99 199.16C248.98 200.12 248.99 201.29 248.99 202.67C248.99 204.05 249.04 205.43 248.99 206.78C248.94 208.13 248.99 209.39 248.99 210.51C248.99 211.63 248.93 212.86 248.91 214.18C248.89 215.5 248.85 217.18 248.81 219.26C248.77 221.34 248.72 223.05 248.69 224.42C248.66 225.79 248.63 226.93 248.61 227.83C248.59 228.73 248.55 230.11 248.48 231.96C248.41 233.81 248.37 234.96 248.35 235.3C248.33 235.64 248.35 236.37 248.24 237.4C248.179 238.52 248.052 239.635 247.86 240.74C247.752 241.54 247.578 242.329 247.34 243.1C247.226 243.41 247.089 243.711 246.93 244C246.58 244.44 246.27 244.82 245.93 245.13C245.59 245.44 245.47 245.61 245.41 245.66L245.03 245.93C244.749 246.093 244.458 246.24 244.16 246.37L243.49 246.64L241.26 247.11C240.063 247.378 238.851 247.572 237.63 247.69C236.63 247.77 235.88 247.82 235.36 247.83H233.15C232.21 247.83 231.15 247.83 230.09 247.93L227.18 248.09C226.34 248.09 225.62 248.16 225.02 248.17H223.02H221.51H220.64L218.42 248.11L215.98 247.99L213.4 247.86L210.84 247.74C210.36 247.74 209.7 247.74 208.84 247.74C207.98 247.74 207.24 247.79 206.61 247.84C205.98 247.89 205.35 247.92 204.73 247.94H202.56C201.74 247.94 201.05 247.94 200.48 247.94C199.91 247.94 199.29 247.94 198.62 247.86C197.95 247.78 197.38 247.77 196.91 247.71C196.44 247.65 195.69 247.5 194.65 247.28L193 247L192.18 246.81C191.67 246.7 191.02 246.58 190.23 246.44L188.44 246.14C188.03 246.07 187.44 245.96 186.71 245.8C185.98 245.64 185.36 245.5 184.9 245.38C184.44 245.26 184.09 245.17 183.9 245.1L182.04 244.5L179.62 243.7L178.3 243.25L177.72 243.05L176.2 242.58C175.29 242.3 174.65 242.1 174.28 242C173.91 241.9 173.44 241.77 172.85 241.65L171.85 241.44L170.05 241.17L166.3 240.59L164.18 240.26L162.25 239.91C161.01 239.68 159.95 239.46 159.08 239.27L157.01 238.78L155.39 238.37L152.51 237.64C151.17 237.31 149.68 236.97 148.06 236.64L145.1 236L143.64 235.7L141.48 235.22C140.69 235.04 140.28 234.95 140.26 234.93L136.74 234.06C134.42 233.49 132.98 233.12 132.41 232.97L130.61 232.48L128.14 231.81C127.14 231.53 126.28 231.3 125.59 231.13C124.9 230.96 124.17 230.78 123.41 230.61L121.51 230.18L119.96 229.87L117.8 229.42L115.39 228.91L113.8 228.55L112.13 228.17C111.4 228 110.82 227.86 110.37 227.74C109.92 227.62 109.23 227.43 108.25 227.16L106 226.5L104.53 226.08L101.96 225.39L98.31 224.44L96.34 224L94.94 223.7L93.14 223.35L91.59 223.1L90.07 222.87L89.34 222.77L87.6 222.58C86.53 222.47 85.7 222.39 85.12 222.35L83.35 222.25L82.16 222.17L79.96 222.09L76.56 222H74.63H72.32H69.44H66.52C65.24 222 64.03 222 62.9 222L59.73 222.06H57.73H55.9C55.09 222.06 54.58 222.06 54.35 222.06H52.9" fill="url(#paint3_linear)"/>
<path d="M220.52 248.48L218.33 248.42L215.88 248.3L213.31 248.17L210.75 248.05C210.28 248.05 209.62 248.05 208.75 248.05C207.88 248.05 207.16 248.1 206.54 248.15C205.92 248.2 205.27 248.23 204.65 248.25H202.47C201.65 248.25 200.95 248.25 200.38 248.25C199.81 248.25 199.18 248.25 198.51 248.17C197.84 248.09 197.25 248.08 196.79 248.01C196.33 247.94 195.58 247.81 194.51 247.58L192.86 247.22C192.86 247.22 192.55 247.14 192.07 247.04C191.59 246.94 190.91 246.8 190.13 246.67L188.33 246.37C187.93 246.3 187.33 246.18 186.6 246.02C185.87 245.86 185.24 245.72 184.77 245.6C184.3 245.48 183.96 245.39 183.77 245.32L181.91 244.72L179.49 243.92L178.17 243.46L177.59 243.27L176.08 242.8C175.17 242.52 174.53 242.32 174.16 242.22C173.79 242.12 173.33 242 172.75 241.87L171.75 241.67L169.95 241.4L166.2 240.82L164.08 240.49L162.14 240.13C160.9 239.9 159.83 239.69 158.96 239.49L156.9 239L155.27 238.58L152.4 237.86C151.06 237.52 149.57 237.18 147.96 236.86C146.35 236.54 145.38 236.3 145.05 236.24L143.59 235.93C142.94 235.79 142.22 235.64 141.43 235.45L140.17 235.16L136.68 234.29C134.36 233.72 132.92 233.36 132.35 233.2L130.54 232.72L128.08 232.04C127.08 231.76 126.22 231.53 125.53 231.36C124.84 231.19 124.12 231.01 123.36 230.84C122.6 230.67 121.96 230.52 121.46 230.42L119.91 230.1L117.75 229.66L115.34 229.15L113.74 228.79L112.08 228.4C111.34 228.23 110.75 228.09 110.31 227.97C109.87 227.85 109.16 227.66 108.19 227.39L105.89 226.75L104.42 226.34L101.85 225.64C100.56 225.3 99.35 224.98 98.21 224.7L96.28 224.21L94.89 223.92C94.1 223.76 93.51 223.64 93.1 223.57C92.69 223.5 92.17 223.41 91.55 223.31L90 223.08L89.27 222.98C89.18 222.98 88.6 222.9 87.54 222.79C86.48 222.68 85.66 222.6 85.07 222.56L83.31 222.46L82.11 222.38L80 222.3L76.6 222.21H74.67H72.36H69.48H66.52C65.24 222.21 64.03 222.21 62.9 222.21L57.69 222.31H55.9C55.1 222.31 54.56 222.31 54.33 222.31H52.9C52.8433 222.31 52.7882 222.291 52.7431 222.257C52.698 222.223 52.6653 222.175 52.65 222.12L52.56 221.7C52.5557 221.674 52.5557 221.647 52.56 221.62C52.56 221.52 52.56 221.19 52.64 220.62C52.72 220.05 52.71 219.4 52.71 218.62C52.71 217.84 52.71 216.28 52.71 213.96C52.71 211.64 52.71 209.33 52.71 206.96C52.71 204.59 52.71 203.25 52.71 202.84V199.53C52.71 197.74 52.71 196.28 52.71 195.16C52.71 194.04 52.71 192.8 52.71 191.45C52.71 190.1 52.71 188.52 52.71 186.69C52.71 184.86 52.71 183.31 52.71 182.04C52.71 180.77 52.61 178.72 52.49 175.96C52.37 173.2 52.28 170.89 52.22 169.1C52.16 167.31 52.11 164.1 52.07 159.53C52.03 154.96 52.07 151.42 52.07 149.02C52.07 146.62 52.07 144.72 52.14 143.38C52.21 142.04 52.22 140.59 52.32 139.06C52.42 137.53 52.63 134.8 52.93 130.95C53.23 127.1 53.44 123.95 53.55 121.68C53.66 119.41 53.71 117.63 53.71 116.48C53.71 115.33 53.71 114.29 53.71 113.36C53.71 112.43 53.64 111.36 53.56 110.1C53.48 108.84 53.39 107.81 53.31 106.99C53.23 106.17 53.15 105.45 53.1 104.87C53.0507 104.011 53.0507 103.149 53.1 102.29C53.1198 101.43 53.1865 100.572 53.3 99.7201C53.3794 99.2082 53.51 98.7057 53.69 98.2201C53.9274 97.6731 54.2118 97.1478 54.54 96.6501C54.92 96.0501 55.13 95.7301 55.15 95.6501C55.3418 95.4192 55.5562 95.2081 55.79 95.0201C56.0984 94.7086 56.4329 94.4242 56.79 94.1701C56.9923 94.0175 57.2144 93.8931 57.45 93.8001L57.73 93.6901C57.8 93.6901 57.99 93.6001 58.73 93.3901C59.31 93.2301 59.98 93.0801 60.73 92.9401C61.8758 92.7617 63.0312 92.6515 64.19 92.6101C65.71 92.5301 66.92 92.4901 67.8 92.4901H71.59H74.87C76.28 92.4901 78.38 92.5501 81.1 92.6301C83.82 92.7101 86.1 92.7801 87.81 92.8201C89.52 92.8601 90.81 92.8701 91.57 92.8201C92.33 92.7701 93.02 92.7701 93.63 92.7101C94.24 92.6501 95.09 92.5501 96.13 92.3701C97.17 92.1901 98.54 91.9001 100.19 91.4801C101.84 91.0601 103.05 90.7501 103.82 90.5501L107.82 89.4801C109.71 88.9801 111.24 88.5601 112.41 88.2401C113.58 87.9201 114.84 87.5601 116.2 87.2401L119.82 86.2401C120.88 85.9601 121.76 85.7301 122.46 85.5601L124.73 84.9801C125.55 84.7701 127.78 84.2501 131.54 83.3901C135.3 82.5301 138.14 81.9101 140.14 81.4901L144.2 80.6301L148.1 79.7301C150 79.2801 152.2 78.8101 154.65 78.3101C157.1 77.8101 159.12 77.4101 160.65 77.1301L163.98 76.5301C164.66 76.4101 165.98 76.1501 167.84 75.7601C169.7 75.3701 171.41 74.9701 172.89 74.5501L176.35 73.5501C177.19 73.3001 178.02 73.0501 178.86 72.8201C179.7 72.5901 180.93 72.2801 182.53 71.9201C184.13 71.5601 185.68 71.2401 187.16 70.9801C188.64 70.7201 189.91 70.5101 190.93 70.3601L194 70.0001C195.21 69.8401 196.48 69.7001 197.78 69.5901C199.08 69.4801 200.3 69.3901 201.38 69.3301L203.59 69.2301L206.75 69.1101L213.44 68.8501C216.19 68.7501 218.75 68.6901 221.06 68.6601C223.37 68.6301 225.62 68.6601 227.69 68.6601C229.76 68.6601 231.24 68.6601 232.04 68.7301C232.84 68.8001 233.59 68.8001 234.28 68.8501C234.97 68.9001 236.09 69.0001 237.59 69.1501C239.09 69.3001 240.32 69.4401 241.24 69.5801C242.16 69.7201 243.04 69.8701 243.84 70.0401C244.564 70.1887 245.278 70.379 245.98 70.6101C246.463 70.7683 246.937 70.9519 247.4 71.1601C247.868 71.4031 248.319 71.6771 248.75 71.9801L249.67 72.6201C249.889 72.8294 250.09 73.0569 250.27 73.3001C250.576 73.666 250.85 74.0575 251.09 74.4701C251.289 74.8255 251.466 75.1929 251.62 75.5701L251.85 76.1201C252.02 76.6005 252.144 77.0961 252.22 77.6001C252.432 78.5362 252.586 79.4847 252.68 80.4401C252.77 81.4401 252.85 82.4401 252.9 83.3801C252.95 84.3201 253.01 85.6801 253.05 87.3801C253.09 89.0801 253.11 90.3801 253.05 91.2801V93.2801C253.05 93.7401 252.93 94.8601 252.72 96.7201C252.51 98.5801 252.29 100.21 252.05 101.72L251.42 105.56C251.24 106.63 251.09 108.19 250.95 110.22C250.81 112.25 250.75 114.03 250.78 115.56C250.81 117.09 250.78 118.23 250.87 118.93C250.96 119.63 250.94 120.25 250.99 120.78C251.04 121.31 251.09 122.36 251.16 123.9C251.23 125.44 251.25 126.9 251.22 128.24C251.19 129.58 251.13 130.86 251.04 132.04C250.95 133.22 250.81 135.12 250.62 137.67C250.43 140.22 250.3 142.24 250.26 143.75C250.22 145.26 250.16 147.31 250.11 149.9C250.06 152.49 250.01 154.65 249.98 156.4C249.95 158.15 249.98 159.4 249.98 160.34C249.98 161.28 249.98 162.24 249.98 163.34C249.98 164.44 249.98 167.49 249.91 172.22C249.84 176.95 249.8 180.61 249.74 183.01C249.68 185.41 249.65 187.17 249.61 188.24C249.57 189.31 249.54 190.17 249.5 190.81C249.46 191.45 249.4 192.74 249.31 194.74C249.22 196.74 249.18 198.21 249.17 199.16C249.16 200.11 249.17 201.3 249.17 202.67C249.17 204.04 249.22 205.42 249.17 206.79C249.12 208.16 249.17 209.38 249.17 210.52C249.17 211.66 249.11 212.87 249.09 214.18C249.07 215.49 249.03 217.18 248.99 219.26C248.95 221.34 248.9 223.06 248.87 224.43C248.84 225.8 248.81 226.94 248.79 227.84C248.77 228.74 248.73 230.12 248.66 231.97L248.53 235.31C248.53 235.68 248.53 236.38 248.42 237.42C248.358 238.546 248.231 239.668 248.04 240.78C247.928 241.597 247.747 242.403 247.5 243.19C247.38 243.509 247.24 243.819 247.08 244.12C246.71 244.6 246.38 244.99 246.08 245.3C245.912 245.495 245.732 245.679 245.54 245.85C245.41 245.956 245.273 246.053 245.13 246.14C244.841 246.314 244.54 246.468 244.23 246.6C243.999 246.715 243.758 246.809 243.51 246.88L241.28 247.35C240.077 247.621 238.858 247.818 237.63 247.94C236.63 248.02 235.86 248.07 235.33 248.08H233.12C232.2 248.08 231.18 248.08 230.07 248.18L227.16 248.34C226.32 248.34 225.59 248.41 225 248.42H222.95H221.44H220.53L220.52 248.48ZM209.69 247.48C210.12 247.48 210.48 247.48 210.78 247.48L213.33 247.6L215.91 247.73L218.35 247.85C219.53 247.85 220.23 247.92 220.56 247.91H221.43H222.93H224.93C225.52 247.91 226.24 247.91 227.08 247.83L229.98 247.67C231.1 247.6 232.14 247.56 233.06 247.57H235.26C235.77 247.57 236.53 247.51 237.52 247.43C238.731 247.315 239.933 247.125 241.12 246.86L243.35 246.38L243.97 246.13C244.256 246.009 244.533 245.869 244.8 245.71C244.927 245.637 245.047 245.553 245.16 245.46C245.16 245.46 245.28 245.36 245.66 244.95C246.04 244.54 246.25 244.27 246.6 243.84C246.748 243.567 246.882 243.287 247 243C247.229 242.245 247.396 241.472 247.5 240.69C247.692 239.595 247.819 238.49 247.88 237.38C247.94 236.38 247.98 235.65 247.99 235.29L248.12 231.95C248.19 230.09 248.24 228.71 248.25 227.82C248.26 226.93 248.25 225.82 248.33 224.41C248.41 223 248.4 221.31 248.45 219.24C248.5 217.17 248.52 215.48 248.55 214.16C248.58 212.84 248.6 211.62 248.63 210.5C248.66 209.38 248.63 208.11 248.63 206.77C248.63 205.43 248.63 204.03 248.63 202.67C248.63 201.31 248.63 200.12 248.63 199.15C248.63 198.18 248.69 196.7 248.77 194.71C248.85 192.72 248.92 191.39 248.96 190.76C249 190.13 249.04 189.29 249.07 188.22C249.1 187.15 249.15 185.4 249.2 182.99C249.25 180.58 249.31 176.99 249.37 172.21C249.43 167.43 249.45 164.49 249.44 163.33C249.43 162.17 249.44 161.18 249.44 160.33C249.44 159.48 249.44 158.12 249.44 156.33C249.44 154.54 249.51 152.42 249.57 149.83C249.63 147.24 249.67 145.19 249.72 143.67C249.77 142.15 249.89 140.1 250.08 137.57C250.27 135.04 250.42 133.15 250.51 131.95C250.6 130.75 250.65 129.5 250.68 128.17C250.71 126.84 250.68 125.4 250.62 123.87C250.56 122.34 250.5 121.29 250.45 120.76C250.4 120.23 250.36 119.61 250.33 118.89C250.3 118.17 250.26 117.09 250.24 115.51C250.22 113.93 250.24 112.15 250.41 110.12C250.58 108.09 250.71 106.5 250.88 105.42L251.51 101.57C251.75 100.1 251.98 98.4301 252.18 96.5701C252.38 94.7101 252.5 93.5701 252.51 93.1801V91.1801C252.51 90.3101 252.51 89.0001 252.51 87.3101C252.51 85.6201 252.42 84.2501 252.36 83.3101C252.3 82.3701 252.23 81.3101 252.14 80.3901C252.053 79.455 251.906 78.5264 251.7 77.6101C251.44 76.4901 251.38 76.2801 251.37 76.2501C251.276 76.0583 251.192 75.8613 251.12 75.6601C250.967 75.3183 250.797 74.9845 250.61 74.6601C250.387 74.2731 250.133 73.9052 249.85 73.5601C249.42 73.0501 249.33 72.9601 249.32 72.9501L248.43 72.3401C248.019 72.0525 247.591 71.7887 247.15 71.5501C246.704 71.35 246.246 71.1764 245.78 71.0301C245.095 70.801 244.397 70.614 243.69 70.4701C242.9 70.3101 242.04 70.1501 241.13 70.0101C240.22 69.8701 238.99 69.7301 237.5 69.5801C236.01 69.4301 234.89 69.3301 234.21 69.2901C233.53 69.2501 232.78 69.2001 231.98 69.1701C231.18 69.1401 229.77 69.1201 227.65 69.1001C225.53 69.0801 223.35 69.1001 221.03 69.1001C218.71 69.1001 216.16 69.1901 213.42 69.2901L206.73 69.5501L203.57 69.6701L201.37 69.7701C200.29 69.8301 199.08 69.9101 197.78 70.0301C196.48 70.1501 195.22 70.2801 194.03 70.4301L190.7 70.9001C189.7 71.0501 188.43 71.2501 186.95 71.5101C185.47 71.7701 183.95 72.0801 182.34 72.4501C180.73 72.8201 179.52 73.1101 178.7 73.3401C177.88 73.5701 177.03 73.8201 176.2 74.0701C175.37 74.3201 174.2 74.6601 172.72 75.0701C171.24 75.4801 169.53 75.9001 167.64 76.2901C165.75 76.6801 164.45 76.9401 163.77 77.0601L160.44 77.6601C158.92 77.9501 156.9 78.3401 154.44 78.8401C151.98 79.3401 149.8 79.8401 147.9 80.2501L144 81.1601L139.93 82.0201C137.93 82.4401 135.05 83.0801 131.34 83.9201C127.63 84.7601 125.34 85.3001 124.54 85.5001L122.27 86.0801C121.57 86.2501 120.7 86.4801 119.64 86.7701L116.02 87.7701C114.66 88.1301 113.4 88.4801 112.23 88.7701C111.06 89.0601 109.53 89.5101 107.64 90.0101L103.64 91.0801C102.87 91.2901 101.64 91.6001 100 92.0201C98.36 92.4401 97 92.7401 95.9 92.9101C94.8 93.0801 93.99 93.2101 93.37 93.2601C92.75 93.3101 92.04 93.3501 91.28 93.3701C90.52 93.3901 89.28 93.3701 87.49 93.3701C85.7 93.3701 83.49 93.2701 80.77 93.1801C78.05 93.0901 75.96 93.0501 74.55 93.0401H71.27H69.55C69.11 93.0401 68.45 93.0401 67.55 93.0401C66.68 93.0401 65.47 93.0401 63.97 93.1601C62.8316 93.2037 61.6966 93.3105 60.57 93.4801C59.83 93.6201 59.18 93.7601 58.57 93.9201C57.85 94.1201 57.65 94.1901 57.57 94.2101L57.26 94.3201C57.0693 94.4075 56.8883 94.5148 56.72 94.6401C56.3664 94.8766 56.032 95.1407 55.72 95.4301C55.5277 95.5972 55.3441 95.7741 55.17 95.9601C55.17 95.9601 55.17 96.0201 54.55 96.9601C54.2442 97.4312 53.9766 97.9261 53.75 98.4401C53.5814 98.8929 53.4607 99.3621 53.39 99.8401C53.2709 100.672 53.2041 101.51 53.19 102.35C53.1405 103.186 53.1405 104.024 53.19 104.86C53.24 105.44 53.31 106.14 53.4 106.97C53.49 107.8 53.57 108.86 53.65 110.11C53.73 111.36 53.78 112.47 53.8 113.39C53.82 114.31 53.8 115.39 53.8 116.52C53.8 117.65 53.8 119.44 53.64 121.74C53.48 124.04 53.33 127.16 53.02 131.03C52.71 134.9 52.52 137.6 52.41 139.14C52.3 140.68 52.25 142.14 52.23 143.43C52.21 144.72 52.23 146.65 52.16 149.06C52.09 151.47 52.16 155 52.16 159.56C52.16 164.12 52.25 167.35 52.31 169.12C52.37 170.89 52.46 173.19 52.58 175.98C52.7 178.77 53 180.76 53 182C53 183.24 53 184.82 53 186.65C53 188.48 53 190.07 53 191.42C53 192.77 53 194 53 195.13C53 196.26 53 197.71 53 199.5V202.81C53 203.22 53 204.6 53 206.92C53 209.24 53 211.57 53 213.92C53 216.27 53 217.79 53 218.58C53 219.37 53 220.06 52.93 220.58C52.86 221.1 52.87 221.39 52.85 221.53L52.9 221.71H54.15C54.33 221.71 54.72 221.71 55.7 221.71H57.48L62.69 221.61C63.8167 221.61 65.0267 221.61 66.32 221.61H69.24H72.13H74.43H76.37L79.77 221.7L81.98 221.78L83.16 221.86L84.94 221.96C85.53 221.96 86.36 222.08 87.42 222.19L89.18 222.38L89.9 222.48L91.43 222.71L92.98 222.96L94.79 223.32L96.2 223.62L98.13 224.1C99.27 224.39 100.49 224.7 101.78 225.1L104.36 225.79L105.83 226.21L108.12 226.85L110.24 227.43L111.99 227.86L113.65 228.24L115.25 228.6L117.65 229.11L119.81 229.55L121.36 229.87L123.27 230.29C124.03 230.47 124.76 230.64 125.45 230.82C126.14 231 127 231.21 128.01 231.49L130.47 232.17L132.27 232.66L136.6 233.75L140.14 234.63L141.34 234.91C142.13 235.09 142.84 235.25 143.49 235.38L144.95 235.69L147.87 236.31C149.48 236.65 150.98 237 152.32 237.31C153.66 237.62 154.63 237.89 155.2 238.04L156.82 238.45C157.33 238.58 158.02 238.74 158.88 238.93C159.74 239.12 160.8 239.34 162.05 239.57L163.96 239.92L166.09 240.26L169.83 240.83L171.63 241.1L172.63 241.31C173.23 241.44 173.71 241.56 174.08 241.67C174.45 241.78 175.08 241.97 176.01 242.25L177.52 242.72L178.11 242.92L179.43 243.37L181.85 244.17L183.7 244.77C183.91 244.84 184.25 244.93 184.7 245.05C185.15 245.17 185.76 245.31 186.5 245.46C187.24 245.61 187.82 245.73 188.22 245.8L190.01 246.11C190.8 246.24 191.46 246.37 192.01 246.48L192.86 246.67C192.92 246.67 193.45 246.81 194.45 247.02C195.45 247.23 196.24 247.39 196.69 247.45C197.14 247.51 197.69 247.56 198.38 247.6C199.07 247.64 199.67 247.67 200.24 247.68C200.81 247.69 201.5 247.68 202.31 247.68H204.47C205.09 247.68 205.72 247.68 206.34 247.58C206.96 247.48 207.71 247.5 208.58 247.48H209.69Z" fill="url(#paint4_linear)"/>
<path d="M203.53 71.13C202.469 71.13 201.452 70.7086 200.702 69.9584C199.951 69.2083 199.53 68.1909 199.53 67.13C199.53 66.0691 199.951 65.0517 200.702 64.3016C201.452 63.5514 202.469 63.13 203.53 63.13L251.35 63C252.411 63 253.428 63.4214 254.178 64.1716C254.929 64.9217 255.35 65.9391 255.35 67C255.35 68.0609 254.929 69.0783 254.178 69.8284C253.428 70.5786 252.411 71 251.35 71L203.51 71.15L203.53 71.13Z" fill="black"/>
<path d="M250.67 251C249.609 251 248.592 250.579 247.842 249.828C247.091 249.078 246.67 248.061 246.67 247L247.37 67C247.37 65.9391 247.791 64.9217 248.542 64.1716C249.292 63.4214 250.309 63 251.37 63C252.431 63 253.448 63.4214 254.198 64.1716C254.949 64.9217 255.37 65.9391 255.37 67L254.67 247.05C254.657 248.102 254.23 249.107 253.481 249.846C252.732 250.586 251.722 251 250.67 251Z" fill="black"/>
<path d="M191.47 252.06C190.409 252.068 189.389 251.654 188.633 250.91C187.877 250.165 187.448 249.151 187.44 248.09C187.432 247.029 187.846 246.009 188.59 245.253C189.335 244.497 190.349 244.068 191.41 244.06L250.61 243.06H250.68C251.741 243.052 252.761 243.466 253.517 244.21C254.273 244.955 254.702 245.969 254.71 247.03C254.718 248.091 254.304 249.111 253.56 249.867C252.815 250.623 251.801 251.052 250.74 251.06L191.54 252.06H191.47Z" fill="black"/>
<path d="M52.8 95.59C51.7392 95.59 50.7218 95.1685 49.9716 94.4184C49.2215 93.6683 48.8 92.6508 48.8 91.59C48.8 90.5291 49.2215 89.5117 49.9716 88.7615C50.7218 88.0114 51.7392 87.59 52.8 87.59L90.2901 87.47C91.3509 87.47 92.3683 87.8914 93.1185 88.6415C93.8686 89.3917 94.2901 90.4091 94.2901 91.47C94.2901 92.5308 93.8686 93.5482 93.1185 94.2984C92.3683 95.0485 91.3509 95.47 90.2901 95.47L52.7901 95.59H52.8Z" fill="black"/>
<path d="M52.9001 226C51.8392 226 50.8218 225.579 50.0716 224.828C49.3215 224.078 48.9001 223.061 48.9001 222L48.8 91.59C48.8 90.5291 49.2215 89.5117 49.9716 88.7615C50.7218 88.0114 51.7392 87.59 52.8 87.59C53.8609 87.59 54.8783 88.0114 55.6285 88.7615C56.3786 89.5117 56.8 90.5291 56.8 91.59L56.9001 222C56.9001 223.061 56.4786 224.078 55.7285 224.828C54.9783 225.579 53.9609 226 52.9001 226Z" fill="black"/>
<path d="M52.9 226C51.8392 226 50.8217 225.579 50.0716 224.828C49.3214 224.078 48.9 223.061 48.9 222C48.9 220.939 49.3214 219.922 50.0716 219.172C50.8217 218.421 51.8392 218 52.9 218H93C94.0609 218 95.0783 218.421 95.8285 219.172C96.5786 219.922 97 220.939 97 222C97 223.061 96.5786 224.078 95.8285 224.828C95.0783 225.579 94.0609 226 93 226H52.9Z" fill="black"/>
<path d="M183.6 162C182.539 162 181.522 161.579 180.772 160.828C180.022 160.078 179.6 159.061 179.6 158L179.33 68.63C179.33 67.5691 179.752 66.5517 180.502 65.8016C181.252 65.0514 182.269 64.63 183.33 64.63C184.391 64.63 185.408 65.0514 186.159 65.8016C186.909 66.5517 187.33 67.5691 187.33 68.63L187.6 158C187.6 159.061 187.179 160.078 186.428 160.828C185.678 161.579 184.661 162 183.6 162Z" fill="black"/>
<path d="M110.41 236.28C109.349 236.28 108.332 235.859 107.582 235.108C106.831 234.358 106.41 233.341 106.41 232.28L106.66 66.85C106.66 65.7891 107.081 64.7717 107.832 64.0216C108.582 63.2714 109.599 62.85 110.66 62.85C111.721 62.85 112.738 63.2714 113.488 64.0216C114.239 64.7717 114.66 65.7891 114.66 66.85L114.41 232.27C114.411 232.796 114.309 233.317 114.108 233.804C113.908 234.29 113.614 234.732 113.242 235.105C112.87 235.477 112.429 235.773 111.943 235.975C111.457 236.176 110.936 236.28 110.41 236.28Z" fill="black"/>
<path d="M166.76 234.55C165.699 234.55 164.682 234.129 163.932 233.378C163.182 232.628 162.76 231.611 162.76 230.55L162.6 131.63C162.6 130.569 163.022 129.552 163.772 128.802C164.522 128.051 165.539 127.63 166.6 127.63C167.661 127.63 168.678 128.051 169.429 128.802C170.179 129.552 170.6 130.569 170.6 131.63L170.76 230.56C170.76 231.621 170.339 232.638 169.589 233.388C168.838 234.139 167.821 234.56 166.76 234.56V234.55Z" fill="black"/>
<path d="M128.9 175.41C127.839 175.41 126.822 174.989 126.072 174.238C125.321 173.488 124.9 172.471 124.9 171.41L124.47 131.41C124.47 130.349 124.891 129.332 125.642 128.582C126.392 127.831 127.409 127.41 128.47 127.41C129.531 127.41 130.548 127.831 131.298 128.582C132.049 129.332 132.47 130.349 132.47 131.41L132.9 171.41C132.9 172.471 132.479 173.488 131.728 174.238C130.978 174.989 129.961 175.41 128.9 175.41Z" fill="black"/>
<path d="M183.31 75.77C182.249 75.77 181.232 75.3486 180.482 74.5984C179.731 73.8483 179.31 72.8308 179.31 71.77V71C179.31 70.89 179.31 70.79 179.31 70.68C179.31 70.31 179.36 70.06 179.37 69.92C179.377 69.8001 179.377 69.6799 179.37 69.56C179.37 69.4 179.37 69.27 179.37 69.19C179.37 69.11 179.37 68.9 179.37 68.7C179.37 68.5 179.37 68.09 179.31 67.62L179.24 66.49C179.24 66.3 179.19 65.99 179.14 65.56C179.09 65.13 179.03 64.76 178.97 64.44C178.91 64.12 178.85 63.86 178.78 63.6C178.71 63.34 178.53 62.74 178.26 61.91C177.99 61.08 177.65 60.24 177.26 59.31C176.68 58.02 176.43 57.54 176.35 57.4C176.16 57.06 175.98 56.76 175.8 56.48C175.62 56.2 175.31 55.77 174.94 55.25C174.57 54.73 174.19 54.25 173.82 53.76C173.45 53.27 173.14 52.92 172.82 52.57C172.5 52.22 172.17 51.86 171.82 51.52C171.47 51.18 171.05 50.77 170.6 50.36C170.15 49.95 169.6 49.52 168.92 48.98C168.234 48.4415 167.52 47.9407 166.78 47.48C166.01 47 165.28 46.57 164.61 46.21C163.94 45.85 162.93 45.39 161.61 44.8C159.94 44.08 159.03 43.74 158.61 43.59C157.91 43.35 156.87 43.05 155.5 42.7C153.66 42.22 153.24 42.12 153.15 42.1L150.63 41.74C149.21 41.54 148.02 41.42 147.1 41.37C146.18 41.32 145.25 41.3 144.34 41.37C143.43 41.44 142.51 41.45 141.56 41.55C140.61 41.65 139.56 41.83 138.26 42.1C136.51 42.47 135.9 42.64 135.71 42.7L134.23 43.2C133.743 43.38 133.077 43.66 132.23 44.04C131.4 44.41 130.68 44.75 130.11 45.04C129.54 45.33 129.11 45.59 128.84 45.75C128.57 45.91 128.03 46.27 127.2 46.84C126.307 47.459 125.449 48.1266 124.63 48.84C123.51 49.78 122.98 50.27 122.74 50.52C122.5 50.77 122.23 51.04 122.14 51.14L121.35 52.06C120.89 52.6 120.54 53.06 120.35 53.37C120.16 53.68 119.85 54.05 119.6 54.43C119.35 54.81 119.13 55.17 118.6 56.13C118.07 57.09 117.81 57.64 117.67 57.94C117.46 58.42 117.23 58.94 116.99 59.63C116.83 60.08 116.7 60.41 116.6 60.63L116.35 61.41C116.19 61.92 115.98 62.62 115.73 63.52C115.48 64.42 115.29 65.09 115.19 65.52C115.09 65.95 114.96 66.46 114.79 67.21L114.71 67.66C114.635 68.1899 114.454 68.6993 114.178 69.158C113.902 69.6167 113.537 70.0153 113.104 70.3304C112.671 70.6454 112.18 70.8704 111.659 70.992C111.137 71.1136 110.597 71.1293 110.07 71.0383C109.542 70.9473 109.038 70.7513 108.588 70.462C108.138 70.1727 107.75 69.796 107.448 69.3542C107.146 68.9123 106.935 68.4143 106.829 67.8897C106.723 67.3651 106.723 66.8245 106.83 66.3L106.93 65.72C106.925 65.6567 106.925 65.5932 106.93 65.53C107.13 64.63 107.29 63.97 107.4 63.53C107.51 63.09 107.71 62.4 107.98 61.4C108.25 60.4 108.5 59.59 108.69 59.01C108.88 58.43 109 58.01 109.05 57.93C109.05 57.84 109.21 57.48 109.44 56.86C109.74 56.05 110.04 55.33 110.31 54.71C110.58 54.09 111.01 53.25 111.55 52.27C112.09 51.29 112.55 50.57 112.88 50.03C113.21 49.49 113.55 49.03 113.88 48.63C114.21 48.23 114.66 47.63 115.26 46.91L116.19 45.81C116.19 45.81 116.51 45.47 117.05 44.93C117.59 44.39 118.37 43.67 119.48 42.74C120.511 41.8655 121.585 41.0444 122.7 40.28C124.01 39.38 124.47 39.09 124.7 38.94C124.93 38.79 125.56 38.44 126.3 38.04C127.04 37.64 127.95 37.2 128.97 36.75C129.99 36.3 130.82 35.96 131.48 35.75C132.14 35.54 132.72 35.31 133.3 35.13C133.72 35 134.52 34.77 136.6 34.33C138.15 34 139.54 33.78 140.73 33.65C141.92 33.52 143.04 33.46 144.15 33.43C145.26 33.4 146.39 33.43 147.52 33.49C148.65 33.55 150.05 33.69 151.73 33.93L154.63 34.35C154.91 34.41 155.36 34.51 157.51 35.06C159.07 35.47 160.26 35.81 161.13 36.11C162 36.41 163.25 36.89 164.83 37.57C166.41 38.25 167.59 38.81 168.44 39.26C169.29 39.71 170.17 40.26 171.11 40.82C172.05 41.38 173.01 42.08 173.89 42.76C174.77 43.44 175.47 44.02 176.05 44.55C176.63 45.08 177.05 45.55 177.53 45.95C178.01 46.35 178.43 46.86 178.85 47.34C179.27 47.82 179.72 48.34 180.17 48.92C180.62 49.5 181.05 50.05 181.5 50.68C181.95 51.31 182.31 51.82 182.56 52.21C182.81 52.6 183.13 53.12 183.42 53.63C183.71 54.14 184.1 54.96 184.63 56.16C185.128 57.2633 185.568 58.3915 185.95 59.54C186.29 60.54 186.51 61.3 186.61 61.68C186.71 62.06 186.82 62.55 186.92 63.04C187.02 63.53 187.1 64.04 187.17 64.71C187.24 65.38 187.29 65.79 187.31 66.06L187.39 67.23C187.39 67.83 187.45 68.28 187.45 68.59C187.45 68.9 187.45 69.21 187.45 69.38C187.45 69.55 187.45 69.82 187.45 70.18C187.45 70.54 187.45 70.75 187.45 70.89C187.45 71.03 187.45 71.05 187.45 71.16V71.87C187.458 72.3953 187.362 72.917 187.169 73.4054C186.975 73.8937 186.687 74.3391 186.321 74.7161C185.955 75.0931 185.519 75.3944 185.036 75.6027C184.554 75.8109 184.035 75.9222 183.51 75.93L183.31 75.77Z" fill="black"/>
<path d="M139.4 263.68C138.49 263.68 137.31 263.61 135.75 263.46C134.449 263.364 133.153 263.197 131.87 262.96C131.19 262.81 130.46 262.62 129.72 262.4C128.98 262.18 128.35 261.97 127.86 261.79L126.67 261.32L125.67 260.85C125.25 260.65 124.67 260.38 124.06 260.03C123.45 259.68 122.66 259.24 121.91 258.75C121.16 258.26 120.38 257.69 119.6 257.07C118.82 256.45 118.12 255.84 117.44 255.19C116.76 254.54 116.21 254 115.75 253.51C115.29 253.02 114.75 252.45 114.25 251.82C113.75 251.19 113.32 250.69 113.07 250.36C112.82 250.03 112.44 249.47 111.95 248.72C111.46 247.97 111.06 247.32 110.74 246.72C110.42 246.12 110.12 245.53 109.85 244.92C109.58 244.31 109.39 243.85 109.27 243.54C109.15 243.23 109.03 242.86 108.88 242.45C108.73 242.04 108.56 241.45 108.33 240.62C108.1 239.79 107.95 239.27 107.86 238.88C107.77 238.49 107.68 238.17 107.62 237.88C107.56 237.59 107.47 237.23 107.38 236.81L107.15 235.69C107.07 235.32 107.02 235.04 106.98 234.85L106.91 234.5C106.91 234.38 106.88 234.22 106.82 234.02V233.72C106.567 233.117 106.464 232.462 106.52 231.81C106.52 231.71 106.52 231.61 106.52 231.51C106.611 230.883 106.85 230.287 107.216 229.771C107.583 229.255 108.067 228.833 108.628 228.54C109.189 228.247 109.812 228.092 110.445 228.086C111.079 228.081 111.704 228.226 112.27 228.51C112.581 228.66 112.871 228.852 113.13 229.08C113.536 229.409 113.876 229.813 114.13 230.27C114.308 230.582 114.436 230.919 114.51 231.27C114.559 231.427 114.6 231.588 114.63 231.75C114.63 231.98 114.7 232.16 114.71 232.28V232.41L114.88 233.34C114.88 233.5 114.96 233.75 115.02 234.08L115.25 235.16C115.32 235.5 115.38 235.79 115.44 236.04C115.5 236.29 115.58 236.6 115.66 236.95C115.74 237.3 115.88 237.77 116.07 238.43C116.26 239.09 116.39 239.54 116.5 239.86C116.61 240.18 116.71 240.47 116.8 240.71C116.89 240.95 117.02 241.25 117.21 241.71C117.4 242.17 117.59 242.53 117.8 242.93C118.01 243.33 118.32 243.81 118.68 244.37C119.04 244.93 119.32 245.37 119.51 245.58C119.7 245.79 120.01 246.21 120.42 246.71C120.83 247.21 121.24 247.66 121.6 248.05C121.96 248.44 122.44 248.9 122.98 249.41C123.52 249.92 124.06 250.41 124.64 250.86C125.22 251.31 125.78 251.72 126.32 252.08C126.86 252.44 127.4 252.75 127.87 253.01C128.34 253.27 128.76 253.47 129.07 253.62L129.89 253.98C130.11 254.08 130.4 254.19 130.76 254.33C131.12 254.47 131.55 254.6 132.09 254.76C132.63 254.92 133.18 255.06 133.67 255.17C134.633 255.34 135.604 255.46 136.58 255.53C137.626 255.647 138.678 255.704 139.73 255.7C140.4 255.7 140.98 255.64 141.47 255.59C141.96 255.54 142.47 255.47 142.85 255.39C143.23 255.31 143.73 255.22 144.22 255.1C144.71 254.98 145.32 254.79 146.08 254.53C147.08 254.19 147.52 254.02 147.69 253.95C148.01 253.82 148.34 253.67 148.69 253.51L149.77 252.97C150.14 252.77 150.66 252.46 151.32 252.06C151.98 251.66 152.59 251.24 153.11 250.87C153.63 250.5 154.11 250.11 154.58 249.72C155.05 249.33 155.42 248.98 155.71 248.72C156 248.46 156.33 248.09 156.71 247.66C157.09 247.23 157.43 246.82 157.71 246.44C157.89 246.21 158.23 245.71 158.85 244.7C159.22 244.135 159.554 243.547 159.85 242.94C160.07 242.48 160.22 242.13 160.32 241.94C160.42 241.75 160.5 241.49 160.56 241.3C160.62 241.11 160.71 240.88 160.8 240.61C160.89 240.34 160.98 240.03 161.08 239.67L161.31 238.81C161.36 238.62 161.41 238.41 161.47 238.16C161.53 237.91 161.6 237.53 161.7 237.06C161.8 236.59 161.87 236.16 161.92 235.87L162.09 234.87C162.15 234.53 162.19 234.29 162.21 234.15L162.47 232.5C162.53 232.17 162.58 231.86 162.61 231.57C162.61 231.48 162.61 231.38 162.61 231.29L162.88 229.92C162.961 229.388 163.149 228.877 163.432 228.419C163.715 227.961 164.087 227.565 164.527 227.254C164.967 226.944 165.465 226.725 165.991 226.612C166.518 226.498 167.061 226.492 167.59 226.594C168.119 226.695 168.622 226.903 169.068 227.204C169.515 227.504 169.896 227.892 170.189 228.344C170.483 228.795 170.682 229.301 170.775 229.832C170.867 230.362 170.852 230.906 170.73 231.43L170.49 232.67C170.49 233.03 170.39 233.4 170.33 233.8L170.08 235.33C170.08 235.47 170.01 235.77 169.94 236.19L169.76 237.24C169.7 237.6 169.62 238.05 169.5 238.63C169.38 239.21 169.29 239.63 169.22 239.99C169.15 240.35 169.08 240.59 169.01 240.82C168.94 241.05 168.87 241.38 168.75 241.82C168.63 242.26 168.49 242.72 168.37 243.09C168.25 243.46 168.14 243.78 168.05 244.04C167.96 244.3 167.83 244.62 167.7 244.95C167.57 245.28 167.36 245.74 167.09 246.34C166.655 247.239 166.171 248.114 165.64 248.96C165 249.96 164.47 250.79 164.04 251.36C163.61 251.93 163.15 252.47 162.64 253.04C162.13 253.61 161.64 254.11 161.27 254.5C160.9 254.89 160.37 255.35 159.74 255.89C159.11 256.43 158.44 256.95 157.74 257.45C157.04 257.95 156.31 258.45 155.47 258.95C154.63 259.45 153.98 259.85 153.47 260.13C152.96 260.41 152.47 260.63 152.04 260.84L150.72 261.43C150.26 261.62 149.56 261.87 148.6 262.2C147.64 262.53 146.79 262.78 146.1 262.95C145.41 263.12 144.79 263.25 144.21 263.36C143.63 263.47 142.99 263.55 142.3 263.63C141.61 263.71 140.83 263.76 139.96 263.79L139.4 263.68Z" fill="black"/>
<path d="M166.59 135.63C165.642 135.628 164.725 135.289 164.003 134.673C163.281 134.058 162.802 133.206 162.65 132.27L162.58 131.86C162.58 131.79 162.58 131.64 162.51 131.43C162.44 131.22 162.44 131.11 162.42 130.98C162.4 130.85 162.42 130.7 162.35 130.6L162.03 128.23C162.03 127.98 161.97 127.78 161.95 127.62L161.82 126.86C161.76 126.57 161.7 126.26 161.63 125.93C161.56 125.6 161.5 125.34 161.45 125.15C161.4 124.96 161.34 124.74 161.25 124.47C161.16 124.2 161.1 123.98 161.05 123.85L160.9 123.47L160.75 123.13C160.69 123 160.58 122.81 160.43 122.54C160.28 122.27 160.17 122.07 160.07 121.92C159.97 121.77 159.78 121.52 159.54 121.22C158.724 120.271 157.831 119.392 156.87 118.59C156.46 118.27 156.07 117.99 155.69 117.75C155.31 117.51 154.92 117.27 154.48 117.03C153.993 116.78 153.492 116.556 152.98 116.36C152.479 116.161 151.964 115.997 151.44 115.87C151.022 115.76 150.598 115.677 150.17 115.62C149.786 115.565 149.398 115.531 149.01 115.52C148.59 115.495 148.17 115.495 147.75 115.52C147.23 115.558 146.713 115.624 146.2 115.72C145.613 115.82 145.032 115.953 144.46 116.12C143.867 116.3 143.357 116.48 142.93 116.66C142.407 116.883 141.896 117.133 141.4 117.41C140.892 117.679 140.401 117.98 139.93 118.31C139.52 118.59 139.25 118.79 139.12 118.89L138.65 119.3C138.45 119.47 138.29 119.61 138.18 119.72L137.62 120.31C137.265 120.705 136.931 121.119 136.62 121.55C136.18 122.12 135.83 122.61 135.62 123C135.41 123.39 135.15 123.79 134.97 124.14C134.79 124.49 134.67 124.73 134.61 124.87L134.35 125.45C134.25 125.69 134.12 126.04 133.95 126.45C133.78 126.86 133.64 127.28 133.53 127.65C133.42 128.02 133.31 128.38 133.23 128.65C133.15 128.92 133.07 129.25 133.02 129.45L132.79 130.45L132.61 131.28L132.5 131.97C132.318 133.016 131.729 133.947 130.86 134.559C129.992 135.17 128.916 135.412 127.87 135.23C126.824 135.048 125.893 134.458 125.281 133.59C124.67 132.722 124.428 131.646 124.61 130.6L124.75 129.82C124.81 129.5 124.88 129.19 124.96 128.82L125.12 128.1L125.25 127.54L125.49 126.6C125.61 126.18 125.74 125.73 125.89 125.24C126.04 124.75 126.24 124.17 126.46 123.57C126.68 122.97 126.86 122.57 126.99 122.23L127.32 121.48C127.42 121.26 127.59 120.91 127.85 120.4C128.11 119.89 128.44 119.32 128.85 118.7C129.26 118.08 129.76 117.34 130.39 116.53C131.02 115.72 131.51 115.15 131.91 114.72C132.31 114.29 132.55 114.05 132.73 113.89C132.91 113.73 133.15 113.49 133.47 113.21C133.79 112.93 134.02 112.72 134.2 112.58C134.38 112.44 134.78 112.14 135.42 111.69C136.14 111.18 136.892 110.716 137.67 110.3C138.5 109.85 139.27 109.47 139.96 109.18C140.726 108.867 141.507 108.593 142.3 108.36C143.172 108.109 144.057 107.902 144.95 107.74C145.741 107.599 146.539 107.502 147.34 107.45C148.033 107.415 148.727 107.415 149.42 107.45C150.1 107.45 150.75 107.54 151.36 107.62C152.053 107.717 152.741 107.851 153.42 108.02C154.29 108.234 155.145 108.505 155.98 108.83C156.791 109.138 157.582 109.496 158.35 109.9C159.017 110.247 159.627 110.607 160.18 110.98C160.73 111.34 161.31 111.75 161.88 112.2C162.655 112.823 163.393 113.491 164.09 114.2C164.753 114.829 165.377 115.497 165.96 116.2C166.333 116.68 166.613 117.06 166.8 117.34C167.068 117.733 167.315 118.141 167.54 118.56C167.82 119.07 168.01 119.44 168.12 119.68L168.4 120.3L168.63 120.9C168.72 121.13 168.85 121.5 169 121.99C169.15 122.48 169.26 122.85 169.32 123.13C169.38 123.41 169.46 123.68 169.55 124.13C169.64 124.58 169.73 124.97 169.8 125.36L169.95 126.21C169.95 126.46 170.03 126.75 170.08 127.1L170.38 129.36V129.5V129.65C170.38 129.74 170.38 129.82 170.38 129.91L170.43 130.21C170.43 130.297 170.47 130.527 170.55 130.9C170.634 131.419 170.616 131.949 170.495 132.46C170.374 132.972 170.154 133.455 169.846 133.881C169.539 134.307 169.15 134.669 168.703 134.945C168.256 135.221 167.759 135.406 167.24 135.49C167.027 135.552 166.81 135.599 166.59 135.63Z" fill="black"/>
<defs>
<linearGradient id="paint0_linear" x1="157.863" y1="3.64001" x2="157.863" y2="312.34" gradientUnits="userSpaceOnUse">
<stop stop-color="#E4BBFA"/>
<stop offset="1" stop-color="#A7D3FF"/>
</linearGradient>
<linearGradient id="paint1_linear" x1="147.114" y1="63.025" x2="147.114" y2="95.4701" gradientUnits="userSpaceOnUse">
<stop stop-color="#E4BBFA"/>
<stop offset="1" stop-color="#A7D3FF"/>
</linearGradient>
<linearGradient id="paint2_linear" x1="142.35" y1="218.037" x2="142.35" y2="252.06" gradientUnits="userSpaceOnUse">
<stop stop-color="#E4BBFA"/>
<stop offset="1" stop-color="#A7D3FF"/>
</linearGradient>
<linearGradient id="paint3_linear" x1="152.6" y1="68.8201" x2="152.6" y2="248.17" gradientUnits="userSpaceOnUse">
<stop stop-color="#E4BBFA"/>
<stop offset="1" stop-color="#A7D3FF"/>
</linearGradient>
<linearGradient id="paint4_linear" x1="152.57" y1="68.6467" x2="152.57" y2="248.48" gradientUnits="userSpaceOnUse">
<stop stop-color="#E4BBFA"/>
<stop offset="1" stop-color="#A7D3FF"/>
</linearGradient>
</defs>
</svg>
