<svg width="316" height="316" viewBox="0 0 316 316" fill="none" xmlns="http://www.w3.org/2000/svg">
<path d="M308.06 156.27C308.06 157.397 308.06 158.527 308.06 159.66C308.06 160.79 308.06 161.92 307.98 163.05C307.9 164.18 307.89 165.32 307.83 166.44C307.77 167.56 307.69 168.7 307.6 169.83C307.51 170.96 307.41 172.08 307.29 173.21C307.17 174.34 307.05 175.46 306.91 176.58C306.77 177.7 306.62 178.82 306.45 179.94C306.28 181.06 306.11 182.18 305.92 183.29C305.73 184.4 305.52 185.52 305.31 186.63C305.1 187.74 304.86 188.85 304.62 189.95C304.38 191.05 304.13 192.16 303.86 193.26C303.59 194.36 303.32 195.45 303.03 196.54C302.74 197.63 302.43 198.73 302.12 199.81C301.81 200.89 301.47 201.98 301.12 203.06C300.77 204.14 300.43 205.21 300.07 206.29C299.71 207.37 299.33 208.42 298.94 209.48C298.55 210.54 298.15 211.6 297.74 212.66C297.33 213.72 296.9 214.76 296.47 215.8C296.04 216.84 295.58 217.89 295.13 218.92C294.68 219.95 294.2 220.98 293.71 222C293.22 223.02 292.71 224 292.23 225.06C291.75 226.12 291.23 227.06 290.68 228.06C290.13 229.06 289.61 230.06 289.06 231.06C288.51 232.06 287.95 233.06 287.38 234.01C286.81 234.96 286.22 235.95 285.63 236.91C285.04 237.87 284.43 238.83 283.81 239.78C283.19 240.73 282.57 241.67 281.93 242.6C281.29 243.53 280.64 244.46 279.98 245.38C279.32 246.3 278.66 247.22 277.98 248.12C277.3 249.02 276.61 249.92 275.91 250.81C275.21 251.7 274.5 252.58 273.78 253.45C273.06 254.32 272.33 255.19 271.59 256.05C270.85 256.91 270.11 257.75 269.35 258.59C268.59 259.43 267.82 260.26 267.05 261.08C266.28 261.9 265.48 262.72 264.69 263.52C263.9 264.32 263.09 265.12 262.28 265.9C261.47 266.68 260.64 267.47 259.81 268.24C258.98 269.01 258.14 269.76 257.29 270.51C256.44 271.26 255.59 272 254.72 272.73C253.85 273.46 252.99 274.17 252.11 274.88C251.23 275.59 250.34 276.29 249.44 276.98C248.54 277.67 247.64 278.35 246.73 278.98C245.82 279.61 244.9 280.31 243.97 280.98C243.04 281.65 242.11 282.27 241.17 282.9C240.23 283.53 239.28 284.14 238.32 284.75C237.36 285.36 236.41 285.95 235.44 286.53C234.47 287.11 233.49 287.69 232.51 288.25C231.53 288.81 230.51 289.36 229.51 289.9C228.51 290.44 227.51 290.97 226.51 291.48C225.51 291.99 224.51 292.48 223.51 293C222.51 293.52 221.51 294 220.44 294.45C219.37 294.9 218.38 295.38 217.34 295.83C216.3 296.28 215.26 296.71 214.21 297.13C213.16 297.55 212.11 297.97 211.05 298.37C209.99 298.77 208.93 299.16 207.87 299.53C206.81 299.9 205.73 300.27 204.66 300.63C203.59 300.99 202.5 301.32 201.42 301.63C200.34 301.94 199.25 302.28 198.16 302.58C197.07 302.88 195.98 303.17 194.88 303.45C193.78 303.73 192.69 304 191.59 304.25C190.49 304.5 189.38 304.74 188.27 304.97C187.16 305.2 186.05 305.42 184.94 305.62C183.83 305.82 182.71 306.01 181.6 306.19C180.49 306.37 179.36 306.54 178.24 306.69C177.12 306.84 176 306.98 174.87 307.11C173.74 307.24 172.63 307.35 171.5 307.45C170.37 307.55 169.25 307.65 168.12 307.72C166.99 307.79 165.86 307.86 164.73 307.91C163.6 307.96 162.47 308 161.34 308.03C160.21 308.06 159.08 308.03 157.95 308.03C156.82 308.03 155.68 308.03 154.55 308.03C153.42 308.03 152.29 307.97 151.16 307.91C150.03 307.85 148.9 307.8 147.78 307.72C146.66 307.64 145.52 307.56 144.39 307.45C143.26 307.34 142.14 307.24 141.02 307.11C139.9 306.98 138.77 306.84 137.65 306.69C136.53 306.54 135.41 306.37 134.3 306.19C133.19 306.01 132.06 305.82 130.95 305.62C129.84 305.42 128.73 305.2 127.62 304.97C126.51 304.74 125.41 304.5 124.31 304.25C123.21 304 122.11 303.73 121.01 303.45C119.91 303.17 118.82 302.88 117.73 302.58C116.64 302.28 115.56 301.96 114.47 301.63C113.38 301.3 112.31 300.97 111.24 300.63C110.17 300.29 109.09 299.91 108.02 299.53C106.95 299.15 105.9 298.77 104.84 298.37C103.78 297.97 102.73 297.56 101.68 297.13C100.63 296.7 99.5901 296.27 98.5501 295.83C97.5101 295.39 96.48 294.92 95.4501 294.45C94.4201 293.98 93.4501 293.5 92.3801 293C91.3101 292.5 90.3801 292 89.3801 291.48C88.3801 290.96 87.3801 290.48 86.3801 289.9C85.3801 289.32 84.3801 288.81 83.3801 288.25C82.3801 287.69 81.3801 287.11 80.4601 286.53C79.5401 285.95 78.5201 285.35 77.5701 284.75C76.6201 284.15 75.6701 283.52 74.7301 282.9C73.7901 282.28 72.8501 281.63 71.9201 280.98C70.9901 280.33 70.0801 279.68 69.1601 278.98C68.2401 278.28 67.3501 277.63 66.4501 276.98C65.5501 276.33 64.6701 275.59 63.7901 274.88C62.9101 274.17 62.0301 273.46 61.1701 272.73C60.3101 272 59.4501 271.26 58.6001 270.51C57.7501 269.76 56.9101 269 56.0801 268.24C55.2501 267.48 54.4301 266.69 53.6201 265.91C52.8101 265.13 52.0001 264.32 51.2001 263.52C50.4001 262.72 49.6201 261.9 48.8501 261.08C48.0801 260.26 47.3001 259.43 46.5401 258.59C45.7801 257.75 45.0401 256.9 44.3001 256.05C43.5601 255.2 42.8301 254.32 42.1101 253.45C41.3901 252.58 40.6801 251.7 39.9801 250.81C39.2801 249.92 38.5901 249.02 37.9101 248.12C37.2301 247.22 36.5701 246.3 35.9101 245.38C35.2501 244.46 34.6001 243.54 33.9101 242.6C33.2201 241.66 32.6501 240.73 32.0301 239.78C31.4101 238.83 30.8101 237.88 30.2201 236.92C29.6301 235.96 29.1001 235 28.5301 234C27.9601 233 27.3901 232 26.8401 231.06C26.2901 230.12 25.7501 229.06 25.2201 228.06C24.6901 227.06 24.2201 226.06 23.6701 225.06C23.1201 224.06 22.6701 223.06 22.1901 222C21.7101 220.94 21.1901 219.95 20.7801 218.92C20.3701 217.89 19.8701 216.85 19.4301 215.8C18.9901 214.75 18.5701 213.71 18.1601 212.66C17.7501 211.61 17.3501 210.55 16.9601 209.48C16.5701 208.41 16.2001 207.36 15.8301 206.29C15.4601 205.22 15.1201 204.14 14.7801 203.06C14.4401 201.98 14.1101 200.9 13.7801 199.81C13.4501 198.72 13.1601 197.64 12.8701 196.55C12.5801 195.46 12.3001 194.36 12.0301 193.26C11.7601 192.16 11.5101 191.06 11.2701 189.95C11.0301 188.84 10.8001 187.74 10.5901 186.63C10.3801 185.52 10.1701 184.41 9.98006 183.29C9.79006 182.17 9.61006 181.06 9.44006 179.94C9.27006 178.82 9.12006 177.7 8.98006 176.58C8.84006 175.46 8.72006 174.33 8.60006 173.21C8.48006 172.09 8.38006 170.96 8.29006 169.83C8.20006 168.7 8.13006 167.57 8.06006 166.44C7.99006 165.31 7.95006 164.19 7.91006 163.05C7.87006 161.91 7.85006 160.79 7.83006 159.66C7.81006 158.53 7.83006 157.4 7.83006 156.27C7.83006 155.14 7.83006 154.01 7.91006 152.88C7.99006 151.75 8.00006 150.62 8.06006 149.49C8.12006 148.36 8.21006 147.23 8.29006 146.1C8.37006 144.97 8.49006 143.85 8.60006 142.73C8.71006 141.61 8.84006 140.48 8.98006 139.35C9.12006 138.22 9.28006 137.11 9.44006 135.99C9.60006 134.87 9.79006 133.76 9.98006 132.64C10.1701 131.52 10.3701 130.42 10.5901 129.31C10.8101 128.2 11.0301 127.09 11.2701 125.98C11.5101 124.87 11.7701 123.78 12.0301 122.68C12.2901 121.58 12.5801 120.48 12.8701 119.39C13.1601 118.3 13.4601 117.21 13.7801 116.12C14.1001 115.03 14.4201 113.95 14.7801 112.87C15.1401 111.79 15.4701 110.72 15.8301 109.65C16.1901 108.58 16.5701 107.51 16.9601 106.45C17.3501 105.39 17.7501 104.33 18.1601 103.28C18.5701 102.23 19.0001 101.17 19.4301 100.13C19.8601 99.09 20.3201 98.05 20.7801 97.01C21.2401 95.97 21.7101 94.95 22.1901 93.93C22.6701 92.91 23.1901 91.93 23.6701 90.88C24.1501 89.83 24.6701 88.88 25.2201 87.88C25.7701 86.88 26.2901 85.88 26.8401 84.88C27.3901 83.88 27.9501 82.88 28.5201 81.93C29.0901 80.98 29.6801 80 30.2801 79C30.8801 78 31.4801 77.08 32.0901 76.13C32.7001 75.18 33.3401 74.24 33.9701 73.31C34.6001 72.38 35.2601 71.45 35.9701 70.53C36.6801 69.61 37.3001 68.7 37.9701 67.79C38.6401 66.88 39.2901 66 40.0001 65.13C40.7101 64.26 41.4101 63.36 42.1301 62.49C42.8501 61.62 43.5801 60.75 44.3201 59.9C45.0601 59.05 45.8101 58.19 46.5601 57.35C47.3101 56.51 48.0901 55.68 48.8701 54.86C49.6501 54.04 50.4301 53.23 51.2201 52.42C52.0101 51.61 52.8201 50.82 53.6401 50.04C54.4601 49.26 55.2701 48.48 56.1001 47.71C56.9301 46.94 57.7701 46.18 58.6201 45.43C59.4701 44.68 60.3201 43.95 61.1901 43.22C62.0601 42.49 62.9201 41.77 63.8101 41.06C64.7001 40.35 65.5701 39.65 66.4701 38.96C67.3701 38.27 68.2701 37.59 69.1801 36.96L71.9401 34.96C72.8701 34.31 73.8001 33.67 74.7501 33.05C75.7001 32.43 76.6301 31.8 77.59 31.2C78.55 30.6 79.5001 30 80.4701 29.4C81.4401 28.8 82.41 28.25 83.3901 27.68C84.3701 27.11 85.3901 26.57 86.3901 26.03C87.3901 25.49 88.3901 24.97 89.3901 24.45C90.3901 23.93 91.3901 23.45 92.3901 22.93L95.4601 21.48C96.4601 21.01 97.5201 20.56 98.5601 20.11C99.6001 19.66 100.64 19.22 101.69 18.8C102.74 18.38 103.79 17.96 104.85 17.56C105.91 17.16 107 16.78 108 16.4C109 16.02 110.14 15.66 111.22 15.31C112.3 14.96 113.37 14.62 114.45 14.31C115.53 14 116.62 13.67 117.71 13.36C118.8 13.05 119.89 12.77 120.99 12.49C122.09 12.21 123.19 11.95 124.29 11.69C125.39 11.43 126.49 11.2 127.6 10.97C128.71 10.74 129.82 10.53 130.93 10.32C132.04 10.11 133.16 9.93 134.28 9.75C135.4 9.57 136.51 9.41 137.63 9.25C138.75 9.09 139.88 8.96 141 8.83C142.12 8.7 143.25 8.59 144.37 8.49C145.49 8.39 146.63 8.30001 147.76 8.22001C148.89 8.14001 150 8.06 151.17 8L154.56 7.88H157.96H161.35L164.74 8C165.87 8.05 167 8.11 168.13 8.19C169.26 8.27 170.38 8.36 171.51 8.46C172.64 8.56 173.76 8.68 174.88 8.8C176 8.92 177.13 9.07001 178.25 9.22001C179.37 9.37001 180.49 9.54 181.61 9.72001C182.73 9.90001 183.84 10.09 184.95 10.29C186.06 10.49 187.17 10.71 188.28 10.94C189.39 11.17 190.49 11.41 191.6 11.66C192.71 11.91 193.8 12.18 194.89 12.46C195.98 12.74 197.08 13.03 198.17 13.33C199.26 13.63 200.35 13.95 201.43 14.28C202.51 14.61 203.59 14.95 204.67 15.28C205.75 15.61 206.81 15.99 207.88 16.37C208.95 16.75 210.01 17.13 211.07 17.53C212.13 17.93 213.18 18.35 214.22 18.77C215.26 19.19 216.32 19.63 217.36 20.08C218.4 20.53 219.43 20.99 220.46 21.46C221.49 21.93 222.46 22.46 223.52 22.9C224.58 23.34 225.52 23.9 226.52 24.42C227.52 24.94 228.52 25.42 229.52 26C230.52 26.58 231.52 27.09 232.52 27.66C233.52 28.23 234.52 28.79 235.45 29.37C236.38 29.95 237.38 30.55 238.33 31.16C239.28 31.77 240.24 32.38 241.18 33.01C242.12 33.64 243.05 34.3 244 35C244.95 35.7 245.85 36.31 246.76 37C247.67 37.69 248.57 38.34 249.47 39C250.37 39.66 251.26 40.39 252.14 41.1C253.02 41.81 253.89 42.53 254.76 43.26C255.63 43.99 256.48 44.73 257.32 45.48C258.16 46.23 259.01 46.98 259.84 47.75C260.67 48.52 261.49 49.29 262.31 50.08C263.13 50.87 263.93 51.66 264.72 52.46C265.51 53.26 266.3 54.08 267.08 54.9C267.86 55.72 268.62 56.56 269.38 57.4C270.14 58.24 270.89 59.08 271.63 59.94C272.37 60.8 273.09 61.66 273.81 62.53C274.53 63.4 275.24 64.29 275.94 65.18C276.64 66.07 277.33 66.96 278.01 67.86C278.69 68.76 279.36 69.68 280.01 70.6C280.66 71.52 281.31 72.45 281.95 73.38C282.59 74.31 283.21 75.26 283.83 76.2C284.45 77.14 285 78.07 285.64 79C286.28 79.93 286.82 80.93 287.39 81.91C287.96 82.89 288.52 83.91 289.07 84.85C289.62 85.79 290.16 86.85 290.69 87.85C291.22 88.85 291.74 89.85 292.24 90.85C292.74 91.85 293.24 92.85 293.72 93.9C294.2 94.95 294.72 95.9 295.14 96.99C295.56 98.08 296.04 99.06 296.48 100.1C296.92 101.14 297.34 102.19 297.75 103.25C298.16 104.31 298.56 105.36 298.95 106.42C299.34 107.48 299.71 108.55 300.08 109.62C300.45 110.69 300.79 111.77 301.13 112.84C301.47 113.91 301.8 115.01 302.13 116.09C302.46 117.17 302.74 118.27 303.04 119.36C303.34 120.45 303.6 121.55 303.87 122.65C304.14 123.75 304.39 124.85 304.63 125.96C304.87 127.07 305.1 128.17 305.32 129.28C305.54 130.39 305.74 131.5 305.93 132.62C306.12 133.74 306.3 134.85 306.46 135.97C306.62 137.09 306.78 138.21 306.92 139.33C307.06 140.45 307.19 141.57 307.3 142.7C307.41 143.83 307.52 144.95 307.61 146.08C307.7 147.21 307.77 148.33 307.84 149.46C307.91 150.59 307.95 151.72 307.99 152.85C308.03 153.98 308 155.14 308.06 156.27Z" fill="white"/>
<path d="M158 308.33C156.86 308.33 155.73 308.33 154.6 308.33C153.47 308.33 152.33 308.27 151.2 308.21C150.07 308.15 148.94 308.1 147.81 308.02C146.68 307.94 145.55 307.86 144.42 307.75C143.29 307.64 142.17 307.54 141.04 307.41C139.91 307.28 138.79 307.14 137.67 306.99C136.55 306.84 135.43 306.67 134.31 306.49C133.19 306.31 132.07 306.12 130.96 305.92C129.85 305.72 128.73 305.5 127.62 305.27C126.51 305.04 125.41 304.8 124.3 304.54C123.19 304.28 122.1 304.02 121 303.75C119.9 303.48 118.81 303.17 117.71 302.87C116.61 302.57 115.53 302.25 114.45 301.92C113.37 301.59 112.29 301.26 111.21 300.92C110.13 300.58 109.06 300.21 107.99 299.83C106.92 299.45 105.86 299.06 104.8 298.66C103.74 298.26 102.69 297.85 101.64 297.43C100.59 297.01 99.5401 296.56 98.5001 296.11C97.4601 295.66 96.4201 295.21 95.3901 294.74L92.3201 293.29C91.3201 292.79 90.3201 292.29 89.3201 291.77C88.3201 291.25 87.3201 290.77 86.3201 290.18C85.3201 289.59 84.3201 289.09 83.3201 288.53C82.3201 287.97 81.3201 287.39 80.3901 286.8C79.4601 286.21 78.4501 285.62 77.5001 285.02C76.5501 284.42 75.5901 283.79 74.6501 283.17C73.7101 282.55 72.7701 281.9 71.84 281.25C70.91 280.6 69.9901 279.94 69.0801 279.25C68.1701 278.56 67.2601 277.9 66.3601 277.25C65.4601 276.6 64.5701 275.86 63.6901 275.15C62.8101 274.44 61.9301 273.72 61.0701 272.99C60.2101 272.26 59.3401 271.52 58.4901 270.77C57.6401 270.02 56.8001 269.26 55.9701 268.49C55.1401 267.72 54.3201 266.94 53.5001 266.16C52.6801 265.38 51.8801 264.57 51.0901 263.77C50.3001 262.97 49.5001 262.15 48.7201 261.32C47.9401 260.49 47.1801 259.67 46.4201 258.83C45.6601 257.99 44.9101 257.14 44.1701 256.28C43.4301 255.42 42.7001 254.55 41.9801 253.68C41.2601 252.81 40.5001 251.84 39.8001 251C39.1001 250.16 38.4001 249.22 37.7201 248.31C37.0401 247.4 36.3701 246.49 35.7201 245.57C35.0701 244.65 34.4101 243.72 33.7701 242.79C33.1301 241.86 32.5001 240.91 31.8801 239.96C31.2601 239.01 30.6601 238 30.0601 237C29.4601 236 28.8801 235.06 28.3101 234.09C27.7401 233.12 27.1701 232.09 26.6201 231.14C26.0701 230.19 25.5301 229.14 25.0001 228.14C24.4701 227.14 23.9501 226.14 23.4501 225.14C22.9501 224.14 22.4501 223.14 21.9601 222.08C21.4701 221.02 21.0001 220.06 20.5501 219C20.1001 217.94 19.6401 216.92 19.2001 215.88C18.7601 214.84 18.3401 213.78 17.9301 212.73C17.5201 211.68 17.1201 210.61 16.7301 209.55C16.3401 208.49 15.9601 207.42 15.6001 206.35C15.2401 205.28 14.8801 204.2 14.5401 203.12C14.2001 202.04 13.8701 200.95 13.5401 199.86C13.2101 198.77 12.9201 197.69 12.6201 196.59C12.3201 195.49 12.0601 194.4 11.7901 193.3C11.5201 192.2 11.2701 191.09 11.0301 189.98C10.7901 188.87 10.5601 187.77 10.3401 186.66C10.1201 185.55 9.92006 184.43 9.73006 183.31C9.54006 182.19 9.36006 181.08 9.19006 179.96C9.02006 178.84 8.88006 177.71 8.74006 176.59C8.60006 175.47 8.47006 174.34 8.35006 173.21C8.23006 172.08 8.13006 170.96 8.05006 169.83C7.97006 168.7 7.88006 167.57 7.81006 166.44C7.74006 165.31 7.70006 164.18 7.66006 163.04C7.62006 161.9 7.60006 160.78 7.58006 159.65C7.56006 158.52 7.58006 157.38 7.58006 156.25C7.58006 155.12 7.58006 153.98 7.66006 152.85C7.74006 151.72 7.75006 150.59 7.81006 149.46C7.87006 148.33 7.96006 147.19 8.05006 146.07C8.14006 144.95 8.24006 143.81 8.35006 142.68C8.46006 141.55 8.59006 140.43 8.74006 139.3C8.89006 138.17 9.03006 137.06 9.19006 135.94C9.35006 134.82 9.54006 133.7 9.73006 132.58C9.92006 131.46 10.1301 130.35 10.3401 129.24C10.5501 128.13 10.7901 127.02 11.0301 125.91C11.2701 124.8 11.5201 123.7 11.7901 122.6C12.0601 121.5 12.3301 120.4 12.6201 119.3C12.9101 118.2 13.2201 117.12 13.5401 116.03C13.8601 114.94 14.1801 113.86 14.5401 112.78C14.9001 111.7 15.2301 110.62 15.6001 109.55C15.9701 108.48 16.3401 107.41 16.7301 106.34C17.1201 105.27 17.5201 104.22 17.9301 103.16C18.3401 102.1 18.7701 101.06 19.2001 100.01C19.6301 98.96 20.0901 97.93 20.5501 96.89C21.0101 95.85 21.4801 94.83 21.9601 93.8C22.4401 92.77 22.9601 91.8 23.4501 90.8C23.9401 89.8 24.4501 88.8 25.0001 87.8C25.5501 86.8 26.0701 85.8 26.6201 84.8C27.1701 83.8 27.7401 82.8 28.3101 81.8C28.8801 80.8 29.4701 79.8 30.0601 78.89C30.6501 77.98 31.2701 77 31.8801 76C32.4901 75 33.1301 74.1 33.7701 73.17C34.4101 72.24 35.0501 71.3 35.7101 70.38C36.3701 69.46 37.0401 68.55 37.7101 67.64C38.3801 66.73 39.1001 65.87 39.8001 65C40.5001 64.13 41.2101 63.23 41.9301 62.35C42.6501 61.47 43.3801 60.61 44.1201 59.75C44.8601 58.89 45.6101 58.05 46.3701 57.21C47.1301 56.37 47.9001 55.53 48.6701 54.71C49.4401 53.89 50.2401 53.07 51.0401 52.27C51.8401 51.47 52.6401 50.67 53.4501 49.88C54.2601 49.09 55.0901 48.31 55.9201 47.54C56.7501 46.77 57.5901 46.02 58.4401 45.27C59.2901 44.52 60.1501 43.76 61.0001 43C61.8501 42.24 62.7401 41.55 63.6201 40.83C64.5001 40.11 65.3901 39.42 66.2901 38.73C67.1901 38.04 68.0901 37.36 69.0101 36.73C69.9301 36.1 70.84 35.4 71.7701 34.73C72.7001 34.06 73.6301 33.45 74.5801 32.82C75.5301 32.19 76.4701 31.57 77.4301 30.97C78.3901 30.37 79.3501 29.76 80.3201 29.18C81.2901 28.6 82.2601 28.02 83.2501 27.46C84.2401 26.9 85.2501 26.34 86.2501 25.8C87.2501 25.26 88.2501 24.73 89.2501 24.22C90.2501 23.71 91.2501 23.22 92.2501 22.7C93.2501 22.18 94.2501 21.7 95.3201 21.25C96.3901 20.8 97.3901 20.32 98.4301 19.87C99.4701 19.42 100.51 18.98 101.56 18.56C102.61 18.14 103.67 17.72 104.73 17.32C105.79 16.92 106.85 16.53 107.92 16.15C108.99 15.77 110.06 15.41 111.14 15.06L114.38 14.06C115.46 13.73 116.55 13.42 117.64 13.06C118.73 12.7 119.83 12.47 120.93 12.19C122.03 11.91 123.13 11.64 124.23 11.39C125.33 11.14 126.44 10.89 127.55 10.67C128.66 10.45 129.77 10.22 130.89 10.02C132.01 9.82002 133.12 9.62002 134.24 9.44002C135.36 9.26002 136.48 9.10002 137.6 8.95002C138.72 8.80002 139.85 8.65002 140.97 8.52002C142.09 8.39002 143.22 8.28002 144.35 8.18002C145.48 8.08002 146.64 8.00002 147.77 8.00002C148.9 8.00002 150.03 7.86002 151.16 7.81002C152.29 7.76002 153.43 7.72002 154.56 7.69002C156.82 7.63669 159.087 7.63669 161.36 7.69002L164.75 7.81002C165.88 7.81002 167.01 7.92002 168.14 8.00002C169.27 8.08002 170.4 8.17002 171.53 8.27002C172.66 8.37002 173.79 8.49002 174.91 8.61002C176.03 8.73002 177.16 8.88002 178.29 9.04002C179.42 9.20002 180.53 9.35002 181.65 9.53002C182.77 9.71002 183.88 9.90002 185 10.11C186.12 10.32 187.22 10.53 188.33 10.76C189.44 10.99 190.55 11.23 191.65 11.48C192.75 11.73 193.86 12 194.96 12.28C196.06 12.56 197.15 12.85 198.24 13.15C199.33 13.45 200.42 13.77 201.5 14.15C202.58 14.53 203.67 14.82 204.74 15.15C205.81 15.48 206.89 15.87 207.96 16.24C209.03 16.61 210.09 17.01 211.15 17.41C212.21 17.81 213.27 18.22 214.32 18.65C215.37 19.08 216.41 19.51 217.45 19.96C218.49 20.41 219.53 20.87 220.56 21.34C221.59 21.81 222.61 22.29 223.63 22.79C224.65 23.29 225.63 23.79 226.63 24.31C227.63 24.83 228.63 25.31 229.63 25.89C230.63 26.47 231.63 26.99 232.63 27.55C233.63 28.11 234.63 28.69 235.56 29.27C236.49 29.85 237.49 30.45 238.45 31.06C239.41 31.67 240.35 32.28 241.3 32.91C242.25 33.54 243.18 34.18 244.1 34.82C245.02 35.46 245.95 36.13 246.87 36.82C247.79 37.51 248.69 38.17 249.58 38.82C250.47 39.47 251.37 40.22 252.25 40.93C253.13 41.64 254 42.3 254.9 43C255.8 43.7 256.62 44.47 257.47 45.22C258.32 45.97 259.16 46.73 259.99 47.5C260.82 48.27 261.65 49.04 262.46 49.83C263.27 50.62 264.08 51.41 264.88 52.22C265.68 53.03 266.46 53.84 267.24 54.66C268.02 55.48 268.79 56.32 269.55 57.16C270.31 58 271.06 58.85 271.79 59.71C272.52 60.57 273.26 61.43 273.99 62.3C274.72 63.17 275.42 64.06 276.12 64.95C276.82 65.84 277.51 66.74 278.19 67.64C278.87 68.54 279.54 69.46 280.19 70.39C280.84 71.32 281.5 72.23 282.14 73.17C282.78 74.11 283.41 75.08 284 76C284.59 76.92 285.22 77.9 285.82 78.87C286.42 79.84 287 80.8 287.57 81.78C288.14 82.76 288.71 83.78 289.26 84.78C289.81 85.78 290.35 86.78 290.88 87.78C291.41 88.78 291.88 89.78 292.44 90.78C293 91.78 293.44 92.78 293.92 93.84C294.4 94.9 294.87 95.84 295.34 96.93C295.81 98.02 296.24 99 296.68 100.05C297.12 101.1 297.54 102.14 297.95 103.2C298.36 104.26 298.77 105.31 299.15 106.37C299.53 107.43 299.92 108.51 300.28 109.58C300.64 110.65 301 111.73 301.34 112.81C301.68 113.89 302.01 114.98 302.34 116.06C302.67 117.14 302.96 118.24 303.25 119.34C303.54 120.44 303.82 121.53 304.08 122.63C304.34 123.73 304.6 124.84 304.84 125.94C305.08 127.04 305.32 128.16 305.53 129.27C305.74 130.38 305.95 131.5 306.14 132.61C306.33 133.72 306.51 134.85 306.68 135.97C306.85 137.09 307 138.21 307.14 139.34C307.28 140.47 307.4 141.59 307.52 142.71C307.64 143.83 307.74 144.97 307.83 146.1C307.92 147.23 307.99 148.36 308.06 149.49C308.13 150.62 308.17 151.75 308.21 152.88C308.25 154.01 308.27 155.15 308.29 156.28C308.31 157.41 308.29 158.54 308.29 159.68C308.29 160.82 308.29 161.94 308.21 163.07C308.13 164.2 308.12 165.34 308.06 166.47C308 167.6 307.92 168.73 307.83 169.86C307.74 170.99 307.64 172.12 307.52 173.24C307.4 174.36 307.28 175.5 307.14 176.62C307 177.74 306.84 178.87 306.68 179.99C306.52 181.11 306.33 182.23 306.14 183.34C305.95 184.45 305.75 185.57 305.53 186.69C305.31 187.81 305.09 188.91 304.84 190.01C304.59 191.11 304.35 192.22 304.08 193.33C303.81 194.44 303.54 195.52 303.25 196.62C302.96 197.72 302.65 198.81 302.34 199.89C302.03 200.97 301.69 202.07 301.34 203.15C300.99 204.23 300.65 205.3 300.28 206.38C299.91 207.46 299.54 208.52 299.15 209.58C298.76 210.64 298.36 211.7 297.95 212.76C297.54 213.82 297.11 214.86 296.68 215.91C296.25 216.96 295.79 218 295.33 219.03C294.87 220.06 294.4 221.1 293.92 222.12C293.44 223.14 292.92 224.12 292.43 225.18C291.94 226.24 291.43 227.18 290.88 228.18C290.33 229.18 289.81 230.18 289.26 231.18C288.71 232.18 288.15 233.18 287.57 234.13C286.99 235.08 286.41 236.07 285.82 237.04C285.23 238.01 284.62 238.96 284 239.91C283.38 240.86 282.75 241.8 282.11 242.73C281.47 243.66 280.83 244.6 280.17 245.52C279.51 246.44 278.84 247.35 278.17 248.26C277.5 249.17 276.8 250.06 276.1 250.95C275.4 251.84 274.69 252.73 273.96 253.6C273.23 254.47 272.51 255.34 271.77 256.2C271.03 257.06 270.28 257.91 269.52 258.75C268.76 259.59 268 260.42 267.22 261.24C266.44 262.06 265.65 262.88 264.86 263.69C264.07 264.5 263.25 265.29 262.44 266.07C261.63 266.85 260.8 267.64 259.97 268.41C259.14 269.18 258.3 269.94 257.45 270.69C256.6 271.44 255.74 272.18 254.88 272.91C254.02 273.64 253.14 274.36 252.25 275.07C251.36 275.78 250.48 276.48 249.58 277.17C248.68 277.86 247.78 278.54 246.86 279.17C245.94 279.8 245.03 280.5 244.1 281.17C243.17 281.84 242.24 282.46 241.3 283.09L238.47 285C237.47 285.6 236.55 286.2 235.58 286.78C234.61 287.36 233.58 287.94 232.65 288.51L229.65 290.16C228.65 290.7 227.65 291.23 226.65 291.75C225.65 292.27 224.65 292.75 223.65 293.27L220.58 294.72C219.58 295.19 218.51 295.65 217.47 296.09C216.43 296.53 215.39 296.98 214.34 297.4C213.29 297.82 212.23 298.24 211.17 298.64C210.11 299.04 209.05 299.43 207.98 299.81C206.91 300.19 205.84 300.55 204.76 300.9C203.68 301.25 202.61 301.6 201.52 301.9C200.43 302.2 199.35 302.55 198.26 302.85C197.17 303.15 196.07 303.45 194.97 303.73C193.87 304.01 192.77 304.27 191.67 304.52C190.57 304.77 189.46 305.02 188.35 305.25C187.24 305.48 186.13 305.69 185.02 305.9L181.67 306.47C180.55 306.65 179.43 306.81 178.3 306.97C177.17 307.13 176.06 307.26 174.93 307.39C173.8 307.52 172.68 307.63 171.55 307.73C170.42 307.83 169.29 307.93 168.16 308C167.03 308.07 165.9 308.14 164.77 308.19C163.64 308.24 162.51 308.28 161.37 308.31C160.23 308.34 159.09 308.33 158 308.33ZM158 8.11002C156.873 8.11002 155.743 8.11002 154.61 8.11002L151.22 8.23002C150.1 8.28002 148.97 8.34002 147.84 8.42002C146.71 8.50002 145.59 8.59002 144.47 8.69002C143.35 8.79002 142.22 8.90002 141.1 9.03002C139.98 9.16002 138.85 9.30002 137.74 9.45002C136.63 9.60002 135.5 9.77002 134.39 9.95002C133.28 10.13 132.16 10.32 131.05 10.52C129.94 10.72 128.83 10.94 127.72 11.17C126.61 11.4 125.51 11.63 124.41 11.89C123.31 12.15 122.22 12.41 121.12 12.68C120.02 12.95 118.94 13.25 117.85 13.55C116.76 13.85 115.68 14.17 114.6 14.5C113.52 14.83 112.44 15.16 111.36 15.5C110.28 15.84 109.22 16.21 108.16 16.59C107.1 16.97 106.03 17.35 104.98 17.75C103.93 18.15 102.87 18.56 101.82 18.98C100.77 19.4 99.73 19.84 98.7001 20.29C97.6701 20.74 96.6301 21.19 95.6001 21.66C94.5701 22.13 93.6001 22.61 92.5401 23.11C91.4801 23.61 90.5401 24.11 89.5401 24.62C88.5401 25.13 87.5401 25.62 86.5401 26.2C85.5401 26.78 84.5401 27.29 83.5401 27.85C82.5401 28.41 81.5401 28.98 80.6201 29.57C79.7001 30.16 78.7001 30.74 77.7401 31.35C76.7801 31.96 75.8401 32.57 74.9001 33.19C73.9601 33.81 73.0001 34.51 72.0801 35.15C71.1601 35.79 70.2301 36.46 69.3201 37.15C68.4101 37.84 67.5101 38.49 66.6101 39.15L64.0001 41.25C63.1201 41.9567 62.2501 42.6767 61.3901 43.41C60.5301 44.14 59.6701 44.87 58.8201 45.62L56.3101 47.89C55.4801 48.66 54.6601 49.43 53.8501 50.22C53.0401 51.01 52.2301 51.8 51.4401 52.6C50.6501 53.4 49.8101 54.21 49.0001 55C48.1901 55.79 47.4601 56.65 46.7001 57.49C45.9401 58.33 45.1901 59.18 44.4601 60.03C43.7301 60.88 43.0001 61.78 42.3101 62.65C41.6201 63.52 40.8901 64.4 40.1901 65.29C39.4901 66.18 38.8001 67.07 38.1201 68L36.1201 70.73C35.4601 71.65 34.8201 72.58 34.1801 73.51C33.5401 74.44 32.9201 75.38 32.3001 76.33C31.6801 77.28 31.0801 78.23 30.4901 79.19C29.9001 80.15 29.3101 81.12 28.7401 82.09C28.1701 83.06 27.6101 84 27.0601 85C26.5101 86 26.0001 87 25.4401 88C24.8801 89 24.4401 90 23.8901 91C23.3401 92 22.8901 93 22.4201 94.05C21.9501 95.1 21.4201 96.05 21.0001 97.13C20.5801 98.21 20.1001 99.19 19.6701 100.24C19.2401 101.29 18.8101 102.33 18.4001 103.38C17.9901 104.43 17.5801 105.48 17.2001 106.54C16.8201 107.6 16.4301 108.67 16.0701 109.74C15.7101 110.81 15.3601 111.87 15.0001 113C14.6401 114.13 14.3301 115.16 14.0001 116.24C13.6701 117.32 13.3801 118.41 13.0901 119.5C12.8001 120.59 12.5201 121.69 12.2501 122.79C11.9801 123.89 11.7401 124.98 11.5001 126.09C11.2601 127.2 11.0301 128.3 10.8101 129.4C10.5901 130.5 10.3901 131.62 10.2001 132.73C10.0101 133.84 9.83006 134.96 9.67006 136.08C9.51006 137.2 9.35006 138.32 9.21006 139.44C9.07006 140.56 8.94006 141.68 8.83006 142.8C8.72006 143.92 8.61006 145.05 8.52006 146.17C8.43006 147.29 8.36006 148.43 8.29006 149.55C8.22006 150.67 8.18006 151.81 8.14006 152.94C8.10006 154.07 8.08006 155.19 8.06006 156.32C8.04006 157.45 8.06006 158.58 8.06006 159.71C8.06006 160.84 8.06006 161.97 8.14006 163.1C8.22006 164.23 8.23006 165.35 8.29006 166.48C8.35006 167.61 8.43006 168.73 8.52006 169.86C8.61006 170.99 8.71006 172.11 8.83006 173.23C8.95006 174.35 9.07006 175.48 9.21006 176.6C9.35006 177.72 9.50006 178.84 9.67006 179.95C9.84006 181.06 10.0101 182.19 10.2001 183.3C10.3901 184.41 10.6001 185.52 10.8101 186.63C11.0201 187.74 11.2601 188.84 11.5001 189.95C11.7401 191.06 11.9901 192.15 12.2601 193.25C12.5301 194.35 12.8001 195.44 13.0901 196.53C13.3801 197.62 13.6801 198.71 14.0001 199.79C14.3201 200.87 14.6401 201.96 15.0001 203.04C15.3601 204.12 15.6901 205.19 16.0501 206.26C16.4101 207.33 16.7901 208.39 17.1801 209.45C17.5701 210.51 17.9601 211.57 18.3801 212.62C18.8001 213.67 19.2101 214.72 19.6501 215.76C20.0901 216.8 20.5301 217.84 20.9801 218.87C21.4301 219.9 21.9101 220.93 22.4001 221.95C22.8901 222.97 23.4001 223.95 23.8801 224.95C24.3601 225.95 24.8801 226.95 25.4201 227.95C25.9601 228.95 26.4901 229.95 27.0401 230.95C27.5901 231.95 28.1501 232.95 28.7201 233.89C29.2901 234.83 29.8801 235.83 30.4701 236.79C31.0601 237.75 31.6701 238.71 32.2801 239.65C32.8901 240.59 33.5201 241.54 34.1601 242.47C34.8001 243.4 35.4401 244.33 36.1001 245.25C36.7601 246.17 37.4301 247.08 38.1001 247.98C38.7701 248.88 39.4701 249.78 40.1701 250.67C40.8701 251.56 41.5701 252.43 42.2901 253.3C43.0101 254.17 43.7401 255.04 44.4801 255.89C45.2201 256.74 45.9601 257.59 46.7201 258.43C47.4801 259.27 48.2401 260.1 49.0201 260.92C49.8001 261.74 50.5801 262.55 51.3701 263.35C52.1601 264.15 52.9701 264.95 53.7801 265.74C54.5901 266.53 55.4101 267.3 56.2401 268.06C57.0701 268.82 57.9101 269.58 58.7501 270.33C59.5901 271.08 60.4601 271.82 61.3201 272.54C62.1801 273.26 63.0701 274 64.0001 274.68C64.9301 275.36 65.7701 276.09 66.6601 276.77C67.5501 277.45 68.4601 278.14 69.3701 278.77C70.2801 279.4 71.2001 280.09 72.1301 280.77C73.0601 281.45 73.98 282.05 74.9201 282.68C75.8601 283.31 76.8101 283.92 77.7601 284.52C78.7101 285.12 79.6801 285.72 80.6401 286.31C81.6001 286.9 82.6401 287.46 83.5701 288.02C84.5001 288.58 85.5701 289.13 86.5701 289.67C87.5701 290.21 88.5701 290.74 89.5701 291.25C90.5701 291.76 91.5701 292.25 92.5701 292.77C93.5701 293.29 94.5701 293.77 95.6301 294.21C96.69 294.65 97.6901 295.14 98.7301 295.59C99.7701 296.04 100.81 296.47 101.85 296.89C102.89 297.31 103.95 297.73 105.01 298.13C106.07 298.53 107.12 298.91 108.19 299.29C109.26 299.67 110.32 300.03 111.39 300.38C112.46 300.73 113.54 301.07 114.62 301.38C115.7 301.69 116.79 302.02 117.88 302.32L121.15 303.19C122.24 303.47 123.34 303.73 124.44 303.99C125.54 304.25 126.65 304.48 127.75 304.71C128.85 304.94 129.97 305.15 131.08 305.35C132.19 305.55 133.3 305.75 134.42 305.93C135.54 306.11 136.65 306.27 137.77 306.42C138.89 306.57 140.01 306.71 141.13 306.84C142.25 306.97 143.37 307.08 144.5 307.19C145.63 307.3 146.75 307.38 147.87 307.45C148.99 307.52 150.13 307.59 151.25 307.64C152.37 307.69 153.51 307.73 154.64 307.76C156.893 307.807 159.15 307.807 161.41 307.76C162.54 307.76 163.67 307.7 164.8 307.64C165.93 307.58 167.05 307.53 168.18 307.45C169.31 307.37 170.43 307.29 171.56 307.19C172.69 307.09 173.8 306.97 174.93 306.84C176.06 306.71 177.17 306.57 178.29 306.42C179.41 306.27 180.52 306.1 181.64 305.93C182.76 305.76 183.86 305.56 184.98 305.35C186.1 305.14 187.19 304.94 188.3 304.71C189.41 304.48 190.51 304.24 191.61 303.99C192.71 303.74 193.81 303.47 194.9 303.19C195.99 302.91 197.09 302.62 198.17 302.32C199.25 302.02 200.35 301.7 201.43 301.38C202.51 301.06 203.58 300.71 204.66 300.38C205.74 300.05 206.8 299.66 207.86 299.29C208.92 298.92 209.99 298.53 211.05 298.13C212.11 297.73 213.15 297.31 214.2 296.89C215.25 296.47 216.29 296.03 217.33 295.59L220.42 294.21C221.447 293.737 222.467 293.257 223.48 292.77C224.48 292.27 225.48 291.77 226.48 291.25C227.48 290.73 228.48 290.25 229.48 289.67C230.48 289.09 231.48 288.58 232.48 288.02C233.48 287.46 234.43 286.89 235.4 286.31C236.37 285.73 237.33 285.13 238.28 284.52C239.23 283.91 240.18 283.31 241.12 282.68C242.06 282.05 242.99 281.42 243.92 280.77L246.67 278.77C247.58 278.1 248.48 277.42 249.38 276.77C250.28 276.12 251.16 275.39 252.04 274.68C252.92 273.97 253.79 273.25 254.65 272.52C255.51 271.79 256.37 271.06 257.22 270.31C258.07 269.56 258.9 268.81 259.73 268.04C260.56 267.27 261.38 266.5 262.19 265.72C263 264.94 263.81 264.14 264.6 263.33C265.39 262.52 266.18 261.72 266.96 260.9C267.74 260.08 268.5 259.25 269.25 258.41C270 257.57 270.76 256.73 271.5 255.87C272.24 255.01 272.96 254.15 273.68 253.28C274.4 252.41 275.1 251.53 275.8 250.65C276.5 249.77 277.19 248.86 277.87 247.96C278.55 247.06 279.21 246.15 279.87 245.23C280.53 244.31 281.18 243.38 281.81 242.45C282.44 241.52 283.07 240.58 283.69 239.63C284.31 238.68 284.91 237.73 285.5 236.77C286.09 235.81 286.68 234.85 287.25 233.87C287.82 232.89 288.38 231.87 288.93 230.93C289.48 229.99 290.02 228.93 290.55 227.93C291.08 226.93 291.55 225.93 292.1 224.93C292.65 223.93 293.1 222.93 293.58 221.93C294.06 220.93 294.53 219.88 294.99 218.85C295.45 217.82 295.89 216.78 296.33 215.74C296.77 214.7 297.19 213.65 297.6 212.6C298.01 211.55 298.41 210.49 298.79 209.43C299.17 208.37 299.56 207.3 299.92 206.24C300.28 205.18 300.64 204.09 300.98 203.02C301.32 201.95 301.64 200.86 301.98 199.77C302.32 198.68 302.59 197.6 302.88 196.51C303.17 195.42 303.45 194.33 303.72 193.23C303.99 192.13 304.23 191.03 304.48 189.93C304.73 188.83 304.94 187.72 305.16 186.61C305.38 185.5 305.58 184.39 305.77 183.28C305.96 182.17 306.14 181.05 306.3 179.93C306.46 178.81 306.62 177.7 306.76 176.58C306.9 175.46 307.03 174.34 307.14 173.21C307.25 172.08 307.36 170.96 307.45 169.84C307.54 168.72 307.61 167.59 307.68 166.46C307.75 165.33 307.79 164.2 307.83 163.08C307.87 161.96 307.89 160.82 307.91 159.69C307.93 158.56 307.91 157.43 307.91 156.3C307.91 155.17 307.91 154.05 307.83 152.92C307.75 151.79 307.74 150.66 307.68 149.54C307.62 148.42 307.54 147.28 307.45 146.16C307.36 145.04 307.26 143.91 307.14 142.78C307.02 141.65 306.9 140.54 306.76 139.42C306.62 138.3 306.47 137.18 306.3 136.06C306.13 134.94 305.96 133.83 305.77 132.72C305.58 131.61 305.38 130.49 305.16 129.39C304.94 128.29 304.72 127.17 304.48 126.07C304.24 124.97 303.98 123.87 303.72 122.77C303.46 121.67 303.17 120.58 302.88 119.49C302.59 118.4 302.29 117.31 301.98 116.22C301.67 115.13 301.34 114.06 300.98 112.98C300.62 111.9 300.29 110.83 299.92 109.76C299.55 108.69 299.18 107.63 298.8 106.57C298.42 105.51 298.01 104.45 297.6 103.4C297.19 102.35 296.76 101.3 296.33 100.26C295.9 99.22 295.45 98.18 294.99 97.15C294.53 96.12 294 95.06 293.5 94C293 92.94 292.5 92 292.02 90.95C291.54 89.9 291.02 88.95 290.47 87.95C289.92 86.95 289.4 85.95 288.85 84.95C288.3 83.95 287.74 82.95 287.17 82.01C286.6 81.07 286.02 80.07 285.42 79.11C284.82 78.15 284.23 77.2 283.61 76.25C282.99 75.3 282.37 74.36 281.73 73.43C281.09 72.5 280.45 71.57 279.79 70.66C279.13 69.75 278.47 68.83 277.79 67.92C277.11 67.01 276.42 66.13 275.72 65.24C275.02 64.35 274.32 63.47 273.6 62.6C272.88 61.73 272.15 60.87 271.42 60.01C270.69 59.15 269.93 58.31 269.17 57.47C268.41 56.63 267.65 55.81 266.88 54.99C266.11 54.17 265.32 53.35 264.52 52.55C263.72 51.75 262.93 50.95 262.11 50.17C261.29 49.39 260.48 48.61 259.65 47.84L257.14 45.57C256.29 44.83 255.44 44.09 254.57 43.36C253.7 42.63 252.84 42 252 41.26C251.16 40.52 250.23 39.85 249.34 39.16C248.45 38.47 247.54 37.8 246.63 37.16C245.72 36.52 244.8 35.83 243.88 35.16C242.96 34.49 242 33.87 241 33.24C240 32.61 239.15 32 238.2 31.4C237.25 30.8 236.29 30.2 235.32 29.62C234.35 29.04 233.38 28.46 232.4 27.9C231.42 27.34 230.4 26.79 229.4 26.25L226.4 24.67C225.4 24.16 224.4 23.67 223.4 23.16C222.4 22.65 221.4 22.16 220.33 21.71C219.26 21.26 218.27 20.78 217.24 20.34C216.21 19.9 215.16 19.46 214.11 19.03C213.06 18.6 212 18.2 211 17.8C210 17.4 208.88 17.01 207.81 16.64C206.74 16.27 205.68 15.9 204.61 15.55C203.54 15.2 202.46 14.86 201.38 14.55C200.3 14.24 199.21 13.91 198.13 13.6C197.05 13.29 195.95 13.01 194.85 12.73C193.75 12.45 192.66 12.19 191.56 11.94C190.46 11.69 189.36 11.44 188.25 11.22C187.14 11 186.04 10.77 184.93 10.57C183.82 10.37 182.7 10.18 181.59 10C180.48 9.82002 179.35 9.65002 178.24 9.50002L174.88 9.08002C173.75 8.95002 172.63 8.84002 171.51 8.74002C170.39 8.64002 169.26 8.55002 168.13 8.47002C167 8.39002 165.88 8.33002 164.75 8.28002L161.36 8.16002C160.21 8.12002 159.09 8.11002 158 8.11002Z" fill="white"/>
<path d="M157.83 312.34C156.67 312.34 155.51 312.34 154.35 312.34C153.19 312.34 152.02 312.28 150.86 312.22C149.7 312.16 148.54 312.11 147.38 312.03C146.22 311.95 145.06 311.86 143.91 311.75C142.76 311.64 141.6 311.53 140.44 311.4C139.28 311.27 138.13 311.12 136.98 310.96C135.83 310.8 134.68 310.64 133.53 310.45C132.38 310.26 131.24 310.07 130.1 309.87C128.96 309.67 127.81 309.43 126.67 309.2C125.53 308.97 124.4 308.72 123.27 308.46C122.14 308.2 121.01 307.92 119.88 307.64C118.75 307.36 117.63 307.05 116.51 306.74C115.39 306.43 114.28 306.1 113.16 305.74C112.04 305.38 110.94 305.05 109.84 304.69C108.74 304.33 107.63 303.95 106.54 303.56C105.45 303.17 104.35 302.78 103.26 302.37C102.17 301.96 101.1 301.53 100.02 301.1C98.94 300.67 97.87 300.21 96.8 299.75C95.73 299.29 94.67 298.82 93.62 298.34C92.57 297.86 91.51 297.34 90.46 296.85C89.41 296.36 88.38 295.85 87.35 295.29C86.32 294.73 85.28 294.21 84.26 293.66C83.24 293.11 82.26 292.54 81.26 291.96C80.26 291.38 79.26 290.79 78.26 290.19C77.26 289.59 76.26 288.98 75.26 288.36C74.26 287.74 73.26 287.1 72.33 286.45C71.4 285.8 70.41 285.16 69.46 284.45C68.51 283.74 67.56 283.1 66.62 282.45C65.68 281.8 64.76 281.06 63.83 280.35C62.9 279.64 62 278.92 61.09 278.19C60.18 277.46 59.29 276.73 58.41 275.98C57.53 275.23 56.63 274.47 55.76 273.69C54.89 272.91 54.03 272.15 53.18 271.36C52.33 270.57 51.48 269.77 50.64 268.96C49.8 268.15 48.98 267.33 48.17 266.51C47.36 265.69 46.54 264.84 45.74 264C44.94 263.16 44.16 262.3 43.38 261.44C42.6 260.58 41.83 259.7 41.07 258.82C40.31 257.94 39.56 257.05 38.82 256.15C38.08 255.25 37.36 254.35 36.64 253.44C35.92 252.53 35.21 251.6 34.51 250.67C33.81 249.74 33.13 248.8 32.45 247.86C31.77 246.92 31.11 245.96 30.45 245C29.79 244.04 29.16 243.07 28.52 242.1C27.88 241.13 27.27 240.1 26.66 239.15C26.05 238.2 25.44 237.15 24.85 236.15C24.26 235.15 23.69 234.15 23.12 233.15C22.55 232.15 22 231.15 21.46 230.09C20.92 229.03 20.38 228 19.86 227C19.34 226 18.86 224.92 18.33 223.86C17.8 222.8 17.33 221.75 16.88 220.69C16.43 219.63 15.95 218.56 15.5 217.49C15.05 216.42 14.62 215.34 14.2 214.25C13.78 213.16 13.36 212 13 211C12.64 210 12.22 208.81 11.85 207.71C11.48 206.61 11.11 205.5 10.76 204.39C10.41 203.28 10.08 202.17 9.76004 201.05C9.44004 199.93 9.13004 198.82 8.83004 197.69C8.53004 196.56 8.24004 195.44 7.97004 194.31C7.70004 193.18 7.44004 192.05 7.19004 190.91C6.94004 189.77 6.71004 188.64 6.48004 187.49C6.25004 186.34 6.00004 185.16 5.81004 184C5.62004 182.84 5.43004 181.71 5.26004 180.56C5.09004 179.41 4.93004 178.25 4.79004 177.1C4.65004 175.95 4.51004 174.79 4.39004 173.63C4.27004 172.47 4.17004 171.32 4.08004 170.16C3.99004 169 3.91004 167.84 3.84004 166.68C3.77004 165.52 3.73004 164.36 3.69004 163.19C3.65004 162.02 3.62004 160.87 3.61004 159.71C3.60004 158.55 3.61004 157.38 3.61004 156.21C3.61004 155.04 3.61004 153.89 3.69004 152.73C3.77004 151.57 3.78004 150.4 3.84004 149.24C3.90004 148.08 3.99004 146.92 4.08004 145.76C4.17004 144.6 4.28004 143.44 4.39004 142.29C4.50004 141.14 4.64004 139.97 4.79004 138.82C4.94004 137.67 5.09004 136.51 5.26004 135.36C5.43004 134.21 5.61004 133.06 5.81004 131.92C6.01004 130.78 6.21004 129.63 6.43004 128.49C6.65004 127.35 6.89004 126.21 7.14004 125.07C7.39004 123.93 7.65004 122.8 7.92004 121.67C8.19004 120.54 8.48003 119.41 8.78004 118.29C9.08004 117.17 9.39004 116.04 9.71004 114.92C10.03 113.8 10.37 112.7 10.71 111.59C11.05 110.48 11.42 109.37 11.8 108.27C12.18 107.17 12.56 106.07 12.95 104.98C13.34 103.89 13.76 102.8 14.19 101.72C14.62 100.64 15.05 99.56 15.49 98.48C15.93 97.4 16.4 96.34 16.87 95.28C17.34 94.22 17.87 93.16 18.33 92.11C18.79 91.06 19.33 90.01 19.85 88.97C20.37 87.93 20.9 86.89 21.44 85.86C21.98 84.83 22.54 83.81 23.1 82.8C23.66 81.79 24.25 80.8 24.83 79.8C25.41 78.8 26.02 77.8 26.63 76.8C27.24 75.8 27.87 74.8 28.5 73.86C29.13 72.92 29.78 71.91 30.43 70.95C31.08 69.99 31.75 69.04 32.43 68.09C33.11 67.14 33.79 66.21 34.49 65.28C35.19 64.35 35.9 63.43 36.62 62.51C37.34 61.59 38.06 60.69 38.8 59.8C39.54 58.91 40.3 58 41.06 57.12C41.82 56.24 42.59 55.37 43.37 54.5C44.15 53.63 44.94 52.79 45.73 51.94C46.52 51.09 47.34 50.26 48.15 49.43C48.96 48.6 49.8 47.79 50.63 47C51.46 46.21 52.31 45.39 53.17 44.6C54.03 43.81 54.88 43.03 55.76 42.26C56.64 41.49 57.51 40.74 58.39 39.98C59.27 39.22 60.18 38.5 61.08 37.77C61.98 37.04 62.9 36.32 63.82 35.61C64.74 34.9 65.67 34.2 66.61 33.51C67.55 32.82 68.49 32.15 69.45 31.51C70.41 30.87 71.36 30.19 72.32 29.51C73.28 28.83 74.26 28.24 75.25 27.61C76.24 26.98 77.25 26.38 78.25 25.78C79.25 25.18 80.25 24.59 81.25 24.01C82.25 23.43 83.25 22.87 84.3 22.31C85.35 21.75 86.3 21.21 87.38 20.68C88.46 20.15 89.46 19.63 90.5 19.12C91.54 18.61 92.6 18.12 93.66 17.63C94.72 17.14 95.78 16.68 96.84 16.22C97.9 15.76 98.98 15.31 100.06 14.87C101.14 14.43 102.22 14.01 103.31 13.6C104.4 13.19 105.48 12.79 106.58 12.4C107.68 12.01 108.77 11.64 109.88 11.28C110.99 10.92 112.09 10.57 113.2 10.28C114.31 9.99001 115.43 9.62001 116.55 9.28001C117.67 8.94001 118.79 8.67001 119.92 8.38001C121.05 8.09001 122.18 7.82001 123.31 7.56001C124.44 7.30001 125.58 7.06001 126.72 6.82001C127.86 6.58001 128.99 6.36001 130.14 6.15001C131.29 5.94001 132.43 5.75001 133.57 5.57001C134.71 5.39001 135.87 5.21001 137.02 5.05001C138.17 4.89001 139.33 4.75001 140.48 4.62001C141.63 4.49001 142.79 4.37001 143.95 4.27001C145.11 4.17001 146.26 4.07001 147.42 3.99001C148.58 3.91001 149.74 3.85001 150.9 3.79001C152.06 3.73001 153.23 3.70001 154.39 3.68001C156.71 3.62668 159.043 3.62668 161.39 3.68001C162.55 3.68001 163.71 3.74001 164.87 3.79001C166.03 3.84001 167.19 3.91001 168.35 3.99001C169.51 4.07001 170.67 4.16001 171.83 4.27001C172.99 4.38001 174.14 4.49001 175.3 4.62001C176.46 4.75001 177.6 4.90001 178.75 5.05001C179.9 5.20001 181.06 5.38001 182.2 5.57001C183.34 5.76001 184.5 5.95001 185.64 6.15001C186.78 6.35001 187.92 6.59001 189.06 6.82001C190.2 7.05001 191.34 7.30001 192.47 7.56001C193.6 7.82001 194.73 8.10001 195.86 8.38001C196.99 8.66002 198.11 8.97001 199.23 9.28001C200.35 9.59001 201.46 9.92001 202.57 10.28C203.68 10.64 204.79 10.97 205.9 11.28C207.01 11.59 208.1 12.02 209.2 12.4C210.3 12.78 211.39 13.19 212.47 13.6C213.55 14.01 214.64 14.44 215.72 14.87C216.8 15.3 217.87 15.76 218.93 16.22C219.99 16.68 221.06 17.15 222.12 17.63C223.18 18.11 224.23 18.63 225.27 19.12C226.31 19.61 227.36 20.12 228.39 20.68L231.48 22.31C232.48 22.87 233.48 23.43 234.48 24.01C235.48 24.59 236.48 25.18 237.48 25.78C238.48 26.38 239.48 26.99 240.48 27.61C241.48 28.23 242.48 28.87 243.4 29.52C244.32 30.17 245.33 30.82 246.28 31.52L249.12 33.52C250.05 34.21 250.98 34.91 251.9 35.62C252.82 36.33 253.74 37.05 254.64 37.78C255.54 38.51 256.44 39.25 257.33 39.99C258.22 40.73 259.1 41.51 259.97 42.28C260.84 43.05 261.7 43.82 262.56 44.61C263.42 45.4 264.26 46.2 265.09 47.01C265.92 47.82 266.75 48.64 267.57 49.46C268.39 50.28 269.19 51.13 269.99 51.97C270.79 52.81 271.58 53.67 272.36 54.54C273.14 55.41 273.9 56.27 274.66 57.15C275.42 58.03 276.17 58.92 276.91 59.81C277.65 60.7 278.38 61.62 279.1 62.53C279.82 63.44 280.53 64.37 281.22 65.3C281.91 66.23 282.61 67.17 283.29 68.11C283.97 69.05 284.63 70.01 285.29 70.97C285.95 71.93 286.59 72.9 287.22 73.88C287.85 74.86 288.48 75.88 289.09 76.82C289.7 77.76 290.3 78.82 290.89 79.82C291.48 80.82 292.06 81.82 292.62 82.82C293.18 83.82 293.74 84.82 294.28 85.89C294.82 86.96 295.36 87.95 295.88 88.99C296.4 90.03 296.88 91.08 297.4 92.13C297.92 93.18 298.4 94.24 298.85 95.3C299.3 96.36 299.78 97.43 300.23 98.5C300.68 99.57 301.11 100.66 301.54 101.74C301.97 102.82 302.37 103.91 302.77 105C303.17 106.09 303.56 107.19 303.93 108.29C304.3 109.39 304.66 110.5 305.01 111.61C305.36 112.72 305.7 113.83 306.01 114.95C306.32 116.07 306.65 117.19 306.95 118.31C307.25 119.43 307.53 120.56 307.81 121.69C308.09 122.82 308.34 123.96 308.59 125.09C308.84 126.22 309.07 127.37 309.29 128.51C309.51 129.65 309.72 130.79 309.92 131.94C310.12 133.09 310.3 134.23 310.47 135.38C310.64 136.53 310.79 137.69 310.94 138.84C311.09 139.99 311.21 141.15 311.33 142.31C311.45 143.47 311.55 144.62 311.64 145.78C311.73 146.94 311.82 148.11 311.88 149.27C311.94 150.43 312 151.59 312.04 152.75C312.08 153.91 312.1 155.07 312.12 156.24C312.12 157.4 312.12 158.56 312.12 159.72C312.12 160.89 312.12 162.05 312.04 163.21C311.96 164.37 311.95 165.54 311.88 166.7C311.81 167.86 311.74 169.02 311.64 170.18C311.54 171.34 311.45 172.5 311.33 173.65C311.21 174.8 311.08 175.97 310.94 177.12C310.8 178.27 310.64 179.43 310.47 180.58C310.3 181.73 310.11 182.88 309.92 184.02C309.73 185.16 309.51 186.31 309.29 187.45C309.07 188.59 308.83 189.73 308.59 190.87C308.35 192.01 308.08 193.14 307.81 194.27C307.54 195.4 307.25 196.53 306.95 197.65C306.65 198.77 306.34 199.9 306.01 201.01C305.68 202.12 305.35 203.24 305.01 204.36C304.67 205.48 304.3 206.57 303.93 207.67C303.56 208.77 303.17 209.87 302.77 210.96C302.37 212.05 301.96 213.14 301.53 214.23C301.1 215.32 300.68 216.38 300.23 217.46C299.78 218.54 299.32 219.6 298.85 220.66C298.38 221.72 297.85 222.78 297.4 223.83C296.95 224.88 296.4 225.93 295.88 226.97C295.36 228.01 294.83 229.05 294.28 230.07C293.73 231.09 293.19 232.13 292.62 233.14C292.05 234.15 291.48 235.14 290.89 236.14C290.3 237.14 289.7 238.14 289.09 239.14C288.48 240.14 287.86 241.14 287.23 242.08C286.6 243.02 285.95 244.03 285.29 244.99C284.63 245.95 283.97 246.9 283.29 247.85C282.61 248.8 281.93 249.73 281.23 250.66C280.53 251.59 279.83 252.51 279.11 253.43C278.39 254.35 277.66 255.25 276.92 256.14C276.18 257.03 275.43 257.93 274.67 258.81C273.91 259.69 273.14 260.56 272.37 261.43C271.6 262.3 270.8 263.14 270 263.99C269.2 264.84 268.4 265.67 267.58 266.5C266.76 267.33 265.94 268.14 265.1 268.95C264.26 269.76 263.42 270.56 262.57 271.35C261.72 272.14 260.85 272.92 259.98 273.69C259.11 274.46 258.23 275.21 257.34 275.96C256.45 276.71 255.55 277.46 254.65 278.18C253.75 278.9 252.83 279.63 251.91 280.34C250.99 281.05 250.06 281.75 249.12 282.44C248.18 283.13 247.24 283.8 246.29 284.44C245.34 285.08 244.38 285.76 243.41 286.44C242.44 287.12 241.47 287.71 240.49 288.34C239.51 288.97 238.49 289.57 237.49 290.17C236.49 290.77 235.49 291.36 234.49 291.94C233.49 292.52 232.49 293.08 231.49 293.64C230.49 294.2 229.44 294.74 228.41 295.27C227.38 295.8 226.34 296.32 225.29 296.83C224.24 297.34 223.2 297.83 222.14 298.32C221.08 298.81 220.02 299.27 218.95 299.73C217.88 300.19 216.82 300.64 215.74 301.08C214.66 301.52 213.58 301.94 212.49 302.35C211.4 302.76 210.31 303.16 209.21 303.54C208.11 303.92 207.02 304.31 205.92 304.67L202.59 305.72C201.48 306.05 200.36 306.38 199.24 306.72C198.12 307.06 197 307.33 195.87 307.62C194.74 307.91 193.62 308.18 192.49 308.44C191.36 308.7 190.22 308.94 189.08 309.18C187.94 309.42 186.8 309.64 185.66 309.85C184.52 310.06 183.37 310.25 182.22 310.43C181.07 310.61 179.93 310.79 178.78 310.94C177.63 311.09 176.47 311.25 175.32 311.38C174.17 311.51 173 311.63 171.85 311.73C170.7 311.83 169.53 311.93 168.37 312.01C167.21 312.09 166.05 312.15 164.89 312.2C163.73 312.25 162.57 312.3 161.41 312.32C160.25 312.34 159 312.34 157.83 312.34ZM157.83 11.6C156.73 11.6 155.63 11.6 154.53 11.6C153.43 11.6 152.32 11.67 151.22 11.72C150.12 11.77 149.02 11.83 147.93 11.9L144.63 12.17C143.53 12.26 142.44 12.38 141.34 12.5C140.24 12.62 139.16 12.76 138.06 12.91C136.96 13.06 135.88 13.22 134.8 13.4C133.72 13.58 132.62 13.75 131.54 13.95C130.46 14.15 129.37 14.36 128.29 14.59C127.21 14.82 126.14 15.04 125.06 15.29C123.98 15.54 122.92 15.8 121.85 16.07C120.78 16.34 119.72 16.62 118.66 16.92C117.6 17.22 116.54 17.52 115.48 17.84C114.42 18.16 113.38 18.49 112.33 18.84C111.28 19.19 110.24 19.54 109.2 19.91C108.16 20.28 107.13 20.65 106.1 21.04C105.07 21.43 104.04 21.84 103.02 22.25C102 22.66 101.02 23.09 100.02 23.52C99.02 23.95 98.02 24.41 97.02 24.87C96.02 25.33 95.02 25.8 94.02 26.28C93.02 26.76 92.02 27.28 91.02 27.76C90.02 28.24 89.02 28.76 88.1 29.3C87.18 29.84 86.17 30.36 85.21 30.91C84.25 31.46 83.31 32.02 82.36 32.59C81.41 33.16 80.48 33.74 79.55 34.33C78.62 34.92 77.7 35.52 76.78 36.13C75.86 36.74 74.94 37.38 74 38C73.06 38.62 72.2 39.28 71.32 39.93C70.44 40.58 69.55 41.25 68.67 41.93C67.79 42.61 67 43.28 66.1 44L63.55 46.11C62.71 46.82 61.88 47.54 61.05 48.27C60.22 49 59.41 49.74 58.6 50.49C57.79 51.24 57 52 56.2 52.73C55.4 53.46 54.62 54.27 53.85 55.05C53.08 55.83 52.31 56.63 51.55 57.43C50.79 58.23 50.05 59.04 49.31 59.86C48.57 60.68 47.84 61.51 47.12 62.34C46.4 63.17 45.69 64 45 64.87C44.31 65.74 43.61 66.58 42.93 67.45C42.25 68.32 41.57 69.19 40.93 70.07C40.29 70.95 39.59 71.84 39 72.74C38.41 73.64 37.72 74.54 37.1 75.45C36.48 76.36 35.87 77.28 35.27 78.2C34.67 79.12 34 80.06 33.45 81C32.9 81.94 32.3 82.88 31.74 83.83C31.18 84.78 30.64 85.74 30.1 86.7C29.56 87.66 29 88.63 28.53 89.61C28.06 90.59 27.53 91.61 27.02 92.55C26.51 93.49 26.02 94.55 25.57 95.55C25.12 96.55 24.64 97.55 24.19 98.55C23.74 99.55 23.31 100.55 22.89 101.55C22.47 102.55 22.05 103.55 21.65 104.62C21.25 105.69 20.86 106.68 20.48 107.71C20.1 108.74 19.74 109.79 19.38 110.83C19.02 111.87 18.68 112.93 18.38 113.98C18.08 115.03 17.73 116.08 17.38 117.14C17.03 118.2 16.77 119.27 16.49 120.33C16.21 121.39 15.94 122.47 15.68 123.54C15.42 124.61 15.17 125.68 14.94 126.76C14.71 127.84 14.48 128.92 14.27 130C14.06 131.08 13.86 132.17 13.67 133.26C13.48 134.35 13.31 135.43 13.15 136.52C12.99 137.61 12.84 138.71 12.71 139.8C12.58 140.89 12.44 141.99 12.33 143.09C12.22 144.19 12.12 145.28 12.03 146.38C11.94 147.48 11.87 148.58 11.81 149.68C11.75 150.78 11.7 151.89 11.66 152.99C11.62 154.09 11.6 155.19 11.59 156.3C11.58 157.41 11.59 158.5 11.59 159.6C11.59 160.7 11.59 161.81 11.66 162.91C11.73 164.01 11.75 165.11 11.81 166.22C11.87 167.33 11.95 168.42 12.03 169.52C12.11 170.62 12.22 171.72 12.33 172.81C12.44 173.9 12.57 175 12.71 176.1C12.85 177.2 12.99 178.29 13.15 179.38C13.31 180.47 13.49 181.56 13.67 182.64C13.85 183.72 14.06 184.82 14.27 185.9C14.48 186.98 14.7 188.06 14.94 189.14C15.18 190.22 15.42 191.29 15.68 192.36C15.94 193.43 16.21 194.5 16.49 195.57C16.77 196.64 17.07 197.7 17.38 198.76C17.69 199.82 18 200.87 18.38 201.92C18.76 202.97 19.06 204.02 19.38 205.07C19.7 206.12 20.1 207.15 20.48 208.19C20.86 209.23 21.25 210.25 21.65 211.28C22.05 212.31 22.46 213.28 22.89 214.35C23.32 215.42 23.75 216.35 24.2 217.35C24.65 218.35 25.1 219.35 25.57 220.35C26.04 221.35 26.52 222.35 27.02 223.35C27.52 224.35 28.02 225.35 28.53 226.29C29.04 227.23 29.53 228.24 30.1 229.2C30.67 230.16 31.19 231.12 31.74 232.07C32.29 233.02 32.87 233.97 33.45 234.9C34.03 235.83 34.62 236.77 35.22 237.7C35.82 238.63 36.43 239.54 37.05 240.45C37.67 241.36 38.31 242.26 38.95 243.16C39.59 244.06 40.24 244.95 40.9 245.83C41.56 246.71 42.23 247.59 42.9 248.45C43.57 249.31 44.27 250.18 44.97 251.03C45.67 251.88 46.38 252.72 47.1 253.56C47.82 254.4 48.55 255.22 49.29 256.04C50.03 256.86 50.77 257.66 51.53 258.47C52.29 259.28 53.05 260.06 53.83 260.85C54.61 261.64 55.39 262.4 56.18 263.17C56.97 263.94 57.77 264.7 58.58 265.44C59.39 266.18 60.21 266.93 61.03 267.66C61.85 268.39 62.69 269.11 63.54 269.82C64.39 270.53 65.23 271.23 66.08 271.92C66.93 272.61 67.81 273.3 68.68 273.97C69.55 274.64 70.44 275.31 71.33 275.97C72.22 276.63 73.11 277.26 74.01 277.89C74.91 278.52 75.83 279.15 76.74 279.76C77.65 280.37 78.58 280.97 79.51 281.56C80.44 282.15 81.38 282.73 82.32 283.3L85.19 285C86.19 285.54 87.11 286.08 88.08 286.61C89.05 287.14 90.02 287.61 91 288.16C91.98 288.71 93 289.16 94 289.63C95 290.1 96 290.58 97 291.04C98 291.5 99 291.95 100 292.38C101 292.81 102 293.25 103 293.66C104 294.07 105 294.48 106.08 294.87C107.16 295.26 108.14 295.63 109.18 296C110.22 296.37 111.26 296.72 112.31 297.07C113.36 297.42 114.41 297.74 115.46 298.07C116.51 298.4 117.58 298.7 118.64 298.99C119.7 299.28 120.76 299.57 121.83 299.84C122.9 300.11 123.97 300.37 125.04 300.62C126.11 300.87 127.19 301.1 128.27 301.32C129.35 301.54 130.43 301.76 131.52 301.96C132.61 302.16 133.69 302.34 134.77 302.51C135.85 302.68 136.95 302.85 138.04 303C139.13 303.15 140.23 303.28 141.32 303.41C142.41 303.54 143.51 303.64 144.61 303.74L147.91 304.01C149 304.08 150.1 304.14 151.2 304.19C152.3 304.24 153.41 304.28 154.51 304.3C156.71 304.35 158.92 304.35 161.12 304.3C162.22 304.3 163.32 304.24 164.42 304.19L167.72 304.01C168.82 303.93 169.92 303.84 171.01 303.74C172.1 303.64 173.21 303.53 174.3 303.41C175.39 303.29 176.49 303.15 177.59 303C178.69 302.85 179.76 302.69 180.85 302.51C181.94 302.33 183.02 302.16 184.11 301.96C185.2 301.76 186.27 301.55 187.35 301.32C188.43 301.09 189.51 300.87 190.58 300.62C191.65 300.37 192.73 300.11 193.8 299.84C194.87 299.57 195.93 299.29 196.99 298.99C198.05 298.69 199.11 298.39 200.16 298.07C201.21 297.75 202.27 297.42 203.31 297.07C204.35 296.72 205.4 296.37 206.44 296C207.48 295.63 208.52 295.26 209.55 294.87C210.58 294.48 211.6 294.07 212.63 293.66C213.66 293.25 214.63 292.82 215.63 292.39C216.63 291.96 217.63 291.5 218.63 291.04C219.63 290.58 220.63 290.11 221.63 289.63C222.63 289.15 223.63 288.63 224.63 288.15C225.63 287.67 226.63 287.15 227.55 286.61C228.47 286.07 229.48 285.55 230.44 285C231.4 284.45 232.35 283.89 233.29 283.32C234.23 282.75 235.17 282.17 236.1 281.58C237.03 280.99 237.95 280.39 238.87 279.78C239.79 279.17 240.7 278.55 241.6 277.91C242.5 277.27 243.4 276.64 244.29 275.99C245.18 275.34 246.06 274.67 246.93 273.99C247.8 273.31 248.67 272.64 249.53 271.99C250.39 271.34 251.24 270.59 252.08 269.88C252.92 269.17 253.76 268.45 254.58 267.72C255.4 266.99 256.23 266.25 257.03 265.5C257.83 264.75 258.64 264 259.44 263.23C260.24 262.46 261.01 261.69 261.78 260.91C262.55 260.13 263.33 259.33 264.08 258.53C264.83 257.73 265.59 256.92 266.33 256.1C267.07 255.28 267.8 254.45 268.52 253.61C269.24 252.77 269.94 251.94 270.65 251.09C271.36 250.24 272.04 249.38 272.72 248.51C273.4 247.64 274.07 246.77 274.72 245.89C275.37 245.01 276.04 244.12 276.72 243.22C277.4 242.32 277.99 241.42 278.61 240.51C279.23 239.6 279.85 238.68 280.45 237.75C281.05 236.82 281.63 235.9 282.21 234.96C282.79 234.02 283.36 233.08 283.92 232.13C284.48 231.18 285.03 230.22 285.56 229.26C286.09 228.3 286.62 227.32 287.14 226.35C287.66 225.38 288.14 224.35 288.65 223.41C289.16 222.47 289.65 221.41 290.09 220.41C290.53 219.41 291.02 218.41 291.47 217.41C291.92 216.41 292.35 215.41 292.78 214.41C293.21 213.41 293.61 212.41 294.01 211.34C294.41 210.27 294.81 209.28 295.18 208.25C295.55 207.22 295.93 206.17 296.28 205.13C296.63 204.09 296.98 203.04 297.28 201.98C297.58 200.92 297.93 199.87 298.28 198.82C298.63 197.77 298.88 196.69 299.16 195.63C299.44 194.57 299.72 193.49 299.98 192.42C300.24 191.35 300.48 190.28 300.72 189.2C300.96 188.12 301.18 187.04 301.39 185.96C301.6 184.88 301.8 183.79 301.98 182.71C302.16 181.63 302.34 180.53 302.5 179.44C302.66 178.35 302.81 177.25 302.95 176.16C303.09 175.07 303.21 173.97 303.32 172.87C303.43 171.77 303.53 170.68 303.62 169.58C303.71 168.48 303.78 167.38 303.84 166.28C303.9 165.18 303.96 164.07 303.99 162.97C304.02 161.87 304.06 160.77 304.07 159.66C304.08 158.55 304.07 157.46 304.07 156.36C304.07 155.26 304.07 154.16 303.99 153.05C303.91 151.94 303.91 150.85 303.84 149.75C303.77 148.65 303.71 147.54 303.62 146.44C303.53 145.34 303.43 144.25 303.32 143.15C303.21 142.05 303.09 140.96 302.95 139.87C302.81 138.78 302.66 137.68 302.5 136.58C302.34 135.48 302.17 134.41 301.98 133.32C301.79 132.23 301.6 131.15 301.39 130.06C301.18 128.97 300.95 127.9 300.72 126.82C300.49 125.74 300.24 124.67 299.98 123.6C299.72 122.53 299.45 121.46 299.17 120.39C298.89 119.32 298.59 118.27 298.28 117.21C297.97 116.15 297.65 115.09 297.28 114.04C296.91 112.99 296.61 111.94 296.28 110.9C295.95 109.86 295.56 108.81 295.19 107.77C294.82 106.73 294.42 105.71 294.02 104.68C293.62 103.65 293.2 102.68 292.78 101.61C292.36 100.54 291.92 99.61 291.47 98.61C291.02 97.61 290.56 96.61 290.09 95.61C289.62 94.61 289.14 93.61 288.65 92.61C288.16 91.61 287.65 90.61 287.14 89.67C286.63 88.73 286.14 87.73 285.56 86.76C284.98 85.79 284.48 84.84 283.92 83.89C283.36 82.94 282.79 82 282.22 81.06C281.65 80.12 281.04 79.19 280.44 78.26C279.84 77.33 279.23 76.42 278.61 75.51C277.99 74.6 277.36 73.69 276.72 72.8C276.08 71.91 275.43 71.01 274.72 70.13C274.01 69.25 273.39 68.38 272.72 67.51C272.05 66.64 271.35 65.78 270.65 64.93C269.95 64.08 269.23 63.24 268.51 62.4C267.79 61.56 267.07 60.74 266.33 59.92L264.09 57.49C263.33 56.69 262.56 55.9 261.79 55.12C261.02 54.34 260.23 53.56 259.44 52.79C258.65 52.02 257.85 51.26 257.04 50.52C256.23 49.78 255.41 49.03 254.58 48.3C253.75 47.57 252.92 46.85 252.08 46.14C251.24 45.43 250.39 44.73 249.53 44.03C248.67 43.33 247.81 42.66 246.93 42.03C246.05 41.4 245.18 40.69 244.29 40.03C243.4 39.37 242.51 38.74 241.6 38.11C240.69 37.48 239.79 36.85 238.88 36.24C237.97 35.63 237.03 35.03 236.1 34.44C235.17 33.85 234.23 33.27 233.29 32.7C232.35 32.13 231.4 31.57 230.44 31.02L227.56 29.41C226.56 28.89 225.56 28.41 224.63 27.87C223.7 27.33 222.63 26.87 221.68 26.39C220.73 25.91 219.68 25.44 218.68 24.98C217.68 24.52 216.68 24.07 215.68 23.63C214.68 23.19 213.68 22.77 212.68 22.36C211.68 21.95 210.63 21.54 209.6 21.16C208.57 20.78 207.53 20.39 206.49 20.02C205.45 19.65 204.41 19.3 203.36 18.95C202.31 18.6 201.27 18.28 200.21 17.95C199.15 17.62 198.1 17.32 197.04 17.03C195.98 16.74 194.91 16.45 193.85 16.18C192.79 15.91 191.71 15.65 190.63 15.4C189.55 15.15 188.48 14.92 187.41 14.7C186.34 14.48 185.24 14.26 184.16 14.06C183.08 13.86 181.99 13.68 180.9 13.51C179.81 13.34 178.72 13.17 177.63 13.02C176.54 12.87 175.45 12.74 174.35 12.61C173.25 12.48 172.16 12.37 171.07 12.28L167.77 12.01L164.47 11.83C163.37 11.7767 162.27 11.7367 161.17 11.71C160 11.61 158.94 11.6 157.83 11.6Z" fill="url(#paint0_linear)"/>
<path d="M116.91 250.7C116.91 250.51 116.91 249.26 116.91 246.94C116.91 244.62 117.05 241.49 117.19 237.54C117.33 233.59 117.42 230.65 117.46 228.71C117.5 226.77 117.55 225.34 117.56 224.42C117.57 223.5 117.56 222.65 117.62 221.89C117.68 221.13 117.7 219.58 117.79 217.27C117.88 214.96 117.91 212.69 117.91 210.47C117.91 208.25 117.91 205.63 117.91 202.62C117.91 199.61 118.05 195.62 118.26 190.74C118.47 185.86 118.6 182.11 118.68 179.57C118.76 177.03 118.79 174.98 118.77 173.4C118.75 171.82 118.69 170.48 118.6 169.35C118.51 168.22 118.33 166.97 118.09 165.59C117.85 164.21 117.62 163.06 117.41 162.13C117.2 161.2 116.96 159.66 116.67 157.53C116.38 155.4 116.2 153.64 116.13 152.23C116.06 150.82 116.01 148.43 115.97 145.06C115.93 141.69 115.97 138.92 115.97 136.76C115.97 134.6 116.1 132.89 116.19 131.65C116.28 130.41 116.42 128.41 116.59 125.65C116.76 122.89 116.9 120.65 116.98 118.88C117.06 117.11 117.13 115.06 117.21 112.66C117.29 110.26 117.33 108.46 117.34 107.25C117.35 106.04 117.34 104.98 117.34 104.1C117.34 103.22 117.34 101.75 117.34 99.7C117.34 97.65 117.34 95.4 117.34 92.94C117.34 90.48 117.34 88.65 117.4 87.44C117.46 86.23 117.52 84.74 117.64 83C117.76 81.26 117.88 79.73 117.98 78.42C118.08 77.11 118.2 75.61 118.33 73.92C118.459 72.1648 118.689 70.4185 119.02 68.69C119.182 67.679 119.399 66.6775 119.67 65.69C119.808 65.4106 119.979 65.1487 120.18 64.91C120.378 64.6564 120.602 64.4251 120.85 64.22C121.162 63.9752 121.497 63.7609 121.85 63.58C122.356 63.3151 122.893 63.1168 123.45 62.99C125.288 62.7591 127.138 62.6256 128.99 62.59C132.097 62.45 134.41 62.38 135.93 62.38C137.45 62.38 138.93 62.38 140.38 62.48C141.83 62.58 143.82 62.63 146.38 62.71C148.94 62.79 151.81 62.84 155.06 62.85H162.45C164.13 62.85 165.62 62.85 166.92 62.93L170.92 63.09C172.31 63.15 173.76 63.22 175.27 63.31C176.78 63.4 179.38 63.44 183.08 63.45C186.78 63.46 189.61 63.45 191.56 63.35C193.51 63.25 195.69 63.22 198.11 63.17C200.53 63.12 203.01 63.11 205.54 63.17C208.07 63.23 209.95 63.17 211.15 63.26C212.35 63.35 213.43 63.37 214.37 63.47C215.31 63.57 216.29 63.66 217.31 63.72C218.33 63.78 219.7 63.85 221.41 63.9C223.12 63.95 225.06 64.04 227.21 64.17C229.36 64.3 230.95 64.39 231.99 64.47L234.99 64.71C235.99 64.79 237.12 64.84 238.4 64.89C239.68 64.94 240.67 64.95 241.34 64.95H243.44C244.071 64.9517 244.702 64.9884 245.33 65.06C245.88 65.13 246.23 65.18 246.33 65.22C246.493 65.2628 246.654 65.3162 246.81 65.38C247.098 65.5236 247.375 65.6874 247.64 65.87C247.964 66.0855 248.266 66.3334 248.54 66.61C248.76 66.85 248.93 67.04 249.04 67.18C249.265 67.5261 249.452 67.8948 249.6 68.28C249.817 68.7623 249.998 69.2604 250.14 69.77C250.25 70.16 250.32 70.46 250.36 70.66C250.4 70.86 250.47 71.46 250.55 72.47C250.63 73.48 250.69 74 250.69 74.02V75.76C250.69 76.9 250.69 78.02 250.6 79.1C250.51 80.18 250.51 81.1 250.48 81.83C250.45 82.56 250.4 84.18 250.31 86.67C250.22 89.16 250.05 93.06 249.83 98.37C249.61 103.68 249.43 107.83 249.27 110.85C249.11 113.87 248.99 116.07 248.93 117.47C248.87 118.87 248.82 119.86 248.81 120.47C248.8 121.08 248.81 122.39 248.75 124.47C248.69 126.55 248.75 128.99 248.75 131.75C248.75 134.51 248.85 136.8 248.88 138.64C248.91 140.48 248.88 142.14 248.88 143.64C248.88 145.14 248.88 146.14 248.88 146.64C248.88 147.14 248.88 148.86 248.88 151.82C248.88 154.78 249 157.48 249 160C249 162.52 248.94 164.54 248.92 166C248.9 167.46 248.92 168.65 248.92 169.45C248.92 170.25 248.86 172.2 248.81 175.32C248.76 178.44 248.71 181.02 248.71 183.05C248.71 185.08 248.71 187.05 248.83 189.05C248.95 191.05 248.99 192.58 249.05 193.68C249.11 194.78 249.17 195.84 249.24 196.86C249.31 197.88 249.37 198.86 249.43 199.86C249.49 200.86 249.54 201.73 249.58 202.52C249.62 203.31 249.71 204.93 249.83 207.35C249.95 209.77 250.04 211.53 250.07 212.61C250.1 213.69 250.13 215 250.15 216.52C250.17 218.04 250.15 219.65 250.15 221.37C250.15 223.09 250.08 224.65 250.06 226.07C250.04 227.49 250.06 228.56 250.06 229.31C250.06 230.06 250.06 230.46 250.06 230.5C250.06 230.54 250.06 231.17 250.06 232.38C250.06 233.59 250.15 234.84 250.23 236.12C250.31 237.4 250.36 238.32 250.39 238.89C250.42 239.46 250.39 239.99 250.39 240.48C250.39 240.97 250.39 241.3 250.39 241.48C250.39 241.66 250.39 241.83 250.39 242.07C250.39 242.31 250.33 242.8 250.24 243.55C250.15 244.3 250.11 244.69 250.11 244.72C250.11 244.75 250.06 245.02 249.98 245.55C249.9 246.08 249.82 246.55 249.75 246.97C249.657 247.509 249.594 248.054 249.56 248.6C249.56 248.82 249.47 249.01 249.43 249.18C249.44 249.286 249.486 249.384 249.56 249.46L250.33 250.46" fill="white"/>
<path d="M116.9 251C116.842 250.998 116.786 250.977 116.742 250.938C116.698 250.9 116.669 250.847 116.66 250.79C116.584 249.521 116.584 248.249 116.66 246.98C116.66 244.68 116.8 241.52 116.94 237.58C117.08 233.64 117.16 230.69 117.21 228.75C117.26 226.81 117.3 225.39 117.31 224.46C117.32 223.53 117.31 222.69 117.37 221.93C117.43 221.17 117.45 219.63 117.54 217.31C117.63 214.99 117.66 212.72 117.66 210.52C117.66 208.32 117.66 205.68 117.66 202.67C117.66 199.66 117.8 195.67 118.01 190.78C118.22 185.89 118.35 182.12 118.43 179.61C118.51 177.1 118.54 175.02 118.52 173.46C118.5 171.9 118.44 170.54 118.35 169.46C118.243 168.209 118.073 166.964 117.84 165.73C117.6 164.36 117.37 163.2 117.17 162.27C116.97 161.34 116.71 159.78 116.42 157.66C116.13 155.54 115.95 153.74 115.88 152.33C115.81 150.92 115.76 148.5 115.72 145.15C115.68 141.8 115.72 139 115.72 136.84C115.72 134.68 115.85 132.95 115.94 131.72C116.03 130.49 116.17 128.48 116.34 125.72C116.51 122.96 116.65 120.72 116.73 118.96C116.81 117.2 116.88 115.14 116.96 112.74C117.04 110.34 117.08 108.54 117.09 107.33V104.19C117.09 103.31 117.09 101.84 117.09 99.79C117.09 97.74 117.09 95.4699 117.09 93.0299C117.09 90.5899 117.09 88.7299 117.15 87.5199C117.21 86.3099 117.27 84.81 117.39 83.08C117.51 81.35 117.63 79.8099 117.73 78.5C117.83 77.19 117.95 75.6799 118.08 73.9899C118.213 72.2286 118.443 70.4759 118.77 68.7399C118.919 67.6985 119.143 66.6691 119.44 65.66C119.584 65.359 119.769 65.0796 119.99 64.83C120.195 64.5582 120.43 64.31 120.69 64.0899C121.025 63.8372 121.384 63.6163 121.76 63.43C122.284 63.1541 122.842 62.9489 123.42 62.82C125.271 62.578 127.134 62.4411 129 62.41C132.1 62.27 134.44 62.2 136 62.2C137.56 62.2 139 62.1999 140.47 62.2999C141.94 62.3999 143.92 62.4499 146.47 62.5299C149.02 62.6099 151.91 62.6599 155.14 62.6699H162.53C164.2 62.6699 165.71 62.67 167.01 62.75L171.01 62.91C172.4 62.97 173.85 63.05 175.36 63.13C176.87 63.21 179.48 63.26 183.16 63.27C186.84 63.28 189.7 63.2699 191.63 63.1699C193.56 63.0699 195.76 63.04 198.19 62.99C200.62 62.94 203.09 62.93 205.62 62.99C208.15 63.05 210.03 62.99 211.24 63.08C212.45 63.17 213.53 63.19 214.47 63.29C215.41 63.39 216.4 63.48 217.41 63.54C218.42 63.6 219.8 63.67 221.5 63.72C223.2 63.77 225.16 63.86 227.31 63.99C229.46 64.12 231.05 64.21 232.09 64.3L235.09 64.5299C236.09 64.6099 237.23 64.6699 238.49 64.7099C239.75 64.7499 240.76 64.7099 241.42 64.7699H243.52C244.161 64.7717 244.802 64.8084 245.44 64.8799C245.803 64.9139 246.164 64.9707 246.52 65.05C246.693 65.0961 246.864 65.1528 247.03 65.22C247.338 65.3675 247.632 65.5414 247.91 65.7399C248.247 65.9655 248.562 66.2234 248.85 66.51L249.37 67.0899C249.611 67.4522 249.809 67.8416 249.96 68.25C250.181 68.7468 250.368 69.258 250.52 69.7799C250.62 70.1799 250.69 70.4799 250.73 70.6699C250.77 70.8599 250.84 71.4899 250.93 72.5199C251.02 73.5499 251.06 74.03 251.07 74.07V75.83C251.07 76.96 251.07 78.09 250.98 79.19C250.89 80.29 250.89 81.19 250.86 81.91C250.83 82.63 250.78 84.25 250.69 86.75C250.6 89.25 250.43 93.1399 250.21 98.4499C249.99 103.76 249.8 107.97 249.65 110.93C249.5 113.89 249.37 116.15 249.31 117.55C249.25 118.95 249.2 119.94 249.19 120.55C249.18 121.16 249.19 122.46 249.13 124.55C249.07 126.64 249.13 129.06 249.13 131.83C249.13 134.6 249.23 136.88 249.26 138.72C249.29 140.56 249.26 142.22 249.26 143.72C249.26 145.22 249.26 146.22 249.26 146.72C249.26 147.22 249.26 148.94 249.26 151.9C249.26 154.86 249.2 157.61 249.17 160.14C249.14 162.67 249.11 164.68 249.09 166.14C249.07 167.6 249.09 168.8 249.09 169.59C249.09 170.38 249.03 172.35 248.98 175.47C248.93 178.59 248.88 181.2 248.88 183.19C248.88 185.18 248.88 187.19 249 189.19C249.12 191.19 249.16 192.72 249.22 193.82C249.28 194.92 249.34 195.97 249.4 197C249.46 198.03 249.53 199 249.6 200C249.67 201 249.71 201.88 249.75 202.67C249.79 203.46 249.88 205.08 250 207.5C250.12 209.92 250.21 211.69 250.24 212.77C250.27 213.85 250.3 215.15 250.32 216.67C250.34 218.19 250.32 219.82 250.32 221.53C250.32 223.24 250.25 224.81 250.23 226.23C250.21 227.65 250.23 228.72 250.23 229.47C250.23 230.22 250.23 230.63 250.23 230.68C250.23 230.73 250.23 231.36 250.23 232.54C250.23 233.72 250.32 235.01 250.4 236.26C250.48 237.51 250.53 238.47 250.56 239.04C250.59 239.61 250.56 240.15 250.56 240.65V241.65C250.56 241.81 250.56 242.01 250.56 242.25C250.56 242.49 250.5 242.98 250.41 243.75C250.32 244.52 250.28 244.86 250.27 244.9C250.257 245.19 250.217 245.478 250.15 245.76C250.07 246.29 249.99 246.76 249.91 247.19C249.83 247.62 249.78 248.19 249.73 248.79C249.73 249.02 249.65 249.2 249.61 249.37L249.68 249.48L250.44 250.48C250.464 250.502 250.483 250.529 250.496 250.56C250.509 250.59 250.516 250.622 250.516 250.655C250.516 250.688 250.509 250.72 250.496 250.75C250.483 250.78 250.464 250.808 250.44 250.83C250.387 250.87 250.32 250.887 250.255 250.877C250.189 250.868 250.13 250.833 250.09 250.78L249.32 249.78C249.256 249.715 249.207 249.636 249.178 249.549C249.149 249.463 249.139 249.371 249.15 249.28C249.15 249.12 249.23 248.93 249.28 248.72C249.308 248.177 249.369 247.636 249.46 247.1C249.54 246.68 249.62 246.21 249.7 245.68L249.82 244.87C249.82 244.87 249.82 244.82 249.95 243.69C250.043 242.95 250.093 242.46 250.1 242.22C250.1 241.99 250.1 241.79 250.1 241.64V240.64C250.1 240.15 250.1 239.64 250.1 239.06C250.1 238.48 250.02 237.57 249.94 236.29C249.86 235.01 249.8 233.78 249.77 232.55C249.77 230.86 249.77 230.69 249.77 230.65C249.77 230.61 249.77 230.21 249.77 229.47C249.77 228.73 249.77 227.64 249.77 226.22C249.77 224.8 249.82 223.22 249.86 221.52C249.9 219.82 249.86 218.19 249.86 216.68C249.86 215.17 249.86 213.87 249.78 212.78C249.7 211.69 249.67 209.94 249.54 207.53C249.41 205.12 249.33 203.53 249.29 202.7C249.25 201.87 249.2 201.02 249.14 200.04C249.08 199.06 249.01 198.04 248.95 197.04C248.89 196.04 248.82 194.95 248.76 193.85C248.7 192.75 248.63 191.21 248.54 189.22C248.45 187.23 248.41 185.22 248.42 183.22C248.43 181.22 248.42 178.62 248.52 175.49C248.62 172.36 248.61 170.41 248.63 169.61C248.65 168.81 248.63 167.67 248.63 166.17C248.63 164.67 248.63 162.65 248.71 160.12C248.79 157.59 248.77 154.85 248.8 151.89C248.83 148.93 248.8 147.2 248.8 146.71C248.8 146.22 248.8 145.22 248.8 143.71C248.8 142.2 248.8 140.54 248.8 138.71C248.8 136.88 248.73 134.58 248.67 131.82C248.61 129.06 248.61 126.61 248.67 124.54C248.73 122.47 248.67 121.1 248.73 120.54C248.79 119.98 248.73 118.97 248.85 117.54C248.97 116.11 249.03 113.93 249.19 110.91C249.35 107.89 249.53 103.91 249.75 98.44C249.97 92.97 250.13 89.2399 250.23 86.7399C250.33 84.2399 250.38 82.63 250.4 81.9C250.42 81.17 250.47 80.2599 250.52 79.1699C250.57 78.0799 250.61 76.9599 250.61 75.8399V74C250.61 74 250.56 73.4699 250.47 72.4499C250.437 71.8537 250.374 71.2596 250.28 70.6699C250.28 70.4699 250.17 70.18 250.07 69.79C249.932 69.2932 249.755 68.8083 249.54 68.3399C249.405 67.9879 249.231 67.6523 249.02 67.3399C248.91 67.1999 248.74 67.02 248.53 66.79C248.266 66.5235 247.974 66.2855 247.66 66.08C247.414 65.9006 247.153 65.7433 246.88 65.61C246.73 65.55 246.57 65.4999 246.43 65.4599C246.29 65.4199 246.08 65.3899 245.43 65.3099C244.812 65.2383 244.192 65.2015 243.57 65.1999H241.47C240.81 65.1999 239.8 65.1999 238.52 65.1399C237.24 65.0799 236.1 65.0399 235.1 64.9599L232.1 64.72C231.1 64.64 229.46 64.5399 227.33 64.4199C225.2 64.2999 223.24 64.21 221.54 64.15C219.84 64.09 218.44 64.04 217.42 63.97C216.4 63.9 215.42 63.82 214.47 63.72C213.52 63.62 212.47 63.5499 211.27 63.5099C210.07 63.4699 208.19 63.4299 205.67 63.4199C203.15 63.4099 200.67 63.4199 198.25 63.4199C195.83 63.4199 193.62 63.5299 191.7 63.5999C189.78 63.6699 186.91 63.71 183.21 63.7C179.51 63.69 176.89 63.65 175.38 63.56C173.87 63.47 172.38 63.4 171.04 63.34L167.04 63.18C165.74 63.18 164.24 63.1099 162.58 63.0999H155.18C151.95 63.0999 149.03 63.0399 146.5 62.9599C143.97 62.8799 141.96 62.7999 140.5 62.7299C139.04 62.6599 137.57 62.62 136.06 62.63C134.55 62.64 132.22 62.7 129.13 62.84C127.291 62.8699 125.454 63.0035 123.63 63.24C123.096 63.3538 122.581 63.5423 122.1 63.7999C121.749 63.9724 121.414 64.1766 121.1 64.41C120.871 64.6107 120.66 64.8316 120.47 65.07C120.286 65.2911 120.128 65.5327 120 65.79C119.728 66.7765 119.514 67.7783 119.36 68.79C119.038 70.5098 118.807 72.2456 118.67 73.9899C118.55 75.6799 118.44 77.1799 118.33 78.4899C118.22 79.7999 118.11 81.33 117.99 83.07C117.87 84.8099 117.79 86.29 117.75 87.5C117.71 88.7099 117.75 90.4999 117.69 92.9899C117.63 95.4799 117.69 97.7099 117.69 99.75C117.69 101.79 117.69 103.27 117.69 104.15V107.3C117.69 108.51 117.69 110.3 117.56 112.72C117.43 115.14 117.4 117.19 117.33 118.94C117.26 120.69 117.12 122.94 116.94 125.72C116.76 128.5 116.63 130.49 116.54 131.72C116.45 132.95 116.38 134.66 116.32 136.81C116.26 138.96 116.25 141.75 116.32 145.1C116.39 148.45 116.42 150.86 116.48 152.27C116.54 153.68 116.73 155.44 117.02 157.55C117.31 159.66 117.56 161.2 117.76 162.12C117.96 163.04 118.19 164.23 118.43 165.6C118.67 166.97 118.85 168.24 118.95 169.38C119.05 170.52 119.1 171.88 119.12 173.45C119.14 175.02 119.12 177.1 119.03 179.63C118.94 182.16 118.81 185.9 118.61 190.81C118.41 195.72 118.29 199.7 118.26 202.67C118.23 205.64 118.26 208.29 118.26 210.52C118.26 212.75 118.26 215.02 118.14 217.33C118.02 219.64 118 221.18 117.97 221.95C117.94 222.72 117.92 223.55 117.91 224.47C117.9 225.39 117.91 226.82 117.81 228.77C117.71 230.72 117.67 233.65 117.54 237.6C117.41 241.55 117.31 244.69 117.26 247C117.19 250 117.2 250.61 117.26 250.7C117.267 250.732 117.268 250.766 117.261 250.798C117.255 250.831 117.242 250.861 117.223 250.889C117.205 250.916 117.18 250.939 117.152 250.956C117.124 250.974 117.093 250.985 117.06 250.99L116.9 251Z" fill="white"/>
<path d="M81.65 255C81.27 254.25 80.79 253.17 80.2 251.74L78.55 247.74C78.03 246.5 77.63 245.54 77.33 244.86L76.42 242.74C76.11 242.01 75.72 241.13 75.24 240.1C74.76 239.07 74.41 238.28 74.17 237.72C73.93 237.16 73.73 236.72 73.57 236.27C73.41 235.82 73.18 235.27 72.86 234.4C72.54 233.53 72.14 232.57 71.69 231.4C71.24 230.23 70.96 229.52 70.87 229.27L70.28 227.57C69.97 226.69 69.79 226.14 69.73 225.93C69.67 225.72 69.62 225.47 69.56 225.16C69.5 224.85 69.42 224.5 69.34 224.1C69.26 223.7 69.15 223.04 69.02 222.1C68.89 221.16 68.8 220.45 68.76 219.88C68.72 219.31 68.65 218.35 68.59 216.98C68.53 215.61 68.47 214.45 68.43 213.49C68.39 212.53 68.35 211.82 68.3 211.38C68.25 210.94 68.18 209.88 68.07 208.19C67.96 206.5 67.91 205.19 67.9 204.19C67.89 203.19 67.9 202.51 67.9 202.14C67.9 201.77 67.9 201.14 67.96 200.28C68.02 199.42 68.11 197.8 68.32 195.46C68.53 193.12 68.69 191.34 68.8 190.14C68.91 188.94 69.01 187.28 69.08 185.19C69.15 183.1 69.16 181.04 69.08 179C69 176.96 68.92 174.91 68.76 172.82C68.6 170.73 68.47 168.28 68.34 165.47C68.21 162.66 68.15 160.47 68.16 158.93C68.17 157.39 68.22 155.44 68.33 153.12C68.44 150.8 68.53 148.98 68.6 147.65C68.67 146.32 68.74 145.01 68.79 143.72C68.84 142.43 68.92 140.72 69 138.5C69.08 136.28 69.15 134.17 69.22 132.09C69.29 130.01 69.35 128.39 69.41 127.22C69.47 126.05 69.53 124.54 69.58 122.69C69.63 120.84 69.66 119.47 69.67 118.56C69.68 117.65 69.67 116.62 69.67 115.46C69.67 114.3 69.67 113.12 69.73 111.89C69.79 110.66 69.73 109.63 69.81 108.8C69.89 107.97 69.9 107.12 69.98 106.24C70.06 105.36 70.16 104.56 70.26 103.85C70.36 103.14 70.45 102.67 70.5 102.43C70.55 102.19 70.62 101.9 70.69 101.58C70.7601 101.261 70.8503 100.947 70.96 100.64C71.07 100.34 71.2 100.02 71.36 99.64C71.4498 99.4577 71.5299 99.2708 71.6 99.08C71.6 99.08 71.72 98.81 71.93 98.39C72.14 97.97 72.29 97.64 72.38 97.39C72.4579 97.212 72.5214 97.0281 72.57 96.84C72.6092 96.7027 72.636 96.5621 72.65 96.42C72.65 96.29 72.65 96.16 72.65 96.04C72.65 95.92 72.58 95.67 72.48 95.26C72.3447 94.7557 72.1845 94.2584 72 93.77C71.78 93.17 71.59 92.69 71.42 92.32L71 91.38C70.88 91.12 70.72 90.75 70.51 90.26C70.3 89.77 70.04 89.11 69.72 88.26C69.4 87.41 69.04 86.51 68.65 85.53C68.26 84.55 68 83.73 67.76 83C67.5462 82.3429 67.366 81.6754 67.22 81C67.0615 80.1916 66.9613 79.3728 66.92 78.55C66.8608 77.8316 66.8407 77.1106 66.86 76.39C66.8965 75.8087 66.9733 75.2306 67.09 74.66C67.257 73.8662 67.5154 73.0944 67.86 72.36C68.1412 71.6685 68.4755 70.9999 68.86 70.36C69.16 69.91 69.5 69.45 69.86 68.97C70.22 68.49 70.62 68.05 70.97 67.67C71.32 67.29 71.54 67.06 71.6 67.01L72.19 66.44C72.52 66.12 72.92 65.77 73.38 65.44C73.8917 65.0334 74.4332 64.6657 75 64.34C75.56 63.99 76 63.75 76.18 63.63C76.36 63.51 76.78 63.34 77.29 63.12C77.9327 62.8608 78.6041 62.6795 79.29 62.58C79.9284 62.4481 80.5781 62.3778 81.23 62.37H82L83.27 62.59C84.0503 62.7323 84.8166 62.9431 85.56 63.22C86.1586 63.4365 86.7431 63.6903 87.31 63.98C87.75 64.21 88.24 64.51 88.77 64.86C89.3 65.21 89.86 65.6 90.42 66.03C90.98 66.46 91.56 66.93 92.15 67.46C92.6629 67.9091 93.1503 68.3865 93.61 68.89C93.99 69.31 94.28 69.66 94.48 69.89C94.68 70.12 94.9 70.47 95.13 70.8C95.36 71.13 95.57 71.47 95.77 71.8C95.97 72.13 96.11 72.4 96.21 72.59C96.31 72.78 96.52 73.3 96.86 74.18C97.1219 74.8342 97.3489 75.5018 97.54 76.18C97.65 76.61 97.75 77.02 97.81 77.39C97.87 77.76 97.94 78.17 97.98 78.61C98.0179 79.146 98.0179 79.684 97.98 80.22C97.9707 80.722 97.9306 81.2229 97.86 81.72C97.79 82.09 97.7 82.5 97.58 82.95C97.3708 83.6368 97.1066 84.3056 96.79 84.95C96.4599 85.6811 96.0755 86.3864 95.64 87.06C95.28 87.59 94.87 88.14 94.4 88.71C93.93 89.28 93.64 89.71 93.49 89.82L92.49 90.93C92.0325 91.4589 91.6052 92.0131 91.21 92.59C90.917 93.0077 90.6658 93.4531 90.46 93.92C90.3504 94.1941 90.2699 94.479 90.22 94.77C90.2289 94.8898 90.2289 95.0102 90.22 95.13C90.22 95.13 90.22 95.27 90.22 95.49C90.2303 95.6549 90.2537 95.8188 90.29 95.98C90.3093 96.0894 90.3395 96.1966 90.38 96.3C90.4321 96.4224 90.4957 96.5396 90.57 96.65C90.6993 96.8476 90.8395 97.0379 90.99 97.22C91.19 97.47 91.45 97.77 91.77 98.1L92.51 98.89L93.42 99.89C93.6967 100.165 93.9571 100.455 94.2 100.76C94.3043 100.908 94.4011 101.062 94.49 101.22C94.59 101.39 94.71 101.63 94.85 101.93C95.087 102.581 95.2709 103.25 95.4 103.93C95.6879 105.447 95.8419 106.986 95.86 108.53C95.94 110.53 95.96 112.1 95.94 113.08C95.92 114.06 95.87 114.91 95.81 115.63C95.75 116.35 95.68 117.28 95.58 118.43C95.48 119.58 95.36 120.98 95.22 122.62C95.08 124.26 94.91 126.27 94.7 128.62C94.49 130.97 94.33 133.29 94.23 135.45C94.13 137.61 94.1 139.23 94.11 140.3C94.12 141.37 94.11 142.11 94.11 142.53C94.11 142.95 94.11 143.38 94.11 143.83C94.11 144.28 94.11 145.06 94.23 146.18C94.35 147.3 94.35 148.34 94.39 149.28C94.43 150.22 94.46 150.96 94.49 151.51C94.52 152.06 94.49 153.3 94.57 155.25C94.65 157.2 94.57 159.18 94.57 161.17C94.57 163.16 94.57 164.65 94.51 165.63C94.45 166.61 94.51 167.44 94.46 168.11C94.41 168.78 94.46 170.85 94.46 174.35C94.46 177.85 94.46 180.53 94.55 182.41C94.64 184.29 94.61 185.67 94.62 186.57C94.63 187.47 94.62 188.42 94.62 189.45C94.62 190.48 94.62 191.56 94.62 192.7C94.62 193.84 94.62 194.7 94.62 195.41C94.62 196.12 94.56 197.17 94.49 198.7C94.42 200.23 94.37 202.22 94.33 204.7C94.29 207.18 94.33 209.28 94.33 211.07C94.33 212.86 94.33 214.13 94.33 214.86C94.33 215.59 94.33 216.55 94.41 217.73C94.49 218.91 94.48 219.54 94.48 219.63C94.48 219.72 94.48 220.32 94.56 221.44C94.64 222.56 94.65 223.44 94.69 224.02C94.73 224.6 94.74 225.02 94.75 225.35C94.76 225.68 94.75 225.85 94.75 225.97C94.75 226.09 94.75 226.33 94.87 226.72C94.99 227.11 94.96 227.36 94.97 227.47C94.9854 227.766 94.9854 228.064 94.97 228.36C94.9109 228.96 94.8073 229.555 94.66 230.14C94.4766 230.861 94.2563 231.572 94 232.27C93.74 232.99 93.54 233.5 93.4 233.82C93.26 234.14 93.03 234.59 92.71 235.18L92.23 236.1C92.23 236.1 92.01 236.5 91.6 237.25C91.19 238 90.86 238.56 90.6 238.94C90.34 239.32 90.14 239.7 89.93 240.04L89.33 241.04C89.15 241.35 88.84 241.87 88.42 242.61C88 243.35 87.63 243.98 87.32 244.53C87.01 245.08 86.84 245.41 86.77 245.53C86.7 245.65 86.49 246.02 86.14 246.67C85.79 247.32 85.46 247.92 85.14 248.5C84.82 249.08 84.62 249.5 84.47 249.8C84.32 250.1 84.19 250.31 84.09 250.47C83.99 250.63 83.87 250.86 83.71 251.12L83.32 251.84C83.2 252.05 83 252.46 82.7 253.06L81.59 255.06" fill="white"/>
<path d="M81.65 255.2C81.6042 255.198 81.5598 255.184 81.5211 255.16C81.4825 255.135 81.4511 255.101 81.43 255.06C81.06 254.32 80.57 253.22 79.98 251.79L78.33 247.79C77.81 246.56 77.41 245.6 77.11 244.92L76.2 242.8C75.89 242.06 75.49 241.18 75.03 240.17C74.57 239.16 74.19 238.34 73.95 237.78C73.71 237.22 73.51 236.78 73.35 236.32C73.19 235.86 72.96 235.32 72.63 234.46L71.47 231.46C71.01 230.28 70.74 229.57 70.65 229.33C70.56 229.09 70.36 228.52 70.05 227.63C69.74 226.74 69.56 226.18 69.5 225.97C69.44 225.76 69.39 225.5 69.32 225.18C69.25 224.86 69.18 224.52 69.1 224.12C69.02 223.72 68.91 223.04 68.78 222.12C68.65 221.2 68.57 220.46 68.52 219.89C68.47 219.32 68.41 218.34 68.35 216.97C68.29 215.6 68.23 214.44 68.19 213.48C68.15 212.52 68.11 211.82 68.06 211.39C68.01 210.96 67.94 209.87 67.83 208.19C67.72 206.51 67.67 205.19 67.66 204.19C67.65 203.19 67.66 202.51 67.66 202.14C67.66 201.77 67.66 201.14 67.72 200.27C67.78 199.4 67.87 197.82 68.08 195.44C68.29 193.06 68.45 191.32 68.57 190.11C68.69 188.9 68.77 187.26 68.84 185.18C68.91 183.1 68.92 181.02 68.84 179.01C68.76 177 68.68 174.91 68.52 172.84C68.36 170.77 68.23 168.28 68.1 165.48C67.97 162.68 67.91 160.48 67.92 158.92C67.93 157.36 67.98 155.42 68.09 153.11C68.2 150.8 68.29 148.96 68.36 147.63C68.43 146.3 68.5 145 68.55 143.71C68.6 142.42 68.68 140.71 68.76 138.5C68.84 136.29 68.91 134.16 68.98 132.08C69.05 130 69.11 128.37 69.17 127.21C69.23 126.05 69.29 124.53 69.34 122.69C69.39 120.85 69.42 119.47 69.43 118.56C69.44 117.65 69.43 116.56 69.43 115.46L69.49 111.88C69.49 110.65 69.49 109.62 69.57 108.79C69.65 107.96 69.66 107.09 69.74 106.21C69.82 105.33 69.92 104.53 70.03 103.82C70.14 103.11 70.21 102.62 70.27 102.37L70.45 101.53C70.5226 101.191 70.6161 100.857 70.73 100.53C70.85 100.22 70.98 99.9 71.14 99.53C71.2372 99.3587 71.3241 99.1817 71.4 99C71.4 99 71.4 98.92 71.75 98.27C71.96 97.85 72.1 97.53 72.19 97.27C72.2664 97.0993 72.3266 96.9219 72.37 96.74C72.4068 96.6196 72.4302 96.4955 72.44 96.37C72.44 96.26 72.44 96.15 72.44 96.04C72.44 95.93 72.44 95.8 72.28 95.29C72.1494 94.7887 71.9925 94.2947 71.81 93.81C71.6 93.22 71.41 92.73 71.24 92.37L70.81 91.43C70.68 91.18 70.52 90.8 70.31 90.31C70.1 89.82 69.84 89.15 69.51 88.31C69.18 87.47 68.84 86.56 68.45 85.58C68.06 84.6 67.75 83.76 67.53 83.07C67.3201 82.4125 67.1432 81.745 67 81.07C66.8336 80.249 66.73 79.4166 66.69 78.58C66.6306 77.8516 66.6106 77.1205 66.63 76.39C66.666 75.7954 66.7428 75.204 66.86 74.62C67.0339 73.8094 67.2989 73.021 67.65 72.27C67.9345 71.58 68.2687 70.9116 68.65 70.27C68.96 69.81 69.3 69.33 69.65 68.85C70 68.37 70.41 67.92 70.77 67.54L71.4 66.87L71.99 66.3C72.33 65.98 72.74 65.62 73.2 65.24C73.6909 64.8292 74.2087 64.4517 74.75 64.11C75.31 63.75 75.75 63.51 75.96 63.38C76.17 63.25 76.56 63.09 77.08 62.87C77.7249 62.6129 78.3953 62.4252 79.08 62.31C79.7384 62.1766 80.4081 62.1063 81.08 62.1H81.82C82.268 62.1461 82.7124 62.223 83.15 62.33C83.9469 62.4756 84.7298 62.6898 85.49 62.97C86.0987 63.1895 86.6932 63.4466 87.27 63.74C87.71 63.98 88.21 64.28 88.75 64.63C89.29 64.98 89.85 65.38 90.41 65.81C90.97 66.24 91.56 66.72 92.15 67.25C92.6695 67.7058 93.1636 68.1899 93.63 68.7C94.02 69.13 94.32 69.49 94.52 69.76C94.72 70.03 94.95 70.34 95.18 70.68C95.41 71.02 95.62 71.36 95.82 71.68C96.02 72 96.17 72.29 96.27 72.48C96.37 72.67 96.59 73.2 96.94 74.1C97.2035 74.7535 97.4306 75.4212 97.62 76.1C97.74 76.53 97.83 76.95 97.9 77.32C97.97 77.69 98.03 78.11 98.07 78.56C98.1025 79.1062 98.1025 79.6538 98.07 80.2C98.0639 80.7158 98.0205 81.2305 97.94 81.74C97.8049 82.8895 97.4876 84.0102 97 85.06C96.6692 85.8073 96.2779 86.5264 95.83 87.21C95.47 87.74 95.06 88.3 94.59 88.88C94.12 89.46 93.82 89.88 93.67 90L92.67 91.1C92.2183 91.6216 91.7976 92.1692 91.41 92.74C91.1314 93.135 90.8936 93.5571 90.7 94C90.5897 94.2524 90.5124 94.5179 90.47 94.79C90.47 95.02 90.47 95.15 90.47 95.17C90.47 95.19 90.47 95.29 90.47 95.46C90.47 95.63 90.47 95.81 90.53 95.92C90.5506 96.0116 90.5774 96.1018 90.61 96.19C90.6611 96.2995 90.7178 96.4063 90.78 96.51C90.9036 96.6995 91.0407 96.8799 91.19 97.05C91.38 97.3 91.64 97.59 91.95 97.92L93.61 99.69C94.05 100.16 94.31 100.46 94.41 100.59C94.51 100.72 94.6 100.88 94.7 101.06C94.8357 101.297 94.9592 101.54 95.07 101.79C95.3167 102.439 95.5074 103.108 95.64 103.79C95.9359 105.323 96.0932 106.879 96.11 108.44C96.19 110.44 96.21 112.02 96.19 113.01C96.17 114 96.12 114.86 96.06 115.57C96 116.28 95.93 117.22 95.83 118.38C95.73 119.54 95.61 120.92 95.47 122.56C95.33 124.2 95.16 126.21 94.94 128.56C94.72 130.91 94.58 133.24 94.48 135.38C94.38 137.52 94.35 139.16 94.36 140.22C94.37 141.28 94.36 142.03 94.36 142.45C94.36 142.87 94.36 143.3 94.36 143.74C94.36 144.18 94.36 144.96 94.48 146.09C94.6 147.22 94.59 148.25 94.64 149.19L94.74 151.42C94.74 151.97 94.74 153.23 94.82 155.17C94.9 157.11 94.82 159.11 94.82 161.09C94.82 163.07 94.82 164.57 94.76 165.56C94.7 166.55 94.76 167.37 94.71 168.03C94.66 168.69 94.71 170.78 94.71 174.27C94.71 177.76 94.71 180.45 94.8 182.27C94.89 184.09 94.86 185.54 94.87 186.44V189.32C94.87 190.32 94.87 191.44 94.87 192.57C94.87 193.7 94.87 194.57 94.87 195.29C94.87 196.01 94.81 197.05 94.74 198.58C94.67 200.11 94.62 202.11 94.58 204.58C94.54 207.05 94.58 209.18 94.58 210.95C94.58 212.72 94.58 214 94.58 214.74C94.58 215.48 94.58 216.43 94.66 217.6C94.74 218.77 94.73 219.41 94.73 219.5C94.73 219.59 94.73 220.19 94.81 221.31C94.89 222.43 94.9 223.31 94.94 223.89C94.98 224.47 94.99 224.89 95 225.23C94.985 225.426 94.985 225.624 95 225.82C95 225.93 95 226.18 95.11 226.56C95.22 226.94 95.21 227.21 95.22 227.33C95.2424 227.64 95.2424 227.95 95.22 228.26C95.1655 228.874 95.0618 229.483 94.91 230.08C94.73 230.79 94.51 231.52 94.25 232.24C93.99 232.96 93.78 233.48 93.63 233.8C93.48 234.12 93.26 234.59 92.94 235.18L92.47 236.07C92.2788 236.475 92.0651 236.869 91.83 237.25C91.41 238 91.08 238.56 90.83 238.95L90.15 240.05L89.56 241.05C89.37 241.36 89.07 241.88 88.64 242.61L87.55 244.53C87.25 245.08 87.06 245.42 86.99 245.53L86.36 246.66C86.01 247.3 85.69 247.91 85.36 248.49L84.69 249.79C84.54 250.07 84.41 250.3 84.31 250.47C84.21 250.64 84.08 250.85 83.93 251.12C83.78 251.39 83.65 251.62 83.54 251.83C83.43 252.04 83.22 252.45 82.93 253.04L81.8 255.04C81.7903 255.077 81.7715 255.111 81.7453 255.139C81.7191 255.167 81.6863 255.188 81.65 255.2ZM81.09 62.62C80.4756 62.6382 79.8637 62.7051 79.26 62.82C78.5987 62.9232 77.9512 63.101 77.33 63.35C76.84 63.56 76.47 63.73 76.25 63.85C76.03 63.97 75.63 64.2 75.08 64.55C74.5578 64.8817 74.0568 65.2458 73.58 65.64C73.13 66.02 72.73 66.37 72.4 66.64L71.81 67.21C71.75 67.21 71.55 67.48 71.2 67.86C70.85 68.24 70.48 68.66 70.1 69.14C69.72 69.62 69.39 70.08 69.1 70.52C68.7175 71.1297 68.3832 71.7683 68.1 72.43C67.7591 73.1475 67.504 73.9027 67.34 74.68C67.2306 75.2414 67.1571 75.8092 67.12 76.38C67.1008 77.0905 67.1208 77.8016 67.18 78.51C67.217 79.3453 67.3105 80.1772 67.46 81C67.6053 81.6755 67.7855 82.3431 68 83C68.21 83.67 68.52 84.51 68.9 85.48C69.28 86.45 69.65 87.37 69.97 88.21C70.29 89.05 70.56 89.71 70.76 90.21C70.96 90.71 71.13 91.06 71.25 91.31L71.69 92.25C71.86 92.63 72.06 93.12 72.27 93.73C72.4562 94.2314 72.6164 94.7421 72.75 95.26C72.85 95.68 72.91 95.94 72.93 96.07C72.9401 96.2131 72.9401 96.3568 72.93 96.5C72.9113 96.6546 72.8846 96.8081 72.85 96.96C72.85 97.11 72.74 97.31 72.65 97.55C72.56 97.79 72.4 98.11 72.19 98.55C71.98 98.99 71.88 99.19 71.87 99.21C71.86 99.23 71.87 99.32 71.61 99.8C71.46 100.12 71.33 100.44 71.22 100.74C71.1169 101.035 71.0301 101.335 70.96 101.64L70.78 102.49C70.72 102.72 70.64 103.2 70.54 103.9C70.44 104.6 70.34 105.4 70.26 106.27C70.18 107.14 70.12 108 70.09 108.82C70.06 109.64 70.03 110.68 70.01 111.9L70 115.43C70 116.58 70 117.61 70 118.52C70 119.43 70 120.81 69.91 122.66C69.82 124.51 69.8 126.03 69.74 127.19C69.68 128.35 69.61 129.99 69.55 132.06C69.49 134.13 69.41 136.28 69.33 138.47C69.25 140.66 69.18 142.41 69.12 143.7C69.06 144.99 69 146.29 68.93 147.62C68.86 148.95 68.77 150.77 68.66 153.09C68.55 155.41 68.49 157.35 68.49 158.89C68.49 160.43 68.49 162.62 68.67 165.41C68.85 168.2 68.94 170.68 69.09 172.76C69.24 174.84 69.35 176.93 69.41 178.96C69.47 180.99 69.41 183.07 69.41 185.16C69.41 187.25 69.25 188.92 69.13 190.16C69.01 191.4 68.86 193.16 68.65 195.48C68.44 197.8 68.32 199.43 68.29 200.29C68.26 201.15 68.29 201.77 68.23 202.14C68.17 202.51 68.23 203.19 68.23 204.19C68.23 205.19 68.3 206.51 68.4 208.19C68.5 209.87 68.58 210.93 68.63 211.36C68.68 211.79 68.72 212.52 68.76 213.49C68.8 214.46 68.86 215.62 68.92 216.98C68.98 218.34 69.04 219.31 69.08 219.87C69.12 220.43 69.22 221.18 69.35 222.08C69.48 222.98 69.58 223.63 69.66 224.08C69.74 224.53 69.82 224.83 69.88 225.14C69.94 225.45 70 225.7 70.06 225.9C70.12 226.1 70.29 226.64 70.59 227.52C70.89 228.4 71.1 228.97 71.19 229.22L72 231.34C72.45 232.52 72.84 233.52 73.17 234.34L73.89 236.21C74.04 236.63 74.24 237.11 74.48 237.65C74.72 238.19 75.07 239 75.55 240.03C76.03 241.06 76.42 241.93 76.73 242.67L77.64 244.79C77.94 245.47 78.34 246.43 78.86 247.67L80.51 251.67C80.99 252.83 81.41 253.78 81.74 254.48L82.63 252.92C82.91 252.33 83.12 251.92 83.24 251.7C83.36 251.48 83.48 251.25 83.64 250.98C83.8 250.71 83.92 250.49 84.02 250.33C84.12 250.17 84.24 249.94 84.39 249.66L85 248.3C85.29 247.72 85.62 247.1 86 246.46C86.38 245.82 86.57 245.46 86.63 245.31C86.69 245.16 86.89 244.87 87.19 244.31C87.49 243.75 87.85 243.11 88.28 242.38C88.71 241.65 89.01 241.12 89.2 240.82C89.39 240.52 89.58 240.18 89.8 239.82C90.02 239.46 90.23 239.12 90.47 238.73C90.71 238.34 91.03 237.79 91.47 237.05C91.91 236.31 92 236 92 236C92 236 92 236 92.49 235.06C92.8 234.48 93.03 234.06 93.17 233.72C93.31 233.38 93.51 232.9 93.77 232.19C94.03 231.48 94.24 230.77 94.41 230.08C94.5559 229.508 94.6595 228.927 94.72 228.34C94.7401 228.057 94.7401 227.773 94.72 227.49C94.6995 227.245 94.6661 227.001 94.62 226.76L94.5 226C94.5 225.88 94.5 225.67 94.5 225.36C94.5 225.05 94.5 224.62 94.44 224.03C94.38 223.44 94.36 222.58 94.31 221.46C94.26 220.34 94.24 219.72 94.23 219.64C94.22 219.56 94.23 218.92 94.16 217.74C94.09 216.56 94.09 215.6 94.08 214.86C94.07 214.12 94.08 212.86 94.08 211.07C94.08 209.28 94.08 207.15 94.08 204.7C94.08 202.25 94.18 200.23 94.24 198.7C94.3 197.17 94.35 196.08 94.37 195.41C94.39 194.74 94.37 193.85 94.37 192.71C94.37 191.57 94.37 190.49 94.37 189.46V186.58C94.37 185.69 94.37 184.3 94.3 182.42C94.23 180.54 94.23 177.91 94.21 174.36C94.19 170.81 94.21 168.78 94.21 168.11C94.21 167.44 94.21 166.62 94.26 165.64C94.31 164.66 94.26 163.16 94.32 161.17C94.38 159.18 94.32 157.17 94.32 155.27C94.32 153.37 94.26 152.08 94.24 151.53L94.14 149.3C94.14 148.36 94.04 147.3 93.98 146.21C93.92 145.12 93.87 144.29 93.86 143.85C93.85 143.41 93.86 142.97 93.86 142.54C93.86 142.11 93.86 141.38 93.86 140.31C93.86 139.24 93.86 137.61 93.98 135.45C94.1 133.29 94.23 131 94.45 128.61C94.67 126.22 94.84 124.2 94.97 122.56C95.1 120.92 95.23 119.56 95.33 118.38C95.43 117.2 95.51 116.3 95.56 115.58C95.61 114.86 95.66 114.02 95.69 113.04C95.72 112.06 95.69 110.54 95.61 108.51C95.5889 106.983 95.4383 105.461 95.16 103.96C95.0266 103.293 94.8393 102.637 94.6 102C94.47 101.71 94.35 101.49 94.25 101.31C94.15 101.13 94.06 101 93.98 100.88C93.9 100.76 93.75 100.59 93.22 100.03L91.56 98.26C91.25 97.92 90.98 97.62 90.78 97.37C90.6169 97.1801 90.4666 96.9797 90.33 96.77C90.2556 96.6441 90.1888 96.5139 90.13 96.38C90.0784 96.2563 90.035 96.1293 90 96C90 95.89 90 95.71 89.93 95.48C89.9059 95.3377 89.9059 95.1923 89.93 95.05C89.93 95.05 89.93 94.92 89.93 94.72C89.9669 94.4025 90.0512 94.0924 90.18 93.8C90.404 93.325 90.679 92.8757 91 92.46C91.4019 91.8764 91.8359 91.3155 92.3 90.78L93.3 89.67C93.45 89.5 93.75 89.13 94.21 88.57C94.67 88.01 95.08 87.45 95.43 86.93C95.8586 86.2662 96.2364 85.5709 96.56 84.85C96.8711 84.2216 97.1319 83.5696 97.34 82.9C97.4499 82.5047 97.5401 82.1042 97.61 81.7C97.6809 81.213 97.7209 80.722 97.73 80.23C97.7626 79.7038 97.7626 79.1761 97.73 78.65C97.73 78.22 97.64 77.81 97.57 77.45C97.5 77.09 97.41 76.69 97.3 76.27C97.19 75.85 96.96 75.2 96.63 74.33C96.3 73.46 96.08 72.94 95.99 72.76L95.47 72C95.28 71.66 95.07 71.33 94.84 71C94.61 70.67 94.4 70.37 94.2 70.1C94 69.83 93.72 69.49 93.34 69.1C92.96 68.71 92.48 68.21 91.9 67.69C91.32 67.17 90.74 66.69 90.19 66.27C89.64 65.85 89.09 65.47 88.56 65.12C88.0915 64.8058 87.6076 64.5154 87.11 64.25C86.5566 63.9666 85.9854 63.7194 85.4 63.51C84.6677 63.2331 83.911 63.0255 83.14 62.89L81.91 62.67C81.91 62.67 81.91 62.67 81.15 62.67L81.09 62.62Z" fill="white"/>
<path d="M250.17 253.34H117.17C116.375 253.34 115.611 253.024 115.049 252.461C114.486 251.899 114.17 251.136 114.17 250.34V63.34C114.17 62.5443 114.486 61.7813 115.049 61.2186C115.611 60.656 116.375 60.34 117.17 60.34H250.17C250.966 60.34 251.729 60.656 252.291 61.2186C252.854 61.7813 253.17 62.5443 253.17 63.34V250.34C253.17 251.136 252.854 251.899 252.291 252.461C251.729 253.024 250.966 253.34 250.17 253.34ZM120.17 247.34H247.17V66.34H120.17V247.34Z" fill="black"/>
<path d="M95.3 223H68.79C67.9944 223 67.2313 222.684 66.6687 222.121C66.1061 221.559 65.79 220.796 65.79 220V98.89C65.79 98.0944 66.1061 97.3313 66.6687 96.7687C67.2313 96.2061 67.9944 95.89 68.79 95.89H95.3C96.0957 95.89 96.8587 96.2061 97.4214 96.7687C97.984 97.3313 98.3 98.0944 98.3 98.89V220C98.3 220.796 97.984 221.559 97.4214 222.121C96.8587 222.684 96.0957 223 95.3 223ZM71.79 217H92.3V101.89H71.79V217Z" fill="black"/>
<path d="M82.06 257.57C81.5194 257.571 80.9886 257.425 80.5239 257.149C80.0592 256.872 79.6778 256.475 79.42 256L64.21 228C63.9543 227.54 63.8243 227.02 63.8331 226.493C63.8418 225.967 63.9891 225.452 64.26 225C64.5256 224.552 64.9031 224.181 65.3554 223.923C65.8078 223.666 66.3194 223.53 66.84 223.53H97.28C97.8058 223.526 98.3235 223.66 98.7813 223.918C99.239 224.177 99.6207 224.552 99.8881 225.004C100.155 225.457 100.299 225.972 100.305 226.498C100.31 227.024 100.178 227.542 99.92 228L84.7 256C84.4423 256.475 84.0609 256.872 83.5962 257.149C83.1315 257.425 82.6007 257.571 82.06 257.57ZM71.88 229.57L82.06 248.32L92.24 229.57H71.88Z" fill="black"/>
<path d="M82.2201 98.8H81.3501H80.8901H80.4501H80.0001H79.5701L79.1301 98.73L78.6901 98.65L78.2601 98.56L77.8201 98.46L77.3901 98.35L77.0001 98.06L76.5601 97.92L76.1601 97.79L75.7401 97.64L75.3101 97.48L74.9101 97.31L74.4901 97.13L74.0701 97L73.6601 96.8L73.2601 96.59L72.8801 96.38L71.7501 95.69L71.3701 95.43L70.0001 94.29L69.6001 94L69.2801 93.71L68.9401 93.39L68.3301 92.77C68.2201 92.66 68.1201 92.54 68.0201 92.43L67.7301 92.1C67.6201 91.98 67.5201 91.87 67.4301 91.75C67.3295 91.6393 67.236 91.5224 67.1501 91.4L66.8701 91L66.6101 90.64L65.8701 89.53C65.7701 89.38 65.7001 89.25 65.6201 89.12C65.5401 88.99 65.4801 88.87 65.4001 88.74L65.1701 88.33C65.1701 88.22 65.0401 88.08 64.9801 87.94L64.7701 87.53L64.4001 86.71C64.3357 86.5698 64.2789 86.4263 64.2301 86.28C64.2301 86.16 64.1201 86.02 64.0701 85.87C64.0201 85.72 63.9601 85.59 63.9101 85.44L63.7601 85.01L63.1901 82.83C63.1901 82.68 63.1201 82.53 63.1001 82.38C63.0801 82.23 63.0001 82.12 63.0001 82C63.0001 81.88 62.9501 81.71 62.9301 81.56L62.8701 81.1C62.8701 80.96 62.8701 80.81 62.8701 80.66C62.8701 80.51 62.8701 80.36 62.8701 80.2C62.8701 80.04 62.8701 79.9 62.8701 79.74C62.8701 79.58 62.8701 79.45 62.8701 79.29V78.84C62.86 78.6835 62.86 78.5265 62.8701 78.37V77.94V77.48C62.8701 77.34 62.8701 77.18 62.8701 77.02C62.8701 76.86 62.8701 76.73 62.8701 76.58C62.8701 76.43 62.8701 76.27 62.8701 76.12L62.9301 75.68C62.9301 75.52 62.9301 75.37 63.0001 75.22C63.0701 75.07 63.0001 74.93 63.0801 74.78C63.1601 74.63 63.1401 74.48 63.1701 74.33L63.7501 72.16C63.7911 72.0072 63.8412 71.8569 63.9001 71.71C63.9427 71.5675 63.9928 71.4273 64.0501 71.29C64.1001 71.15 64.1601 71 64.2201 70.86C64.269 70.717 64.3257 70.5768 64.3901 70.44L64.5601 70.04L64.7601 69.62C64.8201 69.49 64.8901 69.35 64.9601 69.22C65.0301 69.09 65.1001 68.95 65.1701 68.81C65.2401 68.67 65.3001 68.56 65.3801 68.43L65.6101 68.03L65.8301 67.66L66.3201 66.91L66.5901 66.52L66.8501 66.17L67.1301 65.81L67.4201 65.45L67.7001 65.12L68.0101 64.77L68.9301 63.82L69.2701 63.5L69.6001 63.2L69.9401 62.91L70.2701 62.63L70.6401 62.35L71.3601 61.82L71.7201 61.58L72.1001 61.33L73.2501 60.66L73.6501 60.45L74.0501 60.26L75.2601 59.73L75.6901 59.56L77.8001 58.92L78.2501 58.82L78.6701 58.74L79.1201 58.66L79.5601 58.59L80.0001 58.5H80.4301H80.8801H81.3301H83.1001H83.5401H83.9801H84.4001L84.8801 58.56L85.3001 58.63L85.7301 58.7L86.1901 58.8L86.6101 58.89L87.0001 59L87.4301 59.12L87.8601 59.25L88.7001 59.54L89.1201 59.7L91.1201 60.63L91.5201 60.85L91.9101 61.07L92.6601 61.55L93.0301 61.8L93.7501 62.32L94.1101 62.6L94.4501 62.89L94.7901 63.18L95.1301 63.48L96.6801 65.09L96.9801 65.44L97.2601 65.78C97.3401 65.9 97.4401 66.02 97.5301 66.14L97.7901 66.5L98.0601 66.88L98.3001 67.23L98.5501 67.62C98.6201 67.75 98.7001 67.88 98.7801 68.01L99.0101 68.4L99.2201 68.79L99.8201 70.01L100.01 70.44L100.17 70.84L100.33 71.26C100.39 71.4 100.44 71.55 100.49 71.69C100.54 71.83 100.59 71.97 100.63 72.12L101.12 73.86C101.12 74.01 101.19 74.17 101.22 74.32C101.25 74.47 101.28 74.6 101.3 74.75L101.51 76.09C101.51 76.24 101.51 76.4 101.51 76.55V76.99V77.46C101.51 77.6 101.51 77.76 101.51 77.91C101.51 78.06 101.51 78.21 101.51 78.37V78.82C101.51 78.96 101.51 79.12 101.51 79.27C101.51 79.42 101.51 79.57 101.51 79.73V80.17V80.62C101.51 80.78 101.51 80.93 101.51 81.08L101.31 82.42L101.22 82.88C101.22 83.01 101.15 83.16 101.12 83.32L100.9 84.19C100.9 84.33 100.82 84.47 100.77 84.62L100.63 85.06C100.63 85.2 100.54 85.35 100.49 85.49C100.44 85.63 100.39 85.77 100.33 85.92L100.18 86.32C100.11 86.48 100.06 86.62 100 86.76C99.9401 86.9 99.8801 87.03 99.8201 87.17C99.7601 87.31 99.6901 87.45 99.6201 87.59L99.4301 87.99L99.2201 88.38C99.1501 88.52 99.0801 88.65 99.0001 88.78L98.7701 89.18L98.5501 89.54C98.4749 89.6751 98.3914 89.8053 98.3001 89.93L98.0501 90.31L97.7901 90.68C97.7065 90.8047 97.6164 90.9249 97.5201 91.04C97.4401 91.16 97.3401 91.28 97.2501 91.4L96.9601 91.76L96.6701 92.1L96.3801 92.42L96.0801 92.76L95.4501 93.39L95.1201 93.7L94.7801 94.01L94.4501 94.29L94.1001 94.58L93.7501 94.85L93.0301 95.38L92.6601 95.63L91.1301 96.54C91.0001 96.62 90.8701 96.68 90.7301 96.75L89.9301 97.14L89.5301 97.31L89.1101 97.48L88.6901 97.64L88.2701 97.79L87.8501 97.93L87.4301 98.06L87.0001 98.18L86.5701 98.28L86.1501 98.38C86.0001 98.38 85.8501 98.45 85.7001 98.47L85.2601 98.55L84.8201 98.62H84.3901H83.9501H83.5201H83.0701L82.2201 98.8ZM82.2201 64.37L80.1201 64.55L77.7801 65.17L75.5801 66.17L73.5801 67.62L71.8601 69.44L70.4801 71.6L69.4801 73.96L68.8901 76.49L68.7501 78.42C68.74 78.5231 68.74 78.6269 68.7501 78.73L68.9401 81L69.5701 83.5L70.6301 85.84L72.0501 87.91L73.8201 89.7L75.8201 91.11L78.0501 92.11L80.3901 92.68L82.2001 92.8L84.6001 92.58L86.9201 91.91L89.1101 90.8L91.1101 89.29L92.7901 87.43L94.1401 85.27L95.0001 83.2L95.5801 80.69L95.7301 78.43L95.4801 75.86L94.7901 73.38L93.6801 71.07L92.4201 69.27L90.6601 67.49L88.6601 66.08L86.7301 65.18L84.3801 64.56L82.2201 64.37Z" fill="black"/>
<path d="M144.1 98.1C143.039 98.1 142.022 97.6786 141.272 96.9284C140.522 96.1783 140.1 95.1609 140.1 94.1C140.1 93.0391 140.522 92.0217 141.272 91.2716C142.022 90.5214 143.039 90.1 144.1 90.1L231.21 90C232.271 90 233.288 90.4214 234.039 91.1716C234.789 91.9217 235.21 92.9391 235.21 94C235.21 95.0609 234.789 96.0783 234.039 96.8284C233.288 97.5786 232.271 98 231.21 98L144.11 98.08L144.1 98.1Z" fill="url(#paint1_linear)"/>
<path d="M145.53 127.34C144.469 127.34 143.452 126.919 142.702 126.168C141.951 125.418 141.53 124.401 141.53 123.34C141.53 122.279 141.951 121.262 142.702 120.512C143.452 119.761 144.469 119.34 145.53 119.34L232.64 119.25C233.701 119.25 234.718 119.671 235.468 120.422C236.219 121.172 236.64 122.189 236.64 123.25C236.64 124.311 236.219 125.328 235.468 126.078C234.718 126.829 233.701 127.25 232.64 127.25L145.54 127.34H145.53Z" fill="url(#paint2_linear)"/>
<path d="M144.94 154.89C143.879 154.89 142.862 154.469 142.112 153.718C141.361 152.968 140.94 151.951 140.94 150.89C140.94 149.829 141.361 148.812 142.112 148.062C142.862 147.311 143.879 146.89 144.94 146.89L232 146.8C233.061 146.8 234.078 147.221 234.828 147.972C235.579 148.722 236 149.739 236 150.8C236 151.861 235.579 152.878 234.828 153.628C234.078 154.379 233.061 154.8 232 154.8L144.89 154.89H144.94Z" fill="url(#paint3_linear)"/>
<path d="M145.84 183.64C144.779 183.64 143.762 183.219 143.012 182.468C142.262 181.718 141.84 180.701 141.84 179.64C141.84 178.579 142.262 177.562 143.012 176.812C143.762 176.061 144.779 175.64 145.84 175.64L232.95 175.55C234.011 175.55 235.028 175.971 235.779 176.722C236.529 177.472 236.95 178.489 236.95 179.55C236.95 180.611 236.529 181.628 235.779 182.378C235.028 183.129 234.011 183.55 232.95 183.55L145.84 183.64Z" fill="url(#paint4_linear)"/>
<path d="M145.24 211.19C144.179 211.19 143.162 210.769 142.412 210.018C141.661 209.268 141.24 208.251 141.24 207.19C141.24 206.129 141.661 205.112 142.412 204.362C143.162 203.611 144.179 203.19 145.24 203.19L232.34 203.1C233.401 203.1 234.418 203.521 235.168 204.272C235.919 205.022 236.34 206.039 236.34 207.1C236.34 208.161 235.919 209.178 235.168 209.928C234.418 210.679 233.401 211.1 232.34 211.1L145.23 211.19H145.24Z" fill="url(#paint5_linear)"/>
<defs>
<linearGradient id="paint0_linear" x1="157.863" y1="3.64001" x2="157.863" y2="312.34" gradientUnits="userSpaceOnUse">
<stop stop-color="#E4BBFA"/>
<stop offset="1" stop-color="#A7D3FF"/>
</linearGradient>
<linearGradient id="paint1_linear" x1="187.655" y1="90" x2="187.655" y2="98.1" gradientUnits="userSpaceOnUse">
<stop stop-color="#E4BBFA"/>
<stop offset="1" stop-color="#A7D3FF"/>
</linearGradient>
<linearGradient id="paint2_linear" x1="189.085" y1="119.25" x2="189.085" y2="127.34" gradientUnits="userSpaceOnUse">
<stop stop-color="#E4BBFA"/>
<stop offset="1" stop-color="#A7D3FF"/>
</linearGradient>
<linearGradient id="paint3_linear" x1="188.47" y1="146.8" x2="188.47" y2="154.89" gradientUnits="userSpaceOnUse">
<stop stop-color="#E4BBFA"/>
<stop offset="1" stop-color="#A7D3FF"/>
</linearGradient>
<linearGradient id="paint4_linear" x1="189.395" y1="175.55" x2="189.395" y2="183.64" gradientUnits="userSpaceOnUse">
<stop stop-color="#E4BBFA"/>
<stop offset="1" stop-color="#A7D3FF"/>
</linearGradient>
<linearGradient id="paint5_linear" x1="188.79" y1="203.1" x2="188.79" y2="211.19" gradientUnits="userSpaceOnUse">
<stop stop-color="#E4BBFA"/>
<stop offset="1" stop-color="#A7D3FF"/>
</linearGradient>
</defs>
</svg>
