<svg width="411" height="731" viewBox="0 0 411 731" fill="none" xmlns="http://www.w3.org/2000/svg">
<g clip-path="url(#clip0)">
<rect width="411" height="731" fill="white"/>
<rect width="411" height="731" fill="url(#paint0_linear)" fill-opacity="0.8"/>
<path d="M359.836 540.038C361.83 539.634 363.862 539.439 365.897 539.454C365.897 539.454 370.727 539.361 371.692 539.006C372.657 538.651 373.219 537.782 373.456 535.038L373.889 527.748C373.889 527.748 373.919 524.604 375.963 523.84C375.963 523.84 376.789 523.939 376.613 525.303C376.613 525.303 376.561 530.44 376.914 538.346C376.914 538.346 377.53 541.196 374.313 543.283C374.313 543.283 368.696 545.825 365.635 546.688C362.574 547.552 358.007 549.023 355.2 551.381C353.455 551.132 351.779 550.525 350.28 549.598C348.78 548.671 347.489 547.443 346.487 545.992L348.894 540.091C348.894 540.091 349.029 539.671 349.33 539.05" stroke="#CBCBCB" stroke-miterlimit="10"/>
<path d="M353.372 541.787C353.372 541.787 354.532 541.349 356.319 540.852" stroke="#CBCBCB" stroke-miterlimit="10"/>
<path d="M376.769 540.805C376.94 540.967 377.16 541.067 377.394 541.089C377.629 541.112 377.864 541.055 378.062 540.928C378.062 540.928 381.022 540.479 380.428 536.706C380.428 536.706 380.146 530.949 381.768 522.029L381.894 521.42C381.894 521.42 382.325 518.269 380.051 520.473C379.811 520.705 379.627 520.99 379.514 521.304L377.465 527.064C377.401 527.246 377.35 527.433 377.313 527.623C377.097 528.723 376.469 532.693 377.047 538.964" stroke="#CBCBCB" stroke-miterlimit="10"/>
<path d="M381.058 528.039L383.178 522.877C383.178 522.877 385.783 520.058 386.411 521.78C386.411 521.78 382.421 531.566 382.365 534.854C382.365 534.854 381.948 537.67 380.709 537.459" stroke="#CBCBCB" stroke-miterlimit="10"/>
<path d="M384.611 527.025C384.611 527.025 386.958 525.4 386.677 527.666C386.677 527.666 384.551 531.302 383.941 533.492C383.941 533.492 383.548 534.821 382.583 534.665" stroke="#CBCBCB" stroke-miterlimit="10"/>
<path d="M355.998 550.945C355.998 550.945 357.646 554.242 355.152 555.347C352.658 556.452 347.469 554.531 347.469 554.531C347.469 554.531 343.026 552.769 342.183 550.938L343.975 546.088C344.293 545.513 344.722 545.008 345.238 544.602C345.753 544.195 346.345 543.896 346.978 543.722L347.188 543.799" stroke="#CBCBCB" stroke-miterlimit="10"/>
<path d="M345.736 544.352C345.736 544.352 346.047 549.351 355.149 551.66C355.149 551.66 355.401 551.666 355.599 551.214" stroke="#CBCBCB" stroke-miterlimit="10"/>
<path d="M351.026 509.385C350.246 509.415 349.17 509.402 348.551 509.191" stroke="#CBCBCB" stroke-miterlimit="10"/>
<path d="M368.434 502.718C368.434 502.718 361.89 505.184 355.917 505.061C355.917 505.061 351.087 505.153 350.122 505.509C349.157 505.864 348.589 506.735 348.356 509.474L347.924 516.764C347.924 516.764 347.892 519.912 345.849 520.671C345.849 520.671 345.023 520.573 345.199 519.209C345.199 519.209 345.251 514.072 344.899 506.166C344.899 506.166 344.283 503.316 347.498 501.226C347.498 501.226 353.116 498.687 356.176 497.821C359.236 496.955 363.804 495.486 366.612 493.131C368.358 493.38 370.034 493.987 371.534 494.915C373.034 495.843 374.325 497.071 375.327 498.523L372.929 504.423C372.929 504.423 372.838 504.688 372.655 505.104" stroke="#CBCBCB" stroke-miterlimit="10"/>
<path d="M345.04 503.699C344.868 503.537 344.648 503.437 344.413 503.415C344.178 503.393 343.942 503.45 343.743 503.577C343.743 503.577 340.78 504.025 341.379 507.795C341.379 507.795 341.669 513.568 340.041 522.474L339.91 523.082C339.91 523.082 339.483 526.232 341.755 524.032C341.997 523.799 342.181 523.514 342.293 523.197L344.33 517.446C344.396 517.264 344.448 517.076 344.485 516.886C344.708 515.779 345.344 511.805 344.759 505.541" stroke="#CBCBCB" stroke-miterlimit="10"/>
<path d="M340.751 516.465L338.629 521.624C338.629 521.624 336.026 524.446 335.401 522.732C335.401 522.732 339.391 512.946 339.447 509.658C339.447 509.658 339.864 506.842 341.103 507.053" stroke="#CBCBCB" stroke-miterlimit="10"/>
<path d="M337.195 517.48C337.195 517.48 334.851 519.103 335.131 516.838C335.131 516.838 337.257 513.199 337.865 511.013C337.865 511.013 338.261 509.683 339.224 509.837" stroke="#CBCBCB" stroke-miterlimit="10"/>
<path d="M365.822 493.554C365.822 493.554 364.163 490.261 366.654 489.158C369.146 488.054 374.345 489.97 374.345 489.97C374.345 489.97 378.788 491.733 379.631 493.563L377.831 498.417C377.513 498.991 377.084 499.496 376.569 499.902C376.054 500.308 375.463 500.607 374.831 500.782L374.62 500.702" stroke="#CBCBCB" stroke-miterlimit="10"/>
<path d="M376.076 500.15C376.076 500.15 375.763 495.149 366.665 492.841C366.665 492.841 366.413 492.835 366.201 493.294" stroke="#CBCBCB" stroke-miterlimit="10"/>
<path d="M343.761 523.634C343.761 523.634 340.157 526.122 341.907 528.52C341.907 528.52 343.602 531.162 347.394 529.129" stroke="#CBCBCB" stroke-miterlimit="10"/>
<path d="M347.239 526.175C347.239 526.175 346.655 530.381 350.829 530.453C350.829 530.453 356.601 529.69 354.651 524.917" stroke="#CBCBCB" stroke-miterlimit="10"/>
<path d="M351.597 524.291C351.597 524.291 355.973 526.586 357.558 520.952" stroke="#CBCBCB" stroke-miterlimit="10"/>
<path d="M354.686 524.98C354.686 524.98 356.665 528.867 360.567 526.979C360.567 526.979 363.607 525.092 364.52 523.097C365.433 521.102 365.931 521.227 366.653 520.849C366.653 520.849 364.107 517.177 368.291 514.747" stroke="#CBCBCB" stroke-miterlimit="10"/>
<path d="M366.68 520.958C366.68 520.958 369.45 523.293 372.244 521.82C375.039 520.348 375.939 518.24 375.576 516.623C375.576 516.623 376.062 519.299 379.567 516.427C383.073 513.554 380.423 510.199 378.982 509.805C378.982 509.805 379.359 503.949 374.019 504.722C374.019 504.722 372.53 505.01 371.821 505.458C371.821 505.458 369.943 501.128 364.653 504.342C364.653 504.342 363.378 505.431 363.012 506.623C363.012 506.623 364.68 508.881 363.563 511.137" stroke="#CBCBCB" stroke-miterlimit="10"/>
<path d="M360.314 513.633C360.314 513.633 361.409 511.328 363.585 511.472C365.761 511.616 366.135 513.035 366.135 513.035" stroke="#CBCBCB" stroke-miterlimit="10"/>
<path d="M354.867 510.088C354.867 510.088 356.144 504.306 362.911 506.755" stroke="#CBCBCB" stroke-miterlimit="10"/>
<path d="M347.966 516.4C348.384 516.825 348.869 517.178 349.402 517.446" stroke="#CBCBCB" stroke-miterlimit="10"/>
<path d="M354.924 509.422C354.924 509.422 350.794 508.133 348.233 511.516" stroke="#CBCBCB" stroke-miterlimit="10"/>
<path d="M352.598 515.641C352.598 515.641 346.598 516.95 349.554 521.799" stroke="#CBCBCB" stroke-miterlimit="10"/>
<path d="M342.448 522.971C342.573 523.255 342.717 523.53 342.882 523.792C342.882 523.792 342.82 524.08 344.075 523.49" stroke="#CBCBCB" stroke-miterlimit="10"/>
<path d="M345.196 516.848C344.878 517.034 344.571 517.238 344.276 517.458" stroke="#CBCBCB" stroke-miterlimit="10"/>
<path d="M357.567 516.977C357.567 516.977 362.675 514.443 363.27 519.836" stroke="#CBCBCB" stroke-miterlimit="10"/>
<path d="M370.845 517.91C370.845 517.91 373.538 515.096 371.553 512.357" stroke="#CBCBCB" stroke-miterlimit="10"/>
<path d="M374.776 510.877C374.776 510.877 378.684 509.92 377.996 513.596" stroke="#CBCBCB" stroke-miterlimit="10"/>
<path d="M377.655 511.279C378.136 510.754 378.584 510.2 378.995 509.619" stroke="#CBCBCB" stroke-miterlimit="10"/>
<path d="M368.324 507.657C368.377 507.738 372.75 504.84 373.55 508.567" stroke="#CBCBCB" stroke-miterlimit="10"/>
<path d="M371.639 506.575L371.783 505.561" stroke="#CBCBCB" stroke-miterlimit="10"/>
<path d="M344.211 530.026C344.211 530.026 343.249 533.205 346.121 533.934L346.403 534.077C346.403 534.077 345.786 538.006 348.386 538.923C351.175 539.907 352.332 538.876 353.439 537.717C353.489 537.668 353.571 537.683 353.563 537.752C353.51 538.369 353.67 538.985 354.016 539.498C354.363 540.011 354.875 540.39 355.467 540.571C357.676 541.343 361.682 539.5 362.076 537.632" stroke="#CBCBCB" stroke-miterlimit="10"/>
<path d="M361.328 533.068C361.328 533.068 360.236 536.087 362.108 537.489C363.981 538.892 369.746 538.149 369.984 533.311" stroke="#CBCBCB" stroke-miterlimit="10"/>
<path d="M377.058 528.226C376.969 528.099 376.87 527.979 376.765 527.865" stroke="#CBCBCB" stroke-miterlimit="10"/>
<path d="M369.735 534.709C370.887 535.073 372.112 535.144 373.299 534.917" stroke="#CBCBCB" stroke-miterlimit="10"/>
<path d="M381.26 526.082C381.764 525.659 382.16 525.123 382.417 524.517C382.417 524.517 383.097 523.036 382.097 521.054" stroke="#CBCBCB" stroke-miterlimit="10"/>
<path d="M381.888 519.809C382.806 518.858 383.691 517.394 382.684 515.833C382.244 515.302 381.661 514.909 381.004 514.699" stroke="#CBCBCB" stroke-miterlimit="10"/>
<path d="M346.728 531.503C346.411 531.527 346.879 533.707 350.2 533.186" stroke="#CBCBCB" stroke-miterlimit="10"/>
<path d="M346.449 534.006L347.435 532.818" stroke="#CBCBCB" stroke-miterlimit="10"/>
<path d="M352.758 530.881C352.758 530.881 353.478 532.794 355.469 532.708" stroke="#CBCBCB" stroke-miterlimit="10"/>
<path d="M351.382 535.756C351.39 535.91 352.47 539.334 356.701 536.519" stroke="#CBCBCB" stroke-miterlimit="10"/>
<path d="M358.841 531.157C358.901 531.352 361.083 535.516 364.426 530.943" stroke="#CBCBCB" stroke-miterlimit="10"/>
<path d="M375.718 523.772C375.581 523.31 375.39 522.865 375.148 522.447" stroke="#CBCBCB" stroke-miterlimit="10"/>
<path d="M372.124 528.806C372.681 528.634 373.215 528.396 373.715 528.097" stroke="#CBCBCB" stroke-miterlimit="10"/>
<path d="M367.219 527.302C367.219 527.302 364.473 528.615 362.011 526.109" stroke="#CBCBCB" stroke-miterlimit="10"/>
<path d="M4.81828 99.3141C5.69229 99.7357 6.52024 100.247 7.28884 100.839C7.28884 100.839 9.1503 102.196 9.61939 102.339C10.0885 102.482 10.5522 102.314 11.4331 101.34L13.6984 98.6958C13.6984 98.6958 14.616 97.5101 15.6125 97.8092C15.6125 97.8092 15.8979 98.085 15.4378 98.5523C15.4378 98.5523 13.9378 100.488 11.7933 103.593C11.7933 103.593 11.2057 104.854 9.38225 104.719C9.38225 104.719 6.51635 104.066 5.10464 103.512C3.69294 102.958 1.53427 102.2 -0.211447 102.287C-0.802985 101.69 -1.26446 100.976 -1.56684 100.192C-1.86921 99.4073 -2.00594 98.5687 -1.96841 97.7288L0.646688 96.1808C0.646688 96.1808 0.818948 96.0603 1.11251 95.9113" stroke="#CBCBCB" stroke-miterlimit="10"/>
<path d="M1.85901 98.116C1.85901 98.116 2.42602 98.2838 3.2477 98.6098" stroke="#CBCBCB" stroke-miterlimit="10"/>
<path d="M11.0295 104.486C11.0477 104.596 11.1025 104.698 11.1851 104.774C11.2678 104.85 11.3735 104.896 11.4854 104.905C11.4854 104.905 12.7392 105.588 13.6009 103.983C13.6009 103.983 15.1525 101.715 18.3394 98.7943L18.5631 98.5993C18.5631 98.5993 19.6347 97.5263 18.1358 97.7084C17.9776 97.7274 17.826 97.7825 17.6925 97.8694L15.2543 99.4667C15.1773 99.5176 15.104 99.5738 15.0351 99.6351C14.6361 99.9908 13.2533 101.318 11.6658 103.867" stroke="#CBCBCB" stroke-miterlimit="10"/>
<path d="M16.3378 100.873L18.631 99.5227C18.631 99.5227 20.4328 99.2024 20.1751 100.038C20.1751 100.038 15.8392 102.605 14.8705 103.838C14.8705 103.838 13.9004 104.788 13.4905 104.351" stroke="#CBCBCB" stroke-miterlimit="10"/>
<path d="M17.9797 101.511C17.9797 101.511 19.3394 101.57 18.5801 102.35C18.5801 102.35 16.7243 103.118 15.8613 103.775C15.8613 103.775 15.3291 104.166 15.0079 103.829" stroke="#CBCBCB" stroke-miterlimit="10"/>
<path d="M0.216922 102.351C0.216922 102.351 -0.107251 104.079 -1.37306 103.78C-2.63887 103.481 -4.05627 101.255 -4.05627 101.255C-4.05627 101.255 -5.23619 99.3056 -5.02853 98.3675L-2.95021 97.0413C-2.66392 96.9147 -2.35522 96.8465 -2.04222 96.8408C-1.72923 96.8351 -1.41825 96.8919 -1.12752 97.008L-1.07025 97.0978" stroke="#CBCBCB" stroke-miterlimit="10"/>
<path d="M-1.78117 96.8895C-1.78117 96.8895 -3.10352 98.878 -0.311733 102.378C-0.311733 102.378 -0.217629 102.453 -0.0117561 102.339" stroke="#CBCBCB" stroke-miterlimit="10"/>
<path d="M10.3058 85.1313C10.0007 84.9182 9.5959 84.6029 9.42163 84.3445" stroke="#CBCBCB" stroke-miterlimit="10"/>
<path d="M18.8398 87.6158C18.8398 87.6158 15.6434 86.6666 13.4101 84.8984C13.4101 84.8984 11.5486 83.5416 11.0795 83.3985C10.6104 83.2553 10.1439 83.4228 9.26612 84.396L7.00081 87.0405C7.00081 87.0405 6.08157 88.2273 5.08679 87.927C5.08679 87.927 4.80135 87.6513 5.26146 87.1839C5.26146 87.1839 6.76145 85.2479 8.90597 82.1429C8.90597 82.1429 9.49354 80.8827 11.3173 81.0156C11.3173 81.0156 14.1829 81.6703 15.5949 82.223C17.0069 82.7758 19.1653 83.5345 20.9107 83.4492C21.5024 84.0468 21.964 84.7604 22.2663 85.5451C22.5686 86.3299 22.7052 87.1687 22.6673 88.0088L20.0561 89.5591C20.0561 89.5591 19.945 89.6335 19.7558 89.7387" stroke="#CBCBCB" stroke-miterlimit="10"/>
<path d="M9.67067 81.2465C9.65218 81.1356 9.59714 81.0339 9.51428 80.9578C9.43143 80.8817 9.32551 80.8355 9.21337 80.8265C9.21337 80.8265 7.9585 80.1426 7.09957 81.7474C7.09957 81.7474 5.54606 84.0239 2.36075 86.9378L2.13598 87.1312C2.13598 87.1312 1.06571 88.2044 2.56299 88.0234C2.72195 88.005 2.87436 87.9495 3.00794 87.8614L5.43891 86.2639C5.51665 86.2136 5.59041 86.1574 5.65954 86.0958C6.06301 85.7396 7.44989 84.4133 9.03293 81.8653" stroke="#CBCBCB" stroke-miterlimit="10"/>
<path d="M4.36241 84.8595L2.06951 86.208C2.06951 86.208 0.267404 86.5297 0.524176 85.6986C0.524176 85.6986 4.86002 83.131 5.82871 81.8984C5.82871 81.8984 6.79887 80.9486 7.2087 81.3858" stroke="#CBCBCB" stroke-miterlimit="10"/>
<path d="M2.71909 84.2206C2.71909 84.2206 1.36083 84.1616 2.12007 83.382C2.12007 83.382 3.97623 82.6122 4.83748 81.9571C4.83748 81.9571 5.37104 81.5657 5.69261 81.9018" stroke="#CBCBCB" stroke-miterlimit="10"/>
<path d="M20.4888 83.382C20.4888 83.382 20.8074 81.6533 22.0719 81.9521C23.3363 82.2509 24.7592 84.4773 24.7592 84.4773C24.7592 84.4773 25.9392 86.4271 25.7315 87.3653L23.649 88.6905C23.3629 88.8169 23.0545 88.885 22.7417 88.8907C22.429 88.8965 22.1183 88.8398 21.8277 88.7241L21.7708 88.6329" stroke="#CBCBCB" stroke-miterlimit="10"/>
<path d="M22.4828 88.8428C22.4828 88.8428 23.8054 86.853 21.0147 83.3543C21.0147 83.3543 20.9206 83.2796 20.7078 83.3926" stroke="#CBCBCB" stroke-miterlimit="10"/>
<path d="M3.43948 88.4503C3.43948 88.4503 1.35367 88.3569 1.32725 89.7719C1.32725 89.7719 1.20946 91.2642 3.23626 91.5847" stroke="#CBCBCB" stroke-miterlimit="10"/>
<path d="M4.02883 90.4179C4.02883 90.4179 2.59441 91.8473 4.1593 93.0773C4.1593 93.0773 6.57161 94.4513 7.20652 92.0763" stroke="#CBCBCB" stroke-miterlimit="10"/>
<path d="M6.22675 90.9583C6.22675 90.9583 7.22782 93.0913 9.45369 91.4077" stroke="#CBCBCB" stroke-miterlimit="10"/>
<path d="M7.20191 92.1102C7.20191 92.1102 6.83329 94.1569 8.8597 94.5647C8.8597 94.5647 10.5583 94.7238 11.4801 94.2291C12.4019 93.7344 12.5547 93.9254 12.9379 93.9899C12.9379 93.9899 13.0291 91.8613 15.319 92.144" stroke="#CBCBCB" stroke-miterlimit="10"/>
<path d="M12.9168 94.0391C12.9168 94.0391 13.2964 95.7244 14.7821 95.9703C16.2679 96.2162 17.2174 95.6752 17.5455 94.9559C17.5455 94.9559 16.9589 96.113 19.1183 96.032C21.2777 95.9509 21.2382 93.9129 20.8042 93.3481C20.8042 93.3481 22.6352 91.232 20.3836 89.9868C20.3836 89.9868 19.7353 89.6671 19.3367 89.6327C19.3367 89.6327 19.8716 87.4467 16.9355 87.1432C16.9355 87.1432 16.1377 87.1894 15.6547 87.5366C15.6547 87.5366 15.6379 88.8751 14.563 89.4102" stroke="#CBCBCB" stroke-miterlimit="10"/>
<path d="M12.6097 89.4218C12.6097 89.4218 13.6901 88.8618 14.4752 89.5436C15.2603 90.2255 14.9934 90.8724 14.9934 90.8724" stroke="#CBCBCB" stroke-miterlimit="10"/>
<path d="M11.5622 86.5056C11.5622 86.5056 13.7138 84.6774 15.5787 87.5577" stroke="#CBCBCB" stroke-miterlimit="10"/>
<path d="M7.12189 86.9144C7.15825 87.1963 7.24071 87.4703 7.36599 87.7254" stroke="#CBCBCB" stroke-miterlimit="10"/>
<path d="M11.7761 86.2691C11.7761 86.2691 10.5787 84.589 8.63064 85.1361" stroke="#CBCBCB" stroke-miterlimit="10"/>
<path d="M9.10011 87.9608C9.10011 87.9608 6.44371 86.7293 6.1692 89.4229" stroke="#CBCBCB" stroke-miterlimit="10"/>
<path d="M3.13204 87.8203C3.09744 87.964 3.0734 88.11 3.06009 88.2571C3.06009 88.2571 2.95395 88.3486 3.60048 88.4859" stroke="#CBCBCB" stroke-miterlimit="10"/>
<path d="M5.9406 86.286C5.76621 86.2652 5.59079 86.254 5.41517 86.2527" stroke="#CBCBCB" stroke-miterlimit="10"/>
<path d="M10.6025 89.9005C10.6025 89.9005 13.2731 90.4101 11.9447 92.6302" stroke="#CBCBCB" stroke-miterlimit="10"/>
<path d="M15.3778 94.0816C15.3778 94.0816 17.2114 93.7887 17.2466 92.1762" stroke="#CBCBCB" stroke-miterlimit="10"/>
<path d="M18.8977 92.5432C18.8977 92.5432 20.6578 93.3054 19.3372 94.5038" stroke="#CBCBCB" stroke-miterlimit="10"/>
<path d="M19.8755 93.5253C20.2094 93.4647 20.5391 93.383 20.8627 93.2809" stroke="#CBCBCB" stroke-miterlimit="10"/>
<path d="M17.3746 89.4605C17.3717 89.5064 19.868 89.6659 19.0974 91.3121" stroke="#CBCBCB" stroke-miterlimit="10"/>
<path d="M18.9457 90.0048L19.2926 89.6608" stroke="#CBCBCB" stroke-miterlimit="10"/>
<path d="M1.76843 91.0079C1.76843 91.0079 0.486681 91.9383 1.36743 93.0431L1.43352 93.1785C1.43352 93.1785 0.0666831 94.4933 0.790328 95.591C1.56615 96.7687 2.30256 96.7104 3.05726 96.5892C3.09025 96.5849 3.11725 96.6142 3.09446 96.6382C2.89642 96.8572 2.77953 97.1374 2.7633 97.4322C2.74707 97.7269 2.8325 98.0183 3.0053 98.2577C3.62197 99.1876 5.67446 99.6419 6.36248 99.0459" stroke="#CBCBCB" stroke-miterlimit="10"/>
<path d="M7.39379 97.0965C7.39379 97.0965 6.10903 97.9286 6.41609 99.0011C6.72315 100.074 9.12699 101.453 10.6119 99.6838" stroke="#CBCBCB" stroke-miterlimit="10"/>
<path d="M14.7648 99.7907C14.7672 99.7168 14.7646 99.6428 14.757 99.5692" stroke="#CBCBCB" stroke-miterlimit="10"/>
<path d="M10.1143 100.143C10.4472 100.613 10.8918 100.993 11.4082 101.249" stroke="#CBCBCB" stroke-miterlimit="10"/>
<path d="M16.9785 100.188C17.2918 100.172 17.5969 100.082 17.869 99.9261C17.869 99.9261 18.5543 99.5596 18.7454 98.5188" stroke="#CBCBCB" stroke-miterlimit="10"/>
<path d="M19.0251 97.9854C19.6477 97.8888 20.4058 97.5878 20.4732 96.7046C20.4591 96.3761 20.351 96.0587 20.1618 95.7898" stroke="#CBCBCB" stroke-miterlimit="10"/>
<path d="M2.29889 92.2943C2.17148 92.2123 1.72103 93.1753 3.13244 93.9346" stroke="#CBCBCB" stroke-miterlimit="10"/>
<path d="M1.47147 93.1651L2.18837 92.9977" stroke="#CBCBCB" stroke-miterlimit="10"/>
<path d="M4.76885 93.796C4.76885 93.796 4.49073 94.7302 5.27204 95.2714" stroke="#CBCBCB" stroke-miterlimit="10"/>
<path d="M2.84093 95.2516C2.79982 95.3123 2.22317 96.9243 4.64157 97.0739" stroke="#CBCBCB" stroke-miterlimit="10"/>
<path d="M6.99979 95.6539C6.96641 95.7455 6.595 97.9561 9.18283 97.1824" stroke="#CBCBCB" stroke-miterlimit="10"/>
<path d="M15.5391 97.713C15.6203 97.4976 15.6758 97.2734 15.7045 97.045" stroke="#CBCBCB" stroke-miterlimit="10"/>
<path d="M12.7234 98.5892C12.9842 98.6845 13.2556 98.748 13.5317 98.7783" stroke="#CBCBCB" stroke-miterlimit="10"/>
<path d="M11.2935 96.6044C11.2935 96.6044 9.87198 96.3116 9.65894 94.65" stroke="#CBCBCB" stroke-miterlimit="10"/>
<path d="M91.5623 225.707L87.6094 227.989C87.6094 227.989 84.5136 227.248 83.7841 226.611L79.2236 218.712C79.2236 218.712 76.6448 215.318 71.4381 213.842C66.2314 212.366 64.6964 205.534 64.6964 205.534C64.6964 205.534 63.6404 198.057 68.8315 194.31L70.5515 193.151" stroke="#CBCBCB" stroke-miterlimit="10"/>
<path d="M87.9518 227.792L91.9114 225.505C91.9114 225.505 92.8174 222.454 92.6304 221.504L88.0698 213.604C88.0698 213.604 86.4099 209.672 87.7455 204.427C89.0812 199.183 83.9208 194.434 83.9208 194.434C83.9208 194.434 77.9736 189.781 72.133 192.403L70.2603 193.319" stroke="#CBCBCB" stroke-miterlimit="10"/>
<path d="M88.4092 214.659L79.3562 219.886C78.9768 220.105 78.8468 220.59 79.0658 220.97L79.139 221.096C79.358 221.476 79.8432 221.606 80.2226 221.387L89.2756 216.16C89.655 215.941 89.785 215.456 89.566 215.076L89.4928 214.95C89.2737 214.57 88.7886 214.44 88.4092 214.659Z" stroke="#CBCBCB" stroke-miterlimit="10"/>
<path d="M89.7454 216.974L80.6924 222.2C80.3129 222.42 80.1829 222.905 80.402 223.284L80.4752 223.411C80.6942 223.79 81.1794 223.92 81.5588 223.701L90.6118 218.474C90.9912 218.255 91.1212 217.77 90.9021 217.391L90.829 217.264C90.6099 216.885 90.1248 216.755 89.7454 216.974Z" stroke="#CBCBCB" stroke-miterlimit="10"/>
<path d="M91.0264 219.193L81.9734 224.419C81.594 224.638 81.464 225.123 81.6831 225.503L81.7562 225.63C81.9753 226.009 82.4604 226.139 82.8398 225.92L91.8929 220.693C92.2723 220.474 92.4023 219.989 92.1832 219.61L92.11 219.483C91.891 219.103 91.4058 218.973 91.0264 219.193Z" stroke="#CBCBCB" stroke-miterlimit="10"/>
<path d="M62.0164 200.835L61.9028 201.434C61.8862 201.528 61.8372 201.613 61.7644 201.675C61.6917 201.736 61.5997 201.77 61.5044 201.771L55.7309 201.87C55.6705 201.872 55.6105 201.86 55.5552 201.835C55.4999 201.811 55.4506 201.775 55.411 201.729C55.3713 201.683 55.3422 201.63 55.3258 201.571C55.3093 201.513 55.3059 201.452 55.3158 201.393L55.59 199.752C55.5982 199.698 55.6172 199.647 55.6456 199.6C55.6741 199.554 55.7115 199.513 55.7558 199.481C55.8 199.449 55.8501 199.427 55.9032 199.414C55.9564 199.402 56.0114 199.4 56.0651 199.41L61.6815 200.353C61.7354 200.362 61.787 200.382 61.8332 200.411C61.8794 200.44 61.9193 200.478 61.9505 200.523C61.9817 200.568 62.0036 200.619 62.0149 200.673C62.0262 200.726 62.0267 200.781 62.0164 200.835V200.835Z" stroke="#CBCBCB" stroke-miterlimit="10"/>
<path d="M67.2941 192.802L66.6513 193.111C66.5571 193.16 66.449 193.175 66.345 193.154C66.2409 193.134 66.1469 193.078 66.0786 192.997L62.3193 188.139C62.2811 188.083 62.2558 188.019 62.2452 187.952C62.2346 187.885 62.239 187.816 62.2581 187.751C62.2772 187.686 62.3105 187.626 62.3555 187.575C62.4006 187.524 62.4564 187.484 62.5188 187.458L64.2608 186.567C64.3135 186.537 64.3716 186.518 64.4318 186.511C64.4921 186.503 64.5531 186.508 64.6115 186.525C64.6699 186.541 64.7244 186.569 64.7718 186.607C64.8193 186.645 64.8587 186.692 64.8879 186.745L67.548 192.184C67.573 192.241 67.5862 192.303 67.5869 192.365C67.5876 192.427 67.5758 192.489 67.5521 192.547C67.5284 192.604 67.4933 192.657 67.449 192.701C67.4047 192.744 67.352 192.779 67.2941 192.802V192.802Z" stroke="#CBCBCB" stroke-miterlimit="10"/>
<path d="M73.7902 189.375L73.1178 189.612C73.0192 189.651 72.9101 189.655 72.8088 189.623C72.7076 189.591 72.6201 189.526 72.5611 189.438L69.3418 184.206C69.31 184.147 69.2915 184.082 69.2877 184.015C69.2839 183.948 69.2948 183.881 69.3197 183.819C69.3446 183.757 69.3829 183.701 69.4318 183.655C69.4808 183.609 69.5392 183.575 69.6029 183.554L71.4323 182.857C71.488 182.833 71.5479 182.82 71.6086 182.819C71.6693 182.818 71.7295 182.829 71.7858 182.852C71.8422 182.875 71.8934 182.908 71.9367 182.951C71.98 182.993 72.0145 183.044 72.0381 183.1L74.1026 188.791C74.1205 188.85 74.1266 188.912 74.1206 188.973C74.1146 189.034 74.0965 189.093 74.0675 189.148C74.0385 189.202 73.9991 189.25 73.9515 189.289C73.9039 189.328 73.8491 189.357 73.7902 189.375Z" stroke="#CBCBCB" stroke-miterlimit="10"/>
<path d="M83.0603 189.622L82.4618 189.232C82.3706 189.178 82.3007 189.094 82.2638 188.995C82.2269 188.895 82.2251 188.786 82.2588 188.686L84.4348 182.956C84.4623 182.895 84.5028 182.841 84.5536 182.797C84.6044 182.753 84.6642 182.721 84.7288 182.703C84.7933 182.685 84.861 182.682 84.9271 182.693C84.9932 182.704 85.0561 182.729 85.1113 182.767L86.7796 183.793C86.8327 183.822 86.8796 183.862 86.9174 183.909C86.9552 183.956 86.9832 184.011 86.9997 184.069C87.0163 184.127 87.0211 184.188 87.0138 184.249C87.0066 184.309 86.9874 184.367 86.9575 184.42L83.7116 189.513C83.6397 189.614 83.5307 189.682 83.4085 189.702C83.2864 189.723 83.1611 189.694 83.0603 189.622V189.622Z" stroke="#CBCBCB" stroke-miterlimit="10"/>
<path d="M63.023 198.004L62.8409 198.438C62.8112 198.507 62.7587 198.563 62.6923 198.598C62.6259 198.632 62.5496 198.643 62.4762 198.628L58.0244 197.715C57.9778 197.706 57.9338 197.686 57.8956 197.658C57.8574 197.629 57.8259 197.593 57.8034 197.551C57.7809 197.509 57.7679 197.463 57.7654 197.415C57.7628 197.368 57.7708 197.32 57.7888 197.276L58.2712 196.058C58.3037 195.978 58.3666 195.914 58.446 195.88C58.5255 195.847 58.6151 195.846 58.6951 195.878L62.8489 197.574C62.8887 197.59 62.9249 197.615 62.9553 197.645C62.9856 197.676 63.0096 197.713 63.0258 197.753C63.042 197.793 63.0501 197.835 63.0496 197.879C63.0492 197.922 63.0401 197.964 63.023 198.004V198.004Z" stroke="#CBCBCB" stroke-miterlimit="10"/>
<path d="M65.0848 194.777L64.7168 195.084C64.6596 195.132 64.5877 195.159 64.5131 195.16C64.4385 195.161 64.366 195.136 64.3076 195.089L60.759 192.265C60.7219 192.236 60.6916 192.198 60.6704 192.156C60.6492 192.114 60.6376 192.067 60.6363 192.02C60.635 191.973 60.6441 191.926 60.6629 191.882C60.6817 191.839 60.7099 191.8 60.7453 191.769L61.7286 190.905C61.7937 190.848 61.8786 190.819 61.9648 190.825C62.051 190.831 62.1313 190.871 62.1882 190.936L65.1203 194.315C65.1485 194.348 65.17 194.385 65.1835 194.426C65.197 194.467 65.2023 194.51 65.199 194.553C65.1957 194.596 65.1839 194.638 65.1643 194.677C65.1447 194.715 65.1177 194.749 65.0848 194.777V194.777Z" stroke="#CBCBCB" stroke-miterlimit="10"/>
<path d="M76.4885 188.703L76.0147 188.781C75.941 188.794 75.8652 188.78 75.8004 188.743C75.7356 188.706 75.6858 188.647 75.6597 188.577L74.0331 184.337C74.0163 184.293 74.0093 184.246 74.0127 184.198C74.0161 184.151 74.0297 184.105 74.0526 184.064C74.0755 184.022 74.1071 183.986 74.1453 183.959C74.1835 183.931 74.2274 183.911 74.2738 183.902L75.5677 183.653C75.6096 183.645 75.6527 183.645 75.6944 183.654C75.7362 183.662 75.7758 183.679 75.811 183.703C75.8462 183.727 75.8762 183.758 75.8993 183.794C75.9224 183.83 75.9381 183.87 75.9456 183.912L76.7622 188.32C76.7712 188.363 76.7711 188.408 76.7619 188.451C76.7528 188.494 76.7348 188.535 76.7091 188.571C76.6834 188.607 76.6505 188.638 76.6126 188.66C76.5746 188.683 76.5323 188.698 76.4885 188.703V188.703Z" stroke="#CBCBCB" stroke-miterlimit="10"/>
<path d="M70.0962 190.642L69.724 190.803C69.6649 190.829 69.5985 190.833 69.5367 190.814C69.4749 190.796 69.4217 190.756 69.3867 190.702L67.1699 187.571C67.147 187.538 67.1315 187.501 67.1245 187.461C67.1175 187.422 67.1191 187.382 67.1293 187.343C67.1394 187.305 67.1579 187.269 67.1833 187.238C67.2088 187.207 67.2406 187.182 67.2767 187.165L68.2846 186.693C68.3173 186.676 68.3531 186.666 68.3897 186.664C68.4264 186.661 68.4632 186.666 68.4979 186.678C68.5325 186.69 68.5644 186.709 68.5916 186.734C68.6187 186.759 68.6406 186.789 68.6558 186.822L70.2301 190.268C70.2464 190.301 70.2558 190.337 70.2578 190.374C70.2598 190.411 70.2545 190.448 70.242 190.483C70.2295 190.518 70.2101 190.55 70.1851 190.577C70.1601 190.604 70.1298 190.626 70.0962 190.642V190.642Z" stroke="#CBCBCB" stroke-miterlimit="10"/>
<path d="M80.0087 188.737L79.5625 188.565C79.4927 188.539 79.4342 188.489 79.397 188.424C79.3597 188.36 79.3461 188.285 79.3584 188.211L80.0947 183.731C80.1031 183.684 80.1216 183.64 80.1488 183.601C80.1761 183.562 80.2115 183.53 80.2525 183.506C80.2936 183.483 80.3394 183.468 80.3866 183.464C80.4338 183.46 80.4814 183.466 80.526 183.482L81.7669 183.921C81.8071 183.936 81.844 183.958 81.8755 183.987C81.907 184.015 81.9326 184.05 81.9507 184.088C81.9689 184.127 81.9792 184.169 81.9812 184.211C81.9831 184.254 81.9766 184.296 81.9621 184.336L80.432 188.546C80.417 188.586 80.3941 188.623 80.3646 188.655C80.3352 188.687 80.2997 188.712 80.2603 188.73C80.2209 188.748 80.1784 188.757 80.1352 188.759C80.092 188.76 80.049 188.752 80.0087 188.737V188.737Z" stroke="#CBCBCB" stroke-miterlimit="10"/>
<path d="M68.0241 206.363C68.0241 206.363 66.4416 207.801 67.5769 209.183C67.5769 209.183 68.6988 210.705 70.4222 209.526" stroke="#CBCBCB" stroke-miterlimit="10"/>
<path d="M70.0409 207.828C70.0409 207.828 70.1586 210.25 72.2865 210.29C72.2865 210.29 75.1398 209.847 73.6784 207.095" stroke="#CBCBCB" stroke-miterlimit="10"/>
<path d="M72.0752 206.731C72.0752 206.731 74.5237 208.05 74.7677 204.797" stroke="#CBCBCB" stroke-miterlimit="10"/>
<path d="M73.7012 207.129C73.7012 207.129 75.0906 209.371 76.8835 208.277C76.8835 208.277 78.2447 207.194 78.5051 206.033C78.7655 204.872 79.0337 204.951 79.3632 204.731C79.3632 204.731 77.7066 202.617 79.5889 201.21" stroke="#CBCBCB" stroke-miterlimit="10"/>
<path d="M79.3899 204.793C79.3899 204.793 81.0278 206.136 82.3005 205.285C83.5733 204.435 83.8236 203.22 83.4739 202.281C83.4739 202.281 83.9887 203.825 85.4833 202.167C86.9779 200.51 85.2985 198.572 84.5333 198.355C84.5333 198.355 84.1406 194.974 81.5144 195.426C81.1449 195.508 80.7922 195.653 80.4716 195.854C80.4716 195.854 79.0865 193.357 76.7219 195.217C76.4077 195.597 76.1983 196.052 76.1145 196.537C76.1145 196.537 77.185 197.837 76.8435 199.14" stroke="#CBCBCB" stroke-miterlimit="10"/>
<path d="M75.4309 200.575C75.4309 200.575 75.7507 199.234 76.8742 199.327C77.1742 199.332 77.4673 199.418 77.7224 199.576C77.9775 199.734 78.1851 199.958 78.3232 200.224" stroke="#CBCBCB" stroke-miterlimit="10"/>
<path d="M72.3211 198.547C72.3211 198.547 72.3989 195.205 76.0731 196.614" stroke="#CBCBCB" stroke-miterlimit="10"/>
<path d="M72.2789 198.15C72.2789 198.15 69.658 197.292 68.8684 199.944C68.8684 199.944 68.1589 201.652 70.2687 202.791" stroke="#CBCBCB" stroke-miterlimit="10"/>
<path d="M71.717 201.741C71.717 201.741 68.8011 202.503 70.7814 205.296" stroke="#CBCBCB" stroke-miterlimit="10"/>
<path d="M69.0879 201.895C69.0879 201.895 67.4074 202.507 67.0235 203.891C67.0235 203.891 66.4621 204.885 67.598 206.467C67.598 206.467 67.5987 206.633 68.1738 206.289" stroke="#CBCBCB" stroke-miterlimit="10"/>
<path d="M74.377 202.503C74.377 202.503 76.722 201.045 77.5535 204.149" stroke="#CBCBCB" stroke-miterlimit="10"/>
<path d="M81.2037 203.031C81.2037 203.031 82.2896 201.406 81.0102 199.826" stroke="#CBCBCB" stroke-miterlimit="10"/>
<path d="M82.4998 198.966C82.4998 198.966 84.3893 198.409 84.4109 200.531" stroke="#CBCBCB" stroke-miterlimit="10"/>
<path d="M83.9996 199.197C84.1936 198.889 84.3657 198.568 84.5147 198.236" stroke="#CBCBCB" stroke-miterlimit="10"/>
<path d="M78.9039 197.117C78.9334 197.169 80.8705 195.487 81.6459 197.636" stroke="#CBCBCB" stroke-miterlimit="10"/>
<path d="M80.4799 196.489L80.4505 195.904" stroke="#CBCBCB" stroke-miterlimit="10"/>
<path d="M122.578 674.53L119.819 673.627C119.819 673.627 118.855 671.846 118.847 671.23L120.651 665.715C120.651 665.715 121.163 663.053 119.65 659.96C118.138 656.868 120.722 653.239 120.722 653.239C120.722 653.239 123.814 649.563 127.794 650.43L129.073 650.752" stroke="#CBCBCB" stroke-miterlimit="10"/>
<path d="M120.058 673.705L122.822 674.609C122.822 674.609 124.652 673.742 125.023 673.25L126.827 667.736C126.827 667.736 127.984 665.279 131.035 663.684C134.086 662.09 134.143 657.629 134.143 657.629C134.143 657.629 133.821 652.836 130.098 651.184L128.87 650.686" stroke="#CBCBCB" stroke-miterlimit="10"/>
<path d="M126.471 668.344L120.151 666.277C119.886 666.19 119.601 666.335 119.514 666.599L119.486 666.688C119.399 666.953 119.543 667.238 119.808 667.324L126.128 669.392C126.393 669.479 126.678 669.334 126.765 669.069L126.794 668.981C126.88 668.716 126.736 668.431 126.471 668.344Z" stroke="#CBCBCB" stroke-miterlimit="10"/>
<path d="M125.943 669.96L119.622 667.892C119.358 667.806 119.073 667.95 118.986 668.215L118.957 668.304C118.87 668.569 119.015 668.854 119.28 668.94L125.6 671.008C125.865 671.094 126.15 670.95 126.236 670.685L126.265 670.596C126.352 670.332 126.207 670.047 125.943 669.96Z" stroke="#CBCBCB" stroke-miterlimit="10"/>
<path d="M125.436 671.509L119.116 669.442C118.851 669.355 118.566 669.499 118.479 669.764L118.45 669.853C118.364 670.118 118.508 670.403 118.773 670.489L125.093 672.557C125.358 672.643 125.643 672.499 125.73 672.234L125.759 672.146C125.845 671.881 125.701 671.596 125.436 671.509Z" stroke="#CBCBCB" stroke-miterlimit="10"/>
<path d="M121.809 649.974L121.477 650.175C121.425 650.207 121.364 650.22 121.304 650.211C121.244 650.203 121.189 650.174 121.148 650.129L118.649 647.437C118.623 647.409 118.603 647.375 118.591 647.339C118.579 647.302 118.575 647.264 118.58 647.225C118.585 647.187 118.598 647.151 118.619 647.118C118.639 647.086 118.667 647.058 118.699 647.037L119.592 646.471C119.621 646.452 119.654 646.439 119.688 646.432C119.722 646.426 119.757 646.427 119.791 646.434C119.825 646.442 119.857 646.456 119.885 646.476C119.914 646.495 119.938 646.521 119.956 646.55L121.895 649.61C121.914 649.64 121.926 649.673 121.932 649.707C121.938 649.741 121.937 649.777 121.929 649.81C121.92 649.844 121.906 649.876 121.885 649.904C121.865 649.932 121.839 649.956 121.809 649.974V649.974Z" stroke="#CBCBCB" stroke-miterlimit="10"/>
<path d="M127.855 649.062L127.435 648.889C127.372 648.865 127.319 648.82 127.285 648.762C127.25 648.704 127.237 648.636 127.246 648.569L127.95 644.725C127.961 644.683 127.98 644.644 128.007 644.611C128.035 644.577 128.069 644.55 128.108 644.532C128.147 644.513 128.189 644.503 128.233 644.503C128.276 644.503 128.318 644.512 128.358 644.53L129.519 644.977C129.556 644.99 129.589 645.009 129.618 645.034C129.647 645.06 129.671 645.091 129.688 645.125C129.705 645.16 129.715 645.198 129.717 645.236C129.72 645.275 129.714 645.313 129.701 645.35L128.255 648.92C128.239 648.956 128.215 648.988 128.186 649.015C128.157 649.042 128.122 649.062 128.085 649.076C128.048 649.089 128.008 649.094 127.968 649.092C127.929 649.09 127.89 649.079 127.855 649.062V649.062Z" stroke="#CBCBCB" stroke-miterlimit="10"/>
<path d="M132.237 650.682L131.839 650.465C131.779 650.435 131.73 650.385 131.702 650.323C131.674 650.262 131.668 650.193 131.685 650.127L132.795 646.381C132.81 646.341 132.833 646.304 132.863 646.274C132.893 646.244 132.929 646.22 132.969 646.206C133.009 646.191 133.052 646.186 133.094 646.189C133.137 646.193 133.178 646.206 133.215 646.228L134.322 646.798C134.357 646.814 134.389 646.837 134.415 646.865C134.441 646.894 134.461 646.927 134.474 646.963C134.488 646.999 134.493 647.038 134.492 647.076C134.49 647.115 134.481 647.153 134.464 647.188L132.646 650.583C132.625 650.616 132.599 650.645 132.567 650.668C132.536 650.691 132.5 650.708 132.462 650.717C132.424 650.727 132.384 650.728 132.346 650.722C132.307 650.716 132.27 650.703 132.237 650.682Z" stroke="#CBCBCB" stroke-miterlimit="10"/>
<path d="M136.057 655.178L135.987 654.729C135.974 654.663 135.984 654.594 136.015 654.534C136.047 654.474 136.098 654.427 136.16 654.4L139.797 652.998C139.838 652.985 139.881 652.981 139.923 652.986C139.965 652.992 140.006 653.007 140.042 653.029C140.078 653.052 140.108 653.083 140.131 653.119C140.154 653.155 140.169 653.195 140.174 653.238L140.397 654.464C140.405 654.501 140.407 654.54 140.4 654.578C140.394 654.616 140.38 654.652 140.359 654.685C140.339 654.718 140.312 654.746 140.28 654.768C140.249 654.79 140.213 654.806 140.176 654.814L136.385 655.44C136.307 655.449 136.228 655.426 136.166 655.377C136.105 655.328 136.065 655.256 136.057 655.178V655.178Z" stroke="#CBCBCB" stroke-miterlimit="10"/>
<path d="M123.577 649.248L123.294 649.346C123.249 649.362 123.2 649.361 123.155 649.344C123.111 649.327 123.073 649.295 123.049 649.254L121.591 646.758C121.576 646.732 121.566 646.703 121.563 646.673C121.561 646.643 121.565 646.612 121.575 646.584C121.585 646.556 121.602 646.53 121.623 646.508C121.644 646.487 121.67 646.471 121.699 646.46L122.481 646.171C122.532 646.153 122.589 646.156 122.639 646.179C122.689 646.202 122.727 646.244 122.746 646.296L123.707 648.983C123.716 649.009 123.72 649.037 123.718 649.064C123.716 649.091 123.709 649.118 123.697 649.143C123.685 649.168 123.668 649.19 123.648 649.208C123.627 649.226 123.603 649.24 123.577 649.248V649.248Z" stroke="#CBCBCB" stroke-miterlimit="10"/>
<path d="M125.981 648.854L125.679 648.811C125.632 648.804 125.589 648.781 125.557 648.746C125.525 648.711 125.506 648.666 125.503 648.619L125.333 645.739C125.332 645.709 125.336 645.679 125.347 645.651C125.358 645.623 125.375 645.597 125.397 645.577C125.419 645.556 125.445 645.54 125.474 645.531C125.502 645.521 125.533 645.518 125.563 645.522L126.389 645.62C126.444 645.627 126.494 645.655 126.527 645.698C126.561 645.742 126.577 645.797 126.57 645.851L126.215 648.675C126.211 648.702 126.203 648.728 126.189 648.752C126.175 648.776 126.157 648.797 126.135 648.813C126.114 648.83 126.089 648.842 126.062 648.849C126.036 648.856 126.008 648.858 125.981 648.854V648.854Z" stroke="#CBCBCB" stroke-miterlimit="10"/>
<path d="M133.701 651.675L133.463 651.484C133.425 651.454 133.399 651.413 133.39 651.366C133.38 651.32 133.386 651.271 133.408 651.229L134.725 648.658C134.739 648.631 134.759 648.608 134.782 648.59C134.806 648.571 134.834 648.558 134.863 648.551C134.893 648.544 134.923 648.544 134.952 648.55C134.982 648.557 135.01 648.569 135.034 648.587L135.701 649.094C135.723 649.111 135.741 649.131 135.755 649.155C135.768 649.178 135.777 649.204 135.781 649.231C135.784 649.258 135.782 649.285 135.775 649.311C135.768 649.337 135.756 649.362 135.739 649.383L133.998 651.642C133.982 651.665 133.961 651.684 133.936 651.698C133.912 651.712 133.885 651.721 133.857 651.724C133.829 651.727 133.801 651.724 133.774 651.716C133.747 651.707 133.722 651.694 133.701 651.675V651.675Z" stroke="#CBCBCB" stroke-miterlimit="10"/>
<path d="M130.068 649.471L129.833 649.364C129.796 649.347 129.766 649.317 129.748 649.28C129.731 649.242 129.727 649.2 129.738 649.161L130.279 646.781C130.285 646.756 130.296 646.733 130.312 646.713C130.327 646.693 130.347 646.677 130.37 646.665C130.392 646.654 130.417 646.647 130.443 646.646C130.468 646.645 130.493 646.65 130.517 646.659L131.168 646.936C131.19 646.945 131.21 646.957 131.227 646.974C131.244 646.99 131.257 647.009 131.266 647.031C131.275 647.053 131.279 647.076 131.279 647.099C131.279 647.123 131.274 647.146 131.265 647.167L130.302 649.376C130.293 649.398 130.28 649.418 130.263 649.434C130.246 649.451 130.227 649.464 130.205 649.473C130.183 649.482 130.16 649.486 130.136 649.486C130.113 649.486 130.089 649.481 130.068 649.471V649.471Z" stroke="#CBCBCB" stroke-miterlimit="10"/>
<path d="M135.18 653.357L135.072 653.072C135.055 653.028 135.053 652.979 135.068 652.934C135.083 652.889 135.113 652.851 135.153 652.825L137.587 651.271C137.613 651.255 137.641 651.245 137.671 651.242C137.701 651.238 137.732 651.241 137.76 651.251C137.789 651.26 137.815 651.275 137.837 651.296C137.859 651.317 137.877 651.342 137.888 651.37L138.207 652.144C138.217 652.169 138.222 652.196 138.222 652.223C138.222 652.25 138.217 652.277 138.206 652.302C138.195 652.327 138.18 652.35 138.161 652.369C138.141 652.388 138.118 652.403 138.093 652.413L135.45 653.476C135.424 653.486 135.397 653.491 135.37 653.49C135.342 653.49 135.315 653.484 135.29 653.473C135.265 653.462 135.242 653.446 135.223 653.426C135.204 653.406 135.19 653.382 135.18 653.357V653.357Z" stroke="#CBCBCB" stroke-miterlimit="10"/>
<path d="M121.742 655.167C121.742 655.167 120.389 655.028 120.217 656.153C120.217 656.153 119.973 657.33 121.263 657.646" stroke="#CBCBCB" stroke-miterlimit="10"/>
<path d="M121.905 656.744C121.905 656.744 120.808 657.829 121.693 658.854C121.693 658.854 123.115 660.016 123.797 658.155" stroke="#CBCBCB" stroke-miterlimit="10"/>
<path d="M123.289 657.242C123.289 657.242 123.704 658.962 125.348 657.695" stroke="#CBCBCB" stroke-miterlimit="10"/>
<path d="M123.791 658.181C123.791 658.181 123.319 659.791 124.599 660.175C124.599 660.175 125.69 660.36 126.35 659.99C127.011 659.621 127.087 659.781 127.331 659.844C127.331 659.844 127.629 658.161 129.095 658.455" stroke="#CBCBCB" stroke-miterlimit="10"/>
<path d="M127.313 659.883C127.313 659.883 127.373 661.229 128.316 661.47C129.259 661.712 129.941 661.314 130.237 660.75C130.237 660.75 129.725 661.649 131.145 661.653C132.564 661.657 132.769 660.039 132.546 659.584C132.546 659.584 133.981 657.962 132.651 656.911C132.456 656.77 132.237 656.665 132.006 656.598C132.006 656.598 132.6 654.882 130.715 654.552C130.402 654.565 130.097 654.659 129.832 654.825C129.832 654.825 129.671 655.884 128.909 656.276" stroke="#CBCBCB" stroke-miterlimit="10"/>
<path d="M127.629 656.216C127.629 656.216 128.4 655.798 128.833 656.37C128.958 656.514 129.042 656.689 129.076 656.877C129.109 657.065 129.091 657.259 129.024 657.437" stroke="#CBCBCB" stroke-miterlimit="10"/>
<path d="M127.269 653.882C127.269 653.882 128.885 652.5 129.778 654.838" stroke="#CBCBCB" stroke-miterlimit="10"/>
<path d="M127.439 653.694C127.439 653.694 126.732 652.088 125.141 652.841C125.141 652.841 124.031 653.23 124.388 654.713" stroke="#CBCBCB" stroke-miterlimit="10"/>
<path d="M125.5 654.953C125.5 654.953 123.901 653.895 123.419 656.02" stroke="#CBCBCB" stroke-miterlimit="10"/>
<path d="M124.31 653.773C124.31 653.773 123.307 653.237 122.488 653.643C122.488 653.643 121.779 653.799 121.512 655.009C121.512 655.009 121.434 655.08 121.841 655.206" stroke="#CBCBCB" stroke-miterlimit="10"/>
<path d="M126.269 656.536C126.269 656.536 127.955 657.028 126.838 658.74" stroke="#CBCBCB" stroke-miterlimit="10"/>
<path d="M128.918 659.994C128.918 659.994 130.149 659.817 130.353 658.541" stroke="#CBCBCB" stroke-miterlimit="10"/>
<path d="M131.393 658.881C131.393 658.881 132.46 659.539 131.464 660.45" stroke="#CBCBCB" stroke-miterlimit="10"/>
<path d="M131.921 659.689C132.149 659.65 132.374 659.595 132.595 659.525" stroke="#CBCBCB" stroke-miterlimit="10"/>
<path d="M130.742 656.393C130.73 656.428 132.349 656.632 131.661 657.912" stroke="#CBCBCB" stroke-miterlimit="10"/>
<path d="M131.709 656.872L131.973 656.61" stroke="#CBCBCB" stroke-miterlimit="10"/>
<path d="M376.189 675.868C376.189 675.868 377.472 672.182 374.791 671.238C374.791 671.238 372.005 670.074 370.318 673.508" stroke="#CBCBCB" stroke-miterlimit="10"/>
<path d="M372.124 675.669C372.124 675.669 370.167 672.193 366.98 674.212C366.98 674.212 363.075 677.663 367.267 680.313" stroke="#CBCBCB" stroke-miterlimit="10"/>
<path d="M369.923 679.27C369.923 679.27 365.32 679.706 367.348 684.771" stroke="#CBCBCB" stroke-miterlimit="10"/>
<path d="M367.21 680.28C367.21 680.28 363.5 678.317 361.645 681.689C361.645 681.689 360.437 684.636 360.89 686.604C361.344 688.573 360.899 688.725 360.572 689.371C360.572 689.371 364.581 690.873 362.828 694.816" stroke="#CBCBCB" stroke-miterlimit="10"/>
<path d="M360.487 689.306C360.487 689.306 357.071 688.916 355.801 691.417C354.53 693.919 355.071 695.965 356.278 697.025C356.278 697.025 354.379 695.235 353.386 699.148C352.392 703.061 356.305 704.298 357.599 703.873C357.599 703.873 360.665 708.506 364.233 705.264C364.233 705.264 365.187 704.306 365.459 703.61C365.459 703.61 369.347 705.96 371.488 700.886C371.488 700.886 371.824 699.427 371.417 698.339C371.417 698.339 368.87 697.457 368.422 695.188" stroke="#CBCBCB" stroke-miterlimit="10"/>
<path d="M369.458 691.695C369.458 691.695 369.954 693.989 368.239 694.955C366.525 695.921 365.429 695.036 365.429 695.036" stroke="#CBCBCB" stroke-miterlimit="10"/>
<path d="M375.582 691.673C375.582 691.673 377.927 696.698 371.44 698.206" stroke="#CBCBCB" stroke-miterlimit="10"/>
<path d="M375.921 692.208C375.921 692.208 380.462 690.936 379.66 686.225C379.66 686.225 379.454 682.996 375.49 683.373" stroke="#CBCBCB" stroke-miterlimit="10"/>
<path d="M374.115 686.331C374.115 686.331 377.879 682.351 372.877 680.141" stroke="#CBCBCB" stroke-miterlimit="10"/>
<path d="M377.915 683.546C377.915 683.546 379.957 680.994 379.509 678.565C379.509 678.565 379.61 676.545 376.762 675.308C376.762 675.308 376.635 675.058 376.036 676.134" stroke="#CBCBCB" stroke-miterlimit="10"/>
<path d="M369.61 687.8C369.61 687.8 367.218 692.266 363.683 688.474" stroke="#CBCBCB" stroke-miterlimit="10"/>
<path d="M359.098 693.684C359.098 693.684 358.681 697.16 361.74 698.249" stroke="#CBCBCB" stroke-miterlimit="10"/>
<path d="M360.16 700.989C360.16 700.989 357.763 703.669 356.177 700.54" stroke="#CBCBCB" stroke-miterlimit="10"/>
<path d="M357.751 702.118C357.688 702.758 357.668 703.402 357.692 704.045" stroke="#CBCBCB" stroke-miterlimit="10"/>
<path d="M366.855 700.216C366.766 700.181 365.135 704.555 362.404 702.125" stroke="#CBCBCB" stroke-miterlimit="10"/>
<path d="M364.98 702.688L365.451 703.529" stroke="#CBCBCB" stroke-miterlimit="10"/>
<path d="M372.202 671.236C372.202 671.236 371.111 668.344 368.531 669.217L368.24 669.252C368.24 669.252 366.461 665.965 363.978 666.564C361.322 667.198 361.04 668.566 360.869 669.992C360.861 670.058 360.791 670.085 360.755 670.03C360.44 669.533 359.976 669.15 359.428 668.936C358.881 668.722 358.28 668.688 357.712 668.839C355.611 669.352 353.653 672.743 354.424 674.356" stroke="#CBCBCB" stroke-miterlimit="10"/>
<path d="M357.588 677.453C357.588 677.453 356.685 674.621 354.469 674.485C352.252 674.348 348.348 677.784 350.934 681.574" stroke="#CBCBCB" stroke-miterlimit="10"/>
<path d="M350.331 680.394C350.331 680.394 345.547 681.781 346.292 685.868C347.037 689.956 350.6 689.116 350.6 689.116" stroke="#CBCBCB" stroke-miterlimit="10"/>
<path d="M348.235 688.97C348.235 688.97 345.959 692.284 346.622 694.438C346.622 694.438 347.063 696.373 349.778 697.311" stroke="#CBCBCB" stroke-miterlimit="10"/>
<path d="M350.081 696.246C350.081 696.246 348.539 699.991 351.396 701.158C352.02 701.339 352.682 701.346 353.31 701.179" stroke="#CBCBCB" stroke-miterlimit="10"/>
<path d="M369.461 671.374C369.689 671.191 368.09 669.77 365.888 671.825" stroke="#CBCBCB" stroke-miterlimit="10"/>
<path d="M368.238 669.335L368.177 670.727" stroke="#CBCBCB" stroke-miterlimit="10"/>
<path d="M365.282 674.846C365.282 674.846 363.649 673.754 362.201 674.812" stroke="#CBCBCB" stroke-miterlimit="10"/>
<path d="M363.53 670.464C363.436 670.35 360.667 668.291 359.087 672.529" stroke="#CBCBCB" stroke-miterlimit="10"/>
<path d="M360.547 677.677C360.389 677.556 356.366 675.482 356.469 680.616" stroke="#CBCBCB" stroke-miterlimit="10"/>
<path d="M351.912 686.065C351.912 686.065 348.516 690.135 353.271 692.392" stroke="#CBCBCB" stroke-miterlimit="10"/>
<path d="M356.456 684.763C356.456 684.763 357.768 682.396 361.048 683.079" stroke="#CBCBCB" stroke-miterlimit="10"/>
<path d="M70.5121 452.142C70.9688 453.165 70.7078 454.299 69.9427 454.834C70.2235 455.504 70.3488 456.229 70.3091 456.955C70.2694 457.68 70.0658 458.388 69.7135 459.023C69.3822 459.589 68.937 460.081 68.4061 460.466C67.8753 460.852 67.2702 461.123 66.6292 461.263C66.3662 462.534 65.0286 463.947 63.1166 464.801C61.3228 465.602 59.5016 465.703 58.3613 465.173C56.9248 467.043 54.9057 468.049 52.9579 467.62C51.4938 467.3 50.3344 466.247 49.6226 464.781C47.1746 465.325 44.9231 464.666 44.1907 463.026C43.6497 461.815 44.0605 460.346 45.1277 459.064C44.9862 458.853 44.8635 458.63 44.7609 458.397C43.5968 455.791 45.2036 452.539 48.3563 451.131C48.9792 450.85 49.638 450.657 50.314 450.556C51.1411 448.82 53.1603 447.351 55.7201 446.846C57.8009 446.436 59.7956 446.75 61.2327 447.578C61.5059 447.39 61.7958 447.228 62.0987 447.093C64.5604 445.993 67.3559 446.91 68.3507 449.137C68.5732 449.638 68.6917 450.179 68.699 450.728C69.0983 450.785 69.4756 450.946 69.7936 451.194C70.1117 451.442 70.3593 451.769 70.5121 452.142Z" stroke="#CBCBCB" stroke-miterlimit="10"/>
<path d="M73.1816 467.567C73.5357 468.69 72.6997 469.948 71.3215 470.388L71.2343 470.413C71.098 470.769 70.8808 471.088 70.5999 471.345C70.3191 471.602 69.9822 471.79 69.6161 471.894C68.3924 472.279 67.1424 471.773 66.8244 470.761C66.8171 470.745 66.8097 470.728 66.8024 470.712C66.392 470.744 65.9824 470.642 65.6344 470.422C65.2864 470.202 65.0187 469.876 64.8709 469.492C64.7232 469.107 64.7033 468.686 64.8143 468.289C64.9253 467.893 65.1613 467.543 65.4871 467.291C65.3017 467.016 65.1573 466.715 65.0585 466.398C64.5661 464.829 69.0085 463.126 69.6308 464.373C69.7009 464.331 69.7758 464.298 69.854 464.274C70.5449 464.058 71.3398 464.594 71.6205 465.483C71.7011 465.738 71.7312 466.006 71.7093 466.272C72.0447 466.344 72.3561 466.501 72.6138 466.728C72.8715 466.955 73.0669 467.244 73.1816 467.567V467.567Z" stroke="#CBCBCB" stroke-miterlimit="10"/>
<path d="M65.8421 477.261C65.6795 477.14 65.5586 476.971 65.4963 476.778C65.4927 476.768 65.4883 476.758 65.4831 476.749C65.243 476.768 65.0033 476.709 64.7996 476.58C64.5959 476.452 64.4394 476.261 64.3533 476.036C64.2673 475.811 64.2564 475.564 64.3223 475.333C64.3881 475.101 64.5273 474.897 64.7188 474.751C64.6111 474.591 64.5274 474.415 64.4704 474.23C64.1826 473.317 66.7692 472.325 67.1327 473.051C67.1741 473.026 67.2182 473.007 67.264 472.992C67.6694 472.864 68.1345 473.178 68.2913 473.697C68.339 473.845 68.3566 474.001 68.3429 474.156C68.5382 474.199 68.7193 474.291 68.8691 474.424C69.0189 474.556 69.1324 474.725 69.199 474.913C69.4047 475.568 68.9188 476.304 68.1144 476.557L68.0668 476.579C67.9817 476.784 67.8524 476.968 67.6881 477.117C67.5238 477.267 67.3286 477.378 67.1163 477.444C66.904 477.509 66.6799 477.527 66.4599 477.496C66.24 477.465 66.0295 477.386 65.8436 477.265" stroke="#CBCBCB" stroke-miterlimit="10"/>
<path d="M62.6647 478.681C62.6647 478.681 67.5354 478.413 68.5684 478.138C68.6837 478.109 68.8018 478.091 68.9208 478.085C69.3441 478.063 70.2205 478.042 70.6745 478.203" stroke="#CBCBCB" stroke-miterlimit="10"/>
<path d="M65.8708 477.282L64.4519 478.27" stroke="#CBCBCB" stroke-miterlimit="10"/>
<path d="M59.099 481.831C59.099 481.831 62.9098 480.441 66.3737 480.55C66.3737 480.55 69.1771 480.528 69.7411 480.327C70.305 480.126 70.6326 479.626 70.7894 478.038L71.0863 473.81C71.0863 473.81 71.1255 471.986 72.3134 471.556C72.3134 471.556 72.7935 471.617 72.6825 472.408C72.6825 472.408 72.6203 475.389 72.7736 479.976C72.7736 479.976 73.1184 481.63 71.2348 482.829C71.2348 482.829 67.9594 484.267 66.1853 484.746C64.4111 485.226 61.7458 486.05 60.101 487.401C59.0879 487.247 58.1175 486.885 57.2512 486.338C56.3849 485.79 55.6414 485.069 55.0676 484.22L56.4986 480.813C56.4986 480.813 57.3707 478.358 59.0578 477.754L64.2855 475.663" stroke="#CBCBCB" stroke-miterlimit="10"/>
<path d="M72.6765 481.412C72.775 481.507 72.9026 481.566 73.0388 481.581C73.1751 481.595 73.3122 481.564 73.4285 481.491C73.4285 481.491 75.148 481.251 74.8276 479.057C74.8276 479.057 74.6988 475.715 75.6978 470.552L75.7767 470.199C75.7767 470.199 76.0454 468.373 74.7126 469.637C74.5709 469.77 74.4624 469.935 74.3956 470.118L73.1708 473.444C73.1345 473.551 73.1061 473.659 73.0858 473.77C72.9551 474.407 72.5645 476.706 72.8588 480.348" stroke="#CBCBCB" stroke-miterlimit="10"/>
<path d="M75.2469 474.033L76.5143 471.057C76.5143 471.057 78.0412 469.438 78.4031 470.438C78.4031 470.438 76.0239 476.089 75.9722 477.996C75.9722 477.996 75.7161 479.627 74.9928 479.497" stroke="#CBCBCB" stroke-miterlimit="10"/>
<path d="M77.3152 473.467C77.3152 473.467 78.6864 472.54 78.511 473.852C78.511 473.852 77.2529 475.95 76.8848 477.215C76.8848 477.215 76.6477 477.984 76.0904 477.887" stroke="#CBCBCB" stroke-miterlimit="10"/>
<path d="M60.5621 487.16C60.5621 487.16 61.4978 489.083 60.0431 489.709C58.5885 490.335 55.5907 489.186 55.5907 489.186C55.5907 489.186 53.0247 488.135 52.5475 487.066L53.619 484.265C53.806 483.933 54.0576 483.641 54.3589 483.407C54.6602 483.174 55.0052 483.003 55.3735 482.904L55.4946 482.951" stroke="#CBCBCB" stroke-miterlimit="10"/>
<path d="M54.6512 483.27C54.6512 483.27 54.8049 486.17 60.0623 487.57C60.0623 487.57 60.2085 487.576 60.3392 487.309" stroke="#CBCBCB" stroke-miterlimit="10"/>
<path d="M423.085 192.868C422.74 194.726 421.29 196.051 419.716 196.061C419.464 197.26 418.943 198.387 418.193 199.357C417.443 200.326 416.483 201.113 415.385 201.658C414.382 202.127 413.293 202.383 412.187 202.41C411.08 202.437 409.98 202.234 408.956 201.815C407.373 203.328 404.163 204.008 400.69 203.363C397.431 202.757 394.806 201.153 393.73 199.324C389.944 200.545 386.176 200.009 383.883 197.547C382.156 195.699 381.555 193.127 381.971 190.41C378.05 188.821 375.555 185.748 376.109 182.77C376.518 180.569 378.495 178.923 381.205 178.165C381.211 177.736 381.254 177.309 381.334 176.888C382.214 172.154 387.56 169.178 393.287 170.242C394.421 170.448 395.521 170.811 396.556 171.318C399.368 169.7 403.579 169.595 407.617 171.344C410.9 172.769 413.369 175.115 414.571 177.642C415.13 177.643 415.688 177.695 416.238 177.798C420.71 178.629 423.714 182.579 422.962 186.625C422.791 187.534 422.437 188.399 421.922 189.167C422.421 189.629 422.791 190.214 422.995 190.863C423.199 191.512 423.23 192.204 423.085 192.868Z" stroke="#CBCBCB" stroke-miterlimit="10"/>
<path d="M412.017 216.845C411.432 218.744 409.067 219.689 406.731 218.981L406.586 218.932C406.056 219.295 405.449 219.53 404.813 219.618C404.177 219.706 403.529 219.644 402.921 219.438C400.852 218.801 399.602 216.9 400.129 215.191C400.135 215.161 400.14 215.131 400.146 215.102C399.546 214.752 399.074 214.219 398.802 213.58C398.529 212.941 398.47 212.232 398.633 211.557C398.796 210.882 399.172 210.277 399.706 209.833C400.24 209.389 400.902 209.129 401.596 209.092C401.602 208.532 401.69 207.976 401.856 207.441C402.676 204.79 410.476 206.68 410.145 209.009C410.283 209.017 410.419 209.043 410.55 209.084C411.717 209.446 412.307 210.953 411.845 212.455C411.713 212.886 411.498 213.287 411.213 213.636C411.609 214.058 411.891 214.574 412.032 215.136C412.173 215.698 412.167 216.286 412.017 216.845V216.845Z" stroke="#CBCBCB" stroke-miterlimit="10"/>
<path d="M392.539 223.276C392.429 222.952 392.423 222.602 392.522 222.274C392.526 222.256 392.53 222.238 392.532 222.22C392.18 222.017 391.904 221.705 391.744 221.332C391.584 220.958 391.55 220.543 391.645 220.149C391.741 219.754 391.963 219.401 392.276 219.142C392.589 218.884 392.978 218.734 393.384 218.715C393.388 218.388 393.44 218.065 393.538 217.753C394.012 216.21 398.555 217.31 398.364 218.666C398.445 218.671 398.525 218.686 398.603 218.71C399.288 218.921 399.634 219.802 399.355 220.672C399.279 220.924 399.154 221.157 398.986 221.36C399.216 221.607 399.379 221.908 399.46 222.235C399.541 222.563 399.538 222.906 399.45 223.231C399.108 224.337 397.728 224.895 396.369 224.475L396.282 224.459C395.967 224.663 395.612 224.794 395.24 224.844C394.869 224.895 394.491 224.863 394.134 224.75C393.776 224.638 393.448 224.448 393.172 224.194C392.896 223.941 392.68 223.629 392.538 223.282" stroke="#CBCBCB" stroke-miterlimit="10"/>
<path d="M386.767 222.204C386.767 222.204 393.788 226.497 395.485 227.105C395.674 227.175 395.855 227.263 396.025 227.369C396.634 227.745 397.871 228.554 398.347 229.213" stroke="#CBCBCB" stroke-miterlimit="10"/>
<path d="M392.559 223.333L389.642 223.346" stroke="#CBCBCB" stroke-miterlimit="10"/>
<path d="M378.799 223.163C378.799 223.163 385.421 224.884 390.128 228.352C390.128 228.352 394.042 231.007 395.017 231.268C395.992 231.53 396.927 231.148 398.666 229.094L403.127 223.508C403.127 223.508 404.929 221.011 406.991 221.552C406.991 221.552 407.599 222.096 406.687 223.09C406.687 223.09 403.745 227.169 399.564 233.686C399.564 233.686 398.459 236.312 394.694 236.174C394.694 236.174 388.769 235.033 385.846 233.999C382.923 232.966 378.432 231.557 374.854 231.858C373.595 230.674 372.594 229.241 371.916 227.651C371.237 226.061 370.895 224.348 370.912 222.619L376.162 219.259C376.162 219.259 379.725 216.685 382.646 217.463L391.908 219.566" stroke="#CBCBCB" stroke-miterlimit="10"/>
<path d="M398.054 235.586C398.1 235.813 398.22 236.018 398.396 236.168C398.571 236.319 398.792 236.406 399.023 236.417C399.023 236.417 401.641 237.73 403.297 234.377C403.297 234.377 406.32 229.612 412.652 223.399L413.099 222.986C413.099 222.986 415.222 220.707 412.16 221.186C411.836 221.235 411.527 221.36 411.26 221.549L406.372 224.996C406.22 225.109 406.077 225.232 405.943 225.366C405.151 226.126 402.407 228.944 399.326 234.284" stroke="#CBCBCB" stroke-miterlimit="10"/>
<path d="M408.692 227.802L413.302 224.883C413.302 224.883 416.973 224.097 416.518 225.833C416.518 225.833 407.8 231.402 405.902 234C405.902 234 403.985 236.019 403.105 235.146" stroke="#CBCBCB" stroke-miterlimit="10"/>
<path d="M412.106 228.997C412.106 228.997 414.898 229.023 413.397 230.678C413.397 230.678 409.641 232.385 407.918 233.789C407.918 233.789 406.852 234.63 406.171 233.961" stroke="#CBCBCB" stroke-miterlimit="10"/>
<path d="M375.726 231.964C375.726 231.964 375.184 235.53 372.564 235.007C369.944 234.483 366.882 230.015 366.882 230.015C366.882 230.015 364.325 226.098 364.686 224.158L368.857 221.294C369.435 221.011 370.064 220.848 370.706 220.812C371.348 220.776 371.991 220.869 372.597 221.085L372.721 221.265" stroke="#CBCBCB" stroke-miterlimit="10"/>
<path d="M371.243 220.901C371.243 220.901 368.679 225.076 374.639 232.055C374.639 232.055 374.836 232.203 375.274 231.957" stroke="#CBCBCB" stroke-miterlimit="10"/>
<path d="M305.585 334.231C305.585 334.231 309.202 330.867 309.827 329.984C309.898 329.887 309.979 329.797 310.069 329.717C310.382 329.425 311.053 328.84 311.51 328.67" stroke="#CBCBCB" stroke-miterlimit="10"/>
<path d="M304.848 338.998C304.848 338.998 306.919 335.446 309.69 333.287C309.69 333.287 311.859 331.454 312.168 330.932C312.477 330.41 312.408 329.808 311.501 328.469L308.994 324.984C308.994 324.984 307.842 323.536 308.494 322.429C308.494 322.429 308.908 322.167 309.334 322.856C309.334 322.856 311.214 325.216 314.307 328.692C314.307 328.692 315.645 329.764 314.954 331.91C314.954 331.91 313.334 335.152 312.257 336.682C311.181 338.211 309.638 340.574 309.231 342.688C308.343 343.223 307.353 343.569 306.325 343.703C305.297 343.837 304.252 343.757 303.256 343.467L302.165 339.881C302.165 339.881 301.254 337.414 302.177 335.842L306.663 327.561C306.663 327.561 308.045 326.274 308.046 327.905L306.712 332.753" stroke="#CBCBCB" stroke-miterlimit="10"/>
<path d="M315.157 329.871C315.295 329.881 315.433 329.844 315.548 329.767C315.663 329.69 315.75 329.576 315.793 329.445C315.793 329.445 316.977 328.143 315.308 326.648C315.308 326.648 313.044 324.126 310.475 319.456L310.308 319.132C310.308 319.132 309.335 317.536 309.115 319.383C309.092 319.579 309.114 319.777 309.179 319.963L310.381 323.348C310.419 323.456 310.465 323.56 310.519 323.661C310.828 324.242 312.014 326.287 314.604 328.934" stroke="#CBCBCB" stroke-miterlimit="10"/>
<path d="M312.376 322.456L311.43 319.316C311.43 319.316 311.572 317.064 312.497 317.616C312.497 317.616 314.306 323.56 315.502 325.08C315.502 325.08 316.362 326.518 315.712 326.882" stroke="#CBCBCB" stroke-miterlimit="10"/>
<path d="M313.621 320.676C313.621 320.676 314.089 319.065 314.802 320.201C314.802 320.201 315.181 322.651 315.715 323.875C315.715 323.875 316.027 324.627 315.532 324.913" stroke="#CBCBCB" stroke-miterlimit="10"/>
<path d="M309.442 342.198C309.442 342.198 311.413 343.092 310.689 344.52C309.965 345.948 306.883 347.006 306.883 347.006C306.883 347.006 304.208 347.849 303.14 347.328L302.157 344.442C302.086 344.061 302.092 343.67 302.175 343.292C302.258 342.914 302.416 342.557 302.64 342.241L302.764 342.198" stroke="#CBCBCB" stroke-miterlimit="10"/>
<path d="M302.319 343.007C302.319 343.007 304.315 345.173 309.318 342.844C309.318 342.844 309.437 342.753 309.36 342.459" stroke="#CBCBCB" stroke-miterlimit="10"/>
<path d="M291.958 338.875C291.958 338.875 287.034 338.422 285.998 338.105C285.883 338.071 285.764 338.05 285.643 338.041C285.217 338.001 284.329 337.948 283.863 338.092" stroke="#CBCBCB" stroke-miterlimit="10"/>
<path d="M295.451 342.2C295.451 342.2 291.642 340.649 288.129 340.632C288.129 340.632 285.292 340.504 284.729 340.28C284.165 340.055 283.852 339.536 283.753 337.922L283.609 333.631C283.609 333.631 283.638 331.781 282.445 331.303C282.445 331.303 281.957 331.349 282.041 332.153C282.041 332.153 281.993 335.171 281.667 339.813C281.667 339.813 281.262 341.478 283.121 342.755C283.121 342.755 286.383 344.334 288.169 344.887C289.956 345.441 292.621 346.373 294.236 347.798C295.266 347.68 296.261 347.349 297.157 346.828C298.054 346.306 298.832 345.604 299.444 344.766L298.118 341.262C298.118 341.262 297.333 338.752 295.642 338.071L287.028 334.255C287.028 334.255 285.145 334.08 286.141 335.372L290.162 338.393" stroke="#CBCBCB" stroke-miterlimit="10"/>
<path d="M281.716 341.268C281.613 341.36 281.481 341.415 281.343 341.424C281.205 341.433 281.067 341.396 280.952 341.319C280.952 341.319 279.22 341.011 279.628 338.808C279.628 338.808 279.882 335.428 279.064 330.161L278.998 329.803C278.998 329.803 278.794 327.945 280.096 329.273C280.234 329.414 280.337 329.584 280.399 329.771L281.515 333.186C281.549 333.293 281.574 333.403 281.592 333.514C281.7 334.164 282.01 336.507 281.577 340.184" stroke="#CBCBCB" stroke-miterlimit="10"/>
<path d="M279.388 333.698L278.22 330.634C278.22 330.634 276.733 328.938 276.337 329.939C276.337 329.939 278.535 335.752 278.516 337.685C278.516 337.685 278.713 339.349 279.45 339.241" stroke="#CBCBCB" stroke-miterlimit="10"/>
<path d="M277.316 333.049C277.316 333.049 275.962 332.059 276.091 333.394C276.091 333.394 277.287 335.566 277.611 336.86C277.611 336.86 277.824 337.647 278.392 337.57" stroke="#CBCBCB" stroke-miterlimit="10"/>
<path d="M293.776 347.537C293.776 347.537 292.762 349.449 294.206 350.138C295.65 350.827 298.73 349.784 298.73 349.784C298.73 349.784 301.364 348.818 301.891 347.754L300.908 344.867C300.732 344.523 300.488 344.217 300.192 343.968C299.896 343.719 299.552 343.533 299.183 343.419L299.053 343.463" stroke="#CBCBCB" stroke-miterlimit="10"/>
<path d="M299.904 343.83C299.904 343.83 299.645 346.764 294.261 347.975C294.261 347.975 294.113 347.975 293.992 347.696" stroke="#CBCBCB" stroke-miterlimit="10"/>
<path d="M210.629 459.021C210.629 459.021 207.611 460.705 208.881 463.296C208.881 463.296 210.09 466.104 213.233 464.878" stroke="#CBCBCB" stroke-miterlimit="10"/>
<path d="M213.269 462.061C213.269 462.061 212.571 465.916 215.907 466.758C215.907 466.758 220.561 467.101 219.265 462.235" stroke="#CBCBCB" stroke-miterlimit="10"/>
<path d="M216.856 461.089C216.856 461.089 220.226 464.056 221.802 459.027" stroke="#CBCBCB" stroke-miterlimit="10"/>
<path d="M219.281 462.301C219.281 462.301 220.649 466.336 223.87 465.272C223.87 465.272 226.405 464.048 227.244 462.333C228.084 460.618 228.471 460.825 229.07 460.6C229.07 460.6 227.234 456.665 230.712 455.14" stroke="#CBCBCB" stroke-miterlimit="10"/>
<path d="M229.089 460.708C229.089 460.708 231.173 463.42 233.479 462.548C235.784 461.676 236.637 459.846 236.433 458.249C236.433 458.249 236.675 460.868 239.627 458.807C242.579 456.747 240.65 453.081 239.525 452.46C239.525 452.46 240.147 446.999 235.846 446.746C235.846 446.746 234.636 446.745 234.05 447.038C234.05 447.038 232.786 442.602 228.381 444.666C228.381 444.666 227.305 445.461 226.945 446.513C226.945 446.513 228.155 448.952 227.137 450.876" stroke="#CBCBCB" stroke-miterlimit="10"/>
<path d="M224.404 452.621C224.404 452.621 225.404 450.645 227.129 451.187C228.854 451.729 229.083 453.137 229.083 453.137" stroke="#CBCBCB" stroke-miterlimit="10"/>
<path d="M220.247 448.272C220.247 448.272 221.59 443.043 226.854 446.604" stroke="#CBCBCB" stroke-miterlimit="10"/>
<path d="M220.327 447.653C220.327 447.653 216.513 445.321 214.313 449.224C214.313 449.224 212.57 451.655 215.476 454.217" stroke="#CBCBCB" stroke-miterlimit="10"/>
<path d="M218.133 453.096C218.133 453.096 213.263 453.23 215.358 458.349" stroke="#CBCBCB" stroke-miterlimit="10"/>
<path d="M213.934 452.361C213.934 452.361 211.063 452.71 209.954 454.747C209.954 454.747 208.708 456.105 209.918 459.011C209.918 459.011 209.854 459.271 210.889 458.942" stroke="#CBCBCB" stroke-miterlimit="10"/>
<path d="M222.037 455.28C222.037 455.28 226.258 453.825 226.437 459.03" stroke="#CBCBCB" stroke-miterlimit="10"/>
<path d="M232.585 458.596C232.585 458.596 234.89 456.436 233.453 453.494" stroke="#CBCBCB" stroke-miterlimit="10"/>
<path d="M236.115 452.674C236.115 452.674 239.285 452.491 238.549 455.833" stroke="#CBCBCB" stroke-miterlimit="10"/>
<path d="M238.39 453.585C238.39 453.585 239.328 452.641 239.551 452.265" stroke="#CBCBCB" stroke-miterlimit="10"/>
<path d="M231.129 448.451C231.17 448.537 234.821 446.604 235.255 450.27" stroke="#CBCBCB" stroke-miterlimit="10"/>
<path d="M233.84 448.038L234.011 447.107" stroke="#CBCBCB" stroke-miterlimit="10"/>
<path d="M244.589 136.058C244.589 136.058 241.14 135.84 240.804 138.706C240.804 138.706 240.3 141.721 243.607 142.392" stroke="#CBCBCB" stroke-miterlimit="10"/>
<path d="M245.163 140.043C245.163 140.043 242.488 142.906 244.837 145.421C244.837 145.421 248.564 148.229 250.109 143.437" stroke="#CBCBCB" stroke-miterlimit="10"/>
<path d="M248.705 141.169C248.705 141.169 249.931 145.488 253.979 142.112" stroke="#CBCBCB" stroke-miterlimit="10"/>
<path d="M250.087 143.501C250.087 143.501 249.052 147.634 252.336 148.483C252.336 148.483 255.13 148.826 256.764 147.839C258.399 146.852 258.612 147.236 259.238 147.371C259.238 147.371 259.825 143.069 263.575 143.669" stroke="#CBCBCB" stroke-miterlimit="10"/>
<path d="M259.195 147.472C259.195 147.472 259.479 150.881 261.889 151.396C264.3 151.911 266.007 150.834 266.701 149.381C266.701 149.381 265.486 151.715 269.084 151.58C272.681 151.446 273.044 147.32 272.435 146.188C272.435 146.188 275.915 141.934 272.436 139.393C272.436 139.393 271.42 138.737 270.768 138.666C270.768 138.666 272.107 134.252 267.287 133.602C267.287 133.602 265.951 133.687 265.079 134.378C265.079 134.378 264.775 137.083 262.878 138.149" stroke="#CBCBCB" stroke-miterlimit="10"/>
<path d="M259.635 138.136C259.635 138.136 261.546 137.017 262.703 138.406C263.86 139.796 263.289 141.104 263.289 141.104" stroke="#CBCBCB" stroke-miterlimit="10"/>
<path d="M258.495 132.229C258.495 132.229 262.456 128.561 264.953 134.404" stroke="#CBCBCB" stroke-miterlimit="10"/>
<path d="M258.897 131.752C258.897 131.752 256.954 127.726 252.991 129.816C252.991 129.816 250.21 130.917 251.266 134.644" stroke="#CBCBCB" stroke-miterlimit="10"/>
<path d="M254.106 135.14C254.106 135.14 249.939 132.616 248.929 138.054" stroke="#CBCBCB" stroke-miterlimit="10"/>
<path d="M250.974 132.249C250.974 132.249 248.371 130.987 246.336 132.099C246.336 132.099 244.553 132.567 243.997 135.665C243.997 135.665 243.802 135.849 244.851 136.133" stroke="#CBCBCB" stroke-miterlimit="10"/>
<path d="M256.206 139.09C256.206 139.09 260.542 140.152 257.875 144.626" stroke="#CBCBCB" stroke-miterlimit="10"/>
<path d="M263.278 147.59C263.278 147.59 266.386 147.021 266.77 143.77" stroke="#CBCBCB" stroke-miterlimit="10"/>
<path d="M269.452 144.522C269.452 144.522 272.217 146.084 269.788 148.496" stroke="#CBCBCB" stroke-miterlimit="10"/>
<path d="M270.871 146.52C270.871 146.52 272.172 146.234 272.562 146.038" stroke="#CBCBCB" stroke-miterlimit="10"/>
<path d="M267.547 138.272C267.535 138.366 271.651 138.719 270.031 142.036" stroke="#CBCBCB" stroke-miterlimit="10"/>
<path d="M270.05 139.392L270.698 138.702" stroke="#CBCBCB" stroke-miterlimit="10"/>
<line x1="144.372" y1="535.409" x2="-41.7122" y2="666.396" stroke="#CBCBCB"/>
<line x1="224.372" y1="248.409" x2="38.2878" y2="379.396" stroke="#CBCBCB"/>
<line x1="374.372" y1="601.409" x2="188.288" y2="732.396" stroke="#CBCBCB"/>
<line x1="544.372" y1="23.4089" x2="358.288" y2="154.396" stroke="#CBCBCB"/>
<line x1="169.372" y1="46.4089" x2="-16.7122" y2="177.396" stroke="#CBCBCB"/>
<line x1="451.33" y1="333.415" x2="265.246" y2="464.402" stroke="#CBCBCB"/>
</g>
<defs>
<linearGradient id="paint0_linear" x1="205.5" y1="0" x2="205.5" y2="731" gradientUnits="userSpaceOnUse">
<stop stop-color="#51249B"/>
<stop offset="1" stop-color="#0055C7"/>
</linearGradient>
<clipPath id="clip0">
<rect width="411" height="731" fill="white"/>
</clipPath>
</defs>
</svg>
