<svg width="411" height="731" viewBox="0 0 411 731" fill="none" xmlns="http://www.w3.org/2000/svg">
<g clip-path="url(#clip0)">
<rect width="411" height="731" fill="white"/>
<rect width="411" height="731" fill="url(#paint0_linear)" fill-opacity="0.8"/>
<path d="M361.835 540.038C363.83 539.634 365.861 539.439 367.897 539.454C367.897 539.454 372.727 539.361 373.692 539.006C374.657 538.651 375.219 537.782 375.456 535.038L375.889 527.748C375.889 527.748 375.919 524.604 377.963 523.84C377.963 523.84 378.789 523.939 378.613 525.303C378.613 525.303 378.561 530.44 378.914 538.346C378.914 538.346 379.53 541.196 376.313 543.283C376.313 543.283 370.696 545.825 367.635 546.688C364.574 547.552 360.007 549.023 357.2 551.381C355.455 551.132 353.779 550.525 352.28 549.598C350.78 548.671 349.489 547.443 348.487 545.992L350.894 540.091C350.894 540.091 351.029 539.671 351.33 539.05" stroke="#CBCBCB" stroke-miterlimit="10"/>
<path d="M355.372 541.787C355.372 541.787 356.532 541.349 358.318 540.852" stroke="#CBCBCB" stroke-miterlimit="10"/>
<path d="M378.769 540.805C378.94 540.967 379.16 541.067 379.394 541.089C379.629 541.112 379.864 541.055 380.062 540.928C380.062 540.928 383.022 540.479 382.428 536.706C382.428 536.706 382.146 530.949 383.768 522.029L383.894 521.42C383.894 521.42 384.325 518.269 382.051 520.473C381.811 520.705 381.627 520.99 381.514 521.304L379.465 527.064C379.401 527.246 379.35 527.433 379.313 527.623C379.097 528.723 378.469 532.693 379.047 538.964" stroke="#CBCBCB" stroke-miterlimit="10"/>
<path d="M383.058 528.039L385.178 522.877C385.178 522.877 387.783 520.058 388.411 521.78C388.411 521.78 384.421 531.566 384.365 534.854C384.365 534.854 383.948 537.67 382.709 537.459" stroke="#CBCBCB" stroke-miterlimit="10"/>
<path d="M386.611 527.025C386.611 527.025 388.958 525.4 388.677 527.666C388.677 527.666 386.551 531.302 385.941 533.492C385.941 533.492 385.548 534.821 384.583 534.665" stroke="#CBCBCB" stroke-miterlimit="10"/>
<path d="M357.997 550.945C357.997 550.945 359.646 554.242 357.152 555.347C354.658 556.452 349.469 554.531 349.469 554.531C349.469 554.531 345.026 552.769 344.183 550.938L345.975 546.088C346.293 545.513 346.722 545.008 347.238 544.602C347.753 544.195 348.345 543.896 348.978 543.722L349.187 543.799" stroke="#CBCBCB" stroke-miterlimit="10"/>
<path d="M347.736 544.352C347.736 544.352 348.047 549.351 357.149 551.66C357.149 551.66 357.401 551.666 357.599 551.214" stroke="#CBCBCB" stroke-miterlimit="10"/>
<path d="M353.026 509.385C352.246 509.415 351.17 509.402 350.551 509.191" stroke="#CBCBCB" stroke-miterlimit="10"/>
<path d="M370.434 502.718C370.434 502.718 363.89 505.184 357.917 505.061C357.917 505.061 353.087 505.153 352.122 505.509C351.157 505.864 350.589 506.735 350.356 509.474L349.924 516.764C349.924 516.764 349.892 519.912 347.849 520.671C347.849 520.671 347.023 520.573 347.199 519.209C347.199 519.209 347.251 514.072 346.899 506.166C346.899 506.166 346.283 503.316 349.498 501.226C349.498 501.226 355.116 498.687 358.176 497.821C361.236 496.955 365.804 495.486 368.612 493.131C370.358 493.38 372.034 493.987 373.534 494.915C375.034 495.843 376.325 497.071 377.327 498.523L374.929 504.423C374.929 504.423 374.838 504.688 374.655 505.104" stroke="#CBCBCB" stroke-miterlimit="10"/>
<path d="M347.04 503.699C346.868 503.537 346.648 503.437 346.413 503.415C346.178 503.393 345.942 503.45 345.743 503.577C345.743 503.577 342.78 504.025 343.379 507.795C343.379 507.795 343.669 513.568 342.041 522.474L341.91 523.082C341.91 523.082 341.483 526.232 343.755 524.032C343.997 523.799 344.181 523.514 344.293 523.197L346.33 517.446C346.396 517.264 346.448 517.076 346.485 516.886C346.708 515.779 347.344 511.805 346.759 505.541" stroke="#CBCBCB" stroke-miterlimit="10"/>
<path d="M342.751 516.465L340.629 521.624C340.629 521.624 338.026 524.446 337.402 522.732C337.402 522.732 341.391 512.946 341.447 509.658C341.447 509.658 341.864 506.842 343.103 507.053" stroke="#CBCBCB" stroke-miterlimit="10"/>
<path d="M339.195 517.48C339.195 517.48 336.851 519.103 337.131 516.838C337.131 516.838 339.257 513.199 339.865 511.013C339.865 511.013 340.261 509.683 341.224 509.837" stroke="#CBCBCB" stroke-miterlimit="10"/>
<path d="M367.822 493.554C367.822 493.554 366.163 490.261 368.654 489.158C371.146 488.054 376.345 489.97 376.345 489.97C376.345 489.97 380.788 491.733 381.631 493.563L379.831 498.417C379.513 498.991 379.084 499.496 378.569 499.902C378.054 500.308 377.463 500.607 376.831 500.782L376.62 500.702" stroke="#CBCBCB" stroke-miterlimit="10"/>
<path d="M378.076 500.15C378.076 500.15 377.763 495.149 368.666 492.841C368.666 492.841 368.414 492.835 368.201 493.294" stroke="#CBCBCB" stroke-miterlimit="10"/>
<path d="M345.761 523.634C345.761 523.634 342.157 526.122 343.907 528.52C343.907 528.52 345.602 531.162 349.394 529.129" stroke="#CBCBCB" stroke-miterlimit="10"/>
<path d="M349.239 526.175C349.239 526.175 348.655 530.381 352.829 530.453C352.829 530.453 358.601 529.69 356.651 524.917" stroke="#CBCBCB" stroke-miterlimit="10"/>
<path d="M353.597 524.291C353.597 524.291 357.973 526.586 359.558 520.952" stroke="#CBCBCB" stroke-miterlimit="10"/>
<path d="M356.686 524.98C356.686 524.98 358.665 528.867 362.567 526.979C362.567 526.979 365.607 525.092 366.52 523.097C367.433 521.102 367.931 521.227 368.653 520.849C368.653 520.849 366.107 517.177 370.291 514.747" stroke="#CBCBCB" stroke-miterlimit="10"/>
<path d="M368.68 520.958C368.68 520.958 371.45 523.293 374.244 521.82C377.039 520.348 377.939 518.24 377.576 516.623C377.576 516.623 378.062 519.299 381.567 516.427C385.073 513.554 382.423 510.199 380.982 509.805C380.982 509.805 381.359 503.949 376.019 504.722C376.019 504.722 374.53 505.01 373.821 505.458C373.821 505.458 371.943 501.128 366.653 504.342C366.653 504.342 365.378 505.431 365.012 506.623C365.012 506.623 366.68 508.881 365.563 511.137" stroke="#CBCBCB" stroke-miterlimit="10"/>
<path d="M362.314 513.633C362.314 513.633 363.409 511.328 365.585 511.472C367.761 511.616 368.135 513.035 368.135 513.035" stroke="#CBCBCB" stroke-miterlimit="10"/>
<path d="M356.867 510.088C356.867 510.088 358.144 504.306 364.911 506.755" stroke="#CBCBCB" stroke-miterlimit="10"/>
<path d="M349.966 516.4C350.384 516.825 350.869 517.178 351.402 517.446" stroke="#CBCBCB" stroke-miterlimit="10"/>
<path d="M356.925 509.422C356.925 509.422 352.794 508.133 350.233 511.516" stroke="#CBCBCB" stroke-miterlimit="10"/>
<path d="M354.598 515.641C354.598 515.641 348.599 516.95 351.554 521.799" stroke="#CBCBCB" stroke-miterlimit="10"/>
<path d="M344.448 522.971C344.573 523.255 344.718 523.53 344.882 523.792C344.882 523.792 344.82 524.08 346.075 523.49" stroke="#CBCBCB" stroke-miterlimit="10"/>
<path d="M347.196 516.848C346.878 517.034 346.571 517.238 346.276 517.458" stroke="#CBCBCB" stroke-miterlimit="10"/>
<path d="M359.567 516.977C359.567 516.977 364.675 514.443 365.27 519.836" stroke="#CBCBCB" stroke-miterlimit="10"/>
<path d="M372.846 517.91C372.846 517.91 375.538 515.096 373.553 512.357" stroke="#CBCBCB" stroke-miterlimit="10"/>
<path d="M376.776 510.877C376.776 510.877 380.684 509.92 379.996 513.596" stroke="#CBCBCB" stroke-miterlimit="10"/>
<path d="M379.655 511.279C380.136 510.754 380.584 510.2 380.995 509.619" stroke="#CBCBCB" stroke-miterlimit="10"/>
<path d="M370.324 507.657C370.377 507.738 374.75 504.84 375.55 508.567" stroke="#CBCBCB" stroke-miterlimit="10"/>
<path d="M373.639 506.575L373.783 505.561" stroke="#CBCBCB" stroke-miterlimit="10"/>
<path d="M346.211 530.026C346.211 530.026 345.249 533.205 348.121 533.934L348.403 534.077C348.403 534.077 347.786 538.006 350.386 538.923C353.175 539.907 354.332 538.876 355.439 537.717C355.489 537.668 355.571 537.683 355.563 537.752C355.51 538.369 355.67 538.985 356.016 539.498C356.363 540.011 356.875 540.39 357.467 540.571C359.676 541.343 363.682 539.5 364.076 537.632" stroke="#CBCBCB" stroke-miterlimit="10"/>
<path d="M363.327 533.068C363.327 533.068 362.236 536.087 364.108 537.489C365.981 538.892 371.746 538.149 371.984 533.311" stroke="#CBCBCB" stroke-miterlimit="10"/>
<path d="M379.058 528.226C378.969 528.099 378.871 527.979 378.765 527.865" stroke="#CBCBCB" stroke-miterlimit="10"/>
<path d="M371.735 534.709C372.887 535.073 374.112 535.144 375.299 534.917" stroke="#CBCBCB" stroke-miterlimit="10"/>
<path d="M383.26 526.082C383.764 525.659 384.16 525.123 384.417 524.517C384.417 524.517 385.097 523.036 384.097 521.054" stroke="#CBCBCB" stroke-miterlimit="10"/>
<path d="M383.888 519.809C384.806 518.858 385.691 517.394 384.684 515.833C384.244 515.302 383.661 514.909 383.004 514.699" stroke="#CBCBCB" stroke-miterlimit="10"/>
<path d="M348.728 531.503C348.411 531.527 348.879 533.707 352.2 533.186" stroke="#CBCBCB" stroke-miterlimit="10"/>
<path d="M348.449 534.006L349.435 532.818" stroke="#CBCBCB" stroke-miterlimit="10"/>
<path d="M354.758 530.881C354.758 530.881 355.478 532.794 357.469 532.708" stroke="#CBCBCB" stroke-miterlimit="10"/>
<path d="M353.382 535.756C353.39 535.91 354.47 539.334 358.701 536.519" stroke="#CBCBCB" stroke-miterlimit="10"/>
<path d="M360.841 531.157C360.901 531.352 363.083 535.516 366.426 530.943" stroke="#CBCBCB" stroke-miterlimit="10"/>
<path d="M377.718 523.772C377.581 523.31 377.389 522.865 377.148 522.447" stroke="#CBCBCB" stroke-miterlimit="10"/>
<path d="M374.124 528.806C374.681 528.634 375.215 528.396 375.715 528.097" stroke="#CBCBCB" stroke-miterlimit="10"/>
<path d="M369.219 527.302C369.219 527.302 366.473 528.615 364.011 526.109" stroke="#CBCBCB" stroke-miterlimit="10"/>
<path d="M6.81828 99.3141C7.69229 99.7357 8.52024 100.247 9.28884 100.839C9.28884 100.839 11.1503 102.196 11.6194 102.339C12.0885 102.482 12.5522 102.314 13.4331 101.34L15.6984 98.6958C15.6984 98.6958 16.616 97.5101 17.6125 97.8092C17.6125 97.8092 17.8979 98.085 17.4378 98.5523C17.4378 98.5523 15.9378 100.488 13.7933 103.593C13.7933 103.593 13.2057 104.854 11.3822 104.719C11.3822 104.719 8.51635 104.066 7.10464 103.512C5.69294 102.958 3.53427 102.2 1.78855 102.287C1.19702 101.69 0.735539 100.976 0.433165 100.192C0.13079 99.4073 -0.00593546 98.5687 0.0315915 97.7288L2.64669 96.1808C2.64669 96.1808 2.81895 96.0603 3.11251 95.9113" stroke="#CBCBCB" stroke-miterlimit="10"/>
<path d="M3.85898 98.116C3.85898 98.116 4.42599 98.2838 5.24766 98.6098" stroke="#CBCBCB" stroke-miterlimit="10"/>
<path d="M13.0295 104.486C13.0478 104.596 13.1026 104.698 13.1852 104.774C13.2678 104.85 13.3735 104.896 13.4854 104.905C13.4854 104.905 14.7392 105.588 15.6009 103.983C15.6009 103.983 17.1526 101.715 20.3394 98.7943L20.5631 98.5993C20.5631 98.5993 21.6348 97.5263 20.1358 97.7084C19.9777 97.7274 19.826 97.7825 19.6925 97.8694L17.2543 99.4667C17.1773 99.5176 17.1041 99.5738 17.0351 99.6351C16.6361 99.9908 15.2534 101.318 13.6659 103.867" stroke="#CBCBCB" stroke-miterlimit="10"/>
<path d="M18.3377 100.873L20.6309 99.5227C20.6309 99.5227 22.4327 99.2024 22.175 100.038C22.175 100.038 17.8392 102.605 16.8705 103.838C16.8705 103.838 15.9003 104.788 15.4905 104.351" stroke="#CBCBCB" stroke-miterlimit="10"/>
<path d="M19.9797 101.511C19.9797 101.511 21.3393 101.57 20.5801 102.35C20.5801 102.35 18.7242 103.118 17.8613 103.775C17.8613 103.775 17.3291 104.166 17.0079 103.829" stroke="#CBCBCB" stroke-miterlimit="10"/>
<path d="M2.21692 102.351C2.21692 102.351 1.89275 104.079 0.62694 103.78C-0.638868 103.481 -2.05627 101.255 -2.05627 101.255C-2.05627 101.255 -3.23619 99.3056 -3.02853 98.3675L-0.950214 97.0413C-0.663918 96.9147 -0.355217 96.8465 -0.0422225 96.8408C0.270772 96.8351 0.581755 96.8919 0.87248 97.008L0.929751 97.0978" stroke="#CBCBCB" stroke-miterlimit="10"/>
<path d="M0.21886 96.8895C0.21886 96.8895 -1.10349 98.878 1.6883 102.378C1.6883 102.378 1.7824 102.453 1.98827 102.339" stroke="#CBCBCB" stroke-miterlimit="10"/>
<path d="M12.3059 85.1313C12.0008 84.9182 11.596 84.6029 11.4217 84.3445" stroke="#CBCBCB" stroke-miterlimit="10"/>
<path d="M20.8399 87.6158C20.8399 87.6158 17.6435 86.6666 15.4102 84.8984C15.4102 84.8984 13.5487 83.5416 13.0796 83.3985C12.6105 83.2553 12.144 83.4228 11.2662 84.396L9.00087 87.0405C9.00087 87.0405 8.08163 88.2273 7.08685 87.927C7.08685 87.927 6.80141 87.6513 7.26152 87.1839C7.26152 87.1839 8.76151 85.2479 10.906 82.1429C10.906 82.1429 11.4936 80.8827 13.3174 81.0156C13.3174 81.0156 16.183 81.6703 17.595 82.223C19.007 82.7758 21.1653 83.5345 22.9107 83.4492C23.5025 84.0468 23.964 84.7604 24.2664 85.5451C24.5687 86.3299 24.7053 87.1687 24.6674 88.0088L22.0562 89.5591C22.0562 89.5591 21.9451 89.6335 21.7558 89.7387" stroke="#CBCBCB" stroke-miterlimit="10"/>
<path d="M11.6707 81.2465C11.6522 81.1356 11.5972 81.0339 11.5143 80.9578C11.4315 80.8817 11.3256 80.8355 11.2134 80.8265C11.2134 80.8265 9.95856 80.1426 9.09963 81.7474C9.09963 81.7474 7.54612 84.0239 4.36081 86.9378L4.13604 87.1312C4.13604 87.1312 3.06577 88.2044 4.56305 88.0234C4.72201 88.005 4.87442 87.9495 5.008 87.8614L7.43898 86.2639C7.51671 86.2136 7.59047 86.1574 7.6596 86.0958C8.06307 85.7396 9.44995 84.4133 11.033 81.8653" stroke="#CBCBCB" stroke-miterlimit="10"/>
<path d="M6.3625 84.8595L4.0696 86.208C4.0696 86.208 2.2675 86.5297 2.52427 85.6986C2.52427 85.6986 6.86011 83.131 7.8288 81.8984C7.8288 81.8984 8.79897 80.9486 9.2088 81.3858" stroke="#CBCBCB" stroke-miterlimit="10"/>
<path d="M4.71918 84.2206C4.71918 84.2206 3.36092 84.1616 4.12016 83.382C4.12016 83.382 5.97632 82.6122 6.83758 81.9571C6.83758 81.9571 7.37113 81.5657 7.6927 81.9018" stroke="#CBCBCB" stroke-miterlimit="10"/>
<path d="M22.4889 83.382C22.4889 83.382 22.8075 81.6533 24.0719 81.9521C25.3363 82.2509 26.7593 84.4773 26.7593 84.4773C26.7593 84.4773 27.9392 86.4271 27.7316 87.3653L25.6491 88.6905C25.363 88.8169 25.0545 88.885 24.7418 88.8907C24.4291 88.8965 24.1183 88.8398 23.8278 88.7241L23.7708 88.6329" stroke="#CBCBCB" stroke-miterlimit="10"/>
<path d="M24.4828 88.8428C24.4828 88.8428 25.8054 86.853 23.0147 83.3543C23.0147 83.3543 22.9206 83.2796 22.7078 83.3926" stroke="#CBCBCB" stroke-miterlimit="10"/>
<path d="M5.43951 88.4503C5.43951 88.4503 3.3537 88.3569 3.32728 89.7719C3.32728 89.7719 3.20949 91.2642 5.23629 91.5847" stroke="#CBCBCB" stroke-miterlimit="10"/>
<path d="M6.02886 90.4179C6.02886 90.4179 4.59444 91.8473 6.15933 93.0773C6.15933 93.0773 8.57164 94.4513 9.20655 92.0763" stroke="#CBCBCB" stroke-miterlimit="10"/>
<path d="M8.22678 90.9583C8.22678 90.9583 9.22785 93.0913 11.4537 91.4077" stroke="#CBCBCB" stroke-miterlimit="10"/>
<path d="M9.20194 92.1102C9.20194 92.1102 8.83332 94.1569 10.8597 94.5647C10.8597 94.5647 12.5583 94.7238 13.4801 94.2291C14.402 93.7344 14.5547 93.9254 14.9379 93.9899C14.9379 93.9899 15.0291 91.8613 17.319 92.144" stroke="#CBCBCB" stroke-miterlimit="10"/>
<path d="M14.9168 94.0391C14.9168 94.0391 15.2964 95.7244 16.7821 95.9703C18.2679 96.2162 19.2174 95.6752 19.5455 94.9559C19.5455 94.9559 18.9589 96.113 21.1183 96.032C23.2777 95.9509 23.2382 93.9129 22.8042 93.3481C22.8042 93.3481 24.6352 91.232 22.3836 89.9868C22.3836 89.9868 21.7353 89.6671 21.3367 89.6327C21.3367 89.6327 21.8716 87.4467 18.9355 87.1432C18.9355 87.1432 18.1377 87.1894 17.6547 87.5366C17.6547 87.5366 17.6379 88.8751 16.563 89.4102" stroke="#CBCBCB" stroke-miterlimit="10"/>
<path d="M14.6097 89.4218C14.6097 89.4218 15.6901 88.8618 16.4753 89.5436C17.2604 90.2255 16.9934 90.8724 16.9934 90.8724" stroke="#CBCBCB" stroke-miterlimit="10"/>
<path d="M13.5622 86.5056C13.5622 86.5056 15.7138 84.6774 17.5787 87.5577" stroke="#CBCBCB" stroke-miterlimit="10"/>
<path d="M9.12192 86.9144C9.15828 87.1963 9.24074 87.4703 9.36602 87.7254" stroke="#CBCBCB" stroke-miterlimit="10"/>
<path d="M13.7762 86.2691C13.7762 86.2691 12.5787 84.589 10.6307 85.1361" stroke="#CBCBCB" stroke-miterlimit="10"/>
<path d="M11.1002 87.9608C11.1002 87.9608 8.44377 86.7293 8.16926 89.4229" stroke="#CBCBCB" stroke-miterlimit="10"/>
<path d="M5.13207 87.8203C5.09747 87.964 5.07343 88.11 5.06012 88.2571C5.06012 88.2571 4.95398 88.3486 5.60051 88.4859" stroke="#CBCBCB" stroke-miterlimit="10"/>
<path d="M7.94063 86.286C7.76624 86.2652 7.59083 86.254 7.4152 86.2527" stroke="#CBCBCB" stroke-miterlimit="10"/>
<path d="M12.6026 89.9005C12.6026 89.9005 15.2732 90.4101 13.9447 92.6302" stroke="#CBCBCB" stroke-miterlimit="10"/>
<path d="M17.3778 94.0816C17.3778 94.0816 19.2114 93.7887 19.2466 92.1762" stroke="#CBCBCB" stroke-miterlimit="10"/>
<path d="M20.8977 92.5432C20.8977 92.5432 22.6579 93.3054 21.3372 94.5038" stroke="#CBCBCB" stroke-miterlimit="10"/>
<path d="M21.8755 93.5253C22.2094 93.4647 22.5391 93.383 22.8627 93.2809" stroke="#CBCBCB" stroke-miterlimit="10"/>
<path d="M19.3746 89.4605C19.3717 89.5064 21.868 89.6659 21.0974 91.3121" stroke="#CBCBCB" stroke-miterlimit="10"/>
<path d="M20.9457 90.0048L21.2926 89.6608" stroke="#CBCBCB" stroke-miterlimit="10"/>
<path d="M3.76846 91.0079C3.76846 91.0079 2.48671 91.9383 3.36746 93.0431L3.43355 93.1785C3.43355 93.1785 2.06671 94.4933 2.79036 95.591C3.56618 96.7687 4.30259 96.7104 5.05729 96.5892C5.09028 96.5849 5.11728 96.6142 5.09449 96.6382C4.89645 96.8572 4.77956 97.1374 4.76333 97.4322C4.7471 97.7269 4.83253 98.0183 5.00533 98.2577C5.622 99.1876 7.6745 99.6419 8.36251 99.0459" stroke="#CBCBCB" stroke-miterlimit="10"/>
<path d="M9.39382 97.0965C9.39382 97.0965 8.10906 97.9286 8.41612 99.0011C8.72318 100.074 11.127 101.453 12.6119 99.6838" stroke="#CBCBCB" stroke-miterlimit="10"/>
<path d="M16.7648 99.7907C16.7673 99.7168 16.7647 99.6428 16.7571 99.5692" stroke="#CBCBCB" stroke-miterlimit="10"/>
<path d="M12.1143 100.143C12.4472 100.613 12.8918 100.993 13.4082 101.249" stroke="#CBCBCB" stroke-miterlimit="10"/>
<path d="M18.9785 100.188C19.2918 100.172 19.597 100.082 19.8691 99.9261C19.8691 99.9261 20.5543 99.5596 20.7454 98.5188" stroke="#CBCBCB" stroke-miterlimit="10"/>
<path d="M21.0251 97.9854C21.6477 97.8888 22.4058 97.5878 22.4732 96.7046C22.4591 96.3761 22.3511 96.0587 22.1618 95.7898" stroke="#CBCBCB" stroke-miterlimit="10"/>
<path d="M4.29892 92.2943C4.17151 92.2123 3.72106 93.1753 5.13247 93.9346" stroke="#CBCBCB" stroke-miterlimit="10"/>
<path d="M3.47147 93.1651L4.18837 92.9977" stroke="#CBCBCB" stroke-miterlimit="10"/>
<path d="M6.76888 93.796C6.76888 93.796 6.49076 94.7302 7.27207 95.2714" stroke="#CBCBCB" stroke-miterlimit="10"/>
<path d="M4.84096 95.2516C4.79985 95.3123 4.2232 96.9243 6.6416 97.0739" stroke="#CBCBCB" stroke-miterlimit="10"/>
<path d="M8.99982 95.6539C8.96644 95.7455 8.59503 97.9561 11.1829 97.1824" stroke="#CBCBCB" stroke-miterlimit="10"/>
<path d="M17.5392 97.713C17.6203 97.4976 17.6758 97.2734 17.7045 97.045" stroke="#CBCBCB" stroke-miterlimit="10"/>
<path d="M14.7234 98.5892C14.9843 98.6845 15.2557 98.748 15.5317 98.7783" stroke="#CBCBCB" stroke-miterlimit="10"/>
<path d="M13.2936 96.6044C13.2936 96.6044 11.872 96.3116 11.659 94.65" stroke="#CBCBCB" stroke-miterlimit="10"/>
<path d="M93.5624 225.707L89.6095 227.989C89.6095 227.989 86.5136 227.248 85.7842 226.611L81.2236 218.712C81.2236 218.712 78.6449 215.318 73.4382 213.842C68.2314 212.366 66.6965 205.534 66.6965 205.534C66.6965 205.534 65.6404 198.057 70.8315 194.31L72.5516 193.151" stroke="#CBCBCB" stroke-miterlimit="10"/>
<path d="M89.9519 227.792L93.9114 225.505C93.9114 225.505 94.8175 222.454 94.6304 221.504L90.0699 213.604C90.0699 213.604 88.4099 209.672 89.7456 204.427C91.0813 199.183 85.9208 194.434 85.9208 194.434C85.9208 194.434 79.9736 189.781 74.133 192.403L72.2603 193.319" stroke="#CBCBCB" stroke-miterlimit="10"/>
<path d="M90.4092 214.659L81.3562 219.886C80.9768 220.105 80.8468 220.59 81.0658 220.97L81.139 221.096C81.358 221.476 81.8432 221.606 82.2226 221.387L91.2756 216.16C91.655 215.941 91.785 215.456 91.566 215.076L91.4928 214.95C91.2737 214.57 90.7886 214.44 90.4092 214.659Z" stroke="#CBCBCB" stroke-miterlimit="10"/>
<path d="M91.7454 216.974L82.6924 222.2C82.313 222.42 82.183 222.905 82.4021 223.284L82.4752 223.411C82.6943 223.79 83.1794 223.92 83.5588 223.701L92.6118 218.474C92.9913 218.255 93.1212 217.77 92.9022 217.391L92.829 217.264C92.61 216.885 92.1248 216.755 91.7454 216.974Z" stroke="#CBCBCB" stroke-miterlimit="10"/>
<path d="M93.0265 219.193L83.9734 224.419C83.594 224.638 83.464 225.123 83.6831 225.503L83.7563 225.63C83.9753 226.009 84.4605 226.139 84.8399 225.92L93.8929 220.693C94.2723 220.474 94.4023 219.989 94.1832 219.61L94.1101 219.483C93.891 219.103 93.4059 218.973 93.0265 219.193Z" stroke="#CBCBCB" stroke-miterlimit="10"/>
<path d="M64.0164 200.835L63.9028 201.434C63.8862 201.528 63.8372 201.613 63.7644 201.675C63.6917 201.736 63.5997 201.77 63.5044 201.771L57.7309 201.87C57.6705 201.872 57.6105 201.86 57.5552 201.835C57.4999 201.811 57.4506 201.775 57.411 201.729C57.3713 201.683 57.3422 201.63 57.3258 201.571C57.3093 201.513 57.3059 201.452 57.3158 201.393L57.59 199.752C57.5982 199.698 57.6172 199.647 57.6456 199.6C57.6741 199.554 57.7115 199.513 57.7558 199.481C57.8 199.449 57.8501 199.427 57.9032 199.414C57.9564 199.402 58.0114 199.4 58.0651 199.41L63.6815 200.353C63.7354 200.362 63.787 200.382 63.8332 200.411C63.8794 200.44 63.9193 200.478 63.9505 200.523C63.9817 200.568 64.0036 200.619 64.0149 200.673C64.0262 200.726 64.0267 200.781 64.0164 200.835V200.835Z" stroke="#CBCBCB" stroke-miterlimit="10"/>
<path d="M69.2941 192.802L68.6513 193.111C68.5571 193.16 68.4491 193.175 68.345 193.154C68.2409 193.134 68.147 193.078 68.0786 192.997L64.3194 188.139C64.2812 188.083 64.2558 188.019 64.2453 187.952C64.2347 187.885 64.2391 187.816 64.2582 187.751C64.2772 187.686 64.3105 187.626 64.3556 187.575C64.4006 187.524 64.4564 187.484 64.5189 187.458L66.2608 186.567C66.3135 186.537 66.3717 186.518 66.4319 186.511C66.4921 186.503 66.5532 186.508 66.6115 186.525C66.6699 186.541 66.7244 186.569 66.7719 186.607C66.8193 186.645 66.8588 186.692 66.8879 186.745L69.548 192.184C69.573 192.241 69.5862 192.303 69.5869 192.365C69.5876 192.427 69.5758 192.489 69.5521 192.547C69.5284 192.604 69.4934 192.657 69.449 192.701C69.4047 192.744 69.352 192.779 69.2941 192.802V192.802Z" stroke="#CBCBCB" stroke-miterlimit="10"/>
<path d="M75.7903 189.375L75.1179 189.612C75.0192 189.651 74.9102 189.655 74.8089 189.623C74.7076 189.591 74.6202 189.526 74.5611 189.438L71.3418 184.206C71.31 184.147 71.2916 184.082 71.2877 184.015C71.2839 183.948 71.2949 183.881 71.3198 183.819C71.3447 183.757 71.383 183.701 71.4319 183.655C71.4808 183.609 71.5392 183.575 71.6029 183.554L73.4323 182.857C73.488 182.833 73.5479 182.82 73.6086 182.819C73.6693 182.818 73.7295 182.829 73.7859 182.852C73.8422 182.875 73.8935 182.908 73.9368 182.951C73.9801 182.993 74.0145 183.044 74.0381 183.1L76.1026 188.791C76.1205 188.85 76.1266 188.912 76.1206 188.973C76.1146 189.034 76.0966 189.093 76.0675 189.148C76.0385 189.202 75.9991 189.25 75.9515 189.289C75.9039 189.328 75.8491 189.357 75.7903 189.375Z" stroke="#CBCBCB" stroke-miterlimit="10"/>
<path d="M85.0603 189.622L84.4618 189.232C84.3707 189.178 84.3008 189.094 84.2638 188.995C84.2269 188.895 84.2251 188.786 84.2588 188.686L86.4349 182.956C86.4623 182.895 86.5029 182.841 86.5537 182.797C86.6045 182.753 86.6642 182.721 86.7288 182.703C86.7933 182.685 86.8611 182.682 86.9272 182.693C86.9933 182.704 87.0561 182.729 87.1113 182.767L88.7796 183.793C88.8328 183.822 88.8796 183.862 88.9174 183.909C88.9552 183.956 88.9832 184.011 88.9998 184.069C89.0163 184.127 89.0211 184.188 89.0139 184.249C89.0066 184.309 88.9875 184.367 88.9575 184.42L85.7116 189.513C85.6397 189.614 85.5307 189.682 85.4086 189.702C85.2864 189.723 85.1612 189.694 85.0603 189.622V189.622Z" stroke="#CBCBCB" stroke-miterlimit="10"/>
<path d="M65.0231 198.004L64.841 198.438C64.8112 198.507 64.7587 198.563 64.6923 198.598C64.6259 198.632 64.5496 198.643 64.4763 198.628L60.0245 197.715C59.9778 197.706 59.9338 197.686 59.8956 197.658C59.8574 197.629 59.8259 197.593 59.8034 197.551C59.7809 197.509 59.7679 197.463 59.7654 197.415C59.7629 197.368 59.7709 197.32 59.7888 197.276L60.2712 196.058C60.3037 195.978 60.3666 195.914 60.4461 195.88C60.5255 195.847 60.6151 195.846 60.6952 195.878L64.8489 197.574C64.8887 197.59 64.9249 197.615 64.9553 197.645C64.9857 197.676 65.0096 197.713 65.0258 197.753C65.042 197.793 65.0501 197.835 65.0497 197.879C65.0492 197.922 65.0402 197.964 65.0231 198.004V198.004Z" stroke="#CBCBCB" stroke-miterlimit="10"/>
<path d="M67.0848 194.777L66.7168 195.084C66.6596 195.132 66.5877 195.159 66.5131 195.16C66.4386 195.161 66.366 195.136 66.3077 195.089L62.759 192.265C62.7219 192.236 62.6917 192.198 62.6705 192.156C62.6493 192.114 62.6376 192.067 62.6363 192.02C62.635 191.973 62.6441 191.926 62.6629 191.882C62.6818 191.839 62.7099 191.8 62.7453 191.769L63.7286 190.905C63.7937 190.848 63.8787 190.819 63.9648 190.825C64.051 190.831 64.1314 190.871 64.1882 190.936L67.1203 194.315C67.1486 194.348 67.1701 194.385 67.1836 194.426C67.1971 194.467 67.2023 194.51 67.199 194.553C67.1957 194.596 67.1839 194.638 67.1643 194.677C67.1447 194.715 67.1177 194.749 67.0848 194.777V194.777Z" stroke="#CBCBCB" stroke-miterlimit="10"/>
<path d="M78.4885 188.703L78.0147 188.781C77.941 188.794 77.8652 188.78 77.8004 188.743C77.7356 188.706 77.6858 188.647 77.6597 188.577L76.0331 184.337C76.0163 184.293 76.0093 184.246 76.0127 184.198C76.0161 184.151 76.0297 184.105 76.0526 184.064C76.0755 184.022 76.1071 183.986 76.1453 183.959C76.1835 183.931 76.2274 183.911 76.2738 183.902L77.5677 183.653C77.6096 183.645 77.6527 183.645 77.6944 183.654C77.7362 183.662 77.7758 183.679 77.811 183.703C77.8462 183.727 77.8762 183.758 77.8993 183.794C77.9224 183.83 77.9381 183.87 77.9456 183.912L78.7622 188.32C78.7712 188.363 78.7711 188.408 78.7619 188.451C78.7528 188.494 78.7348 188.535 78.7091 188.571C78.6834 188.607 78.6505 188.638 78.6126 188.66C78.5746 188.683 78.5323 188.698 78.4885 188.703V188.703Z" stroke="#CBCBCB" stroke-miterlimit="10"/>
<path d="M72.0962 190.642L71.724 190.803C71.6649 190.829 71.5985 190.833 71.5367 190.814C71.4749 190.796 71.4217 190.756 71.3867 190.702L69.1699 187.571C69.147 187.538 69.1315 187.501 69.1245 187.461C69.1175 187.422 69.1191 187.382 69.1293 187.343C69.1394 187.305 69.1579 187.269 69.1834 187.238C69.2088 187.207 69.2407 187.182 69.2767 187.165L70.2846 186.693C70.3173 186.676 70.3531 186.666 70.3898 186.664C70.4264 186.661 70.4632 186.666 70.4979 186.678C70.5326 186.69 70.5645 186.709 70.5916 186.734C70.6187 186.759 70.6406 186.789 70.6558 186.822L72.2302 190.268C72.2464 190.301 72.2558 190.337 72.2578 190.374C72.2599 190.411 72.2545 190.448 72.242 190.483C72.2295 190.518 72.2102 190.55 72.1851 190.577C72.1601 190.604 72.1299 190.626 72.0962 190.642V190.642Z" stroke="#CBCBCB" stroke-miterlimit="10"/>
<path d="M82.0087 188.737L81.5625 188.565C81.4928 188.539 81.4342 188.489 81.397 188.424C81.3598 188.36 81.3461 188.285 81.3584 188.211L82.0947 183.731C82.1031 183.684 82.1216 183.64 82.1489 183.601C82.1761 183.562 82.2115 183.53 82.2526 183.506C82.2936 183.483 82.3394 183.468 82.3866 183.464C82.4338 183.46 82.4814 183.466 82.526 183.482L83.767 183.921C83.8071 183.936 83.844 183.958 83.8755 183.987C83.9071 184.015 83.9326 184.05 83.9508 184.088C83.9689 184.127 83.9792 184.169 83.9812 184.211C83.9831 184.254 83.9766 184.296 83.9621 184.336L82.432 188.546C82.417 188.586 82.3941 188.623 82.3647 188.655C82.3352 188.687 82.2997 188.712 82.2604 188.73C82.221 188.748 82.1784 188.757 82.1352 188.759C82.0921 188.76 82.0491 188.752 82.0087 188.737V188.737Z" stroke="#CBCBCB" stroke-miterlimit="10"/>
<path d="M70.0242 206.363C70.0242 206.363 68.4417 207.801 69.577 209.183C69.577 209.183 70.6988 210.705 72.4223 209.526" stroke="#CBCBCB" stroke-miterlimit="10"/>
<path d="M72.0409 207.828C72.0409 207.828 72.1587 210.25 74.2866 210.29C74.2866 210.29 77.1399 209.847 75.6785 207.095" stroke="#CBCBCB" stroke-miterlimit="10"/>
<path d="M74.0752 206.731C74.0752 206.731 76.5237 208.05 76.7678 204.797" stroke="#CBCBCB" stroke-miterlimit="10"/>
<path d="M75.7012 207.129C75.7012 207.129 77.0906 209.371 78.8836 208.277C78.8836 208.277 80.2448 207.194 80.5052 206.033C80.7656 204.872 81.0337 204.951 81.3633 204.731C81.3633 204.731 79.7066 202.617 81.5889 201.21" stroke="#CBCBCB" stroke-miterlimit="10"/>
<path d="M81.3899 204.793C81.3899 204.793 83.0278 206.136 84.3006 205.285C85.5734 204.435 85.8237 203.22 85.474 202.281C85.474 202.281 85.9887 203.825 87.4834 202.167C88.978 200.51 87.2986 198.572 86.5334 198.355C86.5334 198.355 86.1407 194.974 83.5145 195.426C83.145 195.508 82.7922 195.653 82.4716 195.854C82.4716 195.854 81.0865 193.357 78.7219 195.217C78.4078 195.597 78.1984 196.052 78.1145 196.537C78.1145 196.537 79.1851 197.837 78.8435 199.14" stroke="#CBCBCB" stroke-miterlimit="10"/>
<path d="M77.431 200.575C77.431 200.575 77.7508 199.234 78.8743 199.327C79.1743 199.332 79.4674 199.418 79.7225 199.576C79.9776 199.734 80.1852 199.958 80.3233 200.224" stroke="#CBCBCB" stroke-miterlimit="10"/>
<path d="M74.3212 198.547C74.3212 198.547 74.399 195.205 78.0732 196.614" stroke="#CBCBCB" stroke-miterlimit="10"/>
<path d="M74.279 198.15C74.279 198.15 71.6581 197.292 70.8685 199.944C70.8685 199.944 70.159 201.652 72.2688 202.791" stroke="#CBCBCB" stroke-miterlimit="10"/>
<path d="M73.7171 201.741C73.7171 201.741 70.8012 202.503 72.7815 205.296" stroke="#CBCBCB" stroke-miterlimit="10"/>
<path d="M71.088 201.895C71.088 201.895 69.4075 202.507 69.0236 203.891C69.0236 203.891 68.4622 204.885 69.598 206.467C69.598 206.467 69.5988 206.633 70.1739 206.289" stroke="#CBCBCB" stroke-miterlimit="10"/>
<path d="M76.3771 202.503C76.3771 202.503 78.7221 201.045 79.5536 204.149" stroke="#CBCBCB" stroke-miterlimit="10"/>
<path d="M83.2038 203.031C83.2038 203.031 84.2897 201.406 83.0103 199.826" stroke="#CBCBCB" stroke-miterlimit="10"/>
<path d="M84.4998 198.966C84.4998 198.966 86.3894 198.409 86.4109 200.531" stroke="#CBCBCB" stroke-miterlimit="10"/>
<path d="M85.9997 199.197C86.1936 198.889 86.3657 198.568 86.5147 198.236" stroke="#CBCBCB" stroke-miterlimit="10"/>
<path d="M80.904 197.117C80.9335 197.169 82.8706 195.487 83.646 197.636" stroke="#CBCBCB" stroke-miterlimit="10"/>
<path d="M82.4799 196.489L82.4505 195.904" stroke="#CBCBCB" stroke-miterlimit="10"/>
<path d="M124.578 674.53L121.819 673.627C121.819 673.627 120.855 671.846 120.847 671.23L122.651 665.715C122.651 665.715 123.163 663.053 121.65 659.96C120.138 656.868 122.722 653.239 122.722 653.239C122.722 653.239 125.814 649.563 129.794 650.43L131.073 650.752" stroke="#CBCBCB" stroke-miterlimit="10"/>
<path d="M122.058 673.705L124.822 674.609C124.822 674.609 126.652 673.742 127.023 673.25L128.827 667.736C128.827 667.736 129.984 665.279 133.035 663.684C136.086 662.09 136.143 657.629 136.143 657.629C136.143 657.629 135.821 652.836 132.098 651.184L130.87 650.686" stroke="#CBCBCB" stroke-miterlimit="10"/>
<path d="M128.471 668.344L122.151 666.277C121.886 666.19 121.601 666.335 121.514 666.599L121.486 666.688C121.399 666.953 121.543 667.238 121.808 667.324L128.128 669.392C128.393 669.479 128.678 669.334 128.765 669.069L128.794 668.981C128.88 668.716 128.736 668.431 128.471 668.344Z" stroke="#CBCBCB" stroke-miterlimit="10"/>
<path d="M127.943 669.96L121.622 667.892C121.358 667.806 121.073 667.95 120.986 668.215L120.957 668.304C120.87 668.569 121.015 668.854 121.28 668.94L127.6 671.008C127.865 671.094 128.15 670.95 128.236 670.685L128.265 670.596C128.352 670.332 128.207 670.047 127.943 669.96Z" stroke="#CBCBCB" stroke-miterlimit="10"/>
<path d="M127.436 671.509L121.116 669.442C120.851 669.355 120.566 669.499 120.479 669.764L120.45 669.853C120.364 670.118 120.508 670.403 120.773 670.489L127.093 672.557C127.358 672.643 127.643 672.499 127.73 672.234L127.759 672.146C127.845 671.881 127.701 671.596 127.436 671.509Z" stroke="#CBCBCB" stroke-miterlimit="10"/>
<path d="M123.809 649.974L123.477 650.175C123.425 650.207 123.364 650.22 123.304 650.211C123.244 650.203 123.189 650.174 123.148 650.129L120.649 647.437C120.623 647.409 120.603 647.375 120.591 647.339C120.579 647.302 120.575 647.264 120.58 647.225C120.585 647.187 120.598 647.151 120.619 647.118C120.639 647.086 120.667 647.058 120.699 647.037L121.592 646.471C121.621 646.452 121.654 646.439 121.688 646.432C121.722 646.426 121.757 646.427 121.791 646.434C121.825 646.442 121.857 646.456 121.885 646.476C121.914 646.495 121.938 646.521 121.956 646.55L123.895 649.61C123.914 649.64 123.926 649.673 123.932 649.707C123.938 649.741 123.937 649.777 123.929 649.81C123.92 649.844 123.906 649.876 123.885 649.904C123.865 649.932 123.839 649.956 123.809 649.974V649.974Z" stroke="#CBCBCB" stroke-miterlimit="10"/>
<path d="M129.855 649.062L129.435 648.889C129.372 648.865 129.319 648.82 129.285 648.762C129.25 648.704 129.237 648.636 129.246 648.569L129.95 644.725C129.961 644.683 129.98 644.644 130.007 644.611C130.035 644.577 130.069 644.55 130.108 644.532C130.147 644.513 130.189 644.503 130.233 644.503C130.276 644.503 130.318 644.512 130.358 644.53L131.519 644.977C131.556 644.99 131.589 645.009 131.618 645.034C131.647 645.06 131.671 645.091 131.688 645.125C131.705 645.16 131.715 645.198 131.717 645.236C131.719 645.275 131.714 645.313 131.701 645.35L130.255 648.92C130.239 648.956 130.215 648.988 130.186 649.015C130.157 649.042 130.122 649.062 130.085 649.076C130.048 649.089 130.008 649.094 129.968 649.092C129.929 649.09 129.89 649.079 129.855 649.062V649.062Z" stroke="#CBCBCB" stroke-miterlimit="10"/>
<path d="M134.237 650.682L133.839 650.465C133.779 650.435 133.73 650.385 133.702 650.323C133.674 650.262 133.668 650.193 133.685 650.127L134.795 646.381C134.81 646.341 134.833 646.304 134.863 646.274C134.893 646.244 134.929 646.22 134.969 646.206C135.009 646.191 135.052 646.186 135.094 646.189C135.137 646.193 135.178 646.206 135.215 646.228L136.322 646.798C136.357 646.814 136.389 646.837 136.415 646.865C136.441 646.894 136.461 646.927 136.474 646.963C136.488 646.999 136.493 647.038 136.492 647.076C136.49 647.115 136.481 647.153 136.464 647.188L134.646 650.583C134.625 650.616 134.599 650.645 134.567 650.668C134.536 650.691 134.5 650.708 134.462 650.717C134.424 650.727 134.384 650.728 134.346 650.722C134.307 650.716 134.27 650.703 134.237 650.682Z" stroke="#CBCBCB" stroke-miterlimit="10"/>
<path d="M138.057 655.178L137.987 654.729C137.974 654.663 137.984 654.594 138.015 654.534C138.047 654.474 138.098 654.427 138.16 654.4L141.797 652.998C141.838 652.985 141.881 652.981 141.923 652.986C141.965 652.992 142.006 653.007 142.042 653.029C142.078 653.052 142.108 653.083 142.131 653.119C142.154 653.155 142.169 653.195 142.174 653.238L142.397 654.464C142.405 654.501 142.407 654.54 142.4 654.578C142.394 654.616 142.38 654.652 142.359 654.685C142.339 654.718 142.312 654.746 142.28 654.768C142.249 654.79 142.213 654.806 142.176 654.814L138.385 655.44C138.307 655.449 138.228 655.426 138.166 655.377C138.105 655.328 138.065 655.256 138.057 655.178V655.178Z" stroke="#CBCBCB" stroke-miterlimit="10"/>
<path d="M125.577 649.248L125.294 649.346C125.249 649.362 125.2 649.361 125.155 649.344C125.111 649.327 125.073 649.295 125.049 649.254L123.591 646.758C123.576 646.732 123.566 646.703 123.563 646.673C123.561 646.643 123.564 646.612 123.575 646.584C123.585 646.556 123.602 646.53 123.623 646.508C123.644 646.487 123.67 646.471 123.699 646.46L124.481 646.171C124.532 646.153 124.589 646.156 124.639 646.179C124.689 646.202 124.727 646.244 124.746 646.296L125.707 648.983C125.716 649.009 125.72 649.037 125.718 649.064C125.716 649.091 125.709 649.118 125.697 649.143C125.685 649.168 125.668 649.19 125.648 649.208C125.627 649.226 125.603 649.24 125.577 649.248V649.248Z" stroke="#CBCBCB" stroke-miterlimit="10"/>
<path d="M127.981 648.854L127.679 648.811C127.632 648.804 127.589 648.781 127.557 648.746C127.525 648.711 127.506 648.666 127.503 648.619L127.333 645.739C127.332 645.709 127.336 645.679 127.347 645.651C127.358 645.623 127.375 645.597 127.397 645.577C127.419 645.556 127.445 645.54 127.474 645.531C127.502 645.521 127.533 645.518 127.563 645.522L128.389 645.62C128.444 645.627 128.494 645.655 128.527 645.698C128.561 645.742 128.576 645.797 128.57 645.851L128.215 648.675C128.211 648.702 128.203 648.728 128.189 648.752C128.175 648.776 128.157 648.797 128.135 648.813C128.114 648.83 128.089 648.842 128.062 648.849C128.036 648.856 128.008 648.858 127.981 648.854V648.854Z" stroke="#CBCBCB" stroke-miterlimit="10"/>
<path d="M135.701 651.675L135.463 651.484C135.425 651.454 135.399 651.413 135.39 651.366C135.38 651.32 135.386 651.271 135.408 651.229L136.725 648.658C136.739 648.631 136.759 648.608 136.782 648.59C136.806 648.571 136.834 648.558 136.863 648.551C136.893 648.544 136.923 648.544 136.952 648.55C136.982 648.557 137.01 648.569 137.034 648.587L137.701 649.094C137.723 649.111 137.741 649.131 137.755 649.155C137.768 649.178 137.777 649.204 137.781 649.231C137.784 649.258 137.782 649.285 137.775 649.311C137.768 649.337 137.756 649.362 137.739 649.383L135.998 651.642C135.982 651.665 135.961 651.684 135.936 651.698C135.912 651.712 135.885 651.721 135.857 651.724C135.829 651.727 135.801 651.724 135.774 651.716C135.747 651.707 135.722 651.694 135.701 651.675V651.675Z" stroke="#CBCBCB" stroke-miterlimit="10"/>
<path d="M132.068 649.471L131.833 649.364C131.796 649.347 131.766 649.317 131.748 649.28C131.731 649.242 131.727 649.2 131.738 649.161L132.279 646.781C132.285 646.756 132.296 646.733 132.312 646.713C132.327 646.693 132.347 646.677 132.37 646.665C132.392 646.654 132.417 646.647 132.443 646.646C132.468 646.645 132.493 646.65 132.517 646.659L133.168 646.936C133.19 646.945 133.21 646.957 133.227 646.974C133.244 646.99 133.257 647.009 133.266 647.031C133.275 647.053 133.279 647.076 133.279 647.099C133.279 647.123 133.274 647.146 133.265 647.167L132.302 649.376C132.293 649.398 132.28 649.418 132.263 649.434C132.246 649.451 132.227 649.464 132.205 649.473C132.183 649.482 132.16 649.486 132.136 649.486C132.113 649.486 132.089 649.481 132.068 649.471V649.471Z" stroke="#CBCBCB" stroke-miterlimit="10"/>
<path d="M137.18 653.357L137.072 653.072C137.055 653.028 137.053 652.979 137.068 652.934C137.083 652.889 137.113 652.851 137.153 652.825L139.587 651.271C139.613 651.255 139.641 651.245 139.671 651.242C139.701 651.238 139.732 651.241 139.76 651.251C139.789 651.26 139.815 651.275 139.837 651.296C139.859 651.317 139.877 651.342 139.888 651.37L140.207 652.144C140.217 652.169 140.222 652.196 140.222 652.223C140.222 652.25 140.216 652.277 140.206 652.302C140.195 652.327 140.18 652.35 140.161 652.369C140.141 652.388 140.118 652.403 140.093 652.413L137.45 653.476C137.424 653.486 137.397 653.491 137.37 653.49C137.342 653.49 137.315 653.484 137.29 653.473C137.265 653.462 137.242 653.446 137.223 653.426C137.204 653.406 137.189 653.382 137.18 653.357V653.357Z" stroke="#CBCBCB" stroke-miterlimit="10"/>
<path d="M123.742 655.167C123.742 655.167 122.389 655.028 122.217 656.153C122.217 656.153 121.973 657.33 123.263 657.646" stroke="#CBCBCB" stroke-miterlimit="10"/>
<path d="M123.905 656.744C123.905 656.744 122.808 657.829 123.693 658.854C123.693 658.854 125.115 660.016 125.797 658.155" stroke="#CBCBCB" stroke-miterlimit="10"/>
<path d="M125.289 657.242C125.289 657.242 125.704 658.962 127.348 657.695" stroke="#CBCBCB" stroke-miterlimit="10"/>
<path d="M125.791 658.181C125.791 658.181 125.319 659.791 126.599 660.175C126.599 660.175 127.69 660.36 128.35 659.99C129.011 659.621 129.087 659.781 129.331 659.844C129.331 659.844 129.629 658.161 131.094 658.455" stroke="#CBCBCB" stroke-miterlimit="10"/>
<path d="M129.313 659.883C129.313 659.883 129.373 661.229 130.316 661.47C131.259 661.712 131.941 661.314 132.237 660.75C132.237 660.75 131.725 661.649 133.144 661.653C134.564 661.657 134.769 660.039 134.546 659.584C134.546 659.584 135.981 657.962 134.651 656.911C134.456 656.77 134.237 656.665 134.006 656.598C134.006 656.598 134.6 654.882 132.715 654.552C132.402 654.565 132.097 654.659 131.832 654.825C131.832 654.825 131.671 655.884 130.909 656.276" stroke="#CBCBCB" stroke-miterlimit="10"/>
<path d="M129.629 656.216C129.629 656.216 130.4 655.798 130.833 656.37C130.958 656.514 131.042 656.689 131.076 656.877C131.109 657.065 131.091 657.259 131.024 657.437" stroke="#CBCBCB" stroke-miterlimit="10"/>
<path d="M129.269 653.882C129.269 653.882 130.885 652.5 131.778 654.838" stroke="#CBCBCB" stroke-miterlimit="10"/>
<path d="M129.439 653.694C129.439 653.694 128.732 652.088 127.141 652.841C127.141 652.841 126.031 653.23 126.387 654.713" stroke="#CBCBCB" stroke-miterlimit="10"/>
<path d="M127.5 654.953C127.5 654.953 125.901 653.895 125.419 656.02" stroke="#CBCBCB" stroke-miterlimit="10"/>
<path d="M126.31 653.773C126.31 653.773 125.307 653.237 124.488 653.643C124.488 653.643 123.779 653.799 123.512 655.009C123.512 655.009 123.434 655.08 123.841 655.206" stroke="#CBCBCB" stroke-miterlimit="10"/>
<path d="M128.269 656.536C128.269 656.536 129.955 657.028 128.838 658.74" stroke="#CBCBCB" stroke-miterlimit="10"/>
<path d="M130.918 659.994C130.918 659.994 132.149 659.817 132.353 658.541" stroke="#CBCBCB" stroke-miterlimit="10"/>
<path d="M133.393 658.881C133.393 658.881 134.46 659.539 133.464 660.45" stroke="#CBCBCB" stroke-miterlimit="10"/>
<path d="M133.921 659.689C134.149 659.65 134.374 659.595 134.595 659.525" stroke="#CBCBCB" stroke-miterlimit="10"/>
<path d="M132.742 656.393C132.73 656.428 134.349 656.632 133.661 657.912" stroke="#CBCBCB" stroke-miterlimit="10"/>
<path d="M133.708 656.872L133.973 656.61" stroke="#CBCBCB" stroke-miterlimit="10"/>
<path d="M378.189 675.868C378.189 675.868 379.472 672.182 376.791 671.238C376.791 671.238 374.005 670.074 372.318 673.508" stroke="#CBCBCB" stroke-miterlimit="10"/>
<path d="M374.124 675.669C374.124 675.669 372.167 672.193 368.98 674.212C368.98 674.212 365.075 677.663 369.267 680.313" stroke="#CBCBCB" stroke-miterlimit="10"/>
<path d="M371.923 679.27C371.923 679.27 367.32 679.706 369.348 684.771" stroke="#CBCBCB" stroke-miterlimit="10"/>
<path d="M369.21 680.28C369.21 680.28 365.5 678.317 363.645 681.689C363.645 681.689 362.437 684.636 362.89 686.604C363.344 688.573 362.899 688.725 362.572 689.371C362.572 689.371 366.581 690.873 364.828 694.816" stroke="#CBCBCB" stroke-miterlimit="10"/>
<path d="M362.487 689.306C362.487 689.306 359.071 688.916 357.801 691.417C356.53 693.919 357.071 695.965 358.278 697.025C358.278 697.025 356.379 695.235 355.386 699.148C354.392 703.061 358.305 704.298 359.599 703.873C359.599 703.873 362.665 708.506 366.233 705.264C366.233 705.264 367.187 704.306 367.459 703.61C367.459 703.61 371.347 705.96 373.488 700.886C373.488 700.886 373.824 699.427 373.417 698.339C373.417 698.339 370.87 697.457 370.422 695.188" stroke="#CBCBCB" stroke-miterlimit="10"/>
<path d="M371.458 691.695C371.458 691.695 371.954 693.989 370.239 694.955C368.525 695.921 367.429 695.036 367.429 695.036" stroke="#CBCBCB" stroke-miterlimit="10"/>
<path d="M377.582 691.673C377.582 691.673 379.927 696.698 373.44 698.206" stroke="#CBCBCB" stroke-miterlimit="10"/>
<path d="M377.921 692.208C377.921 692.208 382.462 690.936 381.66 686.225C381.66 686.225 381.454 682.996 377.49 683.373" stroke="#CBCBCB" stroke-miterlimit="10"/>
<path d="M376.115 686.331C376.115 686.331 379.878 682.351 374.877 680.141" stroke="#CBCBCB" stroke-miterlimit="10"/>
<path d="M379.915 683.546C379.915 683.546 381.957 680.994 381.509 678.565C381.509 678.565 381.61 676.545 378.762 675.308C378.762 675.308 378.635 675.058 378.036 676.134" stroke="#CBCBCB" stroke-miterlimit="10"/>
<path d="M371.61 687.8C371.61 687.8 369.218 692.266 365.682 688.474" stroke="#CBCBCB" stroke-miterlimit="10"/>
<path d="M361.098 693.684C361.098 693.684 360.681 697.16 363.74 698.249" stroke="#CBCBCB" stroke-miterlimit="10"/>
<path d="M362.16 700.989C362.16 700.989 359.763 703.669 358.177 700.54" stroke="#CBCBCB" stroke-miterlimit="10"/>
<path d="M359.751 702.118C359.688 702.758 359.668 703.402 359.692 704.045" stroke="#CBCBCB" stroke-miterlimit="10"/>
<path d="M368.855 700.216C368.766 700.181 367.135 704.555 364.404 702.125" stroke="#CBCBCB" stroke-miterlimit="10"/>
<path d="M366.98 702.688L367.451 703.529" stroke="#CBCBCB" stroke-miterlimit="10"/>
<path d="M374.202 671.236C374.202 671.236 373.111 668.344 370.531 669.217L370.24 669.252C370.24 669.252 368.461 665.965 365.978 666.564C363.322 667.198 363.04 668.566 362.869 669.992C362.861 670.058 362.791 670.085 362.755 670.03C362.44 669.533 361.976 669.15 361.428 668.936C360.881 668.722 360.28 668.688 359.712 668.839C357.611 669.352 355.653 672.743 356.424 674.356" stroke="#CBCBCB" stroke-miterlimit="10"/>
<path d="M359.588 677.453C359.588 677.453 358.685 674.621 356.469 674.485C354.252 674.348 350.348 677.784 352.934 681.574" stroke="#CBCBCB" stroke-miterlimit="10"/>
<path d="M352.331 680.394C352.331 680.394 347.547 681.781 348.292 685.868C349.037 689.956 352.6 689.116 352.6 689.116" stroke="#CBCBCB" stroke-miterlimit="10"/>
<path d="M350.235 688.97C350.235 688.97 347.959 692.284 348.622 694.438C348.622 694.438 349.063 696.373 351.778 697.311" stroke="#CBCBCB" stroke-miterlimit="10"/>
<path d="M352.081 696.246C352.081 696.246 350.539 699.991 353.396 701.158C354.02 701.339 354.682 701.346 355.31 701.179" stroke="#CBCBCB" stroke-miterlimit="10"/>
<path d="M371.461 671.374C371.689 671.191 370.09 669.77 367.888 671.825" stroke="#CBCBCB" stroke-miterlimit="10"/>
<path d="M370.238 669.335L370.177 670.727" stroke="#CBCBCB" stroke-miterlimit="10"/>
<path d="M367.282 674.846C367.282 674.846 365.649 673.754 364.201 674.812" stroke="#CBCBCB" stroke-miterlimit="10"/>
<path d="M365.53 670.464C365.436 670.35 362.667 668.291 361.087 672.529" stroke="#CBCBCB" stroke-miterlimit="10"/>
<path d="M362.547 677.677C362.39 677.556 358.366 675.482 358.469 680.616" stroke="#CBCBCB" stroke-miterlimit="10"/>
<path d="M353.912 686.065C353.912 686.065 350.516 690.135 355.271 692.392" stroke="#CBCBCB" stroke-miterlimit="10"/>
<path d="M358.457 684.763C358.457 684.763 359.769 682.396 363.048 683.079" stroke="#CBCBCB" stroke-miterlimit="10"/>
<path d="M72.5122 452.142C72.9689 453.165 72.7079 454.299 71.9427 454.834C72.2236 455.504 72.3489 456.229 72.3092 456.955C72.2695 457.68 72.0658 458.388 71.7135 459.023C71.3822 459.589 70.9371 460.081 70.4062 460.466C69.8753 460.852 69.2703 461.123 68.6292 461.263C68.3663 462.534 67.0286 463.947 65.1167 464.801C63.3229 465.602 61.5017 465.703 60.3613 465.173C58.9249 467.043 56.9058 468.049 54.958 467.62C53.4939 467.3 52.3345 466.247 51.6227 464.781C49.1747 465.325 46.9232 464.666 46.1908 463.026C45.6498 461.815 46.0606 460.346 47.1278 459.064C46.9863 458.853 46.8636 458.63 46.761 458.397C45.5968 455.791 47.2037 452.539 50.3563 451.131C50.9793 450.85 51.6381 450.657 52.3141 450.556C53.1412 448.82 55.1604 447.351 57.7201 446.846C59.801 446.436 61.7956 446.75 63.2328 447.578C63.506 447.39 63.7959 447.228 64.0987 447.093C66.5605 445.993 69.356 446.91 70.3508 449.137C70.5733 449.638 70.6918 450.179 70.6991 450.728C71.0983 450.785 71.4757 450.946 71.7937 451.194C72.1117 451.442 72.3594 451.769 72.5122 452.142Z" stroke="#CBCBCB" stroke-miterlimit="10"/>
<path d="M75.1816 467.567C75.5358 468.69 74.6997 469.948 73.3216 470.388L73.2344 470.413C73.098 470.769 72.8808 471.088 72.6 471.345C72.3191 471.602 71.9823 471.79 71.6162 471.894C70.3925 472.279 69.1425 471.773 68.8245 470.761C68.8171 470.745 68.8098 470.728 68.8025 470.712C68.3921 470.744 67.9824 470.642 67.6345 470.422C67.2865 470.202 67.0187 469.876 66.871 469.492C66.7232 469.107 66.7034 468.686 66.8144 468.289C66.9254 467.893 67.1613 467.543 67.4871 467.291C67.3018 467.016 67.1574 466.715 67.0586 466.398C66.5661 464.829 71.0085 463.126 71.6309 464.373C71.701 464.331 71.7759 464.298 71.8541 464.274C72.545 464.058 73.3399 464.594 73.6206 465.483C73.7011 465.738 73.7313 466.006 73.7093 466.272C74.0448 466.344 74.3561 466.501 74.6138 466.728C74.8715 466.955 75.067 467.244 75.1816 467.567V467.567Z" stroke="#CBCBCB" stroke-miterlimit="10"/>
<path d="M67.8421 477.261C67.6795 477.14 67.5586 476.971 67.4963 476.778C67.4927 476.768 67.4883 476.758 67.4831 476.749C67.2431 476.768 67.0033 476.709 66.7996 476.58C66.596 476.452 66.4394 476.261 66.3534 476.036C66.2673 475.811 66.2564 475.564 66.3223 475.333C66.3882 475.101 66.5273 474.897 66.7188 474.751C66.6111 474.591 66.5274 474.415 66.4704 474.23C66.1827 473.317 68.7693 472.325 69.1327 473.051C69.1741 473.026 69.2182 473.007 69.264 472.992C69.6695 472.864 70.1345 473.178 70.2914 473.697C70.3391 473.845 70.3566 474.001 70.343 474.156C70.5383 474.199 70.7193 474.291 70.8691 474.424C71.0189 474.556 71.1324 474.725 71.1991 474.913C71.4047 475.568 70.9188 476.304 70.1144 476.557L70.0668 476.579C69.9817 476.784 69.8524 476.968 69.6881 477.117C69.5238 477.267 69.3286 477.378 69.1163 477.444C68.9041 477.509 68.68 477.527 68.46 477.496C68.24 477.465 68.0295 477.386 67.8436 477.265" stroke="#CBCBCB" stroke-miterlimit="10"/>
<path d="M64.6647 478.681C64.6647 478.681 69.5354 478.413 70.5684 478.138C70.6837 478.109 70.8018 478.091 70.9208 478.085C71.3441 478.063 72.2205 478.042 72.6745 478.203" stroke="#CBCBCB" stroke-miterlimit="10"/>
<path d="M67.8709 477.282L66.452 478.27" stroke="#CBCBCB" stroke-miterlimit="10"/>
<path d="M61.099 481.831C61.099 481.831 64.9098 480.441 68.3737 480.55C68.3737 480.55 71.1771 480.528 71.7411 480.327C72.305 480.126 72.6326 479.626 72.7894 478.038L73.0863 473.81C73.0863 473.81 73.1255 471.986 74.3134 471.556C74.3134 471.556 74.7935 471.617 74.6825 472.408C74.6825 472.408 74.6203 475.389 74.7736 479.976C74.7736 479.976 75.1184 481.63 73.2348 482.829C73.2348 482.829 69.9594 484.267 68.1853 484.746C66.4111 485.226 63.7458 486.05 62.101 487.401C61.0879 487.247 60.1175 486.885 59.2512 486.338C58.3849 485.79 57.6414 485.069 57.0676 484.22L58.4986 480.813C58.4986 480.813 59.3707 478.358 61.0578 477.754L66.2855 475.663" stroke="#CBCBCB" stroke-miterlimit="10"/>
<path d="M74.6765 481.412C74.7751 481.507 74.9026 481.566 75.0389 481.581C75.1751 481.595 75.3123 481.564 75.4286 481.491C75.4286 481.491 77.148 481.251 76.8276 479.057C76.8276 479.057 76.6989 475.715 77.6978 470.552L77.7767 470.199C77.7767 470.199 78.0454 468.373 76.7126 469.637C76.5709 469.77 76.4624 469.935 76.3956 470.118L75.1709 473.444C75.1346 473.551 75.1062 473.659 75.0859 473.77C74.9551 474.407 74.5645 476.706 74.8588 480.348" stroke="#CBCBCB" stroke-miterlimit="10"/>
<path d="M77.2469 474.033L78.5143 471.057C78.5143 471.057 80.0412 469.438 80.4032 470.438C80.4032 470.438 78.0239 476.089 77.9722 477.996C77.9722 477.996 77.7161 479.627 76.9928 479.497" stroke="#CBCBCB" stroke-miterlimit="10"/>
<path d="M79.3153 473.467C79.3153 473.467 80.6865 472.54 80.511 473.852C80.511 473.852 79.253 475.95 78.8849 477.215C78.8849 477.215 78.6478 477.984 78.0904 477.887" stroke="#CBCBCB" stroke-miterlimit="10"/>
<path d="M62.5622 487.16C62.5622 487.16 63.4978 489.083 62.0432 489.709C60.5885 490.335 57.5907 489.186 57.5907 489.186C57.5907 489.186 55.0248 488.135 54.5475 487.066L55.619 484.265C55.8061 483.933 56.0577 483.641 56.359 483.407C56.6603 483.174 57.0052 483.003 57.3736 482.904L57.4947 482.951" stroke="#CBCBCB" stroke-miterlimit="10"/>
<path d="M56.6513 483.27C56.6513 483.27 56.8049 486.17 62.0624 487.57C62.0624 487.57 62.2086 487.576 62.3393 487.309" stroke="#CBCBCB" stroke-miterlimit="10"/>
<path d="M425.085 192.868C424.74 194.726 423.29 196.051 421.716 196.061C421.464 197.26 420.943 198.387 420.193 199.357C419.443 200.326 418.483 201.113 417.385 201.658C416.382 202.127 415.293 202.383 414.187 202.41C413.08 202.437 411.98 202.234 410.956 201.815C409.373 203.328 406.163 204.008 402.69 203.363C399.431 202.757 396.806 201.153 395.73 199.324C391.944 200.545 388.176 200.009 385.883 197.547C384.156 195.699 383.555 193.127 383.971 190.41C380.05 188.821 377.555 185.748 378.109 182.77C378.518 180.569 380.495 178.923 383.205 178.165C383.211 177.736 383.254 177.309 383.334 176.888C384.214 172.154 389.56 169.178 395.287 170.242C396.421 170.448 397.521 170.811 398.556 171.318C401.368 169.7 405.579 169.595 409.617 171.344C412.9 172.769 415.369 175.115 416.571 177.642C417.13 177.643 417.688 177.695 418.238 177.798C422.71 178.629 425.714 182.579 424.962 186.625C424.791 187.534 424.437 188.399 423.922 189.167C424.421 189.629 424.791 190.214 424.995 190.863C425.199 191.512 425.23 192.204 425.085 192.868Z" stroke="#CBCBCB" stroke-miterlimit="10"/>
<path d="M414.017 216.845C413.432 218.744 411.067 219.689 408.731 218.981L408.586 218.932C408.056 219.295 407.449 219.53 406.813 219.618C406.177 219.706 405.529 219.644 404.921 219.438C402.853 218.801 401.602 216.9 402.129 215.191C402.135 215.161 402.14 215.131 402.146 215.102C401.546 214.752 401.075 214.219 400.802 213.58C400.529 212.941 400.47 212.232 400.633 211.557C400.796 210.882 401.172 210.277 401.706 209.833C402.24 209.389 402.903 209.129 403.596 209.092C403.602 208.532 403.69 207.976 403.856 207.441C404.676 204.79 412.476 206.68 412.145 209.009C412.283 209.017 412.419 209.043 412.551 209.084C413.717 209.446 414.307 210.953 413.846 212.455C413.713 212.886 413.498 213.287 413.213 213.636C413.609 214.058 413.891 214.574 414.032 215.136C414.173 215.698 414.167 216.286 414.017 216.845V216.845Z" stroke="#CBCBCB" stroke-miterlimit="10"/>
<path d="M394.539 223.276C394.429 222.952 394.423 222.602 394.522 222.274C394.526 222.256 394.53 222.238 394.532 222.22C394.18 222.017 393.904 221.705 393.744 221.332C393.584 220.958 393.549 220.543 393.645 220.149C393.741 219.754 393.963 219.401 394.276 219.142C394.589 218.884 394.978 218.734 395.384 218.715C395.388 218.388 395.44 218.065 395.538 217.753C396.012 216.21 400.554 217.31 400.364 218.666C400.445 218.671 400.525 218.686 400.603 218.71C401.288 218.921 401.633 219.802 401.355 220.672C401.279 220.924 401.154 221.157 400.986 221.36C401.216 221.607 401.379 221.908 401.46 222.235C401.541 222.563 401.538 222.906 401.45 223.231C401.108 224.337 399.728 224.895 398.369 224.475L398.282 224.459C397.967 224.663 397.612 224.794 397.24 224.844C396.869 224.895 396.491 224.863 396.134 224.75C395.776 224.638 395.448 224.448 395.172 224.194C394.896 223.941 394.68 223.629 394.538 223.282" stroke="#CBCBCB" stroke-miterlimit="10"/>
<path d="M388.767 222.204C388.767 222.204 395.788 226.497 397.485 227.105C397.674 227.175 397.855 227.263 398.025 227.369C398.634 227.745 399.871 228.554 400.347 229.213" stroke="#CBCBCB" stroke-miterlimit="10"/>
<path d="M394.559 223.333L391.642 223.346" stroke="#CBCBCB" stroke-miterlimit="10"/>
<path d="M380.799 223.163C380.799 223.163 387.421 224.884 392.128 228.352C392.128 228.352 396.041 231.007 397.017 231.268C397.992 231.53 398.927 231.148 400.665 229.094L405.127 223.508C405.127 223.508 406.929 221.011 408.991 221.552C408.991 221.552 409.599 222.096 408.687 223.09C408.687 223.09 405.745 227.169 401.564 233.686C401.564 233.686 400.459 236.312 396.694 236.174C396.694 236.174 390.769 235.033 387.846 233.999C384.923 232.966 380.432 231.557 376.854 231.858C375.595 230.674 374.594 229.241 373.916 227.651C373.237 226.061 372.895 224.348 372.912 222.619L378.162 219.259C378.162 219.259 381.725 216.685 384.646 217.463L393.908 219.566" stroke="#CBCBCB" stroke-miterlimit="10"/>
<path d="M400.054 235.586C400.1 235.813 400.22 236.018 400.395 236.168C400.571 236.319 400.792 236.406 401.022 236.417C401.022 236.417 403.64 237.73 405.297 234.377C405.297 234.377 408.319 229.612 414.652 223.399L415.099 222.986C415.099 222.986 417.222 220.707 414.16 221.186C413.836 221.235 413.527 221.36 413.26 221.549L408.372 224.996C408.22 225.109 408.077 225.232 407.943 225.366C407.151 226.126 404.407 228.944 401.326 234.284" stroke="#CBCBCB" stroke-miterlimit="10"/>
<path d="M410.691 227.802L415.302 224.883C415.302 224.883 418.973 224.097 418.518 225.833C418.518 225.833 409.8 231.402 407.902 234C407.902 234 405.985 236.019 405.105 235.146" stroke="#CBCBCB" stroke-miterlimit="10"/>
<path d="M414.105 228.997C414.105 228.997 416.898 229.023 415.397 230.678C415.397 230.678 411.641 232.385 409.918 233.789C409.918 233.789 408.852 234.63 408.171 233.961" stroke="#CBCBCB" stroke-miterlimit="10"/>
<path d="M377.726 231.964C377.726 231.964 377.183 235.53 374.564 235.007C371.944 234.483 368.882 230.015 368.882 230.015C368.882 230.015 366.325 226.098 366.686 224.158L370.857 221.294C371.435 221.011 372.064 220.848 372.706 220.812C373.348 220.776 373.991 220.869 374.597 221.085L374.721 221.265" stroke="#CBCBCB" stroke-miterlimit="10"/>
<path d="M373.243 220.901C373.243 220.901 370.679 225.076 376.639 232.055C376.639 232.055 376.836 232.203 377.274 231.957" stroke="#CBCBCB" stroke-miterlimit="10"/>
<path d="M307.585 334.231C307.585 334.231 311.202 330.867 311.827 329.984C311.898 329.887 311.979 329.797 312.069 329.717C312.382 329.425 313.053 328.84 313.51 328.67" stroke="#CBCBCB" stroke-miterlimit="10"/>
<path d="M306.848 338.998C306.848 338.998 308.919 335.446 311.69 333.287C311.69 333.287 313.859 331.454 314.168 330.932C314.477 330.41 314.408 329.808 313.501 328.469L310.994 324.984C310.994 324.984 309.842 323.536 310.494 322.429C310.494 322.429 310.908 322.167 311.334 322.856C311.334 322.856 313.214 325.216 316.307 328.692C316.307 328.692 317.645 329.764 316.954 331.91C316.954 331.91 315.334 335.152 314.257 336.682C313.181 338.211 311.638 340.574 311.231 342.688C310.343 343.223 309.353 343.569 308.325 343.703C307.297 343.837 306.252 343.757 305.256 343.467L304.165 339.881C304.165 339.881 303.254 337.414 304.177 335.842L308.663 327.561C308.663 327.561 310.045 326.274 310.046 327.905L308.712 332.753" stroke="#CBCBCB" stroke-miterlimit="10"/>
<path d="M317.157 329.871C317.295 329.881 317.433 329.844 317.548 329.767C317.663 329.69 317.75 329.576 317.793 329.445C317.793 329.445 318.977 328.143 317.308 326.648C317.308 326.648 315.044 324.126 312.475 319.456L312.308 319.132C312.308 319.132 311.335 317.536 311.115 319.383C311.092 319.579 311.114 319.777 311.179 319.963L312.381 323.348C312.419 323.456 312.465 323.56 312.519 323.661C312.828 324.242 314.014 326.287 316.604 328.934" stroke="#CBCBCB" stroke-miterlimit="10"/>
<path d="M314.376 322.456L313.43 319.316C313.43 319.316 313.572 317.064 314.497 317.616C314.497 317.616 316.306 323.56 317.502 325.08C317.502 325.08 318.362 326.518 317.712 326.882" stroke="#CBCBCB" stroke-miterlimit="10"/>
<path d="M315.621 320.676C315.621 320.676 316.089 319.065 316.802 320.201C316.802 320.201 317.181 322.651 317.715 323.875C317.715 323.875 318.027 324.627 317.532 324.913" stroke="#CBCBCB" stroke-miterlimit="10"/>
<path d="M311.442 342.198C311.442 342.198 313.413 343.092 312.689 344.52C311.965 345.948 308.883 347.006 308.883 347.006C308.883 347.006 306.208 347.849 305.14 347.328L304.157 344.442C304.086 344.061 304.092 343.67 304.175 343.292C304.258 342.914 304.416 342.557 304.639 342.241L304.764 342.198" stroke="#CBCBCB" stroke-miterlimit="10"/>
<path d="M304.319 343.007C304.319 343.007 306.315 345.173 311.318 342.844C311.318 342.844 311.437 342.753 311.36 342.459" stroke="#CBCBCB" stroke-miterlimit="10"/>
<path d="M293.958 338.875C293.958 338.875 289.034 338.422 287.998 338.105C287.883 338.071 287.764 338.05 287.643 338.041C287.217 338.001 286.329 337.948 285.863 338.092" stroke="#CBCBCB" stroke-miterlimit="10"/>
<path d="M297.451 342.2C297.451 342.2 293.642 340.649 290.129 340.632C290.129 340.632 287.292 340.504 286.729 340.28C286.165 340.055 285.852 339.536 285.753 337.922L285.609 333.631C285.609 333.631 285.638 331.781 284.445 331.303C284.445 331.303 283.957 331.349 284.041 332.153C284.041 332.153 283.993 335.171 283.667 339.813C283.667 339.813 283.262 341.478 285.121 342.755C285.121 342.755 288.383 344.334 290.169 344.887C291.956 345.441 294.621 346.373 296.236 347.798C297.266 347.68 298.261 347.349 299.157 346.828C300.054 346.306 300.832 345.604 301.444 344.766L300.118 341.262C300.118 341.262 299.333 338.752 297.642 338.071L289.028 334.255C289.028 334.255 287.145 334.08 288.141 335.372L292.162 338.393" stroke="#CBCBCB" stroke-miterlimit="10"/>
<path d="M283.716 341.268C283.613 341.36 283.481 341.415 283.343 341.424C283.205 341.433 283.067 341.396 282.952 341.319C282.952 341.319 281.22 341.011 281.628 338.808C281.628 338.808 281.882 335.428 281.064 330.161L280.998 329.803C280.998 329.803 280.794 327.945 282.096 329.273C282.234 329.414 282.337 329.584 282.399 329.771L283.515 333.186C283.549 333.293 283.574 333.403 283.592 333.514C283.7 334.164 284.01 336.507 283.577 340.184" stroke="#CBCBCB" stroke-miterlimit="10"/>
<path d="M281.388 333.698L280.22 330.634C280.22 330.634 278.733 328.938 278.337 329.939C278.337 329.939 280.535 335.752 280.516 337.685C280.516 337.685 280.713 339.349 281.45 339.241" stroke="#CBCBCB" stroke-miterlimit="10"/>
<path d="M279.316 333.049C279.316 333.049 277.962 332.059 278.091 333.394C278.091 333.394 279.287 335.566 279.611 336.86C279.611 336.86 279.824 337.647 280.392 337.57" stroke="#CBCBCB" stroke-miterlimit="10"/>
<path d="M295.776 347.537C295.776 347.537 294.762 349.449 296.206 350.138C297.65 350.827 300.73 349.784 300.73 349.784C300.73 349.784 303.364 348.818 303.891 347.754L302.908 344.867C302.732 344.523 302.488 344.217 302.192 343.968C301.896 343.719 301.552 343.533 301.183 343.419L301.053 343.463" stroke="#CBCBCB" stroke-miterlimit="10"/>
<path d="M301.904 343.83C301.904 343.83 301.645 346.764 296.261 347.975C296.261 347.975 296.113 347.975 295.992 347.696" stroke="#CBCBCB" stroke-miterlimit="10"/>
<path d="M212.629 459.021C212.629 459.021 209.611 460.705 210.881 463.296C210.881 463.296 212.09 466.104 215.233 464.878" stroke="#CBCBCB" stroke-miterlimit="10"/>
<path d="M215.269 462.061C215.269 462.061 214.571 465.916 217.907 466.758C217.907 466.758 222.561 467.101 221.265 462.235" stroke="#CBCBCB" stroke-miterlimit="10"/>
<path d="M218.856 461.089C218.856 461.089 222.226 464.056 223.802 459.027" stroke="#CBCBCB" stroke-miterlimit="10"/>
<path d="M221.281 462.301C221.281 462.301 222.649 466.336 225.87 465.272C225.87 465.272 228.405 464.048 229.244 462.333C230.084 460.618 230.471 460.825 231.07 460.6C231.07 460.6 229.234 456.665 232.712 455.14" stroke="#CBCBCB" stroke-miterlimit="10"/>
<path d="M231.089 460.708C231.089 460.708 233.173 463.42 235.479 462.548C237.784 461.676 238.637 459.846 238.433 458.249C238.433 458.249 238.675 460.868 241.627 458.807C244.579 456.747 242.65 453.081 241.525 452.46C241.525 452.46 242.147 446.999 237.846 446.746C237.846 446.746 236.637 446.745 236.05 447.038C236.05 447.038 234.786 442.602 230.381 444.666C230.381 444.666 229.305 445.461 228.945 446.513C228.945 446.513 230.155 448.952 229.137 450.876" stroke="#CBCBCB" stroke-miterlimit="10"/>
<path d="M226.404 452.621C226.404 452.621 227.404 450.645 229.129 451.187C230.854 451.729 231.083 453.137 231.083 453.137" stroke="#CBCBCB" stroke-miterlimit="10"/>
<path d="M222.247 448.272C222.247 448.272 223.59 443.043 228.854 446.604" stroke="#CBCBCB" stroke-miterlimit="10"/>
<path d="M222.327 447.653C222.327 447.653 218.513 445.321 216.313 449.224C216.313 449.224 214.57 451.655 217.476 454.217" stroke="#CBCBCB" stroke-miterlimit="10"/>
<path d="M220.133 453.096C220.133 453.096 215.263 453.23 217.358 458.349" stroke="#CBCBCB" stroke-miterlimit="10"/>
<path d="M215.934 452.361C215.934 452.361 213.063 452.71 211.954 454.747C211.954 454.747 210.708 456.105 211.918 459.011C211.918 459.011 211.854 459.271 212.889 458.942" stroke="#CBCBCB" stroke-miterlimit="10"/>
<path d="M224.037 455.28C224.037 455.28 228.258 453.825 228.437 459.03" stroke="#CBCBCB" stroke-miterlimit="10"/>
<path d="M234.585 458.596C234.585 458.596 236.89 456.436 235.453 453.494" stroke="#CBCBCB" stroke-miterlimit="10"/>
<path d="M238.115 452.674C238.115 452.674 241.285 452.491 240.549 455.833" stroke="#CBCBCB" stroke-miterlimit="10"/>
<path d="M240.39 453.585C240.39 453.585 241.328 452.641 241.551 452.265" stroke="#CBCBCB" stroke-miterlimit="10"/>
<path d="M233.129 448.451C233.17 448.537 236.821 446.604 237.255 450.27" stroke="#CBCBCB" stroke-miterlimit="10"/>
<path d="M235.84 448.038L236.011 447.107" stroke="#CBCBCB" stroke-miterlimit="10"/>
<path d="M246.589 136.058C246.589 136.058 243.14 135.84 242.804 138.706C242.804 138.706 242.3 141.721 245.607 142.392" stroke="#CBCBCB" stroke-miterlimit="10"/>
<path d="M247.163 140.043C247.163 140.043 244.488 142.906 246.837 145.421C246.837 145.421 250.564 148.229 252.109 143.437" stroke="#CBCBCB" stroke-miterlimit="10"/>
<path d="M250.705 141.169C250.705 141.169 251.931 145.488 255.979 142.112" stroke="#CBCBCB" stroke-miterlimit="10"/>
<path d="M252.087 143.501C252.087 143.501 251.052 147.634 254.336 148.483C254.336 148.483 257.13 148.826 258.764 147.839C260.399 146.852 260.612 147.236 261.238 147.371C261.238 147.371 261.825 143.069 265.575 143.669" stroke="#CBCBCB" stroke-miterlimit="10"/>
<path d="M261.195 147.472C261.195 147.472 261.479 150.881 263.889 151.396C266.3 151.911 268.008 150.834 268.701 149.381C268.701 149.381 267.486 151.715 271.084 151.58C274.681 151.446 275.044 147.32 274.436 146.188C274.436 146.188 277.915 141.934 274.436 139.393C274.436 139.393 273.42 138.737 272.768 138.666C272.768 138.666 274.107 134.252 269.287 133.602C269.287 133.602 267.951 133.687 267.079 134.378C267.079 134.378 266.775 137.083 264.878 138.149" stroke="#CBCBCB" stroke-miterlimit="10"/>
<path d="M261.635 138.136C261.635 138.136 263.546 137.017 264.703 138.406C265.86 139.796 265.289 141.104 265.289 141.104" stroke="#CBCBCB" stroke-miterlimit="10"/>
<path d="M260.495 132.229C260.495 132.229 264.456 128.561 266.953 134.404" stroke="#CBCBCB" stroke-miterlimit="10"/>
<path d="M260.897 131.752C260.897 131.752 258.954 127.726 254.991 129.816C254.991 129.816 252.21 130.917 253.266 134.644" stroke="#CBCBCB" stroke-miterlimit="10"/>
<path d="M256.106 135.14C256.106 135.14 251.939 132.616 250.929 138.054" stroke="#CBCBCB" stroke-miterlimit="10"/>
<path d="M252.974 132.249C252.974 132.249 250.371 130.987 248.336 132.099C248.336 132.099 246.553 132.567 245.997 135.665C245.997 135.665 245.802 135.849 246.851 136.133" stroke="#CBCBCB" stroke-miterlimit="10"/>
<path d="M258.206 139.09C258.206 139.09 262.542 140.152 259.875 144.626" stroke="#CBCBCB" stroke-miterlimit="10"/>
<path d="M265.278 147.59C265.278 147.59 268.386 147.021 268.77 143.77" stroke="#CBCBCB" stroke-miterlimit="10"/>
<path d="M271.452 144.522C271.452 144.522 274.217 146.084 271.788 148.496" stroke="#CBCBCB" stroke-miterlimit="10"/>
<path d="M272.871 146.52C272.871 146.52 274.172 146.234 274.562 146.038" stroke="#CBCBCB" stroke-miterlimit="10"/>
<path d="M269.547 138.272C269.535 138.366 273.651 138.719 272.031 142.036" stroke="#CBCBCB" stroke-miterlimit="10"/>
<path d="M272.05 139.392L272.698 138.702" stroke="#CBCBCB" stroke-miterlimit="10"/>
<line x1="146.372" y1="535.409" x2="-39.7122" y2="666.396" stroke="#CBCBCB"/>
<line x1="226.372" y1="248.409" x2="40.2878" y2="379.396" stroke="#CBCBCB"/>
<line x1="376.372" y1="601.409" x2="190.288" y2="732.396" stroke="#CBCBCB"/>
<line x1="546.372" y1="23.4089" x2="360.288" y2="154.396" stroke="#CBCBCB"/>
<line x1="171.372" y1="46.4089" x2="-14.7122" y2="177.396" stroke="#CBCBCB"/>
<line x1="453.33" y1="333.415" x2="267.246" y2="464.402" stroke="#CBCBCB"/>
</g>
<defs>
<linearGradient id="paint0_linear" x1="205.5" y1="0" x2="205.5" y2="731" gradientUnits="userSpaceOnUse">
<stop stop-color="#51249B"/>
<stop offset="1" stop-color="#B4138A"/>
</linearGradient>
<clipPath id="clip0">
<rect width="411" height="731" fill="white"/>
</clipPath>
</defs>
</svg>
