<svg width="55" height="55" viewBox="0 0 55 55" fill="none" xmlns="http://www.w3.org/2000/svg">
<path d="M53.6756 27.2041C53.6756 27.4002 53.6756 27.597 53.6756 27.7943C53.6756 27.991 53.6756 28.1877 53.6617 28.3844C53.6477 28.5811 53.646 28.7778 53.6355 28.9745C53.6251 29.1713 53.6111 29.368 53.5954 29.5647C53.5798 29.7614 53.5623 29.9564 53.5414 30.1531C53.5205 30.3498 53.4996 30.5448 53.4752 30.7397C53.4508 30.9347 53.4247 31.1297 53.3951 31.3247C53.3655 31.5196 53.3358 31.7146 53.3027 31.9078C53.2696 32.1011 53.233 32.2961 53.1964 32.4893C53.1599 32.6825 53.118 32.8758 53.0762 33.0672C53.0344 33.2587 52.9908 33.452 52.9438 33.6435C52.8967 33.835 52.8497 34.0247 52.7992 34.2162C52.7486 34.4077 52.6946 34.5957 52.6406 34.7837C52.5866 34.9717 52.5274 35.1615 52.4664 35.3495C52.4054 35.5375 52.3462 35.7238 52.2834 35.9118C52.2207 36.0998 52.1545 36.2826 52.0865 36.4671C52.0186 36.6516 51.9489 36.8379 51.8775 37.0207C51.806 37.2035 51.7311 37.3863 51.6562 37.5673C51.5813 37.7484 51.5011 37.9311 51.4227 38.1105C51.3443 38.2898 51.2607 38.4691 51.1753 38.6466C51.0899 38.8242 51.001 38.9948 50.9174 39.1793C50.8338 39.3639 50.7432 39.5275 50.6473 39.7016C50.5515 39.8757 50.4609 40.0497 50.3651 40.2238C50.2692 40.3979 50.1717 40.572 50.0724 40.7374C49.973 40.9028 49.8702 41.0751 49.7674 41.244C49.6646 41.4128 49.5583 41.5765 49.4503 41.7418C49.3423 41.9072 49.2343 42.0709 49.1228 42.2328C49.0112 42.3947 48.898 42.5583 48.783 42.7167C48.668 42.8751 48.553 43.037 48.4345 43.1937C48.316 43.3504 48.1958 43.507 48.0738 43.662C47.9519 43.8169 47.8282 43.9701 47.7027 44.1216C47.5773 44.273 47.4501 44.4245 47.3211 44.5742C47.1922 44.7239 47.0633 44.8701 46.9308 45.0164C46.7984 45.1626 46.6643 45.3071 46.5301 45.4498C46.3959 45.5926 46.2565 45.7353 46.1189 45.8746C45.9812 46.0138 45.8401 46.1531 45.699 46.2906C45.5578 46.4282 45.4132 46.5622 45.2686 46.6963C45.124 46.8303 44.9776 46.9609 44.8295 47.0914C44.6814 47.222 44.5333 47.3508 44.3817 47.4779C44.2302 47.605 44.0803 47.7286 43.927 47.8522C43.7736 47.9758 43.6186 48.0976 43.4618 48.2178C43.3049 48.3379 43.1481 48.4563 42.9896 48.5659C42.831 48.6756 42.6707 48.7975 42.5087 48.9141C42.3466 49.0307 42.1846 49.1387 42.0208 49.2483C41.857 49.358 41.6915 49.4642 41.5242 49.5704C41.357 49.6766 41.1914 49.7793 41.0224 49.8803C40.8534 49.9812 40.6827 50.0822 40.5119 50.1797C40.3412 50.2772 40.1634 50.3729 39.9892 50.4669C39.815 50.5609 39.6407 50.6532 39.4665 50.742C39.2922 50.8308 39.118 50.9161 38.9438 51.0066C38.7695 51.0971 38.5953 51.1807 38.4089 51.259C38.2224 51.3373 38.0499 51.4209 37.8687 51.4992C37.6875 51.5776 37.5063 51.6524 37.3234 51.7255C37.1404 51.7987 36.9575 51.8718 36.7728 51.9414C36.5881 52.011 36.4034 52.0789 36.2187 52.1433C36.034 52.2077 35.8458 52.2722 35.6594 52.3348C35.4729 52.3975 35.283 52.455 35.0948 52.5089C34.9067 52.5629 34.7168 52.6221 34.5268 52.6743C34.3369 52.7265 34.147 52.777 33.9553 52.8258C33.7637 52.8745 33.5737 52.9215 33.3821 52.965C33.1904 53.0085 32.997 53.0503 32.8036 53.0904C32.6102 53.1304 32.4168 53.1687 32.2234 53.2035C32.03 53.2383 31.8349 53.2714 31.6414 53.3027C31.448 53.3341 31.2512 53.3637 31.056 53.3898C30.8609 53.4159 30.6657 53.4403 30.4688 53.4629C30.2719 53.4855 30.0768 53.5047 29.8816 53.5221C29.6865 53.5395 29.4879 53.5569 29.2927 53.5691C29.0976 53.5813 28.8989 53.5935 28.7021 53.6022C28.5052 53.6109 28.3083 53.6178 28.1114 53.6231C27.9145 53.6283 27.7176 53.6231 27.5207 53.6231C27.3238 53.6231 27.1252 53.6231 26.9283 53.6231C26.7314 53.6231 26.5345 53.6126 26.3376 53.6022C26.1408 53.5917 25.9439 53.583 25.7487 53.5691C25.5536 53.5552 25.3549 53.5412 25.158 53.5221C24.9612 53.5029 24.766 53.4855 24.5709 53.4629C24.3757 53.4403 24.1788 53.4159 23.9837 53.3898C23.7885 53.3637 23.5934 53.3341 23.4 53.3027C23.2066 53.2714 23.0097 53.2383 22.8163 53.2035C22.6229 53.1687 22.4295 53.1304 22.2361 53.0904C22.0427 53.0503 21.851 53.0085 21.6593 52.965C21.4677 52.9215 21.276 52.8745 21.0844 52.8258C20.8927 52.777 20.7028 52.7265 20.5129 52.6743C20.3229 52.6221 20.1348 52.5664 19.9448 52.5089C19.7549 52.4515 19.5685 52.394 19.3821 52.3348C19.1956 52.2756 19.0074 52.2095 18.821 52.1433C18.6346 52.0772 18.4516 52.011 18.2669 51.9414C18.0822 51.8718 17.8993 51.8004 17.7163 51.7255C17.5334 51.6507 17.3522 51.5758 17.171 51.4992C16.9898 51.4226 16.8103 51.3408 16.6308 51.259C16.4514 51.1772 16.2824 51.0936 16.0959 51.0066C15.9095 50.9195 15.7474 50.8325 15.5732 50.742C15.399 50.6514 15.2247 50.5679 15.0505 50.4669C14.8763 50.3659 14.702 50.2772 14.5278 50.1797C14.3535 50.0822 14.1793 49.9812 14.019 49.8803C13.8587 49.7793 13.681 49.6748 13.5155 49.5704C13.3499 49.4659 13.1844 49.3563 13.0206 49.2483C12.8568 49.1404 12.6931 49.0272 12.531 48.9141C12.369 48.8009 12.2104 48.6878 12.0501 48.5659C11.8898 48.4441 11.7347 48.3309 11.5779 48.2178C11.4211 48.1046 11.2678 47.9758 11.1145 47.8522C10.9611 47.7286 10.8078 47.6032 10.658 47.4779C10.5081 47.3526 10.3583 47.222 10.2102 47.0914C10.0621 46.9609 9.9157 46.8286 9.77109 46.6963C9.62647 46.564 9.48359 46.4264 9.34246 46.2906C9.20133 46.1549 9.06019 46.0138 8.9208 45.8746C8.78141 45.7353 8.64551 45.5926 8.51134 45.4498C8.37718 45.3071 8.24127 45.1626 8.10885 45.0164C7.97643 44.8701 7.8475 44.7221 7.71856 44.5742C7.58962 44.4262 7.46243 44.273 7.33698 44.1216C7.21153 43.9701 7.08782 43.8169 6.96585 43.662C6.84389 43.507 6.72366 43.3504 6.60518 43.1937C6.4867 43.037 6.3717 42.8769 6.2567 42.7167C6.14171 42.5566 6.02845 42.3964 5.90823 42.2328C5.788 42.0691 5.68869 41.9072 5.58066 41.7418C5.47263 41.5765 5.36809 41.4111 5.26529 41.244C5.16249 41.0768 5.07014 40.9097 4.96908 40.7356C4.86803 40.5616 4.77219 40.3875 4.67636 40.2238C4.58053 40.0602 4.48644 39.8757 4.3941 39.7016C4.30175 39.5275 4.21986 39.3534 4.12403 39.1793C4.0282 39.0052 3.94979 38.8312 3.86616 38.6466C3.78252 38.4621 3.69192 38.2898 3.62048 38.1105C3.54904 37.9311 3.46192 37.7501 3.38526 37.5673C3.30859 37.3845 3.23541 37.2035 3.16398 37.0207C3.09254 36.8379 3.02284 36.6534 2.95489 36.4688C2.88694 36.2843 2.82247 36.098 2.758 35.9118C2.69353 35.7255 2.63429 35.5375 2.57505 35.3495C2.51581 35.1615 2.45831 34.9735 2.40081 34.7837C2.34332 34.594 2.29279 34.406 2.24226 34.2162C2.19173 34.0264 2.14294 33.835 2.0959 33.6435C2.04885 33.452 2.00529 33.2605 1.96348 33.0672C1.92166 32.874 1.88158 32.6825 1.84499 32.4893C1.8084 32.2961 1.77181 32.1028 1.73871 31.9078C1.7056 31.7129 1.67424 31.5196 1.64462 31.3247C1.615 31.1297 1.58886 30.9347 1.56447 30.7397C1.54008 30.5448 1.51917 30.3481 1.49826 30.1531C1.47735 29.9581 1.45993 29.7614 1.44425 29.5647C1.42857 29.368 1.41637 29.1713 1.40417 28.9745C1.39198 28.7778 1.38501 28.5829 1.37804 28.3844C1.37107 28.1859 1.36758 27.991 1.3641 27.7943C1.36061 27.5975 1.3641 27.4008 1.3641 27.2041C1.3641 27.0074 1.3641 26.8107 1.37804 26.614C1.39198 26.4172 1.39372 26.2205 1.40417 26.0238C1.41463 25.8271 1.43031 25.6304 1.44425 25.4337C1.45819 25.237 1.47909 25.042 1.49826 24.847C1.51743 24.652 1.54008 24.4553 1.56447 24.2586C1.58886 24.0619 1.61674 23.8687 1.64462 23.6737C1.6725 23.4787 1.7056 23.2855 1.73871 23.0905C1.77181 22.8955 1.80666 22.704 1.84499 22.5108C1.88333 22.3176 1.92166 22.1243 1.96348 21.9311C2.00529 21.7379 2.0506 21.5481 2.0959 21.3566C2.1412 21.1651 2.19173 20.9737 2.24226 20.7839C2.29279 20.5942 2.34506 20.4044 2.40081 20.2146C2.45657 20.0249 2.51233 19.8369 2.57505 19.6489C2.63778 19.4609 2.69528 19.2746 2.758 19.0883C2.82073 18.9021 2.88694 18.7158 2.95489 18.5313C3.02284 18.3467 3.09254 18.1622 3.16398 17.9794C3.23541 17.7966 3.31034 17.6121 3.38526 17.431C3.46018 17.25 3.54033 17.069 3.62048 16.8879C3.70063 16.7069 3.78252 16.5293 3.86616 16.3517C3.94979 16.1742 4.04039 16.0036 4.12403 15.8208C4.20766 15.638 4.29827 15.4726 4.3941 15.2985C4.48993 15.1244 4.58053 14.9504 4.67636 14.7763C4.77219 14.6022 4.86977 14.4281 4.96908 14.2627C5.0684 14.0973 5.1712 13.9267 5.27574 13.7527C5.38029 13.5786 5.48483 13.4184 5.59111 13.253C5.6974 13.0877 5.80891 12.924 5.91868 12.7621C6.02845 12.6002 6.14345 12.4383 6.26716 12.2782C6.39087 12.118 6.49889 11.9596 6.61563 11.8012C6.73237 11.6428 6.84563 11.4896 6.96934 11.3381C7.09305 11.1867 7.21501 11.03 7.34046 10.8785C7.46592 10.7271 7.59311 10.5756 7.72204 10.4277C7.85098 10.2797 7.97992 10.13 8.11234 9.98375C8.24476 9.83752 8.37892 9.69303 8.51483 9.55028C8.65073 9.40753 8.78664 9.26652 8.92429 9.12551C9.06194 8.98451 9.20307 8.84698 9.34594 8.7112C9.48882 8.57541 9.62995 8.43962 9.77457 8.30558C9.91919 8.17154 10.0655 8.03923 10.2136 7.90867C10.3618 7.77811 10.5099 7.65103 10.6614 7.52394C10.813 7.39686 10.9629 7.27152 11.1179 7.14792C11.273 7.02432 11.4246 6.90247 11.5814 6.78235C11.7382 6.66223 11.895 6.54385 12.0536 6.43418L12.5345 6.08601C12.6965 5.97286 12.8586 5.86144 13.0224 5.75351C13.1861 5.64558 13.3517 5.53591 13.5189 5.43146C13.6862 5.32701 13.8517 5.22256 14.0208 5.11811C14.1898 5.01366 14.3588 4.91791 14.5295 4.81868C14.7003 4.71946 14.878 4.62545 15.0522 4.53145C15.2265 4.43744 15.4007 4.34692 15.575 4.25639C15.7492 4.16587 15.9234 4.08231 16.0977 3.99179L16.6326 3.73936C16.8068 3.65755 16.9915 3.57747 17.1727 3.50087C17.3539 3.42427 17.5351 3.34594 17.7181 3.27282C17.901 3.19971 18.084 3.12659 18.2687 3.05696C18.4534 2.98732 18.6433 2.92117 18.8175 2.85502C18.9918 2.78887 19.1904 2.7262 19.3786 2.66527C19.5667 2.60434 19.7532 2.54515 19.9414 2.49118C20.1295 2.43722 20.3195 2.37977 20.5094 2.3258C20.6993 2.27184 20.8892 2.2231 21.0809 2.17435C21.2725 2.12561 21.4625 2.08035 21.6559 2.03509C21.8493 1.98982 22.0392 1.94978 22.2326 1.90974C22.426 1.86971 22.6194 1.83315 22.8128 1.79659C23.0062 1.76003 23.2014 1.7287 23.3965 1.69736C23.5916 1.66603 23.7851 1.63817 23.9802 1.61032C24.1753 1.58247 24.3722 1.55984 24.5674 1.53721C24.7625 1.51457 24.9594 1.49543 25.1546 1.47802C25.3497 1.46061 25.5483 1.44494 25.7452 1.43101C25.9421 1.41709 26.1355 1.40316 26.3394 1.39272L26.9301 1.37183H27.5225H28.1131L28.7038 1.39272C28.9007 1.40142 29.0976 1.41187 29.2945 1.42579C29.4914 1.43972 29.6865 1.45539 29.8834 1.47279C30.0803 1.4902 30.2754 1.51109 30.4706 1.53198C30.6657 1.55287 30.8626 1.57899 31.0577 1.6051C31.2529 1.63121 31.448 1.66081 31.6432 1.69214C31.8383 1.72348 32.0317 1.75655 32.2251 1.79137C32.4185 1.82618 32.612 1.86448 32.8054 1.90452C32.9988 1.94456 33.1904 1.98634 33.3838 2.02986C33.5772 2.07338 33.7672 2.12039 33.9571 2.16913C34.147 2.21787 34.3387 2.26836 34.5286 2.32058C34.7185 2.37281 34.9084 2.42851 35.0966 2.48596C35.2848 2.54341 35.4729 2.6026 35.6611 2.66005C35.8493 2.71749 36.034 2.78365 36.2204 2.8498C36.4069 2.91595 36.5916 2.9821 36.7762 3.05173C36.9609 3.12137 37.1439 3.19448 37.3251 3.2676C37.5063 3.34071 37.691 3.41731 37.8722 3.49565C38.0534 3.57399 38.2329 3.65232 38.4123 3.73588C38.5918 3.81944 38.7608 3.90997 38.9455 3.98656C39.1302 4.06316 39.294 4.16065 39.4682 4.25117C39.6425 4.34169 39.8167 4.42525 39.9909 4.52622C40.1652 4.62719 40.3394 4.71597 40.5136 4.8152C40.6879 4.91443 40.8621 5.01192 41.0242 5.11289C41.1862 5.21385 41.3604 5.3183 41.526 5.42449C41.6915 5.53069 41.8588 5.63688 42.0226 5.74655C42.1863 5.85622 42.3484 5.97112 42.5139 6.09298C42.6794 6.21484 42.8362 6.32103 42.9948 6.44114C43.1534 6.56126 43.3102 6.67442 43.467 6.78931C43.6238 6.90421 43.7789 7.03129 43.9322 7.15489C44.0855 7.27849 44.2371 7.40383 44.3887 7.53091C44.5403 7.65799 44.6884 7.78681 44.8348 7.91737C44.9811 8.04794 45.1292 8.1785 45.2738 8.31254C45.4185 8.44659 45.5613 8.58063 45.7042 8.71816C45.8471 8.85568 45.9865 8.99321 46.1241 9.13248C46.2618 9.27174 46.3994 9.41449 46.5353 9.55724C46.6712 9.69999 46.8036 9.84622 46.9361 9.99245C47.0685 10.1387 47.1992 10.2849 47.3281 10.4346C47.457 10.5843 47.5825 10.734 47.7079 10.8855C47.8334 11.037 47.9571 11.1919 48.0791 11.3468C48.201 11.5018 48.3213 11.6567 48.4397 11.8151C48.5582 11.9735 48.675 12.1302 48.7882 12.2904C48.9015 12.4505 49.0147 12.6124 49.1262 12.7743C49.2378 12.9362 49.3458 13.1016 49.4538 13.2652C49.5618 13.4289 49.6577 13.5908 49.7692 13.7527C49.8807 13.9146 49.9748 14.0886 50.0741 14.2592C50.1734 14.4298 50.271 14.6074 50.3668 14.771C50.4626 14.9347 50.5567 15.1192 50.6491 15.2933C50.7414 15.4674 50.832 15.6415 50.9191 15.8156C51.0063 15.9896 51.0934 16.1637 51.177 16.3465C51.2607 16.5293 51.3513 16.6947 51.4244 16.8844C51.4976 17.0742 51.5813 17.2448 51.6579 17.4258C51.7346 17.6069 51.8078 17.7897 51.8792 17.9742C51.9506 18.1587 52.0203 18.3415 52.0883 18.526C52.1562 18.7106 52.2207 18.8968 52.2852 19.0831C52.3496 19.2694 52.4089 19.4574 52.4681 19.6437C52.5274 19.8299 52.5849 20.0214 52.6424 20.2094C52.6999 20.3974 52.7487 20.5889 52.8009 20.7787C52.8532 20.9684 52.8985 21.1599 52.9455 21.3514C52.9926 21.5429 53.0361 21.7344 53.078 21.9276C53.1198 22.1209 53.1599 22.3124 53.1982 22.5056C53.2365 22.6988 53.2714 22.8921 53.3045 23.087C53.3376 23.282 53.3689 23.4752 53.3968 23.6702C53.4247 23.8652 53.4526 24.0602 53.477 24.2551C53.5014 24.4501 53.524 24.6451 53.5432 24.8418C53.5623 25.0385 53.5815 25.2335 53.5972 25.4302C53.6129 25.6269 53.6251 25.8219 53.6373 26.0186C53.6495 26.2153 53.6564 26.412 53.6634 26.6087C53.6704 26.8055 53.6651 27.0074 53.6756 27.2041Z" fill="white"/>
<path d="M27.5295 53.6753C27.3309 53.6753 27.134 53.6753 26.9371 53.6753C26.7402 53.6753 26.5416 53.6648 26.3447 53.6544C26.1478 53.6439 25.9509 53.6352 25.754 53.6213C25.5572 53.6074 25.3603 53.5935 25.1634 53.5743C24.9665 53.5552 24.7713 53.5377 24.5745 53.5151C24.3776 53.4925 24.1824 53.4681 23.9873 53.442C23.7921 53.4159 23.597 53.3863 23.4018 53.355C23.2067 53.3236 23.0115 53.2906 22.8181 53.2557C22.6247 53.2209 22.4296 53.1826 22.2362 53.1426C22.0428 53.1025 21.8494 53.0608 21.6577 53.0172C21.466 52.9737 21.2744 52.925 21.0827 52.8762C20.8911 52.8275 20.7011 52.777 20.5095 52.7248C20.3178 52.6726 20.1296 52.6168 19.9415 52.5594C19.7533 52.502 19.5651 52.4445 19.3769 52.3853C19.1888 52.3261 19.0023 52.2617 18.8159 52.1956C18.6295 52.1294 18.4448 52.0615 18.2601 51.9919C18.0754 51.9223 17.8924 51.8509 17.7077 51.776C17.523 51.7012 17.3436 51.6263 17.1624 51.5497C16.9812 51.4731 16.8 51.3913 16.6205 51.3095L16.0856 51.0571C15.9113 50.97 15.7371 50.883 15.5629 50.7924C15.3886 50.7019 15.2144 50.6184 15.0401 50.5157C14.8659 50.4129 14.6917 50.3259 14.5174 50.2284C14.3432 50.1309 14.169 50.03 14.0069 49.9272C13.8449 49.8245 13.6689 49.7218 13.5034 49.6174C13.3378 49.5129 13.1706 49.4033 13.0068 49.2953C12.843 49.1874 12.6792 49.0742 12.5172 48.9611C12.3551 48.8479 12.1948 48.733 12.0363 48.6129C11.8777 48.4928 11.7192 48.3779 11.5624 48.2648C11.4055 48.1516 11.2505 48.0228 11.0971 47.8992C10.9438 47.7756 10.7905 47.6502 10.6406 47.5232C10.4908 47.3961 10.3392 47.2673 10.1911 47.1367C10.043 47.0061 9.89664 46.8738 9.75202 46.7398C9.6074 46.6057 9.46453 46.47 9.32165 46.3342C9.17878 46.1984 9.03939 46.0574 8.90174 45.9164C8.76409 45.7754 8.6247 45.6361 8.4888 45.4916C8.35289 45.3471 8.22047 45.2044 8.08805 45.0581C7.95563 44.9119 7.82495 44.7639 7.69601 44.6142C7.56708 44.4645 7.43988 44.3131 7.31443 44.1616C7.18898 44.0101 7.05656 43.8413 6.93459 43.6951C6.81263 43.5488 6.69066 43.3852 6.57218 43.2268C6.45369 43.0684 6.33696 42.9099 6.2237 42.7498C6.11045 42.5896 5.99545 42.4277 5.88394 42.2658C5.77242 42.1039 5.66265 41.9386 5.55463 41.7732C5.4466 41.6078 5.34206 41.432 5.23751 41.2579C5.13297 41.0838 5.03191 40.9202 4.9326 40.7513C4.83328 40.5824 4.73396 40.4031 4.63813 40.2378C4.5423 40.0724 4.44821 39.8896 4.35587 39.7155C4.26352 39.5414 4.17292 39.3673 4.0858 39.1933C3.99868 39.0192 3.91156 38.8451 3.82618 38.6606C3.74081 38.476 3.65892 38.3089 3.58051 38.1244C3.5021 37.9398 3.42195 37.764 3.34529 37.5812C3.26862 37.3984 3.19544 37.2157 3.124 37.0329C3.05257 36.8501 2.98287 36.6638 2.91492 36.4793C2.84697 36.2948 2.78076 36.1085 2.71803 35.9222C2.6553 35.7359 2.59258 35.5479 2.53334 35.3599C2.4741 35.1719 2.4166 34.9822 2.3591 34.7924C2.3016 34.6027 2.25107 34.4129 2.1988 34.2232C2.14653 34.0334 2.09948 33.8419 2.05418 33.6504C2.00888 33.4589 1.96358 33.2657 1.92176 33.0725C1.87994 32.8792 1.83987 32.6877 1.80154 32.4928C1.76321 32.2978 1.72836 32.1063 1.69525 31.9113C1.66215 31.7164 1.63078 31.5231 1.60116 31.3282C1.57154 31.1332 1.54715 30.9365 1.52276 30.7415C1.49836 30.5465 1.47571 30.3498 1.4548 30.1531C1.4339 29.9564 1.41647 29.7614 1.40253 29.5647C1.38859 29.368 1.37291 29.1713 1.36072 28.9745C1.34852 28.7778 1.34155 28.5811 1.33458 28.3827C1.32761 28.1842 1.32413 27.9892 1.32064 27.7925C1.31716 27.5958 1.32064 27.3973 1.32064 27.2006C1.32064 27.0039 1.32064 26.8055 1.33458 26.6087C1.34852 26.412 1.35026 26.2153 1.36072 26.0186C1.37117 25.8219 1.38685 25.6234 1.40253 25.4285C1.41821 25.2335 1.43564 25.035 1.4548 24.8383C1.47397 24.6416 1.49662 24.4466 1.52276 24.2499C1.54889 24.0532 1.57329 23.86 1.60116 23.665C1.62904 23.47 1.66215 23.275 1.69525 23.0801C1.72836 22.8851 1.76495 22.6919 1.80154 22.4986C1.83813 22.3054 1.87994 22.1122 1.92176 21.9189C1.96358 21.7257 2.00714 21.5342 2.05418 21.3427C2.10123 21.1512 2.14827 20.9597 2.1988 20.7682C2.24933 20.5767 2.30334 20.3887 2.3591 20.199C2.41486 20.0092 2.47061 19.8212 2.53334 19.6332C2.59606 19.4452 2.65356 19.2572 2.71803 19.0709C2.7825 18.8846 2.84697 18.6984 2.91492 18.5121C2.98287 18.3258 3.05257 18.143 3.124 17.9585C3.19544 17.774 3.27036 17.5929 3.34529 17.4102C3.42021 17.2274 3.50036 17.0481 3.58051 16.867C3.66066 16.686 3.74255 16.5084 3.82618 16.3291C3.90982 16.1498 4.00042 15.9809 4.0858 15.8068C4.17118 15.6328 4.26004 15.4587 4.35587 15.2846C4.4517 15.1105 4.5423 14.9364 4.63813 14.7623C4.73396 14.5883 4.83328 14.4142 4.9326 14.2401C5.03191 14.066 5.13471 13.8919 5.23751 13.7335C5.34031 13.5751 5.44834 13.4045 5.55463 13.2304C5.66091 13.0563 5.77242 12.8996 5.88394 12.7378C5.99545 12.5759 6.10696 12.4122 6.22196 12.2521C6.33695 12.0919 6.45369 11.9335 6.57043 11.7751C6.68717 11.6167 6.81263 11.4669 6.93459 11.3155C7.05656 11.164 7.18027 11.0074 7.30572 10.8542C7.43117 10.701 7.55836 10.5513 7.6873 10.4033C7.81624 10.2553 7.94692 10.1056 8.07934 9.95937C8.21176 9.81314 8.34592 9.66691 8.48008 9.52417C8.61425 9.38142 8.75364 9.23867 8.89303 9.0994C9.03242 8.96013 9.17181 8.82087 9.31294 8.68334C9.45407 8.54582 9.59869 8.41003 9.74331 8.27599C9.88793 8.14194 10.0343 8.01138 10.1824 7.88082C10.3305 7.75025 10.4803 7.61795 10.6284 7.48565C10.7765 7.35334 10.9316 7.23322 11.0849 7.10788C11.2383 6.98254 11.3933 6.86243 11.5502 6.74231C11.707 6.62219 11.8638 6.50381 12.0241 6.39414C12.1844 6.28447 12.3429 6.16261 12.505 6.04597C12.667 5.92934 12.8291 5.82315 12.9946 5.71347C13.1601 5.6038 13.3239 5.49587 13.4912 5.39142C13.6584 5.28697 13.8257 5.18078 13.9947 5.07981C14.1637 4.97884 14.3327 4.87787 14.5052 4.78039C14.6777 4.6829 14.8537 4.58541 15.028 4.49141C15.2022 4.3974 15.3764 4.30514 15.5507 4.21635C15.7249 4.12757 15.8991 4.04227 16.0734 3.95175C16.2476 3.86122 16.4219 3.77766 16.6083 3.69933C16.7947 3.62099 16.969 3.53743 17.1502 3.45909C17.3314 3.38075 17.5126 3.30416 17.6955 3.23104C17.8785 3.15793 18.0632 3.08481 18.2479 3.01518C18.4326 2.94554 18.6173 2.87765 18.8037 2.8115C18.9901 2.74535 19.1766 2.68268 19.3647 2.62175L19.9293 2.44766C20.1174 2.39022 20.3074 2.33625 20.4973 2.27358C20.6872 2.21091 20.8789 2.17087 21.0705 2.12213C21.2622 2.07338 21.4539 2.02638 21.6455 1.98286C21.8372 1.93934 22.0306 1.89582 22.224 1.85752C22.4174 1.81922 22.6108 1.77918 22.8059 1.74437C23.0011 1.70955 23.1945 1.67473 23.3896 1.6434C23.5848 1.61206 23.7799 1.58421 23.9751 1.5581C24.1702 1.53198 24.3671 1.50587 24.5623 1.48324C24.7574 1.46061 24.9543 1.44146 25.1512 1.42405C25.3481 1.40664 25.5502 1.39272 25.7471 1.39272C25.944 1.39272 26.1409 1.36834 26.3377 1.35964C26.5346 1.35094 26.7333 1.34397 26.9302 1.33875C27.3239 1.32947 27.7189 1.32947 28.115 1.33875L28.7056 1.35964C28.9025 1.35964 29.0994 1.37879 29.2963 1.39272C29.4932 1.40664 29.6901 1.42231 29.887 1.43972C30.0839 1.45713 30.2808 1.47802 30.4759 1.50065C30.671 1.52328 30.8679 1.54591 31.0631 1.57376C31.2582 1.60162 31.4551 1.62947 31.6503 1.65906C31.8454 1.68866 32.0388 1.72348 32.234 1.76003C32.4291 1.79659 32.6208 1.83315 32.8142 1.87319C33.0076 1.91323 33.201 1.95501 33.3926 1.99853C33.5843 2.04205 33.7777 2.08905 33.9694 2.13779C34.161 2.18654 34.351 2.23702 34.5409 2.28925C34.7308 2.34147 34.9207 2.39718 35.1089 2.46333C35.2971 2.52948 35.487 2.57997 35.6734 2.63741C35.8599 2.69486 36.048 2.76276 36.2345 2.82717C36.4209 2.89158 36.6056 2.96121 36.7903 3.03084C36.975 3.10048 37.1597 3.17185 37.3426 3.24671C37.5256 3.32156 37.7068 3.39642 37.888 3.47476C38.0692 3.55309 38.2504 3.63317 38.4299 3.71499C38.6093 3.79681 38.7871 3.88037 38.9648 3.96741C39.1425 4.05446 39.3133 4.1415 39.4875 4.23202C39.6617 4.32254 39.836 4.40611 40.0102 4.50707C40.1844 4.60804 40.3587 4.69857 40.5329 4.79605C40.7072 4.89354 40.8814 4.99451 41.0434 5.09548C41.2055 5.19645 41.3797 5.3009 41.547 5.40709C41.7143 5.51328 41.878 5.61947 42.0436 5.72914C42.2091 5.83881 42.3711 5.95023 42.5314 6.06164C42.6917 6.17305 42.8538 6.28969 43.0141 6.40981C43.1744 6.52993 43.3312 6.64482 43.4863 6.75798C43.6413 6.87113 43.7981 7.00169 43.9515 7.12529C44.1048 7.24889 44.2564 7.36379 44.4132 7.48565C44.57 7.6075 44.7129 7.74155 44.861 7.87211C45.0091 8.00267 45.1555 8.13498 45.3001 8.26902C45.4447 8.40307 45.5893 8.53711 45.7304 8.67464C45.8716 8.81216 46.0127 8.94969 46.1521 9.0907C46.2915 9.23171 46.4274 9.37271 46.5633 9.51546C46.6992 9.65821 46.8334 9.80444 46.9658 9.95067C47.0982 10.0969 47.2289 10.2449 47.3561 10.3946C47.4833 10.5443 47.6122 10.694 47.7394 10.8455C47.8666 10.9969 47.9886 11.1518 48.1105 11.3068C48.2325 11.4617 48.3527 11.6184 48.4712 11.7768C48.5897 11.9352 48.7064 12.0919 48.8197 12.2521C48.9329 12.4122 49.0479 12.5741 49.1595 12.7378C49.271 12.9014 49.3807 13.0703 49.4835 13.2304C49.5863 13.3906 49.6961 13.5629 49.8006 13.73C49.9052 13.8971 50.0062 14.066 50.1056 14.2366C50.2049 14.4072 50.3042 14.5848 50.4 14.7589C50.4959 14.9329 50.5899 15.107 50.6823 15.2811C50.7746 15.4552 50.8565 15.6293 50.9541 15.8034C51.0517 15.9774 51.1283 16.1515 51.212 16.3361C51.2956 16.5206 51.3775 16.6842 51.4594 16.8722C51.5413 17.0602 51.6162 17.2343 51.6929 17.4171C51.7695 17.5999 51.8427 17.781 51.9142 17.9655C51.9856 18.15 52.057 18.3328 52.1232 18.5191C52.1894 18.7053 52.2574 18.8899 52.3201 19.0761C52.3829 19.2624 52.4456 19.4504 52.5048 19.6384C52.5641 19.8264 52.6216 20.0162 52.6791 20.2042C52.7366 20.3922 52.7871 20.5837 52.8376 20.7752C52.8881 20.9667 52.9369 21.1564 52.9822 21.3479C53.0275 21.5394 53.0728 21.7327 53.1147 21.9241C53.1565 22.1156 53.1983 22.3106 53.2349 22.5038C53.2715 22.6971 53.3081 22.8921 53.3412 23.0853C53.3743 23.2785 53.4056 23.4752 53.4353 23.6702C53.4649 23.8652 53.491 24.0602 53.5154 24.2569C53.5398 24.4536 53.5607 24.6486 53.5816 24.8435C53.6025 25.0385 53.6199 25.237 53.6356 25.4337C53.6513 25.6304 53.6635 25.8271 53.6757 26.0238C53.6879 26.2205 53.6949 26.4172 53.7018 26.614C53.7088 26.8107 53.7123 27.0091 53.7158 27.2058C53.7193 27.4026 53.7158 27.5993 53.7158 27.7977C53.7158 27.9962 53.7158 28.1912 53.7018 28.3879C53.6879 28.5846 53.6862 28.783 53.6757 28.9798C53.6652 29.1765 53.6513 29.3732 53.6356 29.5699C53.6199 29.7666 53.6025 29.9633 53.5816 30.1583C53.5607 30.3533 53.5398 30.5517 53.5154 30.7467C53.491 30.9417 53.4631 31.1384 53.4353 31.3334C53.4074 31.5283 53.3743 31.7233 53.3412 31.9166C53.3081 32.1098 53.2732 32.3048 53.2349 32.498C53.1965 32.6912 53.1582 32.8862 53.1147 33.0777C53.0711 33.2692 53.0293 33.4624 52.9822 33.6539C52.9352 33.8454 52.8881 34.0369 52.8376 34.2284C52.7871 34.4199 52.7331 34.6096 52.6791 34.7976C52.625 34.9856 52.5658 35.1754 52.5048 35.3651C52.4438 35.5549 52.3846 35.7394 52.3201 35.9274C52.2557 36.1155 52.1912 36.3 52.1232 36.4845C52.0553 36.669 51.9856 36.8536 51.9142 37.0381C51.8427 37.2226 51.7678 37.4037 51.6929 37.5865C51.6179 37.7692 51.5378 37.9503 51.4576 38.1296C51.3775 38.3089 51.2956 38.49 51.212 38.6675C51.1283 38.8451 51.0377 39.0157 50.9524 39.2002C50.867 39.3847 50.7781 39.5484 50.6823 39.7225C50.5865 39.8965 50.4959 40.0706 50.4 40.2447C50.3042 40.4188 50.2066 40.5929 50.1056 40.7583C50.0045 40.9236 49.9034 41.096 49.8006 41.2648C49.6978 41.4337 49.5916 41.5991 49.4835 41.7645C49.3755 41.9298 49.2657 42.0935 49.1542 42.2554C49.0427 42.4173 48.9312 42.5809 48.8162 42.7411C48.7012 42.9012 48.5845 43.0596 48.4677 43.2181C48.351 43.3765 48.229 43.5314 48.1071 43.6864C47.9851 43.8413 47.8614 43.9962 47.7342 44.1477C47.607 44.2991 47.4815 44.4506 47.3526 44.6003C47.2237 44.75 47.093 44.898 46.9606 45.0442C46.8281 45.1904 46.6957 45.3349 46.5598 45.4777C46.4239 45.6204 46.2863 45.7632 46.1486 45.9024C46.011 46.0417 45.8681 46.1827 45.727 46.3202C45.5858 46.4578 45.4412 46.5918 45.2966 46.7259C45.152 46.8599 45.0056 46.9922 44.8575 47.1228C44.7094 47.2533 44.5596 47.3821 44.408 47.5092C44.2564 47.6363 44.1065 47.7617 43.9515 47.8853C43.7964 48.0089 43.6431 48.1307 43.4863 48.2508C43.3294 48.3709 43.1726 48.4893 43.0123 48.599C42.852 48.7087 42.6935 48.8305 42.5314 48.9472C42.3694 49.0638 42.2074 49.1717 42.0436 49.2814L41.5505 49.6139C41.3762 49.7184 41.2159 49.8228 41.0469 49.9238C40.8779 50.0247 40.6984 50.1257 40.5364 50.2249L40.0137 50.5122C39.8395 50.6062 39.6652 50.6984 39.491 50.789C39.3167 50.8795 39.1425 50.963 38.9683 51.0536L38.4334 51.306C38.2591 51.3878 38.0727 51.4679 37.8915 51.5445C37.7103 51.6211 37.5291 51.6994 37.3461 51.7725C37.1632 51.8457 36.9785 51.9188 36.7938 51.9884C36.6091 52.058 36.4244 52.1259 36.238 52.1921C36.0515 52.2582 35.8651 52.3209 35.6769 52.3818C35.4887 52.4428 35.3023 52.5037 35.1124 52.5559C34.9225 52.6081 34.7343 52.6691 34.5444 52.7213C34.3544 52.7735 34.1628 52.8257 33.9711 52.8727C33.7795 52.9198 33.5878 52.9685 33.3961 53.012C33.2045 53.0555 33.0111 53.0991 32.8177 53.1391C32.6243 53.1791 32.4309 53.2157 32.2374 53.2522L31.6537 53.3515C31.4586 53.3828 31.2635 53.4107 31.0666 53.4385C30.8697 53.4664 30.6763 53.489 30.4794 53.5116C30.2825 53.5343 30.0873 53.5534 29.8905 53.5708C29.6936 53.5882 29.4967 53.6039 29.2998 53.6178C29.1029 53.6318 28.906 53.6422 28.7091 53.6509C28.5122 53.6596 28.3153 53.6666 28.1167 53.6718C27.9181 53.677 27.7195 53.6753 27.5295 53.6753ZM27.5295 1.41187C27.3332 1.41187 27.1363 1.41187 26.9389 1.41187L26.3482 1.43276C26.1531 1.44146 25.9562 1.4519 25.7593 1.46583C25.5624 1.47976 25.3672 1.49543 25.1721 1.51283C24.9769 1.53024 24.7801 1.54939 24.5849 1.57202C24.3898 1.59465 24.1929 1.61903 23.9995 1.64514C23.8061 1.67125 23.6092 1.70084 23.4158 1.73218C23.2224 1.76351 23.0272 1.79659 22.8338 1.83141C22.6404 1.86622 22.447 1.90452 22.2536 1.94456C22.0602 1.9846 21.8685 2.02464 21.6769 2.0699C21.4852 2.11516 21.2936 2.16043 21.1036 2.20743C20.9137 2.25443 20.7238 2.30666 20.5339 2.35888C20.344 2.41111 20.1558 2.46681 19.9659 2.52426C19.7759 2.58171 19.5912 2.63916 19.4031 2.69834C19.2149 2.75753 19.0302 2.82194 18.8455 2.8881C18.6608 2.95425 18.4744 3.0204 18.2914 3.09003C18.1085 3.15967 17.9238 3.23104 17.7408 3.30416C17.5579 3.37727 17.3767 3.45387 17.1972 3.53221C17.0177 3.61054 16.8365 3.68888 16.6571 3.7707C16.4776 3.85252 16.3086 3.93608 16.1239 4.02312C15.9392 4.11016 15.7754 4.1972 15.6012 4.28599C15.427 4.37477 15.2527 4.46007 15.0785 4.56104C14.9042 4.66201 14.73 4.75079 14.5558 4.84828C14.3815 4.94576 14.2073 5.04499 14.047 5.1477C13.8867 5.25041 13.7125 5.35138 13.5452 5.45757C13.3779 5.56376 13.2141 5.66995 13.0503 5.77788C12.8866 5.88582 12.7193 6.00768 12.559 6.11909C12.3987 6.2305 12.2367 6.34714 12.0781 6.46726C11.9195 6.58737 11.7627 6.70053 11.6059 6.81542L11.1512 7.181C10.9978 7.30402 10.8462 7.42936 10.6964 7.55702C10.5465 7.6841 10.3967 7.81118 10.2486 7.94174L9.81126 8.33691C9.66665 8.47096 9.52377 8.605 9.38264 8.74253C9.2415 8.88006 9.10037 9.01758 8.96272 9.15685C8.82507 9.29612 8.67872 9.43712 8.53758 9.57465C8.39645 9.71218 8.26751 9.86189 8.13683 10.0081C8.00616 10.1543 7.87374 10.3023 7.74654 10.4503C7.61935 10.5983 7.49215 10.7549 7.37193 10.9064C7.25171 11.0578 7.12451 11.211 7.00254 11.366C6.88058 11.5209 6.76035 11.6758 6.64187 11.8377L6.2934 12.313C6.1784 12.4731 6.06689 12.635 5.95537 12.7969C5.84386 12.9588 5.73583 13.1225 5.62781 13.2879C5.51978 13.4532 5.41524 13.6186 5.31243 13.7857C5.20963 13.9529 5.10683 14.1217 5.00752 14.2906C4.9082 14.4594 4.81063 14.6231 4.7148 14.7972C4.61897 14.9712 4.53011 15.1453 4.43253 15.3194C4.33496 15.4935 4.25829 15.6676 4.16246 15.8417C4.06663 16.0157 3.98823 16.1898 3.90459 16.3726C3.82096 16.5554 3.73907 16.7208 3.65892 16.9088C3.57877 17.0968 3.5021 17.2674 3.42544 17.4502C3.34877 17.633 3.27733 17.8123 3.2059 17.9968C3.13446 18.1813 3.06302 18.3624 2.99681 18.5469C2.9306 18.7315 2.86265 18.9177 2.79992 19.104C2.7372 19.2903 2.67621 19.4748 2.61349 19.6715C2.55076 19.8682 2.49675 20.0458 2.43925 20.2355C2.38175 20.4253 2.33122 20.6133 2.28069 20.803C2.23016 20.9928 2.18138 21.1843 2.13433 21.3758C2.08729 21.5673 2.04547 21.757 2.00365 21.9503C1.96184 22.1435 1.92176 22.335 1.88343 22.5265C1.8451 22.718 1.81025 22.9129 1.77714 23.1079C1.74404 23.3029 1.71268 23.4944 1.6848 23.6894C1.65692 23.8843 1.62904 24.0793 1.60465 24.2743C1.58026 24.4693 1.5576 24.6642 1.53844 24.8592C1.51927 25.0542 1.50011 25.2509 1.48442 25.4459C1.46874 25.6408 1.45655 25.8393 1.44435 26.0343C1.43215 26.2292 1.42518 26.4277 1.41821 26.6244C1.41124 26.8211 1.40776 27.0161 1.40427 27.2128C1.40079 27.4095 1.40427 27.6062 1.40427 27.803C1.40427 27.9997 1.40427 28.1964 1.41821 28.3931C1.43215 28.5898 1.4339 28.7848 1.44435 28.9815C1.4548 29.1782 1.46874 29.3732 1.48442 29.5699C1.50011 29.7666 1.51753 29.9616 1.53844 30.1566C1.55935 30.3515 1.58026 30.5483 1.60465 30.7432C1.62904 30.9382 1.65518 31.1332 1.6848 31.3264C1.71442 31.5196 1.74404 31.7164 1.77714 31.9096C1.81025 32.1028 1.84684 32.2961 1.88343 32.4893C1.92002 32.6825 1.96184 32.874 2.00365 33.0672C2.04547 33.2605 2.08903 33.4502 2.13433 33.6417C2.17963 33.8332 2.23016 34.023 2.28069 34.2127C2.33122 34.4025 2.38349 34.5922 2.43925 34.782C2.49501 34.9717 2.55076 35.158 2.61349 35.346C2.67621 35.534 2.73371 35.7203 2.79644 35.9065C2.85916 36.0928 2.92537 36.2773 2.99333 36.4619C3.06128 36.6464 3.12923 36.8309 3.20241 37.0137C3.27559 37.1965 3.34703 37.3793 3.42369 37.5603C3.50036 37.7414 3.57702 37.9224 3.65543 38.1017C3.73384 38.2811 3.81747 38.4604 3.90285 38.6379C3.98823 38.8155 4.07709 38.9861 4.15898 39.1602C4.24087 39.3343 4.33322 39.5083 4.42905 39.6824C4.52488 39.8565 4.61548 40.0306 4.71131 40.2047C4.80714 40.3788 4.90472 40.5528 5.00403 40.7165C5.10335 40.8801 5.20615 41.0542 5.30895 41.2213C5.41175 41.3884 5.51804 41.5556 5.62432 41.7192C5.73061 41.8828 5.84038 42.0482 5.95189 42.2101C6.0634 42.372 6.17491 42.5339 6.28991 42.6941C6.40491 42.8542 6.52165 43.0126 6.63839 43.1693C6.75513 43.326 6.87709 43.4827 6.99906 43.6359C7.12103 43.7891 7.24474 43.944 7.36844 44.0954C7.49215 44.2469 7.62109 44.3984 7.75003 44.5463C7.87896 44.6943 8.0079 44.8423 8.14032 44.9885C8.27274 45.1347 8.40516 45.2792 8.54107 45.422C8.67697 45.5647 8.81288 45.7057 8.95053 45.845C9.08817 45.9843 9.22931 46.1235 9.37044 46.261C9.51157 46.3986 9.65445 46.5326 9.79907 46.6649C9.94368 46.7972 10.09 46.9295 10.2364 47.0601C10.3828 47.1907 10.5344 47.3195 10.6842 47.4448C10.834 47.5702 10.9891 47.699 11.1512 47.8174C11.3132 47.9357 11.4596 48.0628 11.6146 48.1812C11.7697 48.2996 11.9283 48.4197 12.0868 48.5294C12.2454 48.639 12.4057 48.7591 12.5677 48.8775C12.7297 48.9959 12.89 49.1004 13.0538 49.21C13.2176 49.3197 13.3831 49.4259 13.5487 49.5321L14.0505 49.842C14.2247 49.9429 14.399 50.0421 14.5592 50.1396C14.7195 50.2371 14.9077 50.3329 15.082 50.4269C15.2562 50.5209 15.4304 50.6131 15.6047 50.7019C15.7789 50.7907 15.9532 50.876 16.1274 50.9665C16.3016 51.0571 16.4759 51.1406 16.6606 51.2172C16.8453 51.2938 17.0195 51.3791 17.2007 51.4574C17.3819 51.5358 17.5614 51.6106 17.7443 51.6838C17.9273 51.7569 18.1102 51.83 18.2949 51.8996C18.4796 51.9693 18.6626 52.0354 18.849 52.1016C19.0354 52.1677 19.2201 52.2304 19.4066 52.2913C19.593 52.3522 19.7812 52.4114 19.9693 52.4654C20.1575 52.5194 20.3474 52.5768 20.5374 52.629L21.1071 52.7805C21.2988 52.8292 21.4887 52.8745 21.6804 52.9197C21.872 52.965 22.0654 53.005 22.2571 53.0451C22.4488 53.0851 22.6439 53.1217 22.8373 53.1565C23.0307 53.1913 23.2241 53.2261 23.4193 53.2575C23.6144 53.2888 23.8078 53.3167 24.003 53.3428C24.1981 53.3689 24.3915 53.395 24.5884 53.4159C24.7853 53.4368 24.9787 53.4577 25.1756 53.4768C25.3725 53.496 25.5676 53.5099 25.7628 53.5221C25.9579 53.5343 26.1565 53.5465 26.3517 53.5552C26.5468 53.5639 26.7455 53.5708 26.9424 53.576C27.3361 53.5842 27.7293 53.5842 28.1219 53.576C28.3188 53.576 28.5157 53.5656 28.7126 53.5552C28.9095 53.5447 29.1046 53.536 29.3015 53.5221C29.4984 53.5082 29.6936 53.4942 29.8905 53.4768C30.0873 53.4594 30.2808 53.4385 30.4776 53.4159C30.6745 53.3933 30.8679 53.3689 31.0613 53.3428C31.2547 53.3167 31.4516 53.2871 31.6468 53.2575C31.8419 53.2279 32.0336 53.1931 32.2287 53.1565C32.4239 53.1199 32.6138 53.0851 32.8072 53.0451C33.0006 53.005 33.1923 52.9633 33.3839 52.9197C33.5756 52.8762 33.7673 52.8292 33.9572 52.7805C34.1471 52.7317 34.3388 52.6813 34.5269 52.629C34.7151 52.5768 34.9068 52.5211 35.095 52.4654C35.2831 52.4097 35.4696 52.3488 35.6577 52.2913C35.8459 52.2339 36.0306 52.166 36.2153 52.1016C36.4 52.0371 36.5864 51.9693 36.7711 51.8996C36.9558 51.83 37.137 51.7586 37.32 51.6838C37.5029 51.6089 37.6841 51.534 37.8653 51.4574L38.4037 51.2172C38.5826 51.1348 38.7603 51.0513 38.9369 50.9665C39.1111 50.8795 39.2854 50.7924 39.4596 50.7019C39.6339 50.6114 39.8081 50.5278 39.9823 50.4269C40.1566 50.3259 40.3308 50.2371 40.505 50.1396C40.6793 50.0421 40.8448 49.9429 41.0138 49.842C41.1828 49.741 41.3501 49.6365 41.5156 49.5321C41.6812 49.4276 41.8467 49.3197 42.0105 49.21C42.1742 49.1004 42.3363 48.9907 42.4966 48.8775C42.6569 48.7644 42.8189 48.6495 42.9775 48.5294C43.136 48.4092 43.2929 48.2943 43.4497 48.1812C43.6065 48.068 43.7598 47.941 43.9131 47.8174C44.0665 47.6938 44.2181 47.5684 44.3679 47.4413C44.5177 47.3143 44.6676 47.1872 44.8157 47.0566C44.9638 46.926 45.1084 46.7955 45.253 46.6614C45.3977 46.5274 45.5405 46.3934 45.6817 46.2576C45.8228 46.1218 45.9639 45.9825 46.1016 45.8415C46.2392 45.7005 46.3769 45.5612 46.5128 45.4185C46.6487 45.2757 46.7811 45.1312 46.9118 44.985C47.0425 44.8388 47.1749 44.6926 47.3038 44.5428C47.4327 44.3931 47.5582 44.2434 47.6837 44.092C47.8091 43.9405 47.9311 43.7873 48.053 43.6324C48.175 43.4775 48.2952 43.3225 48.4137 43.1658C48.5322 43.0092 48.6472 42.8507 48.7622 42.6906C48.8772 42.5304 48.9904 42.3703 49.1002 42.2066C49.21 42.043 49.3197 41.8811 49.4278 41.7157C49.5358 41.5503 49.6403 41.385 49.7431 41.2178C49.8459 41.0507 49.9487 40.8836 50.0481 40.713C50.1474 40.5424 50.245 40.3648 50.3408 40.2012C50.4366 40.0376 50.5307 39.853 50.6231 39.6789C50.7154 39.5049 50.7973 39.3308 50.8931 39.1567C50.9889 38.9826 51.0674 38.8085 51.151 38.6344C51.2346 38.4604 51.3165 38.2776 51.3967 38.0983C51.4768 37.919 51.5535 37.7379 51.6301 37.5569C51.7068 37.3758 51.78 37.193 51.8514 37.0102C51.9229 36.8275 51.9926 36.6429 52.0588 36.4584C52.125 36.2739 52.1929 36.0876 52.2557 35.9031C52.3184 35.7185 52.3794 35.5288 52.4404 35.3425C52.5013 35.1563 52.5554 34.9665 52.6146 34.7767C52.6738 34.587 52.7209 34.399 52.7714 34.2092C52.8219 34.0195 52.8707 33.8297 52.9178 33.6382C52.9648 33.4467 53.0066 33.2553 53.0502 33.0638C53.0937 32.8723 53.1303 32.679 53.1687 32.4858C53.207 32.2926 53.2419 32.0993 53.275 31.9061C53.3081 31.7129 53.3394 31.5179 53.3673 31.3229C53.3952 31.128 53.4231 30.9347 53.4474 30.7397C53.4718 30.5448 53.4945 30.3498 53.5137 30.1531C53.5328 29.9564 53.552 29.7614 53.5677 29.5664C53.5834 29.3714 53.5956 29.1747 53.6078 28.978C53.6199 28.7813 53.6269 28.5846 53.6339 28.3896C53.6409 28.1946 53.6443 27.9962 53.6478 27.7995C53.6513 27.6028 53.6478 27.406 53.6478 27.2093C53.6478 27.0126 53.6478 26.8176 53.6339 26.6209C53.6199 26.4242 53.6182 26.2275 53.6078 26.0325C53.5973 25.8375 53.5834 25.6391 53.5677 25.4441C53.552 25.2491 53.5346 25.0524 53.5137 24.8557C53.4928 24.659 53.4718 24.4658 53.4474 24.2708C53.4231 24.0758 53.3969 23.8808 53.3673 23.6859C53.3377 23.4909 53.3081 23.2977 53.275 23.1044C53.2419 22.9112 53.207 22.7162 53.1687 22.5247C53.1303 22.3332 53.092 22.1383 53.0502 21.9468C53.0084 21.7553 52.9631 21.5638 52.9178 21.3723C52.8725 21.1808 52.8219 20.9911 52.7714 20.7996C52.7209 20.6081 52.6686 20.4218 52.6146 20.2321C52.5606 20.0423 52.5013 19.856 52.4404 19.668C52.3794 19.48 52.3201 19.2937 52.2557 19.1075C52.1912 18.9212 52.1267 18.7367 52.0605 18.5521C51.9943 18.3676 51.9229 18.1831 51.8514 18.0003C51.78 17.8175 51.7051 17.6347 51.6301 17.4537C51.5552 17.2726 51.4768 17.0916 51.3967 16.9123C51.3165 16.733 51.2259 16.5484 51.1388 16.3639C51.0517 16.1794 50.9646 16.0157 50.8809 15.833C50.7973 15.6502 50.7067 15.4848 50.6109 15.3107C50.515 15.1366 50.4244 14.9625 50.3286 14.7885C50.2328 14.6144 50.1352 14.4403 50.0359 14.2767C49.9366 14.113 49.8355 13.9389 49.731 13.7718C49.6264 13.6047 49.5236 13.4393 49.4156 13.2739C49.3076 13.1085 49.1995 12.9467 49.088 12.783C48.9765 12.6194 48.865 12.4592 48.75 12.3008C48.635 12.1424 48.52 11.9822 48.4015 11.8256C48.283 11.6689 48.1628 11.5122 48.0408 11.3573C47.9189 11.2023 47.7969 11.0491 47.6715 10.8977C47.546 10.7462 47.4188 10.5965 47.2916 10.4468C47.1644 10.2971 47.032 10.1509 46.8996 10.0046C46.7672 9.85841 46.6347 9.71566 46.5006 9.57291C46.3664 9.43016 46.2288 9.28741 46.0894 9.14814C45.95 9.00888 45.8123 8.86961 45.6695 8.73383C45.5266 8.59804 45.3855 8.46226 45.2408 8.32821L44.8035 7.93304C44.6554 7.80422 44.5073 7.6754 44.3557 7.54832C44.2041 7.42123 44.0543 7.31156 43.9079 7.18274C43.7616 7.05392 43.5995 6.93728 43.4444 6.81716C43.2894 6.69705 43.1308 6.57867 42.9723 6.469C42.8137 6.35932 42.6534 6.23747 42.4931 6.12083C42.3328 6.00419 42.169 5.898 42.0052 5.79007C41.8415 5.68214 41.669 5.57073 41.5034 5.46627C41.3379 5.36182 41.1706 5.25737 41.0016 5.15641C40.8326 5.05544 40.6636 4.95447 40.4928 4.85698C40.3221 4.7595 40.1444 4.66375 39.9701 4.56974L39.4474 4.29469C39.2732 4.20591 39.0989 4.12061 38.9247 4.03183C38.7505 3.94304 38.5762 3.85774 38.3898 3.7794C38.2034 3.70107 38.0309 3.61751 37.8514 3.54091C37.6719 3.46431 37.489 3.38772 37.306 3.31286C37.1231 3.238 36.9384 3.16837 36.7642 3.09874C36.5899 3.0291 36.3948 2.96121 36.2101 2.8968C36.0254 2.83239 35.8372 2.76798 35.6508 2.70705C35.4643 2.64612 35.2762 2.58693 35.088 2.53296C34.8998 2.479 34.7099 2.42155 34.5217 2.36759C34.3335 2.31362 34.1419 2.26488 33.9502 2.21613C33.7585 2.16739 33.5686 2.12213 33.377 2.07861C33.1853 2.03509 32.9936 1.99156 32.8002 1.95327C32.6068 1.91497 32.4152 1.87493 32.2218 1.84011C32.0284 1.80529 31.8332 1.77048 31.6398 1.74088C31.4464 1.71129 31.2495 1.67995 31.0561 1.65384L30.4707 1.58073C30.2738 1.5581 30.0786 1.53895 29.8835 1.52154C29.6883 1.50413 29.4915 1.48846 29.2946 1.47454C29.0977 1.46061 28.9025 1.45016 28.7056 1.44146L28.115 1.42057C27.9146 1.41361 27.7195 1.41187 27.5295 1.41187Z" fill="url(#paint0_linear)"/>
<path d="M16.9863 13.1433H42.669V45.7387H16.9863V13.1433Z" fill="white"/>
<path d="M42.6691 45.7841H16.9864C16.9749 45.7841 16.9638 45.7795 16.9556 45.7713C16.9475 45.7632 16.9429 45.7521 16.9429 45.7405V13.1434C16.9429 13.1318 16.9475 13.1208 16.9556 13.1126C16.9638 13.1044 16.9749 13.0999 16.9864 13.0999H42.6691C42.675 13.0999 42.6809 13.1012 42.6862 13.1036C42.6916 13.106 42.6965 13.1095 42.7005 13.1138C42.708 13.1218 42.7124 13.1324 42.7127 13.1434V45.7388C42.7129 45.7447 42.712 45.7505 42.7099 45.756C42.7078 45.7615 42.7046 45.7665 42.7006 45.7707C42.6965 45.7749 42.6916 45.7783 42.6862 45.7806C42.6808 45.7829 42.675 45.7841 42.6691 45.7841ZM17.03 45.697H42.6256V13.1869H17.03V45.697Z" fill="white"/>
<path d="M42.7266 46.5953H16.9655C16.8624 46.5956 16.7604 46.5755 16.6651 46.5362C16.5699 46.4969 16.4834 46.4392 16.4105 46.3664C16.3377 46.2936 16.2799 46.2072 16.2406 46.112C16.2013 46.0169 16.1812 45.9149 16.1814 45.812V13.1069C16.1812 13.0039 16.2013 12.902 16.2406 12.8068C16.2799 12.7117 16.3377 12.6252 16.4105 12.5524C16.4834 12.4796 16.5699 12.4219 16.6651 12.3827C16.7604 12.3434 16.8624 12.3233 16.9655 12.3235H42.7266C42.8296 12.3233 42.9317 12.3434 43.0269 12.3827C43.1221 12.4219 43.2087 12.4796 43.2815 12.5524C43.3544 12.6252 43.4121 12.7117 43.4514 12.8068C43.4908 12.902 43.5109 13.0039 43.5107 13.1069V45.812C43.5109 45.9149 43.4908 46.0169 43.4514 46.112C43.4121 46.2072 43.3544 46.2936 43.2815 46.3664C43.2087 46.4392 43.1221 46.4969 43.0269 46.5362C42.9317 46.5755 42.8296 46.5956 42.7266 46.5953V46.5953ZM17.7495 45.0286H41.9425V13.8902H17.7495V45.0286Z" fill="#621F82"/>
<path d="M12.3359 9.22656H37.583V41.6966H12.3359V9.22656Z" fill="#E4BBFA"/>
<path d="M37.5831 41.74H12.336C12.3245 41.74 12.3134 41.7355 12.3052 41.7273C12.2971 41.7191 12.2925 41.7081 12.2925 41.6965V9.22644C12.2929 9.21503 12.2976 9.20421 12.3057 9.19614C12.3138 9.18807 12.3246 9.18335 12.336 9.18291H37.5831C37.5895 9.18192 37.596 9.1823 37.6022 9.18401C37.6084 9.18573 37.6142 9.18875 37.6191 9.19286C37.6241 9.19698 37.6281 9.20211 37.6309 9.2079C37.6337 9.21368 37.6352 9.22 37.6354 9.22644V41.6965C37.6355 41.703 37.6342 41.7095 37.6315 41.7155C37.6288 41.7214 37.6248 41.7267 37.6197 41.7308C37.6147 41.735 37.6088 41.738 37.6025 41.7396C37.5962 41.7412 37.5895 41.7413 37.5831 41.74ZM12.3796 41.653H37.5396V9.27344H12.3796V41.653Z" fill="white"/>
<path d="M37.6353 42.5548H12.3168C12.1088 42.5548 11.9094 42.4723 11.7624 42.3254C11.6153 42.1785 11.5327 41.9792 11.5327 41.7714V9.18645C11.5327 8.97869 11.6153 8.77943 11.7624 8.63252C11.9094 8.48561 12.1088 8.40308 12.3168 8.40308H37.6353C37.8431 8.40354 38.0423 8.48622 38.1892 8.63303C38.3362 8.77984 38.4189 8.97883 38.4194 9.18645V41.7801C38.4167 41.9863 38.3329 42.183 38.1862 42.328C38.0395 42.4729 37.8416 42.5544 37.6353 42.5548V42.5548ZM13.0956 40.9881H36.8565V9.96983H13.1009L13.0956 40.9881Z" fill="#621F82"/>
<path d="M16.3452 13.5244H34.0408V19.391H16.3452V13.5244Z" fill="white"/>
<path d="M34.0409 19.4346H16.3453C16.3338 19.4346 16.3227 19.43 16.3145 19.4219C16.3063 19.4137 16.3018 19.4026 16.3018 19.3911V13.5245C16.3018 13.5129 16.3063 13.5019 16.3145 13.4937C16.3227 13.4855 16.3338 13.481 16.3453 13.481H34.0409C34.0525 13.481 34.0636 13.4855 34.0717 13.4937C34.0799 13.5019 34.0845 13.5129 34.0845 13.5245V19.3911C34.0845 19.4026 34.0799 19.4137 34.0717 19.4219C34.0636 19.43 34.0525 19.4346 34.0409 19.4346ZM16.3889 19.3476H33.9974V13.568H16.3889V19.3476Z" fill="white"/>
<path d="M16.3208 19.9414C16.2519 19.9415 16.1836 19.9281 16.1199 19.9018C16.0562 19.8755 15.9984 19.8369 15.9497 19.7882C15.8523 19.69 15.7978 19.5573 15.7981 19.4191V13.5003C15.7981 13.3618 15.8532 13.2289 15.9512 13.131C16.0492 13.033 16.1822 12.978 16.3208 12.978H34.067C34.2056 12.978 34.3385 13.033 34.4366 13.131C34.5346 13.2289 34.5897 13.3618 34.5897 13.5003V19.4191C34.5897 19.5576 34.5346 19.6905 34.4366 19.7884C34.3385 19.8864 34.2056 19.9414 34.067 19.9414H16.3208ZM16.8435 14.0225V18.8969H33.5442V14.0225H16.8435Z" fill="#621F82"/>
<path d="M34.0304 24.2597L16.4097 24.2266C16.271 24.2266 16.1381 24.1715 16.0401 24.0735C15.942 23.9755 15.887 23.8425 15.887 23.7039C15.887 23.5652 15.942 23.4323 16.0401 23.3343C16.1381 23.2362 16.271 23.1812 16.4097 23.1812V23.1812L34.0304 23.2143C34.169 23.2143 34.302 23.2693 34.4 23.3674C34.498 23.4654 34.5531 23.5983 34.5531 23.737C34.5531 23.8756 34.498 24.0086 34.4 24.1066C34.302 24.2046 34.169 24.2597 34.0304 24.2597V24.2597Z" fill="#621F82"/>
<path d="M34.0304 28.8625L16.4097 28.8294C16.271 28.8294 16.1381 28.7743 16.0401 28.6763C15.942 28.5782 15.887 28.4453 15.887 28.3066C15.887 28.168 15.942 28.0351 16.0401 27.937C16.1381 27.839 16.271 27.7839 16.4097 27.7839V27.7839L34.0304 27.817C34.169 27.817 34.302 27.8721 34.4 27.9701C34.498 28.0682 34.5531 28.2011 34.5531 28.3398C34.5531 28.4784 34.498 28.6113 34.4 28.7094C34.302 28.8074 34.169 28.8625 34.0304 28.8625V28.8625Z" fill="#621F82"/>
<path d="M34.0026 33.1952L16.3784 33.1638C16.2398 33.1638 16.1068 33.1088 16.0088 33.0107C15.9108 32.9127 15.8557 32.7797 15.8557 32.6411C15.8557 32.5025 15.9108 32.3695 16.0088 32.2715C16.1068 32.1735 16.2398 32.1184 16.3784 32.1184V32.1184L33.9991 32.1498C34.1378 32.1498 34.2707 32.2048 34.3687 32.3029C34.4668 32.4009 34.5218 32.5338 34.5218 32.6725C34.5218 32.8111 34.4668 32.9441 34.3687 33.0421C34.2707 33.1401 34.1378 33.1952 33.9991 33.1952H34.0026Z" fill="#621F82"/>
<path d="M34.0304 37.7389L16.4097 37.7058C16.271 37.7058 16.1381 37.6507 16.0401 37.5527C15.942 37.4547 15.887 37.3217 15.887 37.1831C15.887 37.0445 15.942 36.9115 16.0401 36.8135C16.1381 36.7155 16.271 36.6604 16.4097 36.6604V36.6604L34.0304 36.6935C34.169 36.6935 34.302 36.7486 34.4 36.8466C34.498 36.9446 34.5531 37.0776 34.5531 37.2162C34.5531 37.3548 34.498 37.4878 34.4 37.5858C34.302 37.6838 34.169 37.7389 34.0304 37.7389V37.7389Z" fill="#621F82"/>
<path d="M27.4999 54.3737C27.2978 54.3737 27.0957 54.3737 26.8936 54.3737C26.6915 54.3737 26.4876 54.3633 26.2855 54.3529C26.0834 54.3424 25.8813 54.3337 25.6792 54.3198C25.477 54.3059 25.2749 54.2902 25.0746 54.271C24.8742 54.2519 24.6703 54.2327 24.4699 54.2101C24.2696 54.1875 24.0675 54.1614 23.8671 54.1335C23.6667 54.1057 23.4663 54.0778 23.266 54.0447C23.0656 54.0117 22.867 53.9803 22.6683 53.9438C22.4697 53.9072 22.2693 53.8672 22.0707 53.8271C21.8721 53.7871 21.6752 53.7436 21.4783 53.6983C21.2814 53.653 21.0828 53.6043 20.8876 53.5538C20.6925 53.5033 20.4956 53.4528 20.3004 53.3989C20.1053 53.3449 19.9119 53.2875 19.7167 53.2248C19.5216 53.1621 19.3299 53.1047 19.1383 53.042C18.9466 52.9793 18.7549 52.9132 18.5633 52.8453C18.3716 52.7774 18.1817 52.7095 17.9935 52.6381C17.8053 52.5668 17.6154 52.4919 17.4272 52.417C17.2391 52.3422 17.0526 52.2621 16.8662 52.182C16.6798 52.102 16.4951 52.0201 16.3121 51.9366L15.7615 51.6772C15.5873 51.5884 15.3991 51.5031 15.2196 51.4056C15.0402 51.3081 14.859 51.2176 14.6813 51.1219C14.5035 51.0261 14.3328 50.9269 14.1585 50.8259C13.9843 50.7249 13.8101 50.6222 13.6358 50.5178C13.4616 50.4133 13.2873 50.3071 13.1131 50.1992C12.9389 50.0913 12.7646 49.9799 12.6026 49.8685C12.4406 49.757 12.2681 49.6421 12.1025 49.5203C11.937 49.3984 11.7715 49.2853 11.6077 49.1721C11.4439 49.059 11.2819 48.9301 11.1216 48.8065C10.9613 48.6829 10.8027 48.5576 10.6442 48.4305C10.4856 48.3034 10.3305 48.1746 10.1755 48.0441C10.0204 47.9135 9.8688 47.7829 9.71721 47.6489C9.56562 47.5148 9.41403 47.3791 9.26593 47.2415C9.11783 47.104 8.96973 46.9647 8.82337 46.8237C8.67701 46.6827 8.53413 46.5417 8.393 46.3972C8.25187 46.2527 8.10899 46.1065 7.9696 45.9603C7.83021 45.8141 7.6943 45.6643 7.5584 45.5146C7.42249 45.3649 7.28833 45.2117 7.15591 45.0585C7.02349 44.9053 6.89281 44.7504 6.76387 44.5955C6.63494 44.4405 6.50774 44.2804 6.38403 44.1202C6.26032 43.9601 6.13487 43.8016 6.01291 43.6397C5.89094 43.4778 5.77246 43.3142 5.65398 43.1506C5.53549 42.9869 5.4205 42.8198 5.3055 42.6527C5.1905 42.4856 5.08073 42.3167 4.96922 42.1478C4.85771 41.979 4.74968 41.7997 4.64339 41.6343C4.53711 41.4689 4.43257 41.2861 4.32977 41.112C4.22697 40.938 4.12765 40.7639 4.02833 40.5898C3.92902 40.4157 3.83319 40.2416 3.7391 40.0571C3.64501 39.8726 3.55092 39.6915 3.46032 39.5174C3.36971 39.3434 3.28608 39.1553 3.19548 38.9708C3.10487 38.7863 3.02124 38.6035 2.94109 38.419C2.86094 38.2344 2.77905 38.0482 2.70064 37.8619C2.62223 37.6756 2.54731 37.4876 2.47413 37.2979C2.40095 37.1081 2.32777 36.9062 2.26504 36.7321C2.20232 36.558 2.1274 36.3509 2.06293 36.1594C1.99846 35.9679 1.93399 35.7746 1.87301 35.5814C1.81203 35.3882 1.75453 35.1949 1.69877 35C1.64301 34.805 1.589 34.6118 1.53673 34.415C1.48446 34.2183 1.43393 34.0234 1.38688 33.8266C1.33984 33.6299 1.29454 33.4332 1.25098 33.2348C1.20742 33.0363 1.16734 32.8396 1.12901 32.6411C1.09068 32.4427 1.04538 32.2338 1.01227 32.0318C0.979167 31.8299 0.946062 31.6332 0.916441 31.433C0.886821 31.2328 0.858943 31.0309 0.834549 30.8307C0.810156 30.6305 0.785763 30.4285 0.764854 30.2266C0.743945 30.0247 0.726522 29.8245 0.71084 29.6225C0.695159 29.4206 0.68122 29.2186 0.669023 29.0167C0.656826 28.8148 0.649857 28.6128 0.642887 28.4092C0.635918 28.2055 0.630691 28.0053 0.628948 27.8016C0.627206 27.5979 0.628948 27.3977 0.628948 27.1958C0.628948 26.9939 0.628948 26.7902 0.642887 26.5882C0.656826 26.3863 0.658569 26.1826 0.669023 25.9807C0.679477 25.7788 0.695159 25.5768 0.71084 25.3749C0.726522 25.1729 0.745688 24.971 0.764854 24.7708C0.78402 24.5706 0.808413 24.3669 0.834549 24.1667C0.860685 23.9665 0.886821 23.7663 0.916441 23.5662C0.946062 23.366 0.977424 23.164 1.01227 22.9656C1.04712 22.7671 1.08197 22.5669 1.1203 22.3685C1.15863 22.17 1.20045 21.9715 1.24401 21.7731C1.28757 21.5746 1.33287 21.3779 1.37991 21.1812C1.42696 20.9845 1.47749 20.7878 1.52976 20.5928C1.58203 20.3978 1.63604 20.2011 1.6918 20.0061C1.74756 19.8112 1.8068 19.6179 1.86604 19.4247C1.92528 19.2315 1.98975 19.04 2.05596 18.8485C2.12217 18.657 2.18838 18.4655 2.25807 18.2757C2.32777 18.086 2.39747 17.8962 2.47239 17.7082C2.54731 17.5202 2.62223 17.3322 2.6989 17.1442C2.77556 16.9562 2.85745 16.7717 2.93935 16.5871C3.02124 16.4026 3.11358 16.2181 3.19373 16.0353C3.27388 15.8525 3.36797 15.6697 3.45858 15.4887C3.54918 15.3076 3.64153 15.1266 3.73561 14.949C3.8297 14.7714 3.92728 14.5904 4.02485 14.4146C4.12242 14.2387 4.22522 14.0664 4.32628 13.8923C4.42734 13.7182 4.53362 13.5442 4.63991 13.3701C4.74619 13.196 4.85597 13.0219 4.96574 12.8583C5.07551 12.6946 5.18876 12.5188 5.30201 12.3517C5.41527 12.1846 5.53201 12.0192 5.65049 11.8538C5.76897 11.6884 5.88746 11.5265 6.00942 11.3646C6.13139 11.2027 6.2551 11.0426 6.38055 10.8824C6.506 10.7223 6.63145 10.5656 6.76039 10.4106C6.88932 10.2557 7.02174 10.0973 7.15417 9.9441C7.28659 9.79091 7.42075 9.63946 7.55666 9.488C7.69256 9.33655 7.83021 9.19032 7.96786 9.04235C8.10551 8.89438 8.24838 8.74989 8.38951 8.6054C8.53065 8.46091 8.67701 8.3199 8.82162 8.18238C8.96624 8.04485 9.11434 7.9021 9.26419 7.76458C9.41403 7.62705 9.56214 7.49126 9.71547 7.35722C9.8688 7.22318 10.0204 7.08739 10.1755 6.96379C10.3305 6.84019 10.4856 6.70441 10.6424 6.57907C10.7992 6.45373 10.9595 6.32664 11.1198 6.20304C11.2801 6.07945 11.4422 5.95759 11.6059 5.83747C11.7697 5.71735 11.9335 5.60072 12.099 5.4893C12.2646 5.37789 12.4336 5.25951 12.6008 5.14113C12.7681 5.02276 12.9389 4.92005 13.1114 4.81038C13.2839 4.7007 13.4598 4.59625 13.6341 4.4918C13.8083 4.38735 13.9826 4.28464 14.1568 4.18367C14.331 4.08271 14.5053 3.98522 14.6795 3.88773C14.8537 3.79024 15.028 3.69624 15.2162 3.60398C15.4043 3.51171 15.5786 3.42119 15.7598 3.3324C15.941 3.24362 16.1257 3.15832 16.3104 3.07302C16.4951 2.98772 16.678 2.90764 16.8645 2.82756C17.0509 2.74748 17.2373 2.66915 17.4255 2.59255C17.6137 2.51595 17.8019 2.44284 17.99 2.37146C18.1782 2.30009 18.3699 2.23046 18.5615 2.16256C18.7532 2.09467 18.9431 2.03026 19.1365 1.96759C19.3299 1.90492 19.5216 1.84399 19.715 1.7935C19.9084 1.74302 20.1035 1.67861 20.2987 1.61942C20.4938 1.56023 20.689 1.51323 20.8859 1.46275C21.0828 1.41226 21.2797 1.36526 21.4765 1.32C21.6734 1.27474 21.8721 1.23121 22.0707 1.19118C22.2693 1.15114 22.4662 1.1111 22.6666 1.07454C22.867 1.03798 23.0656 1.00491 23.2642 0.973571C23.4629 0.942236 23.665 0.910901 23.8653 0.883047C24.0657 0.855194 24.2678 0.830822 24.4682 0.808191C24.6686 0.78556 24.8707 0.76467 25.0728 0.747262C25.2749 0.729854 25.4753 0.712445 25.6774 0.698518C25.8795 0.684592 26.0817 0.674147 26.2838 0.663702C26.4859 0.653257 26.6897 0.648034 26.8919 0.644553C27.2961 0.634107 27.7026 0.634107 28.1115 0.644553C28.3136 0.644553 28.5158 0.654998 28.7179 0.663702C28.92 0.672406 29.1221 0.684592 29.3242 0.698518C29.5263 0.712445 29.7285 0.728113 29.9306 0.747262C30.1327 0.766411 30.3331 0.78556 30.5352 0.808191C30.7373 0.830822 30.9359 0.856935 31.1363 0.883047C31.3367 0.90916 31.5388 0.940495 31.7374 0.973571C31.9361 1.00665 32.1382 1.03798 32.3368 1.07454C32.5354 1.1111 32.7341 1.15114 32.9327 1.19118C33.1313 1.23121 33.33 1.27474 33.5268 1.32C33.7237 1.36526 33.9206 1.414 34.1175 1.46275C34.3144 1.51149 34.5095 1.56546 34.703 1.61942C34.8964 1.67339 35.0932 1.73083 35.2867 1.7935C35.4801 1.85618 35.6735 1.91362 35.8669 1.96759C36.0603 2.02155 36.2502 2.09641 36.4418 2.16256C36.6335 2.22871 36.8234 2.30009 37.0116 2.37146C37.1998 2.44284 37.3897 2.51769 37.5779 2.59255C37.7661 2.66741 37.9525 2.74748 38.1389 2.82756C38.3254 2.90764 38.5083 2.98946 38.693 3.07476C38.8777 3.16006 39.0606 3.24884 39.2419 3.3324C39.4231 3.41596 39.606 3.50649 39.7855 3.60398C39.9649 3.70146 40.1444 3.79199 40.3239 3.88773C40.5033 3.98348 40.6723 4.08271 40.8466 4.18367C41.0208 4.28464 41.1951 4.38735 41.3693 4.4918C41.5435 4.59625 41.7178 4.70244 41.892 4.81038C42.0663 4.91831 42.2405 5.02972 42.4008 5.14113C42.5611 5.25255 42.7371 5.36744 42.9026 5.4893C43.0681 5.61116 43.2337 5.72257 43.3957 5.83747C43.5577 5.95236 43.7215 6.07945 43.8818 6.20304C44.0421 6.32664 44.2024 6.45198 44.3592 6.57907C44.516 6.70615 44.6729 6.83497 44.8279 6.96553C44.983 7.09609 45.1363 7.22666 45.2879 7.36244C45.4395 7.49823 45.5894 7.63053 45.7392 7.76806C45.889 7.90558 46.0354 8.04485 46.18 8.18586C46.3246 8.32687 46.4693 8.46962 46.6121 8.61236C46.755 8.75511 46.8944 8.90308 47.0338 9.04931C47.1732 9.19554 47.3108 9.34526 47.4467 9.49497C47.5826 9.64468 47.7168 9.79787 47.8475 9.95107C47.9782 10.1043 48.1106 10.2592 48.2395 10.4159C48.3684 10.5725 48.4956 10.7292 48.6211 10.8876C48.7465 11.0461 48.8703 11.208 48.9905 11.3698C49.1107 11.5317 49.2327 11.6954 49.3494 11.859C49.4662 12.0227 49.5846 12.1898 49.6979 12.3569C49.8111 12.524 49.9244 12.6929 50.0342 12.8617C50.1439 13.0306 50.2537 13.2099 50.36 13.384C50.4663 13.5581 50.5708 13.7322 50.6736 13.9062C50.7764 14.0803 50.8775 14.2544 50.9751 14.4285C51.0726 14.6026 51.1702 14.7767 51.2643 14.9629C51.3584 15.1492 51.4525 15.3215 51.5431 15.5026C51.6337 15.6836 51.7173 15.8664 51.8079 16.0492C51.8985 16.232 51.9821 16.4165 52.0606 16.6011C52.139 16.7856 52.2226 16.9719 52.301 17.1581C52.3794 17.3444 52.4543 17.5342 52.5293 17.7222C52.6042 17.9102 52.6739 18.0999 52.7436 18.2897C52.8133 18.4794 52.8812 18.6709 52.9457 18.8624C53.0102 19.0539 53.0729 19.2471 53.1339 19.4404C53.1948 19.6336 53.2541 19.8268 53.3081 20.0218C53.3621 20.2168 53.4196 20.41 53.4719 20.6067C53.5242 20.8034 53.5729 20.9984 53.6217 21.1951C53.6705 21.3918 53.7141 21.5903 53.7576 21.7888C53.8012 21.9872 53.8413 22.1839 53.8796 22.3824C53.9179 22.5808 53.9545 22.7793 53.9894 22.9795C54.0242 23.1797 54.0556 23.3781 54.0852 23.5783C54.1148 23.7785 54.141 23.9805 54.1671 24.1807C54.1932 24.3809 54.2141 24.5828 54.235 24.7847C54.256 24.9867 54.2734 25.1869 54.2891 25.3888C54.3047 25.5907 54.3204 25.7944 54.3309 25.9964C54.3413 26.1983 54.3518 26.4002 54.3588 26.6022C54.3657 26.8041 54.3692 27.006 54.3727 27.2097C54.3762 27.4134 54.3727 27.6136 54.3727 27.8155C54.3727 28.0175 54.3727 28.2212 54.3588 28.4231C54.3448 28.625 54.3431 28.8287 54.3309 29.0306C54.3187 29.2326 54.3065 29.4345 54.2891 29.6365C54.2716 29.8384 54.256 30.0403 54.235 30.2405C54.2141 30.4407 54.1915 30.6444 54.1671 30.8446C54.1427 31.0448 54.1148 31.2467 54.0852 31.4469C54.0556 31.6471 54.0225 31.8473 53.9894 32.0458C53.9563 32.2442 53.9179 32.4444 53.8796 32.6429C53.8413 32.8413 53.7995 33.0398 53.7576 33.2382C53.7158 33.4367 53.6688 33.6334 53.6217 33.8301C53.5747 34.0268 53.5242 34.2236 53.4719 34.4185C53.4196 34.6135 53.3656 34.8102 53.3081 35.0035C53.2506 35.1967 53.1931 35.3917 53.1339 35.5866C53.0746 35.7816 53.0102 35.9714 52.9457 36.1628C52.8812 36.3543 52.8133 36.5458 52.7436 36.7356C52.6739 36.9253 52.6024 37.1151 52.5275 37.3048C52.4526 37.4946 52.3794 37.6791 52.301 37.8671C52.2226 38.0551 52.1424 38.2397 52.0606 38.4242C51.9787 38.6087 51.8863 38.7933 51.8079 38.976C51.7295 39.1588 51.6337 39.3416 51.5431 39.5227C51.4525 39.7037 51.3601 39.883 51.266 40.0623C51.1719 40.2416 51.0744 40.4209 50.9751 40.5968C50.8757 40.7726 50.7764 40.9449 50.6736 41.119C50.5708 41.2931 50.4663 41.4672 50.36 41.6413C50.2537 41.8153 50.1457 41.9894 50.0359 42.1531C49.9261 42.3167 49.8129 42.4925 49.6979 42.6597C49.5829 42.8268 49.4679 42.9922 49.3494 43.1575C49.2309 43.3229 49.1124 43.4848 48.9905 43.6467C48.8685 43.8086 48.7465 43.9688 48.6211 44.1289C48.4956 44.2891 48.3684 44.4458 48.2395 44.6007C48.1106 44.7556 47.9799 44.9123 47.8475 45.0655C47.7151 45.2187 47.5826 45.3701 47.4467 45.5216C47.3108 45.673 47.1732 45.8193 47.0338 45.9672C46.8944 46.1152 46.755 46.2597 46.6121 46.4042C46.4693 46.5487 46.3246 46.6897 46.18 46.8307C46.0354 46.9717 45.8873 47.111 45.7392 47.2485C45.5911 47.386 45.4395 47.5218 45.2879 47.6559C45.1363 47.7899 44.983 47.9205 44.8279 48.051C44.6729 48.1816 44.5178 48.3104 44.3592 48.4375C44.2007 48.5646 44.0421 48.6899 43.8818 48.8135C43.7215 48.9371 43.5595 49.059 43.3974 49.1791L42.9026 49.5273C42.7371 49.6439 42.5698 49.757 42.4008 49.8754C42.2318 49.9938 42.0628 50.0965 41.892 50.2062C41.7213 50.3159 41.5435 50.4203 41.3693 50.5248C41.1951 50.6292 41.0208 50.7319 40.8466 50.8329C40.6723 50.9339 40.4981 51.0313 40.3239 51.1288C40.1496 51.2263 39.9754 51.3186 39.7872 51.4126C39.599 51.5066 39.4265 51.5954 39.2436 51.6842C39.0606 51.7729 38.8794 51.8582 38.6947 51.9435C38.5101 52.0288 38.3254 52.1089 38.1389 52.189C37.9525 52.2691 37.7661 52.3474 37.5796 52.424C37.3932 52.5006 37.2033 52.5737 37.0133 52.6451C36.8234 52.7165 36.6335 52.7861 36.4436 52.8523C36.2537 52.9184 36.0603 52.9863 35.8686 53.049L35.2884 53.2318C35.095 53.2892 34.8998 53.3467 34.7064 53.4058C34.513 53.465 34.3144 53.512 34.1175 53.5608C33.9206 53.6095 33.7255 53.6583 33.5286 53.7053C33.3317 53.7523 33.1331 53.7923 32.9344 53.8341C32.7358 53.8759 32.5372 53.9142 32.3385 53.9507C32.1399 53.9873 31.9395 54.0204 31.7392 54.0517C31.5388 54.083 31.3402 54.1144 31.1398 54.1405C30.9394 54.1666 30.7373 54.1944 30.5352 54.2171C30.3331 54.2397 30.1344 54.2606 29.9323 54.278C29.7302 54.2954 29.5281 54.3128 29.326 54.3267C29.1238 54.3407 28.9217 54.3511 28.7196 54.3598C28.5175 54.3685 28.3154 54.3772 28.1133 54.3807C27.9112 54.3842 27.7038 54.3737 27.4999 54.3737ZM27.4999 2.01981C27.3083 2.01981 27.1166 2.01981 26.925 2.01981C26.7333 2.01981 26.5399 2.032 26.3482 2.0407L25.775 2.07204C25.5833 2.08597 25.3917 2.09989 25.2 2.11904C25.0083 2.13819 24.8184 2.1556 24.6268 2.17649C24.4351 2.19738 24.2452 2.22175 24.0553 2.24786C23.8653 2.27398 23.6754 2.30183 23.4872 2.33142C23.2991 2.36102 23.1074 2.39409 22.9192 2.42891C22.7311 2.46373 22.5411 2.50028 22.353 2.53858C22.1648 2.57688 21.9783 2.61866 21.7902 2.66218C21.602 2.7057 21.4173 2.75097 21.2309 2.79797C21.0444 2.84497 20.8597 2.89371 20.675 2.94594C20.4904 2.99816 20.3057 3.05039 20.121 3.1061C19.9363 3.1618 19.7551 3.21925 19.5721 3.28018C19.3892 3.34111 19.208 3.40204 19.0268 3.46645C18.8455 3.53086 18.6661 3.59527 18.4866 3.66316C18.3071 3.73106 18.1277 3.80243 17.95 3.8738C17.7722 3.94518 17.6015 4.02004 17.4272 4.09489C17.253 4.16975 17.0788 4.24983 16.9045 4.3299C16.7303 4.40998 16.5561 4.4918 16.3818 4.57536C16.2076 4.65892 16.0333 4.74945 15.8591 4.83301C15.6849 4.91657 15.5106 5.00709 15.3503 5.10109C15.19 5.1951 15.014 5.28562 14.8485 5.38137C14.683 5.47712 14.5122 5.57112 14.3467 5.67731C14.1812 5.7835 14.0191 5.87751 13.8571 5.98022C13.6951 6.08293 13.5348 6.18738 13.3745 6.29357C13.2142 6.39976 13.0574 6.50769 12.8936 6.61562C12.7298 6.72356 12.5799 6.83845 12.4249 6.95161C12.2698 7.06476 12.1182 7.17965 11.9649 7.29977C11.8116 7.41989 11.6739 7.53479 11.5188 7.66013C11.3638 7.78547 11.2209 7.90384 11.0745 8.02744C10.9282 8.15104 10.7818 8.27638 10.6372 8.40346C10.4926 8.53054 10.3514 8.65937 10.2103 8.78993C10.0692 8.92049 9.93152 9.0528 9.79213 9.17988C9.65274 9.30696 9.51683 9.44797 9.38267 9.58375C9.24851 9.71954 9.11434 9.8588 8.98192 9.99807C8.8495 10.1373 8.71185 10.2714 8.59163 10.4211C8.47141 10.5708 8.3355 10.7083 8.21005 10.8528C8.0846 10.9973 7.96089 11.1418 7.84066 11.2933C7.72044 11.4447 7.59847 11.5909 7.47999 11.7424C7.36151 11.8938 7.24303 12.0453 7.13151 12.1985C7.02 12.3517 6.89804 12.5066 6.79523 12.6633C6.69243 12.82 6.57221 12.9766 6.46418 13.1351C6.35615 13.2935 6.24987 13.4536 6.14533 13.6138C6.04078 13.7739 5.92404 13.9376 5.82821 14.1012C5.73238 14.2649 5.62784 14.4285 5.53027 14.5939C5.43269 14.7593 5.3386 14.9264 5.24452 15.0935C5.15043 15.2606 5.05285 15.4295 4.97096 15.6001C4.88907 15.7707 4.79672 15.9483 4.70786 16.1119C4.619 16.2755 4.53362 16.4601 4.45522 16.6341C4.37681 16.8082 4.29318 16.9823 4.21477 17.1564C4.13636 17.3305 4.06144 17.5046 3.98826 17.6786C3.91508 17.8527 3.8419 18.0268 3.7722 18.2131C3.70251 18.3993 3.63456 18.5717 3.56835 18.751C3.50213 18.9303 3.43941 19.1131 3.37668 19.2941C3.31396 19.4752 3.25472 19.6597 3.20245 19.8425C3.15017 20.0253 3.08919 20.2081 3.02821 20.3926C2.96722 20.5771 2.92192 20.7617 2.87314 20.9479C2.82435 21.1342 2.7773 21.3205 2.732 21.5067C2.6867 21.693 2.64314 21.8793 2.60307 22.0673C2.56299 22.2553 2.52292 22.4433 2.48633 22.6313C2.44974 22.8193 2.41489 23.0091 2.38178 23.1988C2.34868 23.3886 2.31906 23.5766 2.29118 23.7663C2.2633 23.9561 2.23717 24.1476 2.21452 24.3373C2.19186 24.5271 2.16747 24.7186 2.1483 24.9101C2.12914 25.1016 2.11171 25.2913 2.09603 25.4828C2.08035 25.6743 2.06816 25.8658 2.0577 26.0573C2.04725 26.2488 2.03853 26.442 2.03157 26.6335C2.0246 26.825 2.02111 27.0165 2.01937 27.2097C2.01763 27.403 2.01937 27.5927 2.01937 27.7842C2.01937 27.9757 2.01937 28.1689 2.03157 28.3604C2.04376 28.5519 2.04725 28.7434 2.0577 28.9366C2.06816 29.1299 2.08209 29.3196 2.09778 29.5111C2.11346 29.7026 2.12914 29.8941 2.1483 30.0838C2.16747 30.2736 2.19012 30.4651 2.21452 30.6566C2.23891 30.8481 2.2633 31.0378 2.29118 31.2276C2.31906 31.4173 2.35042 31.6071 2.38178 31.7951C2.41315 31.9831 2.44974 32.1746 2.48633 32.3626C2.52292 32.5506 2.56125 32.7386 2.60307 32.9266C2.64488 33.1146 2.6867 33.3009 2.732 33.4872C2.7773 33.6735 2.82435 33.8597 2.87314 34.046C2.92192 34.2323 2.97419 34.4168 3.02821 34.6013C3.08222 34.7858 3.13623 34.9686 3.20245 35.1514C3.26866 35.3342 3.32093 35.517 3.37668 35.698C3.43244 35.8791 3.50213 36.0619 3.56835 36.2412C3.63456 36.4205 3.70251 36.6015 3.7722 36.7808C3.8419 36.9602 3.91334 37.129 3.98826 37.3153C4.06318 37.5016 4.1381 37.6635 4.21651 37.8375C4.29492 38.0116 4.37333 38.1857 4.45522 38.3598C4.53711 38.5339 4.62074 38.708 4.70786 38.882C4.79498 39.0561 4.8821 39.2302 4.97096 39.3938C5.05982 39.5575 5.1452 39.7333 5.24452 39.9004C5.34383 40.0675 5.43444 40.2347 5.53201 40.4C5.62958 40.5654 5.72716 40.7308 5.82821 40.8927C5.92927 41.0546 6.03207 41.2182 6.13662 41.3801C6.24116 41.542 6.34744 41.7005 6.45547 41.8589C6.5635 42.0173 6.67501 42.1757 6.78652 42.3306C6.89804 42.4856 7.01129 42.6422 7.12629 42.7954C7.24128 42.9486 7.35802 43.1018 7.47476 43.2515C7.5915 43.4012 7.71347 43.5527 7.83544 43.7007C7.9574 43.8486 8.08111 43.9949 8.20656 44.1411C8.33201 44.2873 8.45921 44.4301 8.58815 44.5728C8.71708 44.7156 8.84602 44.8566 8.97844 44.9959C9.11086 45.1351 9.24328 45.2726 9.37919 45.4102C9.51509 45.5477 9.651 45.68 9.78865 45.8141C9.92629 45.9481 10.0657 46.0804 10.2068 46.2092C10.348 46.338 10.4908 46.4686 10.6337 46.5957C10.7766 46.7228 10.9229 46.8481 11.0693 46.9717L11.5171 47.3512C11.6669 47.4713 11.8185 47.5897 11.9701 47.6994C12.1217 47.809 12.2768 47.9326 12.4318 48.0475C12.5869 48.1624 12.742 48.2721 12.8988 48.3818C13.0556 48.4915 13.2159 48.6011 13.3745 48.7073C13.533 48.8135 13.6951 48.918 13.8588 49.0207C14.0226 49.1234 14.1829 49.2243 14.3467 49.3236L14.8433 49.6143C15.0175 49.7083 15.1778 49.8023 15.3468 49.8946L15.8556 50.1661C16.0299 50.2532 16.2041 50.3402 16.3696 50.422C16.5351 50.5039 16.7181 50.5874 16.8923 50.6675C17.0666 50.7476 17.2408 50.8259 17.415 50.9025C17.5893 50.9791 17.7635 51.0522 17.9378 51.1236C18.112 51.195 18.2862 51.2664 18.4744 51.3342L19.0146 51.531C19.1888 51.5954 19.377 51.6563 19.5599 51.7155C19.7429 51.7747 19.9258 51.8339 20.1088 51.8896C20.2917 51.9453 20.4782 51.9992 20.6628 52.0497C20.8475 52.1002 21.0322 52.1507 21.2187 52.1977C21.4051 52.2447 21.5915 52.29 21.7797 52.3335C21.9679 52.377 22.1526 52.417 22.3408 52.4553C22.5289 52.4936 22.7171 52.5319 22.907 52.5668C23.097 52.6016 23.2834 52.6329 23.4733 52.6625C23.6632 52.6921 23.8531 52.7217 24.0431 52.7478C24.233 52.7739 24.4246 52.7965 24.6146 52.8192L25.1878 52.8766C25.3795 52.894 25.5694 52.9097 25.7611 52.9236L26.3378 52.955C26.5277 52.9637 26.7211 52.9706 26.9128 52.9741C27.2961 52.9828 27.6812 52.9828 28.0645 52.9741C28.2561 52.9741 28.4478 52.9637 28.6395 52.955L29.2145 52.9236C29.4061 52.9097 29.5978 52.894 29.7877 52.8766C29.9776 52.8592 30.1693 52.8401 30.3609 52.8192C30.5526 52.7983 30.7425 52.7739 30.9324 52.7478C31.1224 52.7217 31.3123 52.6938 31.5022 52.6625C31.6921 52.6312 31.8803 52.5998 32.0702 52.5668C32.2601 52.5337 32.4466 52.4954 32.6365 52.4553C32.8264 52.4153 33.0111 52.377 33.1975 52.3335C33.384 52.29 33.5704 52.2447 33.7568 52.1977C33.9433 52.1507 34.1297 52.102 34.3144 52.0497C34.4991 51.9975 34.6838 51.9453 34.8667 51.8896C35.0497 51.8339 35.2344 51.7764 35.4156 51.7155C35.5968 51.6546 35.7797 51.5936 35.961 51.5292L36.5028 51.3325C36.6771 51.2646 36.86 51.1932 37.0395 51.1219C37.219 51.0505 37.388 50.9756 37.5622 50.9008C37.7364 50.8259 37.9107 50.7458 38.0849 50.6658C38.2592 50.5857 38.4334 50.5039 38.6076 50.4203C38.7819 50.3367 38.9561 50.2462 39.1303 50.1627C39.3046 50.0791 39.4684 49.9886 39.6374 49.8946C39.8064 49.8006 39.9754 49.7083 40.1409 49.6143C40.3065 49.5203 40.4737 49.4211 40.6375 49.3218C40.8013 49.2226 40.9651 49.1216 41.1271 49.0189C41.2892 48.9162 41.4495 48.8118 41.6098 48.7056C41.7701 48.5994 41.9286 48.4915 42.0854 48.38C42.2422 48.2686 42.3991 48.159 42.5541 48.0458C42.7092 47.9326 42.8625 47.816 43.0141 47.6976C43.1657 47.5793 43.3173 47.4626 43.4671 47.3495C43.617 47.2363 43.7651 47.1058 43.9114 46.9822C44.0578 46.8586 44.2042 46.7332 44.347 46.6061C44.4899 46.479 44.6345 46.3502 44.7739 46.2197C44.9133 46.0891 45.0544 45.9585 45.1921 45.8245C45.3297 45.6905 45.4674 45.5564 45.6033 45.4189C45.7392 45.2814 45.8716 45.1456 46.0023 45.0063C46.133 44.867 46.2654 44.7243 46.3943 44.5833C46.5233 44.4423 46.6487 44.296 46.7742 44.1515C46.8996 44.0071 47.0233 43.8591 47.147 43.7111C47.2707 43.5631 47.3892 43.4134 47.5077 43.262C47.6262 43.1105 47.7429 42.9591 47.8562 42.8059C47.9694 42.6527 48.0862 42.4978 48.2047 42.3411C48.3231 42.1844 48.4259 42.0277 48.534 41.8693C48.642 41.7109 48.7483 41.5507 48.8546 41.3888C48.9609 41.2269 49.0602 41.0668 49.1612 40.9031C49.2623 40.7395 49.3616 40.5759 49.4592 40.4105C49.5568 40.2451 49.6526 40.078 49.7449 39.9109C49.8373 39.7437 49.9296 39.5731 50.0202 39.4043C50.1108 39.2354 50.1945 39.0561 50.2833 38.8925C50.3722 38.7288 50.4576 38.5443 50.5342 38.3702C50.6109 38.1961 50.6963 38.0221 50.7747 37.848C50.8531 37.6739 50.928 37.4998 51.0029 37.3257C51.0779 37.1516 51.1475 36.9776 51.2172 36.7913C51.2869 36.605 51.3566 36.4327 51.4211 36.2534C51.4856 36.0741 51.5518 35.8913 51.6128 35.7102C51.6737 35.5292 51.7347 35.3447 51.787 35.1619C51.8393 34.9791 51.9003 34.7946 51.9612 34.6118C52.0222 34.429 52.0658 34.241 52.1146 34.0564C52.1634 33.8719 52.2121 33.6839 52.2574 33.4976C52.3027 33.3114 52.3446 33.1251 52.3864 32.9371C52.4282 32.7491 52.4665 32.5611 52.5031 32.373C52.5397 32.185 52.5728 31.9953 52.6059 31.8073C52.639 31.6193 52.6686 31.4278 52.6965 31.238C52.7244 31.0483 52.7505 30.8585 52.7749 30.667C52.7993 30.4755 52.8202 30.2858 52.8394 30.0943C52.8586 29.9028 52.876 29.7113 52.8917 29.5216C52.9074 29.3318 52.9195 29.1386 52.93 28.9471C52.9405 28.7556 52.9509 28.5624 52.9561 28.3709C52.9614 28.1794 52.9683 27.9879 52.9701 27.7946C52.9718 27.6014 52.9701 27.4117 52.9701 27.2202C52.9701 27.0287 52.9701 26.8354 52.9561 26.644C52.9422 26.4525 52.9422 26.261 52.93 26.0695C52.9178 25.878 52.9074 25.6848 52.8917 25.4933C52.876 25.3018 52.8586 25.112 52.8394 24.9205C52.8202 24.729 52.7993 24.5393 52.7749 24.3478C52.7505 24.1563 52.7244 23.9683 52.6965 23.7785C52.6686 23.5888 52.639 23.399 52.6059 23.2093C52.5728 23.0195 52.5397 22.8315 52.5031 22.6418C52.4665 22.452 52.4265 22.2657 52.3864 22.0777C52.3463 21.8897 52.3027 21.7035 52.2574 21.5172C52.2121 21.3309 52.1651 21.1446 52.1163 20.9584C52.0675 20.7721 52.0153 20.5893 51.9612 20.4048C51.9072 20.2203 51.8515 20.0357 51.787 19.8529C51.7225 19.6702 51.6703 19.4874 51.6128 19.3063C51.5553 19.1253 51.4873 18.9425 51.4228 18.7614C51.3584 18.5804 51.2887 18.4028 51.219 18.2235C51.1493 18.0442 51.0761 17.8754 51.0029 17.6891C50.9297 17.5028 50.8531 17.3409 50.7747 17.1668C50.6963 16.9928 50.6161 16.8187 50.5342 16.6446C50.4523 16.4705 50.3687 16.2964 50.2833 16.1223C50.1979 15.9483 50.1091 15.7742 50.0202 15.6105C49.9314 15.4469 49.846 15.2728 49.7449 15.1039C49.6439 14.9351 49.5568 14.7697 49.4592 14.6043C49.3616 14.4389 49.2623 14.2753 49.163 14.1117L48.8546 13.6242C48.75 13.4641 48.6437 13.3039 48.534 13.1455C48.4242 12.9871 48.3162 12.8287 48.2047 12.6737C48.0932 12.5188 47.9799 12.3621 47.8562 12.2089C47.7325 12.0557 47.6245 11.9043 47.5077 11.7528C47.391 11.6014 47.269 11.4517 47.147 11.3037C47.0251 11.1557 46.9014 11.0095 46.7742 10.8633C46.647 10.717 46.5233 10.5743 46.3943 10.4315L46.004 10.0085C45.8716 9.86925 45.7375 9.73172 45.6033 9.59594C45.4691 9.46015 45.3315 9.32437 45.1938 9.19032C45.0562 9.05628 44.9151 8.92397 44.7757 8.79515C44.6363 8.66633 44.4917 8.53577 44.347 8.40869C44.2024 8.2816 44.0578 8.15626 43.9114 8.03266C43.7651 7.90907 43.617 7.78721 43.4671 7.66709C43.3173 7.54697 43.1674 7.42685 43.0141 7.31892C42.8608 7.21099 42.7092 7.08565 42.5541 6.97075C42.3991 6.85586 42.244 6.74619 42.0854 6.63651C41.9269 6.52684 41.7701 6.41717 41.6115 6.31098C41.4529 6.20479 41.2892 6.10034 41.1271 5.99763C40.9651 5.89492 40.8013 5.79395 40.6375 5.69472C40.4737 5.59549 40.3082 5.49801 40.1409 5.40226C39.9737 5.30651 39.8064 5.21425 39.6391 5.12199C39.4719 5.02972 39.2906 4.9479 39.1286 4.8539C38.9666 4.75989 38.7801 4.67981 38.6059 4.59625C38.4317 4.51269 38.2574 4.43087 38.0832 4.35079C37.9089 4.27072 37.7347 4.19238 37.5605 4.11578C37.3862 4.03918 37.212 3.96607 37.0377 3.8947C36.8635 3.82332 36.6806 3.75195 36.5011 3.68405C36.3216 3.61616 36.1404 3.55175 35.9592 3.48734C35.778 3.42293 35.5968 3.362 35.4156 3.30107C35.2344 3.24014 35.0497 3.18443 34.865 3.12699C34.6803 3.06954 34.4974 3.01731 34.3127 2.96683C34.128 2.91634 33.9415 2.86586 33.7551 2.81886C33.5687 2.77186 33.384 2.72659 33.1958 2.68307C33.0076 2.63955 32.8212 2.59951 32.633 2.55947C32.4448 2.51943 32.2567 2.48462 32.0685 2.4498C31.8803 2.41498 31.6904 2.38365 31.5005 2.35231L30.9307 2.26875C30.7408 2.24264 30.5509 2.22001 30.3592 2.19738C30.1675 2.17475 29.9776 2.1556 29.7877 2.13993L29.2127 2.09293L28.6377 2.06159C28.4461 2.05231 28.2544 2.04535 28.0627 2.0407C27.878 2.02155 27.6934 2.01981 27.4999 2.01981V2.01981Z" fill="#621F82"/>
<defs>
<linearGradient id="paint0_linear" x1="27.5182" y1="1.33179" x2="27.5182" y2="53.6755" gradientUnits="userSpaceOnUse">
<stop stop-color="#E4BBFA"/>
<stop offset="1" stop-color="#A7D3FF"/>
</linearGradient>
</defs>
</svg>
