<svg width="53" height="53" viewBox="0 0 53 53" fill="none" xmlns="http://www.w3.org/2000/svg">
<path d="M26.5 52.5C40.8594 52.5 52.5 40.8594 52.5 26.5C52.5 12.1406 40.8594 0.5 26.5 0.5C12.1406 0.5 0.5 12.1406 0.5 26.5C0.5 40.8594 12.1406 52.5 26.5 52.5Z" fill="white" stroke="#621F82"/>
<path d="M28.6961 39.0854H22.7547V20.0659H28.6961V39.0854ZM22.4031 15.1616C22.4031 14.3179 22.7078 13.6265 23.3172 13.0874C23.9266 12.5483 24.7176 12.2788 25.6902 12.2788C26.6629 12.2788 27.4539 12.5483 28.0633 13.0874C28.6727 13.6265 28.9773 14.3179 28.9773 15.1616C28.9773 16.0054 28.6727 16.6968 28.0633 17.2358C27.4539 17.7749 26.6629 18.0444 25.6902 18.0444C24.7176 18.0444 23.9266 17.7749 23.3172 17.2358C22.7078 16.6968 22.4031 16.0054 22.4031 15.1616Z" fill="#E4BBFA"/>
</svg>
