<svg width="316" height="316" viewBox="0 0 316 316" fill="none" xmlns="http://www.w3.org/2000/svg">
<path d="M308.06 156.27C308.06 157.397 308.06 158.527 308.06 159.66C308.06 160.79 308.06 161.92 307.98 163.05C307.9 164.18 307.89 165.31 307.83 166.44C307.77 167.57 307.69 168.7 307.6 169.83C307.51 170.96 307.41 172.08 307.29 173.21C307.17 174.34 307.05 175.46 306.91 176.58C306.77 177.7 306.62 178.82 306.45 179.94C306.28 181.06 306.11 182.18 305.92 183.29C305.73 184.4 305.52 185.52 305.31 186.63C305.1 187.74 304.86 188.85 304.62 189.95C304.38 191.05 304.13 192.16 303.86 193.26C303.59 194.36 303.32 195.45 303.03 196.55C302.74 197.65 302.43 198.73 302.12 199.81C301.81 200.89 301.47 201.98 301.12 203.06C300.77 204.14 300.43 205.21 300.07 206.29C299.71 207.37 299.33 208.42 298.94 209.48C298.55 210.54 298.15 211.61 297.74 212.66C297.33 213.71 296.9 214.76 296.47 215.8C296.04 216.84 295.58 217.89 295.13 218.92C294.68 219.95 294.2 220.98 293.71 222C293.22 223.02 292.71 224 292.23 225.06C291.75 226.12 291.23 227.06 290.68 228.06C290.13 229.06 289.61 230.06 289.06 231.06C288.51 232.06 287.95 233.06 287.38 234.01C286.81 234.96 286.22 235.95 285.63 236.92C285.04 237.89 284.43 238.83 283.81 239.78C283.19 240.73 282.57 241.67 281.93 242.6C281.29 243.53 280.64 244.47 279.98 245.38C279.32 246.29 278.66 247.22 277.98 248.12C277.3 249.02 276.61 249.92 275.91 250.81C275.21 251.7 274.5 252.58 273.78 253.45C273.06 254.32 272.33 255.19 271.59 256.05C270.85 256.91 270.11 257.75 269.35 258.59C268.59 259.43 267.82 260.26 267.05 261.08C266.28 261.9 265.48 262.72 264.69 263.52C263.9 264.32 263.09 265.12 262.28 265.91C261.47 266.7 260.64 267.47 259.81 268.24C258.98 269.01 258.14 269.76 257.29 270.51C256.44 271.26 255.59 272 254.72 272.73C253.85 273.46 252.99 274.17 252.11 274.88C251.23 275.59 250.34 276.29 249.44 276.98C248.54 277.67 247.64 278.35 246.73 278.98C245.82 279.61 244.9 280.31 243.97 280.98C243.04 281.65 242.11 282.27 241.17 282.9C240.23 283.53 239.28 284.14 238.32 284.75C237.36 285.36 236.41 285.95 235.44 286.53C234.47 287.11 233.49 287.69 232.51 288.25C231.53 288.81 230.51 289.36 229.51 289.9C228.51 290.44 227.51 290.97 226.51 291.48C225.51 291.99 224.51 292.48 223.51 293C222.51 293.52 221.51 294 220.44 294.45C219.37 294.9 218.38 295.38 217.34 295.83C216.3 296.28 215.26 296.71 214.21 297.13C213.16 297.55 212.11 297.97 211.05 298.37C209.99 298.77 208.93 299.16 207.87 299.53C206.81 299.9 205.73 300.27 204.66 300.63C203.59 300.99 202.5 301.32 201.42 301.63C200.34 301.94 199.25 302.28 198.16 302.58C197.07 302.88 195.98 303.17 194.88 303.45C193.78 303.73 192.69 304 191.59 304.25C190.49 304.5 189.38 304.74 188.27 304.97C187.16 305.2 186.05 305.42 184.94 305.62C183.83 305.82 182.71 306.01 181.6 306.19C180.49 306.37 179.36 306.54 178.24 306.69C177.12 306.84 176 306.98 174.87 307.11C173.74 307.24 172.62 307.35 171.5 307.45C170.38 307.55 169.24 307.65 168.12 307.72C167 307.79 165.86 307.86 164.73 307.91C163.6 307.96 162.47 308 161.34 308.03C160.21 308.06 159.08 308.03 157.95 308.03C156.82 308.03 155.68 308.03 154.55 308.03C153.42 308.03 152.29 307.97 151.16 307.91C150.03 307.85 148.9 307.8 147.78 307.72C146.66 307.64 145.52 307.56 144.39 307.45C143.26 307.34 142.14 307.24 141.02 307.11C139.9 306.98 138.77 306.84 137.65 306.69C136.53 306.54 135.41 306.37 134.3 306.19C133.19 306.01 132.06 305.82 130.95 305.62C129.84 305.42 128.73 305.2 127.62 304.97C126.51 304.74 125.41 304.5 124.31 304.25C123.21 304 122.11 303.73 121.01 303.45C119.91 303.17 118.82 302.88 117.73 302.58C116.64 302.28 115.56 301.96 114.47 301.63C113.38 301.3 112.31 300.97 111.24 300.63C110.17 300.29 109.09 299.91 108.02 299.53C106.95 299.15 105.9 298.77 104.84 298.37C103.78 297.97 102.73 297.56 101.68 297.13C100.63 296.7 99.59 296.27 98.55 295.83C97.51 295.39 96.48 294.92 95.45 294.45C94.42 293.98 93.45 293.5 92.38 293C91.31 292.5 90.38 292 89.38 291.48C88.38 290.96 87.38 290.48 86.38 289.9C85.38 289.32 84.38 288.81 83.38 288.25C82.38 287.69 81.38 287.11 80.46 286.53C79.54 285.95 78.52 285.35 77.57 284.75C76.62 284.15 75.67 283.52 74.73 282.9C73.79 282.28 72.85 281.63 71.92 280.98C70.99 280.33 70.08 279.68 69.16 278.98C68.24 278.28 67.35 277.63 66.45 276.98C65.55 276.33 64.67 275.59 63.79 274.88C62.91 274.17 62.03 273.45 61.17 272.73C60.31 272.01 59.45 271.26 58.6 270.51C57.75 269.76 56.91 269 56.08 268.24C55.25 267.48 54.43 266.69 53.62 265.91C52.81 265.13 52 264.32 51.2 263.52C50.4 262.72 49.62 261.9 48.85 261.08C48.08 260.26 47.3 259.43 46.54 258.59C45.78 257.75 45.04 256.9 44.3 256.05C43.56 255.2 42.83 254.32 42.11 253.45C41.39 252.58 40.68 251.7 39.98 250.81C39.28 249.92 38.59 249.02 37.91 248.12C37.23 247.22 36.57 246.3 35.91 245.38C35.25 244.46 34.6 243.54 33.91 242.6C33.22 241.66 32.65 240.73 32.03 239.78C31.41 238.83 30.81 237.88 30.22 236.92C29.63 235.96 29.1 235 28.52 234C27.94 233 27.39 232 26.84 231.06C26.29 230.12 25.75 229.06 25.22 228.06C24.69 227.06 24.22 226.06 23.67 225.06C23.12 224.06 22.67 223.06 22.19 222C21.71 220.94 21.19 219.95 20.78 218.92C20.37 217.89 19.87 216.85 19.43 215.8C18.99 214.75 18.57 213.71 18.16 212.66C17.75 211.61 17.35 210.55 16.96 209.49C16.57 208.43 16.2 207.36 15.83 206.29C15.46 205.22 15.12 204.14 14.78 203.06C14.44 201.98 14.11 200.9 13.78 199.81C13.45 198.72 13.16 197.64 12.87 196.55C12.58 195.46 12.3 194.36 12.03 193.26C11.76 192.16 11.51 191.06 11.27 189.95C11.03 188.84 10.8 187.74 10.59 186.63C10.38 185.52 10.17 184.41 9.97999 183.29C9.78999 182.17 9.60999 181.06 9.43999 179.94C9.26999 178.82 9.11999 177.7 8.97999 176.58C8.83999 175.46 8.72 174.33 8.6 173.21C8.48 172.09 8.37999 170.96 8.28999 169.83C8.19999 168.7 8.13 167.57 8.06 166.44C7.99 165.31 7.94999 164.19 7.90999 163.05C7.86999 161.91 7.84999 160.79 7.82999 159.66C7.80999 158.53 7.82999 157.4 7.82999 156.27C7.82999 155.14 7.82999 154.01 7.90999 152.88C7.98999 151.75 8 150.62 8.06 149.49C8.12 148.36 8.20999 147.23 8.28999 146.1C8.36999 144.97 8.49 143.85 8.6 142.73C8.71 141.61 8.83999 140.48 8.97999 139.35C9.11999 138.22 9.27999 137.11 9.43999 135.99C9.59999 134.87 9.78999 133.76 9.97999 132.64C10.17 131.52 10.37 130.42 10.59 129.31C10.81 128.2 11.03 127.09 11.27 125.98C11.51 124.87 11.77 123.78 12.03 122.68C12.29 121.58 12.58 120.48 12.87 119.39C13.16 118.3 13.46 117.21 13.78 116.12C14.1 115.03 14.42 113.95 14.78 112.87C15.14 111.79 15.47 110.72 15.83 109.65C16.19 108.58 16.57 107.51 16.96 106.45C17.35 105.39 17.75 104.33 18.16 103.28C18.57 102.23 19 101.17 19.43 100.13C19.86 99.09 20.32 98.05 20.78 97.01C21.24 95.97 21.71 94.95 22.19 93.93C22.67 92.91 23.19 91.93 23.67 90.88C24.15 89.83 24.67 88.88 25.22 87.88C25.77 86.88 26.29 85.88 26.84 84.88C27.39 83.88 27.95 82.88 28.52 81.93C29.09 80.98 29.68 80 30.28 79C30.88 78 31.48 77.08 32.09 76.13C32.7 75.18 33.34 74.24 33.97 73.31C34.6 72.38 35.26 71.45 35.97 70.53C36.68 69.61 37.3 68.7 37.97 67.79C38.64 66.88 39.29 66 40 65.13C40.71 64.26 41.41 63.36 42.13 62.49C42.85 61.62 43.58 60.75 44.32 59.9C45.06 59.05 45.8 58.19 46.56 57.35C47.32 56.51 48.09 55.68 48.87 54.86C49.65 54.04 50.43 53.23 51.22 52.42C52.01 51.61 52.82 50.82 53.64 50.04C54.46 49.26 55.27 48.48 56.1 47.71C56.93 46.94 57.77 46.18 58.62 45.43C59.47 44.68 60.32 43.95 61.19 43.22C62.06 42.49 62.92 41.77 63.81 41.06C64.7 40.35 65.57 39.65 66.47 38.96C67.37 38.27 68.27 37.59 69.18 36.96L71.94 34.96C72.87 34.31 73.8 33.67 74.74 33.05C75.68 32.43 76.63 31.8 77.59 31.2C78.55 30.6 79.5 30 80.47 29.4C81.44 28.8 82.41 28.25 83.39 27.68C84.37 27.11 85.39 26.57 86.39 26.03C87.39 25.49 88.39 24.97 89.39 24.45C90.39 23.93 91.39 23.45 92.39 22.93L95.46 21.48C96.46 21.01 97.52 20.55 98.56 20.11C99.6 19.67 100.64 19.22 101.69 18.8C102.74 18.38 103.79 17.96 104.85 17.56C105.91 17.16 107 16.78 108 16.4C109 16.02 110.14 15.66 111.22 15.31C112.3 14.96 113.37 14.62 114.45 14.31C115.53 14 116.62 13.67 117.71 13.36C118.8 13.05 119.89 12.77 120.99 12.49C122.09 12.21 123.18 11.95 124.29 11.69C125.4 11.43 126.49 11.2 127.6 10.97C128.71 10.74 129.82 10.53 130.93 10.32C132.04 10.11 133.16 9.93 134.28 9.75C135.4 9.57 136.51 9.41 137.63 9.25C138.75 9.09 139.88 8.96 141 8.83C142.12 8.7 143.25 8.59 144.37 8.49C145.49 8.39 146.63 8.30001 147.76 8.22001C148.89 8.14001 150 8.06 151.17 8L154.56 7.88H157.96H161.35L164.74 8C165.87 8.05 167 8.11 168.13 8.19C169.26 8.27 170.38 8.36 171.51 8.46C172.64 8.56 173.76 8.68 174.88 8.8C176 8.92 177.13 9.07001 178.25 9.22001C179.37 9.37001 180.49 9.54 181.61 9.72001C182.73 9.90001 183.84 10.09 184.95 10.29C186.06 10.49 187.17 10.71 188.28 10.94C189.39 11.17 190.49 11.41 191.6 11.66C192.71 11.91 193.8 12.18 194.89 12.46C195.98 12.74 197.08 13.03 198.17 13.33C199.26 13.63 200.35 13.95 201.43 14.28C202.51 14.61 203.59 14.95 204.67 15.28C205.75 15.61 206.81 15.99 207.88 16.37C208.95 16.75 210.01 17.13 211.07 17.53C212.13 17.93 213.18 18.35 214.22 18.77C215.26 19.19 216.32 19.63 217.36 20.08C218.4 20.53 219.43 20.98 220.46 21.46C221.49 21.94 222.46 22.46 223.52 22.9C224.58 23.34 225.52 23.9 226.52 24.42C227.52 24.94 228.52 25.42 229.52 26C230.52 26.58 231.52 27.09 232.52 27.66C233.52 28.23 234.52 28.79 235.45 29.37C236.38 29.95 237.38 30.55 238.33 31.16C239.28 31.77 240.24 32.38 241.18 33.01C242.12 33.64 243.05 34.3 244 35C244.95 35.7 245.85 36.31 246.76 37C247.67 37.69 248.57 38.34 249.47 39C250.37 39.66 251.26 40.39 252.14 41.1C253.02 41.81 253.89 42.53 254.76 43.26C255.63 43.99 256.48 44.73 257.32 45.48C258.16 46.23 259.01 46.98 259.84 47.75C260.67 48.52 261.49 49.29 262.31 50.08C263.13 50.87 263.93 51.66 264.72 52.46C265.51 53.26 266.3 54.08 267.08 54.9C267.86 55.72 268.62 56.56 269.38 57.4C270.14 58.24 270.89 59.08 271.63 59.94C272.37 60.8 273.09 61.66 273.81 62.53C274.53 63.4 275.24 64.29 275.94 65.18C276.64 66.07 277.33 66.96 278.01 67.87C278.69 68.78 279.36 69.68 280.01 70.6C280.66 71.52 281.31 72.45 281.95 73.38C282.59 74.31 283.21 75.26 283.83 76.2C284.45 77.14 285 78.07 285.64 79C286.28 79.93 286.82 80.93 287.39 81.91C287.96 82.89 288.52 83.91 289.07 84.85C289.62 85.79 290.16 86.85 290.69 87.85C291.22 88.85 291.74 89.85 292.24 90.85C292.74 91.85 293.24 92.85 293.72 93.9C294.2 94.95 294.72 95.9 295.14 96.99C295.56 98.08 296.04 99.06 296.48 100.1C296.92 101.14 297.34 102.19 297.75 103.25C298.16 104.31 298.56 105.36 298.95 106.42C299.34 107.48 299.71 108.55 300.08 109.62C300.45 110.69 300.79 111.77 301.13 112.84C301.47 113.91 301.8 115.01 302.13 116.09C302.46 117.17 302.74 118.27 303.04 119.36C303.34 120.45 303.6 121.55 303.87 122.65C304.14 123.75 304.39 124.85 304.63 125.96C304.87 127.07 305.1 128.17 305.32 129.28C305.54 130.39 305.74 131.5 305.93 132.62C306.12 133.74 306.3 134.85 306.46 135.97C306.62 137.09 306.78 138.21 306.92 139.33C307.06 140.45 307.19 141.57 307.3 142.7C307.41 143.83 307.52 144.95 307.61 146.08C307.7 147.21 307.77 148.33 307.84 149.46C307.91 150.59 307.95 151.72 307.99 152.85C308.03 153.98 308 155.14 308.06 156.27Z" fill="white"/>
<path d="M158 308.33C156.86 308.33 155.73 308.33 154.6 308.33C153.47 308.33 152.33 308.27 151.2 308.21C150.07 308.15 148.94 308.1 147.81 308.02C146.68 307.94 145.55 307.86 144.42 307.75C143.29 307.64 142.17 307.54 141.04 307.41C139.91 307.28 138.79 307.14 137.67 306.99C136.55 306.84 135.43 306.67 134.31 306.49C133.19 306.31 132.07 306.12 130.96 305.92C129.85 305.72 128.73 305.5 127.62 305.27C126.51 305.04 125.4 304.8 124.3 304.55C123.2 304.3 122.1 304.02 121 303.74C119.9 303.46 118.81 303.17 117.71 302.87C116.61 302.57 115.53 302.25 114.45 301.92C113.37 301.59 112.29 301.26 111.21 300.92C110.13 300.58 109.06 300.21 107.99 299.83C106.92 299.45 105.86 299.06 104.8 298.66C103.74 298.26 102.69 297.85 101.63 297.42C100.57 296.99 99.54 296.56 98.5 296.12C97.46 295.68 96.42 295.21 95.39 294.74L92.32 293.29C91.32 292.79 90.32 292.29 89.32 291.77C88.32 291.25 87.32 290.77 86.32 290.18C85.32 289.59 84.32 289.09 83.32 288.53C82.32 287.97 81.32 287.39 80.39 286.8C79.46 286.21 78.45 285.62 77.5 285.02C76.55 284.42 75.59 283.79 74.65 283.17C73.71 282.55 72.77 281.9 71.84 281.25C70.91 280.6 69.99 279.94 69.08 279.25C68.17 278.56 67.26 277.9 66.36 277.25C65.46 276.6 64.57 275.86 63.69 275.15C62.81 274.44 61.93 273.72 61.07 272.99C60.21 272.26 59.34 271.52 58.49 270.77C57.64 270.02 56.8 269.26 55.97 268.49C55.14 267.72 54.32 266.94 53.5 266.16C52.68 265.38 51.88 264.57 51.09 263.76C50.3 262.95 49.5 262.15 48.72 261.32C47.94 260.49 47.18 259.67 46.42 258.83C45.66 257.99 44.91 257.14 44.17 256.28C43.43 255.42 42.7 254.55 41.98 253.68C41.26 252.81 40.5 251.84 39.8 251C39.1 250.16 38.4 249.22 37.72 248.31C37.04 247.4 36.37 246.49 35.72 245.57C35.07 244.65 34.41 243.72 33.77 242.79C33.13 241.86 32.5 240.91 31.88 239.96C31.26 239.01 30.66 238 30.06 237C29.46 236 28.88 235.06 28.31 234.09C27.74 233.12 27.17 232.09 26.62 231.14C26.07 230.19 25.53 229.14 25 228.14C24.47 227.14 23.95 226.14 23.45 225.14C22.95 224.14 22.45 223.14 21.96 222.08C21.47 221.02 21 220.06 20.55 219C20.1 217.94 19.64 216.93 19.2 215.88C18.76 214.83 18.34 213.78 17.93 212.73C17.52 211.68 17.12 210.61 16.73 209.55C16.34 208.49 15.96 207.42 15.6 206.35C15.24 205.28 14.88 204.2 14.54 203.12C14.2 202.04 13.87 200.95 13.54 199.86C13.21 198.77 12.92 197.68 12.62 196.59C12.32 195.5 12.05 194.4 11.79 193.3C11.53 192.2 11.27 191.09 11.03 189.98C10.79 188.87 10.56 187.77 10.34 186.65C10.12 185.53 9.91999 184.43 9.72999 183.31C9.53999 182.19 9.35999 181.08 9.18999 179.96C9.01999 178.84 8.87999 177.71 8.73999 176.59C8.59999 175.47 8.47 174.34 8.35 173.21C8.23 172.08 8.13 170.96 8.05 169.83C7.97 168.7 7.87999 167.57 7.80999 166.44C7.73999 165.31 7.69999 164.18 7.65999 163.04C7.61999 161.9 7.59999 160.78 7.57999 159.65C7.55999 158.52 7.57999 157.38 7.57999 156.25C7.57999 155.12 7.57999 153.98 7.65999 152.85C7.73999 151.72 7.74999 150.59 7.80999 149.46C7.86999 148.33 7.96 147.19 8.05 146.07C8.14 144.95 8.24 143.81 8.35 142.68C8.46 141.55 8.58999 140.43 8.73999 139.3C8.88999 138.17 9.02999 137.06 9.18999 135.94C9.34999 134.82 9.53999 133.7 9.72999 132.58C9.91999 131.46 10.13 130.35 10.34 129.24C10.55 128.13 10.79 127.02 11.03 125.91C11.27 124.8 11.52 123.7 11.79 122.6C12.06 121.5 12.33 120.4 12.62 119.3C12.91 118.2 13.22 117.12 13.54 116.03C13.86 114.94 14.18 113.86 14.54 112.78C14.9 111.7 15.23 110.62 15.6 109.55C15.97 108.48 16.34 107.41 16.73 106.34C17.12 105.27 17.52 104.22 17.93 103.16C18.34 102.1 18.77 101.06 19.2 100.01C19.63 98.96 20.09 97.93 20.55 96.89C21.01 95.85 21.48 94.83 21.96 93.8C22.44 92.77 22.96 91.8 23.45 90.8C23.94 89.8 24.45 88.8 25 87.8C25.55 86.8 26.07 85.8 26.62 84.8C27.17 83.8 27.74 82.8 28.31 81.8C28.88 80.8 29.47 79.8 30.06 78.89C30.65 77.98 31.27 77 31.88 76C32.49 75 33.13 74.1 33.77 73.17C34.41 72.24 35.05 71.3 35.71 70.38C36.37 69.46 37.04 68.55 37.71 67.64C38.38 66.73 39.1 65.87 39.8 65C40.5 64.13 41.21 63.23 41.93 62.35C42.65 61.47 43.38 60.61 44.12 59.76C44.86 58.91 45.61 58.05 46.37 57.21C47.13 56.37 47.9 55.53 48.67 54.71C49.44 53.89 50.24 53.07 51.04 52.27C51.84 51.47 52.64 50.67 53.45 49.88C54.26 49.09 55.09 48.31 55.92 47.54C56.75 46.77 57.59 46.02 58.44 45.27C59.29 44.52 60.15 43.76 61 43C61.85 42.24 62.74 41.55 63.62 40.83C64.5 40.11 65.39 39.42 66.29 38.73C67.19 38.04 68.09 37.36 69.01 36.73C69.93 36.1 70.84 35.4 71.77 34.73C72.7 34.06 73.63 33.45 74.58 32.82C75.53 32.19 76.47 31.57 77.43 30.97C78.39 30.37 79.35 29.76 80.32 29.18C81.29 28.6 82.26 28.02 83.25 27.46C84.24 26.9 85.25 26.34 86.25 25.8C87.25 25.26 88.25 24.73 89.25 24.22C90.25 23.71 91.25 23.22 92.25 22.7C93.25 22.18 94.25 21.7 95.32 21.25C96.39 20.8 97.39 20.32 98.43 19.87C99.47 19.42 100.51 18.98 101.56 18.56C102.61 18.14 103.67 17.72 104.73 17.32C105.79 16.92 106.85 16.53 107.92 16.15C108.99 15.77 110.06 15.41 111.14 15.06L114.38 14.06C115.46 13.73 116.55 13.42 117.64 13.06C118.73 12.7 119.83 12.47 120.93 12.19C122.03 11.91 123.13 11.64 124.23 11.39C125.33 11.14 126.44 10.89 127.55 10.67C128.66 10.45 129.77 10.22 130.89 10.02C132.01 9.82002 133.12 9.62002 134.24 9.44002C135.36 9.26002 136.48 9.10002 137.6 8.95002C138.72 8.80002 139.85 8.65002 140.97 8.52002C142.09 8.39002 143.22 8.28002 144.35 8.18002C145.48 8.08002 146.64 8.00002 147.77 8.00002C148.9 8.00002 150.03 7.86002 151.16 7.81002C152.29 7.76002 153.43 7.72002 154.56 7.69002C156.82 7.63669 159.087 7.63669 161.36 7.69002L164.75 7.81002C165.88 7.81002 167.01 7.92002 168.14 8.00002C169.27 8.08002 170.4 8.17002 171.53 8.27002C172.66 8.37002 173.79 8.49002 174.91 8.62002C176.03 8.75002 177.16 8.88002 178.28 9.04002C179.4 9.20002 180.53 9.36002 181.65 9.53002C182.77 9.70002 183.88 9.90002 185 10.11C186.12 10.32 187.22 10.53 188.33 10.76C189.44 10.99 190.55 11.23 191.65 11.48C192.75 11.73 193.86 12 194.96 12.28C196.06 12.56 197.15 12.85 198.24 13.15C199.33 13.45 200.42 13.77 201.5 14.15C202.58 14.53 203.67 14.82 204.74 15.15C205.81 15.48 206.89 15.87 207.96 16.24C209.03 16.61 210.09 17.01 211.15 17.41C212.21 17.81 213.27 18.22 214.32 18.65C215.37 19.08 216.41 19.51 217.45 19.96C218.49 20.41 219.53 20.87 220.56 21.34C221.59 21.81 222.61 22.29 223.63 22.79C224.65 23.29 225.63 23.79 226.63 24.31C227.63 24.83 228.63 25.31 229.63 25.89C230.63 26.47 231.63 26.99 232.63 27.55C233.63 28.11 234.63 28.69 235.56 29.27C236.49 29.85 237.49 30.45 238.45 31.06C239.41 31.67 240.35 32.28 241.3 32.91C242.25 33.54 243.18 34.18 244.1 34.82C245.02 35.46 245.95 36.13 246.87 36.82C247.79 37.51 248.69 38.17 249.58 38.82C250.47 39.47 251.37 40.22 252.25 40.93C253.13 41.64 254 42.3 254.9 43C255.8 43.7 256.62 44.47 257.47 45.22C258.32 45.97 259.16 46.73 259.99 47.5C260.82 48.27 261.65 49.04 262.46 49.83C263.27 50.62 264.08 51.41 264.88 52.22C265.68 53.03 266.46 53.84 267.24 54.66C268.02 55.48 268.79 56.32 269.55 57.16C270.31 58 271.06 58.85 271.79 59.71C272.52 60.57 273.26 61.43 273.99 62.3C274.72 63.17 275.42 64.06 276.12 64.95C276.82 65.84 277.51 66.74 278.19 67.65C278.87 68.56 279.54 69.46 280.19 70.38C280.84 71.3 281.5 72.23 282.14 73.17C282.78 74.11 283.41 75.08 284 76C284.59 76.92 285.22 77.91 285.82 78.87C286.42 79.83 287 80.8 287.57 81.78C288.14 82.76 288.71 83.78 289.26 84.78C289.81 85.78 290.35 86.78 290.88 87.78C291.41 88.78 291.88 89.78 292.44 90.78C293 91.78 293.44 92.78 293.92 93.84C294.4 94.9 294.87 95.84 295.34 96.92C295.81 98 296.24 99 296.68 100.05C297.12 101.1 297.54 102.14 297.95 103.2C298.36 104.26 298.77 105.31 299.15 106.38C299.53 107.45 299.92 108.51 300.28 109.58C300.64 110.65 301 111.73 301.34 112.81C301.68 113.89 302.01 114.98 302.34 116.06C302.67 117.14 302.96 118.24 303.25 119.34C303.54 120.44 303.82 121.53 304.08 122.63C304.34 123.73 304.6 124.84 304.84 125.94C305.08 127.04 305.32 128.16 305.53 129.27C305.74 130.38 305.95 131.5 306.14 132.61C306.33 133.72 306.51 134.85 306.68 135.97C306.85 137.09 307 138.21 307.14 139.34C307.28 140.47 307.4 141.59 307.52 142.71C307.64 143.83 307.74 144.97 307.83 146.1C307.92 147.23 307.99 148.36 308.06 149.49C308.13 150.62 308.17 151.75 308.21 152.88C308.25 154.01 308.27 155.15 308.29 156.28C308.31 157.41 308.29 158.54 308.29 159.68C308.29 160.82 308.29 161.94 308.21 163.07C308.13 164.2 308.12 165.34 308.06 166.47C308 167.6 307.92 168.73 307.83 169.86C307.74 170.99 307.64 172.12 307.52 173.24C307.4 174.36 307.28 175.5 307.14 176.62C307 177.74 306.84 178.87 306.68 179.99C306.52 181.11 306.33 182.23 306.14 183.34C305.95 184.45 305.75 185.57 305.53 186.68C305.31 187.79 305.09 188.91 304.84 190.01C304.59 191.11 304.35 192.22 304.08 193.32C303.81 194.42 303.54 195.52 303.25 196.62C302.96 197.72 302.65 198.81 302.34 199.89C302.03 200.97 301.69 202.06 301.34 203.15C300.99 204.24 300.65 205.3 300.28 206.38C299.91 207.46 299.54 208.52 299.15 209.58C298.76 210.64 298.36 211.7 297.95 212.76C297.54 213.82 297.11 214.86 296.68 215.91C296.25 216.96 295.79 218 295.33 219.03C294.87 220.06 294.4 221.1 293.92 222.12C293.44 223.14 292.92 224.12 292.43 225.18C291.94 226.24 291.43 227.18 290.88 228.18C290.33 229.18 289.81 230.18 289.26 231.18C288.71 232.18 288.15 233.18 287.57 234.13C286.99 235.08 286.41 236.07 285.82 237.04C285.23 238.01 284.62 238.96 284 239.91C283.38 240.86 282.75 241.8 282.11 242.73C281.47 243.66 280.83 244.6 280.17 245.52C279.51 246.44 278.84 247.35 278.17 248.26C277.5 249.17 276.8 250.06 276.1 250.95C275.4 251.84 274.69 252.73 273.96 253.6C273.23 254.47 272.51 255.34 271.77 256.2C271.03 257.06 270.28 257.91 269.52 258.75C268.76 259.59 268 260.42 267.22 261.24C266.44 262.06 265.65 262.88 264.86 263.68C264.07 264.48 263.25 265.29 262.44 266.08C261.63 266.87 260.8 267.64 259.97 268.41C259.14 269.18 258.3 269.94 257.45 270.69C256.6 271.44 255.74 272.18 254.87 272.91C254 273.64 253.14 274.36 252.25 275.07C251.36 275.78 250.48 276.48 249.58 277.17C248.68 277.86 247.78 278.54 246.86 279.17C245.94 279.8 245.03 280.5 244.1 281.17C243.17 281.84 242.24 282.46 241.3 283.09L238.47 285C237.47 285.6 236.55 286.2 235.58 286.78C234.61 287.36 233.58 287.94 232.65 288.51L229.65 290.16C228.65 290.7 227.65 291.23 226.65 291.75C225.65 292.27 224.65 292.75 223.65 293.27L220.58 294.72C219.58 295.19 218.51 295.65 217.47 296.09C216.43 296.53 215.39 296.98 214.34 297.4C213.29 297.82 212.23 298.24 211.17 298.64C210.11 299.04 209.05 299.43 207.98 299.81C206.91 300.19 205.84 300.55 204.76 300.9C203.68 301.25 202.61 301.6 201.52 301.9C200.43 302.2 199.35 302.55 198.26 302.85C197.17 303.15 196.07 303.45 194.97 303.72C193.87 303.99 192.77 304.27 191.67 304.52C190.57 304.77 189.46 305.02 188.35 305.25C187.24 305.48 186.13 305.69 185.02 305.9L181.67 306.47C180.55 306.65 179.43 306.81 178.3 306.97C177.17 307.13 176.06 307.26 174.93 307.39C173.8 307.52 172.68 307.63 171.55 307.73C170.42 307.83 169.29 307.92 168.16 308C167.03 308.08 165.9 308.14 164.77 308.19C163.64 308.24 162.51 308.28 161.37 308.31C160.23 308.34 159.09 308.33 158 308.33ZM158 8.11002C156.873 8.11002 155.743 8.11002 154.61 8.11002L151.22 8.23002C150.1 8.28002 148.97 8.34002 147.84 8.42002C146.71 8.50002 145.59 8.59002 144.47 8.69002C143.35 8.79002 142.22 8.90002 141.1 9.03002C139.98 9.16002 138.85 9.30002 137.74 9.45002C136.63 9.60002 135.5 9.77002 134.39 9.95002C133.28 10.13 132.16 10.32 131.05 10.52C129.94 10.72 128.83 10.94 127.72 11.17C126.61 11.4 125.51 11.63 124.41 11.89C123.31 12.15 122.21 12.41 121.12 12.68C120.03 12.95 118.94 13.25 117.85 13.55C116.76 13.85 115.68 14.17 114.59 14.5C113.5 14.83 112.44 15.16 111.36 15.5C110.28 15.84 109.22 16.21 108.16 16.59C107.1 16.97 106.03 17.35 104.98 17.75C103.93 18.15 102.87 18.56 101.82 18.98C100.77 19.4 99.73 19.84 98.7 20.29C97.67 20.74 96.63 21.19 95.6 21.66C94.57 22.13 93.6 22.61 92.54 23.11C91.48 23.61 90.54 24.11 89.54 24.62C88.54 25.13 87.54 25.62 86.54 26.2C85.54 26.78 84.54 27.29 83.54 27.85C82.54 28.41 81.54 28.98 80.62 29.57C79.7 30.16 78.7 30.74 77.74 31.35C76.78 31.96 75.84 32.57 74.9 33.19C73.96 33.81 73 34.51 72.08 35.15C71.16 35.79 70.23 36.46 69.32 37.15C68.41 37.84 67.51 38.49 66.61 39.15L64 41.25C63.12 41.9567 62.25 42.6767 61.39 43.41C60.53 44.14 59.67 44.87 58.82 45.62L56.31 47.89C55.48 48.66 54.66 49.43 53.85 50.22C53.04 51.01 52.23 51.8 51.44 52.6C50.65 53.4 49.81 54.21 49 55C48.19 55.79 47.45 56.65 46.7 57.49C45.95 58.33 45.19 59.18 44.46 60.03C43.73 60.88 43 61.78 42.31 62.65C41.62 63.52 40.89 64.4 40.19 65.29C39.49 66.18 38.8 67.07 38.12 68L36.12 70.73C35.46 71.65 34.82 72.58 34.18 73.51C33.54 74.44 32.92 75.38 32.3 76.33C31.68 77.28 31.08 78.23 30.49 79.19C29.9 80.15 29.31 81.12 28.74 82.09C28.17 83.06 27.61 84 27.06 85C26.51 86 26 87 25.44 88C24.88 89 24.44 90 23.89 91C23.34 92 22.89 93 22.41 94.05C21.93 95.1 21.46 96.05 21 97.13C20.54 98.21 20.1 99.19 19.66 100.24C19.22 101.29 18.81 102.32 18.4 103.38C17.99 104.44 17.58 105.48 17.2 106.54C16.82 107.6 16.43 108.67 16.07 109.74C15.71 110.81 15.36 111.87 15 113C14.64 114.13 14.33 115.15 14 116.24C13.67 117.33 13.38 118.41 13.09 119.5C12.8 120.59 12.52 121.69 12.25 122.79C11.98 123.89 11.74 124.98 11.5 126.09C11.26 127.2 11.03 128.3 10.81 129.4C10.59 130.5 10.39 131.62 10.2 132.74C10.01 133.86 9.83 134.96 9.67 136.08C9.51 137.2 9.34999 138.32 9.20999 139.44C9.06999 140.56 8.93999 141.68 8.82999 142.8C8.71999 143.92 8.61 145.05 8.52 146.17C8.43 147.29 8.35999 148.43 8.28999 149.55C8.21999 150.67 8.18 151.81 8.14 152.94C8.1 154.07 8.08 155.19 8.06 156.32C8.04 157.45 8.06 158.58 8.06 159.71C8.06 160.84 8.06 161.97 8.14 163.1C8.22 164.23 8.22999 165.35 8.28999 166.48C8.34999 167.61 8.43 168.73 8.52 169.86C8.61 170.99 8.70999 172.11 8.82999 173.23C8.94999 174.35 9.06999 175.48 9.20999 176.6C9.34999 177.72 9.5 178.84 9.67 179.95C9.84 181.06 10.01 182.19 10.2 183.3C10.39 184.41 10.6 185.52 10.81 186.63C11.02 187.74 11.26 188.84 11.5 189.95C11.74 191.06 11.99 192.15 12.25 193.25C12.51 194.35 12.8 195.44 13.09 196.53C13.38 197.62 13.68 198.71 14 199.8C14.32 200.89 14.64 201.96 15 203.04C15.36 204.12 15.69 205.19 16.05 206.26C16.41 207.33 16.79 208.39 17.18 209.45C17.57 210.51 17.96 211.57 18.38 212.62C18.8 213.67 19.21 214.72 19.65 215.76C20.09 216.8 20.53 217.84 20.98 218.87C21.43 219.9 21.91 220.93 22.4 221.95C22.89 222.97 23.4 223.95 23.87 224.95C24.34 225.95 24.87 226.95 25.42 227.95C25.97 228.95 26.49 229.95 27.04 230.95C27.59 231.95 28.15 232.95 28.72 233.89C29.29 234.83 29.88 235.83 30.47 236.79C31.06 237.75 31.67 238.71 32.28 239.65C32.89 240.59 33.52 241.54 34.16 242.47C34.8 243.4 35.44 244.33 36.1 245.25C36.76 246.17 37.43 247.08 38.1 247.98C38.77 248.88 39.47 249.78 40.17 250.66C40.87 251.54 41.58 252.43 42.29 253.3C43 254.17 43.74 255.04 44.48 255.89C45.22 256.74 45.96 257.59 46.72 258.43C47.48 259.27 48.24 260.1 49.02 260.92C49.8 261.74 50.58 262.55 51.37 263.35C52.16 264.15 52.97 264.95 53.78 265.74C54.59 266.53 55.41 267.3 56.24 268.06C57.07 268.82 57.91 269.58 58.75 270.33C59.59 271.08 60.46 271.82 61.32 272.54C62.18 273.26 63.07 274 64 274.68C64.93 275.36 65.77 276.09 66.66 276.77C67.55 277.45 68.46 278.14 69.37 278.77C70.28 279.4 71.2 280.09 72.13 280.77C73.06 281.45 73.98 282.05 74.92 282.68C75.86 283.31 76.81 283.92 77.76 284.53L80.64 286.31C81.64 286.89 82.64 287.46 83.56 288.02C84.48 288.58 85.56 289.13 86.56 289.67C87.56 290.21 88.56 290.74 89.56 291.25C90.56 291.76 91.56 292.25 92.56 292.77C93.56 293.29 94.56 293.77 95.62 294.21C96.68 294.65 97.68 295.14 98.72 295.59C99.76 296.04 100.79 296.47 101.84 296.89C102.89 297.31 103.94 297.73 105 298.13C106.06 298.53 107.11 298.91 108.18 299.29C109.25 299.67 110.31 300.03 111.38 300.38C112.45 300.73 113.53 301.07 114.61 301.38C115.69 301.69 116.78 302.02 117.87 302.32L121.14 303.19C122.24 303.47 123.33 303.73 124.43 303.99C125.53 304.25 126.64 304.48 127.74 304.71C128.84 304.94 129.96 305.15 131.07 305.35C132.18 305.55 133.29 305.75 134.41 305.93C135.53 306.11 136.64 306.27 137.76 306.42C138.88 306.57 139.99 306.72 141.12 306.84C142.25 306.96 143.36 307.08 144.49 307.19C145.62 307.3 146.74 307.38 147.86 307.45C148.98 307.52 150.12 307.59 151.24 307.64C152.36 307.69 153.5 307.73 154.63 307.76C156.89 307.807 159.147 307.807 161.4 307.76C162.53 307.76 163.66 307.7 164.79 307.64C165.92 307.58 167.04 307.53 168.17 307.45C169.3 307.37 170.42 307.29 171.55 307.19C172.68 307.09 173.79 306.97 174.92 306.84C176.05 306.71 177.16 306.57 178.27 306.42C179.38 306.27 180.51 306.1 181.63 305.93C182.75 305.76 183.85 305.56 184.97 305.35C186.09 305.14 187.18 304.94 188.29 304.71C189.4 304.48 190.5 304.24 191.6 303.99C192.7 303.74 193.8 303.47 194.89 303.19C195.98 302.91 197.08 302.62 198.16 302.32C199.24 302.02 200.34 301.7 201.42 301.38C202.5 301.06 203.57 300.71 204.65 300.38C205.73 300.05 206.79 299.66 207.85 299.29C208.91 298.92 209.98 298.53 211.04 298.13C212.1 297.73 213.14 297.32 214.19 296.89C215.24 296.46 216.28 296.03 217.32 295.59L220.41 294.21C221.437 293.737 222.457 293.257 223.47 292.77C224.47 292.27 225.47 291.77 226.47 291.25C227.47 290.73 228.47 290.25 229.47 289.67C230.47 289.09 231.47 288.58 232.47 288.02C233.47 287.46 234.42 286.89 235.39 286.31C236.36 285.73 237.32 285.13 238.27 284.53C239.22 283.93 240.17 283.31 241.11 282.68C242.05 282.05 242.98 281.42 243.9 280.77C244.82 280.12 245.75 279.46 246.66 278.77C247.57 278.08 248.47 277.42 249.37 276.77C250.27 276.12 251.15 275.39 252.03 274.68C252.91 273.97 253.78 273.25 254.64 272.52C255.5 271.79 256.36 271.06 257.21 270.31C258.06 269.56 258.89 268.81 259.72 268.04C260.55 267.27 261.37 266.5 262.18 265.72C262.99 264.94 263.8 264.14 264.59 263.33C265.38 262.52 266.17 261.72 266.95 260.9C267.73 260.08 268.49 259.25 269.24 258.41C269.99 257.57 270.75 256.73 271.49 255.87C272.23 255.01 272.95 254.15 273.67 253.28C274.39 252.41 275.09 251.53 275.79 250.64C276.49 249.75 277.18 248.86 277.86 247.96C278.54 247.06 279.2 246.15 279.86 245.23C280.52 244.31 281.17 243.39 281.8 242.45C282.43 241.51 283.06 240.58 283.68 239.63C284.3 238.68 284.9 237.73 285.49 236.77C286.08 235.81 286.67 234.85 287.24 233.87C287.81 232.89 288.37 231.87 288.92 230.93C289.47 229.99 290.01 228.93 290.54 227.93C291.07 226.93 291.54 225.93 292.09 224.93C292.64 223.93 293.09 222.93 293.57 221.93C294.05 220.93 294.52 219.88 294.98 218.85C295.44 217.82 295.88 216.78 296.32 215.74C296.76 214.7 297.18 213.65 297.59 212.6C298 211.55 298.4 210.49 298.78 209.43C299.16 208.37 299.55 207.3 299.91 206.24C300.27 205.18 300.62 204.09 300.97 203.02C301.32 201.95 301.63 200.86 301.97 199.77C302.31 198.68 302.58 197.6 302.87 196.51C303.16 195.42 303.44 194.33 303.71 193.23C303.98 192.13 304.22 191.03 304.47 189.93C304.72 188.83 304.93 187.72 305.15 186.61C305.37 185.5 305.57 184.39 305.76 183.28C305.95 182.17 306.13 181.05 306.29 179.93C306.45 178.81 306.61 177.7 306.75 176.58C306.89 175.46 307.02 174.34 307.13 173.21C307.24 172.08 307.35 170.96 307.44 169.84C307.53 168.72 307.6 167.59 307.67 166.46C307.74 165.33 307.78 164.2 307.82 163.08C307.86 161.96 307.88 160.82 307.9 159.69C307.92 158.56 307.9 157.43 307.9 156.3C307.9 155.17 307.9 154.05 307.82 152.92C307.74 151.79 307.73 150.66 307.67 149.54C307.61 148.42 307.53 147.28 307.44 146.16C307.35 145.04 307.25 143.91 307.13 142.78C307.01 141.65 306.89 140.54 306.75 139.42C306.61 138.3 306.46 137.18 306.29 136.06C306.12 134.94 305.95 133.83 305.76 132.72C305.57 131.61 305.37 130.49 305.15 129.39C304.93 128.29 304.71 127.17 304.47 126.07C304.23 124.97 303.97 123.87 303.71 122.77C303.45 121.67 303.16 120.58 302.87 119.48C302.58 118.38 302.28 117.31 301.97 116.22C301.66 115.13 301.32 114.06 300.97 112.98C300.62 111.9 300.28 110.83 299.91 109.76C299.54 108.69 299.17 107.63 298.79 106.57C298.41 105.51 298 104.45 297.59 103.4C297.18 102.35 296.75 101.3 296.32 100.26C295.89 99.22 295.44 98.18 294.98 97.15C294.52 96.12 294 95.06 293.5 94C293 92.94 292.5 92 292.02 90.95C291.54 89.9 291.02 88.95 290.47 87.95C289.92 86.95 289.4 85.95 288.85 84.95C288.3 83.95 287.74 82.95 287.17 82.01C286.6 81.07 286.02 80.07 285.42 79.11C284.82 78.15 284.23 77.2 283.61 76.25C282.99 75.3 282.37 74.37 281.73 73.43C281.09 72.49 280.45 71.57 279.79 70.66C279.13 69.75 278.47 68.83 277.79 67.93C277.11 67.03 276.42 66.13 275.72 65.24C275.02 64.35 274.32 63.47 273.6 62.6C272.88 61.73 272.15 60.87 271.42 60.01C270.69 59.15 269.93 58.31 269.17 57.47C268.41 56.63 267.65 55.81 266.88 54.99C266.11 54.17 265.32 53.35 264.52 52.55C263.72 51.75 262.93 50.95 262.11 50.17C261.29 49.39 260.48 48.61 259.65 47.84L257.14 45.57C256.29 44.83 255.44 44.09 254.57 43.36C253.7 42.63 252.84 42 252 41.26C251.16 40.52 250.23 39.85 249.34 39.16C248.45 38.47 247.54 37.79 246.63 37.16C245.72 36.53 244.8 35.83 243.88 35.16C242.96 34.49 242.02 33.88 241.08 33.26C240.14 32.64 239.15 32 238.2 31.4C237.25 30.8 236.29 30.2 235.32 29.62C234.35 29.04 233.38 28.46 232.4 27.9C231.42 27.34 230.4 26.79 229.4 26.25L226.4 24.67C225.4 24.16 224.4 23.67 223.4 23.16C222.4 22.65 221.4 22.16 220.33 21.71C219.26 21.26 218.27 20.78 217.24 20.34C216.21 19.9 215.16 19.46 214.11 19.03C213.06 18.6 212 18.2 211 17.8C210 17.4 208.88 17.01 207.82 16.64C206.76 16.27 205.68 15.9 204.61 15.55C203.54 15.2 202.46 14.86 201.38 14.55C200.3 14.24 199.21 13.91 198.13 13.6C197.05 13.29 195.95 13.01 194.85 12.73C193.75 12.45 192.66 12.19 191.56 11.94C190.46 11.69 189.36 11.44 188.25 11.22C187.14 11 186.04 10.77 184.93 10.57C183.82 10.37 182.7 10.17 181.59 10C180.48 9.83002 179.35 9.65002 178.24 9.50002L174.88 9.08002C173.75 8.95002 172.63 8.84002 171.51 8.74002C170.39 8.64002 169.26 8.55002 168.13 8.47002C167 8.39002 165.88 8.33002 164.75 8.28002L161.36 8.16002C160.21 8.12002 159.09 8.11002 158 8.11002Z" fill="white"/>
<path d="M97.49 75.5H244.89V262.74H97.49V75.5Z" fill="#C4C4C4"/>
<path d="M244.89 263H97.49C97.4237 263 97.3601 262.974 97.3132 262.927C97.2663 262.88 97.24 262.816 97.24 262.75V75.5C97.24 75.4337 97.2663 75.3701 97.3132 75.3232C97.3601 75.2763 97.4237 75.25 97.49 75.25H244.89C244.924 75.2505 244.957 75.2578 244.988 75.2715C245.019 75.2853 245.047 75.3052 245.07 75.33C245.113 75.3763 245.138 75.4367 245.14 75.5V262.74C245.141 262.774 245.136 262.807 245.124 262.839C245.112 262.87 245.094 262.899 245.07 262.923C245.047 262.948 245.019 262.967 244.988 262.98C244.957 262.993 244.924 263 244.89 263ZM97.74 262.5H244.64V75.75H97.74V262.5Z" fill="#C4C4C4"/>
<path d="M245.22 267.66H97.37C96.7787 267.661 96.1929 267.546 95.6464 267.32C95.0998 267.094 94.6032 266.763 94.1851 266.345C93.767 265.927 93.4355 265.43 93.2099 264.884C92.9842 264.337 92.8687 263.751 92.87 263.16V75.2901C92.8687 74.6987 92.9842 74.113 93.2099 73.5664C93.4355 73.0199 93.767 72.5233 94.1851 72.1051C94.6032 71.687 95.0998 71.3556 95.6464 71.1299C96.1929 70.9042 96.7787 70.7887 97.37 70.7901H245.22C245.811 70.7887 246.397 70.9042 246.944 71.1299C247.49 71.3556 247.987 71.687 248.405 72.1051C248.823 72.5233 249.154 73.0199 249.38 73.5664C249.606 74.113 249.721 74.6987 249.72 75.2901V263.16C249.721 263.751 249.606 264.337 249.38 264.884C249.154 265.43 248.823 265.927 248.405 266.345C247.987 266.763 247.49 267.094 246.944 267.32C246.397 267.546 245.811 267.661 245.22 267.66ZM101.87 258.66H240.72V79.7901H101.87V258.66Z" fill="black"/>
<path d="M70.8 53H215.7V239.52H70.8V53Z" fill="white"/>
<path d="M215.7 239.77H70.8C70.7337 239.77 70.6701 239.744 70.6232 239.697C70.5763 239.65 70.55 239.586 70.55 239.52V53.0001C70.5525 52.9345 70.5796 52.8724 70.626 52.826C70.6723 52.7797 70.7345 52.7525 70.8 52.7501H215.7C215.737 52.7444 215.774 52.7465 215.809 52.7564C215.845 52.7662 215.878 52.7836 215.907 52.8072C215.935 52.8309 215.958 52.8603 215.974 52.8936C215.99 52.9268 215.999 52.9631 216 53.0001V239.52C216.001 239.558 215.993 239.595 215.978 239.629C215.962 239.663 215.939 239.693 215.91 239.717C215.881 239.741 215.847 239.758 215.811 239.768C215.775 239.777 215.737 239.778 215.7 239.77ZM71.05 239.27H215.45V53.2701H71.05V239.27Z" fill="white"/>
<path d="M216 244.45H70.69C69.4965 244.45 68.3519 243.976 67.508 243.132C66.6641 242.288 66.19 241.143 66.19 239.95V52.77C66.19 51.5765 66.6641 50.432 67.508 49.588C68.3519 48.7441 69.4965 48.27 70.69 48.27H216C217.193 48.2727 218.336 48.7476 219.179 49.591C220.022 50.4343 220.497 51.5774 220.5 52.77V240C220.484 241.184 220.004 242.314 219.162 243.147C218.32 243.979 217.184 244.447 216 244.45ZM75.16 235.45H211.53V57.27H75.19L75.16 235.45Z" fill="black"/>
<path d="M93.81 77.6899H195.37V111.39H93.81V77.6899Z" fill="url(#paint0_linear)"/>
<path d="M195.37 111.64H93.81C93.7437 111.64 93.6801 111.614 93.6332 111.567C93.5863 111.52 93.56 111.456 93.56 111.39V77.6899C93.56 77.6236 93.5863 77.56 93.6332 77.5132C93.6801 77.4663 93.7437 77.4399 93.81 77.4399H195.37C195.436 77.4399 195.5 77.4663 195.547 77.5132C195.594 77.56 195.62 77.6236 195.62 77.6899V111.39C195.62 111.456 195.594 111.52 195.547 111.567C195.5 111.614 195.436 111.64 195.37 111.64ZM94.06 111.14H195.12V77.9399H94.06V111.14Z" fill="url(#paint1_linear)"/>
<path d="M93.67 114.55C93.2745 114.551 92.8827 114.474 92.5171 114.323C92.1516 114.172 91.8195 113.95 91.54 113.67C90.9809 113.106 90.668 112.344 90.67 111.55V77.55C90.67 76.7544 90.9861 75.9913 91.5487 75.4287C92.1113 74.8661 92.8743 74.55 93.67 74.55H195.52C196.316 74.55 197.079 74.8661 197.641 75.4287C198.204 75.9913 198.52 76.7544 198.52 77.55V111.55C198.52 112.346 198.204 113.109 197.641 113.671C197.079 114.234 196.316 114.55 195.52 114.55H93.67ZM96.67 80.55V108.55H192.52V80.55H96.67Z" fill="black"/>
<path d="M195.31 139.35L94.18 139.16C93.3843 139.16 92.6213 138.844 92.0587 138.281C91.4961 137.719 91.18 136.956 91.18 136.16C91.18 135.364 91.4961 134.601 92.0587 134.039C92.6213 133.476 93.3843 133.16 94.18 133.16L195.31 133.35C196.106 133.35 196.869 133.666 197.431 134.229C197.994 134.791 198.31 135.554 198.31 136.35C198.31 137.146 197.994 137.909 197.431 138.471C196.869 139.034 196.106 139.35 195.31 139.35Z" fill="black"/>
<path d="M195.31 165.79L94.18 165.6C93.3843 165.6 92.6213 165.284 92.0587 164.721C91.4961 164.159 91.18 163.396 91.18 162.6C91.18 161.804 91.4961 161.041 92.0587 160.479C92.6213 159.916 93.3843 159.6 94.18 159.6L195.31 159.79C196.106 159.79 196.869 160.106 197.431 160.669C197.994 161.231 198.31 161.994 198.31 162.79C198.31 163.586 197.994 164.349 197.431 164.911C196.869 165.474 196.106 165.79 195.31 165.79Z" fill="black"/>
<path d="M195.15 190.68L94 190.5C93.2044 190.5 92.4413 190.184 91.8787 189.621C91.3161 189.059 91 188.296 91 187.5C91 186.704 91.3161 185.941 91.8787 185.379C92.4413 184.816 93.2044 184.5 94 184.5L195.13 184.68C195.926 184.68 196.689 184.996 197.251 185.559C197.814 186.121 198.13 186.884 198.13 187.68C198.13 188.476 197.814 189.239 197.251 189.801C196.689 190.364 195.926 190.68 195.13 190.68H195.15Z" fill="black"/>
<path d="M195.31 216.78L94.18 216.59C93.3843 216.59 92.6213 216.274 92.0587 215.711C91.4961 215.149 91.18 214.386 91.18 213.59C91.18 212.794 91.4961 212.031 92.0587 211.469C92.6213 210.906 93.3843 210.59 94.18 210.59L195.31 210.78C196.106 210.78 196.869 211.096 197.431 211.659C197.994 212.221 198.31 212.984 198.31 213.78C198.31 214.576 197.994 215.339 197.431 215.901C196.869 216.464 196.106 216.78 195.31 216.78Z" fill="black"/>
<path d="M157.83 312.34C156.67 312.34 155.51 312.34 154.35 312.34C153.19 312.34 152.02 312.28 150.86 312.22C149.7 312.16 148.54 312.11 147.38 312.03C146.22 311.95 145.06 311.86 143.91 311.75C142.76 311.64 141.59 311.53 140.44 311.4C139.29 311.27 138.13 311.12 136.98 310.96C135.83 310.8 134.68 310.64 133.53 310.45C132.38 310.26 131.24 310.08 130.1 309.87C128.96 309.66 127.81 309.43 126.67 309.2C125.53 308.97 124.4 308.72 123.27 308.46C122.14 308.2 121 307.92 119.88 307.63C118.76 307.34 117.63 307.05 116.51 306.74C115.39 306.43 114.28 306.1 113.16 305.74C112.04 305.38 110.94 305.05 109.84 304.69C108.74 304.33 107.64 303.95 106.54 303.56C105.44 303.17 104.35 302.78 103.27 302.37C102.19 301.96 101.1 301.53 100.02 301.1C98.94 300.67 97.87 300.21 96.8 299.75C95.73 299.29 94.67 298.82 93.62 298.34L90.46 296.85C89.46 296.34 88.38 295.85 87.35 295.29C86.32 294.73 85.28 294.21 84.26 293.66C83.24 293.11 82.26 292.54 81.26 291.96C80.26 291.38 79.26 290.79 78.26 290.19C77.26 289.59 76.26 288.98 75.26 288.36C74.26 287.74 73.26 287.1 72.33 286.46C71.4 285.82 70.41 285.16 69.46 284.46C68.51 283.76 67.56 283.11 66.62 282.46C65.68 281.81 64.75 281.07 63.83 280.36C62.91 279.65 62 278.93 61.09 278.2C60.18 277.47 59.29 276.73 58.4 275.98C57.51 275.23 56.64 274.48 55.77 273.71C54.9 272.94 54.03 272.16 53.18 271.37C52.33 270.58 51.48 269.78 50.64 268.97C49.8 268.16 48.98 267.35 48.17 266.52C47.36 265.69 46.54 264.85 45.74 264.01C44.94 263.17 44.16 262.31 43.38 261.45C42.6 260.59 41.83 259.71 41.07 258.83C40.31 257.95 39.56 257.06 38.82 256.17C38.08 255.28 37.35 254.36 36.64 253.44C35.93 252.52 35.21 251.61 34.51 250.68C33.81 249.75 33.13 248.81 32.45 247.87C31.77 246.93 31.11 245.97 30.45 245.01C29.79 244.05 29.16 243.08 28.52 242.11C27.88 241.14 27.26 240.11 26.65 239.16C26.04 238.21 25.44 237.16 24.85 236.16C24.26 235.16 23.69 234.16 23.12 233.16C22.55 232.16 22 231.16 21.46 230.1C20.92 229.04 20.38 228 19.86 227C19.34 226 18.86 224.92 18.34 223.86C17.82 222.8 17.34 221.75 16.88 220.69C16.42 219.63 15.95 218.56 15.5 217.49C15.05 216.42 14.62 215.34 14.2 214.25C13.78 213.16 13.36 212 13 211C12.64 210 12.21 208.81 11.84 207.71C11.47 206.61 11.1 205.5 10.75 204.39C10.4 203.28 10.07 202.17 9.75 201.05C9.43 199.93 9.12 198.82 8.82 197.69C8.52 196.56 8.23 195.44 7.96 194.31C7.69 193.18 7.43 192.05 7.18 190.91C6.93 189.77 6.7 188.64 6.48 187.5C6.26 186.36 6 185.16 5.81 184C5.62 182.84 5.43001 181.71 5.26001 180.56C5.09001 179.41 4.93 178.25 4.79 177.1C4.65 175.95 4.51 174.79 4.39 173.63C4.27 172.47 4.17 171.32 4.08 170.16C3.99 169 3.91 167.84 3.84 166.68C3.77 165.52 3.73 164.36 3.69 163.19C3.65 162.02 3.62 160.87 3.61 159.7C3.6 158.53 3.61 157.38 3.61 156.22C3.61 155.06 3.61 153.89 3.69 152.73C3.77 151.57 3.78 150.4 3.84 149.24C3.9 148.08 3.99 146.92 4.08 145.76C4.17 144.6 4.28 143.44 4.39 142.29C4.5 141.14 4.64 139.97 4.79 138.82C4.94 137.67 5.09001 136.52 5.26001 135.37C5.43001 134.22 5.61 133.06 5.81 131.92C6.01 130.78 6.21 129.63 6.43 128.49C6.65 127.35 6.89 126.21 7.14 125.07C7.39 123.93 7.65 122.8 7.92 121.67C8.19 120.54 8.48 119.41 8.78 118.29C9.08 117.17 9.39 116.04 9.71 114.92C10.03 113.8 10.37 112.69 10.71 111.58C11.05 110.47 11.42 109.37 11.8 108.27C12.18 107.17 12.56 106.07 12.96 104.98C13.36 103.89 13.76 102.8 14.19 101.72C14.62 100.64 15.05 99.56 15.49 98.48C15.93 97.4 16.4 96.34 16.87 95.28C17.34 94.22 17.87 93.16 18.33 92.11C18.79 91.06 19.33 90.01 19.85 88.97C20.37 87.93 20.9 86.89 21.44 85.87C21.98 84.85 22.54 83.81 23.1 82.8C23.66 81.79 24.25 80.8 24.83 79.8C25.41 78.8 26.02 77.8 26.63 76.8C27.24 75.8 27.87 74.8 28.5 73.86C29.13 72.92 29.78 71.91 30.43 70.95C31.08 69.99 31.75 69.04 32.43 68.09C33.11 67.14 33.79 66.21 34.49 65.28C35.19 64.35 35.9 63.43 36.62 62.51C37.34 61.59 38.06 60.69 38.8 59.8C39.54 58.91 40.3 58 41.06 57.12C41.82 56.24 42.59 55.37 43.37 54.5C44.15 53.63 44.94 52.79 45.73 51.94C46.52 51.09 47.34 50.26 48.15 49.43C48.96 48.6 49.8 47.79 50.63 47C51.46 46.21 52.31 45.39 53.17 44.6C54.03 43.81 54.88 43.03 55.76 42.26C56.64 41.49 57.51 40.71 58.4 40C59.29 39.29 60.18 38.51 61.08 37.79C61.98 37.07 62.9 36.34 63.82 35.63C64.74 34.92 65.67 34.22 66.61 33.53C67.55 32.84 68.49 32.17 69.44 31.53C70.39 30.89 71.36 30.21 72.32 29.53C73.28 28.85 74.26 28.26 75.25 27.63C76.24 27 77.25 26.4 78.25 25.8C79.25 25.2 80.25 24.61 81.25 24.03C82.25 23.45 83.25 22.89 84.25 22.33C85.25 21.77 86.25 21.23 87.33 20.7C88.41 20.17 89.41 19.65 90.45 19.14C91.49 18.63 92.55 18.14 93.61 17.65C94.67 17.16 95.72 16.7 96.79 16.24C97.86 15.78 98.93 15.33 100.01 14.89C101.09 14.45 102.17 14.03 103.25 13.62C104.33 13.21 105.43 12.81 106.53 12.42C107.63 12.03 108.72 11.66 109.83 11.3C110.94 10.94 112.04 10.59 113.15 10.3C114.26 10.01 115.38 9.64003 116.5 9.30003C117.62 8.96003 118.74 8.69003 119.87 8.40003C121 8.11003 122.13 7.84003 123.26 7.58003C124.39 7.32003 125.53 7.07003 126.67 6.84003C127.81 6.61003 128.94 6.38003 130.09 6.17003C131.24 5.96003 132.38 5.77003 133.52 5.59003C134.66 5.41003 135.82 5.23003 136.97 5.07003C138.12 4.91003 139.28 4.77003 140.43 4.64003C141.58 4.51003 142.74 4.39003 143.9 4.29003C145.06 4.19003 146.21 4.09003 147.37 4.01003C148.53 3.93003 149.69 3.87003 150.85 3.81003C152.01 3.75003 153.18 3.72003 154.34 3.70003C156.66 3.64003 158.993 3.64003 161.34 3.70003C162.5 3.70003 163.66 3.76003 164.82 3.81003C165.98 3.86003 167.14 3.93003 168.3 4.01003C169.46 4.09003 170.62 4.18003 171.78 4.29003C172.94 4.40003 174.09 4.51003 175.25 4.64003C176.41 4.77003 177.55 4.92003 178.7 5.07003C179.85 5.22003 181.01 5.40003 182.15 5.59003C183.29 5.78003 184.45 5.96003 185.59 6.17003C186.73 6.38003 187.87 6.61003 189.01 6.84003C190.15 7.07003 191.29 7.32003 192.42 7.58003C193.55 7.84003 194.68 8.12003 195.81 8.40003C196.94 8.68003 198.06 8.99003 199.17 9.30003C200.28 9.61003 201.41 9.94003 202.52 10.3C203.63 10.66 204.74 10.99 205.85 11.3C206.96 11.61 208.05 12.04 209.15 12.42C210.25 12.8 211.34 13.21 212.42 13.62C213.5 14.03 214.59 14.46 215.67 14.89C216.75 15.32 217.82 15.78 218.89 16.24C219.96 16.7 221.01 17.17 222.07 17.66C223.13 18.15 224.18 18.66 225.22 19.14C226.26 19.62 227.31 20.14 228.34 20.7C229.37 21.26 230.4 21.78 231.43 22.33C232.46 22.88 233.43 23.45 234.43 24.03C235.43 24.61 236.43 25.2 237.43 25.8C238.43 26.4 239.43 27.01 240.43 27.63C241.43 28.25 242.43 28.89 243.35 29.53C244.27 30.17 245.28 30.83 246.23 31.53C247.18 32.23 248.13 32.87 249.06 33.53C249.99 34.19 250.93 34.92 251.85 35.63C252.77 36.34 253.69 37.06 254.59 37.79C255.49 38.52 256.39 39.26 257.28 40.01C258.17 40.76 259.05 41.51 259.92 42.29C260.79 43.07 261.65 43.83 262.51 44.62C263.37 45.41 264.21 46.21 265.04 47.02C265.87 47.83 266.7 48.65 267.52 49.47C268.34 50.29 269.14 51.14 269.94 51.98C270.74 52.82 271.53 53.68 272.31 54.54C273.09 55.4 273.86 56.28 274.61 57.16C275.36 58.04 276.12 58.93 276.86 59.83C277.6 60.73 278.33 61.63 279.05 62.54C279.77 63.45 280.48 64.38 281.17 65.31C281.86 66.24 282.56 67.18 283.23 68.12C283.9 69.06 284.58 70.02 285.23 70.98C285.88 71.94 286.53 72.91 287.16 73.88C287.79 74.85 288.42 75.88 289.03 76.88C289.64 77.88 290.24 78.88 290.83 79.88C291.42 80.88 292 81.88 292.56 82.88C293.12 83.88 293.68 84.88 294.22 85.95C294.76 87.02 295.3 88.01 295.82 89.05C296.34 90.09 296.82 91.14 297.34 92.19C297.86 93.24 298.34 94.3 298.79 95.36C299.24 96.42 299.72 97.49 300.17 98.56C300.62 99.63 301.05 100.72 301.48 101.8C301.91 102.88 302.31 103.97 302.71 105.06C303.11 106.15 303.5 107.25 303.87 108.35C304.24 109.45 304.6 110.56 304.95 111.67C305.3 112.78 305.64 113.89 305.95 115.01C306.26 116.13 306.59 117.24 306.89 118.37C307.19 119.5 307.47 120.62 307.75 121.75C308.03 122.88 308.28 124.02 308.53 125.16C308.78 126.3 309.01 127.43 309.23 128.57C309.45 129.71 309.66 130.85 309.86 132C310.06 133.15 310.24 134.29 310.41 135.44C310.58 136.59 310.73 137.75 310.88 138.9C311.03 140.05 311.15 141.21 311.27 142.37C311.39 143.53 311.49 144.68 311.58 145.84C311.67 147 311.76 148.17 311.82 149.33C311.88 150.49 311.94 151.65 311.98 152.81C312.02 153.97 312.04 155.13 312.06 156.3C312.08 157.47 312.06 158.62 312.06 159.78C312.06 160.94 312.06 162.11 311.98 163.27C311.9 164.43 311.89 165.6 311.82 166.76C311.75 167.92 311.68 169.08 311.58 170.24C311.48 171.4 311.39 172.56 311.27 173.71C311.15 174.86 311.02 176.03 310.88 177.18C310.74 178.33 310.58 179.49 310.41 180.64C310.24 181.79 310.05 182.94 309.86 184.08C309.67 185.22 309.45 186.37 309.23 187.51C309.01 188.65 308.77 189.79 308.53 190.93C308.29 192.07 308.02 193.2 307.75 194.33C307.48 195.46 307.19 196.59 306.89 197.71C306.59 198.83 306.28 199.96 305.95 201.07C305.62 202.18 305.29 203.3 304.95 204.42C304.61 205.54 304.24 206.63 303.87 207.73C303.5 208.83 303.11 209.93 302.71 211.02C302.31 212.11 301.9 213.2 301.47 214.29C301.04 215.38 300.62 216.44 300.17 217.52C299.72 218.6 299.26 219.66 298.79 220.72C298.32 221.78 297.79 222.84 297.34 223.89C296.89 224.94 296.34 225.99 295.82 227.03C295.3 228.07 294.77 229.1 294.23 230.13C293.69 231.16 293.13 232.19 292.56 233.2C291.99 234.21 291.42 235.2 290.83 236.2C290.24 237.2 289.64 238.2 289.03 239.2C288.42 240.2 287.8 241.2 287.17 242.14C286.54 243.08 285.89 244.09 285.23 245.05C284.57 246.01 283.91 246.96 283.23 247.91C282.55 248.86 281.87 249.79 281.17 250.72C280.47 251.65 279.77 252.57 279.05 253.49C278.33 254.41 277.6 255.31 276.86 256.2C276.12 257.09 275.37 257.99 274.61 258.87C273.85 259.75 273.09 260.62 272.31 261.49C271.53 262.36 270.74 263.2 269.94 264.05C269.14 264.9 268.34 265.73 267.52 266.56C266.7 267.39 265.87 268.2 265.04 269.01C264.21 269.82 263.36 270.62 262.51 271.41C261.66 272.2 260.79 272.98 259.92 273.75C259.05 274.52 258.17 275.27 257.28 276.02C256.39 276.77 255.5 277.51 254.59 278.24C253.68 278.97 252.77 279.69 251.85 280.4C250.93 281.11 250 281.81 249.07 282.5L246.23 284.5C245.28 285.17 244.32 285.82 243.35 286.5C242.38 287.18 241.41 287.77 240.43 288.4C239.45 289.03 238.43 289.63 237.43 290.23C236.43 290.83 235.43 291.42 234.43 292C233.43 292.58 232.43 293.14 231.43 293.7C230.43 294.26 229.43 294.79 228.35 295.33C227.27 295.87 226.28 296.38 225.23 296.89C224.18 297.4 223.14 297.89 222.08 298.38C221.02 298.87 219.96 299.33 218.89 299.79C217.82 300.25 216.75 300.7 215.68 301.14C214.61 301.58 213.52 302 212.43 302.41C211.34 302.82 210.25 303.22 209.16 303.6C208.07 303.98 206.96 304.37 205.86 304.73L202.53 305.78C201.42 306.11 200.3 306.44 199.19 306.78C198.08 307.12 196.94 307.39 195.81 307.67C194.68 307.95 193.56 308.23 192.43 308.5C191.3 308.77 190.16 309 189.02 309.24C187.88 309.48 186.74 309.7 185.6 309.91C184.46 310.12 183.31 310.31 182.16 310.49C181.01 310.67 179.87 310.85 178.72 311C177.57 311.15 176.41 311.31 175.25 311.44C174.09 311.57 172.95 311.69 171.79 311.79C170.63 311.89 169.47 311.99 168.31 312.07C167.15 312.15 165.99 312.21 164.83 312.26C163.67 312.31 162.51 312.36 161.35 312.38C160.19 312.4 159 312.34 157.83 312.34ZM157.83 11.6C156.73 11.6 155.63 11.6 154.53 11.6C153.43 11.6 152.32 11.67 151.22 11.72L147.93 11.9C146.83 11.98 145.73 12.06 144.63 12.17C143.53 12.28 142.44 12.38 141.34 12.5C140.24 12.62 139.15 12.76 138.06 12.91C136.97 13.06 135.88 13.22 134.8 13.39C133.72 13.56 132.62 13.75 131.54 13.95C130.46 14.15 129.37 14.36 128.29 14.58C127.21 14.8 126.14 15.04 125.06 15.29C123.98 15.54 122.92 15.8 121.85 16.07C120.78 16.34 119.72 16.62 118.66 16.92C117.6 17.22 116.54 17.52 115.48 17.84C114.42 18.16 113.38 18.49 112.33 18.84C111.28 19.19 110.24 19.54 109.2 19.91C108.16 20.28 107.13 20.65 106.1 21.04C105.07 21.43 104.04 21.84 103.02 22.25C102 22.66 101.02 23.09 100.02 23.52C99.02 23.95 98.02 24.41 97.02 24.87C96.02 25.33 95.02 25.8 94.02 26.28C93.02 26.76 92.02 27.28 91.02 27.76C90.02 28.24 89.02 28.76 88.1 29.3C87.18 29.84 86.17 30.36 85.22 30.91C84.27 31.46 83.29 32 82.34 32.61C81.39 33.22 80.46 33.76 79.53 34.35C78.6 34.94 77.68 35.54 76.76 36.15C75.84 36.76 74.94 37.38 74 38C73.06 38.62 72.2 39.28 71.31 39.93C70.42 40.58 69.55 41.24 68.67 41.93C67.79 42.62 67 43.28 66.11 44C65.22 44.72 64.4 45.4 63.56 46.11C62.72 46.82 61.88 47.54 61.05 48.27C60.22 49 59.41 49.74 58.6 50.49C57.79 51.24 57 52 56.2 52.73C55.4 53.46 54.62 54.27 53.85 55.05C53.08 55.83 52.31 56.63 51.55 57.43C50.79 58.23 50 59 49.31 59.86C48.62 60.72 47.84 61.51 47.12 62.34C46.4 63.17 45.69 64 45 64.87C44.31 65.74 43.61 66.58 42.93 67.45C42.25 68.32 41.57 69.19 40.93 70.07C40.29 70.95 39.59 71.84 39 72.74C38.41 73.64 37.72 74.54 37.1 75.45C36.48 76.36 35.87 77.28 35.27 78.2C34.67 79.12 34 80.06 33.45 81C32.9 81.94 32.3 82.88 31.74 83.83C31.18 84.78 30.64 85.74 30.1 86.7C29.56 87.66 29 88.63 28.53 89.61C28.06 90.59 27.53 91.61 27.02 92.55C26.51 93.49 26.02 94.55 25.57 95.55C25.12 96.55 24.64 97.55 24.19 98.55C23.74 99.55 23.31 100.55 22.89 101.55C22.47 102.55 22.05 103.55 21.65 104.62C21.25 105.69 20.86 106.68 20.48 107.71C20.1 108.74 19.74 109.79 19.38 110.83C19.02 111.87 18.68 112.93 18.38 113.98C18.08 115.03 17.73 116.08 17.38 117.14C17.03 118.2 16.77 119.26 16.49 120.33C16.21 121.4 15.94 122.47 15.68 123.54C15.42 124.61 15.17 125.68 14.94 126.76C14.71 127.84 14.48 128.92 14.27 130C14.06 131.08 13.86 132.17 13.67 133.26C13.48 134.35 13.31 135.43 13.15 136.52C12.99 137.61 12.84 138.71 12.71 139.8C12.58 140.89 12.44 141.99 12.33 143.09C12.22 144.19 12.12 145.28 12.03 146.38C11.94 147.48 11.87 148.58 11.81 149.68C11.75 150.78 11.7 151.89 11.66 152.99C11.62 154.09 11.6 155.19 11.59 156.3C11.58 157.41 11.59 158.5 11.59 159.6C11.59 160.7 11.59 161.81 11.66 162.91C11.73 164.01 11.75 165.11 11.81 166.22C11.87 167.33 11.95 168.42 12.04 169.52C12.13 170.62 12.22 171.72 12.33 172.81C12.44 173.9 12.57 175 12.71 176.1C12.85 177.2 12.99 178.29 13.15 179.38C13.31 180.47 13.49 181.56 13.67 182.64C13.85 183.72 14.06 184.82 14.27 185.9C14.48 186.98 14.7 188.06 14.94 189.14C15.18 190.22 15.42 191.29 15.68 192.36C15.94 193.43 16.21 194.5 16.49 195.57C16.77 196.64 17.07 197.7 17.38 198.76C17.69 199.82 18 200.87 18.38 201.92C18.76 202.97 19.06 204.02 19.38 205.06C19.7 206.1 20.1 207.15 20.48 208.18C20.86 209.21 21.25 210.25 21.65 211.28C22.05 212.31 22.46 213.28 22.89 214.35C23.32 215.42 23.75 216.35 24.2 217.35C24.65 218.35 25.1 219.35 25.57 220.35C26.04 221.35 26.52 222.35 27.02 223.35C27.52 224.35 28.02 225.35 28.53 226.29C29.04 227.23 29.53 228.24 30.1 229.2C30.67 230.16 31.19 231.12 31.75 232.07C32.31 233.02 32.87 233.97 33.45 234.9C34.03 235.83 34.62 236.77 35.22 237.7C35.82 238.63 36.43 239.54 37.05 240.45C37.67 241.36 38.31 242.27 38.95 243.16C39.59 244.05 40.24 244.95 40.9 245.83C41.56 246.71 42.23 247.59 42.9 248.45C43.57 249.31 44.27 250.18 44.97 251.03C45.67 251.88 46.38 252.72 47.1 253.56C47.82 254.4 48.55 255.22 49.29 256.04C50.03 256.86 50.77 257.67 51.53 258.47C52.29 259.27 53.05 260.06 53.83 260.85C54.61 261.64 55.39 262.4 56.18 263.17C56.97 263.94 57.77 264.7 58.58 265.44C59.39 266.18 60.21 266.93 61.03 267.66C61.85 268.39 62.69 269.11 63.53 269.82L66.1 272C66.96 272.69 67.83 273.37 68.7 274C69.57 274.63 70.46 275.34 71.35 276C72.24 276.66 73.13 277.29 74.03 277.92C74.93 278.55 75.85 279.18 76.76 279.79C77.67 280.4 78.6 281 79.54 281.59C80.48 282.18 81.4 282.76 82.34 283.33L85.19 285C86.19 285.54 87.11 286.08 88.08 286.61L91 288.17C92 288.67 93 289.17 93.95 289.64C94.9 290.11 95.95 290.59 96.95 291.05C97.95 291.51 98.95 291.96 99.95 292.4C100.95 292.84 101.95 293.26 102.95 293.67C103.95 294.08 104.95 294.49 106.03 294.88L109.13 296.01C110.13 296.38 111.21 296.73 112.26 297.07C113.31 297.41 114.36 297.75 115.41 298.07C116.46 298.39 117.53 298.7 118.59 298.99C119.65 299.28 120.71 299.57 121.78 299.84C122.85 300.11 123.92 300.37 125 300.62C126.08 300.87 127.14 301.1 128.22 301.32C129.3 301.54 130.38 301.76 131.47 301.96C132.56 302.16 133.63 302.34 134.72 302.51C135.81 302.68 136.9 302.85 137.99 303C139.08 303.15 140.18 303.28 141.27 303.41L144.56 303.74C145.66 303.84 146.75 303.93 147.85 304.01L151.16 304.19C152.25 304.24 153.36 304.28 154.46 304.3C156.66 304.35 158.87 304.35 161.07 304.3C162.17 304.3 163.27 304.24 164.37 304.19L167.67 304.01C168.77 303.93 169.87 303.84 170.96 303.74C172.05 303.64 173.15 303.53 174.25 303.41C175.35 303.29 176.44 303.15 177.53 303C178.62 302.85 179.71 302.69 180.8 302.51C181.89 302.33 182.97 302.15 184.06 301.96C185.15 301.77 186.22 301.55 187.31 301.32C188.4 301.09 189.46 300.87 190.53 300.62C191.6 300.37 192.67 300.11 193.74 299.84C194.81 299.57 195.88 299.29 196.94 298.99C198 298.69 199.06 298.39 200.11 298.07C201.16 297.75 202.22 297.42 203.26 297.07C204.3 296.72 205.35 296.37 206.39 296L209.5 294.87C210.5 294.48 211.55 294.07 212.58 293.66C213.61 293.25 214.58 292.82 215.58 292.39C216.58 291.96 217.58 291.5 218.58 291.04C219.58 290.58 220.58 290.11 221.58 289.63C222.58 289.15 223.58 288.63 224.58 288.15C225.58 287.67 226.52 287.15 227.49 286.61C228.46 286.07 229.43 285.54 230.38 285C231.33 284.46 232.29 283.89 233.23 283.32C234.17 282.75 235.11 282.17 236.04 281.58C236.97 280.99 237.89 280.39 238.81 279.78C239.73 279.17 240.64 278.55 241.54 277.91C242.44 277.27 243.34 276.64 244.23 275.99C245.12 275.34 246 274.67 246.87 273.99C247.74 273.31 248.61 272.64 249.47 271.99C250.33 271.34 251.18 270.59 252.02 269.88C252.86 269.17 253.7 268.45 254.52 267.72C255.34 266.99 256.17 266.25 256.97 265.5C257.77 264.75 258.58 264 259.37 263.23C260.16 262.46 260.95 261.69 261.73 260.9C262.51 260.11 263.27 259.33 264.02 258.53C264.77 257.73 265.53 256.91 266.27 256.1C267.01 255.29 267.73 254.45 268.45 253.62C269.17 252.79 269.88 251.94 270.59 251.09C271.3 250.24 271.98 249.38 272.66 248.51C273.34 247.64 274.01 246.77 274.66 245.89C275.31 245.01 275.98 244.12 276.66 243.22C277.34 242.32 277.93 241.42 278.55 240.51C279.17 239.6 279.78 238.68 280.39 237.75C281 236.82 281.57 235.9 282.15 234.96C282.73 234.02 283.3 233.08 283.86 232.13C284.42 231.18 284.97 230.22 285.5 229.26C286.03 228.3 286.56 227.32 287.08 226.35C287.6 225.38 288.08 224.35 288.59 223.41C289.1 222.47 289.59 221.41 290.03 220.41C290.47 219.41 290.96 218.41 291.41 217.41C291.86 216.41 292.29 215.41 292.72 214.41C293.15 213.41 293.55 212.41 293.95 211.34C294.35 210.27 294.75 209.28 295.12 208.25C295.49 207.22 295.87 206.17 296.22 205.13C296.57 204.09 296.92 203.03 297.22 201.98C297.52 200.93 297.87 199.87 298.22 198.82C298.57 197.77 298.82 196.69 299.1 195.63C299.38 194.57 299.66 193.49 299.92 192.42C300.18 191.35 300.42 190.28 300.66 189.2C300.9 188.12 301.12 187.04 301.33 185.96C301.54 184.88 301.73 183.79 301.92 182.71C302.11 181.63 302.28 180.53 302.44 179.44C302.6 178.35 302.75 177.26 302.89 176.16C303.03 175.06 303.15 173.97 303.26 172.87C303.37 171.77 303.47 170.67 303.56 169.58C303.65 168.49 303.72 167.38 303.78 166.28C303.84 165.18 303.9 164.07 303.93 162.97C303.96 161.87 304 160.77 304.01 159.66C304.02 158.55 304.01 157.46 304.01 156.36C304.01 155.26 304.01 154.15 303.93 153.05C303.85 151.95 303.85 150.85 303.78 149.75C303.71 148.65 303.65 147.54 303.56 146.44C303.47 145.34 303.37 144.25 303.26 143.15C303.15 142.05 303.03 140.96 302.89 139.86C302.75 138.76 302.6 137.68 302.44 136.59C302.28 135.5 302.11 134.41 301.92 133.32C301.73 132.23 301.54 131.15 301.33 130.06C301.12 128.97 300.89 127.9 300.66 126.82C300.43 125.74 300.18 124.67 299.92 123.6C299.66 122.53 299.39 121.46 299.11 120.39C298.83 119.32 298.53 118.27 298.22 117.21C297.91 116.15 297.59 115.09 297.22 114.04C296.85 112.99 296.55 111.94 296.22 110.9C295.89 109.86 295.5 108.81 295.13 107.77C294.76 106.73 294.36 105.71 293.96 104.68C293.56 103.65 293.14 102.68 292.72 101.61C292.3 100.54 291.86 99.61 291.41 98.61C290.96 97.61 290.5 96.61 290.03 95.61C289.56 94.61 289.08 93.61 288.59 92.61C288.1 91.61 287.59 90.61 287.08 89.67C286.57 88.73 286.08 87.73 285.5 86.76C284.92 85.79 284.42 84.84 283.86 83.89C283.3 82.94 282.73 82 282.16 81.06L280.39 78.26C279.79 77.34 279.18 76.42 278.55 75.51C277.92 74.6 277.3 73.69 276.66 72.8C276.02 71.91 275.37 71.01 274.66 70.13C273.95 69.25 273.33 68.38 272.66 67.51C271.99 66.64 271.29 65.78 270.59 64.93C269.89 64.08 269.18 63.24 268.45 62.4C267.72 61.56 267.01 60.74 266.27 59.92L264.03 57.49C263.27 56.69 262.5 55.9 261.73 55.12C260.96 54.34 260.17 53.56 259.38 52.79C258.59 52.02 257.78 51.26 256.98 50.52C256.18 49.78 255.35 49.03 254.52 48.3C253.69 47.57 252.86 46.85 252.02 46.14C251.18 45.43 250.33 44.73 249.47 44.04C248.61 43.35 247.75 42.66 246.87 42.04C245.99 41.42 245.12 40.7 244.23 40.04C243.34 39.38 242.45 38.75 241.54 38.12C240.63 37.49 239.73 36.86 238.82 36.25C237.91 35.64 236.97 35.04 236.04 34.45C235.11 33.86 234.17 33.28 233.23 32.71C232.29 32.14 231.34 31.58 230.38 31.03C229.42 30.48 228.46 29.95 227.5 29.42C226.54 28.89 225.5 28.42 224.57 27.88C223.64 27.34 222.57 26.88 221.57 26.4C220.57 25.92 219.57 25.45 218.57 24.99C217.57 24.53 216.57 24.08 215.57 23.64C214.57 23.2 213.57 22.78 212.57 22.37C211.57 21.96 210.52 21.55 209.49 21.16C208.46 20.77 207.42 20.4 206.38 20.03C205.34 19.66 204.3 19.31 203.26 18.96C202.22 18.61 201.16 18.29 200.1 17.96C199.04 17.63 197.99 17.33 196.93 17.04C195.87 16.75 194.8 16.46 193.73 16.19C192.66 15.92 191.6 15.66 190.52 15.41C189.44 15.16 188.37 14.93 187.29 14.7C186.21 14.47 185.13 14.27 184.05 14.07C182.97 13.87 181.88 13.69 180.79 13.51L177.52 13.03C176.43 12.88 175.34 12.75 174.24 12.62C173.14 12.49 172.05 12.38 170.96 12.29L167.66 12.02L164.36 11.84C163.26 11.7867 162.16 11.7467 161.06 11.72C160 11.61 158.94 11.6 157.83 11.6Z" fill="url(#paint2_linear)"/>
<defs>
<linearGradient id="paint0_linear" x1="144.59" y1="77.6899" x2="144.59" y2="111.39" gradientUnits="userSpaceOnUse">
<stop stop-color="#E4BBFA"/>
<stop offset="1" stop-color="#A7D3FF"/>
</linearGradient>
<linearGradient id="paint1_linear" x1="144.59" y1="77.4399" x2="144.59" y2="111.64" gradientUnits="userSpaceOnUse">
<stop stop-color="#E4BBFA"/>
<stop offset="1" stop-color="#A7D3FF"/>
</linearGradient>
<linearGradient id="paint2_linear" x1="157.837" y1="3.65503" x2="157.837" y2="312.384" gradientUnits="userSpaceOnUse">
<stop stop-color="#E4BBFA"/>
<stop offset="1" stop-color="#A7D3FF"/>
</linearGradient>
</defs>
</svg>
