<svg width="20" height="5" viewBox="0 0 20 5" fill="none" xmlns="http://www.w3.org/2000/svg">
<path d="M2.65234 0.167969C3.27734 0.167969 3.79688 0.355469 4.21094 0.730469C4.625 1.09766 4.83203 1.57031 4.83203 2.14844C4.83203 2.72656 4.625 3.20312 4.21094 3.57812C3.79688 3.94531 3.27734 4.12891 2.65234 4.12891C2.01953 4.12891 1.49609 3.94141 1.08203 3.56641C0.675781 3.19141 0.472656 2.71875 0.472656 2.14844C0.472656 1.57812 0.675781 1.10547 1.08203 0.730469C1.49609 0.355469 2.01953 0.167969 2.65234 0.167969ZM9.91797 0.167969C10.543 0.167969 11.0625 0.355469 11.4766 0.730469C11.8906 1.09766 12.0977 1.57031 12.0977 2.14844C12.0977 2.72656 11.8906 3.20312 11.4766 3.57812C11.0625 3.94531 10.543 4.12891 9.91797 4.12891C9.28516 4.12891 8.76172 3.94141 8.34766 3.56641C7.94141 3.19141 7.73828 2.71875 7.73828 2.14844C7.73828 1.57812 7.94141 1.10547 8.34766 0.730469C8.76172 0.355469 9.28516 0.167969 9.91797 0.167969ZM17.1836 0.167969C17.8086 0.167969 18.3281 0.355469 18.7422 0.730469C19.1562 1.09766 19.3633 1.57031 19.3633 2.14844C19.3633 2.72656 19.1562 3.20312 18.7422 3.57812C18.3281 3.94531 17.8086 4.12891 17.1836 4.12891C16.5508 4.12891 16.0273 3.94141 15.6133 3.56641C15.207 3.19141 15.0039 2.71875 15.0039 2.14844C15.0039 1.57812 15.207 1.10547 15.6133 0.730469C16.0273 0.355469 16.5508 0.167969 17.1836 0.167969Z" fill="url(#paint0_linear)"/>
<defs>
<linearGradient id="paint0_linear" x1="10" y1="-18" x2="10" y2="25.0667" gradientUnits="userSpaceOnUse">
<stop/>
<stop offset="1"/>
</linearGradient>
</defs>
</svg>
