<svg width="128" height="95" viewBox="0 0 128 95" fill="none" xmlns="http://www.w3.org/2000/svg">
<path d="M93.2678 46.738C93.2678 47.0832 93.2678 47.4269 93.2678 47.7691C93.2678 48.1173 93.2678 48.461 93.2449 48.8093C93.222 49.1576 93.2174 49.4967 93.1945 49.8404C93.1716 50.1841 93.1532 50.5323 93.1257 50.876C93.0983 51.2197 93.0662 51.5634 93.0341 51.9071C93.002 52.2508 92.9608 52.5945 92.9149 52.9381C92.8691 53.2818 92.8279 53.6209 92.7775 53.9646C92.7271 54.3083 92.6721 54.6474 92.6125 54.9865C92.5529 55.3256 92.4934 55.6647 92.4246 56.0038C92.3559 56.343 92.2917 56.6821 92.2184 57.0212C92.1451 57.3603 92.0672 57.6948 91.9847 58.0293C91.9022 58.3638 91.8197 58.7029 91.7281 59.0329C91.6364 59.3628 91.5494 59.7019 91.4531 60.0319C91.3569 60.3618 91.2561 60.6963 91.1507 61.0263C91.0453 61.3562 90.9399 61.6816 90.8299 62.0069C90.7199 62.3323 90.6054 62.6622 90.4862 62.9876C90.3671 63.313 90.2433 63.6337 90.1196 63.9545C89.9959 64.2753 89.863 64.5961 89.7301 64.9168C89.5972 65.2376 89.4597 65.5492 89.3223 65.8654C89.1848 66.1816 89.0381 66.4978 88.8915 66.8094L88.4333 67.7259C88.2774 68.0375 88.1216 68.3446 87.975 68.6424C87.8284 68.9403 87.6496 69.2519 87.4847 69.5589C87.3197 69.866 87.141 70.1592 86.9668 70.4754C86.7927 70.7916 86.614 71.0712 86.4353 71.3644C86.2566 71.6577 86.0687 71.951 85.8808 72.2397C85.6929 72.5284 85.5004 72.8171 85.3034 73.1012C85.1063 73.3853 84.9139 73.6694 84.7122 73.949C84.5106 74.2285 84.3044 74.508 84.0982 74.7876C83.892 75.0671 83.6812 75.3375 83.4658 75.6078C83.2504 75.8782 83.035 76.1486 82.8151 76.4144C82.5951 76.6801 82.3568 76.9459 82.146 77.2071C81.9352 77.4683 81.6878 77.725 81.4632 77.9816C81.2387 78.2382 81.005 78.4948 80.7575 78.7423C80.5101 78.9897 80.2993 79.2418 80.0381 79.4892C79.7769 79.7367 79.5523 79.9796 79.3049 80.2178C79.0574 80.4561 78.8054 80.6761 78.5488 80.9281C78.2922 81.1802 78.0401 81.3864 77.7789 81.6247C77.5177 81.863 77.2611 82.0829 76.9953 82.2983C76.7295 82.5137 76.4637 82.7566 76.1979 82.9582C75.9322 83.1598 75.6572 83.3889 75.3823 83.5997L74.5391 84.2184L73.7005 84.8233L72.8481 85.4053C72.5594 85.5977 72.2707 85.7856 71.9774 85.9689C71.6842 86.1522 71.3909 86.3355 71.0976 86.5142L70.204 87.0412C69.9062 87.2108 69.6037 87.3803 69.2875 87.5453C68.9713 87.7103 68.6826 87.8706 68.371 88.0265C68.0594 88.1823 67.7524 88.3381 67.4545 88.4847L66.538 88.9429L65.5894 89.3645L64.6363 89.7632L63.6694 90.139C63.3486 90.2627 63.0232 90.3819 62.6979 90.4964C62.3725 90.611 62.0426 90.721 61.7172 90.8264C61.3918 90.9318 61.0573 91.0417 60.7274 91.138C60.3974 91.2342 60.0629 91.335 59.733 91.4267C59.403 91.5183 59.0639 91.61 58.7294 91.6925L57.7258 91.9399C57.3867 92.0178 57.0522 92.0911 56.7131 92.1599L55.6958 92.3569C55.3567 92.4211 55.013 92.4761 54.6739 92.5311C54.3348 92.5861 53.9911 92.6365 53.6474 92.6823C53.3037 92.7281 52.9646 92.7739 52.6209 92.8106C52.2772 92.8473 51.9335 92.8839 51.5899 92.916C51.2462 92.9481 50.9025 92.9756 50.5588 92.9985L49.5231 93.058L48.4875 93.0947H47.4518H46.4162L45.3806 93.058L44.3449 92.9985C44.0027 92.9771 43.6591 92.9496 43.3138 92.916C42.9701 92.8839 42.6265 92.8518 42.2828 92.8106C41.9391 92.7693 41.5954 92.7281 41.2517 92.6823C40.908 92.6365 40.5689 92.5861 40.2298 92.5311C39.8907 92.4761 39.547 92.4211 39.2079 92.3569L38.1906 92.1599C37.8515 92.0911 37.517 92.0178 37.1779 91.9399C36.8387 91.862 36.5042 91.7795 36.1697 91.6925C35.8352 91.6054 35.5007 91.5229 35.1707 91.4267C34.8408 91.3304 34.5062 91.2388 34.1763 91.138C33.8464 91.0372 33.5164 90.9363 33.1865 90.8264C32.8565 90.7164 32.5312 90.611 32.2058 90.4964C31.8805 90.3819 31.5551 90.2627 31.2343 90.139L30.2308 89.7541L29.273 89.3554L28.329 88.9338L27.4125 88.4755C27.1055 88.3243 26.7939 88.1731 26.496 88.0173C26.1982 87.8615 25.882 87.7011 25.5795 87.5361L24.663 87.032C24.3606 86.8579 24.0627 86.6838 23.7465 86.5051C23.4303 86.3263 23.1554 86.1476 22.8621 85.9597L21.996 85.3961L21.1391 84.8141L20.3142 84.2184C20.0393 84.0122 19.7597 83.806 19.4894 83.5952C19.219 83.3844 18.944 83.1736 18.6737 82.9536C18.4033 82.7337 18.1375 82.4954 17.8717 82.2937L17.0881 81.6201L16.3183 80.9236L15.5667 80.2133C15.3193 79.975 15.0718 79.755 14.8289 79.4846C14.5861 79.2143 14.3707 78.9897 14.1095 78.7377C13.8483 78.4857 13.6512 78.2336 13.4084 77.977C13.1655 77.7204 12.9501 77.4638 12.721 77.2026C12.4919 76.9414 12.2627 76.6756 12.0519 76.4098C11.8411 76.144 11.6166 75.8736 11.4058 75.6033C11.195 75.3329 10.9842 75.0534 10.7734 74.783C10.5626 74.5126 10.361 74.2285 10.1594 73.9444C9.95773 73.6603 9.76068 73.3807 9.56363 73.0966C9.36658 72.8125 9.1787 72.5238 8.99082 72.2351C8.80293 71.9464 8.61963 71.6531 8.43633 71.3599C8.25303 71.0666 8.0789 70.7687 7.90018 70.4708C7.72146 70.173 7.55649 69.8751 7.38694 69.5543C7.21739 69.2336 7.05241 68.9494 6.89203 68.6378C6.73164 68.3262 6.57583 68.0284 6.43378 67.7213C6.29172 67.4143 6.12675 67.1027 5.97552 66.8048C5.8243 66.507 5.68683 66.177 5.54477 65.8608C5.40271 65.5446 5.26982 65.2284 5.13692 64.9123C5.00403 64.5961 4.87114 64.2707 4.74741 63.9499C4.62368 63.6292 4.49996 63.3038 4.38081 62.983C4.26166 62.6622 4.1471 62.3323 4.03712 62.0024C3.92714 61.6724 3.81716 61.3516 3.71176 61.0217C3.60637 60.6918 3.51013 60.3618 3.4139 60.0273C3.31767 59.6928 3.22602 59.3628 3.13437 59.0283C3.04272 58.6938 2.96023 58.3638 2.88233 58.0247C2.80443 57.6856 2.72194 57.3557 2.64862 57.0166C2.5753 56.6775 2.50656 56.3384 2.43783 55.9993C2.36909 55.6602 2.30951 55.3211 2.25452 54.9819C2.19953 54.6428 2.13996 54.2992 2.08955 53.96C2.03915 53.6209 1.99332 53.2773 1.9475 52.9336C1.90167 52.5899 1.86959 52.2462 1.83293 51.9025C1.79627 51.5588 1.7642 51.2151 1.7367 50.8714C1.70921 50.5277 1.68629 50.1841 1.66796 49.8358C1.64963 49.4875 1.63589 49.1484 1.62214 48.8047C1.60839 48.461 1.62214 48.1128 1.62214 47.7691C1.62214 47.4254 1.62214 47.0771 1.62214 46.7288C1.62214 46.3806 1.62214 46.0415 1.62214 45.6932C1.62214 45.3449 1.64963 45.0058 1.66796 44.6621C1.68629 44.3184 1.71379 43.9702 1.7367 43.6265C1.75961 43.2828 1.79627 42.9391 1.83293 42.5954C1.86959 42.2517 1.90625 41.908 1.9475 41.5644C1.98874 41.2207 2.03915 40.8816 2.08955 40.5379C2.13996 40.1942 2.19495 39.8551 2.25452 39.516C2.3141 39.1769 2.37367 38.8332 2.43783 38.4941C2.50198 38.155 2.5753 37.8204 2.64862 37.4813C2.72194 37.1422 2.79984 36.8077 2.88233 36.4732C2.96481 36.1387 3.0473 35.7996 3.13437 35.4696C3.22143 35.1397 3.31767 34.8006 3.4139 34.4706C3.51013 34.1407 3.61095 33.8062 3.71176 33.4762C3.81258 33.1463 3.92256 32.8209 4.03712 32.491C4.15168 32.161 4.26166 31.8403 4.38081 31.5149C4.49996 31.1895 4.6191 30.8688 4.74741 30.548C4.87572 30.2272 5.00403 29.9064 5.13692 29.5857C5.26982 29.2649 5.40271 28.9487 5.54477 28.6371C5.68683 28.3255 5.82888 28.0047 5.97552 27.6931C6.12217 27.3815 6.27339 27.0699 6.43378 26.7766C6.59416 26.4833 6.74539 26.1579 6.89203 25.8601C7.03867 25.5622 7.21739 25.2552 7.38694 24.9436C7.55649 24.632 7.72604 24.3387 7.90018 24.0271C8.07432 23.7155 8.25303 23.4314 8.43633 23.1381C8.61963 22.8448 8.80293 22.5515 8.99082 22.2628C9.1787 21.9741 9.37117 21.6854 9.56363 21.4013C9.7561 21.1172 9.95773 20.8331 10.1594 20.549C10.361 20.2648 10.5626 19.9899 10.7734 19.7149C10.9842 19.44 11.1904 19.165 11.4058 18.8947C11.6212 18.6243 11.832 18.3539 12.0519 18.0881C12.2719 17.8224 12.5102 17.5566 12.721 17.2954C12.9318 17.0342 13.1792 16.773 13.4084 16.5209C13.6375 16.2689 13.8666 16.0077 14.1095 15.7556L14.8289 15.0224C15.0718 14.775 15.3193 14.5321 15.5667 14.2938L16.3183 13.5835L17.0881 12.887L17.858 12.2088C18.1238 11.9888 18.3896 11.7505 18.6599 11.5535C18.9303 11.3564 19.2327 11.1227 19.4894 10.8982C19.746 10.6736 20.0393 10.4812 20.3142 10.275C20.5892 10.0687 20.8733 9.8717 21.1574 9.67007L22.0143 9.08809C22.2984 8.90479 22.5932 8.72149 22.8987 8.53819C23.192 8.3503 23.4853 8.17159 23.7832 7.99287C24.081 7.81415 24.3743 7.64002 24.6997 7.46588L25.6162 6.9618C25.9186 6.79683 26.2256 6.63645 26.5327 6.48064C26.8397 6.32483 27.1513 6.16445 27.4492 6.02239C27.747 5.88033 28.0724 5.71994 28.3657 5.56414L29.3097 5.14255C29.6305 5.00507 29.9466 4.87218 30.2674 4.74387L31.2343 4.3681C31.5551 4.24437 31.8805 4.12523 32.2058 4.01067L33.1865 3.67614C33.5164 3.57074 33.8464 3.46535 34.1763 3.36911L35.1478 3.10791L36.1468 2.84212L37.1549 2.59925C37.494 2.52135 37.8286 2.44803 38.1677 2.37929C38.5068 2.31055 38.8459 2.24182 39.185 2.18224C39.5241 2.12267 39.8632 2.0631 40.2069 2.00811C40.5506 1.95312 40.8897 1.90271 41.2288 1.85688C41.5679 1.81106 41.9162 1.76523 42.2599 1.72857C42.6035 1.69191 42.9472 1.65067 43.2909 1.62318C43.6346 1.59568 43.9783 1.5636 44.322 1.54069C44.6657 1.51778 45.014 1.49487 45.3576 1.48112L46.3933 1.44446H47.4289H48.4646L49.5002 1.48112C49.8439 1.48112 50.1876 1.51778 50.5359 1.54069C50.8841 1.5636 51.2233 1.5911 51.5669 1.62318C51.9106 1.65525 52.2543 1.68733 52.598 1.72857C52.9417 1.76982 53.2854 1.80648 53.6245 1.85688C53.9636 1.90729 54.3119 1.95312 54.651 2.00811C54.9901 2.0631 55.3338 2.11809 55.6729 2.18224C56.012 2.2464 56.3511 2.31055 56.6902 2.37929C57.0293 2.44803 57.3638 2.52135 57.7029 2.59925L58.7065 2.84212C59.041 2.92919 59.3755 3.01626 59.7101 3.11249C60.0446 3.20873 60.3745 3.30038 60.7045 3.40119C61.0344 3.50201 61.3644 3.60282 61.6943 3.70822L62.6749 4.04274C63.0003 4.15731 63.3257 4.27645 63.6464 4.40018L64.6133 4.77594L65.5665 5.17462C65.8873 5.3121 66.1989 5.45416 66.5151 5.59621C66.8313 5.73827 67.1429 5.8895 67.4316 6.05447C67.7203 6.21944 68.0548 6.35691 68.3481 6.51272C68.6414 6.66852 68.9576 6.82891 69.2646 6.99388L70.1811 7.49796L71.0747 8.02495C71.3726 8.20366 71.6658 8.38238 71.9545 8.57026C72.2432 8.75815 72.5365 8.94145 72.8252 9.13391L73.6821 9.71589L74.5207 10.3208L75.3685 10.8982C75.6435 11.109 75.9138 11.3198 76.1842 11.5397C76.4546 11.7597 76.7204 11.9751 76.9816 12.195C77.2428 12.415 77.5085 12.6533 77.7652 12.8732C78.0218 13.0932 78.283 13.3315 78.535 13.5698C78.7871 13.8081 79.0391 14.028 79.2911 14.2801C79.5432 14.5321 79.7815 14.7612 80.0243 15.0087C80.2672 15.2562 80.5101 15.5036 80.7484 15.7556C80.9867 16.0077 81.2066 16.2597 81.4495 16.5163L82.1369 17.2908C82.3614 17.552 82.5951 17.8178 82.8013 18.0836C83.0076 18.3493 83.2596 18.6197 83.4521 18.8901C83.6445 19.1604 83.8782 19.4354 84.0844 19.7104C84.2907 19.9853 84.4969 20.2648 84.6985 20.549C84.9001 20.8331 85.0972 21.1126 85.2896 21.3967C85.4821 21.6808 85.6792 21.9695 85.867 22.2582C86.0549 22.5469 86.2382 22.8402 86.4215 23.1335C86.6048 23.4268 86.779 23.7246 86.9531 24.0225C87.1272 24.3204 87.3014 24.6182 87.4709 24.939C87.6405 25.2598 87.8009 25.5439 87.9613 25.8555C88.1216 26.1671 88.282 26.465 88.4195 26.772C88.557 27.079 88.7219 27.3906 88.8778 27.6885C89.0336 27.9864 89.1665 28.3163 89.3085 28.6325C89.4506 28.9487 89.5835 29.2649 89.7164 29.5811C89.8492 29.8973 89.9776 30.2226 90.1059 30.5434C90.2342 30.8642 90.3533 31.1895 90.4725 31.5103C90.5916 31.8311 90.7062 32.161 90.8162 32.491C90.9261 32.8209 91.0361 33.1463 91.1369 33.4716C91.2377 33.797 91.3431 34.1315 91.4394 34.466C91.5356 34.8006 91.6273 35.1305 91.7143 35.465C91.8014 35.7996 91.8885 36.1341 91.9709 36.4686C92.0534 36.8031 92.1313 37.1422 92.2047 37.4768C92.278 37.8113 92.3467 38.155 92.4109 38.4941C92.475 38.8332 92.5392 39.1723 92.5988 39.5114C92.6583 39.8505 92.7133 40.1942 92.7637 40.5333C92.8141 40.8724 92.86 41.2207 92.9012 41.5598C92.9424 41.8989 92.9837 42.2472 93.0203 42.5908C93.057 42.9345 93.0845 43.2782 93.112 43.6219C93.1395 43.9656 93.1624 44.3093 93.1807 44.6575C93.1991 45.0058 93.2174 45.3449 93.2311 45.6932C93.2449 46.0415 93.2632 46.3897 93.2678 46.738Z" fill="#FFF37A"/>
<path d="M47.4287 93.2089H46.3885L45.3528 93.1723L44.3126 93.1127C43.9704 93.0913 43.6267 93.0638 43.2815 93.0302C42.9332 92.9981 42.5896 92.966 42.2459 92.9248C41.9022 92.8836 41.5585 92.8423 41.2148 92.7965C40.8711 92.7507 40.5274 92.7003 40.1883 92.6453L39.1664 92.4666C38.8227 92.4024 38.4836 92.3382 38.1445 92.2649C37.8054 92.1916 37.4663 92.1229 37.1272 92.045L36.119 91.8021C35.7845 91.715 35.45 91.628 35.1155 91.5317C34.781 91.4355 34.451 91.3438 34.1211 91.243C33.7911 91.1422 33.4566 91.0414 33.1267 90.9314C32.7967 90.8214 32.4714 90.7114 32.146 90.5969C31.8206 90.4823 31.4907 90.3632 31.1699 90.2394C30.8492 90.1157 30.5238 89.992 30.203 89.8637C29.8822 89.7354 29.5615 89.5979 29.2453 89.4604C28.9291 89.3229 28.6083 89.1855 28.2921 89.0388C27.9759 88.8922 27.6643 88.7501 27.3756 88.5806L26.4591 88.1223L25.5426 87.6366C25.2371 87.4716 24.9316 87.3021 24.6261 87.1279C24.3282 86.9584 24.0304 86.7796 23.7096 86.6009C23.3888 86.4222 23.1185 86.2435 22.8252 86.0556C22.5319 85.8677 22.2432 85.6844 21.9545 85.492C21.6658 85.2995 21.3817 85.1025 21.0976 84.9054C20.8135 84.7084 20.5293 84.5067 20.2544 84.3005C19.9794 84.0943 19.6953 83.8881 19.4204 83.6773C19.1454 83.4665 18.8751 83.2511 18.6047 83.0357L17.7982 82.385C17.5324 82.1605 17.2712 81.9268 17.0146 81.7022C16.7579 81.4777 16.4967 81.244 16.2447 81.0103L15.4886 80.2954C15.2411 80.0525 14.9937 79.8096 14.7508 79.5622C14.5079 79.3147 14.265 79.0673 14.0268 78.8198C13.7885 78.5724 13.5685 78.3112 13.321 78.0546L12.6337 77.2755C12.4091 77.0143 12.1754 76.7485 11.9646 76.4827C11.7538 76.217 11.5293 75.9466 11.3139 75.6716C11.0985 75.3967 10.8877 75.1263 10.6815 74.8514C10.4753 74.5764 10.2691 74.2923 10.0675 74.0128C9.86583 73.7332 9.6642 73.4491 9.47174 73.1604C9.27927 72.8717 9.08222 72.5876 8.89434 72.2989C8.70646 72.0102 8.52316 71.7124 8.33986 71.4191C8.15656 71.1258 7.97784 70.8279 7.8037 70.5301C7.62957 70.2322 7.45543 69.9298 7.28588 69.6136C7.11633 69.2974 6.95135 69.0087 6.79097 68.6971C6.63058 68.3855 6.47019 68.083 6.33272 67.7806C6.19524 67.4781 6.03027 67.1573 5.87446 66.8641C5.71866 66.5708 5.58118 66.2363 5.43913 65.9201C5.29707 65.6039 5.16418 65.2831 5.0267 64.9623C4.88922 64.6415 4.7655 64.3253 4.63719 64C4.50888 63.6746 4.38973 63.3538 4.27059 63.0285C4.15144 62.7031 4.03688 62.3778 3.9269 62.0478C3.81692 61.7179 3.70694 61.3925 3.60154 61.0626C3.49614 60.7327 3.39991 60.4027 3.30368 60.0682C3.20744 59.7337 3.11121 59.4037 3.02414 59.0692C2.93707 58.7347 2.85001 58.4002 2.76752 58.0611C2.68504 57.7219 2.61172 57.3874 2.5384 57.0483C2.46508 56.7092 2.39176 56.3701 2.3276 56.031C2.26344 55.6919 2.19929 55.3528 2.13972 55.0091C2.08014 54.6654 2.02515 54.3263 1.97475 53.9872C1.92434 53.6481 1.87851 53.2998 1.83727 52.9561C1.79603 52.6124 1.75479 52.2688 1.71813 51.9251C1.68147 51.5814 1.65397 51.2331 1.62648 50.8894C1.59898 50.5457 1.57149 50.1975 1.55316 49.8538C1.53483 49.5101 1.52108 49.1618 1.50733 48.8135C1.49358 48.4653 1.50733 48.1216 1.50733 47.7779C1.50733 47.4342 1.50733 47.0859 1.50733 46.7377C1.50733 46.3894 1.50733 46.0457 1.50733 45.702C1.50733 45.3583 1.53483 45.0101 1.55316 44.6618C1.57149 44.3135 1.59898 43.9698 1.62648 43.6261C1.65397 43.2825 1.68147 42.9342 1.71813 42.5905C1.75479 42.2468 1.79145 41.9031 1.83727 41.5594C1.8831 41.2157 1.92434 40.872 1.97475 40.5329C2.02515 40.1938 2.08014 39.8456 2.13972 39.5065C2.19929 39.1674 2.25886 38.8237 2.3276 38.4846C2.39634 38.1455 2.46049 37.8064 2.5384 37.4672C2.6163 37.1281 2.68962 36.789 2.76752 36.4545C2.84542 36.12 2.93707 35.7809 3.02414 35.4464C3.11121 35.1118 3.20744 34.7773 3.30368 34.4474C3.39991 34.1174 3.50072 33.7829 3.60154 33.453C3.70235 33.123 3.81692 32.7931 3.9269 32.4631C4.03688 32.1332 4.15144 31.8124 4.27059 31.4871C4.38973 31.1617 4.51346 30.8363 4.63719 30.5156C4.76091 30.1948 4.89381 29.8694 5.03128 29.5487C5.16876 29.2279 5.29707 28.9117 5.43913 28.5955C5.58118 28.2793 5.72324 27.9677 5.87446 27.6515C6.02569 27.3353 6.17233 27.0283 6.33272 26.735C6.4931 26.4417 6.64433 26.1209 6.79097 25.8185C6.93761 25.5161 7.11633 25.209 7.28588 24.902C7.45543 24.595 7.62957 24.2971 7.8037 23.9855C7.97784 23.6739 8.15656 23.3898 8.33986 23.0965C8.52316 22.8032 8.70646 22.5099 8.89434 22.2166C9.08222 21.9234 9.27469 21.6392 9.47174 21.3551C9.66878 21.071 9.86583 20.7823 10.0675 20.5028C10.2691 20.2232 10.4707 19.9437 10.6815 19.6642C10.8923 19.3847 11.0985 19.1143 11.3139 18.8393C11.5293 18.5644 11.7447 18.2986 11.9646 18.0328C12.1846 17.767 12.4229 17.5012 12.6337 17.24L13.321 16.461C13.5548 16.2044 13.7793 15.9478 14.0268 15.6957C14.2742 15.4437 14.485 15.1962 14.7508 14.9488C15.0166 14.7013 15.2365 14.4585 15.4886 14.2202C15.7406 13.9819 15.9881 13.7619 16.2447 13.5053C16.5013 13.2487 16.7533 13.047 17.0146 12.8087C17.2758 12.5705 17.5324 12.3505 17.7982 12.1305L18.6001 11.4707C18.8705 11.2553 19.1408 11.0399 19.4158 10.8291C19.6907 10.6183 19.9703 10.4121 20.2498 10.2059C20.5293 9.99967 20.8089 9.79804 21.093 9.60099C21.3771 9.40394 21.6612 9.20689 21.9499 9.01443C22.2386 8.82196 22.5273 8.63408 22.8206 8.45078C23.1139 8.26748 23.4072 8.07959 23.705 7.90088C24.0029 7.72216 24.3007 7.54802 24.6215 7.37847C24.9423 7.20892 25.2264 7.03478 25.538 6.86981L26.4545 6.38406C26.7616 6.22826 27.0686 6.07245 27.371 5.92581L28.2875 5.46756L29.2407 5.04597C29.5569 4.90849 29.8777 4.7756 30.1984 4.64729L31.1653 4.26694C31.4861 4.1478 31.8115 4.02865 32.1414 3.91409C32.4714 3.79953 32.7921 3.68496 33.1221 3.57957C33.452 3.47417 33.782 3.36419 34.1165 3.26796L35.1109 2.97467L36.1145 2.70889L37.1226 2.46602L38.1399 2.24606C38.479 2.17274 38.8181 2.10858 39.1618 2.04442L40.1837 1.87029C40.5228 1.8153 40.8665 1.76489 41.2102 1.71907C41.5539 1.67324 41.8976 1.62742 42.2413 1.59076C42.585 1.5541 42.9287 1.51744 43.2769 1.48536C43.6252 1.45328 43.9643 1.42579 44.3126 1.40287C44.6608 1.37996 45 1.35705 45.3482 1.3433L46.3839 1.30664C47.0758 1.30664 47.7586 1.30664 48.4643 1.30664L49.5 1.3433C49.8483 1.3433 50.1919 1.37996 50.5356 1.40287C50.8793 1.42579 51.2276 1.45328 51.5713 1.48536C51.915 1.51744 52.2632 1.54951 52.6069 1.59076C52.9506 1.632 53.2943 1.67324 53.638 1.71907C53.9817 1.76489 54.3208 1.8153 54.6645 1.87029L55.6864 2.04442C56.0301 2.10858 56.3692 2.17274 56.7083 2.24606C57.0474 2.31938 57.3865 2.38811 57.721 2.46602L58.7337 2.70889L59.7373 2.97467L60.7317 3.26796C61.0662 3.36877 61.3962 3.46959 61.7215 3.57957C62.0469 3.68955 62.3814 3.79953 62.7068 3.91409L63.6828 4.26694L64.6498 4.64729C64.9705 4.7756 65.2913 4.90849 65.6075 5.04597C65.9237 5.18345 66.2445 5.3255 66.5561 5.46756L67.4955 5.92581L68.412 6.38406L69.3285 6.86981C69.631 7.03478 69.9334 7.20433 70.245 7.37847C70.5566 7.5526 70.8453 7.72216 71.1615 7.90088C71.4777 8.07959 71.7527 8.26289 72.0459 8.45078C72.3392 8.63866 72.6279 8.82196 72.9166 9.01443C73.2053 9.20689 73.4894 9.40394 73.7735 9.60099C74.0577 9.79804 74.3372 9.99967 74.6167 10.2059L75.4507 10.8291L76.2664 11.4707L77.0638 12.1305L77.852 12.8087C78.1132 13.0379 78.3698 13.267 78.6218 13.5053L79.378 14.2202L80.1157 14.9488C80.3586 15.1962 80.6015 15.4437 80.8398 15.6957C81.0781 15.9478 81.298 16.2044 81.5455 16.461L82.2329 17.24C82.4574 17.5012 82.6911 17.767 82.9019 18.0328C83.1127 18.2986 83.3602 18.569 83.5526 18.8439L84.185 19.6642L84.7991 20.5028C85.0007 20.7823 85.1977 21.0664 85.3948 21.3551C85.5918 21.6438 85.7797 21.9279 85.9722 22.2166C86.1646 22.5053 86.3434 22.8032 86.5267 23.0965C86.71 23.3898 86.8887 23.6876 87.0628 23.9855C87.237 24.2834 87.4111 24.5858 87.5761 24.902C87.741 25.2182 87.9106 25.5069 88.0756 25.8185C88.2405 26.1301 88.3917 26.4326 88.5338 26.735C88.6759 27.0374 88.8408 27.3582 88.9921 27.6515C89.1433 27.9448 89.2853 28.2793 89.4503 28.5955C89.6153 28.9117 89.7253 29.2325 89.8582 29.5532C89.991 29.874 90.1239 30.1902 90.2477 30.5156C90.3714 30.8409 90.4951 31.1617 90.6143 31.4871C90.7334 31.8124 90.848 32.1378 90.9625 32.4631C91.0771 32.7885 91.1825 33.123 91.2833 33.453C91.3841 33.7829 91.4895 34.1128 91.5858 34.4474C91.682 34.7819 91.7736 35.1118 91.8653 35.4464C91.9569 35.7809 92.0394 36.12 92.1173 36.4545C92.1952 36.789 92.2777 37.1281 92.351 37.4672C92.4244 37.8064 92.4977 38.1455 92.5618 38.4846C92.626 38.8237 92.6901 39.1628 92.7497 39.5065C92.8093 39.8502 92.8597 40.1893 92.9101 40.5329C92.9605 40.8766 93.0109 41.2157 93.0522 41.5594C93.0934 41.9031 93.1347 42.2468 93.1713 42.5905C93.208 42.9342 93.2355 43.2825 93.263 43.6261C93.2905 43.9698 93.3134 44.3181 93.3317 44.6618C93.35 45.0055 93.3684 45.3537 93.3821 45.702C93.3959 46.0503 93.3821 46.394 93.405 46.7377C93.405 47.0859 93.405 47.4296 93.405 47.7779C93.405 48.1262 93.405 48.4699 93.3821 48.8135C93.3592 49.1572 93.3546 49.5055 93.3317 49.8538C93.3088 50.202 93.2905 50.5457 93.263 50.8894C93.2355 51.2331 93.2034 51.5768 93.1713 51.9251C93.1392 52.2733 93.0934 52.6124 93.0522 52.9561C93.0109 53.2998 92.9605 53.6435 92.9101 53.9826C92.8597 54.3217 92.8047 54.67 92.7497 55.0091C92.6947 55.3482 92.626 55.6919 92.5618 56.031C92.4977 56.3701 92.4244 56.7092 92.351 57.0483C92.2777 57.3874 92.1998 57.7265 92.1173 58.0611C92.0349 58.3956 91.9524 58.7347 91.8607 59.0692C91.7691 59.4037 91.682 59.7383 91.5858 60.0682C91.4895 60.3981 91.3887 60.7327 91.2833 61.0626C91.1779 61.3925 91.0725 61.7225 90.9625 62.0478C90.8526 62.3732 90.7334 62.7031 90.6143 63.0285C90.4951 63.3538 90.376 63.6792 90.2477 64C90.1194 64.3208 89.991 64.6461 89.8582 64.9623C89.7253 65.2785 89.5878 65.5993 89.4503 65.9155C89.3128 66.2317 89.1616 66.5479 88.9921 66.8641C88.8225 67.1803 88.6942 67.4873 88.5338 67.7806C88.3734 68.0738 88.2222 68.3992 88.0756 68.6971C87.9289 68.9949 87.7456 69.3065 87.5761 69.6136C87.4065 69.9206 87.237 70.2185 87.0628 70.5301C86.8887 70.8417 86.71 71.1258 86.5267 71.4191C86.3434 71.7124 86.1601 72.0056 85.9722 72.2989L85.3948 73.1604C85.1977 73.4491 85.0007 73.7287 84.7991 74.0128L84.185 74.8514C83.9788 75.1263 83.7634 75.4013 83.5526 75.6716C83.3418 75.942 83.1219 76.217 82.9019 76.4827C82.6819 76.7485 82.4436 77.0143 82.2283 77.2755C82.0129 77.5367 81.77 77.7979 81.5409 78.0546C81.3118 78.3112 81.0826 78.5678 80.8398 78.8198C80.5969 79.0719 80.3815 79.3193 80.1157 79.5622C79.85 79.8051 79.6254 80.0525 79.378 80.2954L78.6127 81.0103C78.3606 81.244 78.104 81.4685 77.8428 81.7022C77.5816 81.9359 77.3204 82.1605 77.0546 82.385C76.7888 82.6096 76.523 82.8433 76.2527 83.0449C75.9823 83.2465 75.7119 83.4757 75.437 83.6865L74.6076 84.3097C74.328 84.5159 74.0485 84.7175 73.7644 84.9146L72.9074 85.5011C72.6188 85.6936 72.3255 85.8815 72.0368 86.0648C71.7481 86.2481 71.4502 86.436 71.1523 86.6101C70.8545 86.7842 70.5566 86.9675 70.2358 87.1371C69.9151 87.3066 69.6355 87.4808 69.3193 87.6457C69.0031 87.8107 68.7099 87.9711 68.4028 88.1315L67.4863 88.5897C67.1747 88.741 66.8631 88.8876 66.5469 89.048C66.2307 89.2084 65.9191 89.3367 65.5983 89.4696C65.2776 89.6025 64.9614 89.7445 64.6406 89.8728C64.3198 90.0012 63.999 90.1295 63.6737 90.2486C63.3483 90.3678 63.023 90.4915 62.6976 90.606C62.3723 90.7206 62.0423 90.8352 61.7124 90.9406C61.3824 91.046 61.0525 91.1514 60.7225 91.2522C60.3926 91.353 60.0581 91.4492 59.7281 91.5409C59.3982 91.6325 59.0591 91.7242 58.72 91.8113L57.7118 92.0541C57.3773 92.132 57.0382 92.2053 56.6991 92.2741C56.36 92.3428 56.0209 92.4116 55.6772 92.4757L54.6553 92.6498L53.6288 92.8011L52.5978 92.9294C52.2541 92.9706 51.9058 93.0027 51.5621 93.0348C51.2184 93.0669 50.8747 93.0944 50.5265 93.1173L49.4908 93.1768L48.4552 93.2135L47.4287 93.2089ZM47.4287 1.5266H46.393L45.3528 1.57243C45.0091 1.57243 44.6654 1.60909 44.3217 1.632C43.9781 1.65491 43.6344 1.68241 43.2907 1.71448C42.947 1.74656 42.6033 1.77864 42.2642 1.8153L41.2285 1.94361L40.2066 2.09483C39.863 2.14982 39.5238 2.2094 39.1847 2.27355C38.8456 2.33771 38.5111 2.39728 38.172 2.4706C37.8329 2.54392 37.4984 2.61266 37.1639 2.69056C36.8293 2.76846 36.4902 2.84636 36.1603 2.93343C35.8303 3.0205 35.4912 3.10299 35.1613 3.19922L34.1669 3.48333L33.1817 3.79494L32.201 4.12947L31.2524 4.48232L30.2855 4.85809L29.314 5.25677L28.3975 5.67836C28.092 5.81889 27.7865 5.97164 27.481 6.13661L26.5645 6.59486C26.2621 6.75067 25.955 6.91105 25.648 7.07602L24.7315 7.5801C24.4336 7.74965 24.1358 7.92379 23.8425 8.10251C23.5492 8.28122 23.2513 8.45994 22.9627 8.64783C22.674 8.83571 22.3807 9.01901 22.0966 9.21147C21.8124 9.40394 21.5237 9.59641 21.2396 9.79345L20.401 10.3938C20.1261 10.6 19.8465 10.8062 19.5762 11.017C19.3058 11.2278 19.0309 11.4386 18.7651 11.654C18.4993 11.8693 18.2289 12.0893 17.9631 12.3138C17.6973 12.5384 17.4407 12.7721 17.1841 12.9875C16.9275 13.2028 16.6709 13.4457 16.4142 13.6794L15.6627 14.3897C15.4153 14.628 15.1724 14.848 14.9295 15.1138C14.6866 15.3795 14.4713 15.6087 14.2101 15.8607L13.5089 16.6168C13.2798 16.8734 13.0507 17.1301 12.8261 17.3913C12.6016 17.6525 12.3679 17.9182 12.1617 18.184C11.9555 18.4498 11.7034 18.7156 11.511 18.986C11.3185 19.2563 11.0894 19.5313 10.8832 19.8062C10.6769 20.0812 10.4707 20.3607 10.2691 20.6403C10.0675 20.9198 9.87041 21.2039 9.67795 21.488C9.48548 21.7721 9.29302 22.0608 9.10513 22.3495C8.91725 22.6382 8.73395 22.9269 8.55065 23.2202C8.36735 23.5135 8.19322 23.8068 8.01908 24.1046C7.84494 24.4025 7.67081 24.7004 7.50584 25.0211C7.34087 25.3419 7.1759 25.626 7.01093 25.9376C6.84596 26.2493 6.69473 26.5471 6.55268 26.8541C6.41062 27.1612 6.25023 27.4728 6.09443 27.7706C5.93862 28.0685 5.80114 28.3939 5.66367 28.6872C5.52619 28.9804 5.38872 29.315 5.25583 29.6357C5.12293 29.9565 4.99004 30.2727 4.86631 30.5935C4.74258 30.9143 4.61886 31.235 4.49971 31.5604C4.38057 31.8857 4.266 32.2065 4.15602 32.5365C4.04604 32.8664 3.94064 33.1872 3.83525 33.5171C3.72985 33.8471 3.63362 34.1724 3.53738 34.5069C3.44115 34.8415 3.3495 35.1668 3.25785 35.5013C3.1662 35.8359 3.0883 36.1658 3.00581 36.5049C2.92333 36.844 2.82251 37.174 2.73544 37.5085C2.64838 37.843 2.59339 38.1821 2.52923 38.5212C2.46508 38.8603 2.40092 39.1994 2.34135 39.5385C2.28178 39.8776 2.24512 40.2259 2.19471 40.5604C2.1443 40.895 2.09847 41.2432 2.05265 41.6007C2.00682 41.9581 1.97016 42.288 1.93809 42.6272C1.90601 42.9663 1.86935 43.3145 1.84185 43.6582C1.81436 44.0019 1.79145 44.3456 1.77312 44.6893C1.75479 45.033 1.74104 45.3767 1.72729 45.7203C1.71354 46.064 1.72729 46.4123 1.72729 46.756C1.72729 47.0997 1.72729 47.4434 1.72729 47.7871C1.72729 48.1307 1.72729 48.479 1.72729 48.8227C1.72729 49.1664 1.75479 49.5101 1.77312 49.8538C1.79145 50.1975 1.81436 50.5412 1.84185 50.8848C1.86935 51.2285 1.90143 51.5722 1.93809 51.9159C1.97475 52.2596 2.01141 52.5987 2.05265 52.9424C2.09389 53.2861 2.1443 53.6252 2.19471 53.9643C2.24512 54.3034 2.30011 54.6471 2.3551 54.9862C2.41009 55.3253 2.47424 55.6644 2.54298 56.0035C2.61172 56.3426 2.67587 56.6771 2.74919 57.0162C2.82251 57.3553 2.90041 57.6853 2.9829 58.0198C3.06538 58.3543 3.14787 58.6889 3.23494 59.0234C3.32201 59.3579 3.41824 59.6878 3.51447 60.0178C3.6107 60.3477 3.71152 60.6777 3.81233 61.0076C3.91315 61.3375 4.02313 61.6629 4.13311 61.9883C4.24309 62.3136 4.35765 62.6436 4.4768 62.9643C4.59594 63.2851 4.71967 63.6105 4.8434 63.9312C4.96713 64.252 5.10002 64.5728 5.23291 64.889C5.36581 65.2052 5.4987 65.526 5.64076 65.8376C5.78281 66.1492 5.92487 66.4654 6.07151 66.777C6.21815 67.0886 6.36938 67.4002 6.52976 67.6935C6.69015 67.9868 6.84137 68.3075 6.98802 68.61C7.13466 68.9124 7.31337 69.2149 7.48293 69.5265C7.65248 69.8381 7.82203 70.1268 7.99617 70.443C8.1703 70.7592 8.34902 71.0341 8.52774 71.3274C8.70646 71.6207 8.89434 71.9094 9.08222 72.1981C9.27011 72.4868 9.46257 72.7755 9.65504 73.0596L10.2462 73.9074C10.4478 74.1869 10.654 74.4664 10.8602 74.7414C11.0665 75.0163 11.2772 75.2867 11.488 75.5617C11.6988 75.8366 11.9188 76.0978 12.1388 76.3636C12.3587 76.6294 12.597 76.8952 12.8032 77.1564L13.486 77.9308C13.7197 78.1829 13.9443 78.4395 14.1871 78.6869C14.43 78.9344 14.6454 79.1864 14.9066 79.4293C15.1678 79.6722 15.3923 79.9196 15.6444 80.1579C15.8964 80.3962 16.1393 80.6162 16.3913 80.8682C16.6434 81.1203 16.9 81.3265 17.1612 81.5602C17.4224 81.7939 17.679 82.0184 17.9402 82.2338C18.2014 82.4492 18.4718 82.6921 18.7422 82.8937C19.0125 83.0953 19.2783 83.3199 19.5533 83.5307C19.8282 83.7414 20.1032 83.9477 20.3781 84.1539C20.6531 84.3601 20.9372 84.5571 21.2213 84.7542C21.5054 84.9512 21.7849 85.1483 22.0736 85.3362C22.3623 85.524 22.6465 85.7165 22.9397 85.8998C23.233 86.0831 23.5217 86.2664 23.8196 86.4451C24.1174 86.6238 24.4107 86.798 24.7086 86.9675L25.6251 87.4716C25.9275 87.6366 26.2346 87.797 26.5416 87.9528L27.4581 88.411C27.7636 88.5638 28.0691 88.7165 28.3746 88.8693L29.314 89.2588L30.2718 89.6529C30.5879 89.7858 30.9087 89.9095 31.2341 90.0332L32.201 90.3861L33.1817 90.7206C33.507 90.826 33.837 90.9314 34.1669 91.0276C34.4968 91.1239 34.8268 91.2247 35.1613 91.3163C35.4958 91.408 35.8258 91.4996 36.1557 91.5821C36.4856 91.6646 36.8247 91.7471 37.1639 91.825C37.503 91.9029 37.8329 91.9762 38.172 92.045C38.5111 92.1137 38.8502 92.1824 39.1847 92.242C39.5193 92.3016 39.863 92.3657 40.2066 92.4161C40.5503 92.4666 40.8849 92.5215 41.2285 92.5674C41.5722 92.6132 41.9113 92.659 42.255 92.6957C42.5987 92.7323 42.9378 92.769 43.2815 92.8011C43.6252 92.8332 43.9689 92.8606 44.3126 92.8836L45.3528 92.9248L46.3839 92.9615C47.0758 92.9615 47.7586 92.9615 48.4506 92.9615L49.4771 92.9248L50.5081 92.8652C50.8533 92.8438 51.197 92.8164 51.5392 92.7827C51.8829 92.7507 52.222 92.7186 52.5657 92.6773C52.9094 92.6361 53.2485 92.5994 53.5922 92.549C53.9359 92.4986 54.275 92.4528 54.6141 92.3978C54.9532 92.3428 55.2923 92.2878 55.6314 92.2237C55.9705 92.1595 56.3096 92.0999 56.6487 92.0266C56.9878 91.9533 57.3223 91.8846 57.6569 91.8067C57.9914 91.7288 58.3259 91.6509 58.6604 91.5638C58.9949 91.4767 59.3295 91.3897 59.6594 91.298C59.9893 91.2064 60.3239 91.1101 60.6538 91.0093C60.9837 90.9085 61.3091 90.8077 61.639 90.7023L62.6151 90.3678L63.5866 90.0149C63.9074 89.8912 64.2327 89.7675 64.5489 89.6346L65.5159 89.2588L66.4598 88.8372C66.7654 88.6936 67.0709 88.5409 67.3764 88.379C67.688 88.2277 67.995 88.0719 68.2929 87.9207C68.5907 87.7695 68.9023 87.6045 69.2094 87.4395C69.5164 87.2746 69.8142 87.105 70.1259 86.9355C70.4375 86.7659 70.7216 86.5872 71.0149 86.413L71.8947 85.8677C72.1819 85.6844 72.4706 85.4965 72.7608 85.3041C73.0495 85.1162 73.3336 84.9192 73.6132 84.7221C73.8927 84.5251 74.1768 84.3234 74.4518 84.1218L75.2812 83.4986C75.5561 83.2878 75.8265 83.077 76.0923 82.8616C76.3581 82.6462 76.6284 82.4034 76.8896 82.2017C77.1509 82.0001 77.4121 81.7435 77.6733 81.5281C77.9345 81.3127 78.1865 81.0698 78.4385 80.8361L79.1901 80.1258C79.4375 79.8876 79.685 79.6447 79.9233 79.3972C80.1616 79.1498 80.409 78.9069 80.6427 78.6549C80.8764 78.4028 81.101 78.1508 81.3438 77.8988C81.5867 77.6467 81.8021 77.3809 82.0312 77.1243C82.2603 76.8677 82.4895 76.5973 82.6957 76.3315C82.9019 76.0657 83.131 75.7954 83.3418 75.5296C83.5526 75.2638 83.768 74.9843 83.9742 74.7093C84.1804 74.4344 84.3866 74.1548 84.5837 73.8753C84.7807 73.5958 84.9824 73.3117 85.1794 73.0275C85.3765 72.7434 85.5643 72.4547 85.7522 72.166C85.9401 71.8773 86.1234 71.5886 86.3021 71.2953C86.4808 71.0021 86.6641 70.7088 86.8383 70.4109C87.0124 70.1131 87.182 69.8152 87.3515 69.4944C87.5211 69.1736 87.6815 68.8895 87.8419 68.5779C88.0022 68.2663 88.1626 67.9639 88.3001 67.6614C88.4376 67.359 88.6071 67.0428 88.7584 66.7449C88.9096 66.447 89.0471 66.1217 89.1891 65.8055C89.3312 65.4893 89.4641 65.1731 89.597 64.8569C89.7298 64.5407 89.8582 64.2199 89.9865 63.8992C90.1148 63.5784 90.2339 63.2576 90.3485 62.9323C90.4631 62.6069 90.5822 62.2861 90.6922 61.9562C90.8022 61.6262 90.9121 61.3055 91.0175 60.9755C91.1229 60.6456 91.2192 60.3156 91.3154 59.9857C91.4116 59.6558 91.5033 59.3258 91.5903 58.9913C91.6774 58.6568 91.7645 58.3223 91.847 57.9877C91.9295 57.6532 92.0028 57.3187 92.0761 56.9842C92.1494 56.6496 92.2181 56.306 92.2869 55.9714C92.3556 55.6369 92.4152 55.2932 92.4702 54.9541C92.5252 54.615 92.5847 54.2759 92.6352 53.9322C92.6856 53.5885 92.7314 53.2494 92.7726 52.9103C92.8139 52.5712 92.8551 52.2229 92.8918 51.8838C92.9284 51.5447 92.9559 51.1964 92.9834 50.8528C93.0109 50.5091 93.0338 50.1654 93.0522 49.8217C93.0705 49.478 93.0888 49.1343 93.1026 48.7906C93.1163 48.4469 93.1026 48.0987 93.1255 47.755C93.1484 47.4113 93.1255 47.0676 93.1255 46.7239C93.1255 46.3802 93.1255 46.0365 93.1026 45.6883C93.0797 45.34 93.0751 45.0009 93.0522 44.6572C93.0293 44.3135 93.0109 43.9698 92.9834 43.6261C92.9559 43.2825 92.9284 42.9388 92.8918 42.5951C92.8551 42.2514 92.8185 41.9123 92.7726 41.5686C92.7268 41.2249 92.6856 40.8858 92.6352 40.5467C92.5847 40.2076 92.5298 39.8639 92.4702 39.5248C92.4106 39.1857 92.351 38.8466 92.2869 38.5075C92.2227 38.1684 92.1494 37.8338 92.0761 37.4947C92.0028 37.1556 91.9295 36.8257 91.847 36.4912C91.7645 36.1566 91.682 35.8221 91.5903 35.4876C91.4987 35.1531 91.4116 34.8231 91.3154 34.4932C91.2192 34.1632 91.1183 33.8333 91.0175 33.5034C90.9167 33.1734 90.8067 32.8481 90.6922 32.5227C90.5776 32.1974 90.4676 31.872 90.3485 31.5466C90.2293 31.2213 90.1102 30.9005 89.9865 30.5797C89.8627 30.259 89.7298 29.9382 89.597 29.622C89.4641 29.3058 89.3266 28.985 89.1891 28.6734C89.0516 28.3618 88.905 28.0456 88.7584 27.7569C88.6117 27.4682 88.4605 27.1337 88.3001 26.8404C88.1397 26.5471 87.9931 26.2263 87.8419 25.9239C87.6906 25.6215 87.5165 25.319 87.3515 25.0074C87.1865 24.6958 87.0124 24.4071 86.8383 24.0909C86.6641 23.7747 86.4854 23.4997 86.3021 23.2065C86.1188 22.9132 85.9401 22.6245 85.7522 22.3358C85.5643 22.0471 85.3719 21.7584 85.1794 21.4743C84.9869 21.1902 84.7853 20.906 84.5837 20.6265C84.3821 20.347 84.1804 20.0674 83.9742 19.7925C83.768 19.5175 83.5572 19.2472 83.3464 18.9768C83.1356 18.7064 82.9156 18.4361 82.6957 18.1703C82.4757 17.9045 82.2374 17.6387 82.0312 17.3821C81.825 17.1255 81.573 16.8597 81.3438 16.6031C81.1147 16.3464 80.8856 16.0944 80.6427 15.847C80.3998 15.5995 80.1845 15.3475 79.9278 15.1L79.1901 14.376C78.9426 14.1377 78.6952 13.9177 78.4385 13.6657C78.1819 13.4136 77.9299 13.2074 77.6733 12.9737C77.4166 12.74 77.1554 12.5155 76.8896 12.3001C76.6239 12.0847 76.3627 11.8418 76.0923 11.6402C75.8219 11.4386 75.5561 11.2094 75.2812 11.0032L74.4563 10.38C74.1768 10.1784 73.8973 9.97675 73.6132 9.77971C73.329 9.58266 73.0495 9.38561 72.7608 9.19773L71.9314 8.63408L71.0149 8.08876C70.7216 7.91004 70.4237 7.73591 70.1259 7.56635L69.2094 7.06228C68.9069 6.89731 68.5999 6.73692 68.2929 6.58111L67.3764 6.12286L66.4598 5.66461L65.5159 5.25677L64.5627 4.85809C64.2465 4.72978 63.9257 4.60605 63.6004 4.48232L62.6289 4.12947C62.3081 4.0149 61.9782 3.90492 61.6528 3.79494L60.6676 3.48333L59.6732 3.19922C59.3432 3.10299 59.0087 3.01592 58.6742 2.93343C58.3396 2.85095 58.0051 2.76846 57.6706 2.69056C57.3361 2.61266 56.997 2.53934 56.6624 2.4706C56.3279 2.40186 55.9842 2.33312 55.6451 2.27355C55.306 2.21398 54.9669 2.14982 54.6278 2.09483L53.6013 1.94361L52.5748 1.8153C52.2266 1.77864 51.9012 1.73281 51.5575 1.73281C51.2138 1.73281 50.8701 1.67324 50.5265 1.65033C50.1828 1.62742 49.8391 1.6045 49.4954 1.59076L48.4597 1.5541L47.4287 1.5266Z" fill="#FFF37A"/>
<path d="M47.3828 94.4737C47.0254 94.4737 46.6725 94.4737 46.3151 94.4737C45.9576 94.4737 45.6002 94.4737 45.2473 94.437C44.8945 94.4004 44.5371 94.4004 44.1796 94.3774C43.8222 94.3545 43.4693 94.327 43.1165 94.295C42.7636 94.2629 42.4062 94.2262 42.0533 94.185C41.7005 94.1437 41.3431 94.1025 40.9902 94.0521C40.6373 94.0017 40.2891 93.9513 39.9362 93.8963C39.5834 93.8413 39.2351 93.7817 38.8822 93.7176L37.8374 93.5159L36.788 93.2868L35.7524 93.0348L34.7213 92.7598C34.3776 92.6636 34.0339 92.5674 33.6948 92.462C33.3557 92.3566 33.012 92.2557 32.6775 92.1412C32.343 92.0266 31.9993 91.9166 31.6648 91.7975C31.3303 91.6783 30.9957 91.5592 30.6612 91.4309C30.3267 91.3026 29.9967 91.1788 29.6668 91.0414C29.3369 90.9039 29.0069 90.7756 28.677 90.6335C28.347 90.4915 28.0309 90.3494 27.7055 90.1982C27.3801 90.047 27.0594 89.9003 26.7386 89.7399L25.7808 89.2817L24.8368 88.7822L23.9203 88.2644C23.6087 88.0857 23.3017 87.9069 23.0038 87.7236C22.706 87.5403 22.3944 87.3524 22.0873 87.16C21.7803 86.9675 21.4916 86.7751 21.1708 86.578C20.8501 86.381 20.5797 86.1793 20.2864 85.9777C19.9931 85.7761 19.7044 85.5653 19.4203 85.3545C19.1362 85.1437 18.8475 84.9329 18.568 84.7175L17.7248 84.0576C17.4498 83.8331 17.1749 83.5994 16.9045 83.3794C16.6341 83.1595 16.3592 82.9212 16.0934 82.6783C15.8276 82.4354 15.5618 82.22 15.3006 81.9634C15.0394 81.7068 14.7782 81.4777 14.5262 81.2302C14.2741 80.9828 14.0129 80.7353 13.7655 80.4787C13.518 80.2221 13.266 79.97 13.0231 79.7134C12.7803 79.4568 12.5374 79.1956 12.2991 78.9298C12.0608 78.664 11.8408 78.3982 11.5888 78.1324C11.3368 77.8667 11.1305 77.5871 10.9014 77.3122C10.6723 77.0372 10.4432 76.7623 10.2324 76.4827C10.0216 76.2032 9.77412 75.9237 9.58166 75.6395C9.38919 75.3554 9.1509 75.053 8.95844 74.7505C8.76597 74.4481 8.54601 74.1686 8.34438 73.8753C8.14275 73.582 7.9457 73.2841 7.75323 72.9863C7.56077 72.6884 7.3683 72.386 7.18042 72.0698C6.99254 71.7536 6.80924 71.4649 6.63052 71.1533L6.09895 70.2368C5.92481 69.9252 5.75526 69.6135 5.59029 69.3203C5.42532 69.027 5.26035 68.6879 5.09996 68.3717C4.93957 68.0555 4.78835 67.7347 4.64171 67.4139C4.49507 67.0932 4.33926 66.7632 4.18346 66.4425C4.02765 66.1217 3.89476 65.7871 3.75728 65.4572C3.61981 65.1273 3.48692 64.8019 3.35861 64.472C3.2303 64.142 3.10198 63.8075 2.97826 63.473C2.85453 63.1385 2.73997 62.8039 2.6254 62.4648C2.51084 62.1257 2.40086 61.7912 2.29088 61.4521C2.1809 61.113 2.08467 60.7739 1.98385 60.4302C1.88304 60.0865 1.7868 59.7474 1.69515 59.4037C1.6035 59.06 1.51644 58.7117 1.43395 58.3681C1.35147 58.0244 1.26898 57.6761 1.19566 57.3278C1.12234 56.9796 1.04902 56.6313 0.980282 56.283C0.911544 55.9347 0.847389 55.5819 0.787817 55.2336C0.728244 54.8853 0.673254 54.5325 0.618264 54.1796C0.563274 53.8268 0.517448 53.4739 0.476206 53.1211C0.434963 52.7682 0.389138 52.4154 0.352478 52.0625C0.315818 51.7097 0.28374 51.3522 0.256245 50.9994C0.22875 50.6465 0.205838 50.2891 0.182925 49.9317C0.160012 49.5742 0.150847 49.2214 0.1371 48.8685C0.123352 48.5157 0.1371 48.1536 0.114187 47.8008C0.0912747 47.4479 0.114187 47.0905 0.114187 46.7331C0.114187 46.3756 0.114187 46.0228 0.1371 45.6653C0.160012 45.3079 0.164595 44.955 0.182925 44.6022C0.201255 44.2493 0.22875 43.8919 0.256245 43.5345C0.28374 43.177 0.315818 42.8242 0.352478 42.4713C0.389138 42.1185 0.430381 41.7656 0.476206 41.4128C0.522031 41.0599 0.567856 40.7071 0.618264 40.3542C0.668671 40.0013 0.728244 39.6485 0.787817 39.3002C0.847389 38.952 0.911544 38.5991 0.980282 38.2508C1.04902 37.9026 1.11776 37.5543 1.19566 37.206C1.27356 36.8577 1.35147 36.5095 1.43395 36.1658C1.51644 35.8221 1.6035 35.4738 1.69515 35.1301C1.7868 34.7864 1.88304 34.4428 1.98385 34.1037C2.08467 33.7645 2.18548 33.4209 2.29546 33.0818C2.40544 32.7426 2.51084 32.4035 2.6254 32.0644C2.73997 31.7253 2.85911 31.3954 2.97826 31.0609C3.0974 30.7263 3.2303 30.3918 3.35861 30.0619C3.48692 29.7319 3.61981 29.402 3.75728 29.0721C3.89476 28.7421 4.03682 28.4168 4.18346 28.0914C4.3301 27.766 4.47216 27.4453 4.64171 27.1245C4.81126 26.8037 4.94874 26.4784 5.09996 26.1622C5.25118 25.846 5.42532 25.5252 5.59029 25.2136C5.75526 24.902 5.92481 24.5858 6.09895 24.2742C6.27308 23.9626 6.4518 23.6555 6.63052 23.3577C6.80924 23.0598 6.99254 22.7482 7.18042 22.4412C7.3683 22.1341 7.56077 21.8363 7.75323 21.5247C7.9457 21.213 8.14733 20.9289 8.34438 20.6357C8.54143 20.3424 8.75222 20.0491 8.95844 19.7604C9.16465 19.4717 9.37544 19.1876 9.59082 18.9035C9.8062 18.6193 10.0216 18.3352 10.2415 18.0557C10.4615 17.7762 10.6998 17.4966 10.9106 17.2217L11.598 16.3968C11.8317 16.1265 12.0562 15.8607 12.3037 15.5949C12.5511 15.3291 12.7848 15.0679 13.0323 14.8113C13.2797 14.5547 13.5226 14.298 13.7747 14.0414C14.0267 13.7848 14.2787 13.5419 14.5308 13.2945C14.7828 13.047 15.0486 12.7996 15.3098 12.5613C15.571 12.323 15.8368 12.103 16.1026 11.8418L16.9091 11.1453L17.7339 10.4671C18.0135 10.2471 18.293 10.0088 18.5771 9.80717C18.8612 9.60554 19.1408 9.37642 19.4295 9.16562C19.7182 8.95483 20.0069 8.74861 20.2956 8.54698C20.5843 8.34535 20.8821 8.14372 21.18 7.94209C21.4779 7.74046 21.7757 7.55258 22.0965 7.3647C22.4173 7.17681 22.6968 6.98435 23.013 6.80105C23.3292 6.61775 23.6225 6.43903 23.9295 6.26031L24.846 5.74249C25.1622 5.57293 25.4738 5.40338 25.79 5.24299C26.1062 5.0826 26.427 4.92222 26.7477 4.78474C27.0685 4.64727 27.3893 4.47771 27.7101 4.32649C28.0309 4.17527 28.3608 4.03321 28.6907 3.86824C29.0207 3.70327 29.346 3.58871 29.676 3.45581L30.6612 3.10754L31.6648 2.74094L32.6775 2.39725C33.0105 2.28727 33.3496 2.18187 33.6948 2.08106C34.0339 1.97566 34.3776 1.87485 34.7213 1.7832C35.065 1.69155 35.4087 1.59531 35.7524 1.50824C36.0961 1.42118 36.4443 1.33411 36.7926 1.25621L37.8328 1.02708L38.8822 0.816285C39.2305 0.75213 39.5834 0.692558 39.9362 0.637568C40.2891 0.582577 40.6419 0.527587 40.9948 0.481762C41.3476 0.435937 41.6867 0.358034 42.0533 0.358034C42.4199 0.358034 42.759 0.280132 43.1165 0.248054C43.4739 0.215976 43.8268 0.188481 44.1796 0.165569C44.5325 0.142656 44.8899 0.119744 45.2473 0.105996C45.6048 0.0922486 45.9576 0.0739184 46.3151 0.0693359C47.0254 0.0693359 47.7357 0.0693359 48.4505 0.0693359C48.808 0.0693359 49.1608 0.069336 49.5182 0.105996C49.8757 0.142656 50.2285 0.138074 50.586 0.165569L51.6491 0.248054C52.002 0.280132 52.3594 0.316792 52.7123 0.358034C53.0651 0.399277 53.418 0.440519 53.7708 0.490927C54.1237 0.541335 54.4765 0.58716 54.8294 0.646733C55.1822 0.706305 55.5305 0.761295 55.8788 0.825451C56.2271 0.889606 56.5799 0.958343 56.9282 1.03166C57.2764 1.10498 57.6247 1.1783 57.973 1.25621C58.3213 1.33411 58.6649 1.42118 59.0086 1.50824C59.3523 1.59531 59.7006 1.68696 60.0443 1.7832C60.388 1.87943 60.7271 1.97566 61.0662 2.08106C61.4053 2.18646 61.749 2.28727 62.0881 2.40183C62.4272 2.5164 62.7663 2.62638 63.1008 2.74552C63.4353 2.86467 63.7699 2.98381 64.1044 3.11212C64.4389 3.24043 64.7688 3.36416 65.0988 3.49706C65.4287 3.62995 65.7587 3.76742 66.084 3.90948C66.4094 4.05154 66.7347 4.1936 67.0601 4.36773C67.3855 4.54187 67.7062 4.6656 68.0224 4.82598C68.3386 4.98637 68.664 5.14218 68.9802 5.28424C69.2964 5.42629 69.6126 5.61418 69.9242 5.78373C70.2358 5.95328 70.552 6.12742 70.8407 6.30155L71.7572 6.84229C72.0596 7.02559 72.3667 7.21347 72.6737 7.40594C72.9807 7.5984 73.274 7.79087 73.5902 7.98792C73.9064 8.18497 74.1813 8.38201 74.47 8.58823C74.7587 8.79444 75.052 9.00065 75.3407 9.21145C75.6294 9.42224 75.9089 9.63304 76.1931 9.84842L77.0317 10.5083C77.3112 10.7328 77.5861 10.9665 77.8565 11.1865L78.663 11.8831C78.9334 12.1213 79.1946 12.3413 79.4558 12.6025C79.717 12.8637 79.9782 13.0883 80.2348 13.3357L80.9955 14.0827L81.7379 14.8525C81.9808 15.1091 82.2236 15.3703 82.4619 15.6361L83.163 16.3968C83.3968 16.6672 83.6213 16.9421 83.8504 17.2125C84.0796 17.4829 84.3087 17.767 84.5241 18.0465C84.7394 18.3261 84.9823 18.6102 85.1748 18.8943L85.8072 19.7512C86.0134 20.0399 86.215 20.3332 86.4166 20.6265C86.6183 20.9198 86.8153 21.2176 87.0078 21.5155C87.2002 21.8134 87.3927 22.1158 87.5806 22.432C87.7685 22.7482 87.9518 23.0369 88.1351 23.3485C88.3184 23.6601 88.4879 23.9626 88.6621 24.265C88.8362 24.5674 89.0058 24.8882 89.1753 25.2044C89.3449 25.5206 89.5007 25.8368 89.6611 26.153C89.8214 26.4692 89.9772 26.79 90.1193 27.1153C90.2614 27.4407 90.4172 27.7615 90.5776 28.0822C90.7379 28.403 90.8617 28.7375 90.9991 29.0629C91.1366 29.3883 91.2695 29.7228 91.4024 30.0527C91.5353 30.3827 91.659 30.7172 91.7782 31.0563C91.8973 31.3954 92.021 31.7207 92.1356 32.0599C92.2502 32.399 92.3602 32.7335 92.4656 33.0726C92.5709 33.4117 92.6763 33.7508 92.7772 34.0945C92.878 34.4382 92.9696 34.7819 93.0613 35.1256C93.1529 35.4692 93.24 35.8129 93.3225 36.1566C93.405 36.5003 93.4875 36.8486 93.5654 37.1968C93.6433 37.5451 93.712 37.8934 93.7807 38.2417C93.8495 38.5899 93.909 38.9382 93.9732 39.2911C94.0374 39.6439 94.0878 39.9968 94.1382 40.3496C94.1886 40.7025 94.239 41.0507 94.2848 41.4036C94.3306 41.7565 94.3673 42.1093 94.404 42.4622C94.4406 42.815 94.4727 43.1724 94.5002 43.5253C94.5277 43.8782 94.5552 44.2356 94.5735 44.593C94.5918 44.9505 94.6102 45.3033 94.6193 45.6562C94.6285 46.009 94.6423 46.3665 94.6468 46.7239C94.6468 47.0813 94.6468 47.4342 94.6468 47.7916C94.6468 48.1491 94.6468 48.5019 94.6193 48.8593C94.5918 49.2168 94.5918 49.5696 94.5735 49.9271C94.5552 50.2845 94.5277 50.6328 94.5002 50.9902C94.4727 51.3476 94.4406 51.6959 94.404 52.0534C94.3673 52.4108 94.326 52.7591 94.2848 53.1119C94.2436 53.4648 94.1932 53.8176 94.1382 54.1705C94.0832 54.5233 94.0328 54.8716 93.9732 55.2245C93.9136 55.5773 93.8449 55.9256 93.7807 56.2738C93.7166 56.6221 93.6387 56.9704 93.5654 57.3187C93.492 57.6669 93.4095 58.0152 93.3225 58.3589C93.2354 58.7026 93.1529 59.0509 93.0613 59.3945C92.9696 59.7382 92.8734 60.0773 92.7772 60.421C92.6809 60.7647 92.5709 61.1038 92.4656 61.4429C92.3602 61.782 92.2456 62.1211 92.131 62.4602C92.0165 62.7994 91.9019 63.1293 91.7782 63.4638C91.6544 63.7983 91.5307 64.1283 91.4024 64.4628C91.2741 64.7973 91.1366 65.1227 90.9991 65.4526C90.8617 65.7826 90.7196 66.1079 90.5776 66.4333C90.4355 66.7586 90.2843 67.0794 90.1193 67.4002C89.9543 67.721 89.8123 68.0417 89.6611 68.3625C89.5098 68.6833 89.3403 68.9949 89.1753 69.3111C89.0103 69.6273 88.8362 69.9389 88.6621 70.2276C88.4879 70.5163 88.3138 70.8462 88.1305 71.1441C87.9472 71.442 87.7685 71.7536 87.5806 72.0606C87.3927 72.3676 87.2048 72.6655 87.0078 72.9771C86.8107 73.2887 86.6183 73.5728 86.4166 73.8661L85.8072 74.7414C85.5964 75.0301 85.3902 75.3142 85.1748 75.5983C84.9594 75.8824 84.744 76.1665 84.5241 76.4461C84.3041 76.7256 84.0658 77.0051 83.8504 77.2755C83.635 77.5459 83.3922 77.8254 83.163 78.0958L82.4711 78.9023C82.2328 79.1681 81.9899 79.4293 81.7471 79.6859L81.0001 80.4558C80.7526 80.7078 80.5006 80.9553 80.244 81.2027C79.9874 81.4502 79.7262 81.6976 79.465 81.9359C79.2038 82.1742 78.938 82.3942 78.6722 82.6508C78.4064 82.9074 78.136 83.109 77.8657 83.3519C77.5953 83.5948 77.3203 83.8102 77.0408 84.0301C76.7613 84.2501 76.4863 84.4884 76.2022 84.6854C75.9181 84.8825 75.634 85.1208 75.3453 85.3316C75.0566 85.5424 74.7725 85.7486 74.4792 85.9502C74.1859 86.1518 73.8926 86.3535 73.5948 86.5505C73.2969 86.7476 73.0036 86.9446 72.7012 87.1325L71.7847 87.6961L70.8682 88.2369C70.5566 88.411 70.2495 88.5851 69.9517 88.7547C69.6538 88.9242 69.3239 89.0892 69.0077 89.2542L68.0545 89.7124C67.7337 89.8683 67.4084 90.0195 67.0876 90.1707C66.7668 90.3219 66.4369 90.464 66.1115 90.606C65.7862 90.7481 65.4562 90.8856 65.1263 91.0185C64.7963 91.1514 64.4618 91.2797 64.1319 91.4034C63.8019 91.5271 63.4628 91.6554 63.1283 91.77L62.1156 92.1137C61.7765 92.2237 61.4374 92.3336 61.0937 92.4345C60.75 92.5353 60.4155 92.6361 60.0718 92.7323C59.7281 92.8286 59.3798 92.9202 59.0361 93.0073L58.0005 93.2593C57.6522 93.3372 57.3085 93.4151 56.9603 93.4839L55.9063 93.6901C55.558 93.7542 55.2052 93.8138 54.8523 93.8688C54.4994 93.9238 54.1512 93.9788 53.7983 94.0246C53.4455 94.0704 53.0926 94.1162 52.7398 94.1575C52.3869 94.1987 52.0295 94.2354 51.6766 94.2675C51.3238 94.2995 50.9663 94.327 50.6089 94.3499C50.2515 94.3729 49.8986 94.3958 49.5457 94.4095C49.1929 94.4233 48.8355 94.4416 48.478 94.4462L47.3828 94.4737ZM47.3828 2.78218C47.0437 2.78218 46.7092 2.78218 46.3746 2.78218C46.0401 2.78218 45.7056 2.78218 45.3711 2.81426L44.3675 2.86925C44.0284 2.89369 43.6939 2.92119 43.3639 2.95174C43.0294 2.97923 42.6949 3.01589 42.365 3.05255C42.035 3.08921 41.6959 3.13045 41.366 3.17628L40.367 3.32292L39.3955 3.50622L38.4057 3.69869C38.0803 3.76742 37.7504 3.83616 37.425 3.91406C37.0996 3.99197 36.7697 4.06529 36.4443 4.14777L35.4729 4.40898C35.1521 4.49604 34.8267 4.59228 34.5059 4.68851C34.1852 4.78474 33.869 4.88556 33.5482 4.99095L32.595 5.31173L31.651 5.66C31.3394 5.77915 31.0232 5.89829 30.7345 6.0266C30.4458 6.15491 30.1113 6.27864 29.818 6.41153L28.9015 6.81938C28.5991 6.95685 28.2966 7.10349 27.985 7.25013C27.6734 7.39677 27.3801 7.54341 27.0685 7.70838C26.7569 7.87336 26.4774 8.01541 26.1795 8.16664L25.2997 8.65697C25.0094 8.82194 24.7207 8.99149 24.4336 9.16562C24.1495 9.33976 23.8608 9.51389 23.5812 9.69261C23.3017 9.87133 23.013 10.0546 22.7335 10.2425C22.4539 10.4304 22.179 10.6183 21.904 10.8107L21.0654 11.3927L20.2497 11.9976C19.984 12.2038 19.7182 12.41 19.4616 12.6208C19.2049 12.8316 18.9391 13.0424 18.6825 13.2578C18.4259 13.4732 18.1739 13.7161 17.9218 13.9131L17.1749 14.5867L16.4417 15.2787L15.7268 15.9844C15.4931 16.2227 15.2686 16.4427 15.0303 16.7084C14.792 16.9742 14.572 17.1988 14.3475 17.4462C14.1229 17.6937 13.8892 17.9457 13.6784 18.2023C13.4676 18.459 13.2202 18.711 13.0323 18.9676C12.8444 19.2242 12.6107 19.49 12.3999 19.7512C12.1891 20.0124 11.9875 20.2782 11.7858 20.5486C11.5842 20.819 11.3872 21.0847 11.1901 21.3597C10.9931 21.6346 10.8052 21.905 10.6173 22.1845C10.4294 22.4641 10.2415 22.739 10.0582 23.0186L9.5175 23.8663C9.34337 24.1504 9.16923 24.4391 8.99968 24.7278C8.83012 25.0165 8.66515 25.3098 8.50018 25.6031C8.33521 25.8964 8.17941 26.1897 8.04193 26.4829C7.90446 26.7762 7.7349 27.0787 7.58368 27.3994C7.43246 27.7202 7.28582 28.0043 7.12543 28.3159C6.96504 28.6276 6.8459 28.9208 6.70842 29.2324C6.57095 29.5441 6.43805 29.8465 6.30974 30.1489C6.18143 30.4514 6.05312 30.7676 5.93398 31.0654C5.81483 31.3633 5.6911 31.6887 5.57654 31.982C5.46198 32.2752 5.352 32.6143 5.24202 32.9305C5.13204 33.2467 5.03122 33.5629 4.93041 33.8837C4.82959 34.2045 4.72878 34.5252 4.63713 34.846C4.54548 35.1668 4.45383 35.4922 4.36676 35.8175C4.27969 36.1429 4.19721 36.4636 4.1193 36.789C4.0414 37.1144 3.96808 37.4397 3.89476 37.7697C3.82144 38.0996 3.75728 38.425 3.69313 38.7503C3.62897 39.0757 3.5694 39.4102 3.50983 39.7401C3.45026 40.0701 3.39985 40.4046 3.35402 40.7346C3.3082 41.0645 3.25779 41.399 3.21655 41.729C3.17531 42.0589 3.13865 42.3934 3.10199 42.7279C3.06533 43.0625 3.03783 43.397 3.01034 43.7315L2.9416 44.7305C2.92327 45.0635 2.90952 45.398 2.90035 45.7341C2.90035 46.0732 2.90035 46.4077 2.90035 46.7422C2.90035 47.0767 2.90035 47.4113 2.90035 47.7458C2.90035 48.0803 2.90035 48.4148 2.90035 48.7539C2.90035 49.0931 2.92327 49.423 2.9416 49.7575L3.00575 50.7657C3.03325 51.1002 3.06533 51.4347 3.0974 51.7692C3.12948 52.1038 3.17072 52.4337 3.21197 52.7682C3.25321 53.1028 3.29903 53.4327 3.34944 53.7626C3.39985 54.0926 3.45026 54.4225 3.50525 54.757C3.56024 55.0916 3.62439 55.4123 3.68855 55.7423C3.7527 56.0722 3.81686 56.4022 3.89018 56.7275C3.9635 57.0529 4.03682 57.3828 4.11472 57.7082C4.19262 58.0335 4.27969 58.3589 4.36218 58.6842C4.44466 59.0096 4.54089 59.3304 4.63254 59.6512C4.72419 59.9719 4.82501 60.2927 4.92582 60.6135C5.02664 60.9343 5.12746 61.2505 5.23744 61.5667C5.34742 61.8829 5.4574 62.199 5.57196 62.5152C5.68652 62.8314 5.80567 63.143 5.9294 63.4547C6.05312 63.7663 6.17685 64.0779 6.30516 64.3712C6.43347 64.6644 6.56636 64.9898 6.70384 65.2877C6.84131 65.5855 6.97879 65.8971 7.12085 66.2042C7.26291 66.5112 7.40955 66.8045 7.5791 67.1207C7.74865 67.4369 7.88155 67.721 8.03735 68.0372C8.19316 68.3534 8.35354 68.6237 8.4956 68.917C8.63766 69.2103 8.82554 69.5036 8.9951 69.7923C9.16465 70.081 9.33878 70.3651 9.5175 70.6538C9.69622 70.9425 9.87035 71.222 10.0537 71.5015C10.237 71.7811 10.4248 72.0606 10.6127 72.3401C10.8006 72.6197 10.9931 72.89 11.1855 73.1604C11.378 73.4308 11.5842 73.7057 11.7813 73.9715L12.3953 74.7689C12.6015 75.0301 12.8123 75.2913 13.0277 75.5479C13.2431 75.8045 13.4585 76.0657 13.6738 76.3178C13.8892 76.5698 14.1321 76.8264 14.3429 77.0739C14.5537 77.3213 14.8011 77.5688 15.0257 77.8117C15.2502 78.0545 15.4839 78.2974 15.7222 78.5311C15.9605 78.7648 16.1805 78.9894 16.4417 79.2414C16.7029 79.4934 16.8999 79.6997 17.1703 79.9334C17.4407 80.1671 17.6652 80.3916 17.9172 80.6024C18.1693 80.8132 18.4213 81.0607 18.6779 81.2623L19.4524 81.8993L20.2452 82.5225C20.5109 82.7241 20.7767 82.9257 21.0471 83.1228C21.3175 83.3198 21.5924 83.5169 21.8674 83.7094L22.6968 84.2776C22.9763 84.4655 23.2605 84.6442 23.54 84.8229C23.8195 85.0016 24.1082 85.1803 24.3969 85.3545L25.263 85.8631L26.1429 86.3535C26.4407 86.5139 26.734 86.6697 27.0364 86.8117L27.9529 87.27L28.8694 87.7007L29.786 88.1086C30.093 88.2415 30.4046 88.3698 30.7025 88.4935C31.0003 88.6172 31.3303 88.741 31.619 88.8601L32.563 89.2084L33.5161 89.5291C33.8369 89.6345 34.1531 89.7354 34.4739 89.8316C34.7946 89.9278 35.12 90.0241 35.4408 90.1111C35.7616 90.1982 36.0869 90.2853 36.4123 90.3677C36.7376 90.4502 37.0676 90.5327 37.3929 90.606L38.3782 90.8214C38.7035 90.8856 39.0335 90.9543 39.3634 91.0139L40.3532 91.1834L41.3476 91.3301L42.3466 91.4538C42.6811 91.4905 43.0157 91.5271 43.3502 91.5546C43.6847 91.5821 44.0147 91.6142 44.3492 91.6371L45.3573 91.6921C45.6919 91.6921 46.0264 91.7196 46.3609 91.7242C47.0299 91.7242 47.7036 91.7242 48.3726 91.7242C48.7071 91.7242 49.0417 91.7242 49.3808 91.6921L50.3843 91.6371C50.7173 91.6157 51.0519 91.5882 51.3879 91.5546C51.7179 91.5271 52.0524 91.4905 52.3869 91.4538C52.7214 91.4171 53.0514 91.3759 53.3859 91.3301L54.3803 91.1834L55.3747 91.0139L56.3645 90.8214L57.3452 90.606C57.6705 90.5327 57.9959 90.4502 58.3213 90.3677C58.6466 90.2853 58.972 90.2028 59.2973 90.1111C59.6227 90.0195 59.9389 89.9278 60.2597 89.8316L61.222 89.5291C61.5382 89.4237 61.8544 89.3184 62.1751 89.2038L63.1191 88.8601C63.4308 88.741 63.7424 88.6218 64.0356 88.4935C64.3289 88.3652 64.6543 88.2415 64.9521 88.1086C65.25 87.9757 65.5708 87.8382 65.8687 87.7007L66.7852 87.27L67.7017 86.8117C67.9995 86.6605 68.2974 86.5047 68.5907 86.3535C68.8839 86.2022 69.1772 86.0281 69.4705 85.8631L70.3366 85.3545C70.6253 85.1803 70.9094 85.0062 71.1935 84.8229C71.4776 84.6396 71.7572 84.4655 72.0367 84.2776L72.8661 83.7094C73.1457 83.5169 73.416 83.3244 73.6864 83.1274L74.4929 82.5225L75.2811 81.8993L76.0556 81.2623C76.3122 81.0469 76.5642 80.804 76.8163 80.607C77.0683 80.4099 77.3204 80.1487 77.5678 79.9288L78.2964 79.2414C78.5393 79.0077 78.7776 78.7832 79.0113 78.5357C79.245 78.2882 79.4695 78.0774 79.7124 77.8117C79.9553 77.5459 80.1707 77.3213 80.3952 77.0739C80.6198 76.8264 80.8535 76.5744 81.0597 76.3178C81.2659 76.0611 81.495 75.8091 81.7058 75.5525C81.9166 75.2959 82.132 75.0301 82.3382 74.7689L82.9523 73.9715C83.1539 73.7057 83.3509 73.4354 83.548 73.1604C83.745 72.8855 83.9329 72.6151 84.1254 72.3356C84.3178 72.056 84.5011 71.7811 84.6844 71.5015L85.2206 70.6538C85.3947 70.3697 85.5689 70.081 85.7384 69.7923C85.908 69.5036 86.0775 69.2103 86.2379 68.9216C86.3983 68.6329 86.5633 68.3304 86.6962 68.0372C86.8291 67.7439 87.0078 67.4414 87.1544 67.1436C87.3011 66.8457 87.4523 66.5387 87.6127 66.2271C87.7731 65.9155 87.8968 65.6222 88.0343 65.3106L88.4329 64.3941C88.5612 64.087 88.685 63.7754 88.8087 63.4776C88.9324 63.1797 89.047 62.8543 89.1616 62.5381C89.2761 62.222 89.3907 61.9058 89.4961 61.5896C89.6015 61.2734 89.7115 60.9526 89.8123 60.6364C89.9131 60.3202 90.0093 59.9949 90.101 59.6695C90.1926 59.3441 90.2843 59.0279 90.3713 58.7026C90.4584 58.3772 90.5409 58.0564 90.6188 57.7311C90.6967 57.4057 90.7746 57.0758 90.8433 56.7504C90.9121 56.4251 90.9854 56.0951 91.0496 55.7652C91.1137 55.4352 91.1733 55.1099 91.2283 54.7799C91.2833 54.45 91.3383 54.1155 91.3887 53.7855L91.5261 52.7866C91.5674 52.4566 91.604 52.1221 91.6361 51.7876C91.6682 51.453 91.7003 51.1231 91.7278 50.7886C91.7553 50.4541 91.7782 50.1195 91.7965 49.785C91.8148 49.4505 91.8286 49.116 91.8423 48.7814C91.8561 48.4469 91.8423 48.1124 91.8652 47.7779C91.8882 47.4433 91.8652 47.1088 91.8652 46.7743C91.8652 46.4398 91.8652 46.1053 91.8423 45.7707C91.8194 45.4362 91.8148 45.1017 91.7965 44.7672C91.7782 44.4326 91.7553 44.0935 91.7278 43.759C91.7003 43.4245 91.6728 43.0945 91.6361 42.76C91.5995 42.4255 91.5674 42.0956 91.5216 41.761C91.4757 41.4265 91.4345 41.0966 91.3887 40.7666C91.3428 40.4367 91.2878 40.1022 91.2283 39.7722C91.1687 39.4423 91.1137 39.1169 91.0496 38.787C90.9854 38.457 90.9167 38.1271 90.8433 37.8017C90.77 37.4764 90.6967 37.1464 90.6188 36.8211C90.5409 36.4957 90.4584 36.1704 90.3713 35.8496C90.2843 35.5288 90.1972 35.1989 90.101 34.8781C90.0047 34.5573 89.9131 34.2365 89.8123 33.9158C89.7115 33.595 89.6061 33.2788 89.5007 32.9626C89.3953 32.6464 89.2807 32.3302 89.1661 32.0186C89.0516 31.707 88.9324 31.3862 88.8087 31.0746C88.685 30.763 88.5612 30.4514 88.4329 30.1581L88.0343 29.2416C87.8968 28.9346 87.7547 28.6321 87.6127 28.3251C87.4706 28.0181 87.324 27.7202 87.1544 27.4086C86.9849 27.097 86.852 26.8129 86.6962 26.5196C86.5404 26.2263 86.38 25.9239 86.2379 25.6352C86.0959 25.3465 85.9126 25.0486 85.7384 24.7599C85.5643 24.4712 85.3947 24.1825 85.2206 23.8984C85.0465 23.6143 84.8632 23.3348 84.6844 23.0506C84.5057 22.7665 84.3133 22.4916 84.1254 22.2166C83.9375 21.9417 83.745 21.6621 83.548 21.3918C83.3509 21.1214 83.1539 20.8464 82.9523 20.5807L82.3382 19.7833C82.1335 19.5236 81.9227 19.2624 81.7058 18.9997C81.495 18.7431 81.2796 18.4865 81.0597 18.2344C80.8397 17.9824 80.6014 17.7303 80.3952 17.4783C80.189 17.2263 79.937 16.9834 79.7124 16.7405C79.4879 16.4976 79.2542 16.2548 79.0113 16.0165C78.7684 15.7782 78.553 15.5582 78.2964 15.3108C78.0398 15.0633 77.8107 14.8525 77.5632 14.6188C77.3158 14.3851 77.0729 14.1606 76.8209 13.9498C76.5688 13.739 76.3122 13.4915 76.0556 13.2899C75.799 13.0883 75.5423 12.8637 75.2811 12.6529L74.4929 12.0297L73.6864 11.4248L72.8707 10.8428C72.5958 10.6504 72.3162 10.4625 72.0367 10.2746C71.7572 10.0867 71.4776 9.90799 71.1935 9.72927C70.9094 9.55056 70.6253 9.37184 70.3366 9.1977C70.0479 9.02357 69.7638 8.85401 69.4705 8.68904C69.1772 8.52407 68.8885 8.3591 68.5907 8.19871C68.2928 8.03833 67.9995 7.88252 67.7017 7.74046C67.4038 7.5984 67.1013 7.43802 66.7852 7.28221L65.8687 6.85145L64.9521 6.44361C64.6405 6.31072 64.3335 6.18241 64.0356 6.05868C63.7378 5.93495 63.4124 5.81122 63.1191 5.69208C62.8259 5.57293 62.4868 5.45837 62.1706 5.34839C61.8544 5.23841 61.5382 5.12843 61.2174 5.02303C60.8966 4.91763 60.5804 4.81682 60.2597 4.72059C59.9389 4.62435 59.6181 4.52812 59.2927 4.44105C58.9674 4.35398 58.6466 4.26233 58.3213 4.17985L57.3452 3.94614C57.0152 3.86824 56.6899 3.7995 56.3599 3.73076C56.03 3.66203 55.7046 3.59787 55.3747 3.5383L54.3803 3.36874L53.3859 3.2221C53.056 3.17628 52.7214 3.13504 52.3869 3.09838C52.0524 3.06172 51.7224 3.02506 51.3833 2.99756C51.0442 2.97007 50.7189 2.93799 50.3843 2.91508L49.3808 2.86009L48.3726 2.82343L47.3828 2.78218Z" fill="black"/>
<path d="M47.8915 65.1089C47.4607 65.1089 47.03 65.0997 46.5992 65.0814C45.9256 65.0585 45.4536 65.031 45.1557 65.0081C44.8578 64.9852 44.4592 64.9348 43.8543 64.8569C43.2494 64.779 42.6857 64.6919 42.1771 64.6002C41.6684 64.5086 40.9306 64.3436 39.9866 64.1099C39.0426 63.8762 38.3553 63.6883 37.9016 63.5463L36.8522 63.2026C36.5681 63.1063 36.1282 62.946 35.537 62.7168C34.9459 62.4877 34.1898 62.1669 33.287 61.7545C32.3842 61.3421 31.7977 61.0671 31.454 60.8838C31.1103 60.7005 30.675 60.4714 30.0792 60.1369C29.4835 59.8023 28.8557 59.4724 28.2966 59.0921L27.1373 58.368L26.5645 58.0106L26.152 57.7356L25.8587 57.5432C25.0931 57.0479 24.5555 56.2688 24.3643 55.3772C24.2696 54.9357 24.2628 54.4799 24.3443 54.0358C24.4258 53.5916 24.5939 53.1679 24.8391 52.7888C25.0844 52.4097 25.4019 52.0826 25.7735 51.8262C26.1452 51.5697 26.5637 51.389 27.0051 51.2943C27.8968 51.1031 28.8278 51.2739 29.5935 51.7692L29.9876 52.0304L30.3175 52.2504L30.7758 52.5528L31.9122 53.2585C32.3705 53.5564 32.8883 53.8542 33.397 54.1338C33.9056 54.4133 34.3135 54.6287 34.5609 54.7662C34.7076 54.8441 35.0925 55.032 36.119 55.4994C36.8843 55.8522 37.4937 56.118 37.9841 56.3013C38.4744 56.4846 38.8273 56.6221 39.061 56.7046L39.9454 56.9887C40.1608 57.0574 40.6236 57.1903 41.618 57.4469C42.6124 57.7036 43.1302 57.7998 43.3914 57.8502C43.7764 57.9189 44.2163 57.9877 44.6975 58.0472C45.1786 58.1068 45.5223 58.1481 45.7285 58.1664C45.9347 58.1847 46.3059 58.203 46.8512 58.226C47.3966 58.2489 47.951 58.2489 48.4918 58.226C49.0325 58.203 49.6466 58.1756 50.3248 58.1068C51.003 58.0381 51.64 57.9556 52.2219 57.8548C52.8039 57.754 53.3905 57.6302 53.9312 57.4973C54.472 57.3645 54.9348 57.2453 55.2372 57.1537C55.3564 57.1216 55.7734 56.9887 56.974 56.535C57.863 56.2051 58.5458 55.9301 58.9995 55.7285C59.4531 55.5269 60.0076 55.2702 60.5667 54.9861C61.1258 54.702 61.4832 54.5279 61.639 54.4454L62.276 54.1017L63.2154 53.5655C63.6003 53.3456 63.9211 53.1577 64.1731 53.0065L64.8926 52.5803L65.5296 52.1954L65.9374 51.9433C66.3198 51.7026 66.7459 51.5396 67.1914 51.4636C67.6368 51.3875 68.0929 51.4 68.5335 51.5002C68.9741 51.6004 69.3907 51.7864 69.7594 52.0476C70.1282 52.3088 70.4419 52.6401 70.6826 53.0225C70.9233 53.405 71.0863 53.8311 71.1624 54.2765C71.2384 54.7219 71.226 55.178 71.1258 55.6186C71.0256 56.0593 70.8395 56.4758 70.5783 56.8446C70.3171 57.2133 69.9858 57.527 69.6034 57.7677L69.1452 58.0564L68.4669 58.4688L67.6925 58.9271L66.6935 59.5091C66.2765 59.7519 65.9191 59.9673 65.6212 60.1185L64.8926 60.5126C64.7047 60.6135 64.2877 60.8242 63.6416 61.1404C62.9954 61.4566 62.4043 61.7407 61.8452 61.9928C61.2861 62.2448 60.4705 62.5794 59.4165 62.9689C58.0142 63.4913 57.4827 63.6608 57.2031 63.7433C56.7907 63.867 56.2637 64.0045 55.5901 64.1695C54.9165 64.3345 54.1787 64.4903 53.4363 64.6277C52.6939 64.7652 51.8737 64.866 51.0213 64.9531C50.169 65.0402 49.3854 65.086 48.6842 65.1043L47.8915 65.1089Z" fill="black"/>
<path d="M18.5542 45.0832C17.9232 45.0832 17.3043 44.9095 16.7654 44.5811C16.2266 44.2527 15.7885 43.7822 15.4993 43.2213C15.2101 42.6605 15.081 42.0308 15.1259 41.4013C15.1709 40.7719 15.3883 40.167 15.7543 39.6529C15.9835 39.3367 16.1438 39.1122 16.2447 38.9793C16.3455 38.8464 16.5013 38.6356 16.7258 38.3469C16.9504 38.0582 17.1245 37.8291 17.2207 37.7099L17.3995 37.4762L17.6836 37.1325C17.821 36.9721 17.9814 36.7888 18.1739 36.578C18.3664 36.3672 18.4763 36.2527 18.4947 36.2343L18.9529 35.7761C19.237 35.4966 19.5212 35.2308 19.7961 34.9925C20.0711 34.7542 20.3277 34.5342 20.511 34.4059C20.6943 34.2776 21.0655 34.0347 21.5237 33.7277C21.982 33.4207 22.3486 33.2053 22.6235 33.0587C22.8985 32.912 23.2238 32.7516 23.6637 32.55C24.1037 32.3484 24.484 32.1926 24.8277 32.0643C25.1714 31.9359 25.4372 31.8397 25.7075 31.7526L26.1658 31.6014L26.7249 31.4365L27.2839 31.2852L28.2646 31.0286C29.1475 30.8019 30.0844 30.9353 30.869 31.3994C31.6536 31.8635 32.2218 32.6202 32.4484 33.5032C32.6751 34.3861 32.5417 35.323 32.0776 36.1076C31.6136 36.8922 30.8568 37.4603 29.9739 37.687L29.0574 37.9207L28.5991 38.0536L28.2463 38.1544L27.788 38.2965C27.6185 38.3515 27.426 38.4202 27.2198 38.4981C27.0136 38.576 26.7615 38.6768 26.4774 38.8097C26.0787 38.9884 25.9138 39.0755 25.8634 39.103C25.8129 39.1305 25.6938 39.1992 25.2493 39.4879C24.8048 39.7766 24.6627 39.882 24.6582 39.8866C24.5604 39.9599 24.4321 40.0653 24.2732 40.2028C24.1037 40.3494 23.925 40.5144 23.7417 40.6977L23.2192 41.2293L22.9076 41.5776L22.7564 41.7563L22.5594 42.0083C22.4723 42.1137 22.3394 42.2878 22.1469 42.5353C21.9545 42.7828 21.8078 42.9936 21.7253 43.0898C21.6429 43.186 21.51 43.3831 21.3267 43.6443C21.0116 44.0866 20.5959 44.4477 20.1139 44.6979C19.6319 44.948 19.0973 45.0801 18.5542 45.0832Z" fill="black"/>
<path d="M76.2205 45.8025C75.6728 45.8038 75.1328 45.6739 74.6456 45.4235C74.1585 45.1732 73.7384 44.8097 73.4206 44.3636C73.2327 44.0978 73.0952 43.9054 73.0173 43.8C72.9394 43.6946 72.7928 43.5113 72.6003 43.2547L72.1971 42.7368L71.9863 42.4756L71.8351 42.2969C71.7526 42.1961 71.6472 42.0815 71.5234 41.9441L71.331 41.7333L71.0148 41.4171C70.8315 41.2338 70.6528 41.0688 70.4786 40.9222C70.3228 40.7893 70.1945 40.6793 70.0983 40.606C70.0983 40.606 69.9654 40.5052 69.5071 40.2073C69.0489 39.9094 68.9068 39.8315 68.8931 39.8224C68.8793 39.8132 68.6777 39.7124 68.279 39.5337C67.9857 39.3962 67.7383 39.2908 67.5412 39.2175C67.3442 39.1441 67.1334 39.0708 66.9593 39.0158L66.5331 38.8784C66.4644 38.8784 66.3452 38.8188 66.1711 38.773L65.7128 38.6401L64.7963 38.4064C63.9134 38.1797 63.1566 37.6116 62.6925 36.8269C62.2285 36.0423 62.0951 35.1055 62.3218 34.2225C62.5484 33.3396 63.1166 32.5828 63.9012 32.1187C64.6858 31.6547 65.6226 31.5213 66.5056 31.748L67.4771 32L68.0407 32.1604C68.3111 32.2337 68.499 32.2887 68.5952 32.3208L69.0535 32.472C69.3238 32.5637 69.6171 32.6645 69.9379 32.7836C70.2587 32.9028 70.6573 33.0723 71.0973 33.2694C71.5372 33.4664 71.8763 33.636 72.1375 33.778C72.3987 33.9201 72.7653 34.14 73.2373 34.4517C73.7093 34.7633 74.0163 34.9649 74.2363 35.1344C74.4563 35.304 74.6579 35.469 74.9512 35.721C75.2444 35.973 75.5148 36.2251 75.7989 36.5046L76.2114 36.9079L76.5734 37.2974C76.7704 37.5128 76.9354 37.6961 77.0683 37.8519L77.3616 38.2093L77.5357 38.4247C77.6319 38.5484 77.8015 38.7592 78.0352 39.0662C78.2689 39.3733 78.4201 39.5703 78.5164 39.6986C78.6126 39.8269 78.7821 40.0606 79.0021 40.3723C79.3696 40.8856 79.5884 41.4904 79.6344 42.12C79.6805 42.7497 79.5519 43.3798 79.263 43.9412C78.974 44.5025 78.5358 44.9732 77.9966 45.3016C77.4574 45.63 76.8381 45.8034 76.2068 45.8025H76.2205Z" fill="black"/>
<path d="M109.902 35.6663H109.508H109.114H108.715L108.312 35.6342L107.927 35.5929L107.519 35.5425L107.134 35.483L106.74 35.4188L106.341 35.3409L105.961 35.2584L105.562 35.1622L105.196 35.0614C105.049 35.0247 104.921 34.9835 104.793 34.9468C104.664 34.9102 104.55 34.8735 104.421 34.8277L104.046 34.6994L103.674 34.5665L103.303 34.4198C103.175 34.3694 103.051 34.319 102.932 34.264C102.813 34.209 102.685 34.1586 102.561 34.099L102.222 33.9387L101.851 33.7554L101.502 33.5721L101.154 33.375L100.81 33.1734L100.476 32.9672C100.352 32.8893 100.242 32.8205 100.137 32.7472L99.8114 32.5272L99.486 32.2935L99.1698 32.0552L98.8537 31.8078L98.542 31.5512C98.4412 31.4687 98.3358 31.377 98.2304 31.2808L97.9509 31.0288L97.653 30.7446C97.5614 30.6576 97.4652 30.5659 97.3735 30.4697L97.1031 30.1902C97.0023 30.0848 96.9107 29.9885 96.8236 29.8877C96.7365 29.7869 96.6495 29.6953 96.5624 29.5944L96.3058 29.2874L96.0583 28.9804L95.8063 28.655L95.5772 28.3434C95.4993 28.2288 95.4214 28.1235 95.348 28.0089C95.2747 27.8943 95.206 27.8027 95.1372 27.6927L94.9173 27.3536C94.844 27.2299 94.7706 27.1107 94.7065 26.9962C94.6423 26.8816 94.5782 26.7808 94.514 26.6662L94.3261 26.3179C94.2574 26.1896 94.1978 26.0751 94.1428 25.9605C94.0878 25.8459 94.0237 25.7222 93.9687 25.6031L93.8083 25.2502C93.7442 25.1082 93.6892 24.9844 93.6388 24.8607L93.4967 24.5124L93.3501 24.1183C93.3088 24.0038 93.263 23.88 93.2217 23.7563C93.1805 23.6326 93.1347 23.4951 93.0934 23.3668C93.0522 23.2385 93.0155 23.1148 92.9789 22.9865C92.9422 22.8581 92.9101 22.7436 92.8781 22.6199C92.846 22.4961 92.8047 22.3495 92.7772 22.2212C92.7498 22.0929 92.7177 21.9691 92.6856 21.8362L92.6031 21.4376C92.6031 21.3138 92.5573 21.1809 92.5344 21.0481C92.5115 20.9152 92.4931 20.796 92.4748 20.6723L92.4152 20.2553C92.4152 20.1407 92.3877 20.0078 92.374 19.8795C92.3602 19.7512 92.3465 19.6091 92.3373 19.4717C92.3282 19.3342 92.3373 19.2059 92.3098 19.0822C92.2823 18.9584 92.3098 18.8072 92.3098 18.6743C92.3098 18.5414 92.3098 18.4131 92.3098 18.2802V17.877C92.3098 17.7441 92.3098 17.6112 92.3098 17.4829C92.3098 17.3545 92.3098 17.2125 92.3098 17.075C92.3098 16.9375 92.3098 16.8276 92.3373 16.6992C92.3648 16.5709 92.3373 16.4151 92.374 16.2777C92.4106 16.1402 92.4015 16.0165 92.4198 15.8881C92.4381 15.7598 92.4519 15.6453 92.4702 15.5124C92.4885 15.3795 92.5115 15.2328 92.5344 15.1091C92.5573 14.9854 92.5802 14.8387 92.6077 14.7059C92.6352 14.573 92.6581 14.4538 92.6856 14.3209C92.7131 14.188 92.7452 14.0551 92.7772 13.9268C92.8093 13.7985 92.8414 13.6794 92.8735 13.5511C92.9056 13.4228 92.9468 13.2853 92.9835 13.157C93.0201 13.0287 93.0568 12.9095 93.098 12.7812C93.1393 12.6529 93.1759 12.5337 93.2217 12.4009C93.2676 12.268 93.3088 12.1534 93.3546 12.0297L93.4875 11.6722C93.5471 11.5256 93.5929 11.4064 93.6433 11.2873L93.7946 10.9344L93.9641 10.5678C94.0222 10.4395 94.0817 10.3158 94.1428 10.1967L94.3215 9.85297C94.3857 9.72925 94.4453 9.61468 94.5094 9.50012L94.7202 9.1381C94.7706 9.04645 94.8394 8.93189 94.9127 8.81733L95.1281 8.47822C95.206 8.35449 95.2793 8.24909 95.3526 8.13911C95.4259 8.02913 95.4947 7.92832 95.5726 7.82292L95.8063 7.50215L96.0583 7.1722L96.3012 6.87434C96.3928 6.76436 96.4753 6.66355 96.5624 6.56731C96.6495 6.47108 96.7411 6.3611 96.8328 6.26028C96.9244 6.15947 97.0023 6.07698 97.0894 5.98075L97.3735 5.68747L97.6485 5.41252L97.9509 5.1284L98.2533 4.85345L98.5466 4.606C98.6429 4.52351 98.7391 4.44103 98.8399 4.36312C98.9407 4.28522 99.0644 4.17982 99.1744 4.09734C99.2844 4.01485 99.3761 3.94612 99.486 3.86363L99.8114 3.62992L100.132 3.41454C100.247 3.33664 100.357 3.26332 100.471 3.19458C100.586 3.12585 100.691 3.05253 100.806 2.98837C100.92 2.92421 101.04 2.84631 101.159 2.77757C101.278 2.70884 101.383 2.64926 101.502 2.58969L101.851 2.40181L102.208 2.22309L102.575 2.05354L102.928 1.89315L103.299 1.73734L103.674 1.5907C103.794 1.54488 103.917 1.49905 104.046 1.45781C104.174 1.41657 104.293 1.37074 104.421 1.3295L104.793 1.21036L105.187 1.09579L105.567 0.994977L105.961 0.898744L106.351 0.816259L106.74 0.738356L107.13 0.674201L107.528 0.614629L107.927 0.564221L108.326 0.522978L108.711 0.495483H109.109C109.244 0.495483 109.377 0.495483 109.508 0.495483C109.774 0.495483 110.044 0.495483 110.31 0.495483H110.709H111.094L111.506 0.532143L111.905 0.568804L112.294 0.619211L112.684 0.678784L113.078 0.742939L113.467 0.820842L113.857 0.903327L114.242 0.99956C114.379 1.03164 114.503 1.06371 114.622 1.10037L115.012 1.21036L115.387 1.3295L115.777 1.46239L116.153 1.59987L116.51 1.74193L116.886 1.89773L117.252 2.0627L117.61 2.22767L117.972 2.41097C118.077 2.46596 118.196 2.52554 118.316 2.59427C118.435 2.66301 118.549 2.718 118.664 2.78674L119.003 2.98379L119.351 3.19917L119.686 3.41913L120.002 3.6345L120.327 3.86821L120.653 4.11109L120.973 4.36312L121.271 4.61058L121.583 4.88095C121.665 4.95427 121.762 5.03675 121.853 5.12382L122.16 5.41252L122.444 5.69205L122.719 5.97617L122.985 6.26487L123.246 6.56273L123.503 6.86518C123.595 6.97974 123.682 7.08055 123.76 7.18595C123.838 7.29135 123.92 7.38758 123.998 7.49298C124.076 7.59838 124.158 7.70836 124.232 7.81376L124.465 8.1437C124.539 8.25368 124.612 8.36366 124.681 8.47364L124.905 8.82191L125.111 9.1656C125.171 9.26183 125.235 9.38098 125.304 9.50012L125.492 9.84381L125.675 10.2058L125.854 10.5724L126.005 10.8978C126.069 11.0353 126.12 11.1544 126.17 11.2736C126.22 11.3927 126.266 11.5118 126.312 11.631C126.358 11.7501 126.413 11.8968 126.459 12.0159C126.505 12.1351 126.55 12.2634 126.592 12.3917L126.715 12.7675C126.752 12.8912 126.793 13.0195 126.83 13.1524C126.867 13.2853 126.903 13.4044 126.935 13.5282C126.967 13.6519 127.004 13.7939 127.036 13.9222C127.068 14.0506 127.096 14.1789 127.123 14.3072C127.151 14.4355 127.178 14.5684 127.206 14.7059C127.233 14.8433 127.256 14.9671 127.279 15.0954C127.302 15.2237 127.32 15.3657 127.343 15.4986L127.394 15.8744C127.394 16.0165 127.426 16.1402 127.439 16.2639C127.453 16.3876 127.462 16.5434 127.476 16.6718C127.49 16.8001 127.476 16.933 127.499 17.0613C127.522 17.1896 127.499 17.3362 127.499 17.4691C127.499 17.602 127.499 17.7349 127.499 17.8678C127.499 18.0007 127.499 18.1336 127.499 18.2665C127.499 18.3994 127.499 18.5277 127.499 18.6606V19.0547C127.499 19.1967 127.499 19.3296 127.471 19.4579C127.444 19.5862 127.471 19.71 127.435 19.8337C127.398 19.9574 127.407 20.1178 127.389 20.2415C127.371 20.3653 127.352 20.5256 127.334 20.6585C127.316 20.7914 127.297 20.8968 127.274 21.0343C127.251 21.1718 127.229 21.2909 127.201 21.4192L127.119 21.8362C127.091 21.9508 127.064 22.0791 127.032 22.2074L126.935 22.5878C126.899 22.7253 126.862 22.849 126.83 22.9727C126.798 23.0964 126.747 23.2385 126.711 23.3668C126.674 23.4951 126.628 23.6143 126.587 23.738C126.546 23.8617 126.5 23.99 126.454 24.1138C126.408 24.2375 126.362 24.3566 126.321 24.4758C126.28 24.5949 126.216 24.737 126.165 24.8515C126.115 24.9661 126.06 25.1036 126 25.2319C125.941 25.3602 125.9 25.461 125.84 25.5847L125.666 25.9468C125.606 26.0659 125.547 26.1851 125.483 26.2996C125.418 26.4142 125.359 26.5333 125.295 26.6433C125.231 26.7533 125.162 26.8816 125.093 27.0007L124.887 27.3398L124.676 27.6744L124.456 28.0043L124.222 28.3388C124.158 28.4305 124.071 28.5405 123.989 28.655L123.746 28.9712C123.673 29.0675 123.585 29.1728 123.498 29.2782L123.251 29.5715C123.15 29.6907 123.068 29.7823 122.981 29.874C122.894 29.9656 122.802 30.0756 122.71 30.1718L122.435 30.4559L122.151 30.7355L121.862 31.0104L121.569 31.2762L121.262 31.5374C121.157 31.6291 121.056 31.7116 120.951 31.794C120.845 31.8765 120.749 31.9544 120.634 32.0415C120.52 32.1286 120.428 32.2019 120.318 32.2798L120.002 32.5089L119.672 32.7335L119.342 32.9488L119.003 33.1596L118.673 33.3521L118.32 33.5491L117.976 33.7324L117.614 33.9112L117.252 34.0807L116.886 34.2457L116.524 34.3969L116.143 34.5435L115.763 34.681L115.401 34.8048C115.268 34.8506 115.14 34.8918 115.007 34.9285L114.64 35.0339L114.242 35.1439L113.852 35.2355L113.467 35.318L113.082 35.3959L112.688 35.4601L112.294 35.5196L111.909 35.57L111.511 35.6113L111.103 35.6434H110.713H110.305L109.902 35.6663ZM109.902 7.29135H109.664H109.421H109.164H108.935L108.697 7.31426L108.454 7.34634L108.207 7.383L107.973 7.42424L107.735 7.47007L107.492 7.52047L107.253 7.58005L107.02 7.6442L106.786 7.70836L106.548 7.78626L106.337 7.85958L106.103 7.94207L105.874 8.03372L105.645 8.12537L105.434 8.2216L105.21 8.327L104.994 8.43239L104.774 8.55154L104.563 8.67069L104.357 8.78983L104.146 8.91814L103.94 9.05103C103.881 9.09228 103.812 9.1381 103.748 9.18851L103.537 9.33515L103.354 9.47263L103.157 9.62843L102.973 9.77965L102.79 9.93546L102.607 10.105L102.428 10.27C102.378 10.3204 102.318 10.3845 102.254 10.4441L102.084 10.6183L101.924 10.7924L101.764 10.9757L101.608 11.1636L101.452 11.3515L101.31 11.5393C101.258 11.6035 101.208 11.6722 101.159 11.7456C101.122 11.8005 101.072 11.8647 101.03 11.9334C100.989 12.0022 100.93 12.0801 100.884 12.1534C100.838 12.2267 100.797 12.2817 100.751 12.355C100.705 12.4283 100.677 12.4742 100.641 12.5429L100.508 12.772C100.471 12.8362 100.435 12.9095 100.393 12.9874C100.352 13.0653 100.325 13.1157 100.293 13.1845L100.178 13.4136L100.073 13.6473L99.981 13.8581L99.8847 14.0964L99.8068 14.298C99.7747 14.3851 99.7518 14.463 99.7243 14.5409C99.6968 14.6188 99.6739 14.6875 99.651 14.7608C99.6281 14.8342 99.6006 14.9212 99.5823 14.9946L99.509 15.2466C99.509 15.3107 99.4723 15.3886 99.454 15.4711C99.4356 15.5536 99.4127 15.6361 99.399 15.7094C99.3852 15.7827 99.3669 15.8606 99.3531 15.9386C99.3394 16.0165 99.3211 16.1081 99.3073 16.1814L99.2661 16.4426C99.2661 16.493 99.2661 16.5755 99.234 16.658C99.2019 16.7405 99.234 16.8367 99.2065 16.9192C99.179 17.0017 99.2065 17.075 99.1836 17.1529C99.1607 17.2308 99.1836 17.3041 99.1836 17.3866C99.1836 17.4691 99.1836 17.5562 99.1836 17.6341C99.1836 17.712 99.1836 17.7991 99.1836 17.8815V18.1198C99.1836 18.2023 99.1836 18.2848 99.1836 18.3673V18.6147V18.8622C99.1836 18.9263 99.1836 19.0043 99.2065 19.0822L99.234 19.3296C99.234 19.4258 99.234 19.5083 99.2707 19.5862L99.3073 19.8199L99.3486 20.0491C99.3486 20.1361 99.3806 20.214 99.399 20.2919C99.4173 20.3698 99.4311 20.4432 99.4494 20.5165C99.4677 20.5898 99.4952 20.6906 99.5135 20.7731L99.5777 20.9931C99.5777 21.0801 99.6235 21.1535 99.6464 21.2268C99.6693 21.3001 99.6968 21.3872 99.7243 21.4605C99.7518 21.5338 99.7747 21.6163 99.8068 21.6896C99.8389 21.7629 99.8664 21.8546 99.8939 21.9325L99.981 22.1479C100.018 22.2258 100.045 22.2991 100.077 22.3678L100.187 22.6015C100.21 22.6565 100.247 22.7298 100.283 22.8032L100.398 23.0323L100.513 23.2385L100.632 23.4447C100.677 23.5272 100.719 23.5913 100.76 23.6601L100.893 23.8663L101.021 24.0588L101.163 24.265L101.301 24.4529L101.452 24.6453C101.507 24.7141 101.557 24.7828 101.612 24.847L101.764 25.0257C101.819 25.0852 101.869 25.1494 101.924 25.2044L102.093 25.3923L102.254 25.5572C102.313 25.6214 102.373 25.6764 102.433 25.7314L102.602 25.8964L102.776 26.0522L102.964 26.2125L103.161 26.3775C103.221 26.4233 103.285 26.4783 103.354 26.5242L103.537 26.6662L103.748 26.8174L103.94 26.9503L104.156 27.0878L104.357 27.2115L104.568 27.3353L104.774 27.4498L104.994 27.569L105.21 27.6744L105.43 27.7752L105.65 27.876L105.874 27.9676L106.103 28.0593C106.172 28.0868 106.245 28.1143 106.323 28.1372L106.561 28.2197L106.758 28.3113L107.011 28.3847L107.235 28.4442L107.469 28.4992L107.712 28.5542L107.95 28.6L108.193 28.6413L108.427 28.6779L108.683 28.71H108.921H109.155H109.403H109.636C109.81 28.71 109.966 28.71 110.127 28.71H110.374H110.617H110.846L111.103 28.6825L111.336 28.655L111.584 28.6184L111.822 28.5771L112.051 28.5313L112.294 28.4809L112.519 28.4259L112.771 28.3572L112.986 28.2976L113.229 28.2197L113.458 28.1418L113.687 28.0593L113.912 27.9676L114.136 27.876L114.356 27.7798L114.59 27.6698L114.796 27.5644L115.012 27.4498L115.232 27.3307L115.442 27.207L115.649 27.0786L115.846 26.9503L116.047 26.8129L116.24 26.6754C116.313 26.6204 116.377 26.5746 116.437 26.5242L116.615 26.3867L116.822 26.2171L116.996 26.0659C117.065 26.0063 117.129 25.9513 117.188 25.8918L117.353 25.736L117.532 25.5618L117.702 25.3831C117.757 25.3281 117.807 25.2685 117.862 25.209L118.187 24.8332L118.329 24.6591L118.476 24.4666L118.618 24.2741L118.769 24.0588L118.893 23.8709L119.026 23.6601L119.15 23.4585L119.273 23.2385L119.397 23.014L119.507 22.8032C119.539 22.7344 119.571 22.6657 119.608 22.5969C119.645 22.5282 119.677 22.4503 119.704 22.377C119.732 22.3037 119.773 22.2212 119.8 22.1524C119.828 22.0837 119.874 21.9875 119.901 21.905C119.929 21.8225 119.956 21.7721 119.984 21.6896L120.066 21.4605C120.094 21.3826 120.117 21.3047 120.139 21.2268C120.162 21.1489 120.19 21.071 120.213 20.9931L120.277 20.7594C120.277 20.6906 120.318 20.6081 120.336 20.5302L120.391 20.2874C120.391 20.2049 120.424 20.1315 120.437 20.0628C120.451 19.9941 120.469 19.9024 120.483 19.8199C120.497 19.7375 120.506 19.6641 120.52 19.5862C120.534 19.5083 120.547 19.4075 120.556 19.3296L120.602 18.8484C120.602 18.766 120.602 18.6835 120.602 18.601C120.602 18.5185 120.602 18.4498 120.602 18.3673C120.602 18.2848 120.602 18.2115 120.602 18.1336C120.602 18.0557 120.602 17.964 120.602 17.8815C120.602 17.8036 120.602 17.7257 120.602 17.6478C120.602 17.5699 120.602 17.4829 120.602 17.4004C120.602 17.3179 120.602 17.2491 120.602 17.1667L120.552 16.6718C120.552 16.6076 120.552 16.5343 120.524 16.4564C120.497 16.3785 120.497 16.2731 120.483 16.1952C120.469 16.1173 120.451 16.0348 120.437 15.9523C120.424 15.8698 120.41 15.8102 120.391 15.7369C120.373 15.6636 120.355 15.5628 120.336 15.4849C120.318 15.407 120.295 15.3245 120.277 15.2466C120.259 15.1687 120.231 15.0954 120.208 15.0129C120.185 14.9304 120.167 14.8662 120.144 14.7883L120.066 14.5546L119.984 14.3255C119.956 14.243 119.924 14.1651 119.892 14.0826C119.867 14.0108 119.838 13.9405 119.805 13.8718L119.727 13.6473C119.699 13.5969 119.667 13.519 119.631 13.4457L119.525 13.2211C119.489 13.1478 119.452 13.0745 119.411 13.0057L119.292 12.7812L119.182 12.5887L119.053 12.3734L118.911 12.1534L118.788 11.9655L118.641 11.7547L118.494 11.5577L118.357 11.379L118.196 11.1819L118.041 10.9986L117.876 10.8061L117.72 10.6412L117.55 10.4624L117.381 10.2929L117.197 10.1233L117.019 9.96295L116.835 9.80257L116.657 9.65593L116.469 9.50928L116.263 9.35348L116.066 9.21142L115.864 9.07395L115.667 8.94564L115.465 8.83566L115.254 8.71193L115.039 8.59278L114.833 8.4828L114.608 8.36824L114.393 8.26742L114.178 8.17119L113.939 8.07496L113.715 7.98331L113.49 7.90082L113.261 7.8275L113.018 7.7496L112.794 7.68086L112.551 7.61671L112.322 7.56172L112.088 7.51131L111.845 7.46549L111.611 7.42424L111.373 7.38758L111.13 7.36009L110.892 7.33259H110.635H110.397H110.154L109.902 7.29135Z" fill="#B3A7FF"/>
<path d="M110.085 35.6662C109.186 35.6664 108.322 35.3137 107.679 34.684C107.037 34.0542 106.667 33.1976 106.649 32.2981L106.103 3.92316C106.095 3.4718 106.175 3.02319 106.34 2.60295C106.505 2.18271 106.751 1.79907 107.064 1.47395C107.378 1.14883 107.752 0.888605 108.166 0.708129C108.579 0.527653 109.025 0.430466 109.476 0.422119H109.545C110.444 0.423138 111.306 0.776317 111.948 1.40594C112.59 2.03556 112.959 2.89151 112.977 3.79027L113.522 32.1652C113.54 33.076 113.194 33.9563 112.563 34.6128C111.931 35.2693 111.065 35.6482 110.154 35.6662H110.085Z" fill="#B3A7FF"/>
<path d="M100.251 29.1726C99.5441 29.1735 98.8539 28.9561 98.2748 28.5503C97.6957 28.1444 97.2559 27.5698 97.0154 26.9048C96.7748 26.2398 96.7453 25.5168 96.9307 24.8344C97.1162 24.152 97.5076 23.5434 98.0517 23.0917L107.611 15.1502C107.958 14.8616 108.359 14.6443 108.79 14.5106C109.221 14.3768 109.674 14.3294 110.124 14.3709C110.574 14.4124 111.011 14.542 111.41 14.7524C111.81 14.9627 112.164 15.2497 112.452 15.597C112.741 15.9442 112.958 16.3449 113.092 16.7761C113.226 17.2073 113.273 17.6606 113.232 18.1102C113.19 18.5598 113.06 18.9968 112.85 19.3962C112.64 19.7957 112.353 20.1498 112.005 20.4384L102.442 28.3799C101.827 28.8924 101.052 29.173 100.251 29.1726Z" fill="#B3A7FF"/>
<path d="M119.209 29.0352C118.408 29.0355 117.631 28.755 117.014 28.2424L107.616 20.4522C106.93 19.8652 106.503 19.0322 106.426 18.133C106.35 17.2338 106.63 16.3405 107.206 15.6462C107.783 14.9518 108.609 14.512 109.507 14.4218C110.405 14.3315 111.303 14.5981 112.006 15.164L121.404 22.9542C121.948 23.4057 122.339 24.0139 122.525 24.6959C122.711 25.3778 122.681 26.1004 122.441 26.7652C122.201 27.43 121.762 28.0047 121.184 28.4109C120.606 28.8171 119.916 29.0351 119.209 29.0352Z" fill="#B3A7FF"/>
</svg>
