<svg width="27" height="35" viewBox="0 0 27 35" fill="none" xmlns="http://www.w3.org/2000/svg">
<path d="M24.3524 12.1181C24.3524 18.0271 19.4996 22.828 13.5001 22.828C7.5006 22.828 2.64784 18.0271 2.64784 12.1181C2.64784 6.20912 7.5006 1.4082 13.5001 1.4082C19.4996 1.4082 24.3524 6.20912 24.3524 12.1181Z" stroke="black"/>
<path d="M14.6484 16.4666H12.3379V9.07013H14.6484V16.4666ZM12.2012 7.1629C12.2012 6.83478 12.3197 6.5659 12.5566 6.35626C12.7936 6.14663 13.1012 6.04181 13.4795 6.04181C13.8577 6.04181 14.1654 6.14663 14.4023 6.35626C14.6393 6.5659 14.7578 6.83478 14.7578 7.1629C14.7578 7.49103 14.6393 7.75991 14.4023 7.96954C14.1654 8.17918 13.8577 8.284 13.4795 8.284C13.1012 8.284 12.7936 8.17918 12.5566 7.96954C12.3197 7.75991 12.2012 7.49103 12.2012 7.1629Z" fill="black"/>
</svg>
