<svg width="60" height="60" viewBox="0 0 60 60" fill="none" xmlns="http://www.w3.org/2000/svg">
<path d="M58.5835 29.7041C58.5835 29.9158 58.5835 30.1301 58.5835 30.3418C58.5835 30.5535 58.5835 30.7679 58.5673 30.9822C58.5511 31.1966 58.5511 31.4083 58.5376 31.62C58.5241 31.8317 58.5106 32.046 58.4944 32.2577C58.4782 32.4695 58.4566 32.6838 58.435 32.8955C58.4135 33.1072 58.3892 33.3189 58.3622 33.5306C58.3352 33.7423 58.3055 33.954 58.2731 34.1631C58.2407 34.3721 58.2083 34.5838 58.1732 34.7955C58.1381 35.0072 58.0949 35.2163 58.0545 35.4254C58.014 35.6344 57.9708 35.8435 57.9222 36.0499C57.8736 36.2563 57.8277 36.468 57.7765 36.6744C57.7252 36.8808 57.6739 37.0872 57.6172 37.2936C57.5605 37.5 57.5038 37.7038 57.4444 37.9102C57.3851 38.1166 57.3203 38.3177 57.2555 38.5215C57.1907 38.7253 57.1206 38.929 57.0531 39.1302C56.9856 39.3313 56.91 39.5324 56.8371 39.7335C56.7643 39.9346 56.6833 40.1331 56.605 40.3316C56.5267 40.53 56.4458 40.7259 56.3621 40.9243C56.2784 41.1228 56.1921 41.316 56.0922 41.5118C55.9923 41.7076 55.914 41.8982 55.8223 42.0914C55.7305 42.2845 55.636 42.4777 55.5388 42.6682C55.4417 42.8588 55.3418 43.0467 55.2419 43.2372C55.1421 43.4277 55.0368 43.613 54.9315 43.7982C54.8263 43.9834 54.7183 44.1687 54.6077 44.3539C54.497 44.5392 54.3863 44.7191 54.2703 44.9017C54.1542 45.0843 54.0408 45.2616 53.9221 45.431C53.8033 45.6003 53.6845 45.7856 53.5631 45.9602L53.1906 46.4895L52.8046 47.0055C52.675 47.1749 52.5347 47.3442 52.4078 47.5109C52.281 47.6777 52.1379 47.8444 52.0003 48.0111C51.8626 48.1778 51.7304 48.3366 51.5792 48.498C51.428 48.6594 51.2958 48.8209 51.15 48.977C51.0043 49.1331 50.8558 49.2919 50.7074 49.448L50.2566 49.9085C50.1028 50.0593 49.9489 50.2102 49.7924 50.3557C49.6358 50.5012 49.4793 50.6521 49.32 50.7976L48.8369 51.2237C48.6749 51.3666 48.5103 51.5042 48.3456 51.6418L47.8436 52.0493C47.6735 52.1843 47.5035 52.314 47.3307 52.4436C47.158 52.5733 46.9853 52.7083 46.8098 52.83C46.6344 52.9517 46.4589 53.0787 46.27 53.2005C46.081 53.3222 45.9137 53.4439 45.7301 53.563C45.5466 53.6821 45.3685 53.7959 45.1903 53.9097C45.0122 54.0235 44.8232 54.1373 44.637 54.2457C44.4508 54.3542 44.2645 54.4654 44.0756 54.5712L43.5087 54.8809C43.3171 54.9841 43.1255 55.082 42.9311 55.1799C42.7368 55.2778 42.5451 55.3731 42.3508 55.4657C42.1565 55.5583 41.9594 55.6509 41.7624 55.7303C41.5654 55.8097 41.3656 55.905 41.1659 55.9949C40.9661 56.0849 40.7664 56.1617 40.5667 56.2411C40.3669 56.3204 40.1618 56.3998 39.9594 56.4766C39.7569 56.5533 39.5545 56.6248 39.3494 56.6936L38.7339 56.9L38.1131 57.0931C37.9053 57.154 37.6975 57.2149 37.4869 57.2705C37.2764 57.326 37.0686 57.3816 36.858 57.4345L36.2264 57.5854L35.5894 57.723L34.9524 57.8447L34.31 57.9532L33.6676 58.0458L33.0198 58.1252C32.8039 58.149 32.5907 58.1702 32.3747 58.1887C32.1588 58.2072 31.9402 58.2258 31.7243 58.239C31.5083 58.2522 31.2924 58.2655 31.0738 58.276C30.8551 58.2866 30.6419 58.2919 30.426 58.2972C30.21 58.3025 29.9914 58.2972 29.7728 58.2972H29.1223C28.9063 58.2972 28.6904 58.2972 28.4718 58.276C28.2532 58.2549 28.0399 58.2549 27.824 58.239C27.6081 58.2231 27.3894 58.2099 27.1735 58.1887C26.9576 58.1675 26.7416 58.149 26.5284 58.1252L25.8806 58.0458L25.2382 57.9532L24.5958 57.8447L23.9588 57.723L23.3218 57.5854L22.6902 57.4345C22.4797 57.3816 22.2691 57.3287 22.0613 57.2705C21.8535 57.2122 21.6429 57.154 21.4351 57.0931L20.8143 56.9C20.6092 56.8347 20.404 56.7659 20.1989 56.6936C19.9938 56.6248 19.7913 56.5507 19.5889 56.4766C19.3864 56.4025 19.184 56.3231 18.9816 56.2411C18.7791 56.159 18.5794 56.0796 18.3824 55.9949C18.1853 55.9103 17.9829 55.8256 17.7858 55.7303C17.5888 55.635 17.3945 55.5504 17.1974 55.4657C17.0004 55.381 16.8088 55.2778 16.6171 55.1799C16.4255 55.082 16.2311 54.9841 16.0395 54.8809C15.8479 54.7777 15.6616 54.6771 15.4727 54.5712C15.2837 54.4654 15.0975 54.3569 14.9113 54.2457C14.725 54.1346 14.5415 54.0235 14.3714 53.9097C14.2014 53.7959 14.0071 53.6794 13.8316 53.563C13.6562 53.4466 13.4699 53.3222 13.2918 53.2005C13.1136 53.0787 12.9355 52.9544 12.7519 52.83L12.231 52.4463C12.0583 52.314 11.8882 52.1816 11.7182 52.0493L11.2296 51.6392C11.065 51.5015 10.9003 51.3745 10.7384 51.2237L10.2552 50.795C10.096 50.6494 9.93943 50.5039 9.78288 50.3531C9.62633 50.2022 9.47247 50.0567 9.31862 49.9058L8.86787 49.4454C8.71941 49.2892 8.57096 49.1331 8.4252 48.9743C8.27945 48.8156 8.1364 48.6568 7.99605 48.4954C7.85569 48.3339 7.71264 48.1725 7.57498 48.0084C7.43732 47.8444 7.30506 47.6777 7.16741 47.5083C7.02975 47.3389 6.89748 47.1722 6.77062 47.0029L6.38465 46.4868L6.01216 45.9576C5.8907 45.7803 5.76923 45.603 5.65317 45.4283C5.53711 45.2537 5.41835 45.0684 5.30499 44.8991C5.19162 44.7297 5.07826 44.5339 4.96759 44.3513C4.85693 44.1687 4.74896 43.9808 4.64369 43.7956C4.53843 43.6103 4.43587 43.4224 4.3333 43.2345C4.23073 43.0467 4.13355 42.8561 4.03638 42.6656C3.93921 42.4751 3.84474 42.2819 3.76647 42.0887C3.68819 41.8955 3.58293 41.7023 3.49655 41.5092C3.41018 41.316 3.32381 41.1175 3.22664 40.9217C3.12947 40.7259 3.062 40.5274 2.98373 40.3289C2.90545 40.1305 2.82716 39.9293 2.75159 39.7309C2.67601 39.5324 2.60584 39.3286 2.53566 39.1275C2.46548 38.9264 2.398 38.7226 2.33322 38.5189C2.26844 38.3151 2.20636 38.1113 2.14428 37.9076C2.0822 37.7038 2.02553 37.4974 1.97154 37.291C1.91756 37.0846 1.86087 36.8782 1.81229 36.6718C1.7637 36.4653 1.71242 36.2563 1.66384 36.0472C1.61525 35.8382 1.57477 35.6318 1.53428 35.4227C1.4938 35.2136 1.45331 35.0019 1.41552 34.7929C1.37773 34.5838 1.34534 34.3721 1.31295 34.1604C1.28056 33.9487 1.25357 33.7397 1.22658 33.528C1.19959 33.3163 1.17529 33.1046 1.15369 32.8929C1.1321 32.6812 1.11052 32.4668 1.09432 32.2551C1.07813 32.0434 1.06192 31.8317 1.05113 31.6173C1.04033 31.403 1.02684 31.1913 1.02144 30.9796C1.01604 30.7679 1.02144 30.5535 1.00524 30.3392C0.98905 30.1248 1.00524 29.9131 1.00524 29.6988C1.00524 29.4844 1.00524 29.2727 1.02144 29.061C1.03763 28.8493 1.03763 28.635 1.05113 28.4233C1.06462 28.2116 1.07543 27.9972 1.09432 27.7829C1.11322 27.5685 1.1294 27.3595 1.15369 27.1478C1.17799 26.9361 1.19959 26.7244 1.22658 26.5127C1.25357 26.3009 1.28326 26.0892 1.31295 25.8775C1.34264 25.6658 1.38043 25.4568 1.41552 25.2477C1.45061 25.0387 1.4911 24.827 1.53428 24.6179C1.57747 24.4089 1.61795 24.1998 1.66384 23.9907L1.80959 23.3689C1.86177 23.1589 1.91576 22.9525 1.97154 22.7496C2.02553 22.5432 2.0849 22.3368 2.14428 22.133C2.20366 21.9293 2.26844 21.7229 2.33322 21.5191C2.398 21.3153 2.46548 21.1142 2.53566 20.9131C2.60584 20.712 2.67871 20.5109 2.75159 20.3098C2.82446 20.1086 2.90275 19.9102 2.98373 19.7117C3.0647 19.5132 3.14297 19.3147 3.22664 19.1189C3.31031 18.9231 3.39669 18.7273 3.49655 18.5315C3.59642 18.3356 3.6774 18.1424 3.76647 17.9493C3.85554 17.7561 3.95271 17.5656 4.03638 17.375C4.12006 17.1845 4.23343 16.994 4.3333 16.8061C4.43317 16.6182 4.53843 16.4303 4.64369 16.2451C4.74896 16.0598 4.85693 15.8719 4.96759 15.6893C5.07826 15.5067 5.18892 15.3215 5.30499 15.1416C5.42105 14.9616 5.53441 14.779 5.65317 14.6123C5.77193 14.4456 5.8907 14.255 6.01216 14.083C6.13362 13.911 6.26049 13.7311 6.38465 13.5538C6.50881 13.3765 6.65456 13.2071 6.77062 13.0378C6.88669 12.8684 7.04055 12.6964 7.16741 12.5297C7.29427 12.363 7.43732 12.1962 7.57498 12.0322C7.71264 11.8681 7.84489 11.704 7.99605 11.5426C8.1472 11.3812 8.26595 11.2224 8.4252 11.0636C8.58445 10.9049 8.71941 10.7487 8.86787 10.5952C9.01632 10.4417 9.16747 10.2856 9.31862 10.1348C9.46977 9.98394 9.62633 9.8331 9.78288 9.68491L10.2552 9.24563C10.4145 9.10008 10.5764 8.95718 10.7384 8.81693L11.2296 8.39882C11.397 8.26121 11.5643 8.12625 11.7317 7.99394C11.9017 7.85898 12.0718 7.72931 12.2445 7.59699L12.7654 7.21328C12.9382 7.08626 13.1163 6.94865 13.3053 6.84015C13.4942 6.73165 13.6616 6.59934 13.8451 6.48026C14.0286 6.36118 14.2068 6.24474 14.3849 6.13095L14.9248 5.79487C15.111 5.68638 15.2972 5.57788 15.4862 5.47203L16.053 5.15976C16.2446 5.0592 16.4363 4.95865 16.6306 4.86073L17.2109 4.57493L17.7993 4.3103L18.3959 4.04567C18.5929 3.96099 18.7953 3.87896 18.9951 3.79957C19.1948 3.72018 19.3973 3.64079 19.6024 3.5667C19.8075 3.4926 20.0072 3.41851 20.2124 3.34706C20.4175 3.27561 20.6227 3.2068 20.8278 3.14065C21.0329 3.07449 21.2408 3.01098 21.4486 2.95011C21.6564 2.88925 21.8643 2.82838 22.0748 2.77016L22.7037 2.60609L23.3353 2.45526C23.5458 2.40763 23.7591 2.36264 23.9723 2.3203C24.1855 2.27796 24.3961 2.23562 24.6093 2.19857C24.8225 2.16152 25.0385 2.12447 25.2517 2.09007C25.4649 2.05567 25.6809 2.02656 25.8941 1.99745L26.5419 1.91806C26.7551 1.89424 26.9711 1.87042 27.187 1.8519L27.8375 1.80163L28.4853 1.76457L29.1358 1.74341C29.3544 1.74341 29.5703 1.74341 29.789 1.74341C30.0076 1.74341 30.2208 1.74341 30.4395 1.74341L31.09 1.76457L31.7378 1.80163L32.3883 1.8519C32.6042 1.87042 32.8201 1.89424 33.0333 1.91806L33.6811 1.99745C33.8944 2.02656 34.1103 2.05567 34.3235 2.09007C34.5368 2.12447 34.7527 2.15888 34.9659 2.19857C35.1792 2.23826 35.3924 2.27796 35.6029 2.3203C35.8135 2.36264 36.0294 2.40763 36.2399 2.45526L36.8715 2.60609L37.5004 2.77016C37.711 2.82838 37.9188 2.8866 38.1266 2.95011C38.3345 3.01363 38.5396 3.07449 38.7475 3.14065L39.3628 3.34706L39.9729 3.5667L40.5802 3.79957C40.7799 3.87896 40.9823 3.96099 41.1794 4.04567L41.7759 4.3103L42.3643 4.57493L42.9446 4.86073C43.139 4.95865 43.3306 5.0592 43.5222 5.15976L44.0891 5.47203C44.278 5.57788 44.4642 5.68638 44.6505 5.79487L45.2038 6.13095C45.3874 6.24739 45.5682 6.36118 45.7436 6.48026L46.2835 6.84015C46.4616 6.96453 46.6398 7.08626 46.8233 7.21328L47.3442 7.59699C47.517 7.72666 47.687 7.86162 47.8571 7.99394L48.3591 8.39882L48.8504 8.81693C49.0123 8.95718 49.1743 9.10008 49.3335 9.24563L49.8059 9.68491C49.9624 9.8331 50.1163 9.98394 50.2701 10.1348C50.424 10.2856 50.5724 10.4391 50.7209 10.5952C50.8693 10.7514 51.0178 10.9049 51.1635 11.0636C51.3093 11.2224 51.4523 11.3812 51.5927 11.5426C51.733 11.704 51.8626 11.8681 52.0138 12.0322C52.1649 12.1962 52.2837 12.363 52.4213 12.5297C52.559 12.6964 52.6913 12.8658 52.8181 13.0378C52.945 13.2098 53.088 13.3791 53.2041 13.5538L53.5766 14.083C53.698 14.2577 53.8195 14.435 53.9356 14.6123C54.0516 14.7896 54.1704 14.9695 54.2838 15.1416C54.3971 15.3136 54.5105 15.5041 54.6211 15.6893C54.7318 15.8746 54.8371 16.0572 54.945 16.2451C55.053 16.4329 55.1529 16.6182 55.2554 16.8061C55.358 16.994 55.4552 17.1845 55.5524 17.375C55.6495 17.5656 55.744 17.7561 55.8358 17.9493C55.9275 18.1424 56.0193 18.3356 56.1057 18.5315C56.192 18.7273 56.2784 18.9231 56.3621 19.1189C56.4458 19.3147 56.5267 19.5132 56.605 19.7117C56.6833 19.9102 56.7616 20.1086 56.8371 20.3098C56.9127 20.5109 56.9829 20.712 57.0531 20.9131C57.1233 21.1142 57.1907 21.318 57.2555 21.5218C57.3203 21.7255 57.3824 21.9293 57.4444 22.133C57.5065 22.3368 57.5605 22.5432 57.6172 22.7496C57.6739 22.956 57.7279 23.1625 57.7765 23.3689C57.825 23.5753 57.8763 23.7843 57.9222 23.9907C57.9681 24.1972 58.014 24.4089 58.0545 24.6179C58.0949 24.827 58.1354 25.036 58.1732 25.2477C58.211 25.4594 58.2434 25.6685 58.2758 25.8775C58.3082 26.0866 58.3352 26.3009 58.3622 26.5127C58.3892 26.7244 58.4135 26.9361 58.435 27.1478C58.4566 27.3595 58.4782 27.5712 58.4944 27.7855C58.5106 27.9999 58.5268 28.2089 58.5376 28.4233C58.5484 28.6376 58.5592 28.8493 58.5673 29.061C58.5754 29.2727 58.5808 29.4897 58.5835 29.7041Z" fill="white" fill-opacity="0.6"/>
<path d="M29.7915 58.3817C29.5756 58.3817 29.357 58.3817 29.141 58.3817C28.9251 58.3817 28.7065 58.3817 28.4878 58.3605C28.2692 58.3394 28.0533 58.3394 27.8373 58.3235C27.6214 58.3076 27.4028 58.2917 27.1869 58.2732L26.539 58.2097L25.8913 58.1303C25.6753 58.1012 25.4594 58.0695 25.2462 58.0351C25.0329 58.0007 24.817 57.9663 24.6038 57.9266C24.3905 57.8869 24.1746 57.8472 23.9641 57.8048C23.7535 57.7625 23.5376 57.7175 23.3244 57.6672L22.6928 57.5164C22.4795 57.4661 22.2717 57.4105 22.0612 57.3523C21.8506 57.2941 21.6428 57.2359 21.435 57.175L20.8115 56.9818C20.6063 56.9166 20.4012 56.8478 20.1961 56.7754C19.9909 56.704 19.7858 56.6325 19.5834 56.5558C19.3809 56.479 19.1758 56.4023 18.976 56.3229L18.3741 56.0742C18.1744 55.9895 17.9747 55.9048 17.7776 55.8095L17.1865 55.5449L16.6035 55.2565C16.4091 55.1585 16.2175 55.0606 16.0259 54.9574C15.8342 54.8542 15.6453 54.751 15.4563 54.6452L14.8949 54.3223C14.7087 54.2112 14.5225 54.1 14.3551 53.9836C14.1878 53.8671 13.988 53.7534 13.8153 53.6343C13.6425 53.5152 13.4536 53.3961 13.2754 53.2744L12.7356 52.9013C12.5602 52.7742 12.3847 52.6366 12.2147 52.5149C12.0446 52.3932 11.8692 52.2503 11.7018 52.118C11.5345 51.9856 11.3644 51.8533 11.1971 51.7104C11.0298 51.5675 10.8678 51.4458 10.7032 51.2923C10.5385 51.1388 10.3793 51.0092 10.22 50.8636C10.0608 50.7181 9.90151 50.5725 9.74496 50.4217C9.58841 50.2708 9.43455 50.1253 9.2834 49.9718C9.13224 49.8183 8.97839 49.6675 8.82994 49.5114C8.68149 49.3552 8.53303 49.1991 8.38728 49.0403C8.24152 48.8815 8.09578 48.7228 7.95542 48.5613C7.81506 48.3999 7.68551 48.2359 7.53435 48.0691C7.3832 47.9024 7.26443 47.7384 7.12408 47.5716C6.98372 47.4049 6.85417 47.2329 6.72731 47.0635L6.34133 46.5475C6.21447 46.3729 6.09031 46.1982 5.96885 46.0183C5.84739 45.8383 5.72322 45.6637 5.60716 45.489C5.49109 45.3144 5.37233 45.1291 5.25627 44.9598C5.14021 44.7904 5.02954 44.5946 4.91888 44.4093L4.59498 43.8536C4.48971 43.6684 4.38715 43.4805 4.28458 43.2899C4.18202 43.0994 4.08484 42.9115 3.98767 42.721C3.8905 42.5305 3.79603 42.3373 3.70156 42.1441C3.60709 41.9509 3.51802 41.7551 3.43164 41.5619C3.34527 41.3687 3.2562 41.1703 3.16173 40.9718C3.06726 40.7733 2.99709 40.5775 2.91611 40.379C2.83514 40.1806 2.76225 39.9794 2.68668 39.7783C2.6111 39.5772 2.53823 39.3761 2.47075 39.175C2.40327 38.9738 2.33309 38.7701 2.26561 38.5663C2.19813 38.3626 2.13875 38.1561 2.07667 37.9524C2.01459 37.7486 1.95792 37.5396 1.90393 37.3331C1.84995 37.1267 1.79326 36.9203 1.74197 36.7139C1.69069 36.5075 1.64211 36.2958 1.59623 36.0894C1.55034 35.883 1.50446 35.6713 1.46397 35.4596C1.42348 35.2479 1.383 35.0415 1.34791 34.8298C1.31282 34.6181 1.27503 34.409 1.24534 34.1973C1.21565 33.9856 1.18326 33.7739 1.15626 33.5622C1.12927 33.3505 1.10498 33.1388 1.08338 32.9244C1.06179 32.7101 1.0402 32.501 1.02401 32.2867C1.00781 32.0723 0.991623 31.8606 0.978128 31.6489C0.964632 31.4372 0.956525 31.2202 0.951126 31.0085C0.945728 30.7968 0.951127 30.5798 0.934932 30.3655C0.918737 30.1511 0.934932 29.9394 0.934932 29.7251C0.934932 29.5107 0.934931 29.299 0.951126 29.0847C0.967321 28.8703 0.967331 28.6586 0.978128 28.4443C0.988924 28.2299 1.00781 28.0182 1.02401 27.8039C1.0402 27.5895 1.06179 27.3778 1.08338 27.1661C1.10498 26.9544 1.12927 26.7427 1.15626 26.5284C1.18326 26.314 1.21295 26.105 1.24534 25.8959C1.27773 25.6868 1.31012 25.4725 1.34791 25.2608C1.3857 25.0491 1.42348 24.84 1.46397 24.631C1.50446 24.4219 1.55034 24.2129 1.59623 24.0038C1.64211 23.7947 1.69069 23.5857 1.74197 23.3793C1.79326 23.1729 1.84725 22.9638 1.90393 22.7574C1.96062 22.551 2.01729 22.3446 2.07667 22.1408C2.13605 21.937 2.20083 21.7306 2.26561 21.5269L2.46805 20.9182C2.53822 20.7145 2.6111 20.5133 2.68668 20.3122C2.76225 20.1111 2.83784 19.9126 2.91611 19.7142C2.99439 19.5157 3.07806 19.3172 3.16173 19.1187C3.2454 18.9203 3.33178 18.7271 3.43164 18.5313C3.53151 18.3355 3.60979 18.1423 3.70156 17.9491C3.79333 17.7559 3.8905 17.5627 3.98767 17.3722C4.08484 17.1817 4.18472 16.9911 4.28458 16.8006C4.38445 16.6101 4.48971 16.4248 4.59498 16.2369L4.91888 15.6812C5.02954 15.4986 5.14291 15.3134 5.25627 15.1334C5.36964 14.9535 5.48839 14.7709 5.60716 14.6042C5.72592 14.4375 5.84469 14.2469 5.96885 14.0749C6.09301 13.9029 6.21447 13.723 6.34133 13.5457C6.46819 13.3684 6.61125 13.199 6.72731 13.0164C6.84337 12.8338 6.99722 12.675 7.12408 12.5083C7.25094 12.3416 7.394 12.1722 7.53435 12.0082C7.67471 11.8441 7.80427 11.68 7.95542 11.5186C8.10657 11.3572 8.24152 11.1958 8.38728 11.037C8.53303 10.8782 8.67879 10.7221 8.82994 10.566L9.28069 10.1055C9.43455 9.95466 9.58841 9.80382 9.74496 9.65563C9.90151 9.50744 10.0608 9.35925 10.22 9.21635C10.3793 9.07345 10.5412 8.9279 10.7032 8.785L11.1971 8.36689L11.7018 7.95936C11.8692 7.8244 12.0419 7.69473 12.2147 7.56242C12.3874 7.4301 12.5602 7.29778 12.7356 7.1787C12.9111 7.05962 13.0865 6.9273 13.2754 6.80557C13.4644 6.68384 13.6344 6.56212 13.8153 6.44303C13.9961 6.32395 14.1797 6.20752 14.3551 6.09373C14.5306 5.97994 14.7222 5.86879 14.8949 5.75765C15.0677 5.6465 15.2701 5.53801 15.4563 5.43216L16.0259 5.11989C16.2175 5.01933 16.4091 4.91877 16.6035 4.82086C16.7978 4.72295 16.9922 4.62768 17.1865 4.53506L17.7776 4.27043L18.3741 4.00581C18.5739 3.92112 18.7736 3.83909 18.976 3.7597C19.1785 3.68031 19.3782 3.60092 19.5834 3.52683C19.7885 3.45273 19.9909 3.37599 20.1961 3.30454L20.8142 3.10077C21.0193 3.03197 21.2271 2.96846 21.435 2.9076C21.6428 2.84673 21.8506 2.78587 22.0612 2.72765L22.6928 2.56358L23.3244 2.41274L23.9641 2.27513L24.6038 2.1534L25.2462 2.04491L25.8913 1.95228L26.539 1.8729L27.1869 1.80674L27.8373 1.75646L28.4878 1.71941L29.141 1.69824C29.5765 1.69824 30.0111 1.69824 30.4447 1.69824L31.0979 1.71941L31.7484 1.75646L32.3989 1.80674L33.0467 1.8729L33.6945 1.95228L34.3396 2.04491L34.982 2.1534L35.6217 2.27513L36.2614 2.41274L36.893 2.56358L37.5246 2.72765C37.7351 2.78587 37.943 2.84409 38.1508 2.9076C38.3586 2.97111 38.5665 3.03197 38.7743 3.10077L39.3897 3.30718C39.5948 3.37598 39.8 3.45009 40.0024 3.52683C40.2048 3.60357 40.41 3.68031 40.6097 3.7597C40.8094 3.83909 41.0119 3.92112 41.2116 4.00581C41.4114 4.09049 41.6111 4.17781 41.8081 4.27043C42.0052 4.36305 42.2022 4.45038 42.3992 4.53506C42.5963 4.61974 42.7879 4.72295 42.9823 4.82086L43.5572 5.11989C43.7488 5.2231 43.9405 5.32631 44.1294 5.43216C44.3184 5.53801 44.5046 5.6465 44.6908 5.75765C44.8771 5.86879 45.0633 5.97994 45.2442 6.09373C45.425 6.20752 45.6112 6.32395 45.784 6.44303L46.3238 6.80557C46.502 6.9273 46.6774 7.05168 46.8637 7.1787L47.3846 7.56242C47.5573 7.69473 47.7301 7.82704 47.8974 7.95936L48.4022 8.36689L48.8961 8.785C49.0581 8.9279 49.22 9.0708 49.3792 9.21635C49.5385 9.36189 49.6977 9.50744 49.8543 9.65563C50.0108 9.80382 50.1647 9.95466 50.3159 10.1055C50.467 10.2563 50.6209 10.4125 50.7693 10.5686C50.9178 10.7247 51.0662 10.8809 51.212 11.037C51.3577 11.1931 51.5035 11.3572 51.6438 11.5186C51.7842 11.68 51.9272 11.8441 52.0649 12.0082C52.2026 12.1722 52.3348 12.339 52.4752 12.5083C52.6155 12.6777 52.7451 12.8444 52.8719 13.0164C52.9988 13.1884 53.1419 13.3604 53.2579 13.5457C53.374 13.7309 53.5089 13.895 53.6304 14.0749C53.7519 14.2549 53.8733 14.4269 53.9921 14.6042C54.1109 14.7815 54.2269 14.9641 54.343 15.1334C54.459 15.3028 54.5697 15.4986 54.6804 15.6812C54.791 15.8638 54.8963 16.0517 55.0016 16.2369C55.1068 16.4222 55.2121 16.6127 55.3147 16.8006C55.4173 16.9885 55.5144 17.1817 55.6116 17.3722C55.7088 17.5627 55.8032 17.7559 55.8977 17.9491C55.9922 18.1423 56.0812 18.3355 56.1676 18.5313C56.254 18.7271 56.3431 18.9229 56.4375 19.1187C56.532 19.3146 56.6022 19.5157 56.6831 19.7142C56.7641 19.9126 56.837 20.1138 56.9126 20.3122C56.9882 20.5107 57.0583 20.7145 57.1285 20.9182C57.1987 21.122 57.2662 21.3231 57.3336 21.5269C57.4011 21.7306 57.4605 21.9344 57.5226 22.1408C57.5847 22.3472 57.6413 22.551 57.6953 22.7574C57.7493 22.9638 57.806 23.1729 57.8573 23.3793C57.9086 23.5857 57.9571 23.7947 58.003 24.0038C58.0489 24.2129 58.0921 24.4219 58.1353 24.631C58.1785 24.84 58.2163 25.0517 58.2514 25.2634C58.2864 25.4751 58.3215 25.6842 58.3539 25.8959C58.3863 26.1076 58.416 26.3193 58.443 26.531C58.47 26.7427 58.4943 26.9544 58.5159 27.1661C58.5375 27.3778 58.559 27.5922 58.5752 27.8065C58.5914 28.0209 58.6076 28.2326 58.6184 28.4443C58.6292 28.656 58.64 28.873 58.6481 29.0847C58.6562 29.2964 58.6481 29.5134 58.6643 29.7251C58.6805 29.9368 58.6643 30.1538 58.6643 30.3655C58.6643 30.5772 58.6643 30.7942 58.6481 31.0085C58.6319 31.2229 58.6319 31.4346 58.6184 31.6463C58.6049 31.858 58.5914 32.075 58.5752 32.2867C58.559 32.4984 58.5375 32.7127 58.5159 32.9244C58.4943 33.1361 58.47 33.3505 58.443 33.5622C58.416 33.7739 58.3863 33.9856 58.3539 34.1973C58.3215 34.409 58.2891 34.6181 58.2514 34.8298C58.2136 35.0415 58.1758 35.2505 58.1353 35.4596C58.0948 35.6686 58.0489 35.8803 58.003 36.0894C57.9571 36.2984 57.9086 36.5049 57.8573 36.7139C57.806 36.923 57.752 37.1267 57.6953 37.3331C57.6386 37.5396 57.582 37.746 57.5226 37.9524C57.4632 38.1588 57.3984 38.3626 57.3336 38.5663C57.2689 38.7701 57.1987 38.9712 57.1285 39.175C57.0583 39.3787 56.9882 39.5772 56.9126 39.7783C56.837 39.9794 56.7614 40.1806 56.6805 40.379C56.5995 40.5775 56.5212 40.776 56.4375 40.9718C56.3538 41.1676 56.2675 41.3661 56.1676 41.5619C56.0677 41.7577 55.9895 41.9509 55.8977 42.1441C55.8059 42.3373 55.7088 42.5305 55.6116 42.721C55.5144 42.9115 55.4146 43.1021 55.3147 43.2899C55.2148 43.4778 55.1095 43.6684 55.0016 43.8536C54.8936 44.0388 54.7883 44.2267 54.6777 44.4093C54.567 44.5919 54.4563 44.7772 54.343 44.9598C54.2296 45.1423 54.1109 45.3223 53.9921 45.489C53.8733 45.6557 53.7546 45.8463 53.6304 46.0183C53.5062 46.1903 53.3848 46.3702 53.2579 46.5475L52.8719 47.0635C52.7424 47.2329 52.602 47.4023 52.4752 47.5716C52.3483 47.741 52.2053 47.9051 52.0649 48.0691C51.9245 48.2332 51.795 48.3973 51.6438 48.5613C51.4927 48.7254 51.3577 48.8815 51.212 49.0403C51.0662 49.1991 50.9205 49.3552 50.7693 49.5114C50.6182 49.6675 50.4697 49.821 50.3159 49.9718C50.162 50.1227 50.0081 50.2735 49.8543 50.4217C49.7004 50.5699 49.5385 50.7181 49.3792 50.8636C49.22 51.0092 49.0581 51.1521 48.8961 51.2923C48.7342 51.4326 48.5668 51.5728 48.4022 51.7104C48.2375 51.848 48.0675 51.9751 47.8974 52.118C47.7274 52.2609 47.5573 52.3826 47.3846 52.5149C47.2118 52.6472 47.0391 52.7795 46.8637 52.9013L46.3238 53.2744C46.1457 53.3961 45.9648 53.5178 45.784 53.6343C45.6031 53.7507 45.4196 53.8698 45.2442 53.9836C45.0687 54.0974 44.8771 54.2112 44.6908 54.3223L44.1267 54.6452C43.9405 54.751 43.7488 54.8569 43.5572 54.9574C43.3656 55.058 43.1739 55.1585 42.9823 55.2565L42.3965 55.5449L41.8081 55.8095C41.6111 55.8995 41.4114 55.9842 41.2116 56.0742L40.6097 56.3229L40.0024 56.5558L39.3897 56.7754C39.1846 56.8469 38.9794 56.9157 38.7716 56.9818L38.1508 57.175C37.943 57.2359 37.7324 57.2967 37.5246 57.3523C37.3168 57.4079 37.1035 57.4661 36.893 57.5164C36.6825 57.5667 36.4719 57.6196 36.2587 57.6672C36.0455 57.7149 35.8349 57.7625 35.6217 57.8048C35.4085 57.8472 35.1952 57.8895 34.982 57.9266C34.7688 57.9636 34.5555 58.0007 34.3396 58.0351C34.1237 58.0695 33.9104 58.1012 33.6945 58.1303L33.0467 58.2097L32.3989 58.2732C32.183 58.2917 31.9644 58.3103 31.7484 58.3235C31.5325 58.3367 31.3138 58.35 31.0979 58.3605C30.882 58.3711 30.6634 58.3764 30.4447 58.3817C30.2261 58.387 30.0102 58.3817 29.7915 58.3817ZM29.7915 1.79351C29.5756 1.79351 29.3597 1.79351 29.1437 1.79351L28.4959 1.81468L27.8454 1.85172C27.6295 1.86495 27.4163 1.88348 27.2003 1.902C26.9844 1.92053 26.7685 1.94434 26.5526 1.96816L25.9102 2.04491C25.6942 2.07401 25.481 2.10577 25.2678 2.14018C25.0545 2.17458 24.8413 2.20898 24.6281 2.24603L23.9911 2.36775L23.3568 2.50536L22.7252 2.65356L22.0963 2.81762C21.8884 2.87584 21.6806 2.93406 21.4728 2.99757C21.2649 3.06108 21.0598 3.12195 20.8546 3.1881C20.6495 3.25426 20.4444 3.32306 20.2392 3.39451C20.0341 3.46596 19.8317 3.53741 19.6319 3.61151L19.0246 3.84439C18.8249 3.92377 18.6251 4.00581 18.4281 4.09049L17.8343 4.35512C17.6373 4.44244 17.4402 4.53506 17.2459 4.61975C17.0515 4.70443 16.8572 4.80763 16.6656 4.90554C16.4739 5.00345 16.2823 5.10137 16.0907 5.20192C15.899 5.30248 15.7128 5.40834 15.5238 5.51154C15.3349 5.61475 15.1513 5.7259 14.9651 5.83704C14.7789 5.94818 14.5953 6.05668 14.4253 6.17047C14.2552 6.28426 14.0609 6.4007 13.8854 6.51978C13.71 6.63886 13.5265 6.75794 13.3456 6.87967C13.1648 7.0014 12.992 7.12578 12.8058 7.25016L12.2875 7.63386C12.1175 7.76353 11.9448 7.8985 11.7774 8.02817L11.2781 8.44363L10.7868 8.86174C10.6249 9.002 10.4656 9.14489 10.3064 9.28779L9.83403 9.72708C9.67748 9.87527 9.52362 10.0235 9.37247 10.1743C9.22132 10.3251 9.07017 10.4786 8.92172 10.6348C8.77327 10.7909 8.62481 10.9444 8.48176 11.1031C8.3387 11.2619 8.19294 11.4207 8.04988 11.5821C7.90683 11.7436 7.77997 11.905 7.63152 12.069C7.48307 12.2331 7.3616 12.3972 7.22665 12.5665C7.09169 12.7359 6.95674 12.9 6.82988 13.072C6.70302 13.244 6.55995 13.4134 6.44659 13.5854C6.33322 13.7574 6.19557 13.932 6.0741 14.1146C5.95264 14.2972 5.83119 14.4666 5.71513 14.6439C5.59907 14.8212 5.48029 15.0038 5.36693 15.1731C5.25356 15.3425 5.1402 15.5357 5.03224 15.7183C4.92427 15.9009 4.8136 16.0861 4.70834 16.274C4.60307 16.4619 4.50051 16.6445 4.40065 16.835C4.30078 17.0255 4.1982 17.2108 4.10103 17.4013L3.83111 17.9756C3.73934 18.1687 3.65027 18.3619 3.5612 18.5551C3.47213 18.7483 3.38845 18.9441 3.29128 19.1399C3.19411 19.3357 3.12665 19.5342 3.04837 19.7327C2.97009 19.9312 2.89181 20.1296 2.81893 20.3308C2.74606 20.5319 2.67318 20.7303 2.603 20.9315C2.53283 21.1326 2.46535 21.3337 2.40057 21.5375C2.33579 21.7412 2.2737 21.9423 2.21162 22.1488C2.14954 22.3552 2.09557 22.5563 2.03889 22.7627C1.98221 22.9691 1.93092 23.1755 1.87963 23.3819C1.82835 23.5883 1.77977 23.7947 1.73389 24.0038C1.688 24.2129 1.64482 24.4193 1.60163 24.6283C1.55844 24.8374 1.52334 25.0464 1.48555 25.2555C1.44776 25.4645 1.41539 25.6736 1.383 25.8853C1.35061 26.097 1.32362 26.3061 1.29663 26.5178C1.26963 26.7295 1.24533 26.9385 1.22104 27.1502C1.19675 27.3619 1.18056 27.5736 1.16437 27.7853C1.14817 27.997 1.13197 28.2114 1.11847 28.4231C1.10498 28.6348 1.09689 28.8465 1.09149 29.0609C1.08609 29.2752 1.09149 29.4843 1.07529 29.6986C1.0591 29.913 1.07529 30.1247 1.07529 30.3364C1.07529 30.5481 1.07529 30.7624 1.09149 30.9741C1.10768 31.1858 1.10768 31.3975 1.11847 31.6119C1.12927 31.8262 1.14548 32.0353 1.16437 32.247C1.18326 32.4587 1.19945 32.6704 1.22104 32.8821C1.24263 33.0938 1.26963 33.3055 1.29663 33.5172C1.32362 33.7289 1.35061 33.938 1.383 34.1497C1.41539 34.3614 1.45046 34.5704 1.48555 34.7795C1.52064 34.9885 1.56114 35.1976 1.60163 35.4067C1.64212 35.6157 1.688 35.8248 1.73389 36.0312C1.77977 36.2376 1.82835 36.4466 1.87963 36.6531C1.93092 36.8595 1.98221 37.0659 2.03889 37.2723C2.09557 37.4787 2.15224 37.6825 2.21162 37.8862C2.27101 38.09 2.33579 38.2937 2.40057 38.4975C2.46535 38.7013 2.53283 38.9024 2.603 39.1035C2.67318 39.3046 2.74336 39.5057 2.81893 39.7042C2.89451 39.9027 2.97009 40.1038 3.04837 40.3023C3.12665 40.5008 3.20761 40.6966 3.29128 40.8924C3.37496 41.0882 3.46133 41.2841 3.5612 41.4772C3.66107 41.6704 3.73934 41.8662 3.83111 42.0594L4.10103 42.6337L4.39794 43.2C4.50051 43.3879 4.60307 43.5757 4.70834 43.761C4.8136 43.9462 4.92157 44.1315 5.03224 44.3141C5.1429 44.4967 5.25356 44.6792 5.36693 44.8618C5.48029 45.0444 5.59637 45.2217 5.71513 45.3911C5.83389 45.5605 5.95264 45.7457 6.0741 45.9204C6.19557 46.095 6.31973 46.2697 6.44659 46.4496C6.57345 46.6296 6.70032 46.7963 6.82988 46.9656C6.95944 47.135 7.09979 47.3044 7.22665 47.4711C7.35351 47.6378 7.49656 47.8045 7.63152 47.9686C7.76648 48.1326 7.90143 48.2941 8.05258 48.4555C8.20374 48.6169 8.336 48.7757 8.48176 48.9345C8.62751 49.0932 8.77327 49.2467 8.92172 49.4029C9.07017 49.559 9.22132 49.7098 9.37247 49.8607C9.52362 50.0115 9.67748 50.1624 9.83403 50.3105C9.99058 50.4587 10.1471 50.6043 10.3064 50.7472C10.4656 50.8901 10.6249 51.0356 10.7868 51.1759C10.9488 51.3161 11.1134 51.4537 11.2808 51.5913C11.4481 51.729 11.6128 51.856 11.7801 51.9989C11.9475 52.1418 12.1202 52.2635 12.2903 52.3932L12.8085 52.7769C12.9839 52.9013 13.1594 53.0256 13.3483 53.1474L13.8881 53.5073L14.428 53.8539L14.9678 54.19L15.5265 54.5128C15.7065 54.6187 15.8954 54.7219 16.0934 54.8225C16.285 54.9257 16.4766 55.0236 16.6683 55.1215C16.8599 55.2194 17.0542 55.3147 17.2486 55.4073C17.4429 55.4999 17.64 55.5899 17.837 55.6719C18.034 55.754 18.2311 55.8492 18.4281 55.9365L19.0273 56.1827C19.2298 56.2647 19.4295 56.3414 19.6346 56.4155C19.8398 56.4896 20.0395 56.5637 20.2419 56.6352C20.4444 56.7066 20.6522 56.7728 20.8573 56.8389C21.0625 56.9051 21.2703 56.9712 21.4755 57.0321C21.6806 57.093 21.8911 57.1538 22.099 57.2094C22.3068 57.265 22.5173 57.3206 22.7279 57.3735C22.9384 57.4264 23.1462 57.4767 23.3595 57.5243C23.5727 57.572 23.7805 57.6169 23.9938 57.6593C24.207 57.7016 24.4175 57.744 24.6307 57.781C24.844 57.8181 25.0572 57.8551 25.2705 57.8895L25.9128 57.9821C26.1261 58.0112 26.342 58.0377 26.5552 58.0615L27.203 58.125C27.4163 58.1462 27.6322 58.1621 27.8481 58.1753C28.0641 58.1885 28.2827 58.2018 28.4986 58.2124C28.7146 58.2229 28.9305 58.2282 29.1464 58.2335C29.5783 58.2335 30.0129 58.2335 30.4447 58.2335C30.6607 58.2335 30.8766 58.2335 31.0925 58.2124C31.3084 58.1912 31.5244 58.1912 31.7403 58.1753C31.9562 58.1594 32.1722 58.1462 32.3881 58.125C32.604 58.1039 32.82 58.0853 33.0332 58.0615C33.2464 58.0377 33.4651 58.0112 33.6783 57.9821L34.3207 57.8895C34.5339 57.8551 34.7472 57.8207 34.9604 57.781C35.1736 57.7413 35.3869 57.7016 35.5974 57.6593C35.8079 57.6169 36.0212 57.572 36.2317 57.5243L36.8633 57.3735C37.0738 57.3206 37.2817 57.2676 37.4895 57.2094C37.6973 57.1512 37.9079 57.093 38.1157 57.0321C38.3235 56.9712 38.5287 56.9051 38.7338 56.8389C38.9389 56.7728 39.1441 56.7066 39.3492 56.6352C39.5544 56.5637 39.7541 56.4923 39.9565 56.4155C40.159 56.3388 40.3614 56.262 40.5611 56.1827C40.7609 56.1033 40.9633 56.0212 41.1603 55.9365C41.3574 55.8519 41.5571 55.7672 41.7541 55.6719C41.9512 55.5767 42.1482 55.4946 42.3426 55.4073C42.5369 55.32 42.7285 55.2194 42.9229 55.1215C43.1172 55.0236 43.3062 54.9257 43.4978 54.8225L44.0646 54.5128L44.6233 54.19L45.1767 53.8539L45.7165 53.5073L46.2563 53.1474C46.4345 53.0256 46.6099 52.9013 46.7827 52.7769L47.3036 52.3932L47.8137 51.9989C47.9811 51.8639 48.1484 51.7342 48.3131 51.5913C48.4777 51.4484 48.6424 51.3267 48.807 51.1759C48.9717 51.025 49.1282 50.8927 49.2875 50.7472C49.4467 50.6016 49.6033 50.4561 49.7598 50.3105L50.2214 49.8607C50.3725 49.7098 50.5237 49.5563 50.6721 49.4029L51.1121 48.9345C51.2579 48.7757 51.4009 48.6169 51.5413 48.4555C51.6816 48.2941 51.8112 48.1326 51.9596 47.9686C52.1081 47.8045 52.2295 47.6378 52.3672 47.4711C52.5049 47.3044 52.6371 47.135 52.764 46.9656C52.8908 46.7963 53.0204 46.6243 53.1473 46.4496C53.2741 46.275 53.3983 46.1029 53.5197 45.9204C53.6412 45.7378 53.7627 45.5684 53.8787 45.3911C53.9948 45.2138 54.1136 45.0338 54.2269 44.8618C54.3403 44.6898 54.4536 44.4967 54.5616 44.3141C54.6696 44.1315 54.7802 43.9462 54.8855 43.761C54.9908 43.5757 55.0934 43.3879 55.1959 43.2C55.2985 43.0121 55.3956 42.8215 55.4901 42.6337C55.5846 42.4458 55.6818 42.2499 55.7735 42.0594C55.8653 41.8689 55.9571 41.6731 56.0434 41.4772C56.1298 41.2814 56.2162 41.0882 56.2999 40.8924C56.3835 40.6966 56.4645 40.4981 56.5428 40.3023C56.6211 40.1065 56.6966 39.9027 56.7722 39.7042C56.8478 39.5057 56.918 39.3046 56.9881 39.1035C57.0583 38.9024 57.1258 38.6986 57.1906 38.4975C57.2554 38.2964 57.3174 38.09 57.3768 37.8862C57.4362 37.6825 57.4956 37.476 57.5523 37.2723C57.609 37.0685 57.6602 36.8595 57.7115 36.6531C57.7628 36.4466 57.8114 36.2402 57.8573 36.0312C57.9032 35.8221 57.9463 35.6157 57.9895 35.4067C58.0327 35.1976 58.0678 34.9885 58.1056 34.7795C58.1434 34.5704 58.1758 34.3587 58.2082 34.1497C58.2406 33.9406 58.2675 33.7289 58.2945 33.5172C58.3215 33.3055 58.3458 33.0938 58.3674 32.8821C58.389 32.6704 58.4106 32.4587 58.4268 32.247C58.443 32.0353 58.4592 31.8236 58.47 31.6119C58.4808 31.4002 58.4916 31.1858 58.4997 30.9741C58.5078 30.7624 58.4997 30.5481 58.5159 30.3364C58.5321 30.1247 58.5159 29.9103 58.5159 29.6986C58.5159 29.4843 58.5159 29.2726 58.4997 29.0609C58.4835 28.8491 58.4835 28.6348 58.47 28.4231C58.4565 28.2114 58.443 27.9997 58.4268 27.788C58.4106 27.5763 58.389 27.3619 58.3674 27.1502C58.3458 26.9385 58.3215 26.7295 58.2945 26.5178C58.2675 26.3061 58.2379 26.097 58.2082 25.8853C58.1785 25.6736 58.1407 25.4645 58.1056 25.2555C58.0705 25.0464 58.03 24.8374 57.9895 24.6283C57.949 24.4193 57.9032 24.2102 57.8573 24.0038C57.8114 23.7974 57.7628 23.5883 57.7115 23.3819C57.6602 23.1755 57.609 22.9691 57.5523 22.7627C57.4956 22.5563 57.4389 22.3525 57.3768 22.1488C57.3147 21.945 57.2554 21.7412 57.1906 21.5375C57.1258 21.3337 57.0583 21.1326 56.9881 20.9315C56.918 20.7303 56.8478 20.5292 56.7722 20.3308C56.6966 20.1323 56.6211 19.9312 56.5428 19.7327C56.4645 19.5342 56.3835 19.3384 56.2999 19.1426C56.2162 18.9467 56.1298 18.7509 56.0434 18.5551C55.9571 18.3593 55.8653 18.1687 55.7735 17.9756C55.6818 17.7824 55.5873 17.5918 55.4901 17.4013C55.3929 17.2108 55.2958 17.0229 55.1932 16.835C55.0907 16.6471 54.9908 16.4592 54.8855 16.274C54.7802 16.0887 54.6723 15.9035 54.5616 15.7209C54.4509 15.5383 54.3403 15.3531 54.2269 15.1731C54.1136 14.9932 53.9975 14.8132 53.8787 14.6439C53.76 14.4745 53.6412 14.2893 53.5197 14.1146C53.3983 13.94 53.2741 13.7653 53.1473 13.5854C53.0204 13.4054 52.8935 13.2414 52.764 13.072C52.6344 12.9026 52.4941 12.7333 52.3672 12.5665C52.2403 12.3998 52.0973 12.2331 51.9596 12.069C51.822 11.905 51.6897 11.7436 51.544 11.5821C51.3982 11.4207 51.2579 11.2619 51.1121 11.1031C50.9664 10.9444 50.8206 10.7882 50.6721 10.6348C50.5237 10.4813 50.3725 10.3278 50.2214 10.1769C50.0702 10.0261 49.9137 9.87527 49.7598 9.72708C49.606 9.57889 49.4467 9.43334 49.2875 9.29044C49.1282 9.14754 48.969 9.002 48.807 8.86174L48.3158 8.44363L47.8137 8.03874L47.3036 7.64445L46.7827 7.26074C46.6099 7.13636 46.4345 7.01199 46.2563 6.89026C46.0782 6.76853 45.9001 6.6468 45.7165 6.53037C45.533 6.41393 45.3548 6.29749 45.1767 6.18105C44.9985 6.06462 44.8096 5.95612 44.6233 5.84762C44.4371 5.73912 44.2509 5.62798 44.0646 5.52477L43.4978 5.21251C43.3062 5.11195 43.1145 5.01139 42.9229 4.91613C42.7312 4.82086 42.5369 4.72295 42.3426 4.63033L41.7541 4.3657L41.163 4.10107C40.9633 4.01639 40.7636 3.93435 40.5638 3.85496L39.9592 3.62209C39.7568 3.54799 39.5517 3.4739 39.3492 3.4051C39.1468 3.3363 38.9389 3.26485 38.7338 3.19869C38.5287 3.13253 38.3208 3.06902 38.1157 3.00816C37.9106 2.94729 37.7 2.88642 37.4895 2.8282L36.8633 2.66414L36.2317 2.51594L35.5974 2.37834L34.9604 2.25661C34.7472 2.21957 34.5339 2.18251 34.3207 2.15076C34.1075 2.119 33.8942 2.0846 33.6783 2.05814C33.4624 2.03168 33.2491 2.00256 33.0332 1.97875C32.8173 1.95493 32.604 1.93111 32.3881 1.91259C32.1722 1.89407 31.9589 1.87554 31.743 1.86231L31.0925 1.82527L30.4447 1.80409C30.2261 1.79615 30.0102 1.79351 29.7915 1.79351Z" fill="white" fill-opacity="0.6"/>
<path d="M11.7341 39.7018C11.7341 39.6647 11.7179 39.625 11.7125 39.5854C11.7071 39.5457 11.7125 39.5165 11.7125 39.506C11.7125 39.4954 11.7125 39.3366 11.6882 39.027C11.6639 38.7174 11.672 38.3654 11.6882 37.9685C11.7044 37.5715 11.6882 37.3254 11.7071 37.2381C11.726 37.1508 11.7206 37.0264 11.7368 36.8676C11.753 36.7088 11.7665 36.5474 11.7826 36.3886C11.7988 36.2299 11.8177 36.0843 11.842 35.9467C11.8663 35.8091 11.8744 35.7376 11.8744 35.7324C11.8744 35.7271 11.9041 35.6106 11.9581 35.3857C12.0018 35.1942 12.0558 35.0052 12.12 34.8194C12.174 34.6685 12.2145 34.5548 12.2415 34.5071L12.3657 34.2769C12.4197 34.1816 12.4709 34.0996 12.5195 34.0281L12.6248 33.8826C12.6464 33.8535 12.7139 33.7715 12.8299 33.6391C12.946 33.5068 13.0404 33.401 13.0998 33.3269L13.3185 33.1125L13.6397 32.8161L13.9096 32.5753L14.1579 32.361L14.5169 32.0567L14.8111 31.792L15.1539 31.4851L15.5237 31.1437L16.0635 30.6383C16.3172 30.3983 16.5871 30.1416 16.8732 29.8682C17.1593 29.5947 17.405 29.3486 17.6101 29.1299C17.8206 28.9129 18.0447 28.6747 18.2849 28.4207C18.5251 28.1666 18.7221 27.9576 18.8787 27.7961L19.289 27.3701L19.6426 27.0128L19.9827 26.6794C20.0933 26.5736 20.293 26.3883 20.5846 26.121C20.8761 25.8538 21.0812 25.6685 21.2 25.5627C21.3187 25.4568 21.4969 25.298 21.7398 25.0652L22.2229 24.6206C22.2985 24.5491 22.4254 24.4353 22.5981 24.2792L23.2486 23.697C23.5185 23.4642 23.7237 23.271 23.8991 23.1175L24.4389 22.6465C24.6144 22.485 24.7547 22.3607 24.8546 22.2654C24.9545 22.1701 25.2271 21.9187 25.6644 21.5033C26.1016 21.0878 26.4444 20.7676 26.6846 20.5374C26.9249 20.3071 27.1219 20.1272 27.2703 19.9896L27.659 19.6323C27.7706 19.5318 28 19.3174 28.3473 18.9893C28.6946 18.6612 28.9798 18.3965 29.2029 18.1954L29.7428 17.7138L30.1503 17.3565L30.6902 16.8908C30.9061 16.7038 31.1301 16.5053 31.3622 16.2954L31.8535 15.8587L32.3933 15.3718C32.6632 15.1337 32.8819 14.9272 33.0735 14.7605C33.2651 14.5938 33.4298 14.4483 33.5675 14.3318L33.9642 14.0037C34.0911 13.9005 34.2341 13.784 34.3934 13.6597L34.7254 13.395L34.9953 13.1807L35.4542 12.8208C35.6404 12.6726 35.7754 12.5694 35.8563 12.5112L36.0857 12.3418L36.3557 12.1433C36.4582 12.0666 36.5392 12.0057 36.5959 11.9581C36.6526 11.9105 36.7201 11.8575 36.7902 11.794L36.9711 11.63C37.017 11.585 37.1141 11.495 37.2626 11.3653L37.5946 11.069L37.8483 10.8255L38.1695 10.5132L38.3773 10.3068L38.5096 10.1798C38.5744 10.1163 38.6931 10.0104 38.8632 9.86225C39.0332 9.71406 39.1709 9.59762 39.2842 9.51559C39.3976 9.43355 39.4894 9.3621 39.5704 9.30918C39.6629 9.24844 39.7604 9.19533 39.8619 9.1504C39.9548 9.10615 40.0504 9.06728 40.148 9.03396C40.2771 9.0091 40.4079 8.99318 40.5393 8.98633C40.6091 8.98786 40.6786 8.99494 40.7472 9.00749C40.8104 9.01749 40.8727 9.03253 40.9334 9.05249L41.0387 9.08953L41.1575 9.15569C41.2134 9.18599 41.2675 9.21957 41.3194 9.25625C41.3599 9.288 41.4544 9.36739 41.6055 9.50235C41.7567 9.63731 41.8754 9.7511 41.9726 9.85166C42.0698 9.95222 42.175 10.066 42.2938 10.1957C42.4125 10.3254 42.5259 10.4444 42.6285 10.5503C42.7311 10.6561 42.8066 10.7329 42.8552 10.7752L42.9956 10.9049L43.0819 10.9816C43.0819 10.9816 43.1953 11.0848 43.3896 11.2701C43.584 11.4553 43.7351 11.6009 43.8404 11.7014L44.1373 12.0004C44.2318 12.0984 44.3262 12.1936 44.4072 12.2836C44.4882 12.3736 44.58 12.453 44.6501 12.5165L44.8094 12.6647C44.8472 12.6964 44.9228 12.7679 45.0307 12.8711L45.3708 13.2124C45.4896 13.3342 45.5706 13.4215 45.6137 13.4771C45.6569 13.5327 45.7406 13.6253 45.8567 13.7682C45.9727 13.9111 46.0483 14.0037 46.0807 14.0513L46.2184 14.271C46.27 14.3558 46.3151 14.4442 46.3533 14.5356L46.4154 14.6891C46.4279 14.7254 46.4378 14.7626 46.4451 14.8002C46.456 14.9085 46.456 15.0175 46.4451 15.1257C46.4471 15.2429 46.4363 15.3601 46.4127 15.475C46.3616 15.6408 46.2832 15.7972 46.1806 15.9381C46.1125 16.0443 46.0386 16.1468 45.9592 16.2451C45.8783 16.3483 45.7352 16.5097 45.5328 16.7452C45.3303 16.9808 45.1819 17.1369 45.0874 17.2375L44.8742 17.4518C44.831 17.4941 44.7824 17.5365 44.7311 17.5815L44.5827 17.7058L44.4531 17.809C44.418 17.8408 44.3775 17.8726 44.3317 17.907L44.1211 18.0737C44.0212 18.1478 43.9187 18.2325 43.8107 18.3383C43.7028 18.4442 43.6245 18.513 43.5705 18.5685C43.5165 18.6241 43.449 18.7114 43.3627 18.8332L43.1548 19.0978L42.8714 19.4603L42.5124 19.9102C42.4098 20.0346 42.3127 20.1537 42.2209 20.2701L41.897 20.6617L41.6703 20.9264C41.6406 20.9608 41.5542 21.0613 41.4004 21.2228L41.0468 21.6144L40.6986 21.9505L40.399 22.2839L40.2019 22.4983C40.1507 22.5565 40.0697 22.6385 39.9671 22.7497C39.8646 22.8608 39.7188 23.0143 39.538 23.1889L39.017 23.7182L38.6041 24.1496L38.3773 24.393L38.2181 24.565C38.1533 24.6338 37.9779 24.8102 37.6917 25.0943C37.4083 25.3801 37.052 25.7294 36.6283 26.1528C36.2045 26.5762 35.886 26.8699 35.6782 27.0631L35.249 27.4601L34.801 27.8676C34.5796 28.0661 34.2881 28.3254 33.9291 28.6403L33.1815 29.3072L32.9116 29.5559C32.8657 29.5956 32.6848 29.765 32.3717 30.0614C32.0586 30.3577 31.813 30.5906 31.6511 30.7441L31.2138 31.1728L30.8143 31.5724L30.3744 32.0117L29.902 32.4457L29.5241 32.8214L29.1732 33.184L28.8817 33.4883L28.6118 33.7715C28.4984 33.8879 28.3419 34.0361 28.1827 34.1975L27.7778 34.5892C27.6779 34.6818 27.5753 34.777 27.4701 34.8803L27.2002 35.1449L26.7683 35.5498C26.5578 35.7456 26.3094 35.9837 26.0179 36.2643L25.3755 36.8967C25.2379 37.0396 25.138 37.1428 25.0732 37.2063L24.8222 37.4551C24.7224 37.5583 24.6144 37.6641 24.5037 37.7806L24.1366 38.1431C24.0071 38.2737 23.8775 38.406 23.748 38.5401C23.6184 38.6777 23.5347 38.7676 23.4942 38.8047C23.4538 38.8417 23.3944 38.9105 23.308 38.9979L23.003 39.2969C22.8815 39.4107 22.7736 39.5139 22.671 39.6065L22.3687 39.8711L22.1393 40.0723C22.0907 40.1199 21.9989 40.1993 21.8694 40.3184C21.7398 40.4375 21.5832 40.583 21.397 40.7312C21.2108 40.8794 21.065 41.0117 20.9651 41.0858C20.8653 41.1599 20.7222 41.2657 20.5306 41.3901C20.3389 41.5145 20.1959 41.6071 20.096 41.6547C19.9961 41.7024 19.9152 41.7527 19.8558 41.7818L19.6992 41.8453L19.5427 41.8982C19.4779 41.9167 19.3537 41.9511 19.1675 41.9935L18.849 42.0702L18.5602 42.1496L18.1661 42.2581L17.8233 42.3534C17.6938 42.3904 17.5696 42.4222 17.4509 42.4486L17.1378 42.5121L16.9056 42.5571L16.6816 42.5995C16.6006 42.6127 16.5062 42.6286 16.4117 42.6418C16.3172 42.655 16.185 42.6709 16.0527 42.6815L15.718 42.7053L15.4994 42.7186H15.3239H15.1512H15L14.8435 42.6974L14.641 42.6683L14.3711 42.6259L14.1012 42.5809C14.0286 42.5699 13.9572 42.5522 13.888 42.528" fill="#E4BBFA"/>
<path d="M15.3485 42.8138H15.1353H14.9814L14.8195 42.79L14.6197 42.7609L14.3498 42.7212L14.0799 42.6762C14.0048 42.6633 13.9308 42.6447 13.8586 42.6206C13.8414 42.615 13.8272 42.6029 13.8191 42.587C13.811 42.5712 13.8097 42.5528 13.8154 42.5359C13.8211 42.5191 13.8334 42.5052 13.8496 42.4972C13.8658 42.4893 13.8846 42.488 13.9018 42.4936C13.9676 42.5168 14.0353 42.5345 14.1042 42.5465L14.3741 42.5888L14.644 42.6312L14.8465 42.6603L15.0003 42.6815H15.1461H15.4889L15.7048 42.6682L16.0395 42.6444C16.1745 42.6444 16.2905 42.6206 16.3958 42.6074C16.5011 42.5941 16.5955 42.5783 16.6657 42.5624L16.887 42.5201L17.1192 42.4751L17.4296 42.4116C17.5483 42.3877 17.6725 42.356 17.7993 42.3189L18.1448 42.2237L18.5389 42.1152L18.8277 42.0358L19.1462 41.959C19.3244 41.9167 19.4512 41.8849 19.516 41.8638L19.6725 41.8135L19.821 41.75L20.0585 41.6283C20.1557 41.5727 20.3014 41.4827 20.4877 41.3636C20.6739 41.2445 20.8224 41.136 20.9195 41.0619C21.0167 40.9878 21.1625 40.8661 21.346 40.71L21.8184 40.2945L22.0883 40.0511L22.3177 39.8473C22.4176 39.76 22.5202 39.67 22.62 39.5827L22.9493 39.2731C23.0708 39.1593 23.1706 39.0587 23.2543 38.974L23.4406 38.7861L23.6943 38.5215C23.8238 38.3865 23.9642 38.2569 24.083 38.1219L24.4446 37.7567L24.7658 37.4339L25.0142 37.1851L25.3165 36.8755C25.4541 36.7353 25.6728 36.5209 25.9616 36.2431C26.2504 35.9652 26.5014 35.7138 26.7092 35.5259L27.1411 35.121L27.411 34.8564L27.7187 34.5627L28.1236 34.171C28.2963 34.0043 28.4394 33.8614 28.5527 33.745L28.8227 33.4645L29.1142 33.1601C29.2383 33.0305 29.3544 32.9087 29.465 32.7976L29.8429 32.4218C29.9833 32.2816 30.1344 32.136 30.291 31.9772L30.7337 31.538L31.1304 31.141L31.5677 30.7097C31.7296 30.5509 31.9725 30.3233 32.291 30.0269C32.6095 29.7305 32.7904 29.5612 32.8309 29.5215L33.1008 29.2701C33.2411 29.1431 33.4922 28.9208 33.8512 28.6059C34.2101 28.291 34.4989 28.0316 34.7203 27.8305L35.1683 27.4256L35.5975 27.0287C35.8026 26.8355 36.1238 26.5312 36.5449 26.121C36.966 25.7108 37.3304 25.3536 37.6084 25.0625C37.8864 24.7714 38.0672 24.5994 38.132 24.5332C38.1968 24.4671 38.2508 24.4089 38.2913 24.3612L38.5207 24.1178C38.6286 24.0013 38.7663 23.8531 38.9337 23.6864L39.4546 23.1572C39.6354 22.9746 39.7785 22.8264 39.881 22.7179C39.9836 22.6094 40.0646 22.5247 40.1186 22.4532L40.3156 22.2389L40.6125 21.9081L40.9283 21.5562L41.2819 21.1672L41.5518 20.8708L41.7786 20.6061L42.0998 20.2118L42.3913 19.8519C42.4911 19.7276 42.6126 19.5873 42.7502 19.4047L43.0202 19.0422L43.228 18.7776C43.3144 18.6638 43.3872 18.5791 43.4412 18.5129C43.4952 18.4468 43.5762 18.3753 43.6841 18.2774C43.7921 18.1795 43.8974 18.0948 43.9972 18.0128L44.2105 17.8487L44.3292 17.7508L44.4588 17.6476L44.6045 17.5232C44.6558 17.4809 44.7017 17.4385 44.7476 17.3962L44.9582 17.1818C45.0526 17.0839 45.2038 16.9172 45.4008 16.6923C45.5978 16.4673 45.7436 16.3006 45.8246 16.1974C45.9028 16.0998 45.9758 15.9982 46.0432 15.8931C46.108 15.7952 46.1566 15.7132 46.189 15.6523C46.2214 15.5914 46.2483 15.5014 46.2672 15.4485C46.2891 15.3387 46.299 15.227 46.2969 15.1151C46.3064 15.0121 46.3064 14.9085 46.2969 14.8055C46.2969 14.7658 46.278 14.7314 46.2699 14.7049C46.2618 14.6784 46.2375 14.6229 46.2078 14.5541C46.1694 14.4692 46.1252 14.387 46.0756 14.308L45.9406 14.091C45.9109 14.046 45.8381 13.9507 45.722 13.8105L45.4791 13.5247C45.4359 13.4744 45.3549 13.3871 45.2389 13.26C45.1228 13.133 45.0094 13.0245 44.8988 12.9213C44.7881 12.8181 44.7179 12.7493 44.6801 12.7149L44.5182 12.5667L44.2753 12.3338L44.0053 12.0507C43.9109 11.9528 43.811 11.8522 43.7084 11.7517L43.2604 11.3203C43.0283 11.1007 42.9662 11.0557 42.9581 11.0345C42.9258 11.0109 42.8952 10.9853 42.8663 10.9578L42.7233 10.8255C42.6774 10.7805 42.6018 10.7064 42.4965 10.5979C42.3913 10.4894 42.2806 10.3729 42.1618 10.2433C42.0431 10.1136 41.9351 9.99716 41.8406 9.89925C41.7462 9.80134 41.6247 9.6849 41.4762 9.55259C41.3278 9.42027 41.2225 9.33295 41.2063 9.31177C41.1901 9.2906 41.1146 9.25091 41.0498 9.21386L40.9418 9.153L40.8393 9.1186C40.7809 9.09985 40.7214 9.08482 40.6611 9.07361C40.5968 9.06325 40.5319 9.05706 40.4668 9.05508C40.3392 9.06373 40.2122 9.07875 40.0862 9.10008C39.9942 9.13313 39.904 9.17111 39.8163 9.21386C39.717 9.25767 39.6213 9.30899 39.5302 9.36735C39.4546 9.41763 39.3628 9.48379 39.2602 9.57111C39.1577 9.65844 39.0092 9.76958 38.8419 9.91513C38.6745 10.0607 38.572 10.1639 38.491 10.2274L38.3587 10.3571L38.1509 10.5608L37.8324 10.8863L37.5787 11.1298L37.2467 11.4156C37.0982 11.5479 37.0011 11.6352 36.9552 11.6802C36.9093 11.7252 36.8472 11.7808 36.7743 11.8443C36.7015 11.9078 36.6367 11.966 36.5773 12.011L36.3344 12.1989L36.0645 12.3973L35.835 12.5667C35.7541 12.6249 35.6218 12.7281 35.4329 12.8737L34.974 13.2362L34.7041 13.4479L34.3748 13.7126L33.951 14.0619L33.5543 14.39C33.4166 14.5064 33.252 14.6546 33.063 14.8161C32.8741 14.9775 32.6446 15.1892 32.3828 15.4274L31.843 15.9143L31.3545 16.3536L30.6824 16.949L30.1722 17.4094L29.7539 17.7667L29.214 18.2456C28.99 18.4468 28.7012 18.7114 28.3584 19.0395L27.6728 19.6826L27.2814 20.0398L26.6957 20.5876L25.6781 21.5535C25.2382 21.969 24.9683 22.223 24.8684 22.3156C24.7685 22.4083 24.6282 22.5379 24.4527 22.6967L23.9264 23.1677L23.2732 23.7473L22.6254 24.3295L22.2502 24.6708L21.7671 25.1154C21.5242 25.343 21.3442 25.5097 21.2273 25.6156L20.6146 26.1713C20.3257 26.4359 20.1233 26.6238 20.0153 26.7296C19.9074 26.8355 19.7913 26.944 19.6752 27.0631L19.3217 27.4177L18.9114 27.8437L18.3176 28.4683C18.0801 28.7329 17.8533 28.9605 17.6428 29.1775C17.4323 29.3945 17.1866 29.6432 16.9059 29.9184L16.0962 30.6885L15.5563 31.1939L15.1947 31.5274C15.0489 31.6597 14.9247 31.7629 14.8519 31.8343L14.5577 32.099L14.1987 32.4086L13.9504 32.6203L13.7668 32.787L13.6831 32.8611C13.5428 32.9881 13.4375 33.086 13.3646 33.1575L13.146 33.3718C13.0731 33.4433 12.9787 33.5465 12.8761 33.6788C12.7735 33.8111 12.6872 33.9011 12.6737 33.9196C12.6602 33.9381 12.617 33.9964 12.5711 34.0652C12.5252 34.134 12.4766 34.2107 12.4199 34.306C12.3633 34.4012 12.3255 34.478 12.2985 34.5335C12.2535 34.6329 12.2139 34.7345 12.1797 34.8379C12.1162 35.0221 12.0621 35.2093 12.0178 35.3989L11.9368 35.7403C11.9368 35.7403 11.9368 35.817 11.9017 35.9546C11.8666 36.0922 11.8612 36.2378 11.845 36.3939L11.7964 36.8702C11.7964 37.029 11.7721 37.1507 11.7694 37.2381C11.7668 37.3254 11.7694 37.5688 11.7506 37.9658C11.7317 38.3627 11.7506 38.72 11.7506 39.0243C11.7506 39.3286 11.7722 39.4848 11.7749 39.5006C11.7776 39.5165 11.7749 39.5377 11.7749 39.5774C11.7794 39.6149 11.7866 39.652 11.7964 39.6885C11.7997 39.7057 11.7963 39.7234 11.7868 39.7381C11.7773 39.7529 11.7624 39.7635 11.7451 39.7679C11.7365 39.7699 11.7275 39.7701 11.7187 39.7686C11.7099 39.7672 11.7015 39.764 11.694 39.7593C11.6865 39.7546 11.6799 39.7485 11.6748 39.7414C11.6697 39.7342 11.6661 39.7262 11.6642 39.7176C11.6532 39.6768 11.6451 39.6352 11.6399 39.5933C11.6399 39.5509 11.6399 39.5218 11.6399 39.5112C11.6399 39.5006 11.6399 39.3868 11.6156 39.0296C11.6156 38.7226 11.5994 38.3627 11.6156 37.9711C11.6318 37.5794 11.6156 37.328 11.6345 37.2381C11.6534 37.1481 11.648 37.0264 11.6642 36.8649C11.6804 36.7035 11.6939 36.5474 11.7101 36.3886C11.7263 36.2298 11.7479 36.079 11.7694 35.9414C11.791 35.8038 11.8018 35.735 11.8045 35.7297C11.8072 35.7244 11.8045 35.7297 11.8855 35.383C11.9422 35.1501 11.9962 34.957 12.0502 34.8035C12.0869 34.6956 12.1292 34.5896 12.177 34.4859C12.204 34.4277 12.2472 34.3483 12.3012 34.2504C12.3552 34.1525 12.4118 34.0678 12.4577 33.9858L12.563 33.8376C12.5873 33.8085 12.6548 33.7264 12.7735 33.5888C12.8923 33.4512 12.9841 33.3507 13.0596 33.2766L13.281 33.0596C13.3538 32.9881 13.4618 32.8876 13.6022 32.7605L13.6858 32.6864L13.8721 32.5197L14.1204 32.3054C14.2473 32.1995 14.366 32.0963 14.4767 31.9984L14.7709 31.7338C14.8546 31.6623 14.9679 31.5591 15.1137 31.4268L15.4835 31.0881L16.0233 30.5826L16.833 29.8126C17.103 29.5479 17.3729 29.2833 17.5699 29.0769L18.2447 28.3677C18.4822 28.1031 18.6793 27.9046 18.8358 27.7432L19.2488 27.3145L19.6024 26.9599C19.7211 26.8408 19.8345 26.7296 19.9452 26.6238C20.0558 26.5179 20.2556 26.3327 20.5471 26.0654C20.8386 25.7982 21.0437 25.6129 21.1625 25.5071C21.2812 25.4012 21.4594 25.2424 21.7023 25.0096L22.1854 24.5623L22.5606 24.2236L23.2111 23.6388L23.8616 23.0592C24.0371 22.9058 24.2098 22.7496 24.4014 22.5882L24.8171 22.2098L25.6269 21.4477L26.6471 20.4818C26.8874 20.2542 27.0817 20.0716 27.2329 19.934L27.6215 19.5767C27.7322 19.4762 27.9616 19.2592 28.3071 18.9337C28.6526 18.6082 28.9414 18.3409 29.1681 18.1398L29.708 17.6608L30.1155 17.3009C30.2532 17.1818 30.4286 17.0363 30.6554 16.8378L31.3275 16.2424L31.8187 15.8058L32.3585 15.3189C32.6284 15.078 32.8471 14.8743 33.0387 14.7049C33.2304 14.5355 33.395 14.3927 33.5327 14.2762L33.9321 13.9481L34.3613 13.6014L34.6933 13.3368L34.9632 13.1251L35.4221 12.7625L35.8269 12.4529L36.0564 12.2809L36.3263 12.0877L36.5638 11.9025L36.7581 11.7384C36.8283 11.6776 36.8877 11.622 36.9336 11.577C36.9795 11.532 37.0793 11.442 37.2305 11.3124L37.5571 11.016C37.6273 10.9498 37.7136 10.8704 37.8108 10.7752L38.132 10.4629C38.2481 10.3491 38.3156 10.2803 38.3398 10.2592L38.4721 10.1295C38.5423 10.0633 38.6637 9.95218 38.8284 9.80928C38.993 9.66638 39.1388 9.54465 39.2522 9.45997C39.3655 9.37529 39.4627 9.30384 39.5437 9.25092C39.6393 9.18989 39.7394 9.13592 39.8433 9.08949C39.9384 9.0425 40.0367 9.00184 40.1375 8.96776C40.2746 8.94095 40.4135 8.92415 40.5531 8.91748C40.6938 8.92006 40.8331 8.94416 40.9661 8.98893L41.0768 9.02598C41.1212 9.04496 41.1636 9.068 41.2036 9.09479C41.2711 9.13448 41.3278 9.16888 41.371 9.20064C41.4142 9.23239 41.5086 9.31443 41.6598 9.44939C41.8109 9.58435 41.9297 9.71401 42.0323 9.80399C42.1348 9.89396 42.2347 10.0183 42.3562 10.1507C42.4776 10.283 42.5856 10.3968 42.6882 10.5026C42.7907 10.6085 42.8663 10.6826 42.9122 10.7249L43.0525 10.8546L43.1308 10.9234C43.1308 10.9234 43.1497 10.9366 43.4493 11.2198C43.6437 11.405 43.7948 11.5505 43.8974 11.6537C43.9999 11.7569 44.1025 11.8549 44.197 11.9528C44.2915 12.0507 44.3859 12.1433 44.4669 12.2333L44.7098 12.4662L44.8691 12.6117C44.9069 12.6461 44.9824 12.7149 45.0904 12.8208C45.1984 12.9266 45.3144 13.0404 45.4332 13.1648C45.552 13.2891 45.6356 13.3765 45.6788 13.4294C45.722 13.4823 45.8057 13.5776 45.9217 13.7205C46.0378 13.8634 46.1188 13.9613 46.1512 14.0116C46.1836 14.0619 46.2295 14.1333 46.2888 14.2312C46.3407 14.3167 46.3876 14.4051 46.4292 14.4959C46.4616 14.57 46.4805 14.6229 46.494 14.6546C46.5074 14.6864 46.5156 14.7261 46.5264 14.7711C46.5364 14.8846 46.5364 14.9989 46.5264 15.1124C46.5292 15.236 46.5174 15.3594 46.4913 15.4803C46.4724 15.5411 46.4427 15.6126 46.4049 15.7026C46.359 15.7937 46.3076 15.882 46.251 15.9672C46.1836 16.073 46.108 16.1763 46.027 16.2795C45.946 16.3827 45.8003 16.5441 45.5979 16.7822C45.3954 17.0204 45.247 17.1765 45.1498 17.2771C45.0526 17.3777 44.9824 17.4491 44.9366 17.4915C44.8907 17.5338 44.8421 17.5814 44.7881 17.6264L44.6396 17.7534L44.5101 17.854C44.475 17.8857 44.4318 17.9175 44.3886 17.9546L44.1754 18.1186C44.0782 18.1927 43.9757 18.28 43.8704 18.3833C43.7651 18.4865 43.6868 18.5553 43.6356 18.6108C43.5843 18.6664 43.5141 18.7511 43.4304 18.8596L43.2226 19.1242C43.1713 19.1904 43.0768 19.3121 42.9365 19.4868C42.7961 19.6614 42.6666 19.8149 42.5775 19.9393L42.286 20.2965C42.1942 20.413 42.0863 20.5426 41.9648 20.6908C41.8433 20.839 41.7651 20.929 41.7354 20.9554C41.7057 20.9819 41.6193 21.0904 41.4655 21.2545L41.1119 21.6461C41.0228 21.7414 40.9202 21.8578 40.7988 21.9954L40.4992 22.3262L40.3021 22.5406L40.0646 22.8052C39.9593 22.9163 39.8163 23.0698 39.6354 23.2471C39.4546 23.4244 39.2791 23.6044 39.1145 23.7764C38.9498 23.9484 38.8122 24.0886 38.7042 24.2051C38.5963 24.3215 38.518 24.4009 38.4775 24.4485L38.3155 24.6206C38.2508 24.6894 38.0753 24.8693 37.7757 25.1498C37.4761 25.4303 37.136 25.7849 36.7095 26.2083C36.2831 26.6317 35.9673 26.9255 35.7595 27.1187L35.3303 27.5156L34.8795 27.9231C34.6609 28.1216 34.3694 28.3809 34.0104 28.6985C33.6514 29.016 33.4031 29.2277 33.2627 29.3627L32.9928 29.6141L32.453 30.1169C32.1345 30.4133 31.8943 30.6462 31.7323 30.797L31.2519 31.2125L30.8551 31.6094C30.7202 31.7444 30.5852 31.8926 30.4152 32.0487C30.2451 32.2048 30.1074 32.3557 29.9644 32.4933C29.8213 32.6309 29.6945 32.7579 29.5892 32.869L29.2383 33.2289L28.9495 33.5333L28.6796 33.8164L28.2477 34.2451L27.8429 34.6368L27.5352 34.9279L27.2652 35.1925C27.187 35.2692 27.0412 35.4042 26.8334 35.6C26.6255 35.7958 26.3745 36.034 26.0857 36.3145C25.7969 36.595 25.581 36.8067 25.4433 36.947L25.1383 37.2566L24.89 37.5053L24.5715 37.8282L24.2098 38.1934C24.0802 38.323 23.9399 38.458 23.8211 38.593L23.5701 38.8576L23.3812 39.0508C23.2984 39.1354 23.1958 39.236 23.0735 39.3524C22.9511 39.4689 22.8404 39.5721 22.7415 39.6621C22.6389 39.7573 22.539 39.8473 22.4365 39.9267L22.2097 40.1278L21.9398 40.3713C21.8103 40.4877 21.651 40.6359 21.4648 40.7867C21.2785 40.9376 21.1328 41.0672 21.0329 41.144C20.9331 41.2207 20.7846 41.3239 20.593 41.4509C20.4013 41.578 20.2556 41.6706 20.153 41.7156C20.0504 41.7606 19.9694 41.8135 19.9074 41.8426C19.8453 41.8717 19.7913 41.8955 19.7481 41.9114L19.5862 41.9643C19.5187 41.9855 19.3918 42.0173 19.2083 42.0596L18.8898 42.1363L18.6037 42.2157L18.2096 42.3242L17.8668 42.4195C17.7373 42.4565 17.5969 42.4883 17.4889 42.5148L17.1758 42.5783L16.9437 42.6233L16.7197 42.6656C16.636 42.6815 16.5415 42.6974 16.4336 42.7106C16.3256 42.7238 16.2068 42.737 16.0692 42.7476L15.7345 42.7741L15.5105 42.7873L15.3485 42.8138Z" fill="#E4BBFA"/>
<path d="M22.6576 40.3713C22.5376 40.3709 22.4188 40.3474 22.3082 40.3019C22.1975 40.2565 22.097 40.1902 22.0125 40.1066L14.3227 32.5673C14.237 32.4849 14.1689 32.3864 14.1226 32.2778C14.0762 32.1692 14.0525 32.0526 14.0527 31.9349C14.0531 31.8172 14.0771 31.7008 14.1234 31.5923C14.1697 31.4838 14.2374 31.3853 14.3227 31.3024L32.0614 13.9031C32.2325 13.7353 32.4645 13.6411 32.7065 13.6411C32.9485 13.6411 33.1805 13.7353 33.3516 13.9031L41.0415 21.4424C41.2125 21.6103 41.3095 21.8375 41.3114 22.0748C41.311 22.1925 41.287 22.3089 41.2407 22.4174C41.1943 22.5259 41.1267 22.6245 41.0415 22.7073L23.2919 40.1093C23.1235 40.2744 22.8958 40.3685 22.6576 40.3713V40.3713ZM16.2552 31.9375L22.6576 38.2145L39.1224 22.0722L32.72 15.7952L16.2552 31.9375Z" fill="#621F82"/>
<path d="M40.502 22.7019C40.3158 22.6985 40.1384 22.6234 40.0081 22.4929L32.5611 14.9509C32.4966 14.8862 32.4458 14.8097 32.4115 14.7257C32.3773 14.6417 32.3602 14.5518 32.3614 14.4614C32.3652 14.2788 32.4417 14.105 32.5746 13.9771L35.6436 11.0662C35.7098 11.0032 35.7881 10.9537 35.8739 10.9204C35.9597 10.8871 36.0513 10.8707 36.1436 10.8722C36.2358 10.8736 36.3269 10.8929 36.4115 10.929C36.4962 10.965 36.5727 11.017 36.6368 11.0821L44.0865 18.624C44.1507 18.6889 44.2013 18.7656 44.2352 18.8498C44.2692 18.9339 44.2859 19.0237 44.2844 19.1142C44.2829 19.2046 44.2632 19.2939 44.2265 19.3769C44.1897 19.4599 44.1367 19.535 44.0703 19.5978L41.0014 22.5087C40.8673 22.635 40.6879 22.7044 40.502 22.7019V22.7019ZM34.0457 14.4984L40.5236 21.0506L42.5885 19.0897L36.1105 12.5375L34.0457 14.4984Z" fill="#621F82"/>
<path d="M40.0724 22.3394C39.9654 22.3393 39.8596 22.3184 39.7609 22.278C39.6622 22.2376 39.5727 22.1784 39.4975 22.1039L32.9034 15.5596C32.7526 15.4109 32.668 15.2096 32.668 14.9999C32.668 14.7902 32.7526 14.589 32.9034 14.4402L39.5811 7.97534C39.733 7.82667 39.9388 7.74316 40.1534 7.74316C40.3679 7.74316 40.5737 7.82667 40.7256 7.97534L47.3196 14.517C47.4713 14.6658 47.5564 14.8676 47.5564 15.078C47.5564 15.2884 47.4713 15.4901 47.3196 15.639L40.6446 22.1039C40.5697 22.1781 40.4806 22.2371 40.3824 22.2775C40.2842 22.3179 40.1789 22.3389 40.0724 22.3394V22.3394ZM34.6201 15.0092L40.0778 20.4261L45.6029 15.0727L40.1426 9.65837L34.6201 15.0092Z" fill="#621F82"/>
<path d="M41.6217 49.8767C41.1342 49.8767 40.6666 49.6869 40.3219 49.3489C39.9772 49.011 39.7835 48.5526 39.7835 48.0746L39.7647 29.106C39.7643 28.8692 39.8116 28.6345 39.9038 28.4156C39.996 28.1966 40.1314 27.9977 40.3021 27.83C40.4728 27.6624 40.6756 27.5294 40.8987 27.4387C41.1219 27.348 41.3612 27.3013 41.6028 27.3013V27.3013C42.0903 27.3013 42.5578 27.4911 42.9025 27.8291C43.2472 28.1671 43.4409 28.6254 43.4409 29.1034L43.4598 48.072C43.4598 48.5502 43.2662 49.0088 42.9216 49.3472C42.577 49.6856 42.1094 49.876 41.6217 49.8767V49.8767Z" fill="#621F82"/>
<path d="M31.9533 40.4584C31.4882 40.4408 31.0482 40.2472 30.7255 39.9184C30.4029 39.5895 30.2227 39.151 30.2227 38.6947C30.2227 38.2384 30.4029 37.7998 30.7255 37.471C31.0482 37.1422 31.4882 36.9486 31.9533 36.9309L50.8689 36.8674C51.3464 36.8674 51.8043 37.0534 52.1419 37.3844C52.4796 37.7154 52.6692 38.1644 52.6692 38.6325C52.6692 39.1006 52.4796 39.5496 52.1419 39.8806C51.8043 40.2116 51.3464 40.3976 50.8689 40.3976L31.9533 40.4584Z" fill="#621F82"/>
<path d="M9.70508 44.0415L11.5945 37.3279L16.677 42.729L9.70508 44.0415Z" fill="#621F82"/>
<path d="M9.7047 44.1077C9.69556 44.1076 9.68654 44.1056 9.67819 44.102C9.66984 44.0983 9.66233 44.0931 9.65612 44.0865C9.64826 44.0786 9.64263 44.0689 9.63979 44.0582C9.63695 44.0475 9.637 44.0363 9.63992 44.0257L11.5293 37.3094C11.5327 37.2983 11.5391 37.2883 11.5477 37.2804C11.5562 37.2725 11.5668 37.2669 11.5783 37.2643C11.5897 37.2616 11.6017 37.2619 11.613 37.2652C11.6243 37.2684 11.6345 37.2746 11.6427 37.2829L16.7387 42.684C16.7464 42.693 16.7516 42.7038 16.7538 42.7153C16.756 42.7269 16.7552 42.7388 16.7514 42.7499C16.7476 42.761 16.741 42.771 16.7322 42.779C16.7233 42.7869 16.7126 42.7924 16.7009 42.7951L9.7263 44.1183L9.7047 44.1077ZM11.6184 37.4602L9.79918 43.9648L16.547 42.6946L11.6184 37.4602Z" fill="#621F82"/>
<path d="M10.2121 44.3829C10.1514 44.382 10.0908 44.3758 10.0312 44.3644C9.91309 44.3413 9.80075 44.2956 9.70067 44.2299C9.60058 44.1641 9.51472 44.0797 9.44802 43.9813C9.38131 43.883 9.33506 43.7727 9.31194 43.6568C9.28882 43.5408 9.28926 43.4216 9.31326 43.3059L11.2027 34.0597C11.2503 33.8264 11.3905 33.6211 11.5925 33.4891C11.7944 33.3571 12.0416 33.3091 12.2796 33.3558C12.5176 33.4025 12.727 33.5399 12.8616 33.738C12.9963 33.936 13.0452 34.1783 12.9976 34.4117L11.1082 43.6578C11.0671 43.8615 10.9554 44.0449 10.7921 44.1771C10.6288 44.3092 10.4238 44.382 10.2121 44.3829V44.3829Z" fill="#621F82"/>
<path d="M10.2121 44.3829C10.1514 44.382 10.0908 44.3758 10.0312 44.3644C9.91309 44.3413 9.80075 44.2956 9.70067 44.2299C9.60058 44.1641 9.51472 44.0797 9.44802 43.9813C9.38131 43.883 9.33506 43.7727 9.31194 43.6568C9.28882 43.5408 9.28926 43.4216 9.31326 43.3059L11.2027 34.0597C11.2503 33.8264 11.3905 33.6211 11.5925 33.4891C11.7944 33.3571 12.0416 33.3091 12.2796 33.3558C12.5176 33.4025 12.727 33.5399 12.8616 33.738C12.9963 33.936 13.0452 34.1783 12.9976 34.4117L11.1082 43.6578C11.0671 43.8615 10.9554 44.0449 10.7921 44.1771C10.6288 44.3092 10.4238 44.382 10.2121 44.3829V44.3829Z" fill="#621F82"/>
<path d="M10.2306 44.5443C10.0007 44.5424 9.78001 44.4558 9.61234 44.3016C9.44467 44.1475 9.34232 43.9371 9.32565 43.7123C9.30899 43.4876 9.37921 43.2649 9.52237 43.0885C9.66554 42.9122 9.87115 42.7952 10.0983 42.7607L19.6182 41.4085C19.7372 41.3911 19.8584 41.3969 19.975 41.4254C20.0917 41.454 20.2015 41.5048 20.2981 41.575C20.3947 41.6451 20.4763 41.7332 20.5382 41.8343C20.6001 41.9354 20.641 42.0474 20.6587 42.164C20.6765 42.2806 20.6706 42.3995 20.6415 42.5138C20.6123 42.6282 20.5605 42.7358 20.4889 42.8305C20.4174 42.9253 20.3275 43.0053 20.2244 43.0659C20.1213 43.1266 20.0071 43.1668 19.8881 43.1841L10.3709 44.5364L10.2306 44.5443Z" fill="#621F82"/>
<path d="M12.2069 35.0443C12.0408 35.0505 11.8769 35.0065 11.7372 34.9182C11.5976 34.83 11.489 34.7017 11.4262 34.5509C11.3634 34.4001 11.3495 34.2339 11.3863 34.0751C11.4231 33.9162 11.5089 33.7723 11.632 33.6629L17.7968 27.7246C17.8739 27.6504 17.9652 27.5918 18.0653 27.5522C18.1655 27.5126 18.2727 27.4927 18.3807 27.4937C18.4887 27.4947 18.5955 27.5165 18.6949 27.5579C18.7944 27.5994 18.8845 27.6596 18.9602 27.7352C19.0358 27.8108 19.0956 27.9002 19.136 27.9985C19.1764 28.0967 19.1967 28.2018 19.1957 28.3077C19.1947 28.4136 19.1724 28.5183 19.1302 28.6157C19.0879 28.7132 19.0264 28.8016 18.9493 28.8758L12.7845 34.814C12.6299 34.9616 12.4227 35.0442 12.2069 35.0443V35.0443Z" fill="#621F82"/>
<path d="M20.1072 42.8851C19.9409 42.8919 19.7765 42.8483 19.6364 42.7602C19.4963 42.6722 19.3873 42.544 19.3242 42.393C19.2611 42.242 19.2469 42.0757 19.2837 41.9166C19.3204 41.7574 19.4063 41.6133 19.5296 41.5037L25.6944 35.5654C25.7715 35.4912 25.8628 35.4327 25.963 35.393C26.0631 35.3534 26.1703 35.3335 26.2783 35.3345C26.3864 35.3355 26.4931 35.3573 26.5926 35.3988C26.692 35.4402 26.7821 35.5004 26.8578 35.576C26.9334 35.6516 26.9932 35.7411 27.0336 35.8393C27.074 35.9375 27.0943 36.0426 27.0933 36.1485C27.0923 36.2544 27.07 36.3591 27.0278 36.4565C26.9855 36.554 26.9241 36.6424 26.847 36.7166L20.6821 42.6548C20.6064 42.7284 20.5167 42.7866 20.418 42.8261C20.3194 42.8656 20.2137 42.8857 20.1072 42.8851V42.8851Z" fill="#621F82"/>
<path d="M41.7245 48.6753C41.4443 48.6753 41.1756 48.5663 40.9773 48.3724C40.7789 48.1784 40.6671 47.9152 40.6664 47.6406L40.6367 29.4711C40.6367 29.1962 40.7477 28.9325 40.9455 28.7376C41.1433 28.5427 41.4117 28.4326 41.6921 28.4312C41.9725 28.4319 42.2412 28.5414 42.4395 28.7358C42.6377 28.9301 42.7494 29.1936 42.7501 29.4685L42.7799 47.6379C42.7799 47.9126 42.6687 48.176 42.4709 48.3705C42.273 48.565 42.0046 48.6746 41.7245 48.6753Z" fill="#E4BBFA"/>
<path d="M32.2778 39.7308C31.9972 39.7308 31.7281 39.6215 31.5296 39.4269C31.3312 39.2324 31.2197 38.9685 31.2197 38.6934C31.2197 38.4183 31.3312 38.1544 31.5296 37.9599C31.7281 37.7654 31.9972 37.6561 32.2778 37.6561L50.8102 37.5291C51.0908 37.5291 51.3599 37.6384 51.5583 37.8329C51.7567 38.0274 51.8682 38.2913 51.8682 38.5664C51.8682 38.8415 51.7567 39.1054 51.5583 39.2999C51.3599 39.4945 51.0908 39.6037 50.8102 39.6037L32.2778 39.7308Z" fill="#E4BBFA"/>
<path d="M29.9962 59.353H29.3161L28.6413 59.3319C28.4119 59.3319 28.1878 59.3081 27.9611 59.2922C27.7344 59.2763 27.5103 59.2604 27.2863 59.2392C27.0623 59.2181 26.8355 59.1969 26.6115 59.1731C26.3875 59.1493 26.1608 59.1202 25.9394 59.0911C25.7181 59.0619 25.4914 59.0275 25.2673 58.9931C25.0433 58.9587 24.8193 58.9217 24.5979 58.882L23.9313 58.755L23.27 58.6147C23.0486 58.5618 22.83 58.5115 22.6114 58.4559C22.3927 58.4004 22.1714 58.3448 21.9555 58.2866L21.305 58.1013C21.0864 58.0378 20.8704 57.969 20.6545 57.9002C20.4386 57.8314 20.228 57.7626 20.0148 57.6885C19.8016 57.6144 19.5883 57.5377 19.3778 57.4583C19.1673 57.3789 18.9567 57.3022 18.7462 57.2175C18.5357 57.1328 18.3278 57.0508 18.12 56.9528L17.4992 56.6882C17.2941 56.5956 17.0889 56.5003 16.8865 56.4024C16.6841 56.3045 16.4789 56.2066 16.2792 56.106C16.0794 56.0055 15.8797 55.9023 15.68 55.7964C15.4802 55.6906 15.2832 55.5821 15.0861 55.4736C14.8891 55.3651 14.6948 55.2513 14.5004 55.1349C14.3061 55.0184 14.1145 54.9046 13.9228 54.7855C13.7312 54.6665 13.5449 54.5474 13.356 54.4256C13.1671 54.3039 12.9808 54.1769 12.7973 54.0499C12.6137 53.9228 12.4275 53.7852 12.2574 53.6635C12.0874 53.5418 11.8958 53.3989 11.7176 53.2666C11.5395 53.1343 11.3586 53.0019 11.1778 52.8538C10.9969 52.7056 10.8269 52.5732 10.6541 52.4303C10.4814 52.2874 10.3087 52.1446 10.1386 51.9964C9.96857 51.8482 9.80391 51.7026 9.63656 51.5518L9.14263 51.0966C8.98068 50.9431 8.81872 50.787 8.66217 50.6282C8.50562 50.4694 8.34367 50.3107 8.18982 50.1519C8.03597 49.9931 7.88211 49.829 7.72826 49.6623C7.57441 49.4956 7.42866 49.3342 7.28021 49.1648C7.13176 48.9955 6.986 48.8288 6.84295 48.6567C6.69989 48.4847 6.55683 48.3127 6.41648 48.1275C6.27612 47.9422 6.14657 47.7782 6.00352 47.5982C5.86046 47.4183 5.73359 47.2436 5.60403 47.069C5.47447 46.8943 5.33413 46.7091 5.21267 46.5238C5.09121 46.3386 4.96164 46.1586 4.83748 45.9734C4.71332 45.7882 4.59455 45.6003 4.47579 45.4124C4.35703 45.2245 4.23827 45.034 4.1249 44.8408C4.01154 44.6476 3.89817 44.4597 3.78751 44.2666C3.67684 44.0734 3.56887 43.8775 3.46361 43.6817C3.35834 43.4859 3.25578 43.2901 3.15322 43.0916C3.05065 42.8931 2.95347 42.6947 2.859 42.4935C2.76453 42.2924 2.66736 42.0939 2.58909 41.8902C2.51081 41.6864 2.40824 41.4853 2.31917 41.2789C2.2301 41.0725 2.14912 40.8714 2.06545 40.665C1.98178 40.4585 1.9035 40.2495 1.82522 40.0431C1.74695 39.8367 1.67408 39.6276 1.6012 39.4159C1.52833 39.2042 1.45814 38.9951 1.39066 38.7861C1.32318 38.577 1.25571 38.3627 1.19363 38.1483C1.13155 37.934 1.06947 37.7223 1.01009 37.5106C0.950709 37.2989 0.896727 37.0792 0.842744 36.8649C0.788761 36.6505 0.740177 36.4335 0.691593 36.2165C0.643008 35.9995 0.59712 35.7852 0.553933 35.5682C0.510747 35.3512 0.470256 35.1316 0.432468 34.9119C0.39468 34.6923 0.359587 34.4779 0.327198 34.2583C0.294808 34.0387 0.262427 33.819 0.235436 33.5994C0.208444 33.3797 0.181442 33.1601 0.15715 32.9404C0.132857 32.7208 0.113971 32.4985 0.0977764 32.2762C0.0815815 32.0539 0.0626756 31.8369 0.051879 31.6146C0.0410824 31.3924 0.027588 31.1727 0.0194906 30.9504C0.0113931 30.7281 0.0194939 30.5085 0.00599811 30.2862C-0.00749764 30.0639 0.00599811 29.8443 0.00599811 29.622C0.00599811 29.3997 0.00599481 29.1801 0.0194906 28.9578C0.0329863 28.7355 0.0383833 28.5158 0.051879 28.2936C0.0653748 28.0713 0.0788824 27.8516 0.0977764 27.632C0.11667 27.4123 0.135557 27.1901 0.15715 26.9704C0.178743 26.7508 0.205745 26.5285 0.235436 26.3088C0.265126 26.0892 0.292109 25.8696 0.327198 25.6526C0.362287 25.4356 0.39468 25.2133 0.432468 24.9963C0.470256 24.7793 0.510747 24.5596 0.553933 24.3427C0.59712 24.1257 0.643008 23.9087 0.691593 23.6917C0.740177 23.4747 0.791461 23.2603 0.842744 23.046C0.894028 22.8316 0.953408 22.6146 1.01009 22.4003C1.06677 22.1859 1.12885 21.9742 1.19363 21.7599C1.25841 21.5455 1.32049 21.3365 1.39066 21.1248C1.46084 20.9131 1.52833 20.7014 1.6012 20.4923C1.67408 20.2832 1.74965 20.0742 1.82792 19.8651C1.9062 19.6561 1.98448 19.4523 2.06545 19.2459C2.14642 19.0395 2.2328 18.8331 2.31917 18.6293C2.40554 18.4256 2.49732 18.2218 2.58909 18.018C2.68086 17.8143 2.77533 17.6158 2.859 17.4147C2.94267 17.2136 3.05335 17.0151 3.15322 16.8166C3.25308 16.6181 3.35834 16.4223 3.46361 16.2265C3.56887 16.0307 3.67684 15.8348 3.78751 15.6417C3.89817 15.4485 4.00884 15.2579 4.1249 15.0648C4.24097 14.8716 4.35703 14.6863 4.47579 14.4985C4.59455 14.3106 4.71602 14.1227 4.83748 13.9374C4.95894 13.7522 5.08579 13.567 5.21535 13.3844C5.34491 13.2018 5.48527 13.0192 5.60403 12.8392C5.72279 12.6593 5.87396 12.4793 6.00352 12.31C6.13308 12.1406 6.27342 11.9554 6.41648 11.7807C6.55953 11.6061 6.6864 11.4341 6.84295 11.2647C6.9995 11.0953 7.13176 10.926 7.28021 10.7566C7.42866 10.5872 7.57711 10.4232 7.72826 10.2591L8.18982 9.76954C8.34367 9.61077 8.50292 9.45199 8.66217 9.29321C8.82142 9.13444 8.98068 8.98095 9.14263 8.82747C9.30458 8.67398 9.46921 8.52049 9.63656 8.36966C9.80391 8.21882 9.97125 8.07063 10.1413 7.92508C10.3113 7.77953 10.4814 7.63399 10.6541 7.49109C10.8269 7.34819 10.9996 7.20794 11.1778 7.06769L11.7176 6.65751L12.2574 6.25792C12.4383 6.12825 12.6245 5.99329 12.7973 5.87156C12.97 5.74983 13.1698 5.62017 13.3587 5.49844C13.5476 5.37671 13.7366 5.25497 13.9255 5.13589C14.1145 5.01681 14.3115 4.90038 14.5058 4.78659C14.7002 4.6728 14.8918 4.55901 15.0888 4.44786C15.2859 4.33672 15.4829 4.23087 15.6827 4.12502L16.2819 3.8154C16.4816 3.71484 16.684 3.61693 16.8892 3.51901C17.0943 3.4211 17.2968 3.32848 17.5019 3.23586C17.707 3.14324 17.9149 3.05326 18.1227 2.97123C18.3305 2.88919 18.5384 2.79922 18.7489 2.7066C18.9594 2.61398 19.1673 2.54253 19.3805 2.46579C19.5937 2.38905 19.8043 2.30966 20.0175 2.23821L20.6572 2.02386L21.3077 1.82274C21.5209 1.75923 21.7396 1.69836 21.9582 1.6375C22.1768 1.57663 22.3954 1.52107 22.6141 1.46814C22.8327 1.41521 23.054 1.35964 23.2727 1.31201C23.4913 1.26438 23.7126 1.2141 23.934 1.16911L24.6006 1.04208C24.8247 1.00239 25.046 0.965346 25.27 0.930944L25.9421 0.833033L26.6115 0.750999C26.8382 0.727182 27.065 0.703365 27.289 0.684841C27.513 0.666317 27.7371 0.64779 27.9638 0.631912C28.1905 0.616035 28.4173 0.605446 28.644 0.594861C28.8707 0.584275 29.0947 0.576337 29.3215 0.571045C29.7722 0.571045 30.2257 0.571045 30.671 0.571045L31.3512 0.594861C31.5753 0.594861 31.802 0.616035 32.0287 0.631912C32.2554 0.64779 32.4768 0.663671 32.7035 0.684841C32.9302 0.706012 33.1516 0.727182 33.3783 0.750999L34.0504 0.833033L34.7198 0.930944C34.9438 0.965346 35.1678 1.00239 35.3892 1.04208L36.0558 1.16911C36.2772 1.21321 36.4985 1.26085 36.7198 1.31201C36.9385 1.36229 37.1598 1.41257 37.3784 1.46814C37.5971 1.52371 37.8157 1.57928 38.0343 1.6375C38.2529 1.69572 38.4689 1.75923 38.6848 1.82539L39.3326 2.02386C39.5485 2.09267 39.7618 2.16411 39.975 2.23821C40.1882 2.31231 40.4015 2.3864 40.612 2.46579C40.8225 2.54518 41.0331 2.62457 41.2436 2.7066L41.8698 2.97123C42.0777 3.05856 42.2828 3.14853 42.4879 3.23586C42.6931 3.32319 42.8982 3.42375 43.1033 3.51901L43.7106 3.8154C43.9104 3.91596 44.1101 4.01916 44.3098 4.12766C44.5096 4.23615 44.7066 4.33936 44.901 4.4505C45.0953 4.56165 45.2923 4.6728 45.4867 4.78659C45.681 4.90038 45.8726 5.01681 46.0643 5.13589C46.2559 5.25497 46.4449 5.37406 46.6338 5.49844L47.1925 5.87156C47.3788 5.99858 47.5623 6.13619 47.7324 6.25792C47.9024 6.37965 48.0967 6.52255 48.2722 6.65751C48.4476 6.79247 48.6312 6.92214 48.812 7.06769C48.9929 7.21323 49.1629 7.34819 49.3357 7.49109C49.5084 7.63399 49.6785 7.77953 49.8485 7.92508C50.0185 8.07063 50.1859 8.21882 50.3532 8.36966C50.5206 8.52049 50.6825 8.67133 50.8445 8.82747L51.3276 9.29321C51.4869 9.45199 51.6434 9.61077 51.8 9.77219C51.9565 9.93362 52.1077 10.095 52.2588 10.2591C52.41 10.4232 52.5611 10.5899 52.7096 10.7566C52.858 10.9233 53.0011 11.0953 53.1469 11.2647L53.5706 11.7807C53.711 11.9554 53.8405 12.1327 53.9836 12.31C54.1266 12.4873 54.2535 12.6646 54.3858 12.8392C54.518 13.0139 54.6557 13.2018 54.7744 13.3844C54.8932 13.567 55.0282 13.7496 55.1496 13.9374C55.2711 14.1253 55.3953 14.3106 55.514 14.4985C55.6328 14.6863 55.7488 14.8769 55.8649 15.0674C55.981 15.2579 56.0916 15.4485 56.1996 15.6443C56.3076 15.8401 56.4182 16.0307 56.5235 16.2265C56.6288 16.4223 56.734 16.6181 56.8339 16.8166C56.9338 17.0151 57.0336 17.2162 57.1308 17.4147C57.228 17.6131 57.3224 17.8169 57.4142 18.0207C57.506 18.2244 57.5951 18.4256 57.6841 18.6293C57.7732 18.8331 57.8569 19.0395 57.9378 19.2459C58.0188 19.4523 58.0998 19.6587 58.1781 19.8678C58.2563 20.0768 58.3319 20.2832 58.4048 20.4923C58.4777 20.7014 58.5479 20.9131 58.6153 21.1248C58.6828 21.3365 58.7476 21.5482 58.8124 21.7599C58.8771 21.9716 58.9365 22.1859 58.9932 22.4003C59.0499 22.6146 59.1066 22.829 59.1606 23.046C59.2146 23.263 59.2631 23.4747 59.3117 23.6917C59.3603 23.9087 59.4062 24.1257 59.4494 24.3427C59.4925 24.5596 59.533 24.7766 59.5708 24.9963C59.6086 25.2159 59.6464 25.4329 59.6788 25.6526C59.7112 25.8722 59.7409 26.0918 59.7706 26.3115C59.8003 26.5311 59.8246 26.7508 59.8461 26.9704C59.8677 27.1901 59.8893 27.4123 59.9082 27.632C59.9271 27.8516 59.9406 28.0739 59.9541 28.2962C59.9676 28.5185 59.9757 28.7381 59.9838 28.9578C59.9919 29.1774 59.9838 29.3997 60 29.622C60 29.8443 60 30.0666 60 30.2862C60 30.5059 60 30.7308 59.9838 30.9504C59.9676 31.1701 59.9676 31.3924 59.9541 31.6146C59.9406 31.8369 59.9244 32.0566 59.9082 32.2789C59.892 32.5012 59.8704 32.7181 59.8461 32.9378C59.8219 33.1574 59.7976 33.3797 59.7706 33.5994C59.7436 33.819 59.7112 34.0387 59.6788 34.2583C59.6464 34.4779 59.6086 34.6949 59.5708 34.9146C59.533 35.1342 59.4925 35.3486 59.4494 35.5656C59.4062 35.7826 59.3603 35.9995 59.3117 36.2165C59.2631 36.4335 59.2146 36.6505 59.1606 36.8649C59.1066 37.0792 59.0526 37.2936 58.9932 37.5079C58.9338 37.7223 58.8744 37.9366 58.8124 38.1483C58.7503 38.36 58.6828 38.5717 58.6153 38.7834C58.5479 38.9951 58.4777 39.2068 58.4048 39.4159C58.3319 39.625 58.2563 39.834 58.1781 40.0431C58.0998 40.2521 58.0215 40.4585 57.9378 40.665C57.8542 40.8714 57.7705 41.0751 57.6841 41.2789C57.5978 41.4827 57.506 41.6891 57.4142 41.8902C57.3224 42.0913 57.2307 42.2951 57.1443 42.4935C57.0579 42.692 56.95 42.8931 56.8474 43.0916C56.7448 43.2901 56.6423 43.4859 56.537 43.6817C56.4317 43.8775 56.3238 44.0734 56.2158 44.2666C56.1078 44.4597 55.9918 44.6529 55.8757 44.8434C55.7596 45.034 55.6463 45.2219 55.5275 45.4124C55.4087 45.6029 55.2873 45.7855 55.1631 45.9708C55.039 46.156 54.9148 46.3439 54.7879 46.5265C54.6611 46.7091 54.518 46.889 54.3993 47.069C54.2805 47.2489 54.1294 47.4289 53.9971 47.5982C53.8648 47.7676 53.7272 47.9502 53.5841 48.1275C53.4411 48.3048 53.3142 48.4742 53.1603 48.6567C53.0065 48.8393 52.8688 48.9981 52.7204 49.1648C52.5719 49.3315 52.4235 49.4983 52.2723 49.6623C52.1212 49.8264 51.9673 49.9905 51.8108 50.1519C51.6542 50.3133 51.5004 50.4721 51.3411 50.6282C51.1819 50.7844 51.0199 50.9431 50.858 51.0966C50.696 51.2501 50.5314 51.4009 50.364 51.5518C50.1967 51.7026 50.032 51.8508 49.862 51.9964C49.6919 52.1419 49.5219 52.2874 49.3491 52.4303C49.1764 52.5732 49.001 52.7135 48.8255 52.8538C48.6501 52.994 48.4719 53.1184 48.2857 53.2639C48.0994 53.4095 47.9267 53.5286 47.7459 53.6635C47.565 53.7985 47.3815 53.9281 47.206 54.0499L46.6365 54.423C46.4503 54.5447 46.2586 54.6665 46.067 54.7855L45.4921 55.1349L44.9064 55.4709L44.3152 55.7938C44.1155 55.8996 43.9158 56.0028 43.7133 56.1034C43.5109 56.204 43.3112 56.3045 43.106 56.3998C42.9009 56.495 42.7012 56.593 42.4933 56.6829C42.2855 56.7729 42.083 56.8655 41.8752 56.9476C41.6674 57.0296 41.4568 57.1222 41.249 57.2122C41.0412 57.3022 40.8279 57.3763 40.6174 57.4557L39.9804 57.6832C39.7645 57.7573 39.5512 57.8288 39.338 57.8949C39.1248 57.9611 38.9061 58.0325 38.6902 58.096C38.4743 58.1596 38.2557 58.2231 38.037 58.2813C37.8184 58.3395 37.6024 58.3977 37.3838 58.4506C37.1652 58.5036 36.9439 58.5565 36.7252 58.6068L36.0612 58.7497C35.8399 58.7947 35.6186 58.837 35.3945 58.8767C35.1705 58.9164 34.9492 58.9534 34.7252 58.9878C34.5011 59.0222 34.2798 59.0567 34.0558 59.0858C33.8317 59.1149 33.6077 59.144 33.3837 59.1678C33.1597 59.1916 32.9329 59.2154 32.7089 59.234C32.4849 59.2525 32.2581 59.2736 32.0314 59.2869C31.8047 59.3001 31.5807 59.316 31.3539 59.3266L30.6764 59.3477L29.9962 59.353ZM29.9962 2.41816C29.783 2.41816 29.5725 2.41816 29.3593 2.41816L28.725 2.43932L28.0906 2.47373L27.4564 2.52401C27.2458 2.54253 27.0326 2.56371 26.8221 2.58752C26.6115 2.61134 26.4037 2.63515 26.1932 2.66426L25.5642 2.75423L24.938 2.86009L24.3145 2.97917L23.6937 3.11148L23.0756 3.25703L22.4602 3.41845L21.8502 3.59046L21.2429 3.77835C21.0432 3.84186 20.8434 3.91066 20.641 3.97946C20.4386 4.04827 20.2442 4.11972 20.0445 4.19381C19.8447 4.26791 19.6477 4.34201 19.4534 4.41875L18.8677 4.65956C18.6697 4.74248 18.4754 4.83069 18.2846 4.92419C18.093 5.00887 17.9014 5.09885 17.7097 5.18882C17.5181 5.27879 17.3291 5.37141 17.1429 5.46668C16.9567 5.56194 16.765 5.65721 16.5788 5.75777C16.3925 5.85833 16.209 5.95625 16.039 6.05945L15.4991 6.37436C15.3156 6.48286 15.1347 6.59135 14.9593 6.7025L14.4195 7.04122L13.8796 7.39317C13.7069 7.51226 13.5341 7.63135 13.3641 7.75572C13.194 7.8801 13.024 8.00182 12.8566 8.12884C12.6893 8.25586 12.522 8.39348 12.3546 8.51521C12.1873 8.63693 12.028 8.77983 11.8661 8.9095C11.7041 9.03917 11.5422 9.17413 11.3856 9.31703C11.2291 9.45993 11.0671 9.58166 10.9106 9.73514C10.754 9.88863 10.6029 10.0157 10.4517 10.1612L9.99825 10.5978C9.8498 10.746 9.70135 10.8969 9.55829 11.0451C9.41524 11.1932 9.26679 11.3494 9.12643 11.5029C8.98608 11.6563 8.8565 11.8125 8.70535 11.9713C8.5542 12.13 8.43545 12.2862 8.29509 12.4449C8.15474 12.6037 8.02517 12.7678 7.89561 12.9319C7.76605 13.0959 7.62569 13.26 7.50963 13.4241C7.39357 13.5881 7.25592 13.7575 7.13176 13.9269C7.0076 14.0962 6.88883 14.2656 6.77007 14.4376C6.6513 14.6096 6.53254 14.779 6.41648 14.9536C6.30041 15.1283 6.18705 15.3029 6.07638 15.4829C5.96572 15.6628 5.85506 15.8375 5.74709 16.0121L5.4313 16.5414C5.32873 16.724 5.22885 16.9066 5.12898 17.0892C5.02911 17.2718 4.93195 17.457 4.83748 17.6422C4.74301 17.8275 4.65124 18.0154 4.56757 18.2033C4.48389 18.3911 4.38672 18.5817 4.29765 18.7696C4.20858 18.9575 4.12761 19.1506 4.04663 19.3412C3.96566 19.5317 3.88738 19.7249 3.80911 19.9181C3.73083 20.1112 3.65795 20.3044 3.58507 20.5002C3.5122 20.6961 3.44202 20.8919 3.37185 21.0877C3.30167 21.2835 3.23958 21.482 3.1748 21.6805C3.11002 21.879 3.05064 22.0748 2.99126 22.2759C2.93188 22.477 2.87519 22.6728 2.82121 22.874C2.76723 23.0751 2.71326 23.2762 2.66467 23.4773C2.61609 23.6784 2.56749 23.8822 2.52161 24.0833C2.47572 24.2844 2.43524 24.4908 2.39476 24.6946C2.35427 24.8984 2.31377 25.1021 2.27868 25.3059C2.24359 25.5097 2.2112 25.7161 2.17881 25.9198C2.14642 26.1236 2.11943 26.3327 2.09244 26.5364C2.06544 26.7402 2.04386 26.9492 2.02227 27.1557C2.00068 27.3621 1.98178 27.5685 1.96288 27.7749C1.94399 27.9813 1.9332 28.1904 1.9197 28.3968C1.90621 28.6032 1.9008 28.8122 1.8927 29.0186C1.8846 29.225 1.87921 29.4315 1.87921 29.6405C1.87921 29.8496 1.87921 30.056 1.87921 30.2624C1.87921 30.4688 1.87921 30.6779 1.8927 30.8843C1.9062 31.0907 1.90891 31.2997 1.9197 31.5062C1.9305 31.7126 1.94669 31.9216 1.96288 32.128C1.97908 32.3344 2.00068 32.5408 2.02227 32.7473C2.04386 32.9537 2.06544 33.1601 2.09244 33.3665C2.11943 33.5729 2.14912 33.7767 2.17881 33.9831C2.2085 34.1895 2.24359 34.3933 2.27868 34.597C2.31377 34.8008 2.35427 35.0072 2.39476 35.211C2.43524 35.4147 2.47572 35.6158 2.52161 35.8196C2.56749 36.0234 2.61339 36.2245 2.66467 36.4256C2.71595 36.6267 2.76723 36.8305 2.82121 37.029C2.87519 37.2274 2.93188 37.4312 2.99126 37.6297C3.05064 37.8281 3.11002 38.0266 3.1748 38.2251C3.23958 38.4235 3.30437 38.6194 3.37185 38.8178C3.43932 39.0163 3.5122 39.2069 3.58507 39.4027C3.65795 39.5985 3.73083 39.7917 3.80911 39.9849C3.88738 40.178 3.96566 40.3712 4.04663 40.5618C4.12761 40.7523 4.21128 40.9455 4.29765 41.1333C4.38403 41.3212 4.4731 41.5118 4.56757 41.6997C4.66204 41.8875 4.75111 42.0754 4.83748 42.2607C4.92386 42.4459 5.02911 42.6311 5.12898 42.8137C5.22885 42.9963 5.32873 43.1789 5.4313 43.3615L5.74709 43.8908C5.85506 44.0707 5.96572 44.248 6.07638 44.42C6.18705 44.592 6.30041 44.772 6.41648 44.9493C6.53254 45.1266 6.6486 45.296 6.76736 45.4653C6.88613 45.6347 7.0103 45.8093 7.13176 45.9761C7.25322 46.1428 7.38277 46.3121 7.50963 46.4788C7.63649 46.6456 7.77954 46.8096 7.89561 46.9711C8.01167 47.1325 8.16553 47.2966 8.29509 47.458L8.70535 47.9343C8.84301 48.0904 8.97528 48.2466 9.12643 48.4001C9.27759 48.5535 9.40984 48.707 9.55559 48.8579C9.70134 49.0087 9.8498 49.1569 9.99825 49.3051C10.1467 49.4533 10.2979 49.5988 10.4517 49.7417C10.6056 49.8846 10.7567 50.0302 10.9133 50.1704C11.0698 50.3107 11.2237 50.4483 11.3829 50.5859C11.5422 50.7235 11.7041 50.8505 11.8661 50.9934C12.028 51.1363 12.19 51.258 12.3546 51.3904C12.5193 51.5227 12.6866 51.655 12.8566 51.7741C13.0267 51.8932 13.1913 52.0255 13.3641 52.1472C13.5368 52.2689 13.7069 52.3933 13.8823 52.5124C14.0578 52.6315 14.2305 52.7479 14.406 52.8617L14.9458 53.2004L15.4856 53.5286C15.6692 53.6371 15.8527 53.7403 16.0255 53.8435L16.5653 54.1478C16.7515 54.2457 16.9405 54.3436 17.1294 54.4362L17.6962 54.7167L18.2711 54.9814L18.8542 55.246C19.0458 55.3254 19.2428 55.4074 19.4399 55.4842L20.031 55.7117L20.6302 55.9261C20.8272 55.9923 21.027 56.0611 21.2294 56.1246C21.4318 56.1881 21.6343 56.2516 21.8367 56.3125C22.0392 56.3733 22.2416 56.4289 22.4467 56.4845C22.6519 56.54 22.857 56.5956 23.0621 56.6459C23.2673 56.6962 23.4724 56.7464 23.6802 56.7914C23.8881 56.8364 24.0932 56.8814 24.301 56.9237L24.9245 57.0428C25.1324 57.0799 25.3402 57.1169 25.5508 57.1487C25.7613 57.1804 25.9691 57.2122 26.1797 57.2387L26.8113 57.318L27.4429 57.3789C27.6534 57.3974 27.8639 57.416 28.0772 57.4292C28.2904 57.4424 28.5009 57.4557 28.7115 57.4636C28.922 57.4715 29.1352 57.4795 29.3458 57.4848C29.7686 57.4953 30.1924 57.4953 30.6171 57.4848C30.8303 57.4848 31.0408 57.4848 31.2541 57.4636C31.4673 57.4424 31.6751 57.4424 31.8884 57.4292C32.1016 57.416 32.3094 57.3974 32.5227 57.3789L33.1543 57.318L33.7859 57.2387C33.9937 57.2122 34.2042 57.1804 34.4121 57.1487C34.6199 57.1169 34.8304 57.0799 35.0383 57.0428C35.2461 57.0058 35.4566 56.9661 35.6645 56.9237C35.8723 56.8814 36.0801 56.8391 36.2853 56.7914C36.4904 56.7438 36.6982 56.6962 36.9034 56.6459C37.1085 56.5956 37.3137 56.54 37.5161 56.4845C37.7185 56.4289 37.9263 56.3733 38.1288 56.3125C38.3312 56.2516 38.531 56.1907 38.7334 56.1246C38.9358 56.0584 39.1356 55.9923 39.338 55.9234C39.5404 55.8546 39.7348 55.7858 39.9318 55.7117L40.5256 55.4842C40.72 55.4074 40.917 55.3254 41.1114 55.2433C41.3057 55.1613 41.5 55.0793 41.6917 54.992L42.2666 54.7273L42.8361 54.4468C43.025 54.3542 43.2113 54.2563 43.3975 54.1584C43.5838 54.0605 43.77 53.9573 43.9536 53.854L44.4934 53.5391C44.6742 53.4306 44.8551 53.3221 45.0332 53.211C45.2114 53.0999 45.3895 52.9861 45.573 52.8723C45.7566 52.7585 45.9239 52.6394 46.0967 52.5203C46.2694 52.4012 46.4422 52.2822 46.6122 52.1578C46.7823 52.0334 46.955 51.9117 47.1224 51.7847C47.2897 51.6576 47.4571 51.52 47.6217 51.4009C47.7864 51.2819 47.951 51.1363 48.1129 51.004C48.2749 50.8717 48.4341 50.7394 48.5934 50.5965L49.0657 50.181C49.2196 50.0407 49.3761 49.8978 49.5273 49.7523C49.6785 49.6068 49.8296 49.4639 49.9781 49.3157C50.1265 49.1675 50.275 49.0193 50.4207 48.8684C50.5665 48.7176 50.7095 48.5641 50.8526 48.4106C50.9956 48.2571 51.1225 48.101 51.2709 47.9449C51.4194 47.7888 51.5409 47.6273 51.6839 47.4686C51.827 47.3098 51.9538 47.1457 52.0807 46.9843C52.2075 46.8229 52.3506 46.6562 52.4694 46.4894C52.5881 46.3227 52.7204 46.156 52.8446 45.9866C52.9687 45.8173 53.0902 45.6506 53.2089 45.4786C53.3277 45.3065 53.4465 45.1345 53.5625 44.9493L53.9026 44.42C54.0133 44.2454 54.1212 44.0681 54.2292 43.8908C54.3372 43.7135 54.4424 43.5309 54.545 43.3615C54.6476 43.1922 54.7501 42.9963 54.85 42.8137C54.9499 42.6311 55.0444 42.4459 55.1388 42.2607C55.2333 42.0754 55.3251 41.8875 55.4087 41.6997C55.4924 41.5118 55.5869 41.3239 55.6787 41.1333C55.7704 40.9428 55.8487 40.7523 55.9297 40.5618C56.0107 40.3712 56.0916 40.178 56.1672 39.9875C56.2428 39.797 56.3211 39.5985 56.3939 39.4027C56.4668 39.2069 56.537 39.0137 56.6045 38.8152C56.6719 38.6167 56.7394 38.4235 56.8015 38.2251C56.8636 38.0266 56.9284 37.8281 56.9877 37.6297L57.1578 37.029C57.2118 36.8278 57.2631 36.6267 57.3143 36.4256C57.3656 36.2245 57.4115 36.0207 57.4547 35.8196C57.4979 35.6185 57.5438 35.4147 57.5843 35.211C57.6247 35.0072 57.6625 34.8034 57.6976 34.597C57.7327 34.3906 57.7678 34.1895 57.7975 33.9831C57.8272 33.7767 57.8569 33.5729 57.8839 33.3665C57.9108 33.1601 57.9351 32.9537 57.9567 32.7473C57.9783 32.5408 57.9972 32.3344 58.0134 32.128C58.0296 31.9216 58.0431 31.7152 58.0566 31.5062C58.0701 31.2971 58.0782 31.0933 58.0863 30.8843C58.0944 30.6752 58.0863 30.4715 58.0863 30.2624C58.0863 30.0533 58.0863 29.8496 58.0863 29.6405C58.0863 29.4341 58.0863 29.2277 58.0863 29.0186C58.0863 28.8096 58.0674 28.6032 58.0566 28.3968C58.0458 28.1904 58.0296 27.9839 58.0134 27.7775C57.9972 27.5711 57.9783 27.3621 57.9567 27.1557C57.9351 26.9492 57.9108 26.7428 57.8839 26.5391C57.8569 26.3353 57.8299 26.1262 57.7975 25.9225C57.7651 25.7187 57.7354 25.5097 57.6976 25.3059C57.6598 25.1021 57.6247 24.8984 57.5843 24.6946C57.5438 24.4908 57.5006 24.2871 57.4547 24.0833C57.4088 23.8795 57.3629 23.6784 57.3143 23.4773C57.2658 23.2762 57.2118 23.0751 57.1578 22.874L56.9877 22.2733C56.9284 22.0774 56.8663 21.8763 56.8042 21.6805C56.7421 21.4847 56.6719 21.2835 56.6045 21.0877C56.537 20.8919 56.4668 20.6961 56.3939 20.5002C56.3211 20.3044 56.2455 20.1112 56.1699 19.9181C56.0943 19.7249 56.0134 19.5317 55.9297 19.3412C55.846 19.1506 55.765 18.9601 55.6787 18.7696C55.5923 18.579 55.5059 18.3911 55.4087 18.2033C55.3116 18.0154 55.2252 17.8301 55.1388 17.6422L54.85 17.0918C54.7501 16.9066 54.6476 16.724 54.545 16.544C54.4424 16.3641 54.3372 16.1815 54.2292 16.0148C54.1212 15.8481 54.0133 15.6575 53.9026 15.4855L53.5625 14.9563L53.2089 14.4402C53.0902 14.2682 52.9687 14.0962 52.8446 13.9295C52.7204 13.7628 52.5962 13.5934 52.4694 13.4267C52.3425 13.26 52.2129 13.0959 52.0807 12.9345C51.9484 12.7731 51.8108 12.609 51.6839 12.4502C51.5571 12.2915 51.414 12.13 51.2736 11.9739L50.8526 11.5055C50.7122 11.3547 50.5665 11.2012 50.4207 11.0503C50.275 10.8995 50.1292 10.7487 49.9781 10.6005L49.5273 10.1638C49.3761 10.0209 49.2223 9.87804 49.0657 9.73779C48.9092 9.59754 48.7526 9.45728 48.5934 9.31967L48.1129 8.91215L47.6379 8.50462C47.4732 8.3723 47.3059 8.23999 47.1385 8.11826C46.9712 7.99653 46.8011 7.86686 46.6311 7.74514C46.4611 7.62341 46.2883 7.50168 46.1129 7.38259C45.9374 7.26351 45.7647 7.14707 45.5892 7.03328C45.4138 6.91949 45.2329 6.80305 45.0494 6.69191C44.8659 6.58077 44.6904 6.47227 44.5096 6.36642C44.3287 6.26057 44.1452 6.15207 43.9697 6.04886C43.7943 5.94566 43.6 5.8451 43.4137 5.74718C43.2275 5.64927 43.0412 5.55136 42.8523 5.4561C42.6634 5.36083 42.4744 5.26821 42.2828 5.17823C42.0911 5.08826 41.9022 4.99829 41.7079 4.9136L41.1275 4.66221L40.5418 4.4214C40.3448 4.34466 40.1477 4.26791 39.948 4.19646C39.7483 4.12501 39.5512 4.05092 39.3515 3.98211L38.7496 3.78099C38.5499 3.71748 38.3474 3.65398 38.145 3.59576L37.535 3.4211L36.9196 3.26497L36.3015 3.11942L35.6807 2.98711L35.0571 2.86803L34.4283 2.76217L33.8021 2.6722C33.5915 2.64309 33.381 2.61928 33.1704 2.59546C32.9599 2.57164 32.7494 2.55047 32.5389 2.53195L31.9045 2.48166L31.2703 2.44726L30.6359 2.4261L29.9962 2.41816Z" fill="#621F82"/>
</svg>
