<svg xmlns="http://www.w3.org/2000/svg" viewBox="0 0 248.7 206"><defs><style>.cls-1{fill:#fff37a;}.cls-2{fill:#fff;}.cls-3{fill:#e31414;}</style></defs><g id="kill_me" data-name="kill me"><g id="STROKE_adf8486e-ea8f-4e79-82f7-acacfed526a9" data-name="STROKE adf8486e-ea8f-4e79-82f7-acacfed526a9"><path class="cls-1" d="M206.3,104.9v2.3a17.7,17.7,0,0,1-.1,2.3,17.7,17.7,0,0,0-.1,2.3,17.85,17.85,0,0,1-.2,2.3c-.1.8-.1,1.5-.2,2.3s-.2,1.5-.3,2.2-.2,1.5-.3,2.2a17,17,0,0,1-.4,2.2c-.1.7-.3,1.5-.4,2.2a17.42,17.42,0,0,1-.5,2.2c-.2.7-.3,1.5-.5,2.2s-.4,1.5-.6,2.2-.4,1.5-.6,2.2-.4,1.4-.7,2.2-.5,1.4-.7,2.1a18,18,0,0,1-.8,2.1c-.3.7-.5,1.4-.8,2.1a18,18,0,0,0-.8,2.1l-.9,2.1-.9,2.1c-.3.7-.7,1.4-1,2s-.7,1.3-1,2-.7,1.3-1.1,2-.7,1.3-1.1,2-.8,1.3-1.2,1.9-.8,1.3-1.2,1.9a21.41,21.41,0,0,1-1.3,1.9c-.4.6-.9,1.2-1.3,1.9s-.9,1.2-1.3,1.8-.9,1.2-1.4,1.8-.9,1.2-1.4,1.8-1,1.2-1.5,1.7-1,1.1-1.5,1.7-1,1.1-1.5,1.7-1,1.1-1.6,1.6l-1.6,1.6c-.5.5-1.1,1-1.6,1.6s-1.1,1-1.7,1.5-1.1,1-1.7,1.5-1.2,1-1.7,1.4-1.2.9-1.8,1.4-1.2.9-1.8,1.4-1.2.9-1.8,1.3-1.2.9-1.9,1.3-1.3.8-1.9,1.2-1.3.8-1.9,1.2a18.58,18.58,0,0,1-1.9,1.1c-.7.4-1.3.7-2,1.1s-1.3.7-2,1.1-1.3.7-2,1-1.4.7-2,1l-2.1.9-2.1.9a18,18,0,0,1-2.1.8c-.7.3-1.4.5-2.1.8a17.23,17.23,0,0,1-2.1.7c-.7.2-1.4.5-2.2.7s-1.4.4-2.2.6l-2.2.6a17.42,17.42,0,0,1-2.2.5c-.7.2-1.5.3-2.2.5a17,17,0,0,1-2.2.4c-.7.1-1.5.3-2.2.4l-2.2.3-2.2.3a16.35,16.35,0,0,1-2.2.2c-.8.1-1.5.1-2.3.2a17.7,17.7,0,0,1-2.3.1c-.8,0-1.5.1-2.3.1h-4.6a17.7,17.7,0,0,1-2.3-.1c-.8,0-1.5-.1-2.3-.1s-1.5-.1-2.3-.2-1.5-.1-2.2-.2l-2.2-.3-2.2-.3a17,17,0,0,1-2.2-.4c-.7-.1-1.5-.3-2.2-.4s-1.5-.3-2.2-.5-1.5-.3-2.2-.5l-2.2-.6c-.7-.2-1.4-.4-2.2-.6s-1.4-.4-2.2-.7-1.4-.5-2.1-.7-1.4-.5-2.1-.8-1.4-.5-2.1-.8l-2.1-.9-2.1-.9a12.44,12.44,0,0,1-2-1c-.7-.3-1.4-.7-2-1a19.83,19.83,0,0,1-2-1.1c-.7-.4-1.3-.7-2-1.1s-1.3-.8-1.9-1.1-1.3-.8-1.9-1.2-1.3-.8-1.9-1.2a21.41,21.41,0,0,1-1.9-1.3c-.6-.4-1.2-.9-1.8-1.3a22,22,0,0,1-1.8-1.4c-.6-.5-1.2-.9-1.8-1.4s-1.2-1-1.7-1.4-1.1-1-1.7-1.5-1.1-1-1.7-1.5a12.09,12.09,0,0,1-1.6-1.6l-1.6-1.6-1.6-1.6c-.5-.5-1-1.1-1.5-1.7s-1-1.1-1.5-1.7-1-1.1-1.5-1.7a22,22,0,0,1-1.4-1.8c-.5-.6-.9-1.2-1.4-1.8a20.28,20.28,0,0,1-1.3-1.8c-.4-.6-.9-1.2-1.3-1.9a21.41,21.41,0,0,0-1.3-1.9c-.4-.6-.8-1.3-1.2-1.9s-.8-1.3-1.2-1.9a12.81,12.81,0,0,1-1.1-2c-.4-.7-.7-1.3-1.1-2a18.65,18.65,0,0,1-1-2c-.3-.7-.7-1.4-1-2l-.9-2.1-.9-2.1a18,18,0,0,1-.8-2.1c-.3-.7-.5-1.4-.8-2.1s-.5-1.4-.8-2.1-.5-1.4-.7-2.1-.4-1.4-.7-2.2-.4-1.5-.6-2.2-.4-1.5-.6-2.2-.3-1.5-.5-2.2-.3-1.5-.5-2.2-.3-1.5-.4-2.2a17,17,0,0,0-.4-2.2c-.1-.7-.2-1.5-.3-2.2s-.2-1.5-.3-2.2-.1-1.5-.2-2.3-.1-1.5-.2-2.3-.1-1.5-.1-2.3a17.7,17.7,0,0,0-.1-2.3v-2.3a17.7,17.7,0,0,1,.1-2.3c0-.8.1-1.5.1-2.3A17.85,17.85,0,0,1,6.3,98c.1-.8.1-1.5.2-2.3s.2-1.5.3-2.2.2-1.5.3-2.2a17,17,0,0,1,.4-2.2c.1-.7.3-1.5.4-2.2a17.42,17.42,0,0,1,.5-2.2A14.13,14.13,0,0,0,9,82.5c.2-.8.4-1.5.6-2.2s.4-1.5.6-2.2.4-1.4.7-2.2.5-1.4.7-2.1a18,18,0,0,1,.8-2.1c.3-.7.5-1.4.8-2.1a18,18,0,0,0,.8-2.1l.9-2.1.9-2.1c.3-.7.7-1.4,1-2s.7-1.3,1-2,.7-1.3,1.1-2,.7-1.3,1.1-2,.8-1.3,1.2-1.9.8-1.3,1.2-1.9a21.41,21.41,0,0,1,1.3-1.9c.4-.6.9-1.2,1.3-1.9s.9-1.2,1.3-1.8.9-1.2,1.4-1.8.9-1.2,1.4-1.8,1-1.2,1.5-1.7,1-1.1,1.5-1.7,1-1.1,1.5-1.7,1-1.1,1.6-1.6L36.8,34c.5-.5,1.1-1,1.6-1.6s1.1-1,1.7-1.5,1.1-1,1.7-1.5,1.2-1,1.7-1.4,1.2-.9,1.8-1.4,1.2-.9,1.8-1.4,1.2-.9,1.8-1.3,1.2-.9,1.9-1.3,1.3-.8,1.9-1.2,1.3-.8,1.9-1.2a18.58,18.58,0,0,1,1.9-1.1c.7-.4,1.3-.7,2-1.1s1.3-.7,2-1.1,1.3-.7,2-1,1.4-.7,2-1l2.1-.9,2.1-.9a18,18,0,0,1,2.1-.8,18,18,0,0,0,2.1-.8,17.23,17.23,0,0,1,2.1-.7c.7-.2,1.4-.5,2.2-.7s1.4-.4,2.2-.6l2.2-.6a17.42,17.42,0,0,1,2.2-.5c.7-.2,1.5-.3,2.2-.5a17,17,0,0,1,2.2-.4c.7-.1,1.5-.3,2.2-.4a16.41,16.41,0,0,0,2.3-.2l2.2-.3a16.35,16.35,0,0,1,2.2-.2c.8-.1,1.5-.1,2.3-.2a17.7,17.7,0,0,1,2.3-.1c.8,0,1.5-.1,2.3-.1h4.6a17.7,17.7,0,0,1,2.3.1c.8,0,1.5.1,2.3.1s1.5.1,2.3.2,1.5.1,2.2.2l2.2.3,2.2.3a17,17,0,0,1,2.2.4c.7.1,1.5.3,2.2.4s1.5.3,2.2.5,1.5.3,2.2.5l2.2.6,2.2.6c.7.2,1.4.4,2.2.7s1.4.5,2.1.7,1.4.5,2.1.8,1.4.5,2.1.8l2.1.9,2.1.9a12.44,12.44,0,0,1,2,1c.7.3,1.4.7,2,1a19.83,19.83,0,0,1,2,1.1c.7.4,1.3.7,2,1.1s1.3.8,1.9,1.1,1.3.8,1.9,1.2,1.3.8,1.9,1.2,1.2.8,1.9,1.3,1.2.9,1.8,1.3a22,22,0,0,1,1.8,1.4c.6.5,1.2.9,1.8,1.4s1.2,1,1.7,1.4,1.1,1,1.7,1.5,1.1,1,1.7,1.5a12.09,12.09,0,0,1,1.6,1.6l1.6,1.6,1.6,1.6c.5.5,1,1.1,1.5,1.7s1,1.1,1.5,1.7,1,1.1,1.5,1.7a22,22,0,0,1,1.4,1.8c.5.6.9,1.2,1.4,1.8a20.28,20.28,0,0,1,1.3,1.8c.4.6.9,1.2,1.3,1.9s.8,1.2,1.3,1.9.8,1.3,1.2,1.9.8,1.3,1.2,1.9a19.83,19.83,0,0,1,1.1,2c.4.7.7,1.3,1.1,2a18.65,18.65,0,0,1,1,2c.3.7.7,1.4,1,2l.9,2.1.9,2.1a18,18,0,0,1,.8,2.1c.3.7.5,1.4.8,2.1s.5,1.4.8,2.1.5,1.4.7,2.1.4,1.4.7,2.2.4,1.5.6,2.2.4,1.5.6,2.2.3,1.5.5,2.2.3,1.5.5,2.2.3,1.5.4,2.2a17,17,0,0,0,.4,2.2c.1.7.2,1.5.3,2.2s.2,1.5.3,2.2.1,1.5.2,2.3.1,1.5.2,2.3.1,1.5.1,2.3A8.13,8.13,0,0,0,206.3,104.9Z" transform="translate(-2.9 -3.1)"/><path class="cls-1" d="M106.2,206.3h-2.3a17.7,17.7,0,0,1-2.3-.1,17.7,17.7,0,0,0-2.3-.1c-.8-.1-1.5-.1-2.3-.2s-1.5-.1-2.3-.2l-2.2-.3-2.2-.3a17,17,0,0,1-2.2-.4c-.7-.1-1.5-.3-2.2-.4s-1.5-.3-2.2-.5-1.5-.3-2.2-.5l-2.2-.6-2.2-.6c-.7-.2-1.4-.4-2.2-.7s-1.4-.5-2.1-.7-1.4-.5-2.1-.8-1.4-.5-2.1-.8l-2.1-.9-2.1-.9a20,20,0,0,1-2.1-1c-.7-.3-1.4-.7-2-1a19.83,19.83,0,0,1-2-1.1c-.7-.4-1.3-.7-2-1.1a19.83,19.83,0,0,0-2-1.1c-.6-.4-1.3-.8-1.9-1.2s-1.3-.8-1.9-1.2a21.41,21.41,0,0,1-1.9-1.3c-.6-.4-1.2-.9-1.8-1.3a22,22,0,0,1-1.8-1.4c-.6-.5-1.2-.9-1.8-1.4s-1.2-1-1.7-1.4-1.1-1-1.7-1.5-1.1-1-1.7-1.5a12.09,12.09,0,0,1-1.6-1.6l-1.6-1.6L33.3,175c-.5-.5-1-1.1-1.5-1.7s-1-1.1-1.5-1.7-1-1.1-1.5-1.7a22,22,0,0,1-1.4-1.8c-.5-.6-.9-1.2-1.4-1.8a20.28,20.28,0,0,1-1.3-1.8c-.4-.6-.9-1.2-1.3-1.9a21.41,21.41,0,0,0-1.3-1.9c-.4-.6-.8-1.3-1.2-1.9s-.8-1.3-1.2-1.9a19.83,19.83,0,0,1-1.1-2c-.4-.7-.7-1.3-1.1-2a18.65,18.65,0,0,1-1-2c-.3-.7-.7-1.4-1-2s-.6-1.4-.9-2.1l-.9-2.1a18,18,0,0,1-.8-2.1c-.3-.7-.5-1.4-.8-2.1s-.5-1.4-.8-2.1-.5-1.4-.7-2.2-.4-1.4-.7-2.2-.4-1.5-.6-2.2-.4-1.5-.6-2.2-.3-1.5-.5-2.2-.3-1.5-.5-2.2-.3-1.5-.4-2.2a17,17,0,0,0-.4-2.2c-.1-.7-.2-1.5-.3-2.2s-.2-1.5-.3-2.3-.1-1.5-.2-2.3-.1-1.5-.2-2.3-.1-1.5-.1-2.3a17.7,17.7,0,0,0-.1-2.3v-2.3a17.7,17.7,0,0,1,.1-2.3c0-.8.1-1.5.1-2.3a17.85,17.85,0,0,1,.2-2.3c.1-.8.1-1.5.2-2.3s.2-1.5.3-2.3.2-1.5.3-2.2a17,17,0,0,1,.4-2.2c.1-.7.3-1.5.4-2.2a17.42,17.42,0,0,1,.5-2.2c.2-.7.3-1.5.5-2.2s.4-1.5.6-2.2.4-1.5.6-2.2.4-1.4.7-2.2.5-1.4.7-2.2a18,18,0,0,1,.8-2.1c.3-.7.5-1.4.8-2.1l.9-2.1.9-2.1.9-2.1c.3-.7.7-1.4,1-2s.7-1.3,1-2,.7-1.3,1.1-2,.7-1.3,1.1-2,.8-1.3,1.2-1.9.8-1.3,1.2-1.9a21.41,21.41,0,0,1,1.3-1.9c.4-.6.9-1.2,1.3-1.9s.9-1.2,1.3-1.8.9-1.2,1.4-1.8.9-1.2,1.4-1.8,1-1.2,1.5-1.7,1-1.1,1.5-1.7,1-1.1,1.5-1.7,1-1.1,1.6-1.6l1.6-1.6c.5-.5,1.1-1,1.6-1.6s1.1-1,1.7-1.5,1.1-1,1.7-1.5,1.2-1,1.7-1.4,1.2-.9,1.8-1.4,1.2-.9,1.8-1.4,1.2-.9,1.8-1.3,1.2-.9,1.9-1.3,1.3-.8,1.9-1.2,1.3-.8,1.9-1.2a12.81,12.81,0,0,1,2-1.1c.7-.4,1.3-.7,2-1.1s1.3-.7,2-1.1,1.3-.7,2-1,1.4-.7,2.1-1l2.1-.9,2.1-.9a18,18,0,0,1,2.1-.8,18,18,0,0,0,2.1-.8,17.23,17.23,0,0,1,2.1-.7c.7-.2,1.4-.5,2.2-.7s1.4-.4,2.2-.6l2.2-.6a17.42,17.42,0,0,1,2.2-.5A8.92,8.92,0,0,0,86,7.8a17,17,0,0,1,2.2-.4c.7-.1,1.5-.3,2.2-.4l2.2-.3,2.2-.3a17.85,17.85,0,0,1,2.3-.2A19.53,19.53,0,0,1,99.4,6a17.7,17.7,0,0,1,2.3-.1c.8,0,1.5-.1,2.3-.1h4.5a17.7,17.7,0,0,1,2.3.1c.8,0,1.5.1,2.3.1s1.5.1,2.3.2,1.5.1,2.3.2l2.2.3,2.2.3a17,17,0,0,1,2.2.4c.7.1,1.5.3,2.2.4s1.5.3,2.2.5,1.5.3,2.2.5l2.2.6,2.2.6c.7.2,1.4.4,2.2.7s1.4.5,2.1.7,1.4.5,2.1.8,1.4.5,2.1.8l2.1.9,2.1.9a20,20,0,0,1,2.1,1c.7.3,1.4.7,2,1a19.83,19.83,0,0,1,2,1.1c.7.4,1.3.7,2,1.1a19.83,19.83,0,0,0,2,1.1c.6.4,1.3.8,1.9,1.2s1.3.8,1.9,1.2a21.41,21.41,0,0,1,1.9,1.3c.6.4,1.2.9,1.8,1.3a22,22,0,0,1,1.8,1.4c.6.5,1.2.9,1.8,1.4s1.2,1,1.7,1.4,1.1,1,1.7,1.5,1.1,1,1.7,1.5a12.09,12.09,0,0,1,1.6,1.6l1.6,1.6,1.6,1.6c.5.5,1,1.1,1.5,1.7s1,1.1,1.5,1.7,1,1.1,1.5,1.7A22,22,0,0,1,185,44c.5.6.9,1.2,1.4,1.8a20.28,20.28,0,0,1,1.3,1.8c.4.6.9,1.2,1.3,1.9a21.41,21.41,0,0,0,1.3,1.9c.4.6.8,1.3,1.2,1.9s.8,1.3,1.2,1.9a19.83,19.83,0,0,1,1.1,2c.4.7.7,1.3,1.1,2a18.65,18.65,0,0,1,1,2c.3.7.7,1.4,1,2l.9,2.1.9,2.1a18,18,0,0,1,.8,2.1c.3.7.5,1.4.8,2.1s.5,1.4.8,2.1.5,1.4.7,2.2.4,1.4.7,2.2.4,1.5.6,2.2.4,1.5.6,2.2.3,1.5.5,2.2.3,1.5.5,2.2.3,1.5.4,2.2a17,17,0,0,0,.4,2.2c.1.7.2,1.5.3,2.2s.2,1.5.3,2.3.1,1.5.2,2.3.1,1.5.2,2.3.1,1.5.1,2.3a17.7,17.7,0,0,0,.1,2.3h0v2.3a17.7,17.7,0,0,1-.1,2.3c0,.8-.1,1.5-.1,2.3a17.85,17.85,0,0,1-.2,2.3c-.1.8-.1,1.5-.2,2.3s-.2,1.5-.3,2.3-.2,1.5-.3,2.2a17,17,0,0,1-.4,2.2c-.1.7-.3,1.5-.4,2.2a17.42,17.42,0,0,1-.5,2.2c-.2.7-.3,1.5-.5,2.2s-.4,1.5-.6,2.2-.4,1.5-.6,2.2-.4,1.4-.7,2.2-.5,1.4-.7,2.2a18,18,0,0,1-.8,2.1c-.3.7-.5,1.4-.8,2.1a18,18,0,0,0-.8,2.1l-.9,2.1-.9,2.1c-.3.7-.7,1.4-1,2s-.7,1.3-1,2-.7,1.3-1.1,2-.7,1.3-1.1,2-.8,1.3-1.2,1.9-.8,1.3-1.2,1.9a21.41,21.41,0,0,1-1.3,1.9c-.4.6-.9,1.2-1.3,1.9s-.9,1.2-1.3,1.8-.9,1.2-1.4,1.8-.9,1.2-1.4,1.8-1,1.2-1.5,1.7-1,1.1-1.5,1.7-1,1.1-1.5,1.7-1,1.1-1.6,1.6l-1.6,1.6c-.5.5-1.1,1-1.6,1.6s-1.1,1-1.7,1.5-1.1,1-1.7,1.5-1.2,1-1.7,1.4-1.2.9-1.8,1.4-1.2.9-1.8,1.4-1.2.9-1.8,1.3-1.2.9-1.9,1.3-1.3.8-1.9,1.2-1.3.8-1.9,1.2a12.81,12.81,0,0,1-2,1.1c-.7.4-1.3.7-2,1.1s-1.3.7-2,1.1-1.3.7-2,1-1.4.7-2.1,1l-2.1.9-2.1.9a18,18,0,0,1-2.1.8c-.7.3-1.4.5-2.1.8a17.23,17.23,0,0,1-2.1.7c-.7.2-1.4.5-2.2.7s-1.4.4-2.2.6l-2.2.6a17.42,17.42,0,0,1-2.2.5c-.7.2-1.5.3-2.2.5a17,17,0,0,1-2.2.4c-.7.1-1.5.3-2.2.4l-2.2.3-2.2.3a17.85,17.85,0,0,1-2.3.2c-.8.1-1.5.1-2.3.2a17.7,17.7,0,0,1-2.3.1c-.8,0-1.5.1-2.3.1A9,9,0,0,0,106.2,206.3Zm0-200h-2.3a17.7,17.7,0,0,0-2.3.1c-.8,0-1.5.1-2.3.1s-1.5.1-2.2.2-1.5.1-2.2.2l-2.2.3-2.2.3a17,17,0,0,0-2.2.4c-.7.1-1.5.3-2.2.4s-1.5.3-2.2.5-1.5.3-2.2.5l-2.2.6c-.7.2-1.4.4-2.2.6s-1.4.4-2.2.7-1.4.5-2.1.7-1.4.5-2.1.8-1.4.5-2.1.8l-2.1.9-2.1.9a12.44,12.44,0,0,0-2,1c-.7.3-1.3.7-2,1a19.83,19.83,0,0,0-2,1.1c-.7.4-1.3.7-2,1.1s-1.3.8-1.9,1.1-1.3.8-1.9,1.2-1.3.8-1.9,1.2-1.2.8-1.9,1.3-1.2.9-1.8,1.3A22,22,0,0,0,45.4,27c-.6.5-1.2.9-1.8,1.4s-1.2,1-1.7,1.4-1.1,1-1.7,1.5-1.1,1-1.7,1.5-1.1,1-1.6,1.5l-1.6,1.6-1.6,1.6c-.5.5-1,1.1-1.5,1.7s-1,1.1-1.5,1.7-1,1.1-1.5,1.7-.9,1.2-1.4,1.8-.9,1.2-1.4,1.8A20.28,20.28,0,0,0,25.1,48c-.4.6-.9,1.2-1.3,1.8S23,51,22.6,51.7s-.8,1.3-1.2,1.9-.8,1.3-1.2,1.9a12.81,12.81,0,0,0-1.1,2c-.4.7-.7,1.3-1.1,2a18.65,18.65,0,0,0-1,2c-.3.7-.7,1.3-1,2l-.9,2.1-.9,2.1a18,18,0,0,0-.8,2.1c-.3.7-.5,1.4-.8,2.1s-.5,1.4-.8,2.1-.5,1.4-.7,2.1-.4,1.4-.7,2.2a18,18,0,0,0-.6,2.2c-.2.7-.4,1.5-.6,2.2s-.3,1.5-.5,2.2-.3,1.5-.5,2.2-.3,1.5-.4,2.2a17,17,0,0,1-.4,2.2c-.1.7-.2,1.5-.3,2.2S7,95.2,7,95.9s-.1,1.5-.2,2.2-.1,1.5-.2,2.2-.1,1.5-.1,2.3a17.7,17.7,0,0,1-.1,2.3v2.3a17.7,17.7,0,0,0,.1,2.3c0,.8.1,1.5.1,2.3a15,15,0,0,0,.2,2.2c.1.8.1,1.5.2,2.2s.2,1.5.3,2.2.2,1.5.3,2.2a17,17,0,0,0,.4,2.2c.1.7.3,1.5.4,2.2a17.42,17.42,0,0,0,.5,2.2c.2.7.3,1.5.5,2.2s.4,1.5.6,2.2.4,1.5.6,2.2.4,1.4.7,2.2.5,1.4.7,2.1a18,18,0,0,0,.8,2.1c.3.7.5,1.4.8,2.1a18,18,0,0,1,.8,2.1l.9,2.1.9,2.1a12.44,12.44,0,0,0,1,2c.3.7.7,1.3,1,2s.7,1.3,1.1,2,.7,1.3,1.1,2,.8,1.3,1.2,1.9.8,1.3,1.2,1.9a21.41,21.41,0,0,0,1.3,1.9c.4.6.9,1.2,1.3,1.8s.9,1.2,1.3,1.8.9,1.2,1.4,1.8.9,1.2,1.4,1.8,1,1.2,1.5,1.7,1,1.1,1.5,1.7,1,1.1,1.5,1.7,1,1.1,1.6,1.6l1.6,1.6c.5.5,1.1,1,1.6,1.5s1.1,1,1.7,1.5,1.1,1,1.7,1.5,1.2,1,1.7,1.4,1.2.9,1.8,1.4,1.2.9,1.8,1.4,1.2.9,1.8,1.3,1.2.9,1.9,1.3,1.3.8,1.9,1.2,1.3.8,1.9,1.2a18.58,18.58,0,0,0,1.9,1.1c.7.4,1.3.7,2,1.1s1.3.7,2,1.1,1.3.7,2,1a12.44,12.44,0,0,1,2,1l2.1.9,2.1.9a18,18,0,0,0,2.1.8c.7.3,1.4.5,2.1.8s1.4.5,2.1.7,1.4.5,2.2.7,1.4.4,2.2.6,1.5.4,2.2.6a17.42,17.42,0,0,0,2.2.5c.7.2,1.5.3,2.2.5a17,17,0,0,0,2.2.4c.7.1,1.5.3,2.2.4l2.2.3,2.2.3a16.35,16.35,0,0,0,2.2.2c.7.1,1.5.1,2.2.2s1.5.1,2.3.1,1.5.1,2.3.1h4.5a17.7,17.7,0,0,0,2.3-.1c.8,0,1.5-.1,2.3-.1s1.5-.1,2.2-.2,1.5-.1,2.2-.2l2.2-.3,2.2-.3a17,17,0,0,0,2.2-.4c.7-.1,1.5-.3,2.2-.4s1.5-.3,2.2-.5,1.5-.3,2.2-.5l2.2-.6c.7-.2,1.4-.4,2.2-.6s1.4-.4,2.2-.7,1.4-.5,2.1-.7a18,18,0,0,0,2.1-.8c.7-.3,1.4-.5,2.1-.8l2.1-.9,2.1-.9a12.44,12.44,0,0,0,2-1,12.44,12.44,0,0,1,2-1,19.83,19.83,0,0,0,2-1.1c.7-.4,1.3-.7,2-1.1s1.3-.8,1.9-1.1a19.92,19.92,0,0,0,1.9-1.2c.6-.4,1.3-.8,1.9-1.2s1.2-.8,1.9-1.3,1.2-.9,1.8-1.3a22,22,0,0,0,1.8-1.4c.6-.5,1.2-.9,1.8-1.4s1.2-1,1.7-1.4,1.1-1,1.7-1.5,1.1-1,1.7-1.5,1.1-1,1.6-1.5l1.6-1.6,1.6-1.6c.5-.5,1-1.1,1.5-1.7s1-1.1,1.5-1.7,1-1.1,1.5-1.7a22,22,0,0,0,1.4-1.8c.5-.6.9-1.2,1.4-1.8a20.28,20.28,0,0,0,1.3-1.8c.4-.6.9-1.2,1.3-1.8s.8-1.2,1.3-1.9.8-1.3,1.2-1.9.8-1.3,1.2-1.9a12.81,12.81,0,0,0,1.1-2c.4-.7.7-1.3,1.1-2a18.65,18.65,0,0,0,1-2c.3-.7.7-1.3,1-2l.9-2.1.9-2.1a18,18,0,0,0,.8-2.1c.3-.7.5-1.4.8-2.1a17.23,17.23,0,0,0,.7-2.1c.2-.7.5-1.4.7-2.1s.4-1.4.7-2.2.4-1.4.6-2.2.4-1.5.6-2.2.3-1.5.5-2.2.3-1.5.5-2.2.3-1.5.4-2.2a17,17,0,0,1,.4-2.2c.1-.7.2-1.5.3-2.2s.2-1.5.3-2.2.1-1.5.2-2.2.1-1.5.2-2.3.1-1.5.1-2.3a17.7,17.7,0,0,1,.1-2.3v-2.3h0a17.7,17.7,0,0,0-.1-2.3c0-.8-.1-1.5-.1-2.3a17.85,17.85,0,0,0-.2-2.3c-.1-.8-.1-1.5-.2-2.2s-.2-1.5-.3-2.2-.2-1.5-.3-2.2a17,17,0,0,0-.4-2.2c-.1-.7-.3-1.5-.4-2.2a17.42,17.42,0,0,0-.5-2.2c-.2-.7-.3-1.5-.5-2.2s-.4-1.5-.6-2.2-.4-1.5-.6-2.2-.4-1.4-.7-2.2-.5-1.4-.7-2.1a18,18,0,0,0-.8-2.1c-.3-.7-.5-1.4-.8-2.1a18,18,0,0,1-.8-2.1l-.9-2.1-.9-2.1a12.44,12.44,0,0,0-1-2c-.3-.7-.7-1.3-1-2s-.7-1.3-1.1-2-.7-1.3-1.1-2-.8-1.3-1.2-1.9-.8-1.3-1.2-1.9-.8-1.3-1.2-1.9-.9-1.2-1.3-1.8-.9-1.2-1.3-1.8-.9-1.2-1.4-1.8-.9-1.2-1.4-1.8-1-1.2-1.5-1.7-1-1.1-1.5-1.7-1-1.1-1.5-1.7-1-1.1-1.6-1.6l-1.6-1.6c-.5-.5-1.1-1-1.6-1.5s-1.1-1-1.7-1.5-1.1-1-1.7-1.5-1.2-1-1.7-1.4-1.2-.9-1.8-1.4-1.2-.9-1.8-1.4-1.2-.9-1.8-1.3-1.2-.9-1.9-1.3-1.3-.8-1.9-1.2-1.3-.8-1.9-1.2a18.58,18.58,0,0,0-1.9-1.1c-.7-.4-1.3-.7-2-1.1s-1.3-.7-2-1.1-1.3-.7-2-1a12.44,12.44,0,0,1-2-1l-2.1-.9-2.1-.9a18,18,0,0,0-2.1-.8c-.7-.3-1.4-.5-2.1-.8s-1.4-.5-2.1-.7-1.4-.5-2.2-.7-1.4-.4-2.2-.6l-2.2-.6a17.42,17.42,0,0,0-2.2-.5c-.7-.2-1.5-.3-2.2-.5a17,17,0,0,0-2.2-.4c-.7-.1-1.5-.3-2.2-.4L119.9,7l-2.2-.3a16.35,16.35,0,0,0-2.2-.2,16.35,16.35,0,0,1-2.2-.2,17.7,17.7,0,0,0-2.3-.1c-.8,0-1.5-.1-2.3-.1A11.42,11.42,0,0,1,106.2,6.3Z" transform="translate(-2.9 -3.1)"/></g></g><g id="Layer_1" data-name="Layer 1"><g id="STROKE_c807a5f9-8e4e-4211-a056-affbe4712530" data-name="STROKE c807a5f9-8e4e-4211-a056-affbe4712530"><path d="M106.1,209.1h-2.3a17,17,0,0,1-2.3-.1c-.8,0-1.6-.1-2.3-.1s-1.5-.1-2.3-.2-1.6-.1-2.3-.2l-2.3-.3-2.3-.3c-.8-.1-1.5-.3-2.3-.4s-1.5-.3-2.3-.4-1.5-.3-2.3-.5a18.92,18.92,0,0,0-2.3-.5l-2.3-.6-2.2-.6c-.7-.2-1.5-.5-2.2-.7s-1.5-.5-2.2-.7-1.5-.5-2.2-.8a19.45,19.45,0,0,0-2.2-.8l-2.1-.9-2.1-.9c-.7-.3-1.4-.7-2.1-1s-1.4-.7-2.1-1-1.4-.7-2.1-1.1-1.4-.7-2-1.1-1.3-.8-2-1.2-1.3-.8-2-1.2a22.63,22.63,0,0,1-2-1.3c-.6-.4-1.3-.9-1.9-1.3a23.07,23.07,0,0,1-1.9-1.4c-.6-.5-1.2-.9-1.9-1.4a22,22,0,0,0-1.8-1.4l-1.8-1.5-1.8-1.5a12.88,12.88,0,0,1-1.7-1.6c-.6-.5-1.1-1.1-1.7-1.6s-1.1-1.1-1.7-1.6-1.1-1.1-1.6-1.7-1.1-1.1-1.6-1.7-1-1.2-1.5-1.7L26.6,172l-1.5-1.8a22,22,0,0,1-1.4-1.8c-.5-.6-.9-1.2-1.4-1.9a21.41,21.41,0,0,1-1.3-1.9c-.4-.6-.9-1.3-1.3-1.9s-.8-1.3-1.2-2-.8-1.3-1.2-2-.8-1.3-1.2-2-.7-1.4-1.1-2-.7-1.4-1.1-2.1-.7-1.4-1-2.1-.7-1.4-1-2.1l-.9-2.1c-.3-.7-.6-1.4-.9-2.2a14.27,14.27,0,0,1-.8-2.2c-.3-.7-.5-1.5-.8-2.2s-.5-1.5-.7-2.2-.5-1.5-.7-2.2-.4-1.5-.6-2.2-.4-1.5-.6-2.3a18.92,18.92,0,0,1-.5-2.3c-.2-.8-.3-1.5-.5-2.3s-.3-1.5-.4-2.3-.3-1.5-.4-2.3-.2-1.5-.3-2.3-.2-1.5-.3-2.3-.1-1.5-.2-2.3-.1-1.5-.2-2.3-.1-1.5-.1-2.3a17,17,0,0,0-.1-2.3v-2.3a17,17,0,0,1,.1-2.3c0-.8.1-1.6.1-2.3a16.41,16.41,0,0,1,.2-2.3c.1-.8.1-1.5.2-2.3s.2-1.5.3-2.3c.1-1.5.2-2.3.3-3a18.46,18.46,0,0,1,.4-2.3c.1-.8.3-1.5.4-2.3a18.92,18.92,0,0,1,.5-2.3c.2-.8.3-1.5.5-2.3s.4-1.5.6-2.3.4-1.5.6-2.2a18.66,18.66,0,0,1,.7-2.2c.2-.7.5-1.5.7-2.2s.5-1.5.8-2.2.5-1.5.8-2.2.6-1.4.9-2.2.6-1.4.9-2.1a20,20,0,0,1,1-2.1c.3-.7.7-1.4,1-2.1A21.16,21.16,0,0,1,15,57.9c.4-.7.7-1.4,1.1-2s.8-1.4,1.2-2,.8-1.3,1.2-2,.8-1.3,1.2-2,.9-1.3,1.3-1.9.9-1.3,1.3-1.9.9-1.3,1.4-1.9.9-1.2,1.4-1.8l1.5-1.8,1.5-1.8c.5-.6,1-1.2,1.5-1.7s1-1.1,1.6-1.7,1.1-1.1,1.6-1.7,1.1-1.1,1.7-1.6,1.1-1.1,1.7-1.6,1.1-1,1.7-1.6l1.8-1.5,1.8-1.5a22,22,0,0,1,1.8-1.4c.6-.5,1.2-.9,1.9-1.4s1.3-.9,1.9-1.4,1.3-.9,1.9-1.3,1.3-.9,2-1.3,1.3-.8,2-1.2,1.3-.8,2-1.2,1.4-.8,2-1.1,1.4-.7,2.1-1.1a20,20,0,0,1,2.1-1c.7-.3,1.4-.7,2.1-1l2.1-.9c.7-.3,1.4-.6,2.2-.9a14.27,14.27,0,0,1,2.2-.8c.7-.3,1.5-.5,2.2-.8a18.66,18.66,0,0,1,2.2-.7c.7-.2,1.5-.5,2.2-.7a5.58,5.58,0,0,1,2.1-.9c.7-.2,1.5-.4,2.3-.6L83,5.6c.8-.2,1.5-.3,2.3-.5a18.46,18.46,0,0,1,2.3-.4c.8-.1,1.5-.3,2.3-.4L92.2,4l2.3-.3a17.85,17.85,0,0,1,2.3-.2c.8-.1,1.6-.1,2.3-.2a18.48,18.48,0,0,1,2.3-.1c.8,0,1.6-.1,2.3-.1h4.7a17,17,0,0,1,2.3.1c.8,0,1.6.1,2.3.1s1.5.1,2.3.2,1.5.1,2.3.2l2.3.3,2.3.3c.8.1,1.5.3,2.3.4s1.5.3,2.3.4,1.5.3,2.3.5a18.92,18.92,0,0,0,2.3.5l2.3.6a14.16,14.16,0,0,1,2.2.7c.7.2,1.5.5,2.2.7s1.5.5,2.2.7,1.5.5,2.2.8a19.45,19.45,0,0,0,2.2.8c.7.3,1.4.6,2.2.9l2.1.9c.7.3,1.4.7,2.1,1s1.4.7,2.1,1,1.4.7,2.1,1.1,1.4.7,2,1.1,1.3.8,2,1.2,1.3.8,2,1.2a22.63,22.63,0,0,1,2,1.3c.6.4,1.3.9,1.9,1.3a23.07,23.07,0,0,1,1.9,1.4c.6.5,1.2.9,1.9,1.4a22,22,0,0,0,1.8,1.4l1.8,1.5,1.8,1.5a12.88,12.88,0,0,1,1.7,1.6c.6.5,1.1,1.1,1.7,1.6s1.1,1.1,1.7,1.6,1.1,1.1,1.6,1.7,1.1,1.1,1.6,1.7,1,1.2,1.5,1.7l1.5,1.8,1.5,1.8a22,22,0,0,1,1.4,1.8c.5.6.9,1.2,1.4,1.9a21.41,21.41,0,0,1,1.3,1.9c.4.6.9,1.3,1.3,1.9s.8,1.3,1.2,2,.8,1.3,1.2,2,.8,1.3,1.2,2,.7,1.4,1.1,2,.7,1.4,1.1,2.1.7,1.4,1,2.1.7,1.4,1,2.1l.9,2.1c.3.7.6,1.4.9,2.2a19.45,19.45,0,0,1,.8,2.2c.3.7.5,1.5.8,2.2s.5,1.5.7,2.2.5,1.5.7,2.2.4,1.5.6,2.2.4,1.5.6,2.3a18.92,18.92,0,0,1,.5,2.3c.2.8.3,1.5.5,2.3s.3,1.5.4,2.3.3,1.5.4,2.3.2,1.5.3,2.3.2,1.5.3,2.3.1,1.5.2,2.3.1,1.5.2,2.3.1,1.6.1,2.3a17.7,17.7,0,0,0,.1,2.3h0v2.3a17,17,0,0,1-.1,2.3c0,.8-.1,1.6-.1,2.3a16.41,16.41,0,0,1-.2,2.3c-.1.8-.1,1.5-.2,2.3s-.2,1.5-.3,2.3-.2,1.5-.3,2.3a18.46,18.46,0,0,1-.4,2.3c-.1.8-.3,1.5-.4,2.3a18.92,18.92,0,0,1-.5,2.3c-.2.8-.3,1.5-.5,2.3s-.4,1.5-.6,2.3-.4,1.5-.6,2.2a18.66,18.66,0,0,1-.7,2.2c-.2.7-.5,1.5-.7,2.2s-.5,1.5-.8,2.2-.5,1.5-.8,2.2-.6,1.4-.9,2.2l-.9,2.1a20,20,0,0,1-1,2.1c-.3.7-.7,1.4-1,2.1a21.16,21.16,0,0,1-1.1,2.1c-.4.7-.7,1.4-1.1,2s-.8,1.4-1.2,2-.8,1.3-1.2,2a22.63,22.63,0,0,1-1.3,2c-.4.6-.9,1.3-1.3,1.9s-.9,1.3-1.3,1.9-.9,1.3-1.4,1.9-.9,1.2-1.4,1.8l-1.5,1.8-1.5,1.8c-.5.6-1,1.2-1.5,1.7s-1.1,1.1-1.6,1.7-1.1,1.1-1.6,1.7a12.88,12.88,0,0,1-1.7,1.6c-.6.5-1.1,1.1-1.7,1.6s-1.1,1-1.7,1.6l-1.8,1.5-1.8,1.5a22,22,0,0,1-1.8,1.4c-.6.5-1.2.9-1.9,1.4s-1.3.9-1.9,1.4-1.3.9-1.9,1.3-1.3.9-2,1.3-1.3.8-2,1.2-1.3.8-2,1.2a19.83,19.83,0,0,1-2,1.1c-.7.4-1.4.7-2.1,1.1a20,20,0,0,1-2.1,1c-.7.3-1.4.7-2.1,1l-2.1.9c-.7.3-1.4.6-2.2.9a14.27,14.27,0,0,1-2.2.8c-.7.3-1.5.5-2.2.8s-1.5.5-2.2.8-1.5.5-2.2.7l-2.2.6c-.7.2-1.5.4-2.3.6a18.92,18.92,0,0,1-2.3.5c-.8.2-1.5.3-2.3.5a18.46,18.46,0,0,1-2.3.4c-.8.1-1.5.3-2.3.4l-2.3.3-2.3.3a17.85,17.85,0,0,1-2.3.2c-.8.1-1.6.1-2.3.2a17.7,17.7,0,0,1-2.3.1c-.8,0-1.6.1-2.3.1A2.24,2.24,0,0,1,106.1,209.1ZM106.1,9h-2.2a16.2,16.2,0,0,0-2.2.1c-.7,0-1.5.1-2.2.1a16.35,16.35,0,0,0-2.2.2c-.7.1-1.5.1-2.2.2l-2.2.3-2.2.3a20.69,20.69,0,0,0-2.2.4c-.7.1-1.4.3-2.2.4a16,16,0,0,0-2.1.5c-.7.2-1.4.3-2.1.5l-2.1.6-2.1.6a17.23,17.23,0,0,0-2.1.7c-.7.2-1.4.5-2.1.7a18,18,0,0,0-2.1.8c-.7.3-1.4.5-2,.8s-1.4.6-2,.8-1.3.6-2,.9-1.3.6-2,.9a18.65,18.65,0,0,0-2,1c-.7.3-1.3.7-1.9,1a18.58,18.58,0,0,0-1.9,1.1c-.6.4-1.3.7-1.9,1.1s-1.3.8-1.9,1.2l-1.8,1.2-1.8,1.2a20.28,20.28,0,0,0-1.8,1.3c-.6.4-1.2.9-1.8,1.3a11.51,11.51,0,0,0-1.7,1.4L43.4,32l-1.7,1.4c-.5.5-1.1,1-1.6,1.5s-1.1,1-1.6,1.5-1,1-1.6,1.5-1,1-1.5,1.6-1,1.1-1.5,1.6-1,1.1-1.5,1.6L31,44.4l-1.4,1.7c-.5.6-.9,1.2-1.3,1.7S27.4,49,27,49.6a20.28,20.28,0,0,1-1.3,1.8,18.76,18.76,0,0,0-1.2,1.8L23.3,55a11.78,11.78,0,0,0-1.1,1.9c-.4.6-.7,1.3-1.1,1.9a17.38,17.38,0,0,0-1,1.9c-.3.6-.7,1.3-1,2a18.65,18.65,0,0,1-1,2c-.3.7-.6,1.3-.9,2s-.6,1.3-.9,2-.6,1.4-.8,2-.5,1.4-.8,2a17.23,17.23,0,0,0-.7,2.1c-.2.7-.5,1.4-.7,2.1L12.7,79l-.6,2.1a16,16,0,0,0-.5,2.1c-.2.7-.3,1.4-.5,2.1a14.35,14.35,0,0,0-.4,2.2c-.1.7-.3,1.4-.4,2.2s-.2,1.4-.3,2.2-.2,1.4-.3,2.1a16.35,16.35,0,0,0-.2,2.2c-.1.7-.1,1.5-.2,2.2a16.2,16.2,0,0,0-.1,2.2c0,.7-.1,1.5-.1,2.2v6.6c0,.7.1,1.5.1,2.2s.1,1.5.1,2.2.1,1.5.2,2.2a16.35,16.35,0,0,1,.2,2.2c.1.7.2,1.4.3,2.2s.2,1.4.3,2.2.3,1.4.4,2.2.3,1.4.4,2.1.3,1.4.5,2.1a16,16,0,0,1,.5,2.1l.6,2.1.6,2.1a17.23,17.23,0,0,0,.7,2.1c.2.7.5,1.4.7,2.1s.5,1.4.8,2.1.5,1.4.8,2,.6,1.3.9,2,.6,1.3.9,2a18.65,18.65,0,0,0,1,2c.3.6.7,1.3,1,1.9s.7,1.3,1,1.9.7,1.3,1.1,1.9.7,1.3,1.1,1.9.8,1.2,1.2,1.9l1.2,1.8a20.28,20.28,0,0,0,1.3,1.8c.4.6.9,1.2,1.3,1.8s.9,1.2,1.3,1.7l1.4,1.7,1.4,1.7c.5.6,1,1.1,1.5,1.6s1,1.1,1.5,1.6,1,1.1,1.5,1.6,1,1,1.6,1.5,1.1,1,1.6,1.5,1.1,1,1.6,1.5a11.51,11.51,0,0,0,1.7,1.4l1.7,1.4,1.7,1.4c.6.4,1.2.9,1.8,1.3s1.2.9,1.8,1.3l1.8,1.2,1.8,1.2c.6.4,1.2.8,1.9,1.2a18.58,18.58,0,0,0,1.9,1.1c.6.4,1.3.7,1.9,1.1s1.3.7,1.9,1,1.3.7,2,1,1.3.6,2,.9,1.3.6,2,.9a16.67,16.67,0,0,0,2,.8c.7.3,1.4.5,2,.8s1.4.5,2.1.8,1.4.5,2.1.7a17.23,17.23,0,0,1,2.1.7l2.1.6,2.1.6a16,16,0,0,0,2.1.5c.7.2,1.4.3,2.1.5s1.4.3,2.2.4,1.4.3,2.2.4l2.2.3,2.2.3a16.35,16.35,0,0,0,2.2.2c.7.1,1.5.1,2.2.2a16.2,16.2,0,0,0,2.2.1c.7,0,1.5.1,2.2.1h4.4a16.2,16.2,0,0,0,2.2-.1c.7,0,1.5-.1,2.2-.1a16.35,16.35,0,0,0,2.2-.2c.7-.1,1.5-.1,2.2-.2l2.2-.3,2.2-.3a20.69,20.69,0,0,0,2.2-.4c.7-.1,1.4-.3,2.2-.4a16,16,0,0,0,2.1-.5c.7-.2,1.4-.3,2.1-.5l2.1-.6,2.1-.6a17.23,17.23,0,0,0,2.1-.7c.7-.2,1.4-.5,2.1-.7a18,18,0,0,0,2.1-.8c.7-.3,1.4-.5,2-.8s1.4-.6,2-.8,1.3-.6,2-.9,1.3-.6,2-.9a18.65,18.65,0,0,0,2-1c.6-.3,1.3-.7,1.9-1a18.58,18.58,0,0,0,1.9-1.1c.6-.4,1.3-.7,1.9-1.1s1.3-.8,1.9-1.2l1.8-1.2,1.8-1.2a20.28,20.28,0,0,0,1.8-1.3c.6-.4,1.2-.9,1.8-1.3a11.51,11.51,0,0,0,1.7-1.4l1.7-1.4,1.7-1.4c.6-.5,1.1-1,1.6-1.5s1.1-1,1.6-1.5,1-1,1.6-1.5,1-1,1.5-1.6,1-1.1,1.5-1.6,1-1.1,1.5-1.6l1.4-1.7,1.4-1.7c.5-.6.9-1.2,1.3-1.7s.9-1.2,1.3-1.8a20.28,20.28,0,0,1,1.3-1.8l1.2-1.8c.4-.6.8-1.2,1.2-1.9a11.78,11.78,0,0,0,1.1-1.9c.4-.6.7-1.3,1.1-1.9a17.38,17.38,0,0,0,1-1.9c.3-.6.7-1.3,1-1.9a18.65,18.65,0,0,1,1-2c.3-.7.6-1.3.9-2s.6-1.3.9-2,.6-1.4.8-2,.5-1.4.8-2.1a17.23,17.23,0,0,0,.7-2.1c.2-.7.5-1.4.7-2.1l.6-2.1.6-2.1a16,16,0,0,0,.5-2.1c.2-.7.3-1.4.5-2.1a15.52,15.52,0,0,0,.4-2.1c.1-.7.3-1.4.4-2.2s.2-1.4.3-2.2.2-1.4.3-2.2a15,15,0,0,0,.2-2.2c.1-.7.1-1.5.2-2.2a16.2,16.2,0,0,0,.1-2.2c0-.7.1-1.5.1-2.2v-6.6c0-.7-.1-1.5-.1-2.2s-.1-1.5-.1-2.2-.1-1.5-.2-2.2a16.35,16.35,0,0,1-.2-2.2c-.1-.7-.2-1.4-.3-2.2s-.2-1.4-.3-2.2-.3-1.4-.4-2.2-.3-1.4-.4-2.1-.3-1.4-.5-2.1a16,16,0,0,1-.5-2.1l-.6-2.1-.6-2.1a17.23,17.23,0,0,0-.7-2.1c-.2-.7-.5-1.4-.7-2.1s-.5-1.4-.8-2.1-.5-1.4-.8-2-.6-1.3-.9-2-.6-1.3-.9-2a18.65,18.65,0,0,0-1-2c-.3-.7-.7-1.3-1-2s-.7-1.3-1-1.9-.7-1.3-1.1-1.9a18.58,18.58,0,0,1-1.1-1.9c-.4-.6-.8-1.2-1.2-1.9l-1.2-1.8a20.28,20.28,0,0,0-1.3-1.8c-.4-.6-.9-1.2-1.3-1.8s-.9-1.2-1.3-1.7l-1.4-1.7-1.4-1.7c-.5-.6-1-1.1-1.5-1.6s-1-1.1-1.5-1.6-1-1.1-1.5-1.6-1-1-1.6-1.5-1.1-1-1.6-1.5-1.1-1-1.6-1.5a11.51,11.51,0,0,0-1.7-1.4l-1.7-1.4L165.4,29c-.6-.4-1.2-.9-1.8-1.3s-1.2-.9-1.8-1.3L160,25.2,158.2,24c-.6-.4-1.2-.8-1.9-1.2s-1.3-.7-1.9-1.1-1.3-.7-1.9-1.1-1.3-.7-1.9-1-1.3-.7-2-1-1.3-.6-2-.9-1.3-.6-2-.9a16.67,16.67,0,0,0-2-.8c-.7-.3-1.4-.5-2-.8s-1.4-.5-2.1-.8-1.4-.5-2.1-.7a17.23,17.23,0,0,1-2.1-.7l-2.1-.6-2.1-.6a16,16,0,0,0-2.1-.5c-.7-.2-1.4-.3-2.1-.5s-1.4-.3-2.2-.4-1.4-.3-2.2-.4l-2.2-.3-2.2-.3a16.35,16.35,0,0,0-2.2-.2c-.7-.1-1.5-.1-2.2-.2s-1.5-.1-2.2-.1-1.5-.1-2.2-.1A7.84,7.84,0,0,1,106.1,9Z" transform="translate(-2.9 -3.1)"/></g></g><g id="Layer_10" data-name="Layer 10"><g id="STROKE_095cd6a1-0508-4cba-9fb5-17862985e18e" data-name="STROKE 095cd6a1-0508-4cba-9fb5-17862985e18e"><path d="M56.2,108.3h5.3c.5,0,1.3-.1,2.2-.1a27.15,27.15,0,0,1,2.9-.1c1,0,1.7-.1,2.2-.1h1.8a14.77,14.77,0,0,1,2.1.1c.7,0,1.3.1,1.8.1s1,.1,1.4.1a4.48,4.48,0,0,1,1.2.1h1a13.57,13.57,0,0,1,1.8.1h2.9c1.1,0,2.5,0,4.2-.1s3-.1,3.8-.2,1.8-.1,2.9-.1h4.5a8.12,8.12,0,0,0,1.7-.1c.4,0,1.5,0,3.3-.1s3.1-.1,4.1-.1,2.1-.1,3.4-.2,2.4-.1,3.1-.1h3.4c.4,0,1.2,0,2.3.1s2,.1,2.9.2,1.9.1,3.1.2,2.1.1,2.7.2a8.08,8.08,0,0,1,1.6.1H132a22.75,22.75,0,0,0,2.4-.1c1,0,1.9-.1,2.5-.1h4.9a6.15,6.15,0,0,0,1.4-.1c.4,0,.8-.1,1.2-.1s.7-.1,1.1-.1a3.4,3.4,0,0,0,1-.1h2.1a1.48,1.48,0,0,1,.7.1,4.33,4.33,0,0,1,.5.1c.1,0,.2.1.3.1s.2.1.4.2a2.19,2.19,0,0,1,.5.3c.1.1.3.2.5.4l.4.4c.1.1.1.2.2.3s.2.3.2.5.1.3.2.4a1.27,1.27,0,0,1,.1.6c0,.3.1.5.1.7v.9a1.75,1.75,0,0,1-.1.5c-.1.3-.2.7-.4,1.2a11.22,11.22,0,0,0-.5,1.3,4.08,4.08,0,0,0-.2.7c0,.1-.1.2-.1.4s-.1.4-.2.6-.2.6-.3,1a7.72,7.72,0,0,1-.6,1.5,14.17,14.17,0,0,0-.8,1.8,6.39,6.39,0,0,1-.6,1.2,1.63,1.63,0,0,1-.3.6,3.39,3.39,0,0,0-.3.8,7.93,7.93,0,0,1-.4.9c-.1.3-.2.4-.2.5s-.3.5-.8,1.4-.8,1.6-1.1,2-.6,1-1,1.7-.8,1.3-1.1,1.7a2.76,2.76,0,0,1-.6.8c-.1.2-.4.6-.7,1.1s-.6,1-.9,1.4-.5.7-.7,1a3,3,0,0,1-.3.4,3.61,3.61,0,0,0-.4.5,8.74,8.74,0,0,0-.8,1,7.27,7.27,0,0,1-.8.9,2.65,2.65,0,0,0-.5.6,4.3,4.3,0,0,1-.7.7c-.4.3-.7.7-1.2,1.1s-.8.6-1,.8-.6.4-1.1.8-.8.6-.9.7a4.69,4.69,0,0,1-1,.6,9.5,9.5,0,0,1-1.7,1,8.51,8.51,0,0,0-1.4.9c-.4.2-.7.4-.9.5s-.3.2-.4.2-.4.2-1.1.5-1.2.5-1.6.7-1.1.4-2.2.8-1.9.7-2.5.9-1.1.4-1.7.6a8.2,8.2,0,0,1-1.1.4,4.05,4.05,0,0,1-1,.3,10.26,10.26,0,0,1-1.4.4c-.5.1-1,.3-1.4.4a10.38,10.38,0,0,0-1.2.3,2,2,0,0,1-.7.1,4.5,4.5,0,0,0-.8.2c-.4.1-.7.1-1,.2s-.7.1-1.4.2a11.55,11.55,0,0,1-1.6.2c-.5,0-.9.1-1.2.1h-5.5a3.42,3.42,0,0,1-1.1-.1c-.2,0-.6-.1-1.2-.1a8.17,8.17,0,0,0-1.4-.1c-.4,0-.7-.1-1-.1s-.7-.1-1.2-.1-.8-.1-1-.1a8.92,8.92,0,0,1-1.1-.2c-.5-.1-.8-.1-.9-.2a2,2,0,0,0-.5-.1,1.09,1.09,0,0,0-.5-.1,4.18,4.18,0,0,1-.9-.3c-.5-.2-1-.4-1.3-.5s-.7-.3-1-.4a4.88,4.88,0,0,1-.7-.3,5.56,5.56,0,0,0-.8-.4,9.25,9.25,0,0,0-1-.5,1.63,1.63,0,0,1-.6-.3,1.69,1.69,0,0,1-.5-.2c-.2-.1-.4-.1-.6-.2s-.5-.2-1-.4l-1.5-.6a15,15,0,0,1-1.8-.9,15,15,0,0,0-1.8-.9c-.5-.2-.9-.5-1.3-.7s-.7-.4-.9-.6a8.84,8.84,0,0,1-1.1-.8,8.84,8.84,0,0,0-1.1-.8c-.2-.2-.4-.3-.6-.5l-.6-.6-.6-.6c-.2-.2-.3-.4-.4-.4s-.2-.3-.6-.7-.7-.8-1-1.1-.5-.6-.7-.8a9.68,9.68,0,0,1-.7-.9,9.82,9.82,0,0,1-.7-1,3,3,0,0,1-.4-.8l-.3-.6c-.1-.1-.1-.2-.2-.3a4.54,4.54,0,0,1-.3-.8c-.2-.5-.4-.9-.5-1.2a7.46,7.46,0,0,0-.7-1.2c-.3-.4-.5-.7-.7-1s-.3-.4-.5-.6-.3-.4-.5-.6a3.28,3.28,0,0,0-.6-.8,8.65,8.65,0,0,0-.7-1,10.91,10.91,0,0,1-.6-1.1,10.91,10.91,0,0,0-.6-1.1,9.29,9.29,0,0,0-.5-1,1.63,1.63,0,0,0-.3-.6,13.55,13.55,0,0,1-.5-1.4c-.3-.8-.5-1.5-.7-2.1a4.51,4.51,0,0,1-.3-1.3c-.1-.3-.1-.6-.2-1l-.3-1.2c-.1-.4-.2-.7-.3-1.1s-.2-.7-.3-1l-.3-.9-.3-.9a3.93,3.93,0,0,1-.2-.6.9.9,0,0,1-.1-.5c0-.2-.1-.3-.1-.4a3.54,3.54,0,0,1-.1-.6,2,2,0,0,0-.1-.5v-1.2a1.09,1.09,0,0,1,.1-.5v-.1l.7-.9" transform="translate(-2.9 -3.1)"/><path d="M101.1,153.9h-.8a3.42,3.42,0,0,1-1.1-.1l-1.2-.1a8.17,8.17,0,0,0-1.4-.1c-.4,0-.7-.1-1-.1s-.7-.1-1.2-.1-.8-.1-1-.1a8.92,8.92,0,0,1-1.1-.2c-.5-.1-.8-.1-.9-.2a2,2,0,0,0-.5-.1,1.09,1.09,0,0,0-.5-.1,6.47,6.47,0,0,1-1-.3c-.6-.2-1-.4-1.3-.5s-.7-.3-1-.4a2.39,2.39,0,0,1-.7-.3l-.8-.4a9.25,9.25,0,0,0-1-.5,1.63,1.63,0,0,1-.6-.3,1.69,1.69,0,0,1-.5-.2c-.2-.1-.4-.1-.6-.2s-.5-.2-1-.4l-1.5-.6a15,15,0,0,1-1.8-.9c-.7-.4-1.4-.7-1.8-.9a5.67,5.67,0,0,1-1.3-.8,6.78,6.78,0,0,0-.9-.6,8.84,8.84,0,0,1-1.1-.8,8.84,8.84,0,0,0-1.1-.8c-.2-.2-.4-.3-.6-.5l-.6-.6a4.35,4.35,0,0,1-.6-.7l-.4-.4a5.17,5.17,0,0,0-.6-.7c-.4-.4-.7-.8-1-1.1l-.7-.7a9.68,9.68,0,0,1-.7-.9,4.89,4.89,0,0,1-.7-1.1c-.2-.3-.3-.5-.5-.8l-.3-.6-.2-.3c0-.1-.2-.3-.4-.8a10.41,10.41,0,0,1-.5-1.2c-.2-.4-.4-.7-.7-1.2a6.78,6.78,0,0,1-.6-.9,4.23,4.23,0,0,1-.5-.7c-.2-.2-.3-.4-.5-.6a3.28,3.28,0,0,0-.6-.8,8.65,8.65,0,0,0-.7-1,10.91,10.91,0,0,1-.6-1.1,10.91,10.91,0,0,0-.6-1.1,9.29,9.29,0,0,0-.5-1l-.3-.6a13.55,13.55,0,0,1-.5-1.4c-.3-.8-.5-1.5-.7-2.1a4.51,4.51,0,0,1-.3-1.3,3.09,3.09,0,0,1-.2-1.1l-.3-1.2c-.1-.4-.2-.7-.3-1.1s-.2-.7-.3-1l-.3-.9-.3-.9a1.85,1.85,0,0,1-.2-.7,1.09,1.09,0,0,1-.1-.5l-.1-.4a3.54,3.54,0,0,1-.1-.6,1.21,1.21,0,0,0-.1-.5v-1.2a1.09,1.09,0,0,1,.1-.5v-.2l.8-.9c.1-.1.1-.1.2-.1h5.3c.5,0,1.3-.1,2.2-.1a27.15,27.15,0,0,1,2.9-.1c1,0,1.7-.1,2.2-.1h1.8a17,17,0,0,1,2.2.1c.7,0,1.3.1,1.8.1s1,.1,1.4.1a3.42,3.42,0,0,1,1.1.1h1a13.57,13.57,0,0,1,1.8.1h2.9c1.1,0,2.5,0,4.2-.1s3-.1,3.8-.2,1.8-.1,2.9-.1h4.4a8.12,8.12,0,0,0,1.7-.1c.4,0,1.5,0,3.3-.1s3.1-.1,4-.1,2.1-.1,3.4-.2,2.4-.1,3.1-.1h3.4c.4,0,1.2,0,2.3.1s2,.1,2.9.2l3.1.2c1.2.1,2.1.1,2.6.2a8.08,8.08,0,0,1,1.6.1h2.2a22.75,22.75,0,0,0,2.4-.1c1,0,1.9-.1,2.5-.1h5a6.15,6.15,0,0,0,1.4-.1l1.2-.1c.4,0,.7-.1,1.1-.1a3.08,3.08,0,0,0,1-.1h2.1a1.48,1.48,0,0,1,.7.1,4.33,4.33,0,0,1,.5.1c.1,0,.2.1.3.1s.2.1.5.2a2.19,2.19,0,0,1,.5.3,2.25,2.25,0,0,1,.5.5c.2.2.3.4.4.4s.1.2.2.4.2.3.3.5.1.3.2.5a6.37,6.37,0,0,1,.2.7c0,.3.1.5.1.8v.8l-.1.5c-.1.3-.2.7-.4,1.2l-.5,1.3a4.08,4.08,0,0,0-.2.7c0,.1-.1.2-.1.4l-.5,1.6c-.1.4-.4.9-.6,1.6a14.17,14.17,0,0,0-.8,1.8c-.3.6-.4,1-.5,1.2a1.63,1.63,0,0,1-.3.6l-.3.8a7.93,7.93,0,0,1-.4.9c-.1.3-.2.4-.2.5s-.3.5-.8,1.4-.8,1.6-1.1,2-.6,1-1,1.7-.8,1.3-1.1,1.7-.4.7-.6.9-.4.6-.7,1.1-.6,1-.9,1.4-.5.7-.7,1a3,3,0,0,1-.3.4,3.61,3.61,0,0,0-.4.5,8.74,8.74,0,0,0-.8,1l-.8.9a2.65,2.65,0,0,0-.5.6c-.1.1-.3.4-.7.8s-.8.7-1.2,1.1-.8.6-1,.8-.6.4-1.1.8-.8.6-.9.7a4.69,4.69,0,0,1-1,.6c-.6.3-1.1.7-1.7,1a8.51,8.51,0,0,0-1.4.9c-.4.2-.7.4-.9.5s-.3.2-.4.2-.2.1-1.2.5c-.7.3-1.3.5-1.7.7s-1.1.4-2.2.8-1.9.7-2.5.9-1.1.4-1.7.6a8.2,8.2,0,0,1-1.1.4,4.05,4.05,0,0,1-1,.3,8.33,8.33,0,0,1-1.5.4c-.5.1-1,.3-1.4.4a10.38,10.38,0,0,0-1.2.3l-.7.1a4.5,4.5,0,0,0-.8.2c-.4.1-.7.1-1,.2s-.7.1-1.4.2a11.14,11.14,0,0,1-1.7.2c-.5,0-.9.1-1.2.1h-4.6C101.2,153.9,101.1,153.9,101.1,153.9ZM55.7,109.3h0c0,.2-.1.3-.1.4v1.1a1.09,1.09,0,0,0,.1.5,3.54,3.54,0,0,0,.1.6l.1.4a4.33,4.33,0,0,1,.1.5c.1.2.1.4.2.6a4.65,4.65,0,0,1,.3.9,9.44,9.44,0,0,0,.3.9c.1.3.2.6.3,1s.2.7.3,1.1l.3,1.2a5.76,5.76,0,0,1,.2,1,8.57,8.57,0,0,1,.3,1.3c.2.6.4,1.3.7,2.1a7.53,7.53,0,0,1,.5,1.4l.3.6a9.25,9.25,0,0,0,.5,1c.2.4.4.7.6,1.1a8.79,8.79,0,0,0,.6,1,6.07,6.07,0,0,0,.7,1,2.76,2.76,0,0,0,.6.8,2.65,2.65,0,0,0,.5.6c.2.2.3.4.5.6a5.34,5.34,0,0,1,.7,1c.3.4.5.9.7,1.2s.3.8.5,1.2a2.71,2.71,0,0,1,.3.8l.2.3a1.63,1.63,0,0,1,.3.6c.1.2.3.5.4.7s.4.6.7,1,.6.7.7.9l.7.7c.3.3.6.7,1,1.1s.6.6.6.7.2.2.4.4l.6.6.6.6a2.65,2.65,0,0,0,.6.5,7.91,7.91,0,0,0,1.1.8c.5.4.9.6,1.1.8a6.78,6.78,0,0,1,.9.6c.4.2.8.5,1.3.7l1.8.9c.7.4,1.4.6,1.8.9l1.5.6c.5.2.8.3,1,.4a4.17,4.17,0,0,0,.6.2c.2.1.4.1.5.2a1.55,1.55,0,0,1,.6.3,9.25,9.25,0,0,1,1,.5,5.56,5.56,0,0,1,.8.4,2.39,2.39,0,0,0,.7.3,10.37,10.37,0,0,0,1,.4c.3.1.8.3,1.3.5a7.78,7.78,0,0,0,.9.3,2,2,0,0,0,.5.1,1.09,1.09,0,0,0,.5.1c.1,0,.4.1.9.2a7.47,7.47,0,0,1,1.1.2c.2,0,.5.1,1,.1s.8.1,1.2.1a3.4,3.4,0,0,1,1,.1c.4,0,.8.1,1.4.1l1.2.1a4.14,4.14,0,0,1,1,.1h5.5a5.74,5.74,0,0,0,1.2-.1,11.55,11.55,0,0,0,1.6-.2,11.48,11.48,0,0,1,1.4-.2,4.4,4.4,0,0,0,1-.2c.4-.1.7-.1.8-.2l.7-.1a10.38,10.38,0,0,1,1.2-.3,7.37,7.37,0,0,0,1.4-.4c.5-.1,1-.3,1.4-.4a3.26,3.26,0,0,1,1-.3c.2-.1.6-.2,1.1-.4s1.1-.4,1.7-.6,1.4-.5,2.5-.9,1.8-.6,2.2-.8a15.78,15.78,0,0,0,1.6-.7,10.19,10.19,0,0,1,1.1-.5c.1,0,.2-.1.4-.2s.5-.3.9-.5a8,8,0,0,0,1.4-.9c.6-.3,1.1-.7,1.6-1a7.92,7.92,0,0,1,1-.6c.1-.1.4-.3.9-.7s.9-.6,1.1-.8.5-.4,1-.8.8-.7,1.2-1.1l.7-.7a3.81,3.81,0,0,0,.5-.6l.8-.9a7,7,0,0,0,.8-1,3.61,3.61,0,0,1,.4-.5,5.2,5.2,0,0,1,.3-.5c.2-.3.4-.6.7-1s.6-.9.9-1.4.6-.9.7-1.1a3.28,3.28,0,0,1,.6-.8,7.52,7.52,0,0,0,1-1.7c.5-.8.8-1.3,1-1.7s.6-1.1,1.1-2a13.84,13.84,0,0,0,.7-1.4,4.2,4.2,0,0,0,.2-.5,3.55,3.55,0,0,1,.4-.9l.3-.8.3-.6a6.57,6.57,0,0,1,.6-1.2c.3-.6.5-1.2.8-1.8a7.72,7.72,0,0,0,.6-1.5l.5-1.6a.76.76,0,0,0,.1-.4c0-.1.1-.3.2-.7l.5-1.3c.2-.5.3-.9.4-1.2a1.58,1.58,0,0,0,.1-.4v-.9a1.7,1.7,0,0,0-.1-.7c0-.2-.1-.4-.1-.6s-.1-.3-.2-.4-.1-.3-.2-.4a1.44,1.44,0,0,1-.2-.3l-.4-.4-.4-.4a.76.76,0,0,0-.5-.2c-.2-.1-.3-.1-.4-.2s-.2-.1-.3-.1a4.33,4.33,0,0,0-.5-.1c-.2,0-.4-.1-.7-.1h-2a3.75,3.75,0,0,0-1,.1c-.3,0-.7.1-1.1.1l-1.2.1c-.4,0-.9.1-1.4.1h-4.9a24.51,24.51,0,0,0-2.5.1c-1,0-1.8.1-2.4.1h-2.2a9.15,9.15,0,0,1-1.6-.1c-.6,0-1.5-.1-2.7-.2l-3.1-.2c-.9-.1-1.8-.1-2.9-.2a23,23,0,0,0-2.3-.1h-3.4c-.7,0-1.7,0-3.1.1s-2.5.1-3.4.2-2.3.1-4.1.1-2.9.1-3.3.1a11.56,11.56,0,0,0-1.7.1H93.7a25.32,25.32,0,0,0-2.9.1c-.8,0-2.1.1-3.8.2s-3.1.1-4.2.1H79.9a8.66,8.66,0,0,1-1.8-.1h-1a5.74,5.74,0,0,1-1.2-.1c-.5,0-.9-.1-1.4-.1s-1.1-.1-1.8-.1-1.4-.1-2.1-.1H68.9a20.34,20.34,0,0,0-2.2.1c-1,0-2,.1-2.9.1a19.42,19.42,0,0,1-2.2.1H56.4Z" transform="translate(-2.9 -3.1)"/></g></g><g id="Layer_8" data-name="Layer 8"><g id="STROKE_574253a9-6e8d-4fd7-b35d-f113318f948b" data-name="STROKE 574253a9-6e8d-4fd7-b35d-f113318f948b"><path class="cls-2" d="M88.2,152.5l-.2-.4a1.75,1.75,0,0,1,.1-.5,6.25,6.25,0,0,1,.4-1.4,11.64,11.64,0,0,1,.6-1.5,11.47,11.47,0,0,1,.8-1.4c.3-.5.5-.8.5-.8s.3-.5.9-1.3,1.1-1.6,1.5-2.2.8-1.1,1.1-1.5.6-.7,1-1.2.7-.8,1.1-1.2.7-.8,1-1.1l.8-.8a5.93,5.93,0,0,0,.8-.8c.4-.3.8-.7,1.4-1.2s1-.8,1.2-1a5.55,5.55,0,0,0,.8-.6c.3-.2.5-.4.7-.5a6.31,6.31,0,0,0,1-.7c.5-.3.9-.6,1.2-.8l.9-.6c.3-.2.7-.4,1.3-.8s1.5-.8,2.5-1.4,1.8-1,2.2-1.2a9.74,9.74,0,0,1,1.1-.5c.3-.1.9-.4,1.8-.7s1.7-.6,2.3-.8,1.1-.3,1.4-.4.7-.2,1-.3a3.55,3.55,0,0,1,1-.2,13,13,0,0,1,1.3-.3,5,5,0,0,0,1.2-.3,1.34,1.34,0,0,1,.5-.1c.1,0,.4-.1,1-.2s1.4-.2,2.6-.3,2-.2,2.6-.2,1-.1,1.3-.1a4.48,4.48,0,0,0,1.1-.1,2,2,0,0,1,.8,0h8.7a3.44,3.44,0,0,1,.9.1c.4,0,.6.1.8.1a1.27,1.27,0,0,1,.6.1c.2,0,.4.1.7.1a2.35,2.35,0,0,1,.8.2c.3.1.5.1.6.2s.3.1.4.2.2.1.4.3a1.38,1.38,0,0,1,.4.3l.3.3c.1.1.1.2.2.2a.35.35,0,0,1,.1.2c0,.1.1.2.1.4a1.76,1.76,0,0,0,.1.6,2.77,2.77,0,0,1-.1.9,3.18,3.18,0,0,1-.3.9,4.88,4.88,0,0,1-.3.7,10.38,10.38,0,0,1-.7,1.2,4.69,4.69,0,0,1-.6,1,.31.31,0,0,0-.1.2s-.2.3-.5.8-.6.9-.8,1.2-.4.5-.5.7-.3.4-.5.7-.4.6-.8,1.1a6.23,6.23,0,0,1-.9,1.2c-.2.3-.5.6-.7.9a3.81,3.81,0,0,1-.5.6c-.1.1-.2.3-.4.4s-.2.3-.4.4-.3.3-.4.5-.4.4-.6.7a3.81,3.81,0,0,1-.5.6l-.6.6a6.47,6.47,0,0,1-.9.8c-.3.3-.5.4-.6.6a3.81,3.81,0,0,1-.6.5,4.35,4.35,0,0,0-.7.6,2.65,2.65,0,0,1-.6.5,2.65,2.65,0,0,0-.6.5,3,3,0,0,1-.7.5,1.73,1.73,0,0,1-.4.3c-.1,0-.4.3-1,.6a15.14,15.14,0,0,1-1.4.9,5.58,5.58,0,0,0-.8.5,3.11,3.11,0,0,0-.6.4l-.6.3-1.2.6-1.4.7c-.4.2-.7.3-.9.4a1.42,1.42,0,0,1-.6.2,10,10,0,0,1-1.1.4c-.5.2-1,.3-1.3.4l-.9.3a2.54,2.54,0,0,1-.7.2,3.26,3.26,0,0,0-1,.3,10.34,10.34,0,0,1-1.2.3c-.3.1-.6.1-.9.2s-.6.1-1,.2a6.37,6.37,0,0,0-.9.2c-.2.1-.5.1-.7.2a1.09,1.09,0,0,1-.5.1c-.1,0-.3.1-.7.2s-.7.2-1,.3a6.37,6.37,0,0,0-.7.2c-.2,0-.4.1-.6.1s-.4.1-.6.1a5.07,5.07,0,0,0-.9.2c-.4.1-.7.1-1,.2s-.7.1-1.4.2-1.2.1-1.6.2-.8.1-1,.1a2,2,0,0,0-.7.1h-2.3a2.49,2.49,0,0,1-.8-.1c-.3,0-.6-.1-.9-.1s-1-.1-2-.2-1.9-.2-2.4-.3a7.07,7.07,0,0,1-1.2-.2,3.54,3.54,0,0,1-.6-.1c-.2,0-.4-.1-.7-.1s-.5-.1-.7-.1-.3-.1-.5-.1-.3-.1-.4-.1-.2-.1-.3-.1a.35.35,0,0,1-.2-.1,3.22,3.22,0,0,0-.6-.2,1.54,1.54,0,0,1-.7-.3c-.1,0-.1-.1-.2-.1h-.1a1.09,1.09,0,0,0-.4-.2.1.1,0,0,1-.1-.1C88.4,152.8,88.3,152.7,88.2,152.5Z" transform="translate(-2.9 -3.1)"/><path class="cls-2" d="M101.6,155.5h-.4a2.49,2.49,0,0,1-.8-.1l-.9-.1c-.3,0-1-.1-2-.2s-1.9-.2-2.4-.3a7.07,7.07,0,0,1-1.2-.2,3.54,3.54,0,0,1-.6-.1l-.7-.1c-.3,0-.5-.1-.7-.1a4.33,4.33,0,0,1-.5-.1c-.1,0-.3-.1-.4-.1l-.3-.1h-.2l-.6-.2c-.4-.2-.6-.2-.7-.3l-.1-.1a.1.1,0,0,1-.1-.1,1.09,1.09,0,0,0-.4-.2c-.1-.1-.1-.1-.2-.1l-.2-.4c-.2-.3-.2-.4-.2-.5a4.55,4.55,0,0,1,.1-.6,6.25,6.25,0,0,1,.4-1.4c.2-.6.5-1.1.6-1.5s.5-.8.8-1.4.5-.8.5-.8l.9-1.3c.6-.8,1.1-1.6,1.6-2.2s.8-1.1,1.1-1.5.6-.7,1-1.2a13.07,13.07,0,0,1,1.1-1.2c.4-.4.7-.8,1-1.1l.8-.8a5.93,5.93,0,0,0,.8-.8c.4-.3.8-.7,1.4-1.2a15.75,15.75,0,0,1,1.3-1,5.55,5.55,0,0,0,.8-.6c.3-.2.5-.4.7-.5a6.31,6.31,0,0,0,1-.7c.5-.3.9-.6,1.2-.8l.9-.6c.3-.2.7-.4,1.3-.8s1.4-.8,2.5-1.4,1.8-1,2.2-1.2a9.74,9.74,0,0,1,1.1-.5c.3-.1.9-.4,1.8-.7s1.7-.6,2.3-.8,1.1-.3,1.4-.4.7-.2,1-.3a3.55,3.55,0,0,1,1-.2,10.63,10.63,0,0,1,1.4-.3,5,5,0,0,0,1.2-.3,1.34,1.34,0,0,1,.5-.1c.1,0,.4-.1,1-.2s1.4-.2,2.6-.3,2-.2,2.6-.2,1-.1,1.4-.1a4.48,4.48,0,0,0,1.1-.1h9.5a3.08,3.08,0,0,1,.9.1c.4,0,.6.1.8.1a1.27,1.27,0,0,1,.6.1c.2,0,.4.1.7.1a1.88,1.88,0,0,1,.8.2,6.37,6.37,0,0,1,.7.2c.2.1.3.1.4.2s.3.2.4.3a.78.78,0,0,1,.4.4,1.38,1.38,0,0,1,.3.4c.1.1.1.2.2.3s.1.1.1.2.1.2.1.4a2.14,2.14,0,0,0,.1.6,2.77,2.77,0,0,1-.1.9l-.3.9a6.89,6.89,0,0,1-.3.8,10.38,10.38,0,0,1-.7,1.2c-.3.6-.6,1-.6,1.1v.1a.1.1,0,0,1-.1.1s-.2.3-.5.7l-.8,1.2a3.51,3.51,0,0,0-.5.8l-.5.7c-.2.2-.4.6-.8,1.1a6.23,6.23,0,0,1-.9,1.2c-.2.3-.5.6-.7.9a3.81,3.81,0,0,1-.5.6l-.4.4c-.1.1-.2.3-.4.4a1,1,0,0,0-.4.5,4.35,4.35,0,0,0-.6.7l-.5.6-.6.6a6.47,6.47,0,0,1-.9.8c-.3.3-.5.4-.6.6l-.6.5a4.35,4.35,0,0,0-.7.6l-.6.5c-.2.2-.4.3-.6.5a3,3,0,0,1-.7.5,1.73,1.73,0,0,1-.4.3,10.27,10.27,0,0,0-1,.7c-.6.4-1.1.7-1.4.9a9.22,9.22,0,0,1-.8.5,3.11,3.11,0,0,0-.6.4l-.6.3-1.2.6c-.6.3-1.1.5-1.5.7s-.7.3-.9.4l-.6.2a10,10,0,0,1-1.1.4c-.5.2-1,.3-1.3.4l-.9.3-.7.2a3.26,3.26,0,0,0-1,.3,10.34,10.34,0,0,1-1.2.3c-.3.1-.6.1-.9.2a4.4,4.4,0,0,0-1,.2,6.37,6.37,0,0,0-.9.2c-.2.1-.5.1-.7.2l-.5.1c-.1,0-.3.1-.7.2s-.7.2-1,.3l-1.3.3c-.2,0-.4.1-.6.1a5.07,5.07,0,0,0-.9.2c-.4.1-.7.1-1,.2s-.7.1-1.4.2-1.2.1-1.6.2-.8.1-1,.1a2,2,0,0,0-.7.1h-1.2A5.8,5.8,0,0,0,101.6,155.5Zm-11.1-2a.31.31,0,0,1,.2.1l.3.1c.1,0,.2.1.4.1a4.33,4.33,0,0,0,.5.1c.2,0,.4.1.7.1l.7.1c.2,0,.4.1.6.1a7.38,7.38,0,0,1,1.2.2q.9.15,2.4.3c1.1.1,1.7.2,2,.2l.9.1h3.2a1.7,1.7,0,0,0,.7-.1c.2,0,.5-.1,1-.1a11.55,11.55,0,0,0,1.6-.2c.6-.1,1.1-.1,1.4-.2a4.4,4.4,0,0,0,1-.2,6.37,6.37,0,0,0,.9-.2c.2,0,.4-.1.6-.1l1.3-.3c.3-.1.6-.2,1-.3s.6-.2.7-.2l.5-.1c.2-.1.5-.1.7-.2s.6-.1.9-.2.7-.1,1-.2a1.88,1.88,0,0,0,.8-.2,10.38,10.38,0,0,1,1.2-.3,3,3,0,0,0,1-.3l.7-.2.9-.3c.3-.1.8-.2,1.3-.4a4.28,4.28,0,0,1,1-.3l.5-.2c.2-.1.5-.2.9-.4s.9-.4,1.4-.7l1.2-.6a3.33,3.33,0,0,0,.6-.3l.6-.3a9.22,9.22,0,0,0,.8-.5c.3-.2.8-.5,1.3-.9a4.43,4.43,0,0,1,1-.6c.1,0,.2-.1.4-.3s.5-.3.7-.5a2.65,2.65,0,0,1,.6-.5l.6-.5c.2-.2.5-.4.7-.6l.6-.5.6-.6c.3-.3.6-.5.9-.8l.6-.6.5-.6a4.35,4.35,0,0,1,.6-.7c.2-.2.3-.4.4-.5s.3-.3.4-.4l.4-.4a3.81,3.81,0,0,0,.5-.6c.2-.3.5-.6.7-.9s.5-.7.9-1.2.6-.8.8-1.1l.5-.7a3,3,0,0,1,.5-.7l.8-1.2c.3-.5.5-.8.5-.8l.1-.1a4.69,4.69,0,0,0,.6-1c.4-.7.6-1,.7-1.2a4.88,4.88,0,0,0,.3-.7,3.09,3.09,0,0,0,.2-.8,2.2,2.2,0,0,0,.1-.8v-.5a.44.44,0,0,0-.1-.3c0-.1-.1-.1-.1-.2a.35.35,0,0,1-.1-.2l-.3-.3a1.38,1.38,0,0,0-.4-.3.76.76,0,0,0-.4-.2c-.1-.1-.2-.1-.4-.2s-.4-.1-.6-.2-.5-.1-.8-.2-.5-.1-.7-.1-.4-.1-.6-.1a2.49,2.49,0,0,1-.8-.1c-.4,0-.7-.1-.9-.1h-9.3a3.75,3.75,0,0,0-1.1.1c-.3,0-.8.1-1.3.1s-1.4.1-2.6.2-2,.2-2.5.3-.9.2-1,.2a1.34,1.34,0,0,0-.5.1,8.57,8.57,0,0,1-1.3.3,8.57,8.57,0,0,0-1.3.3,3.55,3.55,0,0,1-1,.2c-.3.1-.7.2-1,.3s-.8.2-1.4.4-1.4.5-2.3.8c-1.1.4-1.6.6-1.8.7s-.6.3-1.1.5-1.2.6-2.2,1.2-1.9,1-2.5,1.4-1.1.6-1.3.8l-.9.6c-.3.2-.7.5-1.2.8a5.34,5.34,0,0,0-1,.7c-.2.1-.4.3-.7.5s-.5.4-.8.6a7.74,7.74,0,0,0-1.2,1,17.41,17.41,0,0,0-1.4,1.2,45493226232337,45493226232337,0,0,0-1.6,1.6,11,11,0,0,0-1,1.1c-.4.4-.7.8-1.1,1.2a10.59,10.59,0,0,0-1,1.2c-.3.4-.7.8-1.1,1.4a21,21,0,0,0-1.5,2.2l-.9,1.3s-.2.3-.5.8-.6,1-.8,1.3a7.7,7.7,0,0,0-.6,1.5,5.79,5.79,0,0,0-.4,1.3,2,2,0,0,1-.1.5,1.24,1.24,0,0,1,.2.3h0a.37.37,0,0,1,.1.3h.1l.4.2h.1l.2.1a1.55,1.55,0,0,1,.6.3,2.69,2.69,0,0,1,1,0Z" transform="translate(-2.9 -3.1)"/></g></g><g id="Layer_9" data-name="Layer 9"><g id="STROKE_b5edf8ac-9307-45a6-8081-4f1032761186" data-name="STROKE b5edf8ac-9307-45a6-8081-4f1032761186"><path d="M56.2,111.3a3,3,0,0,1,0-6l96.1-.1h0a3,3,0,0,1,0,6l-96.1.1Z" transform="translate(-2.9 -3.1)"/></g><g id="STROKE_48b6ded0-1e50-4853-b9f5-30c142847ad6" data-name="STROKE 48b6ded0-1e50-4853-b9f5-30c142847ad6"><path d="M102.7,157.6h-2.1l-1.3-.1a3.22,3.22,0,0,1-.8-.1c-.4,0-.7-.1-1.2-.1s-.8-.1-1.2-.1-.8-.1-1.2-.1a6.88,6.88,0,0,1-1.3-.2l-1.5-.3c-.5-.1-1-.2-1.7-.3a8.57,8.57,0,0,1-1.3-.3c-.3-.1-.7-.2-1.4-.4s-1.2-.3-1.4-.4a4.65,4.65,0,0,0-.9-.3,4.87,4.87,0,0,1-1.1-.4c-.3-.1-.7-.3-1.1-.4a11.64,11.64,0,0,0-1.5-.6c-.6-.3-1.3-.6-2.2-1a11.18,11.18,0,0,1-1.7-.9,4.05,4.05,0,0,1-.9-.5,8.79,8.79,0,0,1-1-.6c-.3-.2-.8-.5-1.3-.9s-1.3-.9-2.2-1.6-1.4-1.1-1.5-1.2-.4-.4-.7-.6-.8-.8-1.5-1.4l-1.3-1.3c-.2-.3-.6-.6-1-1.1s-.9-1.1-1.6-1.9-1.2-1.6-1.6-2.2l-1-1.5c-.2-.4-.6-.9-1-1.6s-.7-1.3-1-1.8-.6-1.2-1-2.1a21.41,21.41,0,0,1-1.2-2.8,16.47,16.47,0,0,0-.9-2.2c-.2-.6-.5-1.4-.7-2.2s-.5-1.7-.8-2.6-.5-1.8-.7-2.6-.4-1.8-.6-2.8-.3-1.6-.4-1.9-.1-.8-.2-1.4l-.3-1.5a15,15,0,0,0-.3-1.8l-.1-.4a3,3,0,1,1,6-.8v.3a7.46,7.46,0,0,0,.3,1.7l.3,1.4a10.5,10.5,0,0,1,.2,1.3c.1.3.2.9.4,1.8s.4,1.8.6,2.6l.6,2.4c.2.8.5,1.6.7,2.4s.5,1.4.7,2,.5,1.2.8,2,.7,1.6,1.1,2.5.7,1.5.9,1.9a14.68,14.68,0,0,0,.9,1.5c.4.6.6,1.1.8,1.4s.5.8.9,1.3.9,1.2,1.4,1.9,1,1.3,1.4,1.7a8.18,8.18,0,0,0,.8.9l1.2,1.2a11.05,11.05,0,0,0,1.3,1.2c.3.3.5.4.6.6s.6.5,1.3,1,1.4,1.1,1.9,1.4a6.29,6.29,0,0,1,1.1.8,4.05,4.05,0,0,0,.9.5,5.58,5.58,0,0,1,.8.5c.2.1.7.4,1.5.8s1.4.7,1.9.9.9.4,1.3.6a10.37,10.37,0,0,1,1,.4l.9.3a6.89,6.89,0,0,1,.8.3,5,5,0,0,0,1.2.3,4.51,4.51,0,0,0,1.3.3c.2.1.6.1,1.1.3l1.5.3a5.85,5.85,0,0,0,1.3.2c.4.1.8.1,1.1.2s.7.1,1,.1.7.1,1.1.1.7.1,1,.1h.7l1.2.1h3.6a7.22,7.22,0,0,0,1.9-.1,3.44,3.44,0,0,0,.9-.1c.4,0,.8-.1,1.4-.1s1.1-.1,1.6-.2,1-.1,1.3-.2a5.64,5.64,0,0,0,.7-.1c.1,0,.4-.1.9-.2l1.5-.3a13,13,0,0,0,1.3-.3c.3-.1.6-.1.8-.2s.5-.1.8-.2a9.44,9.44,0,0,1,.9-.3c.4-.1.7-.2,1-.3a7.6,7.6,0,0,0,1.1-.4,2.3,2.3,0,0,1,.9-.3c.1,0,.4-.2.8-.3l.8-.3a2.19,2.19,0,0,1,.8-.3,5.56,5.56,0,0,0,.8-.4l.5-.2a2.19,2.19,0,0,0,.5-.3,4.88,4.88,0,0,1,.7-.3c.3-.1.5-.3.8-.4l.9-.5a3.11,3.11,0,0,0,.6-.4c.2-.1.4-.3.8-.5a8.65,8.65,0,0,0,1-.7l1-.7c.4-.3.7-.5,1-.7s.6-.5.9-.7a8.74,8.74,0,0,1,1-.8c.3-.3.7-.6,1.1-1l1.2-1.2a7.3,7.3,0,0,0,.9-1c.2-.2.4-.5.7-.8s.5-.5.7-.8.5-.6.8-1,.5-.7.8-1.1.6-.8,1-1.5.7-1.1.9-1.4a5.74,5.74,0,0,0,.4-.7l.3-.5c.1-.2.3-.5.5-.9a6.66,6.66,0,0,1,.6-1.2,13.39,13.39,0,0,0,.6-1.2c.2-.5.4-.9.6-1.3a2,2,0,0,0,.3-.8l.4-1.2c.1-.2.2-.7.5-1.3a18.88,18.88,0,0,1,.6-1.8,4.28,4.28,0,0,0,.3-1l.2-.8c.1-.4.2-.6.2-.7l.1-.6c.1-.3.1-.6.2-.8a1.76,1.76,0,0,0,.1-.6l.5-2.6a11.48,11.48,0,0,1,.2-1.4c.1-.7.2-1,.2-1.2l.1-.7a1.09,1.09,0,0,1,.1-.5l.2-1.5a3,3,0,1,1,5.9.9l-.3,1.8a.6.6,0,0,1-.1.4l-.1.4c0,.2-.1.6-.2,1.3a9.59,9.59,0,0,1-.3,1.5l-.5,2.7a2.54,2.54,0,0,1-.2.7c-.1.3-.1.6-.2.9l-.2.7a5.07,5.07,0,0,1-.2.9l-.2.8c0,.2-.2.6-.3,1.2s-.4,1.2-.6,2-.4,1.2-.5,1.5-.2.5-.3.8v.1l-.2.5a4.13,4.13,0,0,0-.4.9c-.2.4-.4.9-.6,1.4s-.4,1-.6,1.4-.4.9-.7,1.4-.5.9-.6,1.1l-.3.5-.4.8c-.2.3-.5.9-1,1.6s-.8,1.3-1.1,1.7l-.9,1.2a10.63,10.63,0,0,1-.9,1.1c-.3.3-.5.7-.8,1s-.5.6-.8.9-.6.7-1,1.1-.9.9-1.3,1.4a15.38,15.38,0,0,0-1.3,1.2,11,11,0,0,0-1.1,1,7,7,0,0,1-1,.8,7.29,7.29,0,0,0-1.1.9l-.6.4a.35.35,0,0,1-.2.1l-.5.3c-.3.2-.7.5-1.1.8a6.78,6.78,0,0,1-.9.6,4.35,4.35,0,0,1-.7.4l-.5.3a5.2,5.2,0,0,0-.5.3,9.29,9.29,0,0,1-1,.5c-.3.2-.6.3-.7.4a4.88,4.88,0,0,1-.7.3,2.19,2.19,0,0,0-.5.3,5.56,5.56,0,0,1-.8.4,4.13,4.13,0,0,0-.9.4l-.9.3c-.4.2-.7.3-.9.4s-.5.2-1,.4-.9.3-1.2.4a7.6,7.6,0,0,0-1.1.4,6.21,6.21,0,0,0-1,.3c-.3.1-.6.1-.8.2a2.92,2.92,0,0,1-.9.2,10.63,10.63,0,0,1-1.4.3c-.6.1-1.2.2-1.7.3a8.38,8.38,0,0,1-1,.2c-.2,0-.4.1-.8.1s-.9.1-1.4.2-1.2.1-1.8.2a8.64,8.64,0,0,1-1.5.1c-.4,0-.7.1-1,.1s-.9,0-2.1.1A5.52,5.52,0,0,0,102.7,157.6Z" transform="translate(-2.9 -3.1)"/></g></g><g id="Layer_7" data-name="Layer 7"><g id="STROKE_3ce548d9-782f-4974-ab5b-16a969b73a37" data-name="STROKE 3ce548d9-782f-4974-ab5b-16a969b73a37"><path d="M182.4,79.3v2.4c0,.2,0,.3-.1.4s0,.3-.1.4a.6.6,0,0,1-.1.4c0,.1-.1.3-.1.4s-.1.3-.1.4-.1.3-.1.4-.1.3-.1.4-.1.3-.1.4-.1.3-.1.4-.1.3-.1.4-.1.3-.1.4-.1.3-.2.4-.1.3-.2.4-.1.3-.2.4-.1.3-.2.4-.1.3-.2.4-.1.3-.2.4-.1.3-.2.4-.1.3-.2.4a31469859094509,31469859094509,0,0,1-.4.8c-.1.1-.2.3-.3.4a18325193796275.3,18325193796275.3,0,0,0-.6.8c-.1.2-.2.2-.3.4a1.38,1.38,0,0,0-.3.4l-.3.3-.3.3-.3.3-.3.3-.3.3-.3.3-.3.3-.3.3-.3.3a8144530576096.67,8144530576096.67,0,0,0-.8.6,1.38,1.38,0,0,1-.4.3,1.38,1.38,0,0,1-.4.3.76.76,0,0,1-.4.2.76.76,0,0,1-.4.2.76.76,0,0,1-.4.2c-.1.1-.3.1-.4.2s-.3.1-.4.2-.3.1-.4.2-.3.1-.4.2-.3.1-.4.2-.3.1-.4.2-.3.1-.4.2-.3.1-.4.2a.6.6,0,0,1-.4.1c-.1,0-.3.1-.4.1s-.3.1-.4.1-.3.1-.4.1-.3.1-.4.1-.3.1-.4.1-.3.1-.4.1-.3.1-.4.1a.6.6,0,0,0-.4.1c-.1.1-.3,0-.4.1h-4.9a7706784382496.26,7706784382496.26,0,0,0-.8-.2.6.6,0,0,1-.4-.1c-.1,0-.3-.1-.4-.1s-.3-.1-.4-.1-.3-.1-.4-.1-.3-.1-.4-.1-.3-.1-.4-.1-.3-.1-.4-.1-.3-.1-.4-.1a.76.76,0,0,1-.4-.2c-.1-.1-.3-.1-.4-.2s-.3-.1-.4-.2-.3-.1-.4-.2-.3-.1-.4-.2-.3-.1-.4-.2-.3-.1-.4-.2-.3-.1-.4-.2a19668661934156.18,19668661934156.18,0,0,1-.8-.4.76.76,0,0,0-.4-.2c-.1-.1-.3-.2-.4-.3a24433591728381.72,24433591728381.72,0,0,1-.8-.6,1.38,1.38,0,0,0-.4-.3l-.3-.3-.3-.3-.3-.3-.3-.3-.3-.3-.3-.3-.3-.3-.3-.3-.3-.3a20615843020826.44,20615843020826.44,0,0,0-.9-1.2,1.38,1.38,0,0,1-.3-.4,29502992901112,29502992901112,0,0,0-.6-1.2.76.76,0,0,1-.2-.4c-.1-.1-.1-.3-.2-.4s-.1-.3-.2-.4-.1-.3-.2-.4-.1-.3-.2-.4-.1-.3-.2-.4-.1-.3-.2-.4-.1-.3-.2-.4-.1-.3-.2-.4-.1-.3-.1-.4-.1-.3-.1-.4-.1-.3-.1-.4-.1-.3-.1-.4-.1-.3-.1-.4-.1-.3-.1-.4-.1-.3-.1-.4a.6.6,0,0,0-.1-.4.6.6,0,0,0-.1-.4.6.6,0,0,0-.1-.4V77.3a.9.9,0,0,1,.1-.5,61654275059607.87,61654275059607.87,0,0,0,.2-.8c0-.1.1-.3.1-.4s.1-.3.1-.4.1-.3.1-.4.1-.3.1-.4.1-.3.1-.4.1-.3.1-.4.1-.3.1-.4.1-.3.1-.4.1-.3.2-.4.1-.3.2-.4.1-.3.2-.4.1-.3.2-.4.1-.3.2-.4.1-.3.2-.4.1-.3.2-.4.1-.3.2-.4a6293971818902.22,6293971818902.22,0,0,0,.4-.8.76.76,0,0,0,.2-.4,1.38,1.38,0,0,0,.3-.4,18325193796258,18325193796258,0,0,0,.6-.8,1.38,1.38,0,0,0,.3-.4l.3-.3.3-.3.3-.3.3-.3.3-.3.3-.3.3-.3.3-.3.3-.3a1.38,1.38,0,0,1,.4-.3,1.38,1.38,0,0,1,.4-.3,9773436691369.62,9773436691369.62,0,0,0,.8-.6,39337323868056.37,39337323868056.37,0,0,0,.8-.4.76.76,0,0,1,.4-.2c.1-.1.3-.1.4-.2s.3-.1.4-.2.3-.1.4-.2.3-.1.4-.2.3-.1.4-.2.3-.1.4-.2.3-.1.4-.2.3-.1.4-.2.3-.1.4-.1.3-.1.4-.1.3-.1.4-.1.3-.1.4-.1.3-.1.4-.1.3-.1.4-.1.3-.1.4-.1.3-.1.4-.1a15413568765076.39,15413568765076.39,0,0,1,.8-.2h4.8c.2,0,.3,0,.4.1a20551425019766.2,20551425019766.2,0,0,0,.8.2c.1,0,.3.1.4.1s.3.1.4.1.3.1.4.1.3.1.4.1.3.1.4.1.3.1.4.1.3.1.4.1.3.1.4.2.3.1.4.2.3.1.4.2.3.1.4.2.3.1.4.2.3.1.4.2.3.1.4.2.3.1.4.2a.76.76,0,0,0,.4.2.76.76,0,0,0,.4.2c.1,0,.3.2.4.2s.3.2.4.3a1.38,1.38,0,0,0,.4.3,1.38,1.38,0,0,0,.4.3,24433591728323.46,24433591728323.46,0,0,1,.8.6l.3.3.3.3.3.3.3.3.3.3.3.3.3.3.3.3a27487790694387.92,27487790694387.92,0,0,0,.6.8c.1.2.2.2.3.4a1.38,1.38,0,0,1,.3.4c.1.1.2.3.3.4a9834330967047,9834330967047,0,0,1,.4.8.76.76,0,0,1,.2.4c.1.1.1.3.2.4s.1.3.2.4.1.3.2.4.1.3.2.4.1.3.2.4.1.3.2.4.1.3.2.4a.6.6,0,0,1,.1.4c0,.1.1.3.1.4s.1.3.1.4.1.3.1.4.1.3.1.4.1.3.1.4.1.3.1.4.1.3.1.4a.6.6,0,0,0,.1.4.6.6,0,0,0,.1.4.9.9,0,0,0,.1.5v1.5A1.09,1.09,0,0,1,182.4,79.3Z" transform="translate(-2.9 -3.1)"/><path d="M162.4,99.8h-2.5a16659109986397.66,16659109986397.66,0,0,1-1-.2c-.2,0-.3-.1-.5-.1s-.3-.1-.4-.1-.3-.1-.4-.1-.3-.1-.4-.1-.3-.1-.4-.1-.3-.1-.4-.1-.3-.1-.4-.1-.3-.1-.4-.1a.76.76,0,0,1-.4-.2c-.1-.1-.3-.1-.4-.2s-.3-.1-.4-.2-.3-.1-.4-.2-.3-.1-.4-.2-.3-.1-.4-.2-.3-.1-.4-.2-.3-.1-.4-.2a.76.76,0,0,0-.4-.2.76.76,0,0,0-.4-.2c-.1-.1-.3-.2-.4-.3s-.3-.2-.4-.3a24433591728386.08,24433591728386.08,0,0,1-.8-.6,1.38,1.38,0,0,0-.4-.3,1.38,1.38,0,0,0-.4-.3c-.2-.1-.2-.2-.3-.3l-.3-.3-.3-.3-.3-.3-.3-.3-.3-.3-.3-.3-.3-.3a20615843020801.92,20615843020801.92,0,0,1-.9-1.2c-.1-.2-.2-.2-.3-.4s-.2-.3-.3-.4a14751496450587.38,14751496450587.38,0,0,0-.6-1.2c-.1-.1-.1-.3-.2-.4s-.1-.3-.2-.4-.1-.3-.2-.4-.1-.3-.2-.4-.1-.3-.2-.4-.1-.3-.2-.4-.1-.3-.2-.4-.1-.3-.2-.4-.1-.3-.1-.4-.1-.3-.1-.4-.1-.3-.1-.4-.1-.3-.1-.4-.1-.3-.1-.4-.1-.3-.1-.4-.1-.3-.1-.4a.9.9,0,0,0-.1-.5,1.09,1.09,0,0,0-.1-.5.9.9,0,0,0-.1-.5V77.4a9329101592432.24,9329101592432.24,0,0,1,.2-1,1.09,1.09,0,0,1,.1-.5c0-.2.1-.3.1-.5s.1-.3.1-.4.1-.3.1-.4.1-.3.1-.4.1-.3.1-.4.1-.3.1-.4.1-.3.1-.4a.76.76,0,0,1,.2-.4c.1-.1.1-.3.2-.4s.1-.3.2-.4.1-.3.2-.4.1-.3.2-.4.1-.3.2-.4.1-.3.2-.4.1-.3.2-.4.1-.3.2-.4a7867464773627.35,7867464773627.35,0,0,1,.4-.8c.1-.1.2-.3.3-.4s.2-.3.3-.4a18325193796273.4,18325193796273.4,0,0,1,.6-.8,18325193796258,18325193796258,0,0,0,.6-.8l.3-.3.3-.3.3-.3.3-.3.3-.3.3-.3.3-.3a1.38,1.38,0,0,1,.4-.3,1.38,1.38,0,0,1,.4-.3,48867183456684.8,48867183456684.8,0,0,0,.8-.6c.1-.1.3-.2.4-.3a118011971604327.14,118011971604327.14,0,0,0,1.2-.6.76.76,0,0,1,.4-.2c.1-.1.3-.1.4-.2s.3-.1.4-.2.3-.1.4-.2.3-.1.4-.2.3-.1.4-.2.3-.1.4-.2.3-.1.4-.2a.6.6,0,0,1,.4-.1c.1,0,.3-.1.4-.1s.3-.1.4-.1.3-.1.4-.1.3-.1.4-.1.3-.1.4-.1a38871256635102.17,38871256635102.17,0,0,0,1-.2.9.9,0,0,0,.5-.1.9.9,0,0,0,.5-.1h4.9a.9.9,0,0,1,.5.1c.2.1.3,0,.5.1s.3.1.5.1.3.1.4.1.3.1.5.1.3.1.4.1.3.1.4.1.3.1.4.1.3.1.4.1.3.1.4.1.3.1.4.2.3.1.4.2.3.1.4.2.3.1.4.2.3.1.4.2.3.1.4.2.3.1.4.2.3.1.4.2a19668661934051.88,19668661934051.88,0,0,1,1.2.6c.1.1.3.2.4.3l.4.3a1.38,1.38,0,0,0,.4.3,12216795864225.34,12216795864225.34,0,0,1,.8.6l.3.3.3.3.3.3.3.3.3.3.3.3.3.3a13743895347150.68,13743895347150.68,0,0,0,.6.8,6871947673568.18,6871947673568.18,0,0,0,.6.8,1.38,1.38,0,0,0,.3.4c.1.1.2.3.3.4a9834330966984.29,9834330966984.29,0,0,1,.4.8.76.76,0,0,1,.2.4c.1.1.1.3.2.4s.1.3.2.4.1.3.2.4.1.3.2.4.1.3.2.4l.2.4c.1.1.1.3.2.4s.1.3.2.4.1.3.1.4.1.3.1.4.1.3.1.4.1.3.1.4.1.3.1.4.1.3.1.4.1.3.1.5a1.09,1.09,0,0,0,.1.5l.1.5a.9.9,0,0,0,.1.5v2h0v2.4a.9.9,0,0,1-.1.5l-.1.5a.9.9,0,0,1-.1.5c0,.2-.1.3-.1.4s-.1.3-.1.4-.1.3-.1.4-.1.3-.1.4-.1.3-.1.4-.1.3-.1.4-.1.3-.1.4l-.2.4c-.1.1-.1.3-.2.4s-.1.3-.2.4-.1.3-.2.4-.1.3-.2.4-.1.3-.2.4-.1.3-.2.4-.1.3-.2.4a31469859094509.51,31469859094509.51,0,0,1-.4.8.76.76,0,0,0-.2.4c-.1.1-.2.3-.3.4a1.38,1.38,0,0,0-.3.4c-.1.2-.2.2-.3.4a18325193796257.51,18325193796257.51,0,0,1-.6.8l-.3.3-.3.3-.3.3-.3.3-.3.3-.3.3-.3.3-.3.3a97734366913387.55,97734366913387.55,0,0,1-1.6,1.2c-.1.1-.3.2-.4.3a.76.76,0,0,1-.4.2.76.76,0,0,1-.4.2.76.76,0,0,1-.4.2.76.76,0,0,1-.4.2c-.1.1-.3.1-.4.2s-.3.1-.4.2-.3.1-.4.2-.3.1-.4.2-.3.1-.4.2-.3.1-.4.2-.3.1-.4.2a.6.6,0,0,1-.4.1c-.1,0-.3.1-.4.1s-.3.1-.4.1-.3.1-.4.1-.3.1-.4.1-.3.1-.4.1-.3.1-.4.1-.3.1-.5.1a116613769906253.19,116613769906253.19,0,0,1-1,.2h-2C162.8,99.6,162.5,99.8,162.4,99.8Zm0-40h-2a.6.6,0,0,0-.4.1.6.6,0,0,0-.4.1.6.6,0,0,0-.4.1c-.1,0-.3.1-.4.1s-.3.1-.4.1-.3.1-.4.1-.3.1-.4.1-.3.1-.4.1-.3.1-.4.1-.3.1-.4.1a.76.76,0,0,0-.4.2c-.1.1-.3.1-.4.2s-.3.1-.4.2-.3.1-.4.2-.3.1-.4.2-.3.1-.4.2-.3.1-.4.2-.3.1-.4.2-.3.1-.4.2a.76.76,0,0,1-.4.2.52.52,0,0,1-.4.2,48867183456744.4,48867183456744.4,0,0,0-.8.6,16289061152301.67,16289061152301.67,0,0,1-.8.6l-.3.3-.3.3-.3.3-.3.3-.3.3-.3.3-.3.3-.3.3-.3.3-.3.3a7853654484110.93,7853654484110.93,0,0,0-.6.8,1.38,1.38,0,0,0-.3.4,10489953031503.81,10489953031503.81,0,0,1-.4.8.76.76,0,0,0-.2.4c-.1.1-.1.3-.2.4s-.1.3-.2.4-.1.3-.2.4-.1.3-.2.4-.1.3-.2.4-.1.3-.2.4-.1.3-.2.4-.1.3-.2.4a.6.6,0,0,0-.1.4c0,.1-.1.3-.1.4s-.1.3-.1.4-.1.3-.1.4-.1.3-.1.4-.1.3-.1.4-.1.3-.1.4l-.1.4a30827137529877.45,30827137529877.45,0,0,1-.2.8v4.4a.6.6,0,0,0,.1.4.6.6,0,0,0,.1.4l.1.4c0,.1.1.3.1.4s.1.3.1.4.1.3.1.4.1.3.1.4.1.3.1.4.1.3.1.4a9834330967043.65,9834330967043.65,0,0,1,.4.8c.1.1.1.3.2.4s.1.3.2.4.1.3.2.4.1.3.2.4.1.3.2.4.1.3.2.4.1.3.2.4a9834330967024.67,9834330967024.67,0,0,0,.4.8.52.52,0,0,1,.2.4,13743895347150.81,13743895347150.81,0,0,0,.9,1.2l.3.3.3.3.3.3.3.3.3.3.3.3.3.3.3.3.3.3.3.3a24433591728328.46,24433591728328.46,0,0,1,.8.6,12216795864135.34,12216795864135.34,0,0,0,.8.6.52.52,0,0,0,.4.2,13112441289323.9,13112441289323.9,0,0,0,.8.4c.1.1.3.1.4.2s.3.1.4.2.3.1.4.2.3.1.4.2.3.1.4.2.3.1.4.2.3.1.4.2.3.1.4.2a.6.6,0,0,0,.4.1c.1,0,.3.1.4.1s.3.1.4.1.3.1.4.1.3.1.4.1.3.1.4.1.3.1.4.1.3.1.4.1a.6.6,0,0,1,.4.1c.1.1.3,0,.4.1h4.1a10275712509827.35,10275712509827.35,0,0,1,.8-.2.6.6,0,0,0,.4-.1c.1,0,.3-.1.4-.1s.3-.1.4-.1.3-.1.4-.1.3-.1.4-.1.3-.1.4-.1.3-.1.4-.1.3-.1.4-.1a.76.76,0,0,0,.4-.2c.1-.1.3-.1.4-.2s.3-.1.4-.2.3-.1.4-.2.3-.1.4-.2.3-.1.4-.2.3-.1.4-.2.3-.1.4-.2.3-.1.4-.2a.76.76,0,0,1,.4-.2.52.52,0,0,1,.4-.2,1.38,1.38,0,0,1,.4-.3,8144530576139.17,8144530576139.17,0,0,0,.8-.6,1.38,1.38,0,0,1,.4-.3l.3-.3.3-.3.3-.3.3-.3.3-.3.3-.3.3-.3.3-.3.3-.3.3-.3a54975581388811.7,54975581388811.7,0,0,1,.9-1.2,10489953031503.58,10489953031503.58,0,0,1,.4-.8c0-.2.2-.3.2-.4s.1-.3.2-.4.1-.3.2-.4.1-.3.2-.4.1-.3.2-.4.1-.3.2-.4.1-.3.2-.4.1-.3.2-.4.1-.3.2-.4l.1-.4c0-.1.1-.3.1-.4s.1-.3.1-.4.1-.3.1-.4.1-.3.1-.4.1-.3.1-.4.1-.3.1-.4.1-.3.1-.4a.6.6,0,0,1,.1-.4l.4.4V77.5l-.1-.4a.6.6,0,0,0-.1-.4c0-.1-.1-.3-.1-.4s-.1-.3-.1-.4-.1-.3-.1-.4-.1-.3-.1-.4-.1-.3-.1-.4-.1-.3-.1-.4-.1-.3-.1-.4-.1-.3-.1-.4-.1-.3-.2-.4l-.2-.4c-.1-.1-.1-.3-.2-.4s-.1-.3-.2-.4-.1-.3-.2-.4-.1-.3-.2-.4-.1-.3-.2-.4-.1-.3-.2-.4a6556220644697.9,6556220644697.9,0,0,1-.4-.8.52.52,0,0,1-.2-.4,1.38,1.38,0,0,1-.3-.4c-.1-.2-.2-.2-.3-.4a1.38,1.38,0,0,1-.3-.4l-.3-.3-.3-.3L177,67l-.3-.3-.3-.3-.3-.3-.3-.3-.3-.3-.3-.3-.3-.3a24433591728322,24433591728322,0,0,0-.8-.6l-.4-.3a1.38,1.38,0,0,0-.4-.3.52.52,0,0,0-.4-.2,39337323868039.78,39337323868039.78,0,0,0-.8-.4c-.1-.1-.3-.1-.4-.2s-.3-.1-.4-.2-.3-.1-.4-.2-.3-.1-.4-.2-.3-.1-.4-.2-.3-.1-.4-.2-.3-.1-.4-.2-.3-.1-.4-.2-.3-.1-.4-.1-.3-.1-.4-.1-.3-.1-.4-.1-.3-.1-.4-.1-.3-.1-.4-.1-.3-.1-.4-.1-.3-.1-.4-.1-.3-.1-.4-.1a20551425019993.78,20551425019993.78,0,0,0-.8-.2h-1.6C163.2,60.5,162.5,59.8,162.4,59.8Z" transform="translate(-2.9 -3.1)"/></g></g><g id="Layer_5" data-name="Layer 5"><g id="STROKE_b12d9f73-1b56-42e8-8ed3-b7e845231795" data-name="STROKE b12d9f73-1b56-42e8-8ed3-b7e845231795"><path d="M68.4,79.8v2.4c0,.2,0,.3-.1.4s0,.3-.1.4a.6.6,0,0,1-.1.4c0,.1-.1.3-.1.4s-.1.3-.1.4-.1.3-.1.4-.1.3-.1.4-.1.3-.1.4-.1.3-.1.4-.1.3-.1.4-.1.3-.1.4-.1.3-.2.4-.1.3-.2.4-.1.3-.2.4-.1.3-.2.4-.1.3-.2.4-.1.3-.2.4-.1.3-.2.4-.1.3-.2.4a39337323868119,39337323868119,0,0,1-.4.8c-.1.1-.2.3-.3.4a27487790694403.85,27487790694403.85,0,0,1-.6.8c-.1.2-.2.2-.3.4a1.38,1.38,0,0,0-.3.4l-.3.3-.3.3-.3.3-.3.3-.3.3-.3.3-.3.3-.3.3a1.38,1.38,0,0,1-.4.3,22339283865926.56,22339283865926.56,0,0,0-.8.6,65156244608959.83,65156244608959.83,0,0,0-.8.6.76.76,0,0,1-.4.2,15734929547254.93,15734929547254.93,0,0,1-.8.4c-.1.1-.3.1-.4.2s-.3.1-.4.2-.3.1-.4.2-.3.1-.4.2-.3.1-.4.2-.3.1-.4.2-.3.1-.4.2-.3.1-.4.2a.6.6,0,0,1-.4.1c-.1,0-.3.1-.4.1s-.3.1-.4.1-.3.1-.4.1-.3.1-.4.1-.3.1-.4.1-.3.1-.4.1-.3.1-.4.1a.6.6,0,0,0-.4.1c-.1.1-.3,0-.4.1H46.2a13700950013259.91,13700950013259.91,0,0,0-.8-.2.6.6,0,0,1-.4-.1c-.1,0-.3-.1-.4-.1s-.3-.1-.4-.1-.3-.1-.4-.1-.3-.1-.4-.1-.3-.1-.4-.1-.3-.1-.4-.1-.3-.1-.4-.1a.76.76,0,0,1-.4-.2c-.1-.1-.3-.1-.4-.2s-.3-.1-.4-.2-.3-.1-.4-.2-.3-.1-.4-.2-.3-.1-.4-.2-.3-.1-.4-.2-.3-.1-.4-.2a.76.76,0,0,0-.4-.2.76.76,0,0,0-.4-.2.76.76,0,0,0-.4-.2c-.1-.1-.3-.2-.4-.3a1.38,1.38,0,0,0-.4-.3,1.38,1.38,0,0,0-.4-.3,1.38,1.38,0,0,0-.4-.3l-.3-.3-.3-.3-.3-.3-.3-.3-.3-.3-.3-.3-.3-.3-.3-.3-.3-.3a54975581388786.36,54975581388786.36,0,0,1-.6-.8,54975581388783.36,54975581388783.36,0,0,1-.6-.8c-.1-.1-.2-.3-.3-.4a19668661934055.4,19668661934055.4,0,0,1-.4-.8.76.76,0,0,1-.2-.4c-.1-.1-.1-.3-.2-.4s-.1-.3-.2-.4-.1-.3-.2-.4-.1-.3-.2-.4c-.6.2-.6.1-.7,0s-.1-.3-.2-.4-.1-.3-.2-.4a.6.6,0,0,1-.1-.4c0-.1-.1-.3-.1-.4s-.1-.3-.1-.4-.1-.3-.1-.4-.1-.3-.1-.4-.1-.3-.1-.4-.1-.3-.1-.4-.1-.3-.1-.4-.1-.3-.1-.4a.6.6,0,0,0-.1-.4.6.6,0,0,0-.1-.4V78.2a.9.9,0,0,1,.1-.5.6.6,0,0,1,.1-.4c.1-.1,0-.3.1-.4s.1-.3.1-.4.1-.3.1-.4.1-.3.1-.4.1-.3.1-.4.1-.3.1-.4.1-.3.1-.4.1-.3.1-.4.1-.3.1-.4.1-.3.2-.4.1-.3.2-.4.1-.3.2-.4.1-.3.2-.4.1-.3.2-.4.1-.3.2-.4.1-.3.2-.4.1-.3.2-.4a39337323868145.28,39337323868145.28,0,0,1,.4-.8c.1-.1.2-.3.3-.4a27487790694389.48,27487790694389.48,0,0,0,.6-.8,109951162777610.19,109951162777610.19,0,0,1,.6-.8l.3-.3.3-.3.3-.3.3-.3.3-.3.3-.3.3-.3.3-.3.3-.3a1.38,1.38,0,0,1,.4-.3,1.38,1.38,0,0,1,.4-.3,1.38,1.38,0,0,1,.4-.3,1.38,1.38,0,0,1,.4-.3.76.76,0,0,1,.4-.2.76.76,0,0,1,.4-.2.76.76,0,0,1,.4-.2c.1-.1.3-.1.4-.2s.3-.1.4-.2.3-.1.4-.2.3-.1.4-.2.3-.1.4-.2.3-.1.4-.2.3-.1.4-.2.3-.1.4-.2.3-.1.4-.1.3-.1.4-.1.3-.1.4-.1.3-.1.4-.1.3-.1.4-.1.3-.1.4-.1.3-.1.4-.1.3-.1.4-.1a32882280031814.1,32882280031814.1,0,0,0,.8-.2h4.8c.2,0,.3,0,.4.1a30827137529839.15,30827137529839.15,0,0,1,.8.2c.1,0,.3.1.4.1s.3.1.4.1.3.1.4.1.3.1.4.1.3.1.4.1.3.1.4.1.3.1.4.1.3.1.4.2.3.1.4.2.3.1.4.2.3.1.4.2.3.1.4.2.3.1.4.2.3.1.4.2.3.1.4.2a39337323868104.35,39337323868104.35,0,0,1,.8.4.76.76,0,0,0,.4.2c.1.1.3.2.4.3a48867183456749.7,48867183456749.7,0,0,0,.8.6,1.38,1.38,0,0,0,.4.3,1.38,1.38,0,0,0,.4.3l.3.3.3.3.3.3.3.3.3.3.3.3.3.3.3.3a18325193796263.69,18325193796263.69,0,0,1,.6.8c.1.2.2.2.3.4a1.38,1.38,0,0,1,.3.4c.1.1.2.3.3.4a39337323868118.49,39337323868118.49,0,0,1,.4.8.76.76,0,0,1,.2.4c.1.1.1.3.2.4s.1.3.2.4.1.3.2.4.1.3.2.4.1.3.2.4.1.3.2.4.1.3.2.4a.6.6,0,0,1,.1.4c0,.1.1.3.1.4s.1.3.1.4.1.3.1.4.1.3.1.4.1.3.1.4.1.3.1.4.1.3.1.4a10275712509938.47,10275712509938.47,0,0,1,.2.8.9.9,0,0,0,.1.5v1.5C68.4,79.5,68.4,79.7,68.4,79.8Z" transform="translate(-2.9 -3.1)"/><path d="M48.4,100.3H45.9a.9.9,0,0,1-.5-.1,1.09,1.09,0,0,1-.5-.1c-.2,0-.3-.1-.5-.1a4.33,4.33,0,0,0-.5-.1c-.1,0-.3-.1-.4-.1s-.3-.1-.4-.1-.3-.1-.4-.1-.3-.1-.4-.1-.3-.1-.4-.1-.3-.1-.4-.1-.3-.1-.4-.2-.3-.1-.4-.2-.3-.1-.4-.2-.3-.1-.4-.2-.3-.1-.4-.2-.3-.1-.4-.2-.3-.1-.4-.2-.3-.1-.4-.2a.76.76,0,0,0-.4-.2.76.76,0,0,0-.4-.2c-.1-.1-.3-.2-.4-.3s-.3-.2-.4-.3a1.38,1.38,0,0,0-.4-.3,1.38,1.38,0,0,0-.4-.3,1.38,1.38,0,0,0-.4-.3,1.38,1.38,0,0,0-.4-.3l-.3-.3-.3-.3-.3-.3-.3-.3-.3-.3-.3-.3-.3-.3a54975581388790.56,54975581388790.56,0,0,0-.6-.8,1.38,1.38,0,0,1-.3-.4l-.2-.4a1.38,1.38,0,0,1-.3-.4c-.1-.1-.2-.3-.3-.4a19668661934070.49,19668661934070.49,0,0,0-.4-.8.76.76,0,0,1-.2-.4c-.1-.1-.1-.3-.2-.4s-.1-.3-.2-.4-.1-.3-.2-.4-.1-.3-.2-.4-.1-.3-.2-.4-.1-.3-.2-.4-.1-.3-.2-.4-.1-.3-.2-.4-.1-.3-.1-.4-.1-.3-.1-.4-.1-.3-.1-.4-.1-.3-.1-.4-.1-.3-.1-.4-.1-.3-.1-.4a4.33,4.33,0,0,1-.1-.5,4.33,4.33,0,0,1-.1-.5,1.09,1.09,0,0,0-.1-.5.9.9,0,0,0-.1-.5V77.7a.9.9,0,0,1,.1-.5.9.9,0,0,1,.1-.5.9.9,0,0,1,.1-.5,4.33,4.33,0,0,0,.1-.5c0-.2.1-.3.1-.4s.1-.3.1-.4.1-.3.1-.4.1-.3.1-.4.1-.3.1-.4.1-.3.1-.4a.76.76,0,0,1,.2-.4c.1-.1.1-.3.2-.4s.1-.3.2-.4.1-.3.2-.4.1-.3.2-.4.1-.3.2-.4.1-.3.2-.4.1-.3.2-.4.1-.3.2-.4a78674647736284.67,78674647736284.67,0,0,1,.4-.8c.1-.1.2-.3.3-.4s.2-.3.3-.4a1.38,1.38,0,0,0,.3-.4c.1-.2.2-.2.3-.4a1.38,1.38,0,0,0,.3-.4l.3-.3.3-.3.3-.3.3-.3.3-.3.3-.3.3-.3.3-.3a1.38,1.38,0,0,1,.4-.3,1.38,1.38,0,0,1,.4-.3,1.38,1.38,0,0,1,.4-.3,1.38,1.38,0,0,1,.4-.3c.1-.1.3-.2.4-.3a.76.76,0,0,1,.4-.2.76.76,0,0,1,.4-.2.76.76,0,0,1,.4-.2.76.76,0,0,1,.4-.2c.1-.1.3-.1.4-.2s.3-.1.4-.2.3-.1.4-.2.3-.1.4-.2.3-.1.4-.2.3-.1.4-.2.3-.1.4-.2a.6.6,0,0,1,.4-.1c.1,0,.3-.1.4-.1s.3-.1.4-.1.3-.1.4-.1.3-.1.4-.1.3-.1.4-.1a4.33,4.33,0,0,1,.5-.1A4.33,4.33,0,0,1,45,60a.9.9,0,0,0,.5-.1.9.9,0,0,0,.5-.1h4.9a.9.9,0,0,1,.5.1.9.9,0,0,1,.5.1c.2,0,.3.1.5.1s.3.1.4.1.3.1.4.1.3.1.4.1.3.1.4.1.3.1.4.1.3.1.4.1.3.1.4.1.3.1.4.2.3.1.4.2.3.1.4.2.3.1.4.2.3.1.4.2.3.1.4.2.3.1.4.2.3.1.4.2a26224882578791.63,26224882578791.63,0,0,0,.8.4c.1.1.3.2.4.3s.3.2.4.3a1.38,1.38,0,0,0,.4.3c.2.1.2.2.4.3a48867183456727.88,48867183456727.88,0,0,1,.8.6l.3.3.3.3.3.3.3.3.3.3.3.3.3.3a27487790694404.54,27487790694404.54,0,0,1,.6.8,13743895347207.36,13743895347207.36,0,0,0,.6.8,1.38,1.38,0,0,1,.3.4c.1.1.2.3.3.4a.76.76,0,0,1,.2.4,39337323868118,39337323868118,0,0,1,.4.8c.1.1.1.3.2.4s.1.3.2.4.1.3.2.4.1.3.2.4.1.3.2.4l.2.4c.1.1.1.3.2.4s.1.3.2.4.1.3.1.4.1.3.1.4.1.3.1.4.1.3.1.4.1.3.1.4.1.3.1.4.1.3.1.5a4.33,4.33,0,0,1,.1.5,1.09,1.09,0,0,0,.1.5.9.9,0,0,0,.1.5v4.5a18658203184864.5,18658203184864.5,0,0,0-.2,1,1.09,1.09,0,0,1-.1.5c0,.1-.1.3-.1.4s-.1.3-.1.4-.1.3-.1.4-.1.3-.1.4-.1.3-.1.4-.1.3-.1.4-.1.3-.1.4a.76.76,0,0,1-.2.4c-.1.1-.1.3-.2.4s-.1.3-.2.4-.1.2-.2.4-.1.3-.2.4-.1.3-.2.4-.1.3-.2.4-.1.3-.2.4a26224882578770.25,26224882578770.25,0,0,1-.4.8.76.76,0,0,0-.2.4c-.1.1-.2.3-.3.4a12216795864180.08,12216795864180.08,0,0,1-.6.8,27487790694404.67,27487790694404.67,0,0,1-.6.8,1.38,1.38,0,0,0-.3.4l-.3.3-.3.3-.3.3-.3.3-.3.3-.3.3-.3.3a16289061152235.24,16289061152235.24,0,0,1-.8.6,1.38,1.38,0,0,1-.4.3,1.38,1.38,0,0,1-.4.3c-.1.1-.3.2-.4.3a62939718189020.15,62939718189020.15,0,0,1-.8.4.76.76,0,0,1-.4.2.76.76,0,0,0-.4.2c-.1.1-.3.1-.4.2s-.3.1-.4.2-.3.1-.4.2-.3.1-.4.2-.3.1-.4.2-.3.1-.4.2-.3.1-.4.2a.6.6,0,0,1-.4.1c-.1,0-.3.1-.4.1s-.3.1-.4.1-.3.1-.4.1-.3.1-.4.1-.3.1-.5.1-.3.1-.4.1a4.33,4.33,0,0,1-.5.1,18658203184863.63,18658203184863.63,0,0,1-1,.2H48.4Zm0-40h-2a.6.6,0,0,0-.4.1.6.6,0,0,0-.4.1.6.6,0,0,0-.4.1c-.1,0-.3.1-.4.1s-.3.1-.4.1-.3.1-.4.1-.3.1-.4.1-.3.1-.4.1-.3.1-.4.1-.3.1-.4.1a.76.76,0,0,0-.4.2c-.1.1-.3.1-.4.2s-.3.1-.4.2-.3.1-.4.2-.3.1-.4.2-.3.1-.4.2-.3.1-.4.2-.3.1-.4.2-.3.1-.4.2a.76.76,0,0,1-.4.2.76.76,0,0,1-.4.2,1.38,1.38,0,0,1-.4.3,1.38,1.38,0,0,1-.4.3,1.38,1.38,0,0,1-.4.3,1.38,1.38,0,0,1-.4.3l-.3.3-.3.3-.3.3-.3.3-.3.3-.3.3-.3.3-.3.3-.3.3-.3.3a109951162777608.45,109951162777608.45,0,0,0-.6.8,1.38,1.38,0,0,0-.3.4.52.52,0,0,0-.2.4,19668661934059.78,19668661934059.78,0,0,1-.4.8.76.76,0,0,0-.2.4c-.1.1-.1.3-.2.4s-.1.3-.2.4-.1.3-.2.4-.1.3-.2.4-.1.3-.2.4-.1.3-.2.4-.1.3-.2.4a.6.6,0,0,0-.1.4c0,.1-.1.3-.1.4s-.1.3-.1.4-.1.3-.1.4-.1.3-.1.4-.1.3-.1.4-.1.3-.1.4-.1.3-.1.4a.6.6,0,0,1-.1.4.6.6,0,0,1-.1.4.6.6,0,0,1-.1.4v3.6a.6.6,0,0,0,.1.4.6.6,0,0,0,.1.4.6.6,0,0,0,.1.4c0,.1.1.3.1.4s.1.3.1.4.1.3.1.4.1.3.1.4.1.3.1.4.1.3.1.4.1.3.1.4.1.3.1.4.1.3.2.4.1.3.2.4.1.3.2.4.1.3.2.4.1.3.2.4.1.3.2.4.1.3.2.4.1.3.2.4a19668661934059.78,19668661934059.78,0,0,1,.4.8.76.76,0,0,1,.2.4,54975581388811.26,54975581388811.26,0,0,0,.6.8c.1.2.2.2.3.4l.3.3.3.3.3.3.3.3.3.3.3.3.3.3.3.3.3.3.3.3a1.38,1.38,0,0,0,.4.3,1.38,1.38,0,0,0,.4.3,1.38,1.38,0,0,0,.4.3,1.38,1.38,0,0,0,.4.3.52.52,0,0,0,.4.2.76.76,0,0,0,.4.2.76.76,0,0,0,.4.2c.1.1.3.1.4.2s.3.1.4.2.3.1.4.2.3.1.4.2.3.1.4.2.3.1.4.2.3.1.4.2.3.1.4.2a.6.6,0,0,0,.4.1c.1,0,.3.1.4.1s.3.1.4.1.3.1.4.1.3.1.4.1.3.1.4.1.3.1.4.1.3.1.4.1a.6.6,0,0,1,.4.1c.1.1.3,0,.4.1h4.1a12330855011928.82,12330855011928.82,0,0,1,.8-.2.6.6,0,0,0,.4-.1c.1,0,.3-.1.4-.1s.3-.1.4-.1.3-.1.4-.1.3-.1.4-.1.3-.1.4-.1.3-.1.4-.1.3-.1.4-.1a.76.76,0,0,0,.4-.2c.1-.1.3-.1.4-.2s.3-.1.4-.2.3-.1.4-.2.3-.1.4-.2.3-.1.4-.2.3-.1.4-.2.3-.1.4-.2.3-.1.4-.2a.76.76,0,0,1,.4-.2.52.52,0,0,1,.4-.2,65156244608959.45,65156244608959.45,0,0,1,.8-.6,22339283865926.25,22339283865926.25,0,0,1,.8-.6l.3-.3.3-.3.3-.3.3-.3.3-.3.3-.3.3-.3.3-.3.3-.3.3-.3a41231686041583.2,41231686041583.2,0,0,1,.9-1.2,26224882578745.89,26224882578745.89,0,0,1,.4-.8c0-.2.2-.3.2-.4s.1-.3.2-.4.1-.3.2-.4.1-.3.2-.4.1-.3.2-.4.1-.3.2-.4.1-.3.2-.4.1-.3.2-.4.1-.3.2-.4a.6.6,0,0,0,.1-.4c0-.1.1-.3.1-.4s.1-.3.1-.4.1-.3.1-.4.1-.3.1-.4.1-.3.1-.4.1-.3.1-.4.1-.3.1-.4a.6.6,0,0,1,.1-.4,15413568764908,15413568764908,0,0,1,.2-.8V77.7a15413568764908.05,15413568764908.05,0,0,1-.2-.8.6.6,0,0,0-.1-.4c0-.1-.1-.3-.1-.4s-.1-.3-.1-.4-.1-.3-.1-.4-.1-.3-.1-.4-.1-.3-.1-.4-.1-.3-.1-.4-.1-.3-.1-.4-.1-.3-.1-.4-.1-.3-.2-.4l-.2-.4c-.1-.1-.1-.3-.2-.4s-.1-.3-.2-.4-.1-.3-.2-.4-.1-.3-.2-.4-.1-.3-.2-.4-.1-.3-.2-.4a39337323868156.59,39337323868156.59,0,0,1-.4-.8.52.52,0,0,1-.2-.4,27487790694421.32,27487790694421.32,0,0,1-.6-.8,1.38,1.38,0,0,1-.3-.4l-.3-.3-.3-.3-.3-.3-.3-.3-.3-.3-.3-.3-.3-.3-.3-.3-.3-.3-.3-.3a24433591728366.26,24433591728366.26,0,0,1-.8-.6c-.2-.1-.2-.2-.4-.3a1.38,1.38,0,0,0-.4-.3.52.52,0,0,0-.4-.2,39337323868168.66,39337323868168.66,0,0,1-.8-.4c-.1-.1-.3-.1-.4-.2s-.3-.1-.4-.2-.3-.1-.4-.2-.3-.1-.4-.2-.3-.1-.4-.2-.3-.1-.4-.2-.3-.1-.4-.2-.3-.1-.4-.2a.6.6,0,0,0-.4-.1c-.1,0-.3-.1-.4-.1s-.3-.1-.4-.1-.3-.1-.4-.1-.3-.1-.4-.1-.3-.1-.4-.1-.3-.1-.4-.1-.3-.1-.4-.1a.6.6,0,0,1-.4-.1.6.6,0,0,1-.4-.1H48.4Z" transform="translate(-2.9 -3.1)"/></g></g><g id="Layer_6" data-name="Layer 6"><g id="STROKE_a3e720ed-85e4-41f2-bb76-ba6e782a9175" data-name="STROKE a3e720ed-85e4-41f2-bb76-ba6e782a9175"><path class="cls-2" d="M63.8,74v2.4c0,.1,0,.1-.1.2s0,.1-.1.2,0,.1-.1.2,0,.1-.1.2,0,.1-.1.2,0,.1-.1.2-.1.1-.1.2-.1.1-.1.2-.1.1-.1.2-.1.1-.1.2-.1.1-.1.2-.1.1-.1.2-.1.1-.1.2-.1.1-.1.2-.1.1-.1.2-.1.1-.1.2-.1.1-.1.2-.1.1-.1.2-.1.1-.1.2l-.1.1-.1.1-.1.1-.1.1-.1.1-.1.1-.1.1c-.1,0-.1.1-.2.1s-.1.1-.2.1-.1.1-.2.1-.1.1-.2.1-.1.1-.2.1-.1.1-.2.1-.1.1-.2.1-.1.1-.2.1-.1.1-.2.1-.1.1-.2.1-.1.1-.2.1-.1.1-.2.1-.1.1-.2.1-.1.1-.2.1-.1.1-.2.1-.1,0-.2.1-.1,0-.2.1-.1,0-.2.1-.1,0-.2.1-.1,0-.2.1-.1,0-.2.1-.1,0-.2,0H52.6c-.1,0-.1,0-.2-.1s-.1,0-.2-.1-.1,0-.2-.1-.1,0-.2-.1-.1,0-.2-.1-.1,0-.2-.1-.1,0-.2-.1-.1-.1-.2-.1-.1-.1-.2-.1-.1-.1-.2-.1-.1-.1-.2-.1-.1-.1-.2-.1-.1-.1-.2-.1-.1-.1-.2-.1-.1-.1-.2-.1-.1-.1-.2-.1-.1-.1-.2-.1-.1-.1-.2-.1-.1-.1-.2-.1-.1-.1-.2-.1-.1-.1-.2-.1l-.1-.1-.1-.1-.1-.1-.1-.1-.1-.1-.1-.1-.1-.1c0-.1-.1-.1-.1-.2s-.1-.1-.1-.2-.1-.1-.1-.2-.1-.1-.1-.2-.1-.1-.1-.2-.1-.1-.1-.2-.1-.1-.1-.2-.1-.1-.1-.2-.1-.1-.1-.2-.1-.1-.1-.2-.1-.1-.1-.2-.1-.1-.1-.2-.1-.1-.1-.2-.1-.1-.1-.2,0-.1-.1-.2,0-.1-.1-.2,0-.1-.1-.2,0-.1-.1-.2,0-.1-.1-.2V71.8c0-.1,0-.1.1-.2s0-.1.1-.2,0-.1.1-.2,0-.1.1-.2,0-.1.1-.2,0-.1.1-.2.1-.1.1-.2.1-.1.1-.2.1-.1.1-.2.1-.1.1-.2.1-.1.1-.2.1-.1.1-.2.1-.1.1-.2.1-.1.1-.2.1-.1.1-.2.1-.1.1-.2.1-.1.1-.2.1-.1.1-.2.1-.1.1-.2a.1.1,0,0,1,.1-.1l.1-.1.1-.1.1-.1.1-.1.1-.1.1-.1c.1,0,.1-.1.2-.1s.1-.1.2-.1.1-.1.2-.1.1-.1.2-.1.1-.1.2-.1.1-.1.2-.1.1-.1.2-.1.1-.1.2-.1.1-.1.2-.1.1-.1.2-.1.1-.1.2-.1.1-.1.2-.1.1-.1.2-.1.1-.1.2-.1.1-.1.2-.1.1,0,.2-.1.1,0,.2-.1.1,0,.2-.1.1,0,.2-.1.1,0,.2-.1.1,0,.2-.1H57c.1,0,.1,0,.2.1s.1,0,.2.1.1,0,.2.1.1,0,.2.1.1,0,.2.1.1,0,.2.1.1,0,.2.1.1.1.2.1.1.1.2.1.1.1.2.1.1.1.2.1.1.1.2.1.1.1.2.1.1.1.2.1.1.1.2.1.1.1.2.1.1.1.2.1.1.1.2.1.1.1.2.1.1.1.2.1.1.1.2.1a.1.1,0,0,1,.1.1l.1.1.1.1.1.1.1.1.1.1.1.1c0,.1.1.1.1.2s.1.1.1.2.1.1.1.2.1.1.1.2.1.1.1.2.1.1.1.2.1.1.1.2.1.1.1.2.1.1.1.2.1.1.1.2.1.1.1.2.1.1.1.2.1.1.1.2.1.1.1.2,0,.1.1.2,0,.1.1.2,0,.1.1.2,0,.1.1.2,0,.1.1.2V74Z" transform="translate(-2.9 -3.1)"/><path class="cls-2" d="M55,83h-.4l-1.4-.2H53l-1.4-.4-.2-.1c-.1,0-.1-.1-.2-.1l-.2-.1c-.1,0-.1-.1-.2-.1s-.1-.1-.2-.1-.1-.1-.2-.1l-.4-.2c-.1,0-.1-.1-.2-.1l-.6-.5c-.1,0-.1-.1-.2-.1l-.5-.4-.1-.1-.1-.1-.1-.1a.35.35,0,0,1-.1-.2.35.35,0,0,1-.1-.2c0-.1-.1-.1-.1-.2l-.6-.8c0-.1-.1-.1-.1-.2s-.1-.1-.1-.2l-.1-.2c0-.1-.1-.1-.1-.2l-.5-1.3-.3-1.4L45.8,74V72.6l.1-.4V72l.1-.4c0-.1,0-.1.1-.2l.4-.9c0-.1.1-.1.1-.2l.1-.2c0-.1.1-.1.1-.2l.8-1.2,1.1-1.2,1.1-.9c.1,0,.1-.1.2-.1s.1-.1.2-.1l.9-.5c.1,0,.1-.1.2-.1s.1-.1.2-.1.1,0,.2-.1.1,0,.2-.1l.4-.1c.1,0,.2,0,.2-.1l.6-.1h1.8l1.2.1h.4l.8.2c.1,0,.1,0,.2.1l.6.2c.1,0,.1,0,.2.1s.1.1.2.1.1.1.2.1l1.3.7,1.1.9.1.1.1.1.1.1.4.5c0,.1.1.1.1.2a.35.35,0,0,1,.1.2l.2.3a.1.1,0,0,0,.1.1l.7,1.2c0,.1.1.1.1.2s.1.1.1.2l.1.4c0,.1,0,.1.1.2l.1.2c0,.1,0,.1.1.2s0,.1.1.2l.1.4v.2l.2,1.4v.2h0v.8l-.2,1.4-.1.2c0,.1,0,.1-.1.2l-.3.8c0,.1-.1.1-.1.2s-.1.1-.1.2l-.5.9c0,.1-.1.1-.1.2l-.5.7c0,.1-.1.1-.1.2l-.4.5a.1.1,0,0,1-.1.1l-.1.1-.1.1-1.1.9-.7.4c-.1,0-.1.1-.2.1l-1.2.2c-.1,0-.1,0-.2.1l-1.3.3-.9.1H55Zm0-17.3-1.2.1h-.4l-1.5.4c-.1,0-.1,0-.2.1s-.1,0-.2.1-.1.1-.2.1l-.8.5c-.1,0-.1.1-.2.1l-1.2.9-1,1.1-.7,1.1c0,.1-.1.1-.1.2l-.1.2c0,.1-.1.1-.1.2l-.3.9c0,.1,0,.1-.1.2l-.1.4v.2l-.2,1.3v.6l.1,1.3.4,1.5.6,1.2c0,.1.1.1.1.2l.7.9a.1.1,0,0,0,.1.1l.1.1a.1.1,0,0,0,.1.1l.3.3.1.1,1.2,1,.5.3c.1,0,.1.1.2.1s.1.1.2.1.1.1.2.1l.2.1c.1,0,.1.1.2.1l1.5.5h.2l1.4.2h.8l1.5-.2,1.2-.4,1.4-.7,1.1-.8.3-.3.1-.1.6-.7c0-.1.1-.1.1-.2l.8-1.3.2-.3c0-.1.1-.1.1-.2s.1-.1.1-.2l.2-.7c0-.1,0-.1.1-.2l.3-1.5v-.8l-.2-1.5-.2-.6c0-.1,0-.1-.1-.2s0-.1-.1-.2l-.1-.2c0-.1,0-.1-.1-.2l-.1-.4c0-.1-.1-.1-.1-.2s-.1-.1-.1-.2l-.7-1.1.2-.2-.1.3-1-1.1-1.2-1-1.3-.8c-.1,0-.1-.1-.2-.1s-.1-.1-.2-.1-.1,0-.2-.1l-1.3-.4H56Z" transform="translate(-2.9 -3.1)"/></g></g><g id="Layer_3" data-name="Layer 3"><g id="STROKE_4b74c5a8-7df4-4036-a3ec-6e3dc7d9a15b" data-name="STROKE 4b74c5a8-7df4-4036-a3ec-6e3dc7d9a15b"><path class="cls-2" d="M177.8,73.5v2.4c0,.1,0,.1-.1.2s0,.1-.1.2,0,.1-.1.2,0,.1-.1.2,0,.1-.1.2,0,.1-.1.2-.1.1-.1.2-.1.1-.1.2-.1.1-.1.2-.1.1-.1.2-.1.1-.1.2-.1.1-.1.2-.1.1-.1.2-.1.1-.1.2-.1.1-.1.2-.1.1-.1.2-.1.1-.1.2-.1.1-.1.2-.1.1-.1.2l-.1.1-.1.1-.1.1-.1.1-.1.1-.1.1-.1.1a.35.35,0,0,1-.2.1c-.1,0-.1.1-.2.1s-.1.1-.2.1-.1.1-.2.1-.1.1-.2.1-.1.1-.2.1-.1.1-.2.1-.1.1-.2.1-.1.1-.2.1-.1.1-.2.1-.1.1-.2.1-.1.1-.2.1-.1.1-.2.1-.1.1-.2.1-.1.1-.2.1-.1,0-.2.1-.1,0-.2.1-.1,0-.2.1-.1,0-.2.1-.1,0-.2.1-.1,0-.2.1-.1,0-.2,0h-4.2c-.1,0-.1,0-.2-.1s-.1,0-.2-.1-.1,0-.2-.1-.1,0-.2-.1-.1,0-.2-.1-.1,0-.2-.1-.1,0-.2-.1-.1-.1-.2-.1-.1-.1-.2-.1-.1-.1-.2-.1-.1-.1-.2-.1-.1-.1-.2-.1-.1-.1-.2-.1-.1-.1-.2-.1-.1-.1-.2-.1-.1-.1-.2-.1-.1-.1-.2-.1-.1-.1-.2-.1-.1-.1-.2-.1-.1-.1-.2-.1-.1-.1-.2-.1l-.1-.1-.1-.1-.1-.1L162,80l-.1-.1-.1-.1-.1-.1c0-.1-.1-.1-.1-.2s-.1-.1-.1-.2-.1-.1-.1-.2-.1-.1-.1-.2-.1-.1-.1-.2-.1-.1-.1-.2-.1-.1-.1-.2-.1-.1-.1-.2-.1-.1-.1-.2-.1-.1-.1-.2-.1-.1-.1-.2-.1-.1-.1-.2-.1-.1-.1-.2-.1-.1-.1-.2,0-.1-.1-.2,0-.1-.1-.2,0-.1-.1-.2,0-.1-.1-.2,0-.1-.1-.2V71.3c0-.1,0-.1.1-.2s0-.1.1-.2,0-.1.1-.2,0-.1.1-.2,0-.1.1-.2,0-.1.1-.2.1-.1.1-.2.1-.1.1-.2.1-.1.1-.2.1-.1.1-.2.1-.1.1-.2.1-.1.1-.2.1-.1.1-.2.1-.1.1-.2.1-.1.1-.2.1-.1.1-.2.1-.1.1-.2.1-.1.1-.2.1-.1.1-.2a.1.1,0,0,1,.1-.1l.1-.1.1-.1.1-.1.1-.1.1-.1.1-.1c.1,0,.1-.1.2-.1s.1-.1.2-.1.1-.1.2-.1.1-.1.2-.1.1-.1.2-.1.1-.1.2-.1.1-.1.2-.1.1-.1.2-.1.1-.1.2-.1.1-.1.2-.1.1-.1.2-.1.1-.1.2-.1.1-.1.2-.1.1-.1.2-.1.1-.1.2-.1.1,0,.2-.1.1,0,.2-.1.1,0,.2-.1.1,0,.2-.1.1,0,.2-.1.1,0,.2-.1H171c.1,0,.1,0,.2.1s.1,0,.2.1.1,0,.2.1.1,0,.2.1.1,0,.2.1.1,0,.2.1.1,0,.2.1.1.1.2.1.1.1.2.1.1.1.2.1.1.1.2.1.1.1.2.1.1.1.2.1.1.1.2.1.1.1.2.1.1.1.2.1.1.1.2.1.1.1.2.1.1.1.2.1.1.1.2.1.1.1.2.1a.1.1,0,0,1,.1.1l.1.1.1.1.1.1.1.1.1.1.1.1c0,.1.1.1.1.2s.1.1.1.2.1.1.1.2.1.1.1.2.1.1.1.2.1.1.1.2.1.1.1.2.1.1.1.2.1.1.1.2.1.1.1.2.1.1.1.2.1.1.1.2.1.1.1.2.1.1.1.2,0,.1.1.2,0,.1.1.2,0,.1.1.2,0,.1.1.2,0,.1.1.2v2.2Z" transform="translate(-2.9 -3.1)"/><path class="cls-2" d="M169,82.5h-.8l-1-.1H167l-1.4-.4-.2-.1c-.1,0-.1-.1-.2-.1l-.2-.1c-.1,0-.1-.1-.2-.1s-.1-.1-.2-.1-.1-.1-.2-.1l-.4-.2c-.1,0-.1-.1-.2-.1l-1.1-.9-.2-.1-.1-.1-.1-.1-.1-.1-.4-.5a.35.35,0,0,1-.1-.2l-.8-1.2c0-.1-.1-.1-.1-.2l-.5-1.3c0-.1,0-.1-.1-.2s0-.1-.1-.2l-.2-1v-.2l-.1-1.2V72.2l.1-.4v-.2l.1-.4c0-.1,0-.1.1-.2l.1-.2c0-.1,0-.1.1-.2l.2-.6c0-.1.1-.1.1-.2l.1-.2c0-.1.1-.1.1-.2l.8-1.2c0-.1.1-.1.1-.2l1-1,.6-.5c.1,0,.1-.1.2-.1l.3-.2c.1,0,.1-.1.2-.1s.1-.1.2-.1l.9-.5c.1,0,.1-.1.2-.1s.1-.1.2-.1.1,0,.2-.1l.5-.2c.1,0,.2,0,.2-.1l.6-.1h3.4l.8.2c.1,0,.1,0,.2.1l.2.1c.1,0,.1,0,.2.1l.4.1c.1,0,.1.1.2.1s.1.1.2.1l1.3.7,1.1.9c.1,0,.1.1.2.1l.8.7c0,.1.1.1.1.2a.35.35,0,0,1,.1.2l.5.7c0,.1.1.1.1.2l.3.5c0,.1.1.1.1.2l.1.2c0,.1.1.1.1.2l.1.4c0,.1,0,.1.1.2s0,.1.1.2,0,.1.1.2l.1.6v.2l.2,1.4v.2h0v.8l-.2,1.4c0,.1,0,.1-.1.2s0,.1-.1.2l-.1.2c0,.1,0,.1-.1.2l-.1.4c0,.1-.1.1-.1.2l-.6,1.1c0,.1-.1.1-.1.2l-.5.7c0,.1-.1.1-.1.2l-.7.7-.1.1a.35.35,0,0,1-.2.1l-1,.5-.5.3c-.1,0-.1.1-.2.1L172,82c-.1,0-.1,0-.2.1l-.8.2h-.2l-1,.1h-.6Zm0-17.3-1.2.1h-.4l-.8.2c-.1,0-.1,0-.2.1l-.6.2c-.1,0-.1,0-.2.1s-.1,0-.2.1-.1.1-.2.1l-.9.4c-.1,0-.1.1-.2.1s-.1.1-.2.1l-1.2.9-.8.8c0,.1-.1.1-.1.2l-.7,1.1c0,.1-.1.1-.1.2l-.1.2c0,.1-.1.1-.1.2l-.3.9c0,.1,0,.1-.1.2l-.1.4V72l-.2,1.5v.4l.1.9V75l.2.9c0,.1,0,.1.1.2s0,.1.1.2l.5,1.2c0,.1.1.1.1.2l.7,1.1a.1.1,0,0,0,.1.1l.6.7.1.1,1.2.9c.1,0,.1.1.2.1l.3.2c.1,0,.1.1.2.1s.1.1.2.1.1.1.2.1l.2.1c.1,0,.1.1.2.1l1.5.5h.2l1.4.2h.8l1.5-.2.8-.2c.1,0,.1,0,.2-.1L173,81l1.3-.9,1.1-1,.2-.3c0-.1.1-.1.1-.2l.4-.6c0-.1.1-.1.1-.2l.5-1c0-.1,0-.1.1-.2l.3-.7c0-.1,0-.1.1-.2l.3-1.5v-.8l-.2-1.5-.2-.7c0-.1,0-.1-.1-.2l-.1-.2c0-.1,0-.1-.1-.2l-.3-.7c0-.1-.1-.1-.1-.2l-.7-1.1-.1-.2-.1-.1-.8-.8-.1-.1-1.1-.8-1.2-.7c-.1,0-.1-.1-.2-.1s-.1-.1-.2-.1l-1.5-.4h-.6Z" transform="translate(-2.9 -3.1)"/></g></g><g id="Layer_4" data-name="Layer 4"><g id="STROKE_ff25d64d-4ae1-471a-9ff0-c1b06d4d6b52" data-name="STROKE ff25d64d-4ae1-471a-9ff0-c1b06d4d6b52"><path class="cls-3" d="M223.8,60.5a7.72,7.72,0,0,1-6-2.9,7.49,7.49,0,0,1,1.4-10.5l.6-.5a2.74,2.74,0,0,1,.5-.4c.1-.1.3-.2.4-.4l1-.8a4.35,4.35,0,0,0,.7-.6l2-1.8c.3-.2.6-.6,1.1-1a15.38,15.38,0,0,0,1.3-1.2l1.1-1.1,1-1,.9-.9a4.62,4.62,0,0,1,.7-.7c.2-.3.5-.5.7-.8s.5-.5.8-.9.5-.6.7-.8a6.29,6.29,0,0,0,.8-1.1c.3-.4.6-.8.8-1.1a5.92,5.92,0,0,1,.4-.6c0-.1.2-.3.3-.5s.3-.5.5-.9.3-.7.5-1a3.18,3.18,0,0,0,.3-.9c.1-.2.1-.4.2-.5s.1-.5.1-.8.1-.5.1-.7v-.4h0c-.1,0-.2.1-.3.1a.76.76,0,0,1-.4.1.35.35,0,0,0-.2.1,2.19,2.19,0,0,1-.5.3c-.2.1-.3.3-.5.4s-.3.3-.6.6a3.19,3.19,0,0,0-.6.7c-.2.2-.3.4-.6.7s-.3.4-.4.5l-.1.1A7.61,7.61,0,0,1,222,30.9a7.4,7.4,0,0,1-1.6-10.4l.1-.1.1-.1c.2-.2.4-.5.8-1a8.18,8.18,0,0,1,.8-.9,11.05,11.05,0,0,1,1.2-1.3,20.59,20.59,0,0,1,1.6-1.5l1.5-1.2c.6-.4,1.1-.8,1.6-1.1s1-.6,1.4-.8c.6-.3,1.2-.5,2.2-.9a14.29,14.29,0,0,1,2.1-.6,11.08,11.08,0,0,1,1.9-.2,7.35,7.35,0,0,1,2.1,0,7.77,7.77,0,0,1,1.6.2h.2a6.58,6.58,0,0,1,1.5.4,4.35,4.35,0,0,1,1.3.5,13.92,13.92,0,0,1,1.3.6,9.13,9.13,0,0,1,1.3.8,9,9,0,0,1,1.9,1.6l.4.4.3.3a7.34,7.34,0,0,1,1,1.3,10.71,10.71,0,0,1,1.3,2.1,8.36,8.36,0,0,1,.8,2c.2.6.3,1,.4,1.3a9.59,9.59,0,0,1,.3,1.5,15,15,0,0,1,.2,2c0,.7,0,1.6-.1,2.9-.1,1.1-.3,2-.4,2.6a12.09,12.09,0,0,1-.5,1.8c-.2.6-.5,1.3-.8,2.1s-.7,1.4-1,2.1-.7,1.2-.9,1.7a4.38,4.38,0,0,0-.5.9,6.31,6.31,0,0,1-.7,1c-.3.5-.8,1-1.3,1.8s-.9,1.1-1.2,1.5-.6.7-1,1.2-.7.8-1,1.1a6.47,6.47,0,0,0-.8.9l-.9.9a11,11,0,0,0-1,1.1l-1.1,1.1-1.1,1.1c-.5.5-1,.9-1.5,1.4a10,10,0,0,1-1.2,1.1l-2.2,2a6.47,6.47,0,0,0-.9.8l-1.2,1c-.2.2-.5.4-.7.6l-.2.2a1.38,1.38,0,0,1-.4.3l-.6.4A12,12,0,0,1,223.8,60.5Zm12.8-32.9Zm.2-1.3Zm.7-.5Z" transform="translate(-2.9 -3.1)"/></g><g id="STROKE_4f51c0c7-d011-4080-b363-784b7cd738df" data-name="STROKE 4f51c0c7-d011-4080-b363-784b7cd738df"><path class="cls-3" d="M223.8,60.5h-.7a7.51,7.51,0,0,1-6.7-8.2l2.8-28a7.49,7.49,0,0,1,14.9,1.5l-2.8,28A7.64,7.64,0,0,1,223.8,60.5Z" transform="translate(-2.9 -3.1)"/></g><g id="STROKE_14ae9281-0ff1-481f-86f2-0fda424c78fb" data-name="STROKE 14ae9281-0ff1-481f-86f2-0fda424c78fb"><path class="cls-3" d="M227.9,55.4a9.18,9.18,0,0,1-2.8-.5,7.53,7.53,0,0,1-4.2-9.7L231,19.6a7.45,7.45,0,0,1,9.7-4.2,7.53,7.53,0,0,1,4.2,9.7L234.8,50.7A7.35,7.35,0,0,1,227.9,55.4Z" transform="translate(-2.9 -3.1)"/></g><g id="STROKE_d1140c1b-e8e5-41c7-b3aa-f4383d3df833" data-name="STROKE d1140c1b-e8e5-41c7-b3aa-f4383d3df833"><path class="cls-3" d="M223.3,60.5a7.54,7.54,0,0,1-4.7-1.7l-.5-.4a1.38,1.38,0,0,1-.4-.3l-.2-.2c-.2-.2-.5-.4-.7-.6l-.5-.5-.6-.5c-.3-.3-.6-.5-.9-.8a5.72,5.72,0,0,0-.8-.7l-1.4-1.3-1.2-1.2L210,50.9l-1.1-1.1a11.41,11.41,0,0,0-1.1-1.1,10,10,0,0,1-1-1.1c-.3-.3-.6-.7-.9-1s-.5-.6-.8-.9-.6-.7-1-1.1a10.59,10.59,0,0,1-1-1.2,14.85,14.85,0,0,1-1.1-1.5c-.5-.7-1-1.3-1.3-1.8s-.5-.8-.6-1-.3-.5-.5-.9a8.72,8.72,0,0,1-.9-1.7,18.94,18.94,0,0,1-.9-2.1c-.3-.8-.5-1.5-.7-2.1a13.64,13.64,0,0,1-.4-1.7,14.2,14.2,0,0,1-.4-2.7c-.1-1.2-.1-2.1-.1-2.9a6.93,6.93,0,0,1,.3-2,9.59,9.59,0,0,1,.3-1.5c.1-.3.2-.8.4-1.3a10.67,10.67,0,0,1,.9-1.9,14.79,14.79,0,0,1,1.3-2.1,8.06,8.06,0,0,1,1.2-1.4l.1-.1.5-.4a13,13,0,0,1,2-1.5,8.26,8.26,0,0,1,1.3-.7c.5-.2.9-.4,1.3-.6a12.75,12.75,0,0,1,1.4-.4,4.43,4.43,0,0,1,1.5-.3h.3a8.08,8.08,0,0,1,1.6-.1,14.77,14.77,0,0,1,2.1.1c.7.1,1.3.2,1.9.3a8.5,8.5,0,0,1,2.1.7,10.91,10.91,0,0,1,2.1.9c.4.2.9.5,1.4.8s1,.7,1.6,1.1a6.39,6.39,0,0,1,1.5,1.3l1.5,1.5a10.06,10.06,0,0,1,1.2,1.4c.2.2.4.6.7.9.4.5.6.8.8,1l.2.3a7.48,7.48,0,1,1-12.3,8.5l-.1-.1c-.1-.1-.2-.3-.4-.5a4.35,4.35,0,0,0-.6-.7,3.19,3.19,0,0,0-.6-.7,1.7,1.7,0,0,0-.6-.6c-.1-.1-.3-.2-.5-.4s-.3-.3-.5-.3a.31.31,0,0,0-.2-.1c-.1,0-.2-.1-.4-.2s-.2-.1-.3-.1v1.1c0,.3.1.6.1.8s.1.3.1.5a2.94,2.94,0,0,0,.3.9,5.36,5.36,0,0,0,.5,1.1c.2.3.3.6.5.9s.2.4.3.5a6.13,6.13,0,0,0,.4.6c.2.3.5.7.8,1.1s.6.8.8,1.1.4.5.7.8.5.6.8.9.5.5.7.8.5.5.7.8a7.64,7.64,0,0,0,.9.9c.3.3.6.7.9,1l1.1,1.1,1.2,1.2a8.18,8.18,0,0,0,1.1,1l1.3,1.2c.2.2.5.4.7.6a4.62,4.62,0,0,1,.7.7l.9.8c.2.1.3.3.5.4s.4.3.5.4l.6.5a7.58,7.58,0,0,1,1.1,10.6A9.57,9.57,0,0,1,223.3,60.5Zm-12.9-35Zm-4.8-5.3Z" transform="translate(-2.9 -3.1)"/></g><g id="STROKE_de260d1a-e21b-45de-88f5-ae6f22281640" data-name="STROKE de260d1a-e21b-45de-88f5-ae6f22281640"><path class="cls-3" d="M223.3,60.5a7.53,7.53,0,0,1-7.5-7l-2-28.1a7.52,7.52,0,1,1,15-1l2,28.1a7.5,7.5,0,0,1-7,8Z" transform="translate(-2.9 -3.1)"/></g><g id="STROKE_f82809fd-ac09-462d-beca-f6c53e2d7501" data-name="STROKE f82809fd-ac09-462d-beca-f6c53e2d7501"><path class="cls-3" d="M219.3,55.4a7.43,7.43,0,0,1-7-4.9l-9.4-25.8A7.5,7.5,0,0,1,217,19.6l9.4,25.8a7.49,7.49,0,0,1-4.5,9.6A12.66,12.66,0,0,1,219.3,55.4Z" transform="translate(-2.9 -3.1)"/></g></g></svg>